<svg width="130" height="30" viewBox="0 0 130 30" fill="none" xmlns="http://www.w3.org/2000/svg">
<g clip-path="url(#clip0_1_3967)">
<path d="M33.104 26.16V22.064H38.576C39.5573 22.064 40.2933 21.808 40.784 21.296C41.2747 20.784 41.52 20.0587 41.52 19.12C41.52 18.1813 41.2747 17.4667 40.784 16.976C40.2933 16.464 39.5573 16.208 38.576 16.208H33.104V13.04H38.32C39.9413 13.04 41.3813 13.2427 42.64 13.648C43.8987 14.032 44.8907 14.6613 45.616 15.536C46.3413 16.4107 46.704 17.5947 46.704 19.088V19.536C46.704 20.9227 46.384 22.1173 45.744 23.12C45.104 24.1013 44.1653 24.8587 42.928 25.392C41.6907 25.904 40.1547 26.16 38.32 26.16H33.104ZM28.624 26.16V2.448H33.744V26.16H28.624ZM33.104 15.376V12.24H37.712C38.7147 12.24 39.44 11.984 39.888 11.472C40.336 10.96 40.56 10.2773 40.56 9.424C40.56 8.528 40.336 7.824 39.888 7.312C39.44 6.8 38.7147 6.544 37.712 6.544H33.104V2.448H37.392C40.08 2.448 42.1387 3.01333 43.568 4.144C45.0187 5.27467 45.744 6.88533 45.744 8.976V9.456C45.744 10.9067 45.3707 12.0693 44.624 12.944C43.8987 13.8187 42.9067 14.448 41.648 14.832C40.4107 15.1947 38.992 15.376 37.392 15.376H33.104ZM58.368 26.608C56.8747 26.608 55.552 26.352 54.4 25.84C53.2693 25.328 52.32 24.6453 51.552 23.792C50.8053 22.9173 50.2293 21.9467 49.824 20.88C49.44 19.792 49.248 18.6827 49.248 17.552V16.912C49.248 15.7387 49.44 14.6187 49.824 13.552C50.2293 12.464 50.8053 11.4933 51.552 10.64C52.2987 9.78667 53.2267 9.11467 54.336 8.624C55.4667 8.112 56.7467 7.856 58.176 7.856C60.0533 7.856 61.632 8.28267 62.912 9.136C64.2133 9.968 65.2053 11.0667 65.888 12.432C66.5707 13.776 66.912 15.248 66.912 16.848V18.576H51.392V15.664H63.808L62.144 17.008C62.144 15.9627 61.9947 15.0667 61.696 14.32C61.3973 13.5733 60.9493 13.008 60.352 12.624C59.776 12.2187 59.0507 12.016 58.176 12.016C57.28 12.016 56.5227 12.2187 55.904 12.624C55.2853 13.0293 54.816 13.6267 54.496 14.416C54.176 15.184 54.016 16.1333 54.016 17.264C54.016 18.3093 54.1653 19.2267 54.464 20.016C54.7627 20.784 55.232 21.3813 55.872 21.808C56.512 22.2347 57.344 22.448 58.368 22.448C59.3067 22.448 60.0747 22.2667 60.672 21.904C61.2693 21.5413 61.6747 21.0933 61.888 20.56H66.592C66.336 21.7333 65.8347 22.7787 65.088 23.696C64.3413 24.6133 63.4027 25.328 62.272 25.84C61.1413 26.352 59.84 26.608 58.368 26.608ZM78.3368 26.608C76.8434 26.608 75.5208 26.352 74.3688 25.84C73.2381 25.328 72.2888 24.6453 71.5208 23.792C70.7741 22.9173 70.1981 21.9467 69.7928 20.88C69.4088 19.792 69.2168 18.6827 69.2168 17.552V16.912C69.2168 15.7387 69.4088 14.6187 69.7928 13.552C70.1981 12.464 70.7741 11.4933 71.5208 10.64C72.2674 9.78667 73.1954 9.11467 74.3048 8.624C75.4354 8.112 76.7154 7.856 78.1448 7.856C80.0221 7.856 81.6008 8.28267 82.8808 9.136C84.1821 9.968 85.1741 11.0667 85.8568 12.432C86.5394 13.776 86.8808 15.248 86.8808 16.848V18.576H71.3608V15.664H83.7768L82.1128 17.008C82.1128 15.9627 81.9634 15.0667 81.6648 14.32C81.3661 13.5733 80.9181 13.008 80.3208 12.624C79.7448 12.2187 79.0194 12.016 78.1448 12.016C77.2488 12.016 76.4914 12.2187 75.8728 12.624C75.2541 13.0293 74.7848 13.6267 74.4648 14.416C74.1448 15.184 73.9848 16.1333 73.9848 17.264C73.9848 18.3093 74.1341 19.2267 74.4328 20.016C74.7314 20.784 75.2008 21.3813 75.8408 21.808C76.4808 22.2347 77.3128 22.448 78.3368 22.448C79.2754 22.448 80.0434 22.2667 80.6408 21.904C81.2381 21.5413 81.6434 21.0933 81.8568 20.56H86.5608C86.3048 21.7333 85.8034 22.7787 85.0568 23.696C84.3101 24.6133 83.3714 25.328 82.2408 25.84C81.1101 26.352 79.8088 26.608 78.3368 26.608ZM102.626 26L97.0895 17.808H94.6255L101.762 8.464H107.138L100.418 17.168L100.482 14.672L108.386 26H102.626ZM90.2735 26V2.64H95.3935V26H90.2735ZM118.599 26.608C117.063 26.608 115.697 26.3733 114.503 25.904C113.308 25.4133 112.295 24.752 111.463 23.92C110.652 23.088 110.033 22.1387 109.607 21.072C109.18 19.984 108.967 18.8427 108.967 17.648V16.912C108.967 15.696 109.18 14.544 109.607 13.456C110.055 12.3467 110.695 11.376 111.527 10.544C112.38 9.712 113.404 9.06133 114.599 8.592C115.793 8.10133 117.127 7.856 118.599 7.856C120.113 7.856 121.457 8.10133 122.631 8.592C123.825 9.06133 124.839 9.712 125.671 10.544C126.503 11.376 127.143 12.3467 127.591 13.456C128.039 14.544 128.263 15.696 128.263 16.912V17.648C128.263 18.8427 128.049 19.984 127.623 21.072C127.196 22.1387 126.567 23.088 125.735 23.92C124.924 24.752 123.921 25.4133 122.727 25.904C121.532 26.3733 120.156 26.608 118.599 26.608ZM118.599 22.288C119.601 22.288 120.433 22.0747 121.095 21.648C121.756 21.2213 122.257 20.624 122.599 19.856C122.961 19.088 123.143 18.2347 123.143 17.296C123.143 16.2933 122.961 15.4187 122.599 14.672C122.236 13.904 121.713 13.296 121.031 12.848C120.369 12.4 119.559 12.176 118.599 12.176C117.66 12.176 116.849 12.4 116.167 12.848C115.484 13.296 114.961 13.904 114.599 14.672C114.257 15.4187 114.087 16.2933 114.087 17.296C114.087 18.2347 114.257 19.088 114.599 19.856C114.94 20.624 115.452 21.2213 116.135 21.648C116.817 22.0747 117.639 22.288 118.599 22.288Z" fill="#010B21"/>
<path d="M14.1981 0.0969828C14.6052 0.0646552 15.0461 0.0323276 15.4532 0C15.6567 0 15.8602 0 16.0977 0C21.8641 0.0323276 24.6795 6.72414 20.6091 10.6034L15.962 15C15.962 15 15.6228 14.6767 12.536 11.7349C9.44927 8.7931 4.49689 1.90733 13.1805 0.226293H13.2144L14.1981 0.0969828Z" fill="#2F6CE1"/>
<path d="M13.1805 0.226074C4.4969 1.90711 9.44928 8.79288 12.536 11.7347C15.6228 14.6765 15.962 14.9998 15.962 14.9998L20.5752 19.3963C24.6456 23.2756 21.8302 29.9351 16.0638 29.9998C16.0298 29.9998 15.962 29.9998 15.9281 29.9998C7.17661 29.9998 0.0872423 23.1787 0.222924 14.7735C0.324685 7.56444 5.92155 1.48685 13.1805 0.226074Z" fill="#0353EE"/>
</g>
<defs>
<clipPath id="clip0_1_3967">
<rect width="130" height="30" fill="white"/>
</clipPath>
</defs>
</svg>
