<svg width="152" height="35" viewBox="0 0 152 35" fill="none" xmlns="http://www.w3.org/2000/svg">
<g clip-path="url(#clip0_48_293)">
<path d="M38.7879 30.02V25.2414H45.1719C46.3168 25.2414 47.1754 24.9427 47.7479 24.3454C48.3203 23.748 48.6065 22.9018 48.6065 21.8067C48.6065 20.7116 48.3203 19.8778 47.7479 19.3054C47.1754 18.708 46.3168 18.4094 45.1719 18.4094H38.7879V14.7134H44.8732C46.7648 14.7134 48.4448 14.9498 49.9132 15.4227C51.3817 15.8707 52.539 16.6049 53.3852 17.6254C54.2314 18.6458 54.6545 20.0272 54.6545 21.7694V22.292C54.6545 23.9098 54.2812 25.3036 53.5345 26.4734C52.7879 27.6183 51.6928 28.5018 50.2492 29.124C48.8057 29.7214 47.0137 30.02 44.8732 30.02H38.7879ZM33.5612 30.02V2.35604H39.5345V30.02H33.5612ZM38.7879 17.4387V13.78H44.1639C45.3337 13.78 46.1799 13.4814 46.7025 12.884C47.2252 12.2867 47.4865 11.4903 47.4865 10.4947C47.4865 9.44937 47.2252 8.62804 46.7025 8.0307C46.1799 7.43337 45.3337 7.1347 44.1639 7.1347H38.7879V2.35604H43.7905C46.9265 2.35604 49.3283 3.01559 50.9959 4.3347C52.6883 5.65382 53.5345 7.53293 53.5345 9.97204V10.532C53.5345 12.2245 53.099 13.5809 52.2279 14.6014C51.3817 15.6218 50.2243 16.356 48.7559 16.804C47.3123 17.2272 45.6572 17.4387 43.7905 17.4387H38.7879ZM68.2625 30.5427C66.5203 30.5427 64.9772 30.244 63.6332 29.6467C62.3141 29.0494 61.2065 28.2529 60.3105 27.2574C59.4394 26.2369 58.7674 25.1045 58.2945 23.86C57.8465 22.5907 57.6225 21.2965 57.6225 19.9774V19.2307C57.6225 17.8618 57.8465 16.5552 58.2945 15.3107C58.7674 14.0414 59.4394 12.9089 60.3105 11.9134C61.1817 10.9178 62.2643 10.1338 63.5585 9.56137C64.8777 8.96404 66.371 8.66537 68.0385 8.66537C70.2288 8.66537 72.0705 9.16315 73.5639 10.1587C75.0821 11.1294 76.2394 12.4111 77.0359 14.004C77.8323 15.572 78.2305 17.2894 78.2305 19.156V21.172H60.1239V17.7747H74.6092L72.6679 19.3427C72.6679 18.1232 72.4937 17.0778 72.1452 16.2067C71.7968 15.3356 71.2741 14.676 70.5772 14.228C69.9052 13.7552 69.059 13.5187 68.0385 13.5187C66.9932 13.5187 66.1097 13.7552 65.3879 14.228C64.6661 14.7009 64.1185 15.3978 63.7452 16.3187C63.3719 17.2147 63.1852 18.3223 63.1852 19.6414C63.1852 20.8609 63.3594 21.9312 63.7079 22.852C64.0563 23.748 64.6039 24.4449 65.3505 24.9427C66.0972 25.4405 67.0679 25.6894 68.2625 25.6894C69.3577 25.6894 70.2537 25.4778 70.9505 25.0547C71.6474 24.6316 72.1203 24.1089 72.3692 23.4867H77.8572C77.5585 24.8556 76.9737 26.0752 76.1025 27.1454C75.2314 28.2156 74.1363 29.0494 72.8172 29.6467C71.4981 30.244 69.9799 30.5427 68.2625 30.5427ZM91.5594 30.5427C89.8172 30.5427 88.2741 30.244 86.9301 29.6467C85.611 29.0494 84.5034 28.2529 83.6074 27.2574C82.7363 26.2369 82.0643 25.1045 81.5914 23.86C81.1434 22.5907 80.9194 21.2965 80.9194 19.9774V19.2307C80.9194 17.8618 81.1434 16.5552 81.5914 15.3107C82.0643 14.0414 82.7363 12.9089 83.6074 11.9134C84.4785 10.9178 85.5612 10.1338 86.8554 9.56137C88.1745 8.96404 89.6679 8.66537 91.3354 8.66537C93.5256 8.66537 95.3674 9.16315 96.8608 10.1587C98.379 11.1294 99.5363 12.4111 100.333 14.004C101.129 15.572 101.527 17.2894 101.527 19.156V21.172H83.4208V17.7747H97.9061L95.9648 19.3427C95.9648 18.1232 95.7905 17.0778 95.4421 16.2067C95.0936 15.3356 94.571 14.676 93.8741 14.228C93.2021 13.7552 92.3559 13.5187 91.3354 13.5187C90.2901 13.5187 89.4065 13.7552 88.6848 14.228C87.963 14.7009 87.4154 15.3978 87.0421 16.3187C86.6688 17.2147 86.4821 18.3223 86.4821 19.6414C86.4821 20.8609 86.6563 21.9312 87.0048 22.852C87.3532 23.748 87.9008 24.4449 88.6474 24.9427C89.3941 25.4405 90.3648 25.6894 91.5594 25.6894C92.6545 25.6894 93.5505 25.4778 94.2474 25.0547C94.9443 24.6316 95.4172 24.1089 95.6661 23.4867H101.154C100.855 24.8556 100.271 26.0752 99.3994 27.1454C98.5283 28.2156 97.4332 29.0494 96.1141 29.6467C94.795 30.244 93.2768 30.5427 91.5594 30.5427ZM119.896 29.8334L113.438 20.276H110.563L118.888 9.3747H125.16L117.32 19.5294L117.395 16.6174L126.616 29.8334H119.896ZM105.486 29.8334V2.58004H111.459V29.8334H105.486ZM138.532 30.5427C136.74 30.5427 135.147 30.2689 133.753 29.7214C132.359 29.1489 131.177 28.3774 130.206 27.4067C129.261 26.436 128.539 25.3285 128.041 24.084C127.543 22.8147 127.294 21.4832 127.294 20.0894V19.2307C127.294 17.812 127.543 16.468 128.041 15.1987C128.564 13.9045 129.31 12.772 130.281 11.8014C131.277 10.8307 132.471 10.0716 133.865 9.52404C135.259 8.95159 136.814 8.66537 138.532 8.66537C140.299 8.66537 141.867 8.95159 143.236 9.52404C144.63 10.0716 145.812 10.8307 146.782 11.8014C147.753 12.772 148.5 13.9045 149.022 15.1987C149.545 16.468 149.806 17.812 149.806 19.2307V20.0894C149.806 21.4832 149.558 22.8147 149.06 24.084C148.562 25.3285 147.828 26.436 146.857 27.4067C145.911 28.3774 144.742 29.1489 143.348 29.7214C141.954 30.2689 140.349 30.5427 138.532 30.5427ZM138.532 25.5027C139.702 25.5027 140.672 25.2538 141.444 24.756C142.215 24.2583 142.8 23.5614 143.198 22.6654C143.622 21.7694 143.833 20.7738 143.833 19.6787C143.833 18.5089 143.622 17.4885 143.198 16.6174C142.775 15.7214 142.166 15.012 141.369 14.4894C140.598 13.9667 139.652 13.7054 138.532 13.7054C137.437 13.7054 136.491 13.9667 135.694 14.4894C134.898 15.012 134.288 15.7214 133.865 16.6174C133.467 17.4885 133.268 18.5089 133.268 19.6787C133.268 20.7738 133.467 21.7694 133.865 22.6654C134.263 23.5614 134.861 24.2583 135.657 24.756C136.454 25.2538 137.412 25.5027 138.532 25.5027Z" fill="white"/>
<path d="M16.731 0.113147C17.2059 0.075431 17.7203 0.0377155 18.1952 0C18.4327 0 18.6701 0 18.9471 0C25.6747 0.0377155 28.9593 7.84483 24.2105 12.3707L18.7888 17.5C18.7888 17.5 18.3931 17.1228 14.7919 13.6907C11.1907 10.2586 5.41289 2.22522 15.5438 0.264009H15.5834L16.731 0.113147Z" fill="#2F6CE1"/>
<path d="M15.5438 0.264038C5.41285 2.22524 11.1906 10.2586 14.7918 13.6908C18.3931 17.1229 18.7888 17.5 18.7888 17.5L24.1708 22.6293C28.9197 27.1552 25.6351 34.9246 18.9075 35C18.868 35 18.7888 35 18.7492 35C8.53918 35 0.268256 27.0421 0.426551 17.236C0.545273 8.82546 7.07495 1.73494 15.5438 0.264038Z" fill="#0353EE"/>
</g>
<defs>
<clipPath id="clip0_48_293">
<rect width="151.667" height="35" fill="white" transform="translate(0.166504)"/>
</clipPath>
</defs>
</svg>
