<svg width="140" height="80" viewBox="0 0 140 80" fill="none" xmlns="http://www.w3.org/2000/svg">
<path d="M82.0684 1.93285C82.07 2.31702 81.9603 2.69304 81.7531 3.01327C81.546 3.3335 81.2507 3.58354 80.9046 3.73171C80.5586 3.87988 80.1775 3.91951 79.8095 3.84558C79.4414 3.77165 79.1031 3.5875 78.8374 3.31644C78.5716 3.04538 78.3904 2.69961 78.3166 2.32294C78.2428 1.94628 78.2799 1.55566 78.423 1.20057C78.5661 0.845483 78.8089 0.541906 79.1207 0.328297C79.4324 0.114687 79.799 0.000658158 80.174 0.000654559C80.4224 -0.000451738 80.6685 0.0487095 80.8983 0.145316C81.1281 0.241923 81.337 0.384072 81.513 0.563603C81.6891 0.743134 81.8287 0.956512 81.924 1.19149C82.0193 1.42646 82.0684 1.6784 82.0684 1.93285Z" fill="#6F7494"/>
<path d="M101.382 1.93285C101.383 2.31702 101.274 2.69304 101.066 3.01327C100.859 3.3335 100.564 3.58354 100.218 3.73171C99.8719 3.87988 99.4907 3.91951 99.1227 3.84558C98.7547 3.77165 98.4164 3.5875 98.1506 3.31644C97.8848 3.04538 97.7036 2.69961 97.6298 2.32294C97.5561 1.94628 97.5931 1.55566 97.7362 1.20057C97.8794 0.845483 98.1222 0.541906 98.4339 0.328297C98.7456 0.114687 99.1122 0.000658158 99.4872 0.000654559C99.9882 0.00064975 100.469 0.203951 100.824 0.566069C101.179 0.928187 101.379 1.41963 101.382 1.93285Z" fill="#6F7494"/>
<path d="M120.687 1.93285C120.687 2.315 120.576 2.68857 120.369 3.00632C120.162 3.32407 119.867 3.57173 119.522 3.71797C119.178 3.86421 118.798 3.90248 118.432 3.82792C118.067 3.75337 117.73 3.56934 117.467 3.29912C117.203 3.0289 117.023 2.68461 116.95 2.3098C116.878 1.93499 116.915 1.54649 117.058 1.19343C117.201 0.840369 117.442 0.538601 117.753 0.326288C118.063 0.113976 118.427 0.000654559 118.8 0.000654559C119.301 0.000654559 119.78 0.204225 120.134 0.566582C120.488 0.928939 120.687 1.4204 120.687 1.93285Z" fill="#6F7494"/>
<path d="M140 1.93285C140.001 2.31914 139.89 2.6971 139.681 3.01834C139.471 3.33958 139.173 3.58949 138.824 3.73606C138.475 3.88264 138.092 3.91922 137.722 3.84111C137.353 3.76301 137.015 3.57378 136.751 3.29765C136.488 3.02151 136.31 2.67104 136.242 2.29111C136.174 1.91117 136.218 1.51905 136.369 1.16496C136.52 0.810869 136.77 0.510911 137.088 0.30349C137.406 0.0960691 137.778 -0.00937587 138.155 0.000654559C138.648 0.0116384 139.117 0.220047 139.462 0.581221C139.807 0.942394 140 1.4276 140 1.93285Z" fill="#6F7494"/>
<path d="M82.0684 17.34C82.07 17.7242 81.9603 18.1002 81.7531 18.4204C81.546 18.7407 81.2507 18.9907 80.9046 19.1389C80.5586 19.287 80.1775 19.3267 79.8095 19.2528C79.4414 19.1788 79.1031 18.9947 78.8374 18.7236C78.5716 18.4525 78.3904 18.1068 78.3166 17.7301C78.2428 17.3534 78.2799 16.9628 78.423 16.6077C78.5661 16.2527 78.8089 15.9491 79.1207 15.7355C79.4324 15.5219 79.799 15.4078 80.174 15.4078C80.4224 15.4067 80.6685 15.4559 80.8983 15.5525C81.1281 15.6491 81.337 15.7912 81.513 15.9708C81.6891 16.1503 81.8287 16.3637 81.924 16.5987C82.0193 16.8336 82.0684 17.0856 82.0684 17.34Z" fill="#6F7494"/>
<path d="M101.382 17.34C101.383 17.7242 101.274 18.1002 101.066 18.4204C100.859 18.7407 100.564 18.9907 100.218 19.1389C99.8719 19.287 99.4907 19.3267 99.1227 19.2528C98.7547 19.1788 98.4164 18.9947 98.1506 18.7236C97.8848 18.4525 97.7036 18.1068 97.6298 17.7301C97.5561 17.3534 97.5931 16.9628 97.7362 16.6077C97.8794 16.2527 98.1222 15.9491 98.4339 15.7355C98.7456 15.5219 99.1122 15.4078 99.4872 15.4078C99.9882 15.4078 100.469 15.6111 100.824 15.9732C101.179 16.3354 101.379 16.8268 101.382 17.34Z" fill="#6F7494"/>
<path d="M120.687 17.34C120.687 17.7222 120.576 18.0957 120.369 18.4135C120.162 18.7312 119.867 18.9789 119.522 19.1251C119.178 19.2714 118.798 19.3096 118.432 19.2351C118.067 19.1605 117.73 18.9765 117.467 18.7063C117.203 18.4361 117.023 18.0918 116.95 17.717C116.878 17.3422 116.915 16.9537 117.058 16.6006C117.201 16.2475 117.442 15.9458 117.753 15.7335C118.063 15.5211 118.427 15.4078 118.8 15.4078C119.301 15.4078 119.78 15.6114 120.134 15.9738C120.488 16.3361 120.687 16.8276 120.687 17.34Z" fill="#6F7494"/>
<path d="M140 17.34C140.002 17.7245 139.892 18.1009 139.684 18.4213C139.477 18.7417 139.181 18.9918 138.834 19.1397C138.488 19.2876 138.106 19.3267 137.738 19.2521C137.37 19.1775 137.031 18.9925 136.766 18.7206C136.501 18.4487 136.32 18.1022 136.247 17.7249C136.174 17.3477 136.212 16.9568 136.357 16.6019C136.501 16.247 136.745 15.944 137.058 15.7314C137.371 15.5188 137.738 15.4062 138.114 15.4078C138.614 15.4078 139.094 15.6114 139.447 15.9738C139.801 16.3361 140 16.8276 140 17.34Z" fill="#6F7494"/>
<path d="M82.0684 32.764C82.0684 33.1478 81.9573 33.523 81.7491 33.8421C81.541 34.1613 81.2451 34.41 80.8989 34.5569C80.5528 34.7037 80.1719 34.7422 79.8044 34.6673C79.4369 34.5924 79.0994 34.4076 78.8344 34.1362C78.5695 33.8648 78.3891 33.519 78.316 33.1426C78.2429 32.7661 78.2804 32.376 78.4238 32.0214C78.5672 31.6668 78.81 31.3637 79.1215 31.1504C79.433 30.9372 79.7993 30.8234 80.174 30.8234C80.4231 30.8223 80.6699 30.8717 80.9002 30.9688C81.1306 31.066 81.3398 31.2089 81.516 31.3893C81.6921 31.5697 81.8316 31.7841 81.9264 32.02C82.0212 32.256 82.0695 32.5088 82.0684 32.764Z" fill="#6F7494"/>
<path d="M101.382 32.764C101.382 33.1478 101.271 33.523 101.062 33.8421C100.854 34.1613 100.558 34.41 100.212 34.5569C99.866 34.7037 99.4851 34.7422 99.1176 34.6673C98.7502 34.5924 98.4126 34.4076 98.1477 34.1362C97.8827 33.8648 97.7023 33.519 97.6292 33.1426C97.5561 32.7661 97.5936 32.376 97.737 32.0214C97.8804 31.6668 98.1232 31.3637 98.4347 31.1504C98.7463 30.9372 99.1125 30.8234 99.4872 30.8234C99.9896 30.8234 100.471 31.0278 100.827 31.3918C101.182 31.7557 101.382 32.2493 101.382 32.764Z" fill="#6F7494"/>
<path d="M120.687 32.764C120.685 33.1458 120.573 33.5185 120.365 33.8352C120.157 34.1518 119.861 34.3981 119.517 34.5431C119.172 34.6881 118.793 34.7251 118.427 34.6496C118.062 34.5741 117.727 34.3894 117.464 34.1189C117.201 33.8483 117.022 33.504 116.95 33.1295C116.878 32.7549 116.916 32.3668 117.059 32.0142C117.202 31.6617 117.443 31.3604 117.753 31.1485C118.063 30.9365 118.428 30.8234 118.8 30.8234C119.049 30.8234 119.295 30.8736 119.524 30.9713C119.754 31.0689 119.962 31.212 120.137 31.3923C120.312 31.5726 120.451 31.7866 120.545 32.022C120.64 32.2574 120.688 32.5095 120.687 32.764Z" fill="#6F7494"/>
<path d="M140 32.764C140 33.1499 139.887 33.5271 139.677 33.8472C139.466 34.1673 139.168 34.4159 138.819 34.5612C138.47 34.7065 138.086 34.7418 137.717 34.6628C137.349 34.5837 137.011 34.3938 136.748 34.1174C136.486 33.8409 136.309 33.4904 136.242 33.1107C136.174 32.731 136.219 32.3394 136.37 31.9858C136.521 31.6322 136.771 31.3327 137.089 31.1257C137.407 30.9186 137.778 30.8134 138.155 30.8234C138.649 30.8344 139.12 31.044 139.465 31.407C139.81 31.7699 140.002 32.2573 140 32.764Z" fill="#6F7494"/>
<path d="M82.0684 48.1628C82.0652 48.5458 81.9513 48.9194 81.7412 49.2363C81.5311 49.5532 81.2341 49.7993 80.8877 49.9436C80.5412 50.0879 80.1608 50.124 79.7944 50.0472C79.4281 49.9704 79.092 49.7843 78.8287 49.5122C78.5654 49.2402 78.3866 48.8944 78.3149 48.5184C78.2431 48.1424 78.2815 47.7531 78.4254 47.3995C78.5692 47.0459 78.8121 46.7438 79.1232 46.5313C79.4344 46.3188 79.8 46.2054 80.174 46.2054C80.4241 46.2053 80.6718 46.2561 80.9028 46.3547C81.1337 46.4532 81.3432 46.5977 81.5194 46.7797C81.6955 46.9617 81.8347 47.1776 81.9289 47.415C82.0232 47.6523 82.0706 47.9065 82.0684 48.1628Z" fill="#6F7494"/>
<path d="M101.382 48.1628C101.378 48.5458 101.265 48.9194 101.054 49.2363C100.844 49.5532 100.547 49.7993 100.201 49.9436C99.8545 50.0879 99.4741 50.124 99.1077 50.0472C98.7413 49.9704 98.4053 49.7843 98.142 49.5122C97.8787 49.2402 97.6999 48.8944 97.6281 48.5184C97.5563 48.1424 97.5948 47.7531 97.7386 47.3995C97.8825 47.0459 98.1253 46.7438 98.4365 46.5313C98.7476 46.3188 99.1132 46.2054 99.4872 46.2054C99.7371 46.2065 99.9843 46.258 100.215 46.3569C100.445 46.4559 100.654 46.6004 100.83 46.7821C101.006 46.9639 101.145 47.1794 101.24 47.4163C101.335 47.6531 101.383 47.9068 101.382 48.1628Z" fill="#6F7494"/>
<path d="M120.687 48.1628C120.682 48.5438 120.567 48.9149 120.357 49.2293C120.147 49.5437 119.85 49.7874 119.505 49.9298C119.16 50.0722 118.782 50.1069 118.418 50.0295C118.053 49.9521 117.72 49.7661 117.458 49.4949C117.197 49.2237 117.02 48.8794 116.949 48.5053C116.878 48.1312 116.917 47.744 117.06 47.3924C117.204 47.0408 117.446 46.7405 117.755 46.5293C118.065 46.3181 118.428 46.2054 118.8 46.2054C119.05 46.2065 119.297 46.258 119.527 46.3571C119.757 46.4562 119.965 46.6008 120.141 46.7826C120.316 46.9645 120.454 47.1801 120.548 47.4169C120.642 47.6537 120.689 47.9072 120.687 48.1628Z" fill="#6F7494"/>
<path d="M140 48.1628C139.997 48.548 139.881 48.9234 139.669 49.2413C139.457 49.5592 139.157 49.8052 138.807 49.9479C138.458 50.0905 138.075 50.1235 137.708 50.0426C137.34 49.9616 137.004 49.7704 136.743 49.4933C136.482 49.2162 136.307 48.8658 136.241 48.4866C136.175 48.1073 136.22 47.7165 136.371 47.3639C136.523 47.0113 136.773 46.7129 137.091 46.5065C137.408 46.3002 137.779 46.1954 138.155 46.2054C138.651 46.2186 139.123 46.4311 139.468 46.7973C139.813 47.1634 140.004 47.6538 140 48.1628Z" fill="#6F7494"/>
<path d="M3.78884 62.6438C3.79046 63.028 3.68074 63.404 3.47357 63.7242C3.26639 64.0445 2.9711 64.2945 2.62508 64.4427C2.27907 64.5908 1.89791 64.6305 1.52989 64.5565C1.16187 64.4826 0.82355 64.2985 0.55779 64.0274C0.29203 63.7563 0.110788 63.4106 0.0370239 63.0339C-0.0367398 62.6572 0.000294071 62.2666 0.143434 61.9115C0.286574 61.5565 0.529379 61.2529 0.84109 61.0393C1.1528 60.8257 1.51939 60.7116 1.89442 60.7116C2.14281 60.7105 2.38897 60.7597 2.61876 60.8563C2.84856 60.9529 3.05746 61.095 3.23348 61.2746C3.4095 61.4541 3.54918 61.6675 3.64448 61.9025C3.73978 62.1374 3.78884 62.3894 3.78884 62.6438Z" fill="#6F7494"/>
<path d="M23.1021 62.6438C23.1037 63.028 22.994 63.404 22.7868 63.7242C22.5796 64.0445 22.2843 64.2945 21.9383 64.4427C21.5923 64.5908 21.2111 64.6305 20.8431 64.5565C20.4751 64.4826 20.1368 64.2985 19.871 64.0274C19.6053 63.7563 19.424 63.4106 19.3503 63.0339C19.2765 62.6572 19.3135 62.2666 19.4567 61.9115C19.5998 61.5565 19.8426 61.2529 20.1543 61.0393C20.466 60.8257 20.8326 60.7116 21.2077 60.7116C21.7087 60.7116 22.1893 60.9149 22.5443 61.277C22.8994 61.6392 23.0999 62.1306 23.1021 62.6438Z" fill="#6F7494"/>
<path d="M42.4071 62.6438C42.4071 63.026 42.2965 63.3995 42.0892 63.7173C41.882 64.035 41.5874 64.2827 41.2427 64.4289C40.8981 64.5752 40.5188 64.6134 40.1529 64.5389C39.787 64.4643 39.4509 64.2803 39.1871 64.0101C38.9233 63.7399 38.7437 63.3956 38.6709 63.0208C38.5981 62.646 38.6355 62.2575 38.7783 61.9044C38.921 61.5513 39.1628 61.2496 39.473 61.0373C39.7832 60.8249 40.1478 60.7116 40.5209 60.7116C41.0212 60.7116 41.5009 60.9152 41.8547 61.2776C42.2084 61.6399 42.4071 62.1314 42.4071 62.6438Z" fill="#6F7494"/>
<path d="M61.7203 62.6438C61.7219 63.0301 61.6108 63.4081 61.4014 63.7293C61.1919 64.0506 60.8937 64.3005 60.5448 64.447C60.1959 64.5936 59.8122 64.6302 59.4429 64.5521C59.0736 64.474 58.7355 64.2848 58.4718 64.0086C58.208 63.7325 58.0308 63.382 57.9627 63.0021C57.8946 62.6221 57.9387 62.23 58.0894 61.8759C58.2402 61.5218 58.4906 61.2219 58.8087 61.0145C59.1269 60.807 59.4982 60.7016 59.8751 60.7116C60.3683 60.7226 60.8376 60.931 61.1825 61.2922C61.5274 61.6534 61.7205 62.1386 61.7203 62.6438Z" fill="#6F7494"/>
<path d="M3.78884 78.051C3.79046 78.4352 3.68074 78.8112 3.47357 79.1314C3.26639 79.4516 2.9711 79.7017 2.62508 79.8499C2.27907 79.998 1.89791 80.0377 1.52989 79.9637C1.16187 79.8898 0.82355 79.7056 0.55779 79.4346C0.29203 79.1635 0.110788 78.8177 0.0370239 78.4411C-0.0367398 78.0644 0.000294071 77.6738 0.143434 77.3187C0.286574 76.9636 0.529379 76.66 0.84109 76.4464C1.1528 76.2328 1.51939 76.1188 1.89442 76.1188C2.14281 76.1177 2.38897 76.1669 2.61876 76.2635C2.84856 76.3601 3.05746 76.5022 3.23348 76.6817C3.4095 76.8613 3.54918 77.0747 3.64448 77.3096C3.73978 77.5446 3.78884 77.7965 3.78884 78.051Z" fill="#6F7494"/>
<path d="M23.1021 78.051C23.1037 78.4352 22.994 78.8112 22.7868 79.1314C22.5796 79.4516 22.2843 79.7017 21.9383 79.8499C21.5923 79.998 21.2111 80.0377 20.8431 79.9637C20.4751 79.8898 20.1368 79.7056 19.871 79.4346C19.6053 79.1635 19.424 78.8177 19.3503 78.4411C19.2765 78.0644 19.3135 77.6738 19.4567 77.3187C19.5998 76.9636 19.8426 76.66 20.1543 76.4464C20.466 76.2328 20.8326 76.1188 21.2077 76.1188C21.7087 76.1188 22.1893 76.3221 22.5443 76.6842C22.8994 77.0463 23.0999 77.5378 23.1021 78.051Z" fill="#6F7494"/>
<path d="M42.4071 78.051C42.4071 78.4331 42.2965 78.8067 42.0892 79.1245C41.882 79.4422 41.5874 79.6899 41.2427 79.8361C40.8981 79.9824 40.5188 80.0206 40.1529 79.9461C39.787 79.8715 39.4509 79.6875 39.1871 79.4173C38.9233 79.147 38.7437 78.8028 38.6709 78.4279C38.5981 78.0531 38.6355 77.6646 38.7783 77.3116C38.921 76.9585 39.1628 76.6567 39.473 76.4444C39.7832 76.2321 40.1478 76.1188 40.5209 76.1188C41.0212 76.1188 41.5009 76.3224 41.8547 76.6847C42.2084 77.0471 42.4071 77.5385 42.4071 78.051Z" fill="#6F7494"/>
<path d="M61.7203 78.051C61.722 78.4355 61.612 78.8119 61.4045 79.1323C61.197 79.4527 60.9012 79.7027 60.5547 79.8506C60.2082 79.9986 59.8266 80.0377 59.4584 79.9631C59.0901 79.8885 58.7518 79.7035 58.4864 79.4316C58.221 79.1597 58.0404 78.8131 57.9675 78.4359C57.8947 78.0587 57.9329 77.6678 58.0773 77.3129C58.2217 76.9579 58.4658 76.6549 58.7786 76.4423C59.0914 76.2297 59.4588 76.1171 59.8341 76.1188C60.3344 76.1188 60.8142 76.3224 61.1679 76.6847C61.5216 77.0471 61.7203 77.5385 61.7203 78.051Z" fill="#6F7494"/>
<path d="M3.78884 1.93285C3.79046 2.31702 3.68074 2.69304 3.47357 3.01327C3.26639 3.3335 2.9711 3.58354 2.62508 3.73171C2.27907 3.87988 1.89791 3.91951 1.52989 3.84558C1.16187 3.77165 0.82355 3.5875 0.55779 3.31644C0.29203 3.04538 0.110788 2.69961 0.0370239 2.32294C-0.0367398 1.94628 0.000294071 1.55566 0.143434 1.20057C0.286574 0.845483 0.529379 0.541906 0.84109 0.328297C1.1528 0.114687 1.51939 0.000658158 1.89442 0.000654559C2.14281 -0.000451738 2.38897 0.0487095 2.61876 0.145316C2.84856 0.241923 3.05746 0.384072 3.23348 0.563603C3.4095 0.743134 3.54918 0.956512 3.64448 1.19149C3.73978 1.42646 3.78884 1.6784 3.78884 1.93285Z" fill="#6F7494"/>
<path d="M23.1021 1.93285C23.1037 2.31702 22.994 2.69304 22.7868 3.01327C22.5796 3.3335 22.2843 3.58354 21.9383 3.73171C21.5923 3.87988 21.2111 3.91951 20.8431 3.84558C20.4751 3.77165 20.1368 3.5875 19.871 3.31644C19.6053 3.04538 19.424 2.69961 19.3503 2.32294C19.2765 1.94628 19.3135 1.55566 19.4567 1.20057C19.5998 0.845483 19.8426 0.541906 20.1543 0.328297C20.466 0.114687 20.8326 0.000658158 21.2077 0.000654559C21.7087 0.00064975 22.1893 0.203951 22.5443 0.566069C22.8994 0.928187 23.0999 1.41963 23.1021 1.93285Z" fill="#6F7494"/>
<path d="M42.4071 1.93285C42.4071 2.315 42.2965 2.68857 42.0892 3.00632C41.882 3.32407 41.5874 3.57173 41.2427 3.71797C40.8981 3.86421 40.5188 3.90248 40.1529 3.82792C39.787 3.75337 39.4509 3.56934 39.1871 3.29912C38.9233 3.0289 38.7437 2.68461 38.6709 2.3098C38.5981 1.93499 38.6355 1.54649 38.7783 1.19343C38.921 0.840369 39.1628 0.538601 39.473 0.326288C39.7832 0.113976 40.1478 0.000654559 40.5209 0.000654559C41.0212 0.000654559 41.5009 0.204225 41.8547 0.566582C42.2084 0.928939 42.4071 1.4204 42.4071 1.93285Z" fill="#6F7494"/>
<path d="M61.7203 1.93285C61.7219 2.31914 61.6108 2.6971 61.4014 3.01834C61.1919 3.33958 60.8937 3.58949 60.5448 3.73606C60.1959 3.88264 59.8122 3.91922 59.4429 3.84111C59.0736 3.76301 58.7355 3.57378 58.4718 3.29765C58.208 3.02151 58.0308 2.67104 57.9627 2.29111C57.8946 1.91117 57.9387 1.51905 58.0894 1.16496C58.2402 0.810869 58.4906 0.510911 58.8087 0.30349C59.1269 0.0960691 59.4982 -0.00937587 59.8751 0.000654559C60.3683 0.0116384 60.8376 0.220047 61.1825 0.581221C61.5274 0.942394 61.7205 1.4276 61.7203 1.93285Z" fill="#6F7494"/>
<path d="M3.78884 17.34C3.79046 17.7242 3.68074 18.1002 3.47357 18.4204C3.26639 18.7407 2.9711 18.9907 2.62508 19.1389C2.27907 19.287 1.89791 19.3267 1.52989 19.2528C1.16187 19.1788 0.82355 18.9947 0.55779 18.7236C0.29203 18.4525 0.110788 18.1068 0.0370239 17.7301C-0.0367398 17.3534 0.000294071 16.9628 0.143434 16.6077C0.286574 16.2527 0.529379 15.9491 0.84109 15.7355C1.1528 15.5219 1.51939 15.4078 1.89442 15.4078C2.14281 15.4067 2.38897 15.4559 2.61876 15.5525C2.84856 15.6491 3.05746 15.7912 3.23348 15.9708C3.4095 16.1503 3.54918 16.3637 3.64448 16.5987C3.73978 16.8336 3.78884 17.0856 3.78884 17.34Z" fill="#6F7494"/>
<path d="M23.1021 17.34C23.1037 17.7242 22.994 18.1002 22.7868 18.4204C22.5796 18.7407 22.2843 18.9907 21.9383 19.1389C21.5923 19.287 21.2111 19.3267 20.8431 19.2528C20.4751 19.1788 20.1368 18.9947 19.871 18.7236C19.6053 18.4525 19.424 18.1068 19.3503 17.7301C19.2765 17.3534 19.3135 16.9628 19.4567 16.6077C19.5998 16.2527 19.8426 15.9491 20.1543 15.7355C20.466 15.5219 20.8326 15.4078 21.2077 15.4078C21.7087 15.4078 22.1893 15.6111 22.5443 15.9732C22.8994 16.3354 23.0999 16.8268 23.1021 17.34Z" fill="#6F7494"/>
<path d="M42.4071 17.34C42.4071 17.7222 42.2965 18.0957 42.0892 18.4135C41.882 18.7312 41.5874 18.9789 41.2427 19.1251C40.8981 19.2714 40.5188 19.3096 40.1529 19.2351C39.787 19.1605 39.4509 18.9765 39.1871 18.7063C38.9233 18.4361 38.7437 18.0918 38.6709 17.717C38.5981 17.3422 38.6355 16.9537 38.7783 16.6006C38.921 16.2475 39.1628 15.9458 39.473 15.7335C39.7832 15.5211 40.1478 15.4078 40.5209 15.4078C41.0212 15.4078 41.5009 15.6114 41.8547 15.9738C42.2084 16.3361 42.4071 16.8276 42.4071 17.34Z" fill="#6F7494"/>
<path d="M61.7203 17.34C61.722 17.7245 61.612 18.1009 61.4045 18.4213C61.197 18.7417 60.9012 18.9918 60.5547 19.1397C60.2082 19.2876 59.8266 19.3267 59.4584 19.2521C59.0901 19.1775 58.7518 18.9925 58.4864 18.7206C58.221 18.4487 58.0404 18.1022 57.9675 17.7249C57.8947 17.3477 57.9329 16.9568 58.0773 16.6019C58.2217 16.247 58.4658 15.944 58.7786 15.7314C59.0914 15.5188 59.4588 15.4062 59.8341 15.4078C60.3344 15.4078 60.8142 15.6114 61.1679 15.9738C61.5216 16.3361 61.7203 16.8276 61.7203 17.34Z" fill="#6F7494"/>
<path d="M3.78884 32.764C3.78884 33.1478 3.67773 33.523 3.46957 33.8421C3.26141 34.1613 2.96554 34.41 2.61938 34.5569C2.27322 34.7037 1.89232 34.7422 1.52484 34.6673C1.15736 34.5924 0.819803 34.4076 0.554864 34.1362C0.289924 33.8648 0.109498 33.519 0.0364016 33.1426C-0.036695 32.7661 0.000820821 32.376 0.144205 32.0214C0.287589 31.6668 0.530402 31.3637 0.841937 31.1504C1.15347 30.9372 1.51974 30.8234 1.89442 30.8234C2.1435 30.8223 2.39033 30.8717 2.62067 30.9688C2.851 31.066 3.06027 31.2089 3.2364 31.3893C3.41253 31.5697 3.55203 31.7841 3.64685 32.02C3.74167 32.256 3.78993 32.5088 3.78884 32.764Z" fill="#6F7494"/>
<path d="M23.1021 32.764C23.1021 33.1478 22.991 33.523 22.7828 33.8421C22.5746 34.1613 22.2788 34.41 21.9326 34.5569C21.5865 34.7037 21.2056 34.7422 20.8381 34.6673C20.4706 34.5924 20.133 34.4076 19.8681 34.1362C19.6032 33.8648 19.4227 33.519 19.3496 33.1426C19.2765 32.7661 19.3141 32.376 19.4574 32.0214C19.6008 31.6668 19.8436 31.3637 20.1552 31.1504C20.4667 30.9372 20.833 30.8234 21.2077 30.8234C21.7101 30.8234 22.1919 31.0278 22.5472 31.3918C22.9025 31.7557 23.1021 32.2493 23.1021 32.764Z" fill="#6F7494"/>
<path d="M42.4071 32.764C42.4055 33.1458 42.2935 33.5185 42.0853 33.8352C41.877 34.1518 41.5819 34.3981 41.2371 34.5431C40.8923 34.6881 40.5133 34.7251 40.1479 34.6496C39.7826 34.5741 39.4472 34.3894 39.1843 34.1189C38.9213 33.8483 38.7425 33.504 38.6703 33.1295C38.5982 32.7549 38.6361 32.3668 38.7791 32.0142C38.9221 31.6617 39.1638 31.3604 39.4738 31.1485C39.7838 30.9365 40.1482 30.8234 40.5209 30.8234C40.7693 30.8234 41.0152 30.8736 41.2446 30.9713C41.474 31.0689 41.6823 31.212 41.8576 31.3923C42.0328 31.5726 42.1716 31.7866 42.2659 32.022C42.3602 32.2574 42.4082 32.5095 42.4071 32.764Z" fill="#6F7494"/>
<path d="M61.7203 32.764C61.7202 33.1499 61.6078 33.5271 61.3974 33.8472C61.1869 34.1673 60.8881 34.4159 60.5391 34.5612C60.19 34.7065 59.8066 34.7418 59.4379 34.6628C59.0691 34.5837 58.7317 34.3938 58.4689 34.1174C58.206 33.8409 58.0296 33.4904 57.9621 33.1107C57.8947 32.731 57.9393 32.3394 58.0902 31.9858C58.2412 31.6322 58.4916 31.3327 58.8096 31.1257C59.1275 30.9186 59.4985 30.8134 59.8751 30.8234C60.3697 30.8344 60.8402 31.044 61.1853 31.407C61.5305 31.7699 61.7226 32.2573 61.7203 32.764Z" fill="#6F7494"/>
<path d="M3.78884 48.1628C3.7856 48.5458 3.67175 48.9194 3.46163 49.2363C3.25151 49.5532 2.95452 49.7993 2.60809 49.9436C2.26166 50.0879 1.88128 50.124 1.51489 50.0472C1.14849 49.9704 0.812474 49.7843 0.549173 49.5122C0.285872 49.2402 0.107068 48.8944 0.0352909 48.5184C-0.0364861 48.1424 0.00197525 47.7531 0.145829 47.3995C0.289682 47.0459 0.532492 46.7438 0.843662 46.5313C1.15483 46.3188 1.52044 46.2054 1.89442 46.2054C2.14459 46.2053 2.39227 46.2561 2.62319 46.3547C2.85411 46.4532 3.06368 46.5977 3.23981 46.7797C3.41594 46.9617 3.55514 47.1776 3.64937 47.415C3.7436 47.6523 3.79101 47.9065 3.78884 48.1628Z" fill="#6F7494"/>
<path d="M23.1021 48.1628C23.0988 48.5458 22.985 48.9194 22.7749 49.2363C22.5647 49.5532 22.2678 49.7993 21.9213 49.9436C21.5749 50.0879 21.1945 50.124 20.8281 50.0472C20.4617 49.9704 20.1257 49.7843 19.8624 49.5122C19.5991 49.2402 19.4203 48.8944 19.3485 48.5184C19.2768 48.1424 19.3152 47.7531 19.4591 47.3995C19.6029 47.0459 19.8457 46.7438 20.1569 46.5313C20.4681 46.3188 20.8337 46.2054 21.2077 46.2054C21.4575 46.2065 21.7047 46.258 21.9351 46.3569C22.1656 46.4559 22.3747 46.6004 22.5506 46.7821C22.7265 46.9639 22.8658 47.1794 22.9604 47.4163C23.055 47.6531 23.1032 47.9068 23.1021 48.1628Z" fill="#6F7494"/>
<path d="M42.4071 48.1628C42.4023 48.5438 42.2875 48.9149 42.0773 49.2293C41.8672 49.5437 41.5709 49.7874 41.2258 49.9298C40.8808 50.0722 40.5023 50.1069 40.1381 50.0295C39.7738 49.9521 39.44 49.7661 39.1787 49.4949C38.9174 49.2237 38.7401 48.8794 38.6693 48.5053C38.5985 48.1312 38.6373 47.744 38.7807 47.3924C38.9242 47.0408 39.1659 46.7405 39.4756 46.5293C39.7852 46.3181 40.1489 46.2054 40.5209 46.2054C40.7704 46.2065 41.0172 46.258 41.2471 46.3571C41.4771 46.4562 41.6857 46.6008 41.861 46.7826C42.0362 46.9645 42.1747 47.1801 42.2684 47.4169C42.3621 47.6537 42.4093 47.9072 42.4071 48.1628Z" fill="#6F7494"/>
<path d="M61.7203 48.1628C61.717 48.548 61.6018 48.9234 61.3894 49.2413C61.177 49.5592 60.8771 49.8052 60.5278 49.9479C60.1785 50.0905 59.7956 50.1235 59.428 50.0426C59.0603 49.9616 58.7245 49.7704 58.4633 49.4933C58.202 49.2162 58.0272 48.8658 57.9611 48.4866C57.895 48.1073 57.9405 47.7165 58.0919 47.3639C58.2433 47.0113 58.4938 46.7129 58.8113 46.5065C59.1289 46.3002 59.4992 46.1954 59.8751 46.2054C60.3718 46.2186 60.8436 46.4311 61.1888 46.7973C61.5339 47.1634 61.7248 47.6538 61.7203 48.1628Z" fill="#6F7494"/>
<path d="M82.0684 62.6438C82.07 63.028 81.9603 63.404 81.7531 63.7242C81.546 64.0445 81.2507 64.2945 80.9046 64.4427C80.5586 64.5908 80.1775 64.6305 79.8095 64.5565C79.4414 64.4826 79.1031 64.2985 78.8374 64.0274C78.5716 63.7563 78.3904 63.4106 78.3166 63.0339C78.2428 62.6572 78.2799 62.2666 78.423 61.9115C78.5661 61.5565 78.8089 61.2529 79.1207 61.0393C79.4324 60.8257 79.799 60.7116 80.174 60.7116C80.4224 60.7105 80.6685 60.7597 80.8983 60.8563C81.1281 60.9529 81.337 61.095 81.513 61.2746C81.6891 61.4541 81.8287 61.6675 81.924 61.9025C82.0193 62.1374 82.0684 62.3894 82.0684 62.6438Z" fill="#6F7494"/>
<path d="M101.382 62.6438C101.383 63.028 101.274 63.404 101.066 63.7242C100.859 64.0445 100.564 64.2945 100.218 64.4427C99.8719 64.5908 99.4907 64.6305 99.1227 64.5565C98.7547 64.4826 98.4164 64.2985 98.1506 64.0274C97.8848 63.7563 97.7036 63.4106 97.6298 63.0339C97.5561 62.6572 97.5931 62.2666 97.7362 61.9115C97.8794 61.5565 98.1222 61.2529 98.4339 61.0393C98.7456 60.8257 99.1122 60.7116 99.4872 60.7116C99.9882 60.7116 100.469 60.9149 100.824 61.277C101.179 61.6392 101.379 62.1306 101.382 62.6438Z" fill="#6F7494"/>
<path d="M120.687 62.6438C120.687 63.026 120.576 63.3995 120.369 63.7173C120.162 64.035 119.867 64.2827 119.522 64.4289C119.178 64.5752 118.798 64.6134 118.432 64.5389C118.067 64.4643 117.73 64.2803 117.467 64.0101C117.203 63.7399 117.023 63.3956 116.95 63.0208C116.878 62.646 116.915 62.2575 117.058 61.9044C117.201 61.5513 117.442 61.2496 117.753 61.0373C118.063 60.8249 118.427 60.7116 118.8 60.7116C119.301 60.7116 119.78 60.9152 120.134 61.2776C120.488 61.6399 120.687 62.1314 120.687 62.6438Z" fill="#6F7494"/>
<path d="M140 62.6438C140.001 63.0301 139.89 63.4081 139.681 63.7293C139.471 64.0506 139.173 64.3005 138.824 64.447C138.475 64.5936 138.092 64.6302 137.722 64.5521C137.353 64.474 137.015 64.2848 136.751 64.0086C136.488 63.7325 136.31 63.382 136.242 63.0021C136.174 62.6221 136.218 62.23 136.369 61.8759C136.52 61.5218 136.77 61.2219 137.088 61.0145C137.406 60.807 137.778 60.7016 138.155 60.7116C138.648 60.7226 139.117 60.931 139.462 61.2922C139.807 61.6534 140 62.1386 140 62.6438Z" fill="#6F7494"/>
<path d="M82.0684 78.051C82.07 78.4352 81.9603 78.8112 81.7531 79.1314C81.546 79.4516 81.2507 79.7017 80.9046 79.8499C80.5586 79.998 80.1775 80.0377 79.8095 79.9637C79.4414 79.8898 79.1031 79.7056 78.8374 79.4346C78.5716 79.1635 78.3904 78.8177 78.3166 78.4411C78.2428 78.0644 78.2799 77.6738 78.423 77.3187C78.5661 76.9636 78.8089 76.66 79.1207 76.4464C79.4324 76.2328 79.799 76.1188 80.174 76.1188C80.4224 76.1177 80.6685 76.1669 80.8983 76.2635C81.1281 76.3601 81.337 76.5022 81.513 76.6817C81.6891 76.8613 81.8287 77.0747 81.924 77.3096C82.0193 77.5446 82.0684 77.7965 82.0684 78.051Z" fill="#6F7494"/>
<path d="M101.382 78.051C101.383 78.4352 101.274 78.8112 101.066 79.1314C100.859 79.4516 100.564 79.7017 100.218 79.8499C99.8719 79.998 99.4907 80.0377 99.1227 79.9637C98.7547 79.8898 98.4164 79.7056 98.1506 79.4346C97.8848 79.1635 97.7036 78.8177 97.6298 78.4411C97.5561 78.0644 97.5931 77.6738 97.7362 77.3187C97.8794 76.9636 98.1222 76.66 98.4339 76.4464C98.7456 76.2328 99.1122 76.1188 99.4872 76.1188C99.9882 76.1188 100.469 76.3221 100.824 76.6842C101.179 77.0463 101.379 77.5378 101.382 78.051Z" fill="#6F7494"/>
<path d="M120.687 78.051C120.687 78.4331 120.576 78.8067 120.369 79.1245C120.162 79.4422 119.867 79.6899 119.522 79.8361C119.178 79.9824 118.798 80.0206 118.432 79.9461C118.067 79.8715 117.73 79.6875 117.467 79.4173C117.203 79.147 117.023 78.8028 116.95 78.4279C116.878 78.0531 116.915 77.6646 117.058 77.3116C117.201 76.9585 117.442 76.6567 117.753 76.4444C118.063 76.2321 118.427 76.1188 118.8 76.1188C119.301 76.1188 119.78 76.3224 120.134 76.6847C120.488 77.0471 120.687 77.5385 120.687 78.051Z" fill="#6F7494"/>
<path d="M140 78.051C140.002 78.4355 139.892 78.8119 139.684 79.1323C139.477 79.4527 139.181 79.7027 138.834 79.8506C138.488 79.9986 138.106 80.0377 137.738 79.9631C137.37 79.8885 137.031 79.7035 136.766 79.4316C136.501 79.1597 136.32 78.8131 136.247 78.4359C136.174 78.0587 136.212 77.6678 136.357 77.3129C136.501 76.9579 136.745 76.6549 137.058 76.4423C137.371 76.2297 137.738 76.1171 138.114 76.1188C138.614 76.1188 139.094 76.3224 139.447 76.6847C139.801 77.0471 140 77.5385 140 78.051Z" fill="#6F7494"/>
</svg>
