<svg width="571" height="551" viewBox="0 0 571 551" fill="none" xmlns="http://www.w3.org/2000/svg">
<g clip-path="url(#clip0_48_764)">
<path d="M-233.207 -127L-233.207 649M-208.102 -127L-208.102 649M-182.997 -127L-182.997 649M-157.891 -127L-157.892 649M-132.786 -127L-132.786 649M-107.681 -127L-107.681 649M-82.5755 -127L-82.5755 649M-57.4701 -127L-57.4702 649M-32.3648 -127L-32.3649 649M-7.25953 -127L-7.25956 649M17.8458 -127L17.8457 649M42.9511 -127L42.951 649M68.0564 -127L68.0564 649M93.1617 -127L93.1617 649M118.267 -127L118.267 649M143.372 -127L143.372 649M168.478 -127L168.478 649M193.583 -127L193.583 649M218.688 -127L218.688 649M243.794 -127L243.793 649M268.899 -127L268.899 649M294.004 -127L294.004 649M319.109 -127L319.109 649M344.215 -127L344.215 649M369.32 -127L369.32 649M394.425 -127L394.425 649M419.531 -127L419.531 649M444.636 -127L444.636 649M469.741 -127L469.741 649M494.847 -127L494.847 649M519.952 -127L519.952 649M545.057 -127L545.057 649M570.162 -127L570.162 649M595.268 -127V649M620.373 -127L620.373 649M645.478 -127L645.478 649M670.584 -127L670.584 649M695.689 -127L695.689 649M720.794 -127L720.794 649M745.9 -127L745.899 649M771.005 -127L771.005 649M796.11 -127L796.11 649M820 -103.104L-249 -103.104M820 -126.595L-249 -126.595M820 -77.9937L-249 -77.9938M820 -52.883L-249 -52.8831M820 -27.7723L-249 -27.7724M820 -2.66165L-249 -2.66175M820 22.449L-249 22.4489M820 47.5597L-249 47.5596M820 72.6704L-249 72.6703M820 97.781L-249 97.7809M820 122.892L-249 122.892M820 148.002L-249 148.002M820 173.113L-249 173.113M820 198.224L-249 198.224M820 223.334L-249 223.334M820 248.445L-249 248.445M820 273.556L-249 273.555M820 298.666L-249 298.666M820 323.777L-249 323.777M820 348.888L-249 348.887M820 373.998L-249 373.998M820 399.109L-249 399.109M820 424.219L-249 424.219M820 449.33L-249 449.33M820 474.441L-249 474.441M820 499.551L-249 499.551M820 524.662L-249 524.662M820 549.773L-249 549.773M820 574.883L-249 574.883M820 599.994L-249 599.994M820 625.105L-249 625.105" stroke="url(#paint0_linear_48_764)"/>
</g>
<defs>
<linearGradient id="paint0_linear_48_764" x1="-25.4813" y1="5.03341" x2="285.607" y2="648.948" gradientUnits="userSpaceOnUse">
<stop stop-color="#E6E6E6" stop-opacity="0.92"/>
<stop offset="1" stop-color="white"/>
</linearGradient>
<clipPath id="clip0_48_764">
<rect width="571" height="551" fill="white"/>
</clipPath>
</defs>
</svg>
