<svg width="94" height="21" viewBox="0 0 94 21" fill="none" xmlns="http://www.w3.org/2000/svg">
<path d="M77.2564 21C72.4244 21 70.1769 15.75 68.2104 11.1144C66.4686 6.98138 64.8392 3.12766 62.0861 3.12766C59.3329 3.12766 57.7035 7.03723 55.9617 11.1144C53.9952 15.75 51.7478 21 46.9719 21C42.1399 21 39.9486 15.75 37.9821 11.1144C36.2403 6.98138 34.6109 3.12766 31.8577 3.12766C29.1046 3.12766 27.4752 7.03723 25.7334 11.1144C23.7669 15.75 21.5756 21 16.7436 21C11.9115 21 9.72026 15.75 7.75374 11.1144C6.01195 6.98138 4.38255 3.12766 1.62941 3.12766C0.674238 3.12766 0 2.4016 0 1.56383C0 0.726064 0.674238 0 1.57322 0C6.40526 0 8.59653 5.25 10.5631 9.88564C12.3048 14.0186 13.9342 17.8723 16.6874 17.8723C19.4405 17.8723 21.0699 13.9628 22.8117 9.88564C24.7782 5.25 27.0257 0 31.8016 0C36.6336 0 38.8249 5.25 40.7914 9.88564C42.5332 14.0186 44.1626 17.8723 46.9157 17.8723C49.6689 17.8723 51.2983 13.9628 53.04 9.88564C55.0628 5.25 57.254 0 62.0861 0C66.9181 0 69.1656 5.25 71.1321 9.88564C72.8739 14.0186 74.5033 17.8723 77.2564 17.8723C80.0096 17.8723 81.639 13.9628 83.3808 9.88564C85.3473 5.25 87.5947 0 92.4268 0C93.2696 0 94 0.670213 94 1.56383C94 2.45745 93.3258 3.12766 92.4268 3.12766C89.6736 3.12766 88.0442 7.03723 86.3025 11.1144C84.2797 15.75 82.0885 21 77.2564 21Z" fill="#0047FF"/>
</svg>
