<svg width="227" height="120" viewBox="0 0 227 120" fill="none" xmlns="http://www.w3.org/2000/svg">
<rect width="225.75" height="120" transform="translate(0.625)" fill="white"/>
<path d="M28.7987 19.41V30H27.0887V19.41H28.7987ZM41.203 21.6C42.183 21.6 42.963 21.91 43.543 22.53C44.133 23.15 44.428 24.035 44.428 25.185V30H42.718V25.365C42.718 24.645 42.538 24.09 42.178 23.7C41.818 23.3 41.323 23.1 40.693 23.1C40.023 23.1 39.488 23.315 39.088 23.745C38.698 24.165 38.503 24.785 38.503 25.605V30H36.793V25.365C36.793 24.645 36.613 24.09 36.253 23.7C35.893 23.3 35.398 23.1 34.768 23.1C34.098 23.1 33.563 23.315 33.163 23.745C32.773 24.165 32.578 24.785 32.578 25.605V30H30.868V21.735H32.578V23.46C32.788 22.86 33.138 22.4 33.628 22.08C34.118 21.76 34.693 21.6 35.353 21.6C36.043 21.6 36.638 21.77 37.138 22.11C37.648 22.45 38.018 22.94 38.248 23.58C38.488 22.96 38.873 22.475 39.403 22.125C39.933 21.775 40.533 21.6 41.203 21.6ZM51.1646 21.63C51.8846 21.63 52.5246 21.8 53.0846 22.14C53.6546 22.48 54.0996 22.97 54.4196 23.61C54.7396 24.25 54.8996 25 54.8996 25.86C54.8996 26.73 54.7396 27.485 54.4196 28.125C54.0996 28.765 53.6546 29.255 53.0846 29.595C52.5246 29.935 51.8846 30.105 51.1646 30.105C50.4146 30.105 49.7746 29.92 49.2446 29.55C48.7146 29.18 48.3446 28.69 48.1346 28.08V33.93H46.4246V21.735H48.1346V23.655C48.3446 23.045 48.7146 22.555 49.2446 22.185C49.7746 21.815 50.4146 21.63 51.1646 21.63ZM50.6396 23.13C50.1596 23.13 49.7296 23.245 49.3496 23.475C48.9696 23.695 48.6696 24.015 48.4496 24.435C48.2296 24.845 48.1196 25.32 48.1196 25.86C48.1196 26.41 48.2296 26.89 48.4496 27.3C48.6696 27.71 48.9696 28.03 49.3496 28.26C49.7296 28.48 50.1596 28.59 50.6396 28.59C51.3996 28.59 52.0096 28.35 52.4696 27.87C52.9296 27.38 53.1596 26.71 53.1596 25.86C53.1596 25.02 52.9296 24.355 52.4696 23.865C52.0096 23.375 51.3996 23.13 50.6396 23.13ZM58.2567 23.355C58.5367 22.815 58.9367 22.39 59.4567 22.08C59.9767 21.76 60.5767 21.6 61.2567 21.6V23.46H60.7467C59.9967 23.46 59.3917 23.645 58.9317 24.015C58.4817 24.375 58.2567 24.975 58.2567 25.815V30H56.5467V21.735H58.2567V23.355ZM70.2179 25.47C70.2179 25.75 70.1979 25.995 70.1579 26.205H63.7979C63.8279 27.055 64.0629 27.685 64.5029 28.095C64.9429 28.505 65.4879 28.71 66.1379 28.71C66.7079 28.71 67.1879 28.565 67.5779 28.275C67.9779 27.985 68.2229 27.6 68.3129 27.12H70.1429C70.0329 27.7 69.8029 28.215 69.4529 28.665C69.1029 29.115 68.6479 29.47 68.0879 29.73C67.5279 29.98 66.9029 30.105 66.2129 30.105C65.4129 30.105 64.7029 29.935 64.0829 29.595C63.4729 29.255 62.9929 28.765 62.6429 28.125C62.2929 27.485 62.1179 26.73 62.1179 25.86C62.1179 25 62.2929 24.25 62.6429 23.61C62.9929 22.97 63.4729 22.48 64.0829 22.14C64.7029 21.8 65.4129 21.63 66.2129 21.63C67.0229 21.63 67.7279 21.8 68.3279 22.14C68.9379 22.47 69.4029 22.93 69.7229 23.52C70.0529 24.1 70.2179 24.75 70.2179 25.47ZM68.4929 25.425C68.5129 24.885 68.4179 24.435 68.2079 24.075C68.0079 23.705 67.7279 23.435 67.3679 23.265C67.0179 23.085 66.6329 22.995 66.2129 22.995C65.5429 22.995 64.9829 23.2 64.5329 23.61C64.0829 24.02 63.8379 24.625 63.7979 25.425H68.4929ZM74.584 21.63C75.554 21.63 76.329 21.88 76.909 22.38C77.499 22.87 77.859 23.53 77.989 24.36H76.369C76.299 23.91 76.104 23.55 75.784 23.28C75.474 23 75.059 22.86 74.539 22.86C74.109 22.86 73.774 22.965 73.534 23.175C73.304 23.375 73.189 23.65 73.189 24C73.189 24.26 73.274 24.47 73.444 24.63C73.614 24.79 73.824 24.915 74.074 25.005C74.334 25.095 74.699 25.195 75.169 25.305C75.789 25.445 76.289 25.59 76.669 25.74C77.059 25.89 77.389 26.13 77.659 26.46C77.939 26.78 78.079 27.22 78.079 27.78C78.079 28.47 77.814 29.03 77.284 29.46C76.764 29.89 76.059 30.105 75.169 30.105C74.139 30.105 73.304 29.865 72.664 29.385C72.034 28.905 71.654 28.235 71.524 27.375H73.189C73.239 27.825 73.439 28.19 73.789 28.47C74.139 28.75 74.599 28.89 75.169 28.89C75.579 28.89 75.899 28.785 76.129 28.575C76.369 28.355 76.489 28.08 76.489 27.75C76.489 27.46 76.399 27.23 76.219 27.06C76.039 26.89 75.814 26.76 75.544 26.67C75.274 26.57 74.904 26.47 74.434 26.37C73.834 26.23 73.344 26.09 72.964 25.95C72.594 25.81 72.274 25.585 72.004 25.275C71.744 24.955 71.614 24.525 71.614 23.985C71.614 23.285 71.874 22.72 72.394 22.29C72.924 21.85 73.654 21.63 74.584 21.63ZM82.5088 21.63C83.4788 21.63 84.2538 21.88 84.8338 22.38C85.4238 22.87 85.7838 23.53 85.9138 24.36H84.2938C84.2238 23.91 84.0288 23.55 83.7088 23.28C83.3988 23 82.9838 22.86 82.4638 22.86C82.0338 22.86 81.6988 22.965 81.4588 23.175C81.2288 23.375 81.1138 23.65 81.1138 24C81.1138 24.26 81.1988 24.47 81.3688 24.63C81.5388 24.79 81.7488 24.915 81.9988 25.005C82.2588 25.095 82.6238 25.195 83.0938 25.305C83.7138 25.445 84.2138 25.59 84.5938 25.74C84.9838 25.89 85.3138 26.13 85.5838 26.46C85.8638 26.78 86.0038 27.22 86.0038 27.78C86.0038 28.47 85.7388 29.03 85.2088 29.46C84.6888 29.89 83.9838 30.105 83.0938 30.105C82.0638 30.105 81.2288 29.865 80.5888 29.385C79.9588 28.905 79.5788 28.235 79.4488 27.375H81.1138C81.1638 27.825 81.3638 28.19 81.7138 28.47C82.0638 28.75 82.5238 28.89 83.0938 28.89C83.5038 28.89 83.8238 28.785 84.0538 28.575C84.2938 28.355 84.4138 28.08 84.4138 27.75C84.4138 27.46 84.3238 27.23 84.1438 27.06C83.9638 26.89 83.7388 26.76 83.4688 26.67C83.1988 26.57 82.8288 26.47 82.3588 26.37C81.7588 26.23 81.2688 26.09 80.8888 25.95C80.5188 25.81 80.1988 25.585 79.9288 25.275C79.6688 24.955 79.5388 24.525 79.5388 23.985C79.5388 23.285 79.7988 22.72 80.3188 22.29C80.8488 21.85 81.5788 21.63 82.5088 21.63ZM87.4786 19.335C87.4786 19.045 87.5786 18.805 87.7786 18.615C87.9786 18.425 88.2436 18.33 88.5736 18.33C88.9036 18.33 89.1686 18.425 89.3686 18.615C89.5786 18.805 89.6836 19.045 89.6836 19.335C89.6836 19.625 89.5786 19.86 89.3686 20.04C89.1686 20.22 88.9036 20.31 88.5736 20.31C88.2436 20.31 87.9786 20.22 87.7786 20.04C87.5786 19.86 87.4786 19.625 87.4786 19.335ZM89.4286 21.735V30H87.7186V21.735H89.4286ZM95.2779 21.63C96.0779 21.63 96.7979 21.8 97.4379 22.14C98.0779 22.48 98.5779 22.97 98.9379 23.61C99.2979 24.25 99.4779 25 99.4779 25.86C99.4779 26.73 99.2979 27.485 98.9379 28.125C98.5779 28.765 98.0779 29.255 97.4379 29.595C96.7979 29.935 96.0779 30.105 95.2779 30.105C94.4779 30.105 93.7579 29.935 93.1179 29.595C92.4879 29.255 91.9879 28.765 91.6179 28.125C91.2579 27.475 91.0779 26.72 91.0779 25.86C91.0779 25 91.2579 24.25 91.6179 23.61C91.9879 22.97 92.4879 22.48 93.1179 22.14C93.7579 21.8 94.4779 21.63 95.2779 21.63ZM95.2779 23.115C94.8379 23.115 94.4329 23.215 94.0629 23.415C93.6929 23.615 93.3929 23.925 93.1629 24.345C92.9429 24.755 92.8329 25.26 92.8329 25.86C92.8329 26.47 92.9429 26.98 93.1629 27.39C93.3929 27.8 93.6929 28.105 94.0629 28.305C94.4329 28.505 94.8379 28.605 95.2779 28.605C95.7179 28.605 96.1229 28.505 96.4929 28.305C96.8629 28.105 97.1579 27.8 97.3779 27.39C97.6079 26.98 97.7229 26.47 97.7229 25.86C97.7229 25.26 97.6079 24.755 97.3779 24.345C97.1579 23.925 96.8629 23.615 96.4929 23.415C96.1229 23.215 95.7179 23.115 95.2779 23.115ZM105.742 21.6C106.702 21.6 107.472 21.91 108.052 22.53C108.632 23.15 108.922 24.035 108.922 25.185V30H107.212V25.365C107.212 24.625 107.022 24.055 106.642 23.655C106.262 23.245 105.742 23.04 105.082 23.04C104.402 23.04 103.857 23.26 103.447 23.7C103.037 24.13 102.832 24.765 102.832 25.605V30H101.122V21.735H102.832V23.55C103.052 22.93 103.422 22.45 103.942 22.11C104.462 21.77 105.062 21.6 105.742 21.6ZM113.637 21.63C114.607 21.63 115.382 21.88 115.962 22.38C116.552 22.87 116.912 23.53 117.042 24.36H115.422C115.352 23.91 115.157 23.55 114.837 23.28C114.527 23 114.112 22.86 113.592 22.86C113.162 22.86 112.827 22.965 112.587 23.175C112.357 23.375 112.242 23.65 112.242 24C112.242 24.26 112.327 24.47 112.497 24.63C112.667 24.79 112.877 24.915 113.127 25.005C113.387 25.095 113.752 25.195 114.222 25.305C114.842 25.445 115.342 25.59 115.722 25.74C116.112 25.89 116.442 26.13 116.712 26.46C116.992 26.78 117.132 27.22 117.132 27.78C117.132 28.47 116.867 29.03 116.337 29.46C115.817 29.89 115.112 30.105 114.222 30.105C113.192 30.105 112.357 29.865 111.717 29.385C111.087 28.905 110.707 28.235 110.577 27.375H112.242C112.292 27.825 112.492 28.19 112.842 28.47C113.192 28.75 113.652 28.89 114.222 28.89C114.632 28.89 114.952 28.785 115.182 28.575C115.422 28.355 115.542 28.08 115.542 27.75C115.542 27.46 115.452 27.23 115.272 27.06C115.092 26.89 114.867 26.76 114.597 26.67C114.327 26.57 113.957 26.47 113.487 26.37C112.887 26.23 112.397 26.09 112.017 25.95C111.647 25.81 111.327 25.585 111.057 25.275C110.797 24.955 110.667 24.525 110.667 23.985C110.667 23.285 110.927 22.72 111.447 22.29C111.977 21.85 112.707 21.63 113.637 21.63Z" fill="#01022E"/>
<path d="M27.5612 56.8131C27.5612 56.0481 27.7787 55.3281 28.2137 54.6531C28.6487 53.9781 29.2937 53.4306 30.1487 53.0106C31.0187 52.5906 32.0687 52.3806 33.2987 52.3806C34.5437 52.3806 35.5937 52.5906 36.4487 53.0106C37.3187 53.4306 37.9637 53.9781 38.3837 54.6531C38.8187 55.3281 39.0362 56.0481 39.0362 56.8131C39.0362 57.6531 38.8412 58.3731 38.4512 58.9731C38.0612 59.5581 37.4912 60.0081 36.7412 60.3231C38.5262 61.1181 39.4187 62.4606 39.4187 64.3506C39.4187 65.4306 39.1487 66.3606 38.6087 67.1406C38.0687 67.9056 37.3337 68.4906 36.4037 68.8956C35.4887 69.2856 34.4537 69.4806 33.2987 69.4806C32.1587 69.4806 31.1237 69.2856 30.1937 68.8956C29.2637 68.4906 28.5287 67.9056 27.9887 67.1406C27.4487 66.3606 27.1787 65.4306 27.1787 64.3506C27.1787 62.4606 28.0712 61.1181 29.8562 60.3231C29.1062 60.0081 28.5362 59.5581 28.1462 58.9731C27.7562 58.3731 27.5612 57.6531 27.5612 56.8131ZM31.3412 57.4656C31.3412 58.0806 31.5137 58.5531 31.8587 58.8831C32.2187 59.1981 32.6987 59.3556 33.2987 59.3556C33.8987 59.3556 34.3712 59.1981 34.7162 58.8831C35.0762 58.5531 35.2562 58.0806 35.2562 57.4656C35.2562 56.8656 35.0762 56.3931 34.7162 56.0481C34.3562 55.7031 33.8837 55.5306 33.2987 55.5306C32.7137 55.5306 32.2412 55.7031 31.8812 56.0481C31.5212 56.3931 31.3412 56.8656 31.3412 57.4656ZM30.9137 64.1256C30.9137 64.8006 31.1237 65.3331 31.5437 65.7231C31.9787 66.1131 32.5637 66.3081 33.2987 66.3081C34.0337 66.3081 34.6112 66.1131 35.0312 65.7231C35.4662 65.3331 35.6837 64.8006 35.6837 64.1256C35.6837 63.4506 35.4587 62.9256 35.0087 62.5506C34.5737 62.1606 34.0037 61.9656 33.2987 61.9656C32.5937 61.9656 32.0162 62.1606 31.5662 62.5506C31.1312 62.9256 30.9137 63.4506 30.9137 64.1256ZM44.3582 66.7581C44.8082 67.6281 45.0332 68.5731 45.0332 69.5931C45.0332 70.6281 44.7557 71.4831 44.2007 72.1581C43.6607 72.8331 42.8132 73.1706 41.6582 73.1706V71.7531C42.0632 71.7531 42.3557 71.6631 42.5357 71.4831C42.7307 71.3031 42.8282 70.9581 42.8282 70.4481V70.2231H41.1857V66.7581H44.3582ZM50.8 64.2606C51.01 65.5656 51.67 66.2181 52.78 66.2181C53.65 66.2181 54.2575 65.8206 54.6025 65.0256C54.9625 64.2306 55.1275 62.9931 55.0975 61.3131C54.8425 61.9281 54.4 62.4156 53.77 62.7756C53.155 63.1206 52.435 63.2931 51.61 63.2931C50.11 63.2931 48.925 62.8431 48.055 61.9431C47.185 61.0281 46.75 59.7231 46.75 58.0281C46.75 56.9631 46.9675 56.0181 47.4025 55.1931C47.8375 54.3681 48.475 53.7306 49.315 53.2806C50.17 52.8156 51.19 52.5831 52.375 52.5831C53.98 52.5831 55.2325 52.9206 56.1325 53.5956C57.0325 54.2706 57.655 55.1931 58 56.3631C58.345 57.5181 58.5175 58.9131 58.5175 60.5481C58.5175 63.4281 58.075 65.6106 57.19 67.0956C56.32 68.5656 54.85 69.3006 52.78 69.3006C51.64 69.3006 50.6575 69.0756 49.8325 68.6256C49.0225 68.1606 48.3925 67.5456 47.9425 66.7806C47.5075 66.0156 47.26 65.1756 47.2 64.2606H50.8ZM54.805 58.2081C54.805 57.5181 54.61 56.9631 54.22 56.5431C53.83 56.1081 53.26 55.8906 52.51 55.8906C51.835 55.8906 51.3025 56.0781 50.9125 56.4531C50.5375 56.8281 50.35 57.3756 50.35 58.0956C50.35 58.8156 50.545 59.3706 50.935 59.7606C51.325 60.1356 51.8575 60.3231 52.5325 60.3231C53.1775 60.3231 53.7175 60.1431 54.1525 59.7831C54.5875 59.4081 54.805 58.8831 54.805 58.2081ZM61.8607 66.9381C60.8557 65.4831 60.3532 63.5106 60.3532 61.0206C60.3532 58.5456 60.8557 56.5881 61.8607 55.1481C62.8657 53.6931 64.4707 52.9656 66.6757 52.9656C68.8657 52.9656 70.4632 53.6931 71.4682 55.1481C72.4882 56.5881 72.9982 58.5456 72.9982 61.0206C72.9982 63.5106 72.4882 65.4831 71.4682 66.9381C70.4632 68.3931 68.8657 69.1206 66.6757 69.1206C64.4707 69.1206 62.8657 68.3931 61.8607 66.9381ZM68.6557 64.3281C69.0007 63.5481 69.1732 62.4456 69.1732 61.0206C69.1732 59.5956 69.0007 58.5081 68.6557 57.7581C68.3257 56.9931 67.6657 56.6106 66.6757 56.6106C65.6707 56.6106 64.9957 56.9931 64.6507 57.7581C64.3057 58.5231 64.1332 59.6106 64.1332 61.0206C64.1332 62.4456 64.3057 63.5481 64.6507 64.3281C64.9957 65.0931 65.6707 65.4756 66.6757 65.4756C67.6657 65.4756 68.3257 65.0931 68.6557 64.3281ZM74.1357 56.8356V53.2356H80.5707V69.1431H76.5207V56.8356H74.1357Z" fill="#01022E"/>
<path d="M40.698 87.9689V86.3849H43.746V94.8569H41.97V87.9689H40.698ZM45.3309 88.3169C45.3309 87.9089 45.4429 87.5289 45.6669 87.1769C45.8989 86.8249 46.2389 86.5409 46.6869 86.3249C47.1429 86.1089 47.6909 86.0009 48.3309 86.0009C48.9709 86.0009 49.5149 86.1089 49.9629 86.3249C50.4189 86.5409 50.7589 86.8249 50.9829 87.1769C51.2149 87.5289 51.3309 87.9089 51.3309 88.3169C51.3309 88.7809 51.2189 89.1769 50.9949 89.5049C50.7709 89.8249 50.4349 90.0649 49.9869 90.2249C50.4909 90.4169 50.8749 90.6969 51.1389 91.0649C51.4109 91.4249 51.5469 91.8649 51.5469 92.3849C51.5469 92.9449 51.4069 93.4289 51.1269 93.8369C50.8469 94.2369 50.4629 94.5409 49.9749 94.7489C49.4949 94.9569 48.9469 95.0609 48.3309 95.0609C47.7149 95.0609 47.1629 94.9569 46.6749 94.7489C46.1949 94.5409 45.8149 94.2369 45.5349 93.8369C45.2629 93.4289 45.1269 92.9449 45.1269 92.3849C45.1269 91.8649 45.2589 91.4249 45.5229 91.0649C45.7949 90.6969 46.1829 90.4169 46.6869 90.2249C46.2389 90.0649 45.8989 89.8209 45.6669 89.4929C45.4429 89.1649 45.3309 88.7729 45.3309 88.3169ZM46.9989 88.5929C46.9989 88.9769 47.1189 89.2729 47.3589 89.4809C47.5989 89.6889 47.9229 89.7929 48.3309 89.7929C48.7469 89.7929 49.0749 89.6889 49.3149 89.4809C49.5549 89.2729 49.6749 88.9769 49.6749 88.5929C49.6749 88.2089 49.5509 87.9129 49.3029 87.7049C49.0629 87.4889 48.7389 87.3809 48.3309 87.3809C47.9309 87.3809 47.6069 87.4889 47.3589 87.7049C47.1189 87.9129 46.9989 88.2089 46.9989 88.5929ZM46.7709 92.2889C46.7709 92.7129 46.9109 93.0489 47.1909 93.2969C47.4709 93.5449 47.8509 93.6689 48.3309 93.6689C48.8109 93.6689 49.1909 93.5449 49.4709 93.2969C49.7589 93.0489 49.9029 92.7129 49.9029 92.2889C49.9029 91.8569 49.7549 91.5289 49.4589 91.3049C49.1709 91.0729 48.7949 90.9569 48.3309 90.9569C47.8749 90.9569 47.4989 91.0729 47.2029 91.3049C46.9149 91.5289 46.7709 91.8569 46.7709 92.2889ZM54.3275 93.0929V94.8569H52.5035V93.0929H54.3275ZM55.5028 88.3169C55.5028 87.9089 55.6148 87.5289 55.8388 87.1769C56.0708 86.8249 56.4108 86.5409 56.8588 86.3249C57.3148 86.1089 57.8628 86.0009 58.5028 86.0009C59.1428 86.0009 59.6868 86.1089 60.1348 86.3249C60.5908 86.5409 60.9308 86.8249 61.1548 87.1769C61.3868 87.5289 61.5028 87.9089 61.5028 88.3169C61.5028 88.7809 61.3908 89.1769 61.1668 89.5049C60.9428 89.8249 60.6068 90.0649 60.1588 90.2249C60.6628 90.4169 61.0468 90.6969 61.3108 91.0649C61.5828 91.4249 61.7188 91.8649 61.7188 92.3849C61.7188 92.9449 61.5788 93.4289 61.2988 93.8369C61.0188 94.2369 60.6348 94.5409 60.1468 94.7489C59.6668 94.9569 59.1188 95.0609 58.5028 95.0609C57.8868 95.0609 57.3348 94.9569 56.8468 94.7489C56.3668 94.5409 55.9868 94.2369 55.7068 93.8369C55.4348 93.4289 55.2988 92.9449 55.2988 92.3849C55.2988 91.8649 55.4308 91.4249 55.6948 91.0649C55.9668 90.6969 56.3548 90.4169 56.8588 90.2249C56.4108 90.0649 56.0708 89.8209 55.8388 89.4929C55.6148 89.1649 55.5028 88.7729 55.5028 88.3169ZM57.1708 88.5929C57.1708 88.9769 57.2908 89.2729 57.5308 89.4809C57.7708 89.6889 58.0948 89.7929 58.5028 89.7929C58.9188 89.7929 59.2468 89.6889 59.4868 89.4809C59.7268 89.2729 59.8468 88.9769 59.8468 88.5929C59.8468 88.2089 59.7228 87.9129 59.4748 87.7049C59.2348 87.4889 58.9108 87.3809 58.5028 87.3809C58.1028 87.3809 57.7788 87.4889 57.5308 87.7049C57.2908 87.9129 57.1708 88.2089 57.1708 88.5929ZM56.9428 92.2889C56.9428 92.7129 57.0828 93.0489 57.3628 93.2969C57.6428 93.5449 58.0228 93.6689 58.5028 93.6689C58.9828 93.6689 59.3628 93.5449 59.6428 93.2969C59.9308 93.0489 60.0748 92.7129 60.0748 92.2889C60.0748 91.8569 59.9268 91.5289 59.6308 91.3049C59.3428 91.0729 58.9668 90.9569 58.5028 90.9569C58.0468 90.9569 57.6708 91.0729 57.3748 91.3049C57.0868 91.5289 56.9428 91.8569 56.9428 92.2889ZM64.6794 92.3369C64.8074 93.1689 65.2394 93.5849 65.9754 93.5849C66.5354 93.5849 66.9394 93.3409 67.1874 92.8529C67.4354 92.3569 67.5434 91.5849 67.5114 90.5369C67.3834 90.9209 67.1314 91.2289 66.7554 91.4609C66.3874 91.6849 65.9554 91.7969 65.4594 91.7969C64.6434 91.7969 63.9994 91.5529 63.5274 91.0649C63.0634 90.5689 62.8314 89.8689 62.8314 88.9649C62.8314 88.4129 62.9434 87.9209 63.1674 87.4889C63.3914 87.0489 63.7234 86.7049 64.1634 86.4569C64.6114 86.2089 65.1514 86.0849 65.7834 86.0849C67.0154 86.0849 67.8634 86.4609 68.3274 87.2129C68.7914 87.9569 69.0234 88.9929 69.0234 90.3209C69.0234 91.8329 68.7874 92.9809 68.3154 93.7649C67.8514 94.5489 67.0714 94.9409 65.9754 94.9409C65.3914 94.9409 64.8874 94.8249 64.4634 94.5929C64.0474 94.3609 63.7234 94.0489 63.4914 93.6569C63.2674 93.2569 63.1354 92.8169 63.0954 92.3369H64.6794ZM67.3674 89.0849C67.3674 88.6369 67.2354 88.2689 66.9714 87.9809C66.7154 87.6849 66.3354 87.5369 65.8314 87.5369C65.3994 87.5369 65.0554 87.6649 64.7994 87.9209C64.5434 88.1769 64.4154 88.5329 64.4154 88.9889C64.4154 89.4689 64.5434 89.8409 64.7994 90.1049C65.0634 90.3609 65.4154 90.4889 65.8554 90.4889C66.2634 90.4889 66.6154 90.3689 66.9114 90.1289C67.2154 89.8809 67.3674 89.5329 67.3674 89.0849ZM71.8136 86.2529C72.3736 86.2529 72.8296 86.4249 73.1816 86.7689C73.5416 87.1049 73.7216 87.5729 73.7216 88.1729C73.7216 88.7729 73.5416 89.2449 73.1816 89.5889C72.8296 89.9249 72.3736 90.0929 71.8136 90.0929C71.2536 90.0929 70.7936 89.9249 70.4336 89.5889C70.0816 89.2449 69.9056 88.7729 69.9056 88.1729C69.9056 87.5729 70.0816 87.1049 70.4336 86.7689C70.7936 86.4249 71.2536 86.2529 71.8136 86.2529ZM77.2376 86.3609L72.5216 94.8569H70.8896L75.6056 86.3609H77.2376ZM71.0456 88.1729C71.0456 88.4449 71.1136 88.6649 71.2496 88.8329C71.3856 88.9929 71.5696 89.0729 71.8016 89.0729C72.0336 89.0729 72.2216 88.9929 72.3656 88.8329C72.5096 88.6649 72.5816 88.4449 72.5816 88.1729C72.5816 87.9009 72.5096 87.6849 72.3656 87.5249C72.2216 87.3569 72.0336 87.2729 71.8016 87.2729C71.5696 87.2729 71.3856 87.3569 71.2496 87.5249C71.1136 87.6849 71.0456 87.9009 71.0456 88.1729ZM76.3256 91.1249C76.8856 91.1249 77.3416 91.2969 77.6936 91.6409C78.0456 91.9769 78.2216 92.4449 78.2216 93.0449C78.2216 93.6449 78.0456 94.1169 77.6936 94.4609C77.3416 94.7969 76.8856 94.9649 76.3256 94.9649C75.7656 94.9649 75.3056 94.7969 74.9456 94.4609C74.5936 94.1169 74.4176 93.6449 74.4176 93.0449C74.4176 92.4449 74.5936 91.9769 74.9456 91.6409C75.3056 91.2969 75.7656 91.1249 76.3256 91.1249ZM75.5576 93.0449C75.5576 93.3249 75.6256 93.5489 75.7616 93.7169C75.8976 93.8769 76.0816 93.9569 76.3136 93.9569C76.5456 93.9569 76.7336 93.8769 76.8776 93.7169C77.0216 93.5489 77.0936 93.3249 77.0936 93.0449C77.0936 92.7729 77.0216 92.5529 76.8776 92.3849C76.7336 92.2169 76.5456 92.1329 76.3136 92.1329C76.0816 92.1329 75.8976 92.2169 75.7616 92.3849C75.6256 92.5449 75.5576 92.7649 75.5576 93.0449Z" fill="#D13236"/>
<path d="M25.7681 89.8569L30.3395 94.4284L34.9109 89.8569" fill="#D13236"/>
<path d="M114.815 95.8572V75.0698L130.571 59.9517L136.301 68.9281L156.832 54.2824L164.471 57.5895L180.705 62.7864L188.345 47.1958L204.578 54.2824V95.8572H114.815Z" fill="url(#paint0_linear_48_888)"/>
<path d="M188.515 35.8569L188.515 95.3845" stroke="#A8B2CD" stroke-width="0.661417" stroke-linecap="round"/>
<path d="M115.287 75.542L129.228 61.6009C130.078 60.7513 131.494 60.8999 132.149 61.9073L135.879 67.6466C136.489 68.585 137.777 68.7906 138.649 68.0888L155.512 54.5158C156.052 54.0808 156.788 53.9769 157.428 54.2452L171.035 59.9515L178.924 62.3183C179.82 62.5872 180.779 62.1596 181.177 61.3128L187.249 48.4106C187.689 47.4751 188.799 47.067 189.741 47.4949L203.633 53.8098" stroke="#0047FF" stroke-width="1.41732" stroke-linecap="round"/>
<rect x="185.208" y="42.9434" width="6.14173" height="6.14173" rx="3.07087" fill="#0047FF"/>
<circle cx="191.1" cy="19.5" r="2" fill="#B6B6B6"/>
<circle cx="197.5" cy="19.5" r="2" fill="#B6B6B6"/>
<circle cx="203.9" cy="19.5" r="2" fill="#B6B6B6"/>
<defs>
<linearGradient id="paint0_linear_48_888" x1="159.697" y1="47.1958" x2="159.697" y2="101.999" gradientUnits="userSpaceOnUse">
<stop stop-color="#D8E3FF"/>
<stop offset="1" stop-color="white"/>
</linearGradient>
</defs>
</svg>
