<svg width="596" height="544" viewBox="0 0 596 544" fill="none" xmlns="http://www.w3.org/2000/svg">
<circle cx="192.5" cy="2.5" r="2.5" fill="#00CD2D"/>
<circle cx="25" cy="52" r="2" fill="#AE61FC"/>
<circle cx="308" cy="85" r="4" fill="#41D1FF"/>
<circle cx="478" cy="245" r="2" fill="#F358D1"/>
<circle cx="527.5" cy="25.5" r="2.5" fill="#FF555F"/>
<circle cx="593.5" cy="213.5" r="2.5" fill="#FF2525"/>
<circle cx="25.5" cy="175.5" r="2.5" fill="#22AFFF"/>
<circle cx="132.5" cy="115.5" r="2.5" fill="#FB38F3"/>
<mask id="path-9-outside-1_72_1633" maskUnits="userSpaceOnUse" x="134" y="321" width="245" height="166" fill="black">
<rect fill="white" x="134" y="321" width="245" height="166"/>
<path d="M198.419 485C197.176 485 195.915 484.858 194.655 484.537C190.536 483.522 187.074 480.975 184.872 477.342C182.671 473.709 182.014 469.435 183.026 465.321C183.15 464.84 183.292 464.342 183.487 463.807C178.09 460.922 173.136 457.289 168.769 452.98C168.307 453.336 167.881 453.621 167.473 453.87C163.851 456.078 159.59 456.737 155.489 455.722C151.37 454.707 147.907 452.16 145.706 448.527C143.504 444.894 142.847 440.62 143.859 436.506C144.871 432.375 147.41 428.902 151.032 426.694C151.458 426.444 151.902 426.195 152.435 425.946C150.642 420.069 149.701 413.978 149.647 407.852C149.079 407.781 148.564 407.674 148.085 407.567C139.598 405.483 134.379 396.864 136.456 388.351C137.468 384.22 140.007 380.747 143.629 378.539C147.251 376.33 151.512 375.671 155.613 376.686C156.092 376.811 156.589 376.954 157.122 377.149C159.998 371.736 163.62 366.767 167.917 362.386C167.562 361.923 167.278 361.495 167.029 361.086C162.502 353.588 164.881 343.793 172.355 339.252C179.83 334.711 189.595 337.097 194.122 344.595C194.371 345.022 194.619 345.467 194.868 346.002C200.727 344.203 206.799 343.259 212.906 343.206C212.977 342.636 213.084 342.119 213.19 341.639C215.268 333.126 223.861 327.89 232.347 329.974C236.466 330.989 239.929 333.535 242.13 337.169C244.332 340.802 244.989 345.076 243.977 349.19C243.852 349.67 243.71 350.169 243.515 350.703C248.912 353.588 253.866 357.221 258.233 361.531C258.695 361.175 259.121 360.89 259.529 360.641C267.004 356.099 276.769 358.486 281.296 365.983C285.824 373.481 283.445 383.276 275.97 387.817C275.544 388.066 275.1 388.316 274.567 388.565C276.361 394.442 277.302 400.533 277.355 406.659C277.923 406.73 278.438 406.837 278.917 406.944C283.036 407.959 286.498 410.505 288.7 414.138C290.902 417.772 291.558 422.046 290.546 426.159C288.469 434.672 279.876 439.908 271.389 437.824C270.91 437.7 270.413 437.557 269.88 437.361C267.004 442.775 263.382 447.744 259.086 452.125C259.441 452.588 259.725 453.015 259.973 453.425C262.175 457.058 262.832 461.332 261.82 465.446C260.808 469.578 258.269 473.05 254.647 475.259C247.172 479.8 237.407 477.413 232.88 469.916C232.632 469.488 232.383 469.043 232.134 468.509C226.275 470.308 220.203 471.252 214.096 471.287C214.025 471.857 213.918 472.374 213.812 472.854C212.054 480.12 205.556 485 198.419 485ZM168.804 452.071C168.911 452.071 169 452.107 169.088 452.178C173.545 456.613 178.623 460.353 184.162 463.273C184.34 463.362 184.411 463.576 184.34 463.754C184.109 464.395 183.913 464.965 183.789 465.499C182.83 469.417 183.452 473.478 185.547 476.933C187.642 480.388 190.944 482.81 194.85 483.771C202.911 485.748 211.095 480.779 213.066 472.676C213.19 472.142 213.297 471.536 213.386 470.86C213.404 470.664 213.581 470.521 213.776 470.521C220.044 470.504 226.258 469.542 232.259 467.672C232.454 467.619 232.649 467.708 232.738 467.886C233.022 468.509 233.288 469.043 233.59 469.524C237.905 476.648 247.19 478.927 254.292 474.6C257.736 472.498 260.151 469.186 261.11 465.268C262.068 461.35 261.447 457.289 259.352 453.834C259.068 453.354 258.731 452.873 258.304 452.339C258.18 452.178 258.198 451.965 258.34 451.822C262.761 447.352 266.489 442.259 269.401 436.702C269.49 436.524 269.703 436.453 269.88 436.524C270.519 436.774 271.088 436.952 271.62 437.076C279.698 439.053 287.866 434.084 289.836 425.981C290.795 422.063 290.174 418.003 288.079 414.548C285.984 411.093 282.681 408.671 278.775 407.709C278.243 407.585 277.639 407.478 276.964 407.389C276.769 407.371 276.627 407.193 276.627 406.997C276.609 400.711 275.65 394.477 273.786 388.458C273.733 388.262 273.822 388.066 273.999 387.977C274.621 387.692 275.153 387.425 275.633 387.122C282.734 382.795 285.007 373.481 280.693 366.357C276.378 359.234 267.093 356.954 259.991 361.282C259.512 361.567 259.032 361.923 258.5 362.332C258.34 362.457 258.127 362.439 257.985 362.297C253.528 357.862 248.451 354.123 242.911 351.202C242.734 351.113 242.663 350.899 242.734 350.721C242.965 350.08 243.16 349.51 243.284 348.976C244.243 345.058 243.622 340.997 241.526 337.543C239.431 334.088 236.129 331.666 232.223 330.704C224.145 328.727 215.978 333.696 214.007 341.799C213.883 342.333 213.776 342.939 213.688 343.615C213.67 343.811 213.492 343.954 213.297 343.954C207.03 343.972 200.816 344.933 194.815 346.803C194.619 346.857 194.424 346.767 194.335 346.589C194.051 345.966 193.785 345.432 193.483 344.951C189.169 337.827 179.883 335.548 172.781 339.875C165.68 344.203 163.407 353.517 167.721 360.641C168.005 361.121 168.343 361.602 168.769 362.137C168.893 362.297 168.875 362.511 168.733 362.653C164.313 367.123 160.584 372.216 157.672 377.773C157.584 377.951 157.371 378.022 157.193 377.951C156.554 377.702 155.986 377.523 155.453 377.399C151.547 376.437 147.499 377.06 144.055 379.162C140.61 381.263 138.196 384.576 137.237 388.494C135.266 396.597 140.22 404.789 148.298 406.766C148.831 406.89 149.434 406.997 150.109 407.086C150.304 407.104 150.446 407.282 150.446 407.478C150.464 413.765 151.423 419.998 153.287 426.017C153.34 426.213 153.252 426.409 153.074 426.498C152.453 426.783 151.92 427.05 151.441 427.353C147.996 429.454 145.582 432.767 144.623 436.685C143.664 440.602 144.286 444.663 146.381 448.118C148.476 451.573 151.778 453.995 155.684 454.956C159.59 455.918 163.638 455.295 167.082 453.193C167.562 452.908 168.041 452.57 168.574 452.143C168.627 452.089 168.716 452.071 168.804 452.071ZM213.563 436.453C211.237 436.453 208.912 436.168 206.604 435.598C199.058 433.746 192.666 429.062 188.636 422.384C180.309 408.618 184.695 390.649 198.419 382.296C212.143 373.944 230.075 378.343 238.384 392.109C242.414 398.769 243.622 406.623 241.775 414.192C239.929 421.761 235.259 428.172 228.601 432.215C224.003 435.01 218.819 436.453 213.563 436.453ZM189.311 421.992C193.234 428.475 199.449 433.034 206.781 434.85C214.131 436.649 221.73 435.474 228.193 431.538C234.656 427.602 239.201 421.369 241.012 414.014C242.805 406.641 241.633 399.019 237.709 392.536C229.613 379.144 212.161 374.87 198.809 382.991C185.476 391.094 181.197 408.6 189.311 421.992Z"/>
<path d="M322.664 414.352C321.918 414.352 321.155 414.263 320.409 414.085C315.349 412.839 312.242 407.71 313.485 402.634C313.538 402.385 313.627 402.135 313.716 401.868C310.627 400.212 307.786 398.128 305.283 395.671C305.052 395.849 304.839 395.991 304.608 396.116C300.151 398.823 294.346 397.398 291.629 392.928C290.316 390.773 289.925 388.227 290.529 385.769C291.132 383.311 292.641 381.228 294.807 379.928C295.02 379.803 295.251 379.661 295.518 379.536C294.506 376.17 293.973 372.68 293.92 369.171C293.636 369.136 293.369 369.082 293.138 369.011C290.688 368.405 288.611 366.892 287.315 364.719C286.001 362.564 285.611 360.017 286.214 357.56C286.818 355.102 288.327 353.019 290.493 351.719C292.641 350.401 295.18 350.009 297.63 350.614C297.879 350.668 298.127 350.757 298.394 350.846C300.045 347.747 302.122 344.898 304.572 342.387C304.395 342.155 304.253 341.941 304.128 341.71C302.815 339.555 302.424 337.008 303.028 334.551C303.631 332.093 305.14 330.01 307.306 328.709C309.455 327.392 311.994 327 314.444 327.605C316.894 328.211 318.971 329.725 320.267 331.897C320.391 332.111 320.516 332.342 320.658 332.61C324.013 331.594 327.493 331.06 330.991 331.007C331.026 330.722 331.08 330.455 331.151 330.223C331.754 327.766 333.263 325.682 335.429 324.382C337.578 323.064 340.117 322.672 342.567 323.278C347.627 324.524 350.734 329.653 349.491 334.729C349.438 334.978 349.349 335.228 349.26 335.495C352.349 337.151 355.19 339.235 357.694 341.692C357.924 341.514 358.137 341.372 358.35 341.247C360.499 339.929 363.038 339.537 365.488 340.143C367.938 340.748 370.015 342.262 371.311 344.435C372.625 346.59 373.016 349.136 372.412 351.594C371.808 354.051 370.299 356.135 368.133 357.435C367.92 357.56 367.689 357.684 367.423 357.827C368.435 361.193 368.968 364.683 369.021 368.192C369.305 368.227 369.571 368.281 369.802 368.352C374.862 369.599 377.969 374.728 376.726 379.803C375.483 384.879 370.37 387.995 365.31 386.749C365.062 386.695 364.813 386.606 364.547 386.517C362.896 389.616 360.818 392.465 358.368 394.976C358.546 395.208 358.688 395.422 358.812 395.635C360.126 397.79 360.516 400.337 359.913 402.794C359.309 405.252 357.8 407.336 355.634 408.636C353.486 409.954 350.947 410.345 348.497 409.74C346.047 409.134 343.969 407.621 342.673 405.448C342.549 405.234 342.425 405.003 342.283 404.736C338.927 405.751 335.447 406.285 331.95 406.338C331.914 406.623 331.861 406.89 331.79 407.122C331.186 409.58 329.677 411.663 327.511 412.963C326.055 413.872 324.368 414.352 322.664 414.352ZM305.3 394.727C305.407 394.727 305.496 394.763 305.584 394.834C308.176 397.416 311.141 399.589 314.373 401.298C314.55 401.387 314.621 401.601 314.55 401.779C314.408 402.153 314.302 402.474 314.231 402.794C313.094 407.443 315.953 412.162 320.587 413.302C322.842 413.854 325.167 413.498 327.138 412.287C329.109 411.076 330.512 409.17 331.062 406.926C331.133 406.606 331.204 406.285 331.239 405.893C331.257 405.697 331.435 405.555 331.63 405.555C335.287 405.537 338.909 404.985 342.407 403.899C342.602 403.845 342.798 403.934 342.886 404.112C343.046 404.486 343.206 404.771 343.366 405.056C344.573 407.033 346.473 408.44 348.71 408.992C350.965 409.544 353.29 409.188 355.261 407.977C357.232 406.766 358.635 404.86 359.185 402.616C359.735 400.355 359.38 398.022 358.173 396.045C358.013 395.778 357.8 395.493 357.569 395.172C357.445 395.012 357.463 394.798 357.605 394.656C360.179 392.056 362.345 389.082 364.05 385.84C364.138 385.662 364.351 385.591 364.529 385.662C364.902 385.805 365.221 385.912 365.541 385.983C370.175 387.123 374.88 384.255 376.016 379.607C377.152 374.959 374.294 370.24 369.66 369.1C369.358 369.029 369.003 368.958 368.63 368.922C368.435 368.904 368.293 368.726 368.293 368.53C368.275 364.861 367.725 361.228 366.624 357.72C366.571 357.524 366.66 357.328 366.837 357.239C367.192 357.079 367.494 356.919 367.778 356.758C369.749 355.547 371.151 353.642 371.702 351.398C372.252 349.136 371.897 346.803 370.69 344.826C368.204 340.73 362.878 339.43 358.794 341.906C358.528 342.066 358.244 342.262 357.924 342.511C357.765 342.636 357.551 342.618 357.409 342.476C354.817 339.893 351.852 337.703 348.621 336.011C348.443 335.922 348.372 335.708 348.443 335.53C348.586 335.156 348.692 334.836 348.763 334.515C349.899 329.867 347.041 325.148 342.407 324.008C340.152 323.456 337.826 323.812 335.856 325.023C333.885 326.234 332.482 328.14 331.932 330.383C331.861 330.704 331.79 331.025 331.754 331.416C331.737 331.612 331.559 331.755 331.364 331.755C327.706 331.773 324.084 332.325 320.587 333.411C320.391 333.464 320.196 333.375 320.107 333.197C319.948 332.841 319.788 332.538 319.628 332.253C318.421 330.277 316.521 328.87 314.284 328.318C312.029 327.766 309.703 328.122 307.733 329.333C303.649 331.826 302.353 337.169 304.821 341.265C304.981 341.532 305.176 341.817 305.425 342.137C305.549 342.298 305.531 342.511 305.389 342.654C302.815 345.254 300.631 348.228 298.944 351.469C298.855 351.647 298.642 351.719 298.465 351.647C298.092 351.505 297.772 351.398 297.453 351.327C295.198 350.775 292.872 351.131 290.901 352.342C288.931 353.553 287.528 355.458 286.978 357.702C286.427 359.964 286.782 362.297 287.99 364.274C289.197 366.251 291.097 367.657 293.334 368.21C293.636 368.281 293.991 368.352 294.364 368.388C294.559 368.405 294.701 368.584 294.701 368.779C294.719 372.448 295.269 376.081 296.37 379.589C296.423 379.785 296.334 379.981 296.157 380.07C295.802 380.231 295.5 380.391 295.216 380.551C291.132 383.044 289.836 388.387 292.304 392.483C294.79 396.579 300.116 397.879 304.199 395.404C304.466 395.243 304.75 395.048 305.069 394.798C305.14 394.763 305.211 394.727 305.3 394.727ZM331.524 385.912C330.156 385.912 328.772 385.751 327.404 385.413C322.948 384.327 319.166 381.548 316.787 377.613C314.408 373.677 313.698 369.029 314.781 364.559C315.864 360.089 318.634 356.295 322.558 353.909C326.481 351.523 331.115 350.81 335.572 351.897C340.028 352.983 343.81 355.761 346.189 359.697C351.107 367.836 348.514 378.467 340.401 383.401C337.684 385.057 334.631 385.912 331.524 385.912ZM331.452 352.164C328.488 352.164 325.558 352.983 322.966 354.568C319.22 356.847 316.574 360.463 315.527 364.737C314.479 369.011 315.172 373.428 317.444 377.203C319.717 380.961 323.321 383.614 327.582 384.665C331.843 385.716 336.246 385.021 340.01 382.742C347.751 378.022 350.219 367.871 345.532 360.107C343.259 356.349 339.655 353.695 335.394 352.645C334.08 352.324 332.766 352.164 331.452 352.164Z"/>
</mask>
<path d="M198.419 485C197.176 485 195.915 484.858 194.655 484.537C190.536 483.522 187.074 480.975 184.872 477.342C182.671 473.709 182.014 469.435 183.026 465.321C183.15 464.84 183.292 464.342 183.487 463.807C178.09 460.922 173.136 457.289 168.769 452.98C168.307 453.336 167.881 453.621 167.473 453.87C163.851 456.078 159.59 456.737 155.489 455.722C151.37 454.707 147.907 452.16 145.706 448.527C143.504 444.894 142.847 440.62 143.859 436.506C144.871 432.375 147.41 428.902 151.032 426.694C151.458 426.444 151.902 426.195 152.435 425.946C150.642 420.069 149.701 413.978 149.647 407.852C149.079 407.781 148.564 407.674 148.085 407.567C139.598 405.483 134.379 396.864 136.456 388.351C137.468 384.22 140.007 380.747 143.629 378.539C147.251 376.33 151.512 375.671 155.613 376.686C156.092 376.811 156.589 376.954 157.122 377.149C159.998 371.736 163.62 366.767 167.917 362.386C167.562 361.923 167.278 361.495 167.029 361.086C162.502 353.588 164.881 343.793 172.355 339.252C179.83 334.711 189.595 337.097 194.122 344.595C194.371 345.022 194.619 345.467 194.868 346.002C200.727 344.203 206.799 343.259 212.906 343.206C212.977 342.636 213.084 342.119 213.19 341.639C215.268 333.126 223.861 327.89 232.347 329.974C236.466 330.989 239.929 333.535 242.13 337.169C244.332 340.802 244.989 345.076 243.977 349.19C243.852 349.67 243.71 350.169 243.515 350.703C248.912 353.588 253.866 357.221 258.233 361.531C258.695 361.175 259.121 360.89 259.529 360.641C267.004 356.099 276.769 358.486 281.296 365.983C285.824 373.481 283.445 383.276 275.97 387.817C275.544 388.066 275.1 388.316 274.567 388.565C276.361 394.442 277.302 400.533 277.355 406.659C277.923 406.73 278.438 406.837 278.917 406.944C283.036 407.959 286.498 410.505 288.7 414.138C290.902 417.772 291.558 422.046 290.546 426.159C288.469 434.672 279.876 439.908 271.389 437.824C270.91 437.7 270.413 437.557 269.88 437.361C267.004 442.775 263.382 447.744 259.086 452.125C259.441 452.588 259.725 453.015 259.973 453.425C262.175 457.058 262.832 461.332 261.82 465.446C260.808 469.578 258.269 473.05 254.647 475.259C247.172 479.8 237.407 477.413 232.88 469.916C232.632 469.488 232.383 469.043 232.134 468.509C226.275 470.308 220.203 471.252 214.096 471.287C214.025 471.857 213.918 472.374 213.812 472.854C212.054 480.12 205.556 485 198.419 485ZM168.804 452.071C168.911 452.071 169 452.107 169.088 452.178C173.545 456.613 178.623 460.353 184.162 463.273C184.34 463.362 184.411 463.576 184.34 463.754C184.109 464.395 183.913 464.965 183.789 465.499C182.83 469.417 183.452 473.478 185.547 476.933C187.642 480.388 190.944 482.81 194.85 483.771C202.911 485.748 211.095 480.779 213.066 472.676C213.19 472.142 213.297 471.536 213.386 470.86C213.404 470.664 213.581 470.521 213.776 470.521C220.044 470.504 226.258 469.542 232.259 467.672C232.454 467.619 232.649 467.708 232.738 467.886C233.022 468.509 233.288 469.043 233.59 469.524C237.905 476.648 247.19 478.927 254.292 474.6C257.736 472.498 260.151 469.186 261.11 465.268C262.068 461.35 261.447 457.289 259.352 453.834C259.068 453.354 258.731 452.873 258.304 452.339C258.18 452.178 258.198 451.965 258.34 451.822C262.761 447.352 266.489 442.259 269.401 436.702C269.49 436.524 269.703 436.453 269.88 436.524C270.519 436.774 271.088 436.952 271.62 437.076C279.698 439.053 287.866 434.084 289.836 425.981C290.795 422.063 290.174 418.003 288.079 414.548C285.984 411.093 282.681 408.671 278.775 407.709C278.243 407.585 277.639 407.478 276.964 407.389C276.769 407.371 276.627 407.193 276.627 406.997C276.609 400.711 275.65 394.477 273.786 388.458C273.733 388.262 273.822 388.066 273.999 387.977C274.621 387.692 275.153 387.425 275.633 387.122C282.734 382.795 285.007 373.481 280.693 366.357C276.378 359.234 267.093 356.954 259.991 361.282C259.512 361.567 259.032 361.923 258.5 362.332C258.34 362.457 258.127 362.439 257.985 362.297C253.528 357.862 248.451 354.123 242.911 351.202C242.734 351.113 242.663 350.899 242.734 350.721C242.965 350.08 243.16 349.51 243.284 348.976C244.243 345.058 243.622 340.997 241.526 337.543C239.431 334.088 236.129 331.666 232.223 330.704C224.145 328.727 215.978 333.696 214.007 341.799C213.883 342.333 213.776 342.939 213.688 343.615C213.67 343.811 213.492 343.954 213.297 343.954C207.03 343.972 200.816 344.933 194.815 346.803C194.619 346.857 194.424 346.767 194.335 346.589C194.051 345.966 193.785 345.432 193.483 344.951C189.169 337.827 179.883 335.548 172.781 339.875C165.68 344.203 163.407 353.517 167.721 360.641C168.005 361.121 168.343 361.602 168.769 362.137C168.893 362.297 168.875 362.511 168.733 362.653C164.313 367.123 160.584 372.216 157.672 377.773C157.584 377.951 157.371 378.022 157.193 377.951C156.554 377.702 155.986 377.523 155.453 377.399C151.547 376.437 147.499 377.06 144.055 379.162C140.61 381.263 138.196 384.576 137.237 388.494C135.266 396.597 140.22 404.789 148.298 406.766C148.831 406.89 149.434 406.997 150.109 407.086C150.304 407.104 150.446 407.282 150.446 407.478C150.464 413.765 151.423 419.998 153.287 426.017C153.34 426.213 153.252 426.409 153.074 426.498C152.453 426.783 151.92 427.05 151.441 427.353C147.996 429.454 145.582 432.767 144.623 436.685C143.664 440.602 144.286 444.663 146.381 448.118C148.476 451.573 151.778 453.995 155.684 454.956C159.59 455.918 163.638 455.295 167.082 453.193C167.562 452.908 168.041 452.57 168.574 452.143C168.627 452.089 168.716 452.071 168.804 452.071ZM213.563 436.453C211.237 436.453 208.912 436.168 206.604 435.598C199.058 433.746 192.666 429.062 188.636 422.384C180.309 408.618 184.695 390.649 198.419 382.296C212.143 373.944 230.075 378.343 238.384 392.109C242.414 398.769 243.622 406.623 241.775 414.192C239.929 421.761 235.259 428.172 228.601 432.215C224.003 435.01 218.819 436.453 213.563 436.453ZM189.311 421.992C193.234 428.475 199.449 433.034 206.781 434.85C214.131 436.649 221.73 435.474 228.193 431.538C234.656 427.602 239.201 421.369 241.012 414.014C242.805 406.641 241.633 399.019 237.709 392.536C229.613 379.144 212.161 374.87 198.809 382.991C185.476 391.094 181.197 408.6 189.311 421.992Z" fill="#CACDE3"/>
<path d="M322.664 414.352C321.918 414.352 321.155 414.263 320.409 414.085C315.349 412.839 312.242 407.71 313.485 402.634C313.538 402.385 313.627 402.135 313.716 401.868C310.627 400.212 307.786 398.128 305.283 395.671C305.052 395.849 304.839 395.991 304.608 396.116C300.151 398.823 294.346 397.398 291.629 392.928C290.316 390.773 289.925 388.227 290.529 385.769C291.132 383.311 292.641 381.228 294.807 379.928C295.02 379.803 295.251 379.661 295.518 379.536C294.506 376.17 293.973 372.68 293.92 369.171C293.636 369.136 293.369 369.082 293.138 369.011C290.688 368.405 288.611 366.892 287.315 364.719C286.001 362.564 285.611 360.017 286.214 357.56C286.818 355.102 288.327 353.019 290.493 351.719C292.641 350.401 295.18 350.009 297.63 350.614C297.879 350.668 298.127 350.757 298.394 350.846C300.045 347.747 302.122 344.898 304.572 342.387C304.395 342.155 304.253 341.941 304.128 341.71C302.815 339.555 302.424 337.008 303.028 334.551C303.631 332.093 305.14 330.01 307.306 328.709C309.455 327.392 311.994 327 314.444 327.605C316.894 328.211 318.971 329.725 320.267 331.897C320.391 332.111 320.516 332.342 320.658 332.61C324.013 331.594 327.493 331.06 330.991 331.007C331.026 330.722 331.08 330.455 331.151 330.223C331.754 327.766 333.263 325.682 335.429 324.382C337.578 323.064 340.117 322.672 342.567 323.278C347.627 324.524 350.734 329.653 349.491 334.729C349.438 334.978 349.349 335.228 349.26 335.495C352.349 337.151 355.19 339.235 357.694 341.692C357.924 341.514 358.137 341.372 358.35 341.247C360.499 339.929 363.038 339.537 365.488 340.143C367.938 340.748 370.015 342.262 371.311 344.435C372.625 346.59 373.016 349.136 372.412 351.594C371.808 354.051 370.299 356.135 368.133 357.435C367.92 357.56 367.689 357.684 367.423 357.827C368.435 361.193 368.968 364.683 369.021 368.192C369.305 368.227 369.571 368.281 369.802 368.352C374.862 369.599 377.969 374.728 376.726 379.803C375.483 384.879 370.37 387.995 365.31 386.749C365.062 386.695 364.813 386.606 364.547 386.517C362.896 389.616 360.818 392.465 358.368 394.976C358.546 395.208 358.688 395.422 358.812 395.635C360.126 397.79 360.516 400.337 359.913 402.794C359.309 405.252 357.8 407.336 355.634 408.636C353.486 409.954 350.947 410.345 348.497 409.74C346.047 409.134 343.969 407.621 342.673 405.448C342.549 405.234 342.425 405.003 342.283 404.736C338.927 405.751 335.447 406.285 331.95 406.338C331.914 406.623 331.861 406.89 331.79 407.122C331.186 409.58 329.677 411.663 327.511 412.963C326.055 413.872 324.368 414.352 322.664 414.352ZM305.3 394.727C305.407 394.727 305.496 394.763 305.584 394.834C308.176 397.416 311.141 399.589 314.373 401.298C314.55 401.387 314.621 401.601 314.55 401.779C314.408 402.153 314.302 402.474 314.231 402.794C313.094 407.443 315.953 412.162 320.587 413.302C322.842 413.854 325.167 413.498 327.138 412.287C329.109 411.076 330.512 409.17 331.062 406.926C331.133 406.606 331.204 406.285 331.239 405.893C331.257 405.697 331.435 405.555 331.63 405.555C335.287 405.537 338.909 404.985 342.407 403.899C342.602 403.845 342.798 403.934 342.886 404.112C343.046 404.486 343.206 404.771 343.366 405.056C344.573 407.033 346.473 408.44 348.71 408.992C350.965 409.544 353.29 409.188 355.261 407.977C357.232 406.766 358.635 404.86 359.185 402.616C359.735 400.355 359.38 398.022 358.173 396.045C358.013 395.778 357.8 395.493 357.569 395.172C357.445 395.012 357.463 394.798 357.605 394.656C360.179 392.056 362.345 389.082 364.05 385.84C364.138 385.662 364.351 385.591 364.529 385.662C364.902 385.805 365.221 385.912 365.541 385.983C370.175 387.123 374.88 384.255 376.016 379.607C377.152 374.959 374.294 370.24 369.66 369.1C369.358 369.029 369.003 368.958 368.63 368.922C368.435 368.904 368.293 368.726 368.293 368.53C368.275 364.861 367.725 361.228 366.624 357.72C366.571 357.524 366.66 357.328 366.837 357.239C367.192 357.079 367.494 356.919 367.778 356.758C369.749 355.547 371.151 353.642 371.702 351.398C372.252 349.136 371.897 346.803 370.69 344.826C368.204 340.73 362.878 339.43 358.794 341.906C358.528 342.066 358.244 342.262 357.924 342.511C357.765 342.636 357.551 342.618 357.409 342.476C354.817 339.893 351.852 337.703 348.621 336.011C348.443 335.922 348.372 335.708 348.443 335.53C348.586 335.156 348.692 334.836 348.763 334.515C349.899 329.867 347.041 325.148 342.407 324.008C340.152 323.456 337.826 323.812 335.856 325.023C333.885 326.234 332.482 328.14 331.932 330.383C331.861 330.704 331.79 331.025 331.754 331.416C331.737 331.612 331.559 331.755 331.364 331.755C327.706 331.773 324.084 332.325 320.587 333.411C320.391 333.464 320.196 333.375 320.107 333.197C319.948 332.841 319.788 332.538 319.628 332.253C318.421 330.277 316.521 328.87 314.284 328.318C312.029 327.766 309.703 328.122 307.733 329.333C303.649 331.826 302.353 337.169 304.821 341.265C304.981 341.532 305.176 341.817 305.425 342.137C305.549 342.298 305.531 342.511 305.389 342.654C302.815 345.254 300.631 348.228 298.944 351.469C298.855 351.647 298.642 351.719 298.465 351.647C298.092 351.505 297.772 351.398 297.453 351.327C295.198 350.775 292.872 351.131 290.901 352.342C288.931 353.553 287.528 355.458 286.978 357.702C286.427 359.964 286.782 362.297 287.99 364.274C289.197 366.251 291.097 367.657 293.334 368.21C293.636 368.281 293.991 368.352 294.364 368.388C294.559 368.405 294.701 368.584 294.701 368.779C294.719 372.448 295.269 376.081 296.37 379.589C296.423 379.785 296.334 379.981 296.157 380.07C295.802 380.231 295.5 380.391 295.216 380.551C291.132 383.044 289.836 388.387 292.304 392.483C294.79 396.579 300.116 397.879 304.199 395.404C304.466 395.243 304.75 395.048 305.069 394.798C305.14 394.763 305.211 394.727 305.3 394.727ZM331.524 385.912C330.156 385.912 328.772 385.751 327.404 385.413C322.948 384.327 319.166 381.548 316.787 377.613C314.408 373.677 313.698 369.029 314.781 364.559C315.864 360.089 318.634 356.295 322.558 353.909C326.481 351.523 331.115 350.81 335.572 351.897C340.028 352.983 343.81 355.761 346.189 359.697C351.107 367.836 348.514 378.467 340.401 383.401C337.684 385.057 334.631 385.912 331.524 385.912ZM331.452 352.164C328.488 352.164 325.558 352.983 322.966 354.568C319.22 356.847 316.574 360.463 315.527 364.737C314.479 369.011 315.172 373.428 317.444 377.203C319.717 380.961 323.321 383.614 327.582 384.665C331.843 385.716 336.246 385.021 340.01 382.742C347.751 378.022 350.219 367.871 345.532 360.107C343.259 356.349 339.655 353.695 335.394 352.645C334.08 352.324 332.766 352.164 331.452 352.164Z" fill="#CACDE3"/>
<path d="M198.419 485C197.176 485 195.915 484.858 194.655 484.537C190.536 483.522 187.074 480.975 184.872 477.342C182.671 473.709 182.014 469.435 183.026 465.321C183.15 464.84 183.292 464.342 183.487 463.807C178.09 460.922 173.136 457.289 168.769 452.98C168.307 453.336 167.881 453.621 167.473 453.87C163.851 456.078 159.59 456.737 155.489 455.722C151.37 454.707 147.907 452.16 145.706 448.527C143.504 444.894 142.847 440.62 143.859 436.506C144.871 432.375 147.41 428.902 151.032 426.694C151.458 426.444 151.902 426.195 152.435 425.946C150.642 420.069 149.701 413.978 149.647 407.852C149.079 407.781 148.564 407.674 148.085 407.567C139.598 405.483 134.379 396.864 136.456 388.351C137.468 384.22 140.007 380.747 143.629 378.539C147.251 376.33 151.512 375.671 155.613 376.686C156.092 376.811 156.589 376.954 157.122 377.149C159.998 371.736 163.62 366.767 167.917 362.386C167.562 361.923 167.278 361.495 167.029 361.086C162.502 353.588 164.881 343.793 172.355 339.252C179.83 334.711 189.595 337.097 194.122 344.595C194.371 345.022 194.619 345.467 194.868 346.002C200.727 344.203 206.799 343.259 212.906 343.206C212.977 342.636 213.084 342.119 213.19 341.639C215.268 333.126 223.861 327.89 232.347 329.974C236.466 330.989 239.929 333.535 242.13 337.169C244.332 340.802 244.989 345.076 243.977 349.19C243.852 349.67 243.71 350.169 243.515 350.703C248.912 353.588 253.866 357.221 258.233 361.531C258.695 361.175 259.121 360.89 259.529 360.641C267.004 356.099 276.769 358.486 281.296 365.983C285.824 373.481 283.445 383.276 275.97 387.817C275.544 388.066 275.1 388.316 274.567 388.565C276.361 394.442 277.302 400.533 277.355 406.659C277.923 406.73 278.438 406.837 278.917 406.944C283.036 407.959 286.498 410.505 288.7 414.138C290.902 417.772 291.558 422.046 290.546 426.159C288.469 434.672 279.876 439.908 271.389 437.824C270.91 437.7 270.413 437.557 269.88 437.361C267.004 442.775 263.382 447.744 259.086 452.125C259.441 452.588 259.725 453.015 259.973 453.425C262.175 457.058 262.832 461.332 261.82 465.446C260.808 469.578 258.269 473.05 254.647 475.259C247.172 479.8 237.407 477.413 232.88 469.916C232.632 469.488 232.383 469.043 232.134 468.509C226.275 470.308 220.203 471.252 214.096 471.287C214.025 471.857 213.918 472.374 213.812 472.854C212.054 480.12 205.556 485 198.419 485ZM168.804 452.071C168.911 452.071 169 452.107 169.088 452.178C173.545 456.613 178.623 460.353 184.162 463.273C184.34 463.362 184.411 463.576 184.34 463.754C184.109 464.395 183.913 464.965 183.789 465.499C182.83 469.417 183.452 473.478 185.547 476.933C187.642 480.388 190.944 482.81 194.85 483.771C202.911 485.748 211.095 480.779 213.066 472.676C213.19 472.142 213.297 471.536 213.386 470.86C213.404 470.664 213.581 470.521 213.776 470.521C220.044 470.504 226.258 469.542 232.259 467.672C232.454 467.619 232.649 467.708 232.738 467.886C233.022 468.509 233.288 469.043 233.59 469.524C237.905 476.648 247.19 478.927 254.292 474.6C257.736 472.498 260.151 469.186 261.11 465.268C262.068 461.35 261.447 457.289 259.352 453.834C259.068 453.354 258.731 452.873 258.304 452.339C258.18 452.178 258.198 451.965 258.34 451.822C262.761 447.352 266.489 442.259 269.401 436.702C269.49 436.524 269.703 436.453 269.88 436.524C270.519 436.774 271.088 436.952 271.62 437.076C279.698 439.053 287.866 434.084 289.836 425.981C290.795 422.063 290.174 418.003 288.079 414.548C285.984 411.093 282.681 408.671 278.775 407.709C278.243 407.585 277.639 407.478 276.964 407.389C276.769 407.371 276.627 407.193 276.627 406.997C276.609 400.711 275.65 394.477 273.786 388.458C273.733 388.262 273.822 388.066 273.999 387.977C274.621 387.692 275.153 387.425 275.633 387.122C282.734 382.795 285.007 373.481 280.693 366.357C276.378 359.234 267.093 356.954 259.991 361.282C259.512 361.567 259.032 361.923 258.5 362.332C258.34 362.457 258.127 362.439 257.985 362.297C253.528 357.862 248.451 354.123 242.911 351.202C242.734 351.113 242.663 350.899 242.734 350.721C242.965 350.08 243.16 349.51 243.284 348.976C244.243 345.058 243.622 340.997 241.526 337.543C239.431 334.088 236.129 331.666 232.223 330.704C224.145 328.727 215.978 333.696 214.007 341.799C213.883 342.333 213.776 342.939 213.688 343.615C213.67 343.811 213.492 343.954 213.297 343.954C207.03 343.972 200.816 344.933 194.815 346.803C194.619 346.857 194.424 346.767 194.335 346.589C194.051 345.966 193.785 345.432 193.483 344.951C189.169 337.827 179.883 335.548 172.781 339.875C165.68 344.203 163.407 353.517 167.721 360.641C168.005 361.121 168.343 361.602 168.769 362.137C168.893 362.297 168.875 362.511 168.733 362.653C164.313 367.123 160.584 372.216 157.672 377.773C157.584 377.951 157.371 378.022 157.193 377.951C156.554 377.702 155.986 377.523 155.453 377.399C151.547 376.437 147.499 377.06 144.055 379.162C140.61 381.263 138.196 384.576 137.237 388.494C135.266 396.597 140.22 404.789 148.298 406.766C148.831 406.89 149.434 406.997 150.109 407.086C150.304 407.104 150.446 407.282 150.446 407.478C150.464 413.765 151.423 419.998 153.287 426.017C153.34 426.213 153.252 426.409 153.074 426.498C152.453 426.783 151.92 427.05 151.441 427.353C147.996 429.454 145.582 432.767 144.623 436.685C143.664 440.602 144.286 444.663 146.381 448.118C148.476 451.573 151.778 453.995 155.684 454.956C159.59 455.918 163.638 455.295 167.082 453.193C167.562 452.908 168.041 452.57 168.574 452.143C168.627 452.089 168.716 452.071 168.804 452.071ZM213.563 436.453C211.237 436.453 208.912 436.168 206.604 435.598C199.058 433.746 192.666 429.062 188.636 422.384C180.309 408.618 184.695 390.649 198.419 382.296C212.143 373.944 230.075 378.343 238.384 392.109C242.414 398.769 243.622 406.623 241.775 414.192C239.929 421.761 235.259 428.172 228.601 432.215C224.003 435.01 218.819 436.453 213.563 436.453ZM189.311 421.992C193.234 428.475 199.449 433.034 206.781 434.85C214.131 436.649 221.73 435.474 228.193 431.538C234.656 427.602 239.201 421.369 241.012 414.014C242.805 406.641 241.633 399.019 237.709 392.536C229.613 379.144 212.161 374.87 198.809 382.991C185.476 391.094 181.197 408.6 189.311 421.992Z" stroke="#CACDE3" stroke-width="2.8" mask="url(#path-9-outside-1_72_1633)"/>
<path d="M322.664 414.352C321.918 414.352 321.155 414.263 320.409 414.085C315.349 412.839 312.242 407.71 313.485 402.634C313.538 402.385 313.627 402.135 313.716 401.868C310.627 400.212 307.786 398.128 305.283 395.671C305.052 395.849 304.839 395.991 304.608 396.116C300.151 398.823 294.346 397.398 291.629 392.928C290.316 390.773 289.925 388.227 290.529 385.769C291.132 383.311 292.641 381.228 294.807 379.928C295.02 379.803 295.251 379.661 295.518 379.536C294.506 376.17 293.973 372.68 293.92 369.171C293.636 369.136 293.369 369.082 293.138 369.011C290.688 368.405 288.611 366.892 287.315 364.719C286.001 362.564 285.611 360.017 286.214 357.56C286.818 355.102 288.327 353.019 290.493 351.719C292.641 350.401 295.18 350.009 297.63 350.614C297.879 350.668 298.127 350.757 298.394 350.846C300.045 347.747 302.122 344.898 304.572 342.387C304.395 342.155 304.253 341.941 304.128 341.71C302.815 339.555 302.424 337.008 303.028 334.551C303.631 332.093 305.14 330.01 307.306 328.709C309.455 327.392 311.994 327 314.444 327.605C316.894 328.211 318.971 329.725 320.267 331.897C320.391 332.111 320.516 332.342 320.658 332.61C324.013 331.594 327.493 331.06 330.991 331.007C331.026 330.722 331.08 330.455 331.151 330.223C331.754 327.766 333.263 325.682 335.429 324.382C337.578 323.064 340.117 322.672 342.567 323.278C347.627 324.524 350.734 329.653 349.491 334.729C349.438 334.978 349.349 335.228 349.26 335.495C352.349 337.151 355.19 339.235 357.694 341.692C357.924 341.514 358.137 341.372 358.35 341.247C360.499 339.929 363.038 339.537 365.488 340.143C367.938 340.748 370.015 342.262 371.311 344.435C372.625 346.59 373.016 349.136 372.412 351.594C371.808 354.051 370.299 356.135 368.133 357.435C367.92 357.56 367.689 357.684 367.423 357.827C368.435 361.193 368.968 364.683 369.021 368.192C369.305 368.227 369.571 368.281 369.802 368.352C374.862 369.599 377.969 374.728 376.726 379.803C375.483 384.879 370.37 387.995 365.31 386.749C365.062 386.695 364.813 386.606 364.547 386.517C362.896 389.616 360.818 392.465 358.368 394.976C358.546 395.208 358.688 395.422 358.812 395.635C360.126 397.79 360.516 400.337 359.913 402.794C359.309 405.252 357.8 407.336 355.634 408.636C353.486 409.954 350.947 410.345 348.497 409.74C346.047 409.134 343.969 407.621 342.673 405.448C342.549 405.234 342.425 405.003 342.283 404.736C338.927 405.751 335.447 406.285 331.95 406.338C331.914 406.623 331.861 406.89 331.79 407.122C331.186 409.58 329.677 411.663 327.511 412.963C326.055 413.872 324.368 414.352 322.664 414.352ZM305.3 394.727C305.407 394.727 305.496 394.763 305.584 394.834C308.176 397.416 311.141 399.589 314.373 401.298C314.55 401.387 314.621 401.601 314.55 401.779C314.408 402.153 314.302 402.474 314.231 402.794C313.094 407.443 315.953 412.162 320.587 413.302C322.842 413.854 325.167 413.498 327.138 412.287C329.109 411.076 330.512 409.17 331.062 406.926C331.133 406.606 331.204 406.285 331.239 405.893C331.257 405.697 331.435 405.555 331.63 405.555C335.287 405.537 338.909 404.985 342.407 403.899C342.602 403.845 342.798 403.934 342.886 404.112C343.046 404.486 343.206 404.771 343.366 405.056C344.573 407.033 346.473 408.44 348.71 408.992C350.965 409.544 353.29 409.188 355.261 407.977C357.232 406.766 358.635 404.86 359.185 402.616C359.735 400.355 359.38 398.022 358.173 396.045C358.013 395.778 357.8 395.493 357.569 395.172C357.445 395.012 357.463 394.798 357.605 394.656C360.179 392.056 362.345 389.082 364.05 385.84C364.138 385.662 364.351 385.591 364.529 385.662C364.902 385.805 365.221 385.912 365.541 385.983C370.175 387.123 374.88 384.255 376.016 379.607C377.152 374.959 374.294 370.24 369.66 369.1C369.358 369.029 369.003 368.958 368.63 368.922C368.435 368.904 368.293 368.726 368.293 368.53C368.275 364.861 367.725 361.228 366.624 357.72C366.571 357.524 366.66 357.328 366.837 357.239C367.192 357.079 367.494 356.919 367.778 356.758C369.749 355.547 371.151 353.642 371.702 351.398C372.252 349.136 371.897 346.803 370.69 344.826C368.204 340.73 362.878 339.43 358.794 341.906C358.528 342.066 358.244 342.262 357.924 342.511C357.765 342.636 357.551 342.618 357.409 342.476C354.817 339.893 351.852 337.703 348.621 336.011C348.443 335.922 348.372 335.708 348.443 335.53C348.586 335.156 348.692 334.836 348.763 334.515C349.899 329.867 347.041 325.148 342.407 324.008C340.152 323.456 337.826 323.812 335.856 325.023C333.885 326.234 332.482 328.14 331.932 330.383C331.861 330.704 331.79 331.025 331.754 331.416C331.737 331.612 331.559 331.755 331.364 331.755C327.706 331.773 324.084 332.325 320.587 333.411C320.391 333.464 320.196 333.375 320.107 333.197C319.948 332.841 319.788 332.538 319.628 332.253C318.421 330.277 316.521 328.87 314.284 328.318C312.029 327.766 309.703 328.122 307.733 329.333C303.649 331.826 302.353 337.169 304.821 341.265C304.981 341.532 305.176 341.817 305.425 342.137C305.549 342.298 305.531 342.511 305.389 342.654C302.815 345.254 300.631 348.228 298.944 351.469C298.855 351.647 298.642 351.719 298.465 351.647C298.092 351.505 297.772 351.398 297.453 351.327C295.198 350.775 292.872 351.131 290.901 352.342C288.931 353.553 287.528 355.458 286.978 357.702C286.427 359.964 286.782 362.297 287.99 364.274C289.197 366.251 291.097 367.657 293.334 368.21C293.636 368.281 293.991 368.352 294.364 368.388C294.559 368.405 294.701 368.584 294.701 368.779C294.719 372.448 295.269 376.081 296.37 379.589C296.423 379.785 296.334 379.981 296.157 380.07C295.802 380.231 295.5 380.391 295.216 380.551C291.132 383.044 289.836 388.387 292.304 392.483C294.79 396.579 300.116 397.879 304.199 395.404C304.466 395.243 304.75 395.048 305.069 394.798C305.14 394.763 305.211 394.727 305.3 394.727ZM331.524 385.912C330.156 385.912 328.772 385.751 327.404 385.413C322.948 384.327 319.166 381.548 316.787 377.613C314.408 373.677 313.698 369.029 314.781 364.559C315.864 360.089 318.634 356.295 322.558 353.909C326.481 351.523 331.115 350.81 335.572 351.897C340.028 352.983 343.81 355.761 346.189 359.697C351.107 367.836 348.514 378.467 340.401 383.401C337.684 385.057 334.631 385.912 331.524 385.912ZM331.452 352.164C328.488 352.164 325.558 352.983 322.966 354.568C319.22 356.847 316.574 360.463 315.527 364.737C314.479 369.011 315.172 373.428 317.444 377.203C319.717 380.961 323.321 383.614 327.582 384.665C331.843 385.716 336.246 385.021 340.01 382.742C347.751 378.022 350.219 367.871 345.532 360.107C343.259 356.349 339.655 353.695 335.394 352.645C334.08 352.324 332.766 352.164 331.452 352.164Z" stroke="#CACDE3" stroke-width="2.8" mask="url(#path-9-outside-1_72_1633)"/>
<path fill-rule="evenodd" clip-rule="evenodd" d="M458 362.12C507.246 350.055 556.973 380.175 569.06 429.443C581.148 478.71 551.006 528.437 501.738 540.503C460.52 550.601 418.966 531.148 399.425 495.65L311.421 517.246L308.011 503.366L296.951 506.077L300.361 519.956L271.202 527.104L266.503 507.956L255.465 518.951L258.241 530.273L246.896 533.049L241.213 509.858L220.558 514.929L226.219 538.12L212.273 541.552C186.656 547.847 160.798 532.153 154.503 506.536L388.04 449.243C388.932 408.734 416.757 372.239 458 362.12ZM510.656 422.142C499.399 424.918 492.514 436.284 495.268 447.541C498.022 458.798 509.41 465.705 520.667 462.929C531.924 460.153 538.809 448.787 536.055 437.53C533.279 426.273 521.913 419.388 510.656 422.142Z" fill="#CACDE3"/>
<path d="M397.738 492.918C397.563 492.918 397.388 492.831 397.301 492.656C394.241 486.535 391.858 480.022 390.219 473.311C378.088 423.869 408.448 373.792 457.891 361.661C466.896 359.453 476.098 358.601 485.279 359.126C485.541 359.147 485.738 359.366 485.738 359.628C485.716 359.891 485.497 360.087 485.235 360.087C476.164 359.563 467.049 360.393 458.131 362.579C409.213 374.579 379.159 424.153 391.159 473.071C392.798 479.716 395.159 486.164 398.175 492.219C398.284 492.459 398.197 492.743 397.956 492.874C397.891 492.896 397.803 492.918 397.738 492.918Z" fill="#CACDE3"/>
<path d="M551.661 269.836H23.1805C11.0056 269.836 1.03839 259.868 1.03839 247.694V245.836C1.03839 233.661 11.0056 223.694 23.1805 223.694H551.683C563.858 223.694 573.825 233.661 573.825 245.836V247.694C573.825 259.868 563.858 269.836 551.661 269.836Z" fill="white"/>
<path d="M551.661 270.316H23.1805C10.6996 270.316 0.535645 260.153 0.535645 247.672V245.814C0.535645 233.333 10.6996 223.169 23.1805 223.169H551.683C564.164 223.169 574.328 233.333 574.328 245.814V247.672C574.306 260.153 564.142 270.316 551.661 270.316ZM23.1805 224.153C11.2242 224.153 1.51925 233.879 1.51925 245.814V247.672C1.51925 259.628 11.246 269.333 23.1805 269.333H551.683C563.639 269.333 573.344 259.606 573.344 247.672V245.814C573.344 233.857 563.618 224.153 551.683 224.153H23.1805Z" fill="#CCCCCC"/>
<path d="M548.294 252.473C544.271 252.473 541 249.003 541 244.736C541 240.469 544.271 237 548.294 237C552.317 237 555.588 240.469 555.588 244.736C555.572 249.003 552.301 252.473 548.294 252.473ZM548.294 237.781C544.68 237.781 541.72 240.903 541.72 244.754C541.72 248.605 544.663 251.727 548.294 251.727C551.925 251.727 554.869 248.605 554.869 244.754C554.869 240.903 551.909 237.781 548.294 237.781Z" fill="black"/>
<path d="M559.644 257C559.546 257 559.464 256.965 559.383 256.896L553.004 250.131C552.857 249.975 552.857 249.732 553.004 249.593C553.152 249.437 553.38 249.437 553.511 249.593L559.89 256.358C560.037 256.514 560.037 256.757 559.89 256.896C559.841 256.965 559.742 257 559.644 257Z" fill="black"/>
<path d="M506.394 253.508H422.482C418.635 253.508 415.531 250.404 415.531 246.557V245.967C415.531 242.12 418.635 239.016 422.482 239.016H506.394C510.241 239.016 513.345 242.12 513.345 245.967V246.557C513.345 250.382 510.241 253.508 506.394 253.508Z" fill="#D3DAF3"/>
<path d="M386.372 253.508H285.629C281.782 253.508 278.678 250.404 278.678 246.557V245.967C278.678 242.12 281.782 239.016 285.629 239.016H386.372C390.219 239.016 393.323 242.12 393.323 245.967V246.557C393.323 250.382 390.197 253.508 386.372 253.508Z" fill="#D3DAF3"/>
<path d="M200.995 255.169H95.4436C90.7004 255.169 86.8753 251.322 86.8753 246.601V245.879C86.8753 241.136 90.7222 237.311 95.4436 237.311H200.995C205.739 237.311 209.564 241.158 209.564 245.879V246.601C209.564 251.322 205.717 255.169 200.995 255.169Z" fill="#D3DAF3"/>
<path d="M436.12 252.765C441.65 264.327 450.175 274.469 460.82 281.617C474.787 291.016 492.055 295.016 508.776 293.311C520.82 292.087 538.241 298.098 536.536 278.688C535.639 268.546 528.82 260 521.847 252.59C506.7 236.524 489.323 222.666 470.94 210.448C465.585 206.885 460.011 203.388 453.738 201.901C447.465 200.415 440.317 201.245 435.53 205.53C429.847 210.601 428.754 219.06 429.235 226.644C429.519 231.016 430.219 235.344 431.312 239.584L436.12 252.765Z" fill="black"/>
<path d="M346.131 312.437L411.224 321.464L438.044 334.054C446.24 363.278 372.885 361.53 372.885 361.53L411.137 409.551C414.809 414.163 415.333 420.546 412.426 425.661C404.382 439.759 387.355 462.338 378.634 473.639C376.47 476.437 372.033 475.475 371.224 472.021L366.634 452.437L313.126 362.054C299.005 338.207 318.699 308.612 346.131 312.437Z" fill="#F4EAE2"/>
<path d="M346.131 312.437L411.224 321.464L450.809 339.366C459.005 368.59 372.907 361.53 372.907 361.53L406.131 403.234C404.557 405.639 366.787 450.185 365.934 451.234L313.126 362.054C299.005 338.207 318.699 308.612 346.131 312.437Z" fill="#292929"/>
<path d="M444.601 342.732L389.213 341.333C362.546 340.655 338.087 356.153 327.29 380.546C309.563 420.568 281.913 479.322 262.328 503.366C260.033 506.185 262.35 510.382 265.978 509.901L321.322 502.644C330.262 501.464 338.131 496.153 342.546 488.306L393.432 398.142C393.432 398.142 495.333 403.06 486.306 382.885C477.301 362.71 444.601 342.732 444.601 342.732Z" fill="#F4EAE2"/>
<path d="M335.289 484.109C330.896 484.502 326.524 484.852 322.109 485.092C317.716 485.333 313.322 485.377 308.907 485.355C300.076 485.311 291.246 485.224 282.415 484.83C280.054 484.721 277.716 484.59 275.355 484.437C292.929 455.781 313.235 412.284 327.289 380.546C338.087 356.153 362.524 340.655 389.213 341.333L444.601 342.732C444.601 342.732 477.3 362.732 486.306 382.907C495.333 403.082 393.431 398.163 393.431 398.163L345.431 483.213C342.065 483.497 338.677 483.803 335.289 484.109Z" fill="#292929"/>
<path d="M327.312 381.027C327.246 381.027 327.181 381.005 327.115 380.984C326.874 380.874 326.765 380.59 326.874 380.35C337.563 356.197 361.257 340.831 387.552 340.831C388.12 340.831 388.689 340.831 389.257 340.852L437.65 342.076C437.913 342.076 438.131 342.295 438.109 342.579C438.109 342.841 437.891 343.038 437.629 343.038C437.629 343.038 437.629 343.038 437.607 343.038L389.213 341.814C388.645 341.792 388.099 341.792 387.53 341.792C361.629 341.792 338.284 356.94 327.727 380.743C327.661 380.918 327.487 381.027 327.312 381.027Z" fill="black"/>
<path d="M365.41 448.283C365.322 448.283 365.257 448.262 365.169 448.218C364.929 448.087 364.863 447.803 364.995 447.562L393.016 397.901C393.104 397.748 393.279 397.639 393.454 397.661C393.497 397.661 396.798 397.814 402.088 397.967C402.35 397.967 402.568 398.185 402.547 398.469C402.547 398.732 402.306 398.95 402.044 398.928C397.65 398.819 394.612 398.688 393.694 398.644L365.825 448.043C365.738 448.196 365.585 448.283 365.41 448.283Z" fill="black"/>
<path d="M372.885 398.71C372.623 398.71 372.404 398.491 372.404 398.229C372.404 397.967 372.623 397.748 372.885 397.748L390.634 397.683C390.896 397.683 391.115 397.901 391.115 398.164C391.115 398.426 390.896 398.644 390.634 398.644L372.885 398.71Z" fill="black"/>
<path d="M411.225 321.464L439.727 342.251C439.727 342.251 468.296 367.978 470.438 395.038C470.438 395.038 525.913 389.136 510.503 327.868L440.23 325.879L411.225 321.464Z" fill="#292929"/>
<path d="M503.749 334.776L483.028 251.322C483.028 251.322 444.755 250.535 431.312 253.573C431.312 253.573 429.826 321.355 429.126 334.776H503.749Z" fill="#0353EE"/>
<path d="M406.481 320.524C406.481 320.524 417.738 252.918 431.29 253.574L429.104 320.524H406.481Z" fill="#FFE2E2"/>
<path d="M429.126 321.005H406.504C406.372 321.005 406.219 320.94 406.132 320.83C406.045 320.721 406.001 320.59 406.023 320.437C406.045 320.262 408.886 303.322 413.367 286.666C419.422 264.087 425.498 252.787 431.356 253.071C431.618 253.093 431.815 253.311 431.815 253.573L429.629 320.524C429.607 320.808 429.389 321.005 429.126 321.005ZM407.072 320.043H428.667L430.81 254.054C425.651 254.47 419.946 265.814 414.285 286.907C410.285 301.836 407.596 316.983 407.072 320.043Z" fill="black"/>
<path d="M350.962 322.885H454.722V319.759C454.722 317.005 452.492 314.775 449.738 314.775H343.662L344.514 317.945C345.301 320.852 347.946 322.885 350.962 322.885Z" fill="#FF8906"/>
<path d="M348.012 319.213H410.613C413.279 319.213 415.247 316.699 414.613 314.098L402.788 266.382C402.329 264.546 400.689 263.256 398.788 263.256H336.186C333.52 263.256 331.553 265.77 332.186 268.371L344.012 316.087C344.471 317.923 346.11 319.213 348.012 319.213Z" fill="#FF8906"/>
<path d="M369.258 283.759C370.404 283.759 371.334 282.829 371.334 281.682C371.334 280.536 370.404 279.606 369.258 279.606C368.111 279.606 367.181 280.536 367.181 281.682C367.181 282.829 368.111 283.759 369.258 283.759Z" fill="#F4EAE2"/>
<path d="M433.606 314.776C433.606 314.776 445.038 295.213 460.623 301.005C476.229 306.798 498.459 320.699 498.459 320.699C498.459 320.699 477.934 264.918 483.005 251.322C483.005 251.322 509.912 259.388 522.35 299.606C534.787 339.825 516.229 353.486 503.071 353.705C489.912 353.945 456.907 319.191 451.683 319.213L433.606 314.776Z" fill="#FFE2E2"/>
<path d="M502.962 354.185C494.634 354.185 479.312 341.333 467.006 330.994C460.077 325.18 453.563 319.694 451.727 319.694C451.683 319.694 451.64 319.694 451.618 319.672L433.519 315.235C433.366 315.191 433.257 315.103 433.191 314.95C433.126 314.819 433.148 314.644 433.213 314.513C433.323 314.317 445.017 294.666 460.82 300.524C474.241 305.508 492.754 316.59 497.563 319.541C494.437 310.863 477.869 263.737 482.59 251.125C482.678 250.885 482.94 250.754 483.181 250.841C483.465 250.929 490.088 252.961 498.35 260C505.956 266.47 516.383 278.557 522.831 299.453C530.459 324.131 526.109 337.552 521.082 344.48C516.776 350.426 510.044 354.054 503.093 354.185C503.049 354.185 503.006 354.185 502.962 354.185ZM451.771 318.732C453.891 318.819 458.94 322.972 467.618 330.251C479.181 339.956 494.984 353.224 502.962 353.224C503.006 353.224 503.049 353.224 503.093 353.224C509.76 353.114 516.186 349.617 520.317 343.912C525.191 337.18 529.432 324.021 521.913 299.737C515.53 279.103 505.257 267.169 497.76 260.786C490.831 254.885 484.951 252.502 483.334 251.934C478.962 265.967 498.743 320 498.94 320.546C499.006 320.743 498.962 320.961 498.787 321.093C498.634 321.224 498.394 321.246 498.219 321.136C498 321.005 475.836 307.191 460.47 301.486C446.896 296.459 436.383 311.388 434.372 314.491L451.771 318.732Z" fill="black"/>
<path d="M447.64 316.874C447.596 316.874 447.53 316.874 447.487 316.852C447.246 316.765 447.093 316.48 447.181 316.24C448.274 313.114 450.722 310.448 453.76 309.136C454 309.027 454.284 309.136 454.394 309.377C454.503 309.617 454.394 309.901 454.153 310.011C451.377 311.235 449.104 313.683 448.099 316.546C448.033 316.765 447.836 316.874 447.64 316.874Z" fill="black"/>
<path d="M441.957 315.738C441.913 315.738 441.87 315.738 441.826 315.716C441.564 315.65 441.433 315.366 441.498 315.126C442.635 311.344 445.433 308.087 448.995 306.426C449.236 306.317 449.52 306.426 449.629 306.667C449.739 306.907 449.629 307.191 449.389 307.301C446.066 308.852 443.465 311.891 442.394 315.41C442.351 315.607 442.154 315.738 441.957 315.738Z" fill="black"/>
<path d="M459.072 228.655L468.077 251.453C468.077 251.453 463.028 258.098 451.728 259.628C440.427 261.136 450.045 251.672 450.045 251.672L444.58 236.043L459.072 228.655Z" fill="#F4EAE2"/>
<path d="M449.52 260.262C447.596 260.262 446.416 259.781 445.935 258.798C444.82 256.524 448.449 252.59 449.476 251.541L444.121 236.196C444.034 235.978 444.143 235.716 444.361 235.606L458.875 228.218C459.006 228.153 459.137 228.153 459.269 228.196C459.4 228.24 459.487 228.349 459.553 228.481L468.558 251.278C468.624 251.431 468.602 251.606 468.493 251.737C468.274 252.022 463.203 258.557 451.815 260.087C450.941 260.196 450.197 260.262 449.52 260.262ZM445.148 236.262L450.482 251.497C450.547 251.672 450.503 251.869 450.372 252C448.624 253.705 446.132 256.962 446.81 258.36C447.225 259.213 448.952 259.475 451.662 259.125C461.542 257.814 466.569 252.459 467.531 251.344L458.81 229.311L445.148 236.262Z" fill="black"/>
<path d="M433.323 226.797C433.651 230.273 434.612 233.726 436.623 236.568C438.634 239.409 441.782 241.551 445.235 241.857C448.252 242.12 451.268 241.005 453.629 239.125C455.989 237.245 457.716 234.666 458.94 231.912C462.088 232.109 465.235 229.945 466.153 226.928C466.678 225.18 466.459 223.147 465.235 221.792C464.011 220.437 461.694 220.087 460.339 221.289C459.552 221.967 459.159 223.016 458.35 223.672C457.454 224.393 456.142 224.48 455.05 224.131C453.957 223.781 453.017 223.016 452.208 222.185C449.672 219.584 448.121 216.021 447.946 212.371C447.968 212.721 446.394 213.683 446.11 213.879C445.41 214.36 444.689 214.775 443.902 215.125C442.394 215.825 440.754 216.262 439.115 216.437C438.284 216.524 437.432 216.546 436.58 216.48C435.902 216.437 434.962 216.087 434.306 216.262C432.951 216.633 433.257 219.213 433.192 220.262C433.126 222.448 433.104 224.633 433.323 226.797Z" fill="#F4EAE2"/>
<path d="M446.11 242.404C445.804 242.404 445.498 242.382 445.192 242.36C441.804 242.054 438.437 239.999 436.23 236.852C434.35 234.207 433.213 230.841 432.842 226.841C432.667 224.939 432.645 222.841 432.776 220.24C432.776 220.065 432.776 219.846 432.776 219.606C432.776 218.251 432.754 216.218 434.241 215.803C434.765 215.65 435.399 215.781 435.946 215.89C436.208 215.934 436.47 215.999 436.667 215.999C437.476 216.043 438.306 216.043 439.115 215.956C440.732 215.781 442.284 215.366 443.749 214.688C444.492 214.338 445.213 213.945 445.869 213.486C445.913 213.464 445.978 213.42 446.066 213.355C447.071 212.699 447.421 212.393 447.508 212.262C447.552 212.043 447.727 211.89 447.967 211.89C448.23 211.868 448.448 212.087 448.47 212.349C448.645 215.868 450.153 219.322 452.601 221.836C453.541 222.797 454.372 223.366 455.246 223.65C456.295 223.999 457.388 223.846 458.088 223.278C458.459 222.994 458.743 222.579 459.028 222.142C459.334 221.704 459.64 221.267 460.055 220.896C461.563 219.584 464.164 219.825 465.629 221.442C466.896 222.841 467.268 224.983 466.634 227.038C465.672 230.185 462.547 232.437 459.268 232.371C457.891 235.366 456.099 237.748 453.935 239.475C451.596 241.377 448.798 242.404 446.11 242.404ZM434.787 216.721C434.678 216.721 434.59 216.721 434.503 216.743C433.738 216.961 433.738 218.622 433.76 219.606C433.76 219.868 433.76 220.109 433.76 220.305C433.629 222.863 433.651 224.918 433.825 226.754C434.197 230.579 435.268 233.792 437.038 236.305C439.093 239.213 442.197 241.136 445.301 241.398C448.011 241.639 450.94 240.677 453.366 238.754C455.465 237.071 457.213 234.71 458.547 231.715C458.634 231.54 458.809 231.409 459.028 231.431C461.957 231.628 464.907 229.573 465.76 226.775C466.284 225.049 465.978 223.213 464.951 222.098C463.858 220.874 461.825 220.655 460.733 221.617C460.405 221.901 460.142 222.295 459.858 222.688C459.53 223.147 459.202 223.628 458.722 224.021C457.76 224.786 456.317 225.005 454.984 224.568C453.957 224.24 452.995 223.584 451.946 222.513C449.585 220.087 448.033 216.83 447.64 213.464C447.377 213.661 447.049 213.879 446.634 214.142C446.547 214.185 446.503 214.229 446.459 214.251C445.76 214.732 444.995 215.169 444.186 215.54C442.634 216.262 440.973 216.721 439.246 216.896C438.372 216.983 437.498 217.005 436.645 216.961C436.383 216.939 436.099 216.896 435.793 216.83C435.443 216.786 435.071 216.721 434.787 216.721Z" fill="black"/>
<path d="M459.071 229.136C459.049 229.136 459.027 229.136 458.984 229.136C458.721 229.092 458.546 228.852 458.59 228.589C458.896 226.753 460.361 225.18 462.175 224.764C462.437 224.699 462.699 224.874 462.743 225.136C462.809 225.398 462.634 225.66 462.372 225.704C460.929 226.032 459.771 227.278 459.53 228.742C459.508 228.961 459.29 229.136 459.071 229.136Z" fill="black"/>
<path d="M428.886 150.426H281.585C281.323 150.426 281.104 150.207 281.104 149.945C281.104 149.682 281.323 149.464 281.585 149.464H428.886C429.148 149.464 429.366 149.682 429.366 149.945C429.366 150.207 429.148 150.426 428.886 150.426Z" fill="#501DBC"/>
<path d="M309.038 162.622H281.585C281.323 162.622 281.104 162.404 281.104 162.141C281.104 161.879 281.323 161.661 281.585 161.661H309.038C309.301 161.661 309.519 161.879 309.519 162.141C309.519 162.404 309.301 162.622 309.038 162.622Z" fill="#501DBC"/>
<path d="M378.94 162.622H325.104C324.842 162.622 324.623 162.404 324.623 162.141C324.623 161.879 324.842 161.661 325.104 161.661H378.94C379.202 161.661 379.421 161.879 379.421 162.141C379.421 162.404 379.202 162.622 378.94 162.622Z" fill="#501DBC"/>
<path d="M329.541 174.819H281.585C281.323 174.819 281.104 174.6 281.104 174.338C281.104 174.076 281.323 173.857 281.585 173.857H329.541C329.803 173.857 330.022 174.076 330.022 174.338C330.022 174.6 329.803 174.819 329.541 174.819Z" fill="#501DBC"/>
<path d="M378.94 174.819H356.907C356.645 174.819 356.426 174.6 356.426 174.338C356.426 174.076 356.645 173.857 356.907 173.857H378.94C379.202 173.857 379.421 174.076 379.421 174.338C379.421 174.6 379.202 174.819 378.94 174.819Z" fill="#501DBC"/>
<path d="M306.612 186.994H281.585C281.323 186.994 281.104 186.775 281.104 186.513C281.104 186.251 281.323 186.032 281.585 186.032H306.612C306.874 186.032 307.093 186.251 307.093 186.513C307.093 186.775 306.874 186.994 306.612 186.994Z" fill="#501DBC"/>
<path d="M378.94 186.994H320.296C320.033 186.994 319.815 186.775 319.815 186.513C319.815 186.251 320.033 186.032 320.296 186.032H378.94C379.203 186.032 379.421 186.251 379.421 186.513C379.421 186.775 379.203 186.994 378.94 186.994Z" fill="#501DBC"/>
<path d="M443.421 155.759C446.632 155.759 449.235 153.156 449.235 149.945C449.235 146.734 446.632 144.131 443.421 144.131C440.21 144.131 437.607 146.734 437.607 149.945C437.607 153.156 440.21 155.759 443.421 155.759Z" fill="#501DBC"/>
</svg>
