<svg width="255" height="251" viewBox="0 0 255 251" fill="none" xmlns="http://www.w3.org/2000/svg">
<path d="M160.443 188.449C138.039 188.449 116.588 180.531 99.4031 165.767C60.1317 132.032 55.6271 72.6387 89.362 33.3674C123.097 -5.92385 182.49 -10.4284 221.761 23.3064C240.792 39.6381 252.301 62.419 254.206 87.4225C256.112 112.426 248.154 136.675 231.803 155.706C215.471 174.736 192.69 186.246 167.686 188.151C165.265 188.349 162.844 188.449 160.443 188.449ZM98.3513 41.0867C68.8631 75.397 72.8121 127.309 107.122 156.777C123.752 171.065 144.945 178.011 166.793 176.344C188.642 174.677 208.545 164.616 222.833 147.987C237.121 131.357 244.066 110.164 242.399 88.3155C240.732 66.4672 230.671 46.5636 214.042 32.2759C179.732 2.82737 127.82 6.75649 98.3513 41.0867Z" fill="#343C4D"/>
<path d="M7.54492 250.68C5.85818 250.68 4.17144 250.025 2.88157 248.735C0.301846 246.156 0.301846 241.969 2.88157 239.389L90.0763 152.194C92.656 149.614 96.8431 149.614 99.4229 152.194C102.003 154.774 102.003 158.961 99.4229 161.541L12.2083 248.755C10.9184 250.045 9.23167 250.68 7.54492 250.68Z" fill="#343C4D"/>
</svg>
