<svg width="105" height="29" viewBox="0 0 105 29" fill="none" xmlns="http://www.w3.org/2000/svg">
<path d="M2 1L9.80477 10.273C11.0035 11.6972 13.1965 11.6972 14.3952 10.273L19.9048 3.72701C21.1035 2.30276 23.2965 2.30276 24.4952 3.727L30.0048 10.273C31.2035 11.6972 33.3965 11.6972 34.5952 10.273L40.0933 3.7406C41.2959 2.3118 43.4977 2.31719 44.6932 3.75187L50.1068 10.2481C51.3023 11.6828 53.5041 11.6882 54.7067 10.2594L60.2048 3.72701C61.4035 2.30277 63.5965 2.30276 64.7952 3.72701L70.3048 10.273C71.5035 11.6972 73.6965 11.6972 74.8952 10.273L80.4048 3.72701C81.6035 2.30277 83.7965 2.30276 84.9952 3.72701L90.5048 10.273C91.7035 11.6972 93.8965 11.6972 95.0952 10.273L102.9 1M2 16.9L9.80477 26.173C11.0035 27.5972 13.1965 27.5972 14.3952 26.173L19.9048 19.627C21.1035 18.2028 23.2965 18.2028 24.4952 19.627L30.0048 26.173C31.2035 27.5972 33.3965 27.5972 34.5952 26.173L40.0933 19.6406C41.2959 18.2118 43.4977 18.2172 44.6932 19.6519L50.1068 26.1481C51.3023 27.5828 53.5041 27.5882 54.7067 26.1594L60.2048 19.627C61.4035 18.2028 63.5965 18.2028 64.7952 19.627L70.3048 26.173C71.5035 27.5972 73.6965 27.5972 74.8952 26.173L80.4048 19.627C81.6035 18.2028 83.7965 18.2028 84.9952 19.627L90.5048 26.173C91.7035 27.5972 93.8965 27.5972 95.0952 26.173L102.9 16.9" stroke="#E53170" stroke-width="3" stroke-miterlimit="10"/>
</svg>
