<svg width="705" height="596" viewBox="0 0 705 596" fill="none" xmlns="http://www.w3.org/2000/svg">
<g clip-path="url(#clip0_72_1629)">
<path d="M-125.311 -46L-125.311 716M-100.37 -46L-100.37 716M-75.4294 -46L-75.4294 716M-50.4885 -46L-50.4885 716M-25.5475 -46L-25.5476 716M-0.606608 -46L-0.606645 716M24.3343 -46L24.3343 716M49.2753 -46L49.2752 716M74.2162 -46L74.2162 716M99.1571 -46L99.1571 716M124.098 -46L124.098 716M149.039 -46L149.039 716M173.98 -46L173.98 716M198.921 -46L198.921 716M223.862 -46L223.862 716M248.803 -46L248.803 716M273.743 -46L273.743 716M298.684 -46V716M323.625 -46V716M348.566 -46V716M373.507 -46V716M398.448 -46V716M423.389 -46V716M448.33 -46V716M473.271 -46V716M498.212 -46V716M523.153 -46V716M548.093 -46V716M573.034 -46V716M597.975 -46V716M622.916 -46V716M647.857 -46V716M672.798 -46V716M697.739 -46V716M722.68 -46L722.68 716M747.621 -46L747.621 716M772.562 -46L772.562 716M797.503 -46L797.502 716M822.443 -46L822.443 716M847.384 -46L847.384 716M872.325 -46L872.325 716M897.266 -46L897.266 716M921 -31.9038L-141 -31.9039M921 -6.93336L-141 -6.93345M921 18.0371L-141 18.037M921 43.0075L-141 43.0074M921 67.9779L-141 67.9778M921 92.9483L-141 92.9482M921 117.919L-141 117.919M921 142.889L-141 142.889M921 167.86L-141 167.86M921 192.83L-141 192.83M921 217.8L-141 217.8M921 242.771L-141 242.771M921 267.741L-141 267.741M921 292.712L-141 292.712M921 317.682L-141 317.682M921 342.652L-141 342.652M921 367.623L-141 367.623M921 392.593L-141 392.593M921 417.564L-141 417.564M921 442.534L-141 442.534M921 467.504L-141 467.504M921 492.475L-141 492.475M921 517.445L-141 517.445M921 542.416L-141 542.416M921 567.386L-141 567.386M921 592.356L-141 592.356M921 617.327L-141 617.327M921 642.297L-141 642.297M921 667.268L-141 667.268M921 692.238L-141 692.238" stroke="url(#paint0_linear_72_1629)"/>
</g>
<defs>
<linearGradient id="paint0_linear_72_1629" x1="390" y1="-46" x2="390" y2="716" gradientUnits="userSpaceOnUse">
<stop stop-color="white"/>
<stop offset="1" stop-color="white" stop-opacity="0"/>
</linearGradient>
<clipPath id="clip0_72_1629">
<rect width="705" height="596" fill="white"/>
</clipPath>
</defs>
</svg>
