<svg width="125" height="128" viewBox="0 0 125 128" fill="none" xmlns="http://www.w3.org/2000/svg">
<path d="M3.62766 97.2833C11.7062 105.059 38.3366 90.4971 63.1085 64.7593C87.8803 39.0215 101.413 11.8537 93.3345 4.07843C85.256 -3.69687 58.6255 10.8646 33.8536 36.6024C9.08179 62.3403 -4.45084 89.508 3.62766 97.2833Z" stroke="white" stroke-opacity="0.5" stroke-width="2" stroke-miterlimit="10"/>
<path d="M17.5879 110.72C25.6664 118.495 52.2968 103.933 77.0687 78.1956C101.841 52.4578 115.373 25.29 107.295 17.5147C99.2162 9.73939 72.5857 24.3009 47.8138 50.0387C23.042 75.7765 9.50937 102.944 17.5879 110.72Z" stroke="white" stroke-opacity="0.5" stroke-width="2" stroke-miterlimit="10"/>
<path d="M31.5481 124.156C39.6266 131.931 66.257 117.37 91.0289 91.6318C115.801 65.894 129.333 38.7263 121.255 30.951C113.176 23.1756 86.5459 37.7371 61.774 63.475C37.0022 89.2128 23.4696 116.381 31.5481 124.156Z" stroke="white" stroke-opacity="0.5" stroke-width="2" stroke-miterlimit="10"/>
</svg>
