<svg width="681" height="700" viewBox="0 0 681 700" fill="none" xmlns="http://www.w3.org/2000/svg">
<path d="M62 55L197 189V55H62Z" fill="#00B3FF"/>
<path d="M196.644 196.149L392.872 392.377V196.149H196.644Z" fill="#0047FF"/>
<path d="M0.494507 392.377L196.644 588.526V392.377H0.494507Z" fill="#00B3FF"/>
<path d="M6.76822 518.122L80.8989 592.253V518.122H6.76822Z" fill="#0047FF"/>
<path d="M514.89 625.869L589.021 700V625.869H514.89Z" fill="#0047FF"/>
<path d="M0.494507 196.149L196.644 392.377V196.149H0.494507Z" fill="#0047FF"/>
<path d="M566 116V44L601 80.0103L566 116Z" fill="#00B2FF"/>
<path d="M589.021 196.149L392.872 0V196.149H589.021Z" fill="#0047FF"/>
<path d="M589.021 588.526L392.872 392.377V588.526H589.021Z" fill="#00B3FF"/>
<path d="M392.872 588.526V392.377L196.644 196.149V392.377L392.872 588.526Z" fill="#00B2FF"/>
<path d="M589.021 588.526V392.377L392.872 196.149V392.377L589.021 588.526Z" fill="#0047FF"/>
<path d="M265.224 490.848L217.812 443.437V490.848H265.224Z" fill="#0047FF"/>
<path d="M604.845 217.598L453 218.246L529.246 293.845L604.845 217.598Z" fill="#00B2FF"/>
<path fill-rule="evenodd" clip-rule="evenodd" d="M681 167.599L543 305.725L681 443.599V441.5V167.599Z" fill="#0047FF"/>
</svg>
