<svg width="228" height="336" viewBox="0 0 228 336" fill="none" xmlns="http://www.w3.org/2000/svg">
<path d="M-5.06122 155.061L85.5732 245.695L-5.06122 245.695L-5.06122 155.061Z" fill="#00B3FF"/>
<path d="M85.5732 64.4632L176.171 155.061L85.5732 155.061L85.5732 64.4632Z" fill="#00B3FF"/>
<path d="M143.652 62.7418L177.892 96.9814L143.652 96.9814L143.652 62.7418Z" fill="#00B3FF"/>
<path d="M193.419 302.053L227.659 336.293L193.419 336.293L193.419 302.053Z" fill="#0047FF"/>
<path d="M-5.06122 64.4632L85.5732 155.061L-5.06122 155.061L-5.06122 64.4632Z" fill="#0047FF"/>
<path d="M31.4742 64.4629L-96.6591 64.4629L-32.5741 0.377942L31.4742 64.4629Z" fill="#0047FF"/>
<path d="M176.171 336.293L85.5732 245.695L176.171 245.695L176.171 336.293Z" fill="#00B3FF"/>
<path d="M176.171 245.695L85.5732 245.695L-5.06122 155.061L85.5732 155.061L176.171 245.695Z" fill="#287FEA"/>
<path d="M176.171 336.293L85.5732 336.293L-5.06122 245.695L85.5732 245.695L176.171 336.293Z" fill="#0047FF"/>
<path d="M131.055 186.737L109.156 164.839L131.055 164.839L131.055 186.737Z" fill="#0047FF"/>
</svg>
