<svg width="1224" height="668" viewBox="0 0 1224 668" fill="none" xmlns="http://www.w3.org/2000/svg">
<path fill-rule="evenodd" clip-rule="evenodd" d="M0 50C0 22.3858 22.3858 0 50 0H636C663.614 0 686 22.3858 686 50V86C686 108.091 703.909 126 726 126H1174C1201.61 126 1224 148.386 1224 176V574C1224 601.614 1201.61 624 1174 624H1150.08C1136.81 624 1124.78 631.004 1115.2 640.19C1097.24 657.415 1072.85 668 1046 668C1019.15 668 994.764 657.415 976.8 640.19C967.22 631.004 955.189 624 941.917 624H298C281.431 624 268 610.569 268 594V566C268 543.909 250.091 526 228 526H50C22.3858 526 0 503.614 0 476V50Z" fill="#D9D9D9"/>
</svg>
