<svg width="98" height="84" viewBox="0 0 98 84" fill="none" xmlns="http://www.w3.org/2000/svg">
<path d="M32.8921 3.14838C33.7651 3.14838 34.4728 2.44359 34.4728 1.57419C34.4728 0.704788 33.7651 0 32.8921 0C32.0191 0 31.3115 0.704788 31.3115 1.57419C31.3115 2.44359 32.0191 3.14838 32.8921 3.14838Z" fill="#B5B5B5"/>
<path d="M32.8921 16.5665C33.7651 16.5665 34.4728 15.8617 34.4728 14.9923C34.4728 14.1229 33.7651 13.4181 32.8921 13.4181C32.0191 13.4181 31.3115 14.1229 31.3115 14.9923C31.3115 15.8617 32.0191 16.5665 32.8921 16.5665Z" fill="#B5B5B5"/>
<path d="M32.8921 30.0595C33.7651 30.0595 34.4728 29.3547 34.4728 28.4853C34.4728 27.6159 33.7651 26.9111 32.8921 26.9111C32.0191 26.9111 31.3115 27.6159 31.3115 28.4853C31.3115 29.3547 32.0191 30.0595 32.8921 30.0595Z" fill="#B5B5B5"/>
<path d="M32.8921 43.5526C33.7651 43.5526 34.4728 42.8478 34.4728 41.9784C34.4728 41.109 33.7651 40.4042 32.8921 40.4042C32.0191 40.4042 31.3115 41.109 31.3115 41.9784C31.3115 42.8478 32.0191 43.5526 32.8921 43.5526Z" fill="#B5B5B5"/>
<path d="M32.8921 56.5958C33.7651 56.5958 34.4728 55.891 34.4728 55.0216C34.4728 54.1522 33.7651 53.4475 32.8921 53.4475C32.0191 53.4475 31.3115 54.1522 31.3115 55.0216C31.3115 55.891 32.0191 56.5958 32.8921 56.5958Z" fill="#B5B5B5"/>
<path d="M32.8921 70.0889C33.7651 70.0889 34.4728 69.3841 34.4728 68.5147C34.4728 67.6453 33.7651 66.9405 32.8921 66.9405C32.0191 66.9405 31.3115 67.6453 31.3115 68.5147C31.3115 69.3841 32.0191 70.0889 32.8921 70.0889Z" fill="#B5B5B5"/>
<path d="M32.8921 83.507C33.7651 83.507 34.4728 82.8022 34.4728 81.9328C34.4728 81.0634 33.7651 80.3586 32.8921 80.3586C32.0191 80.3586 31.3115 81.0634 31.3115 81.9328C31.3115 82.8022 32.0191 83.507 32.8921 83.507Z" fill="#B5B5B5"/>
<path d="M32.8921 97C33.7651 97 34.4728 96.2952 34.4728 95.4258C34.4728 94.5564 33.7651 93.8516 32.8921 93.8516C32.0191 93.8516 31.3115 94.5564 31.3115 95.4258C31.3115 96.2952 32.0191 97 32.8921 97Z" fill="#B5B5B5"/>
<path d="M17.0857 3.14838C17.9586 3.14838 18.6663 2.44359 18.6663 1.57419C18.6663 0.704788 17.9586 0 17.0857 0C16.2127 0 15.505 0.704788 15.505 1.57419C15.505 2.44359 16.2127 3.14838 17.0857 3.14838Z" fill="#B5B5B5"/>
<path d="M17.0857 16.5665C17.9586 16.5665 18.6663 15.8617 18.6663 14.9923C18.6663 14.1229 17.9586 13.4181 17.0857 13.4181C16.2127 13.4181 15.505 14.1229 15.505 14.9923C15.505 15.8617 16.2127 16.5665 17.0857 16.5665Z" fill="#B5B5B5"/>
<path d="M17.0857 30.0595C17.9586 30.0595 18.6663 29.3547 18.6663 28.4853C18.6663 27.6159 17.9586 26.9111 17.0857 26.9111C16.2127 26.9111 15.505 27.6159 15.505 28.4853C15.505 29.3547 16.2127 30.0595 17.0857 30.0595Z" fill="#B5B5B5"/>
<path d="M17.0857 43.5526C17.9586 43.5526 18.6663 42.8478 18.6663 41.9784C18.6663 41.109 17.9586 40.4042 17.0857 40.4042C16.2127 40.4042 15.505 41.109 15.505 41.9784C15.505 42.8478 16.2127 43.5526 17.0857 43.5526Z" fill="#B5B5B5"/>
<path d="M17.0857 56.5958C17.9586 56.5958 18.6663 55.891 18.6663 55.0216C18.6663 54.1522 17.9586 53.4475 17.0857 53.4475C16.2127 53.4475 15.505 54.1522 15.505 55.0216C15.505 55.891 16.2127 56.5958 17.0857 56.5958Z" fill="#B5B5B5"/>
<path d="M17.0857 70.0889C17.9586 70.0889 18.6663 69.3841 18.6663 68.5147C18.6663 67.6453 17.9586 66.9405 17.0857 66.9405C16.2127 66.9405 15.505 67.6453 15.505 68.5147C15.505 69.3841 16.2127 70.0889 17.0857 70.0889Z" fill="#B5B5B5"/>
<path d="M17.0857 83.507C17.9586 83.507 18.6663 82.8022 18.6663 81.9328C18.6663 81.0634 17.9586 80.3586 17.0857 80.3586C16.2127 80.3586 15.505 81.0634 15.505 81.9328C15.505 82.8022 16.2127 83.507 17.0857 83.507Z" fill="#B5B5B5"/>
<path d="M17.0857 97C17.9586 97 18.6663 96.2952 18.6663 95.4258C18.6663 94.5564 17.9586 93.8516 17.0857 93.8516C16.2127 93.8516 15.505 94.5564 15.505 95.4258C15.505 96.2952 16.2127 97 17.0857 97Z" fill="#B5B5B5"/>
<path d="M64.6557 3.14838C65.5287 3.14838 66.2364 2.44359 66.2364 1.57419C66.2364 0.704788 65.5287 0 64.6557 0C63.7827 0 63.0751 0.704788 63.0751 1.57419C63.0751 2.44359 63.7827 3.14838 64.6557 3.14838Z" fill="#B5B5B5"/>
<path d="M64.6557 16.5665C65.5287 16.5665 66.2364 15.8617 66.2364 14.9923C66.2364 14.1229 65.5287 13.4181 64.6557 13.4181C63.7827 13.4181 63.0751 14.1229 63.0751 14.9923C63.0751 15.8617 63.7827 16.5665 64.6557 16.5665Z" fill="#B5B5B5"/>
<path d="M64.6557 30.0595C65.5287 30.0595 66.2364 29.3547 66.2364 28.4853C66.2364 27.6159 65.5287 26.9111 64.6557 26.9111C63.7827 26.9111 63.0751 27.6159 63.0751 28.4853C63.0751 29.3547 63.7827 30.0595 64.6557 30.0595Z" fill="#B5B5B5"/>
<path d="M64.6557 43.5526C65.5287 43.5526 66.2364 42.8478 66.2364 41.9784C66.2364 41.109 65.5287 40.4042 64.6557 40.4042C63.7827 40.4042 63.0751 41.109 63.0751 41.9784C63.0751 42.8478 63.7827 43.5526 64.6557 43.5526Z" fill="#B5B5B5"/>
<path d="M64.6557 56.5958C65.5287 56.5958 66.2364 55.891 66.2364 55.0216C66.2364 54.1522 65.5287 53.4475 64.6557 53.4475C63.7827 53.4475 63.0751 54.1522 63.0751 55.0216C63.0751 55.891 63.7827 56.5958 64.6557 56.5958Z" fill="#B5B5B5"/>
<path d="M64.6557 70.0889C65.5287 70.0889 66.2364 69.3841 66.2364 68.5147C66.2364 67.6453 65.5287 66.9405 64.6557 66.9405C63.7827 66.9405 63.0751 67.6453 63.0751 68.5147C63.0751 69.3841 63.7827 70.0889 64.6557 70.0889Z" fill="#B5B5B5"/>
<path d="M64.6557 83.507C65.5287 83.507 66.2364 82.8022 66.2364 81.9328C66.2364 81.0634 65.5287 80.3586 64.6557 80.3586C63.7827 80.3586 63.0751 81.0634 63.0751 81.9328C63.0751 82.8022 63.7827 83.507 64.6557 83.507Z" fill="#B5B5B5"/>
<path d="M64.6557 97C65.5287 97 66.2364 96.2952 66.2364 95.4258C66.2364 94.5564 65.5287 93.8516 64.6557 93.8516C63.7827 93.8516 63.0751 94.5564 63.0751 95.4258C63.0751 96.2952 63.7827 97 64.6557 97Z" fill="#B5B5B5"/>
<path d="M48.8493 3.14838C49.7222 3.14838 50.4299 2.44359 50.4299 1.57419C50.4299 0.704788 49.7222 0 48.8493 0C47.9763 0 47.2686 0.704788 47.2686 1.57419C47.2686 2.44359 47.9763 3.14838 48.8493 3.14838Z" fill="#B5B5B5"/>
<path d="M48.8493 16.5665C49.7222 16.5665 50.4299 15.8617 50.4299 14.9923C50.4299 14.1229 49.7222 13.4181 48.8493 13.4181C47.9763 13.4181 47.2686 14.1229 47.2686 14.9923C47.2686 15.8617 47.9763 16.5665 48.8493 16.5665Z" fill="#B5B5B5"/>
<path d="M48.8493 30.0595C49.7222 30.0595 50.4299 29.3547 50.4299 28.4853C50.4299 27.6159 49.7222 26.9111 48.8493 26.9111C47.9763 26.9111 47.2686 27.6159 47.2686 28.4853C47.2686 29.3547 47.9763 30.0595 48.8493 30.0595Z" fill="#B5B5B5"/>
<path d="M48.8493 43.5526C49.7222 43.5526 50.4299 42.8478 50.4299 41.9784C50.4299 41.109 49.7222 40.4042 48.8493 40.4042C47.9763 40.4042 47.2686 41.109 47.2686 41.9784C47.2686 42.8478 47.9763 43.5526 48.8493 43.5526Z" fill="#B5B5B5"/>
<path d="M48.8493 56.5958C49.7222 56.5958 50.4299 55.891 50.4299 55.0216C50.4299 54.1522 49.7222 53.4475 48.8493 53.4475C47.9763 53.4475 47.2686 54.1522 47.2686 55.0216C47.2686 55.891 47.9763 56.5958 48.8493 56.5958Z" fill="#B5B5B5"/>
<path d="M48.8493 70.0889C49.7222 70.0889 50.4299 69.3841 50.4299 68.5147C50.4299 67.6453 49.7222 66.9405 48.8493 66.9405C47.9763 66.9405 47.2686 67.6453 47.2686 68.5147C47.2686 69.3841 47.9763 70.0889 48.8493 70.0889Z" fill="#B5B5B5"/>
<path d="M48.8493 83.507C49.7222 83.507 50.4299 82.8022 50.4299 81.9328C50.4299 81.0634 49.7222 80.3586 48.8493 80.3586C47.9763 80.3586 47.2686 81.0634 47.2686 81.9328C47.2686 82.8022 47.9763 83.507 48.8493 83.507Z" fill="#B5B5B5"/>
<path d="M48.8493 97C49.7222 97 50.4299 96.2952 50.4299 95.4258C50.4299 94.5564 49.7222 93.8516 48.8493 93.8516C47.9763 93.8516 47.2686 94.5564 47.2686 95.4258C47.2686 96.2952 47.9763 97 48.8493 97Z" fill="#B5B5B5"/>
<path d="M96.4193 3.14838C97.2923 3.14838 97.9999 2.44359 97.9999 1.57419C97.9999 0.704788 97.2923 0 96.4193 0C95.5463 0 94.8386 0.704788 94.8386 1.57419C94.8386 2.44359 95.5463 3.14838 96.4193 3.14838Z" fill="#B5B5B5"/>
<path d="M96.4193 16.5665C97.2923 16.5665 97.9999 15.8617 97.9999 14.9923C97.9999 14.1229 97.2923 13.4181 96.4193 13.4181C95.5463 13.4181 94.8386 14.1229 94.8386 14.9923C94.8386 15.8617 95.5463 16.5665 96.4193 16.5665Z" fill="#B5B5B5"/>
<path d="M96.4193 30.0595C97.2923 30.0595 97.9999 29.3547 97.9999 28.4853C97.9999 27.6159 97.2923 26.9111 96.4193 26.9111C95.5463 26.9111 94.8386 27.6159 94.8386 28.4853C94.8386 29.3547 95.5463 30.0595 96.4193 30.0595Z" fill="#B5B5B5"/>
<path d="M96.4193 43.5526C97.2923 43.5526 97.9999 42.8478 97.9999 41.9784C97.9999 41.109 97.2923 40.4042 96.4193 40.4042C95.5463 40.4042 94.8386 41.109 94.8386 41.9784C94.8386 42.8478 95.5463 43.5526 96.4193 43.5526Z" fill="#B5B5B5"/>
<path d="M96.4193 56.5958C97.2923 56.5958 97.9999 55.891 97.9999 55.0216C97.9999 54.1522 97.2923 53.4475 96.4193 53.4475C95.5463 53.4475 94.8386 54.1522 94.8386 55.0216C94.8386 55.891 95.5463 56.5958 96.4193 56.5958Z" fill="#B5B5B5"/>
<path d="M96.4193 70.0889C97.2923 70.0889 97.9999 69.3841 97.9999 68.5147C97.9999 67.6453 97.2923 66.9405 96.4193 66.9405C95.5463 66.9405 94.8386 67.6453 94.8386 68.5147C94.8386 69.3841 95.5463 70.0889 96.4193 70.0889Z" fill="#B5B5B5"/>
<path d="M96.4193 83.507C97.2923 83.507 97.9999 82.8022 97.9999 81.9328C97.9999 81.0634 97.2923 80.3586 96.4193 80.3586C95.5463 80.3586 94.8386 81.0634 94.8386 81.9328C94.8386 82.8022 95.5463 83.507 96.4193 83.507Z" fill="#B5B5B5"/>
<path d="M96.4193 97C97.2923 97 97.9999 96.2952 97.9999 95.4258C97.9999 94.5564 97.2923 93.8516 96.4193 93.8516C95.5463 93.8516 94.8386 94.5564 94.8386 95.4258C94.8386 96.2952 95.5463 97 96.4193 97Z" fill="#B5B5B5"/>
<path d="M80.6128 3.14838C81.4858 3.14838 82.1935 2.44359 82.1935 1.57419C82.1935 0.704788 81.4858 0 80.6128 0C79.7399 0 79.0322 0.704788 79.0322 1.57419C79.0322 2.44359 79.7399 3.14838 80.6128 3.14838Z" fill="#B5B5B5"/>
<path d="M80.6128 16.5665C81.4858 16.5665 82.1935 15.8617 82.1935 14.9923C82.1935 14.1229 81.4858 13.4181 80.6128 13.4181C79.7399 13.4181 79.0322 14.1229 79.0322 14.9923C79.0322 15.8617 79.7399 16.5665 80.6128 16.5665Z" fill="#B5B5B5"/>
<path d="M80.6128 30.0595C81.4858 30.0595 82.1935 29.3547 82.1935 28.4853C82.1935 27.6159 81.4858 26.9111 80.6128 26.9111C79.7399 26.9111 79.0322 27.6159 79.0322 28.4853C79.0322 29.3547 79.7399 30.0595 80.6128 30.0595Z" fill="#B5B5B5"/>
<path d="M80.6128 43.5526C81.4858 43.5526 82.1935 42.8478 82.1935 41.9784C82.1935 41.109 81.4858 40.4042 80.6128 40.4042C79.7399 40.4042 79.0322 41.109 79.0322 41.9784C79.0322 42.8478 79.7399 43.5526 80.6128 43.5526Z" fill="#B5B5B5"/>
<path d="M80.6128 56.5958C81.4858 56.5958 82.1935 55.891 82.1935 55.0216C82.1935 54.1522 81.4858 53.4475 80.6128 53.4475C79.7399 53.4475 79.0322 54.1522 79.0322 55.0216C79.0322 55.891 79.7399 56.5958 80.6128 56.5958Z" fill="#B5B5B5"/>
<path d="M80.6128 70.0889C81.4858 70.0889 82.1935 69.3841 82.1935 68.5147C82.1935 67.6453 81.4858 66.9405 80.6128 66.9405C79.7399 66.9405 79.0322 67.6453 79.0322 68.5147C79.0322 69.3841 79.7399 70.0889 80.6128 70.0889Z" fill="#B5B5B5"/>
<path d="M80.6128 83.507C81.4858 83.507 82.1935 82.8022 82.1935 81.9328C82.1935 81.0634 81.4858 80.3586 80.6128 80.3586C79.7399 80.3586 79.0322 81.0634 79.0322 81.9328C79.0322 82.8022 79.7399 83.507 80.6128 83.507Z" fill="#B5B5B5"/>
<path d="M80.6128 97C81.4858 97 82.1935 96.2952 82.1935 95.4258C82.1935 94.5564 81.4858 93.8516 80.6128 93.8516C79.7399 93.8516 79.0322 94.5564 79.0322 95.4258C79.0322 96.2952 79.7399 97 80.6128 97Z" fill="#B5B5B5"/>
<path d="M1.58058 3.14838C2.45355 3.14838 3.16123 2.44359 3.16123 1.57419C3.16123 0.704788 2.45355 0 1.58058 0C0.707618 0 -6.10352e-05 0.704788 -6.10352e-05 1.57419C-6.10352e-05 2.44359 0.707618 3.14838 1.58058 3.14838Z" fill="#B5B5B5"/>
<path d="M1.58058 16.5665C2.45355 16.5665 3.16123 15.8617 3.16123 14.9923C3.16123 14.1229 2.45355 13.4181 1.58058 13.4181C0.707618 13.4181 -6.10352e-05 14.1229 -6.10352e-05 14.9923C-6.10352e-05 15.8617 0.707618 16.5665 1.58058 16.5665Z" fill="#B5B5B5"/>
<path d="M1.58058 30.0595C2.45355 30.0595 3.16123 29.3547 3.16123 28.4853C3.16123 27.6159 2.45355 26.9111 1.58058 26.9111C0.707618 26.9111 -6.10352e-05 27.6159 -6.10352e-05 28.4853C-6.10352e-05 29.3547 0.707618 30.0595 1.58058 30.0595Z" fill="#B5B5B5"/>
<path d="M1.58058 43.5526C2.45355 43.5526 3.16123 42.8478 3.16123 41.9784C3.16123 41.109 2.45355 40.4042 1.58058 40.4042C0.707618 40.4042 -6.10352e-05 41.109 -6.10352e-05 41.9784C-6.10352e-05 42.8478 0.707618 43.5526 1.58058 43.5526Z" fill="#B5B5B5"/>
<path d="M1.58058 56.5958C2.45355 56.5958 3.16123 55.891 3.16123 55.0216C3.16123 54.1522 2.45355 53.4475 1.58058 53.4475C0.707618 53.4475 -6.10352e-05 54.1522 -6.10352e-05 55.0216C-6.10352e-05 55.891 0.707618 56.5958 1.58058 56.5958Z" fill="#B5B5B5"/>
<path d="M1.58058 70.0889C2.45355 70.0889 3.16123 69.3841 3.16123 68.5147C3.16123 67.6453 2.45355 66.9405 1.58058 66.9405C0.707618 66.9405 -6.10352e-05 67.6453 -6.10352e-05 68.5147C-6.10352e-05 69.3841 0.707618 70.0889 1.58058 70.0889Z" fill="#B5B5B5"/>
<path d="M1.58058 83.507C2.45355 83.507 3.16123 82.8022 3.16123 81.9328C3.16123 81.0634 2.45355 80.3586 1.58058 80.3586C0.707618 80.3586 -6.10352e-05 81.0634 -6.10352e-05 81.9328C-6.10352e-05 82.8022 0.707618 83.507 1.58058 83.507Z" fill="#B5B5B5"/>
<path d="M1.58058 97C2.45355 97 3.16123 96.2952 3.16123 95.4258C3.16123 94.5564 2.45355 93.8516 1.58058 93.8516C0.707618 93.8516 -6.10352e-05 94.5564 -6.10352e-05 95.4258C-6.10352e-05 96.2952 0.707618 97 1.58058 97Z" fill="#B5B5B5"/>
</svg>
