<svg width="672" height="474" viewBox="0 0 672 474" fill="none" xmlns="http://www.w3.org/2000/svg">
<path d="M295.821 150.863C258.038 168.389 215.418 171.318 174.002 175.194C132.53 179.096 89.7137 184.669 54.2871 206.594C18.9169 228.492 -7.09484 271.05 3.00721 311.482C10.722 342.499 36.7536 364.921 59.6963 387.218C82.5827 409.543 105.091 437.766 102.177 469.606C99.6248 497.553 78.4582 519.488 63.9041 543.463C44.5856 575.274 36.3856 614.576 45.2984 650.746C54.2111 686.917 81.3712 719.005 116.921 730.101C153.384 741.525 193.729 730.436 226.57 710.906C259.41 691.376 286.765 664.034 316.012 639.38C367.582 595.967 425.778 560.447 488.055 534.574C527.765 518.066 569.542 505.198 605.371 481.359C641.201 457.521 671.177 419.704 671.883 376.641C672.717 327.591 636.568 286.108 599.182 254.24C561.878 222.401 519.489 192.623 499.456 147.792C490.369 127.417 486.532 105.18 481.178 83.5221C475.823 61.8645 468.441 39.9948 453.706 23.2565C438.971 6.51822 415.385 -4.03507 393.974 2.09476C357.82 12.5794 370.011 47.8189 363.357 74.8115C354.901 109.204 327.274 136.261 295.821 150.863Z" fill="#0A0B34"/>
</svg>
