<svg width="275" height="252" viewBox="0 0 275 252" fill="none" xmlns="http://www.w3.org/2000/svg">
<g style="mix-blend-mode:luminosity">
<path d="M275.467 96.1278L198.277 164.076L275.467 164.076L275.467 96.1278Z" fill="#00B3FF"/>
<path d="M198.277 164.076L121.057 232.052L198.277 232.052L198.277 164.076Z" fill="#00B3FF"/>
<path d="M121.057 96.1278L43.8674 164.076L121.057 164.076L121.057 96.1278Z" fill="#00B3FF"/>
<path d="M71.5733 94.8364L42.4011 120.516L71.5733 120.516L71.5733 94.8364Z" fill="#00B3FF"/>
<path d="M198.277 96.1278L121.057 164.076L198.277 164.076L198.277 96.1278Z" fill="#0047FF"/>
<path d="M166.297 96.1274L275.467 96.1274L220.866 48.0637L166.297 96.1274Z" fill="#0047FF"/>
<path d="M275.467 96.1274L275.467 2.28882e-05L220.866 48.0637L275.467 96.1274Z" fill="#287FEA"/>
<path d="M198.277 300L275.467 232.052L198.277 232.052L198.277 300Z" fill="#0047FF"/>
<path d="M43.8676 300L121.057 232.052L43.8676 232.052L43.8676 300Z" fill="#00B3FF"/>
<path d="M43.8676 232.052L121.057 232.052L198.277 164.076L121.057 164.076L43.8676 232.052Z" fill="#287FEA"/>
<path d="M43.8676 300L121.057 300L198.277 232.052L121.057 232.052L43.8676 300Z" fill="#0047FF"/>
<path d="M82.3062 187.833L100.964 171.409L82.3062 171.409L82.3062 187.833Z" fill="#0047FF"/>
</g>
</svg>
