<svg width="896" height="768" viewBox="0 0 896 768" fill="none" xmlns="http://www.w3.org/2000/svg">
<path d="M-455.932 767.284C-499.051 704.848 -470.3 617.071 -418.972 571.663C-373.007 530.964 -307.346 509.043 -218.334 504.697C-191.684 503.369 -164.623 503.522 -138.445 503.623C-94.5501 503.81 -49.0677 504.021 -4.99966 497.503C42.5703 490.405 128.916 467.834 172.845 396.019C196.506 357.356 204.292 309.545 211.701 263.334C221.458 203.106 231.49 140.928 277.852 101.359C326.259 60.0335 393.189 61.0632 458.001 62.0013C475.461 62.2737 493.625 62.5181 510.786 61.9212C511.402 61.8966 512.018 61.872 512.722 61.8439C672.331 55.4728 824.265 -46.0343 891.091 -191.116L895.941 -188.842C828.309 -41.8774 674.572 60.8472 512.94 67.2991C512.324 67.3237 511.708 67.3483 511.004 67.3764C493.666 67.9803 475.503 67.736 457.866 67.4706C394.111 66.4904 328.24 65.5065 281.28 105.54C236.453 143.815 226.98 202.357 216.941 264.359C209.377 311.104 201.609 359.356 177.367 398.923C132.277 472.547 44.1924 495.716 -4.34547 502.853C-48.762 509.473 -94.4203 509.269 -138.583 509.004C-164.761 508.904 -191.822 508.75 -218.208 510.068C-305.988 514.365 -370.523 535.8 -415.551 575.669C-465.176 619.598 -493.086 704.169 -451.649 764.205L-455.932 767.284Z" fill="#1D1E48"/>
</svg>
