<svg width="79" height="58" viewBox="0 0 79 58" fill="none" xmlns="http://www.w3.org/2000/svg">
<rect x="72.2041" y="57.3038" width="56.3758" height="6.59735" rx="3.29867" transform="rotate(-90 72.2041 57.3038)" fill="#DCDFEE"/>
<rect x="72.2041" y="57.3038" width="13.4435" height="6.59735" rx="3.29868" transform="rotate(-90 72.2041 57.3038)" fill="#0047FF"/>
<rect x="54.2432" y="57.3038" width="56.3758" height="6.59729" rx="3.29865" transform="rotate(-90 54.2432 57.3038)" fill="#DCDFEE"/>
<rect x="54.2432" y="57.3038" width="51.1719" height="6.59736" rx="3.29868" transform="rotate(-90 54.2432 57.3038)" fill="#0047FF"/>
<rect x="36.2822" y="57.3036" width="56.3758" height="6.59736" rx="3.29868" transform="rotate(-90 36.2822 57.3036)" fill="#DCDFEE"/>
<rect x="36.2822" y="57.3036" width="39.0294" height="6.59736" rx="3.29868" transform="rotate(-90 36.2822 57.3036)" fill="#0047FF"/>
<rect x="18.3223" y="57.3035" width="56.3758" height="6.59737" rx="3.29868" transform="rotate(-90 18.3223 57.3035)" fill="#DCDFEE"/>
<rect x="18.3223" y="57.3035" width="29.0552" height="6.59736" rx="3.29868" transform="rotate(-90 18.3223 57.3035)" fill="#0047FF"/>
<rect x="0.360352" y="57.3036" width="56.3758" height="6.59737" rx="3.29868" transform="rotate(-90 0.360352 57.3036)" fill="#DCDFEE"/>
<rect x="0.360352" y="57.3036" width="46.4016" height="6.59738" rx="3.29869" transform="rotate(-90 0.360352 57.3036)" fill="#0047FF"/>
</svg>
