<svg width="21" height="22" viewBox="0 0 21 22" fill="none" xmlns="http://www.w3.org/2000/svg">
<path d="M6.9209 6.62636C6.64853 6.62636 6.34893 6.49017 6.1855 6.24503L3.24383 2.10492C2.94422 1.69636 3.05318 1.12437 3.46175 0.851992C3.87031 0.552379 4.44229 0.661329 4.71467 1.06989L7.65634 5.21C7.95595 5.61857 7.84699 6.19056 7.43843 6.46293C7.30224 6.57188 7.11157 6.62636 6.9209 6.62636Z" fill="black"/>
<path d="M17.2441 21.0895C16.9718 21.0895 16.6722 20.9533 16.5087 20.7082L13.5671 16.5681C13.2675 16.1595 13.3764 15.5875 13.785 15.3151C14.1936 15.0155 14.7655 15.1245 15.0379 15.533L17.9795 19.6731C18.2792 20.0817 18.1702 20.6537 17.7617 20.9261C17.5982 21.035 17.4076 21.0895 17.2441 21.0895Z" fill="black"/>
<path d="M1.36449 18.4747C1.09211 18.4747 0.81975 18.3385 0.629087 18.0933C0.329474 17.6848 0.438438 17.1128 0.847001 16.8404L4.95987 13.8715C5.36843 13.5719 5.94041 13.6809 6.21279 14.0894C6.5124 14.498 6.40344 15.07 5.99487 15.3424L1.88201 18.3112C1.71858 18.4202 1.52791 18.4747 1.36449 18.4747Z" fill="black"/>
<path d="M15.7458 8.07013C15.4735 8.07013 15.2011 7.93394 15.0104 7.68881C14.7108 7.28024 14.8198 6.70825 15.2283 6.43588L19.3412 3.46698C19.7498 3.16737 20.3218 3.27632 20.5941 3.68488C20.8938 4.09345 20.7848 4.66543 20.3762 4.93781L16.2634 7.9067C16.1272 8.01566 15.9365 8.07013 15.7458 8.07013Z" fill="black"/>
</svg>
