<svg width="240" height="265" viewBox="0 0 240 265" fill="none" xmlns="http://www.w3.org/2000/svg">
<path d="M52.0778 251.762H32.957L39.8481 238.307L55.0467 239.642L52.0778 251.762Z" fill="white"/>
<path d="M52.0778 252.661H32.9571C32.6302 252.661 32.3578 252.498 32.1944 252.226C32.031 251.953 32.0037 251.626 32.1672 251.354L39.0583 237.899C39.2217 237.572 39.5758 237.381 39.9299 237.408L55.1284 238.743C55.4008 238.77 55.6187 238.906 55.7821 239.124C55.9456 239.342 56 239.615 55.9183 239.86L52.9494 252.008C52.8677 252.389 52.4864 252.661 52.0778 252.661ZM34.4279 250.864H51.3697L53.93 240.432L40.3929 239.233L34.4279 250.864Z" fill="black"/>
<path d="M38.0779 250.673L46.6305 243.946C47.6655 243.128 47.9651 241.712 47.3387 240.65C45.5955 237.681 40.8561 226.513 35.0273 222.591C33.4203 221.529 31.2685 221.91 30.0973 223.49L3.89475 258.518C2.69629 260.125 3.21381 262.44 5.01149 263.284C7.16325 264.292 10.5952 264.782 15.6886 262.603C23.9144 259.062 33.3113 253.887 36.253 252.253C36.7705 251.953 37.2335 251.599 37.6149 251.136C37.751 250.946 37.9145 250.782 38.0779 250.673Z" fill="white"/>
<path d="M9.09703 265C7.1904 265 5.71958 264.564 4.63007 264.074C3.54057 263.557 2.75068 262.603 2.45107 261.432C2.15145 260.234 2.39659 258.953 3.15924 257.946L29.3618 222.918C30.8326 220.957 33.5291 220.494 35.5175 221.829C40.393 225.097 44.3697 232.914 46.7394 237.599C47.2841 238.689 47.7744 239.615 48.1012 240.187C48.9456 241.658 48.5643 243.564 47.1752 244.654L38.6226 251.381C38.5136 251.463 38.4319 251.545 38.2957 251.708C37.8327 252.253 37.2879 252.689 36.6887 253.016C33.9377 254.541 24.3501 259.798 16.0426 263.393C13.2916 264.592 10.9764 265 9.09703 265ZM33.0389 222.864C32.1945 222.864 31.3501 223.245 30.8054 223.98L4.60283 259.008C4.16703 259.58 4.03085 260.288 4.19427 260.969C4.3577 261.623 4.7935 262.14 5.36549 262.413C7.98029 263.638 11.4122 263.393 15.3072 261.704C23.5329 258.136 33.0661 252.907 35.7898 251.409C36.2256 251.163 36.5797 250.864 36.9066 250.483C37.0428 250.319 37.2334 250.101 37.4786 249.911L46.0312 243.183C46.6849 242.665 46.9028 241.712 46.5215 241.031C46.1674 240.432 45.7043 239.506 45.1051 238.362C42.8171 233.84 38.9494 226.268 34.4824 223.272C34.0739 223.027 33.5564 222.864 33.0389 222.864Z" fill="black"/>
<path d="M3.43156 261.16C3.43156 261.16 3.40432 261.187 3.37709 261.16C3.13195 261.078 2.88681 260.969 2.64167 260.86C0.843993 260.016 0.299241 257.7 1.52493 256.093L27.7275 221.066C28.8987 219.513 31.0777 219.105 32.6575 220.167C32.9571 220.358 33.2567 220.576 33.5291 220.793C33.5563 220.793 33.5563 220.821 33.5291 220.848L3.43156 261.16Z" fill="white"/>
<path d="M3.40439 262.058C3.29544 262.058 3.18649 262.031 3.10478 262.004C2.8324 261.895 2.56003 261.786 2.31489 261.677C1.22538 261.16 0.435495 260.206 0.135882 259.035C-0.163732 257.837 0.0814065 256.556 0.844058 255.549L27.0466 220.521C28.5174 218.56 31.2139 218.097 33.2023 219.432C33.5019 219.65 33.8015 219.867 34.1011 220.085C34.5097 220.385 34.5914 220.984 34.2918 221.393L4.16704 261.677C4.00362 261.922 3.704 262.058 3.40439 262.058ZM30.6964 220.494C29.8521 220.494 29.0077 220.875 28.463 221.611L2.28765 256.638C1.85185 257.21 1.71566 257.918 1.87909 258.599C2.04251 259.253 2.47831 259.77 3.0503 260.043C3.07754 260.043 3.07754 260.07 3.10478 260.07L32.3034 221.039C32.249 221.011 32.2217 220.984 32.1673 220.957C31.7315 220.63 31.2139 220.494 30.6964 220.494Z" fill="black"/>
<path d="M29.4434 250.973C28.9804 250.973 28.5718 250.619 28.5446 250.156L27.9454 243.292C27.8909 242.802 28.2722 242.366 28.7625 242.311C29.2528 242.284 29.6886 242.638 29.7431 243.128L30.3423 249.992C30.3968 250.483 30.0154 250.918 29.5252 250.973C29.4979 250.973 29.4707 250.973 29.4434 250.973Z" fill="black"/>
<path d="M24.5409 253.615C24.0778 253.615 23.6693 253.261 23.642 252.798L23.0428 245.934C22.9883 245.443 23.3696 245.008 23.8599 244.953C24.3502 244.926 24.786 245.28 24.8405 245.77L25.4397 252.634C25.4942 253.124 25.1128 253.56 24.6226 253.615C24.5953 253.615 24.5681 253.615 24.5409 253.615Z" fill="black"/>
<path d="M172.223 239.941L157.76 239.723C156.725 239.696 155.799 240.35 155.39 241.33C154.056 244.599 151.332 252.253 151.577 259.552C151.632 261.541 153.184 263.121 155.091 263.148L197.554 263.747C199.515 263.774 201.013 261.922 200.659 259.907C200.223 257.482 198.644 254.296 194.04 251.354C186.577 246.615 177.153 241.875 174.184 240.404C173.558 240.105 172.904 239.941 172.223 239.941Z" fill="white"/>
<path d="M197.581 264.673C197.554 264.673 197.554 264.673 197.527 264.673L155.064 264.074C152.667 264.047 150.76 262.085 150.651 259.607C150.406 252.062 153.266 244.109 154.519 241.031C155.064 239.696 156.344 238.852 157.733 238.852L172.196 239.07C173.013 239.07 173.803 239.288 174.538 239.642C177.317 241.004 186.904 245.852 194.476 250.646C199.488 253.832 201.068 257.373 201.504 259.798C201.721 261.05 201.395 262.331 200.578 263.284C199.842 264.156 198.753 264.673 197.581 264.673ZM157.706 240.622C157.052 240.622 156.48 241.031 156.208 241.685C155.009 244.653 152.231 252.307 152.476 259.525C152.53 261.023 153.674 262.222 155.091 262.249L197.554 262.848C198.208 262.848 198.78 262.576 199.216 262.058C199.679 261.513 199.869 260.778 199.76 260.043C199.243 257.101 197.091 254.35 193.55 252.117C186.06 247.377 176.527 242.556 173.776 241.194C173.285 240.949 172.741 240.813 172.196 240.813L157.706 240.622C157.733 240.622 157.733 240.622 157.706 240.622Z" fill="black"/>
<path d="M200.441 259.089C200.469 259.089 200.469 259.089 200.469 259.117C200.55 259.389 200.605 259.661 200.659 259.907C201.013 261.922 199.515 263.774 197.554 263.747L155.091 263.148C153.211 263.121 151.659 261.541 151.577 259.552C151.577 259.171 151.577 258.817 151.577 258.436C151.577 258.408 151.604 258.408 151.604 258.408L200.441 259.089Z" fill="white"/>
<path d="M197.582 264.673C197.554 264.673 197.554 264.673 197.527 264.673L155.064 264.074C152.667 264.047 150.76 262.085 150.651 259.607C150.651 259.226 150.624 258.844 150.651 258.463C150.651 258.218 150.76 257.945 150.951 257.782C151.114 257.618 151.387 257.51 151.632 257.51L200.442 258.218C200.85 258.218 201.231 258.517 201.34 258.926C201.422 259.226 201.477 259.498 201.531 259.797C201.749 261.05 201.422 262.331 200.605 263.311C199.842 264.156 198.753 264.673 197.582 264.673ZM152.476 259.307C152.476 259.389 152.476 259.443 152.476 259.525C152.531 261.023 153.675 262.222 155.091 262.249L197.554 262.848C198.208 262.848 198.78 262.576 199.216 262.058C199.679 261.513 199.87 260.778 199.761 260.043C199.761 260.015 199.761 259.988 199.733 259.961L152.476 259.307Z" fill="black"/>
<path d="M171.869 249.611C171.624 249.611 171.379 249.502 171.215 249.338C170.861 248.984 170.888 248.412 171.242 248.058L175.492 244.081C175.846 243.727 176.418 243.755 176.772 244.109C177.126 244.463 177.099 245.035 176.744 245.389L172.495 249.366C172.332 249.529 172.087 249.611 171.869 249.611Z" fill="black"/>
<path d="M176.744 252.144C176.499 252.144 176.281 252.062 176.091 251.871C175.737 251.517 175.764 250.945 176.118 250.591L180.367 246.451C180.721 246.097 181.293 246.124 181.647 246.478C182.001 246.832 181.974 247.404 181.62 247.758L177.371 251.899C177.207 252.062 176.962 252.144 176.744 252.144Z" fill="black"/>
<path d="M102.249 167.789C102.249 167.762 102.249 167.762 102.249 167.789C102.658 167.462 133.246 145.318 143.133 148.096C160.048 152.863 156.752 203.116 156.398 216.381C156.044 229.319 100.751 189.334 98.8447 185.929C96.9653 182.579 102.14 168.089 102.249 167.789Z" fill="#242730"/>
<path d="M155.826 213.031C155.88 213.085 155.935 213.14 155.989 213.167C166.585 222.618 171.133 230.19 170.371 242.311C169.635 254.159 152.612 266.716 98.0822 260.56C95.4402 260.397 92.8254 260.206 90.1833 260.043L45.8406 259.362V227.575C45.8406 227.575 67.2765 225.751 95.3585 227.085C96.4752 227.14 96.6931 225.505 95.5764 225.288C81.6852 222.645 63.7629 218.56 58.1792 213.875C46.4398 204.042 47.6927 189.089 50.2258 178.412C57.6344 147.306 103.938 179.774 104.238 179.855C104.32 179.91 110.503 183.505 118.647 188.408L155.826 213.031Z" fill="#242730"/>
<path d="M130.468 233.786C130.304 233.786 130.141 233.731 130.005 233.65C129.896 233.595 119.736 227.63 95.4674 227.085C94.9771 227.085 94.5685 226.649 94.5958 226.159C94.5958 225.669 95.0043 225.288 95.4946 225.288H95.5219C120.335 225.86 130.522 231.879 130.958 232.124C131.394 232.369 131.53 232.941 131.258 233.377C131.067 233.622 130.767 233.786 130.468 233.786Z" fill="#CADDFF"/>
<path d="M152.802 211.478C152.612 211.478 152.421 211.424 152.258 211.288C144.495 205.35 132.81 196.77 120.744 190.696C120.308 190.478 120.117 189.933 120.335 189.47C120.553 189.034 121.098 188.844 121.561 189.062C133.763 195.19 145.53 203.852 153.347 209.817C153.756 210.116 153.81 210.688 153.511 211.097C153.347 211.369 153.075 211.478 152.802 211.478Z" fill="#CADDFF"/>
<path d="M97.1293 61.971C102.522 56.7414 126.382 38.9553 169.69 45.8464C170.344 45.9553 171.025 45.8464 171.624 45.5468C174.593 43.9942 184.371 39.2549 190.091 41.4884C196.71 44.0759 210.901 52.2745 189.737 52.5741C189.247 52.5741 189.056 53.255 189.492 53.5001C191.181 54.4807 193.469 56.0332 193.06 56.9048C192.107 58.9476 181.103 57.2862 174.647 56.1967C168.165 55.0799 165.659 53.9904 149.344 59.22C139.293 62.434 125.783 74.0645 120.363 78.6676C120.336 78.6949 96.5301 62.543 97.1293 61.971Z" fill="white"/>
<path d="M120.39 79.8117L119.818 79.4303C96.3122 63.4964 96.2577 62.6247 96.2033 62.08L96.176 61.6442L96.5029 61.3174C99.036 58.8387 122.678 37.4573 169.826 44.9476C170.317 45.0293 170.78 44.9476 171.188 44.7297C175.002 42.7413 184.507 38.3288 190.418 40.644C190.908 40.8347 202.566 45.4651 201.776 49.7959C201.368 52.0293 197.963 53.2006 191.126 53.4185C193.55 54.9982 194.395 56.1967 193.904 57.259C193.223 58.757 190.391 59.7648 174.511 57.0683C174.021 56.9866 173.585 56.9049 173.122 56.8232C167.593 55.8426 164.515 55.2979 149.616 60.0644C139.974 63.1423 126.9 74.2552 121.316 79.0218L120.39 79.8117ZM98.3823 62.0528C100.97 64.2862 112.573 72.3213 120.281 77.5509C126.028 72.6754 139.157 61.5352 149.044 58.3757C164.379 53.4729 167.784 54.0722 173.422 55.0799C173.858 55.1617 174.321 55.2434 174.784 55.3251C188.539 57.6675 191.48 56.9866 192.107 56.6325C191.889 56.3329 191.208 55.5975 189.002 54.2901C188.457 53.9632 188.185 53.3368 188.348 52.7103C188.511 52.0838 189.056 51.6753 189.683 51.6753C199.107 51.5391 199.897 49.8231 199.951 49.4962C200.224 47.9709 195.348 44.539 189.71 42.3328C184.344 40.2355 174.784 44.8659 171.978 46.3367C171.216 46.7453 170.344 46.8814 169.5 46.7453C125.892 39.7997 102.931 57.9399 98.3823 62.0528Z" fill="black"/>
<path d="M160.075 69.4614C160.075 69.4614 179.469 79.8389 188.348 78.9673C200.823 77.7144 214.632 39.6908 215.586 37.076C216.539 34.4611 219.235 19.9707 223.103 15.7489C226.018 12.5349 228.769 6.10684 229.913 3.16518C230.376 1.99397 231.656 1.28578 232.854 1.69435C233.916 2.04844 234.706 3.02899 233.644 5.6438C232.418 8.66717 230.948 12.3715 229.94 14.959C229.613 15.7762 230.512 16.5116 231.22 16.0213C232.827 14.8501 234.87 13.7878 236.204 14.5232C238.71 15.9396 240.045 25.391 236.014 32.0098C231.983 38.6557 227.543 37.0759 226.181 40.3172C224.846 43.5312 213.652 85.3409 209.049 92.5589C202.43 102.964 159.749 104.135 152.83 103.944C145.857 103.726 160.075 69.4614 160.075 69.4614Z" fill="white"/>
<path d="M154.628 104.87C153.865 104.87 153.266 104.87 152.776 104.843C151.904 104.816 151.196 104.407 150.706 103.672C147.274 98.3604 158.005 72.0762 159.231 69.1073L159.612 68.1812L160.484 68.6442C160.675 68.7532 179.741 78.8856 188.239 78.0412C196.901 77.1696 207.905 55.2978 214.659 36.858L214.714 36.7218C214.932 36.1226 215.286 34.7335 215.722 32.9903C217.084 27.5427 219.372 18.4454 222.395 15.0952C225.255 11.9629 227.979 5.45307 229.041 2.81103C229.695 1.14953 231.492 0.277942 233.099 0.795456C233.862 1.04059 234.434 1.53086 234.734 2.18457C235.169 3.13788 235.088 4.36357 234.434 5.94335C233.235 8.91224 231.792 12.5621 230.757 15.1497C233.208 13.4065 235.169 12.9162 236.558 13.7061C237.811 14.4142 238.492 16.1847 238.846 17.5193C239.881 21.496 239.609 27.6517 236.695 32.4455C234.216 36.5039 231.547 37.7024 229.586 38.6012C228.115 39.2549 227.352 39.6362 226.944 40.644C226.562 41.5156 225.337 45.7919 223.757 51.2122C219.508 65.7571 213.107 87.765 209.757 93.0219C203.383 103.127 165.632 104.87 154.628 104.87ZM160.511 70.7143C156.017 81.7183 150.079 99.3955 152.204 102.691C152.367 102.936 152.531 103.018 152.803 103.045C163.289 103.345 202.294 101.466 208.231 92.0958C211.418 87.0568 218.064 64.3407 222.014 50.7491C223.73 44.8658 224.874 40.9709 225.282 39.9903C225.99 38.3016 227.379 37.6751 228.85 37.0214C230.702 36.2043 232.99 35.1693 235.169 31.5739C237.811 27.2431 238.029 21.5232 237.13 18.0368C236.695 16.4026 236.123 15.5582 235.714 15.3403C234.979 14.9317 233.535 15.4493 231.683 16.7839C231.056 17.247 230.212 17.2197 229.613 16.7567C228.986 16.2664 228.741 15.422 229.041 14.6594C230.076 12.0718 231.547 8.34026 232.745 5.31689C233.317 3.90053 233.208 3.24683 233.072 3.00169C233.018 2.8655 232.881 2.70209 232.5 2.5659C231.792 2.348 230.975 2.75656 230.675 3.51921C229.34 6.92391 226.617 13.1341 223.675 16.3753C220.951 19.3715 218.718 28.1964 217.41 33.4805C216.947 35.3599 216.593 36.6946 216.348 37.4027L216.294 37.5389C212.753 47.181 200.278 78.6949 188.348 79.8933C180.367 80.656 164.488 72.7571 160.511 70.7143Z" fill="black"/>
<path d="M96.9112 57.8855L100.507 30.0215L116.386 37.8387L117.367 57.2046C117.339 61.0451 114.18 63.3058 114.18 63.3058C110.258 66.4109 104.619 66.0568 100.425 63.333L99.4443 62.7066C97.8373 61.6443 96.884 59.8194 96.9112 57.8855Z" fill="white"/>
<path d="M107.588 66.4381C105.001 66.4381 102.331 65.6482 99.9346 64.0956L98.954 63.4692C97.0474 62.2435 95.9579 60.1462 95.9851 57.8855C95.9851 57.8583 95.9851 57.8038 95.9851 57.7765L99.6077 29.9125C99.635 29.6129 99.8256 29.3677 100.071 29.2316C100.316 29.0954 100.643 29.0954 100.888 29.2043L116.767 37.0215C117.067 37.1577 117.258 37.4573 117.285 37.7842L118.265 57.1501C118.238 61.4536 114.834 63.9322 114.697 64.0412C112.709 65.621 110.203 66.4381 107.588 66.4381ZM97.81 57.94C97.81 59.5742 98.5999 61.0723 99.9618 61.9439L100.942 62.5703C105.055 65.2396 110.285 65.2669 113.635 62.5703C113.69 62.5159 116.468 60.5003 116.495 57.1773L115.542 38.3834L101.242 31.3833L97.81 57.94Z" fill="black"/>
<path d="M119.409 2.26631C114.725 2.53869 121.125 6.65157 103.339 3.60096C96.2575 2.37527 100.616 10.0018 98.7906 9.67494C92.0084 8.53096 92.2536 8.55819 89.1213 9.75665C87.0512 10.5465 86.1251 14.6322 86.8333 17.5194C87.7866 21.3326 91.0824 21.9591 94.8412 29.8035C97.456 35.3055 97.3742 38.8464 99.7711 39.4184C102.195 39.9904 103.557 36.6946 106.226 37.1304C109.713 37.7024 109.686 43.613 113.254 45.6558C115.487 46.9359 120.39 47.0994 127.69 42.469C128.861 41.7063 129.351 40.2083 128.834 38.9281C128.153 37.2666 127.308 35.1421 126.328 33.2082C121.643 23.9202 117.939 22.1497 118.919 19.4805C120.39 15.4221 127.908 16.7839 128.752 13.4882C129.624 10.0563 125.81 1.91223 119.409 2.26631Z" fill="black"/>
<path d="M105.028 20.8151L106.635 23.1575C107.397 24.247 108.078 25.4183 108.678 26.5895C109.794 28.823 111.756 32.6634 113.036 34.7335C114.888 37.7569 124.666 32.6907 124.666 32.6907L125.047 30.6479L126.191 30.0214C126.409 29.9125 126.6 29.7218 126.736 29.5311C127.063 28.9864 126.981 28.3327 126.6 27.8969C124.53 25.4727 120.172 19.998 118.238 14.8773C118.265 14.8773 110.475 13.7606 105.028 20.8151Z" fill="white"/>
<path d="M115.405 36.5855C114.044 36.5855 112.9 36.2042 112.273 35.1964C110.966 33.0719 108.977 29.1497 107.888 26.9707C107.316 25.8267 106.635 24.6827 105.9 23.6205L104.292 21.278C104.075 20.9512 104.075 20.5154 104.32 20.2158C110.012 12.8344 118.047 13.8694 118.402 13.9239C118.728 13.9784 119.001 14.1963 119.11 14.4959C121.016 19.5893 125.483 25.1185 127.308 27.243C127.962 28.0057 128.044 29.068 127.526 29.9396C127.335 30.2664 127.009 30.566 126.655 30.7567L125.892 31.1653L125.592 32.7995C125.538 33.0719 125.374 33.317 125.129 33.426C123.822 34.1614 118.892 36.5855 115.405 36.5855ZM106.172 20.8695L107.398 22.6399C108.187 23.7839 108.896 24.9551 109.495 26.1808C110.557 28.3053 112.545 32.2003 113.826 34.2703C114.724 35.7412 120.09 33.9707 123.876 32.0913L124.176 30.4843C124.23 30.2119 124.394 29.994 124.639 29.8579L125.783 29.2314C125.892 29.1769 125.946 29.1224 126.001 29.0407C126.11 28.8501 126.11 28.6322 125.974 28.4687C123.713 25.7995 119.682 20.706 117.666 15.6943C115.923 15.6399 110.421 15.776 106.172 20.8695Z" fill="black"/>
<path d="M107.888 29.286C107.888 29.286 104.02 23.6751 101.841 25.9903C99.6895 28.3054 104.102 34.3794 107.888 29.286Z" fill="white"/>
<path d="M63.3546 105.633C63.9266 112.824 63.4363 135.322 59.7865 142.295C56.1639 149.213 52.2144 155.587 50.9615 173.291C50.8798 174.462 110.693 201.346 118.129 186.692C118.293 186.365 118.347 185.956 118.238 185.602C117.585 183.423 115.378 173.972 119.709 155.641C122.624 143.302 128.153 132.571 137.522 119.197C137.55 119.17 137.577 119.115 137.604 119.088C138.04 118.298 143.351 109.419 157.27 106.477C157.597 106.423 157.869 106.232 158.087 105.987C160.021 103.672 170.044 91.0607 173.04 73.0022C173.149 72.3758 172.822 71.7493 172.25 71.4769C168.492 69.652 154.464 63.0605 144.196 61.5625C132.238 59.8193 136.978 62.5158 128.452 59.6558C127.281 59.2473 123.713 56.5507 122.896 55.9515C117.884 52.3017 106.826 57.7764 96.3121 53.5818C95.0864 53.0916 93.7245 53.0643 92.4443 53.4184C89.312 54.3445 83.0746 55.6519 76.9734 55.6791C56.518 55.7064 62.7554 98.2787 63.3546 105.633Z" fill="#23B1EE"/>
<path d="M69.5374 137.092C69.374 137.092 69.2106 137.038 69.0744 136.956C68.6386 136.684 68.5024 136.139 68.7748 135.703C72.6153 129.384 77.2184 120.532 78.6348 108.166C80.9772 87.4655 92.2536 72.0217 92.3625 71.8856C92.6621 71.477 93.2341 71.3953 93.6155 71.6949C94.024 71.9945 94.1057 72.5665 93.8061 72.9478C93.6972 73.084 82.6932 88.1464 80.4052 108.357C78.9616 121.049 74.2495 130.119 70.3001 136.629C70.1367 136.929 69.8643 137.092 69.5374 137.092Z" fill="white"/>
</svg>
