<svg width="21" height="22" viewBox="0 0 21 22" fill="none" xmlns="http://www.w3.org/2000/svg">
<path d="M6.52125 6.92397C6.24888 6.92397 5.94926 6.78777 5.78584 6.54264L2.84418 2.40254C2.54457 1.99398 2.65352 1.42198 3.06208 1.1496C3.47064 0.849987 4.04263 0.958934 4.31501 1.3675L7.25667 5.50761C7.55628 5.91617 7.44733 6.48817 7.03876 6.76055C6.90258 6.8695 6.71191 6.92397 6.52125 6.92397Z" fill="black"/>
<path d="M16.8445 21.3873C16.5721 21.3873 16.2725 21.2511 16.1091 21.006L13.1674 16.8659C12.8678 16.4573 12.9768 15.8854 13.3853 15.613C13.7939 15.3134 14.3659 15.4223 14.6383 15.8309L17.5799 19.971C17.8795 20.3796 17.7706 20.9515 17.362 21.2239C17.1986 21.3329 17.0079 21.3873 16.8445 21.3873Z" fill="black"/>
<path d="M0.964849 18.7452C0.692473 18.7452 0.420096 18.609 0.229433 18.3639C-0.0701801 17.9553 0.038771 17.3833 0.447334 17.1109L4.56021 14.142C4.96877 13.8424 5.54076 13.9514 5.81313 14.3599C6.11275 14.7685 6.0038 15.3405 5.59524 15.6129L1.48236 18.5818C1.31894 18.6907 1.12827 18.7452 0.964849 18.7452Z" fill="black"/>
<path d="M15.3462 8.36749C15.0738 8.36749 14.8014 8.23131 14.6108 7.98617C14.3112 7.57761 14.4201 7.00561 14.8287 6.73323L18.9416 3.76435C19.3501 3.46473 19.9221 3.57368 20.1945 3.98224C20.4941 4.39081 20.3851 4.96279 19.9766 5.23517L15.8637 8.20407C15.7275 8.31302 15.5369 8.36749 15.3462 8.36749Z" fill="black"/>
</svg>
