<svg width="435" height="499" viewBox="0 0 435 499" fill="none" xmlns="http://www.w3.org/2000/svg">
<path d="M356.26 486.953H64.7361C55.6932 486.953 48.3119 477.937 49.7555 468.949L112.484 80.4051C113.628 73.2689 119.402 67.2766 126.593 67.2766H418.089C427.132 67.2766 434.432 76.1561 432.988 85.1172L370.287 473.661C369.143 480.825 363.451 486.953 356.26 486.953Z" fill="#5479F7"/>
<path d="M344.602 486.926H53.1055C44.0626 486.926 37.1443 478.809 38.6151 469.875L101.37 80.5413C102.514 73.4323 108.67 68.2026 115.861 68.2026H407.357C416.4 68.2026 423.319 76.3194 421.848 85.2534L359.092 474.614C357.948 481.696 351.82 486.926 344.602 486.926Z" fill="#99B9FF"/>
<path d="M344.602 487.852H53.1054C48.5295 487.852 44.1988 485.864 41.2299 482.35C38.261 478.863 36.9808 474.26 37.7162 469.739L100.472 80.3779C101.697 72.8058 108.18 67.2766 115.861 67.2766H407.357C411.933 67.2766 416.264 69.265 419.233 72.7514C422.202 76.2378 423.482 80.8409 422.746 85.3624L360.018 474.751C358.765 482.323 352.31 487.852 344.602 487.852ZM115.861 69.1015C109.051 69.1015 103.332 73.9771 102.242 80.6775L39.4867 470.039C38.833 474.042 39.9769 478.101 42.5917 481.179C45.2065 484.257 49.047 486.027 53.0782 486.027H344.575C351.384 486.027 357.104 481.151 358.193 474.451L420.949 85.09C421.602 81.0861 420.458 77.0277 417.844 73.9498C415.229 70.872 411.388 69.1015 407.357 69.1015H115.861Z" fill="black"/>
<path d="M337.902 474.669H63.4831C54.9577 474.669 48.4752 467.042 49.8371 458.626L108.915 92.0628C110.005 85.3624 115.779 80.4324 122.561 80.4324H396.98C405.505 80.4324 411.988 88.0589 410.626 96.4753L351.548 463.038C350.485 469.739 344.711 474.669 337.902 474.669Z" fill="white"/>
<path d="M247.091 467.07H148.818C148.328 467.07 147.919 466.661 147.919 466.171C147.919 465.681 148.328 465.272 148.818 465.272H247.091C247.582 465.272 247.99 465.681 247.99 466.171C247.99 466.661 247.582 467.07 247.091 467.07Z" fill="black"/>
<path d="M279.885 90.4286H231.103C225.083 90.4286 220.181 85.5531 220.181 79.5063H290.808C290.808 85.5259 285.905 90.4286 279.885 90.4286Z" fill="#99B9FF"/>
<path d="M276.399 209.103H25.7861C21.2374 209.103 18.8405 204.2 19.576 199.706L27.4748 155.063C28.0468 151.468 31.6967 147.982 35.3193 147.982H285.959C290.508 147.982 293.45 152.939 292.714 157.433L284.815 202.076C284.243 205.644 280.049 209.103 276.399 209.103Z" fill="#5479F7"/>
<path d="M269.045 208.286H8.49047C3.9418 208.286 0.45539 204.2 1.1908 199.706L9.0897 155.063C9.66169 151.468 12.7668 148.853 16.3894 148.853H276.917C281.465 148.853 284.952 152.939 284.216 157.433L276.317 202.075C275.745 205.644 272.668 208.286 269.045 208.286Z" fill="white"/>
<path d="M269.045 209.184H8.49037C6.03899 209.184 3.75104 208.122 2.17126 206.27C0.591478 204.418 -0.0894639 201.966 0.291862 199.57L8.19076 154.927C8.84446 150.896 12.3036 147.954 16.3893 147.954H276.917C279.368 147.954 281.656 149.017 283.236 150.869C284.815 152.721 285.496 155.172 285.115 157.569L277.216 202.212C276.59 206.243 273.131 209.184 269.045 209.184ZM16.3893 149.752C13.1752 149.752 10.4787 152.04 9.9612 155.2L2.0623 199.842C1.76269 201.721 2.28021 203.628 3.53313 205.072C4.75883 206.515 6.58374 207.359 8.49037 207.359H269.018C272.232 207.359 274.928 205.072 275.419 201.912L283.317 157.27C283.617 155.39 283.1 153.484 281.847 152.04C280.621 150.596 278.796 149.752 276.889 149.752H16.3893Z" fill="black"/>
<path d="M52.3973 166.013C47.1949 160.81 38.724 160.81 33.5217 166.013C28.3193 171.215 28.3193 179.686 33.5217 184.888C38.724 190.091 47.1949 190.091 52.3973 184.888C57.5997 179.686 57.5997 171.215 52.3973 166.013ZM35.8368 182.546C31.9146 178.624 31.9146 172.277 35.8368 168.355C39.7591 164.433 46.1054 164.433 50.0276 168.355C53.9498 172.277 53.9498 178.624 50.0276 182.546C46.1054 186.441 39.7591 186.468 35.8368 182.546Z" fill="#5479F7"/>
<path d="M25.1869 194.858L23.4981 193.169C23.2802 192.951 23.2802 192.624 23.4981 192.406L33.4126 182.492L35.864 184.943L25.9495 194.858C25.7316 195.075 25.3775 195.075 25.1869 194.858Z" fill="#5479F7"/>
<path d="M181.558 184.779H83.6932C78.7632 184.779 74.7593 180.776 74.7593 175.846C74.7593 170.916 78.7632 166.912 83.6932 166.912H181.558C186.488 166.912 190.492 170.916 190.492 175.846C190.492 180.748 186.488 184.779 181.558 184.779Z" fill="#C3CFEA"/>
<path d="M229.278 184.643H214.461C209.531 184.643 205.527 180.639 205.527 175.709C205.527 170.779 209.531 166.775 214.461 166.775H229.278C234.208 166.775 238.212 170.779 238.212 175.709C238.239 180.639 234.208 184.643 229.278 184.643Z" fill="#DFE5F1"/>
<path d="M223.531 246.418H125.666C120.736 246.418 116.732 242.414 116.732 237.484C116.732 232.554 120.736 228.55 125.666 228.55H223.531C228.461 228.55 232.465 232.554 232.465 237.484C232.465 242.414 228.461 246.418 223.531 246.418Z" fill="#C3CFEA"/>
<path d="M244.885 278.068H203.62C198.69 278.068 194.687 274.064 194.687 269.134C194.687 264.204 198.69 260.2 203.62 260.2H244.885C249.815 260.2 253.819 264.204 253.819 269.134C253.847 274.064 249.843 278.068 244.885 278.068Z" fill="#DFE5F1"/>
<path d="M315.485 278.068H274.22C269.29 278.068 265.286 274.064 265.286 269.134C265.286 264.204 269.29 260.2 274.22 260.2H315.485C320.415 260.2 324.419 264.204 324.419 269.134C324.419 274.064 320.415 278.068 315.485 278.068Z" fill="#DFE5F1"/>
<path d="M330.166 345.971H223.204C218.274 345.971 214.271 341.967 214.271 337.037C214.271 332.107 218.274 328.104 223.204 328.104H330.166C335.096 328.104 339.1 332.107 339.1 337.037C339.1 341.967 335.096 345.971 330.166 345.971Z" fill="#DFE5F1"/>
<path d="M205.99 381.952H107.799C102.869 381.952 98.8647 377.948 98.8647 373.018C98.8647 368.088 102.869 364.084 107.799 364.084H205.99C210.92 364.084 214.924 368.088 214.924 373.018C214.924 377.948 210.92 381.952 205.99 381.952Z" fill="#DFE5F1"/>
<path d="M296.8 381.952H236.142C231.212 381.952 227.208 377.948 227.208 373.018C227.208 368.088 231.212 364.084 236.142 364.084H296.8C301.73 364.084 305.734 368.088 305.734 373.018C305.761 377.948 301.757 381.952 296.8 381.952Z" fill="#C3CFEA"/>
<path d="M256.951 416.735H196.293C191.363 416.735 187.359 412.731 187.359 407.801C187.359 402.871 191.363 398.867 196.293 398.867H256.951C261.881 398.867 265.885 402.871 265.885 407.801C265.913 412.731 261.909 416.735 256.951 416.735Z" fill="#DFE5F1"/>
<path d="M193.951 345.971H162.138C157.208 345.971 153.204 341.967 153.204 337.037C153.204 332.107 157.208 328.104 162.138 328.104H193.951C198.881 328.104 202.885 332.107 202.885 337.037C202.912 341.967 198.908 345.971 193.951 345.971Z" fill="#DFE5F1"/>
<path d="M286.531 311.298H240.527C235.597 311.298 231.593 307.294 231.593 302.364C231.593 297.434 235.597 293.43 240.527 293.43H286.531C291.461 293.43 295.465 297.434 295.465 302.364C295.465 307.294 291.461 311.298 286.531 311.298Z" fill="#C3CFEA"/>
<path d="M382.898 130.059L381.318 124.312L374.808 124.612C374.209 123.359 373.501 122.133 372.711 121.016L376.143 115.514L371.921 111.32L366.447 114.834C365.303 114.044 364.104 113.363 362.851 112.791L363.069 106.281L357.322 104.783L354.326 110.557C352.964 110.448 351.575 110.448 350.186 110.584L347.135 104.837L341.388 106.417L341.688 112.927C340.435 113.526 339.236 114.234 338.092 115.024L332.59 111.592L328.396 115.841L331.909 121.316C331.119 122.46 330.438 123.658 329.866 124.911L323.357 124.694L321.859 130.468L327.633 133.464C327.524 134.826 327.524 136.215 327.66 137.604L321.913 140.655L323.493 146.402L330.003 146.102C330.602 147.355 331.31 148.581 332.1 149.698L328.668 155.2L332.89 159.394L338.365 155.881C339.509 156.67 340.707 157.351 341.96 157.923L341.742 164.433L347.489 165.931L350.485 160.157C351.847 160.266 353.236 160.266 354.625 160.13L357.676 165.877L363.423 164.297L363.124 157.787C364.377 157.188 365.575 156.48 366.719 155.69L372.221 159.122L376.415 154.873L372.902 149.398C373.692 148.254 374.373 147.056 374.945 145.803L381.454 146.021L382.953 140.246L377.178 137.25C377.287 135.888 377.287 134.499 377.151 133.11L382.898 130.059ZM356.45 150.133C348.279 152.367 339.863 147.573 337.629 139.402C335.396 131.231 340.19 122.787 348.361 120.553C356.532 118.32 364.948 123.114 367.182 131.285C369.443 139.456 364.622 147.873 356.45 150.133Z" fill="white"/>
<path d="M347.952 166.966L340.789 165.087L341.007 158.441C340.081 157.978 339.182 157.46 338.31 156.916L332.726 160.484L327.47 155.281L330.983 149.643C330.411 148.799 329.894 147.9 329.431 146.974L322.812 147.273L320.851 140.137L326.707 137.005C326.625 135.97 326.625 134.935 326.68 133.9L320.796 130.849L322.676 123.686L329.322 123.904C329.785 122.978 330.302 122.079 330.847 121.207L327.279 115.623L332.481 110.367L338.092 113.88C338.937 113.308 339.835 112.791 340.762 112.328L340.462 105.709L347.598 103.748L350.703 109.604C351.738 109.522 352.773 109.522 353.808 109.577L356.859 103.693L364.022 105.573L363.805 112.219C364.731 112.682 365.629 113.199 366.501 113.744L372.085 110.176L377.342 115.378L373.828 121.016C374.4 121.861 374.917 122.76 375.38 123.686L381.999 123.386L383.96 130.522L378.104 133.655C378.186 134.69 378.186 135.725 378.131 136.76L384.015 139.81L382.135 146.974L375.489 146.756C375.026 147.682 374.509 148.581 373.964 149.452L377.532 155.036L372.33 160.293L366.719 156.779C365.875 157.351 364.976 157.869 364.05 158.332L364.349 164.951L357.213 166.912L354.108 161.056C353.073 161.137 352.038 161.137 351.003 161.083L347.952 166.966ZM342.641 163.698L346.999 164.842L349.941 159.176L350.54 159.231C351.847 159.34 353.182 159.312 354.544 159.204L355.143 159.149L358.139 164.787L362.497 163.589L362.197 157.215L362.742 156.97C363.968 156.398 365.112 155.717 366.201 154.954L366.692 154.6L372.085 157.978L375.244 154.764L371.812 149.371L372.139 148.88C372.902 147.791 373.556 146.62 374.128 145.421L374.373 144.877L380.746 145.094L381.89 140.736L376.225 137.795L376.279 137.196C376.388 135.888 376.361 134.554 376.252 133.192L376.198 132.592L381.836 129.596L380.637 125.238L374.264 125.538L374.019 124.993C373.447 123.767 372.766 122.596 372.003 121.534L371.649 121.044L375.026 115.623L371.812 112.437L366.447 115.869L365.956 115.542C364.867 114.779 363.696 114.125 362.497 113.553L361.952 113.308L362.17 106.935L357.812 105.791L354.871 111.456L354.271 111.402C352.964 111.293 351.629 111.32 350.267 111.429L349.668 111.483L346.672 105.845L342.314 107.044L342.614 113.417L342.069 113.662C340.843 114.234 339.699 114.915 338.61 115.678L338.119 116.032L332.726 112.655L329.567 115.869L332.999 121.234L332.672 121.725C331.909 122.814 331.256 123.985 330.684 125.184L330.438 125.729L324.065 125.511L322.921 129.869L328.586 132.81L328.532 133.41C328.423 134.717 328.45 136.052 328.559 137.413L328.614 138.013L322.975 141.009L324.174 145.367L330.547 145.067L330.793 145.612C331.365 146.838 332.045 148.009 332.808 149.071L333.162 149.561L329.785 154.982L332.999 158.168L338.365 154.737L338.855 155.063C339.944 155.826 341.116 156.48 342.314 157.052L342.859 157.297L342.641 163.698ZM352.392 151.577C349.614 151.577 346.863 150.842 344.384 149.425C340.625 147.273 337.902 143.787 336.758 139.592C334.388 130.958 339.481 121.997 348.116 119.627C352.31 118.483 356.668 119.028 360.454 121.18C364.213 123.332 366.937 126.818 368.081 131.013C370.45 139.647 365.357 148.608 356.723 150.978C355.279 151.386 353.836 151.577 352.392 151.577ZM352.446 120.88C351.166 120.88 349.886 121.044 348.606 121.398C340.925 123.495 336.404 131.448 338.501 139.129C339.509 142.861 341.933 145.939 345.283 147.845C348.633 149.752 352.528 150.242 356.232 149.235C363.913 147.137 368.435 139.184 366.338 131.503C365.33 127.771 362.906 124.694 359.555 122.787C357.349 121.534 354.898 120.88 352.446 120.88Z" fill="#AFBBD7"/>
<path d="M375.625 49.1092C375.326 49.1092 374.999 49.0819 374.699 49.0275C373.201 48.7823 371.894 47.9652 370.995 46.7395C370.123 45.5138 369.769 43.9885 370.014 42.5177C370.532 39.4398 373.446 37.3153 376.551 37.8328C378.049 38.078 379.357 38.8951 380.256 40.1208C381.127 41.3465 381.481 42.8445 381.236 44.3426C380.991 45.8407 380.174 47.1481 378.948 48.0469C377.941 48.7551 376.797 49.1092 375.625 49.1092ZM375.598 39.5488C373.746 39.5488 372.084 40.9107 371.785 42.7901C371.621 43.7979 371.867 44.8329 372.466 45.6772C373.065 46.5216 373.964 47.0664 374.972 47.2298C376.007 47.3932 377.014 47.1481 377.859 46.5488C378.703 45.9496 379.248 45.0508 379.411 44.043C379.575 43.0352 379.33 42.0002 378.73 41.1558C378.131 40.3114 377.232 39.7667 376.225 39.6033C376.034 39.576 375.816 39.5488 375.598 39.5488Z" fill="black"/>
<path d="M344.574 38.7045C344.166 38.7045 343.73 38.6773 343.294 38.5956C339.073 37.8874 336.185 33.8835 336.894 29.6616C337.22 27.6188 338.337 25.8211 340.026 24.6227C341.715 23.4242 343.757 22.934 345.827 23.2608C347.87 23.5877 349.668 24.7044 350.866 26.3931C352.065 28.0819 352.555 30.1247 352.228 32.1947C351.602 36.008 348.306 38.7045 344.574 38.7045ZM338.691 29.9885C338.146 33.2298 340.353 36.3076 343.594 36.8251C345.174 37.0975 346.754 36.7162 348.034 35.7901C349.341 34.864 350.185 33.4749 350.431 31.9224C350.975 28.6811 348.769 25.6032 345.528 25.0857C343.948 24.8134 342.368 25.1947 341.088 26.1208C339.808 27.0196 338.964 28.4087 338.691 29.9885Z" fill="black"/>
<path d="M139.231 34.9458C159.032 34.9458 177.745 43.9069 197.41 67.2223L115.942 67.3312C108.207 67.3312 101.67 72.8605 100.472 80.5142C99.0279 89.5843 99.0007 100.942 100.58 106.962C102.787 115.324 104.884 121.262 106.627 125.374C108.833 130.55 107.145 136.569 102.596 139.919L99.0279 142.534C93.9073 146.266 86.771 145.476 82.6581 140.682C77.2923 134.445 70.2923 125.075 65.7164 114.125C54.2494 86.6972 62.9926 43.4167 101.125 35.8446C109.269 34.2104 135.009 34.9458 139.231 34.9458Z" fill="#FF8906"/>
<path d="M146.421 66.623C144.351 62.0199 138.849 60.086 134.246 62.1288C130.678 63.7086 126.075 65.9966 124.713 67.6581C123.106 69.6464 120.518 75.8566 122.67 80.5959C124.604 84.845 130.052 85.9617 133.756 83.1018C135.69 81.6037 137.705 79.0979 138.958 74.9305C139.639 72.6153 141.219 70.5997 143.452 69.6464C144.052 69.374 144.705 69.1834 145.413 69.1017C146.34 68.9927 146.939 68.0666 146.639 67.1678C146.585 66.9771 146.503 66.8137 146.421 66.623Z" fill="white"/>
<path d="M129.18 85.5804C128.499 85.5804 127.845 85.4986 127.164 85.3352C124.794 84.7632 122.861 83.1562 121.853 80.95C119.538 75.8838 122.125 69.4285 124.005 67.0861C125.176 65.6425 128.472 63.7086 133.865 61.3117C138.985 59.0237 144.978 61.2572 147.238 66.2689C147.347 66.4868 147.429 66.7047 147.483 66.8682C147.701 67.5491 147.62 68.2845 147.238 68.8837C146.857 69.483 146.23 69.8915 145.495 69.9732C144.923 70.0277 144.351 70.1911 143.779 70.4363C141.9 71.2534 140.456 72.9694 139.802 75.1484C138.686 78.9344 136.833 81.8488 134.3 83.7827C132.83 84.9811 131.032 85.5804 129.18 85.5804ZM138.086 62.2105C136.942 62.2105 135.744 62.4557 134.627 62.9459C127.927 65.9421 125.993 67.5219 125.448 68.2028C124.059 69.9188 121.526 75.8293 123.542 80.1873C124.304 81.8761 125.802 83.129 127.627 83.5648C129.588 84.0551 131.631 83.6193 133.238 82.3663C135.472 80.6504 137.106 78.0628 138.114 74.6309C138.904 71.9343 140.728 69.7826 143.098 68.7748C143.834 68.4479 144.569 68.2573 145.304 68.1756C145.549 68.1483 145.658 68.0121 145.713 67.9032C145.767 67.8215 145.849 67.658 145.767 67.4129C145.713 67.2767 145.658 67.1405 145.577 66.9771C144.242 63.981 141.246 62.2105 138.086 62.2105Z" fill="black"/>
<path d="M111.993 151.931C112.592 152.939 113.273 154.137 113.736 156.289L115.561 166.34H109.514C108.507 166.34 107.553 166.721 106.791 167.375C105.974 168.083 105.619 169.145 105.81 170.207C106.219 172.332 107.798 178.515 107.826 179.495C107.853 180.939 108.071 182.982 107.118 184.153L106.872 184.453C105.865 185.651 103.931 185.352 103.359 183.908L97.9657 169.744C97.2575 167.947 97.203 165.931 97.8023 164.079L100.935 154.491C101.643 152.34 101.044 149.97 99.382 148.417L87.5882 138.612C83.3119 134.635 91.347 127.308 91.347 127.308C93.989 125.456 97.6933 126.164 99.4365 128.725L111.993 151.931Z" fill="white"/>
<path d="M105.292 186.114C105.129 186.114 104.966 186.114 104.802 186.087C103.767 185.924 102.923 185.215 102.541 184.235L97.1484 170.044C96.3857 168.056 96.304 165.822 96.985 163.779L100.117 154.192C100.717 152.367 100.199 150.351 98.8099 149.044L87.0705 139.266C86.0082 138.285 85.4907 137.087 85.4907 135.697C85.518 131.476 90.5842 126.791 90.7748 126.573C90.8021 126.546 90.8293 126.518 90.8565 126.491C92.3274 125.456 94.125 125.075 95.9227 125.402C97.6659 125.729 99.2457 126.709 100.226 128.125C100.253 128.153 100.253 128.18 100.281 128.207L112.81 151.414C113.491 152.53 114.199 153.81 114.635 156.044L116.46 166.122C116.514 166.394 116.433 166.667 116.269 166.857C116.106 167.075 115.833 167.184 115.588 167.184H109.541C108.779 167.184 108.016 167.484 107.417 168.001C106.845 168.491 106.6 169.254 106.736 169.99C106.899 170.807 107.226 172.25 107.58 173.748C108.316 176.853 108.752 178.76 108.752 179.414C108.752 179.604 108.752 179.822 108.779 180.04C108.833 181.538 108.888 183.39 107.853 184.671L107.58 184.97C106.981 185.733 106.164 186.114 105.292 186.114ZM91.946 128.016C90.6114 129.269 87.2884 132.946 87.2884 135.752C87.2884 136.624 87.588 137.332 88.2417 137.958L99.9811 147.736C101.915 149.561 102.623 152.312 101.806 154.791L98.6737 164.379C98.129 166.04 98.1834 167.811 98.8099 169.445L104.203 183.636C104.339 184.017 104.666 184.262 105.075 184.344C105.483 184.398 105.892 184.262 106.164 183.935L106.409 183.636C107.008 182.9 106.954 181.402 106.927 180.204C106.927 179.986 106.899 179.768 106.899 179.55C106.899 179.06 106.219 176.172 105.783 174.266C105.429 172.741 105.075 171.27 104.911 170.425C104.639 169.063 105.129 167.647 106.164 166.748C107.09 165.931 108.261 165.495 109.487 165.495H114.444L112.81 156.507C112.401 154.573 111.829 153.484 111.203 152.449L111.176 152.421L98.6737 129.242C97.9655 128.234 96.8488 127.526 95.5686 127.308C94.2885 127.009 93.0083 127.281 91.946 128.016Z" fill="black"/>
<path d="M129.479 51.4515C130.051 51.3154 130.569 51.043 131.005 50.6617L137.923 44.9418C138.658 44.4787 139.612 44.5332 140.265 45.1052L145.195 49.2998C145.822 49.8173 146.748 49.8718 147.429 49.4087L153.666 45.1324L156.717 46.113C156.962 46.1947 157.207 46.0585 157.289 45.8134L159.304 40.2025C160.149 38.2413 163.09 35.0545 162.328 34.3191C162.328 34.3191 153.367 14.4629 143.534 19.1206C142.118 19.8015 141.001 21 140.374 22.4435L139.04 25.4669C137.705 28.4903 130.95 35.4359 123.841 37.2335C122.888 37.4787 120.436 37.6693 118.53 37.7783C117.113 37.86 116.16 39.2491 116.541 40.611C117.005 42.2453 117.849 44.4787 119.429 47.0935C121.499 50.5255 125.475 52.3504 129.37 51.4515C129.425 51.4788 129.452 51.4515 129.479 51.4515Z" fill="white"/>
<path d="M127.41 52.5955C123.923 52.5955 120.6 50.7433 118.694 47.5565C117.359 45.3231 116.351 43.0623 115.725 40.8561C115.452 39.93 115.643 38.9495 116.188 38.1596C116.732 37.3969 117.577 36.9066 118.53 36.8522C121.145 36.6887 122.97 36.4981 123.678 36.3347C130.297 34.6459 136.97 28 138.25 25.0855L139.558 22.0622C140.293 20.3734 141.573 19.0388 143.153 18.2761C145.223 17.2956 147.375 17.2139 149.581 18.031C156.853 20.7275 162.437 32.358 163.091 33.8016C163.881 34.7821 162.873 36.2802 161.593 38.1323C161.021 38.9767 160.422 39.8483 160.122 40.5292L158.134 46.1129C157.888 46.8211 157.126 47.1752 156.418 46.9573L153.803 46.1129L147.919 50.1441C146.912 50.8523 145.523 50.7706 144.596 49.9807L139.639 45.7861C139.285 45.4865 138.795 45.4592 138.386 45.6771L131.522 51.3698C130.95 51.8328 130.297 52.1597 129.616 52.3231L129.534 52.3503C128.88 52.5138 128.145 52.5955 127.41 52.5955ZM146.612 19.2839C145.713 19.2839 144.814 19.5018 143.943 19.9104C142.744 20.4824 141.791 21.4902 141.219 22.7703L139.884 25.7937C138.495 28.9533 131.659 36.1712 124.087 38.0779C123.269 38.2958 121.445 38.4864 118.612 38.6498C118.203 38.6771 117.849 38.8677 117.631 39.1946C117.386 39.5215 117.332 39.9573 117.441 40.3386C117.849 41.7549 118.639 43.9884 120.219 46.6032C122.125 49.7628 125.721 51.3426 129.18 50.5527L129.262 50.5254C129.67 50.4165 130.079 50.2258 130.433 49.9262L137.351 44.2063C137.379 44.1791 137.406 44.1518 137.46 44.1246C138.522 43.4709 139.912 43.5526 140.865 44.3697L145.822 48.5643C146.149 48.8367 146.612 48.8367 146.966 48.6188L153.204 44.3425C153.421 44.1791 153.721 44.1518 153.993 44.2335L156.635 45.0779L158.488 39.8755C158.488 39.8483 158.515 39.8483 158.515 39.8211C158.869 39.0039 159.523 38.0506 160.149 37.1245C160.667 36.3619 161.457 35.2179 161.565 34.7276C161.565 34.7004 161.538 34.7004 161.538 34.6732C161.484 34.537 155.873 22.2801 148.982 19.747C148.165 19.4474 147.375 19.2839 146.612 19.2839Z" fill="black"/>
<path d="M176.9 26.4747C174.585 22.1167 170.772 24.0778 168.565 11.6847C167.231 4.24889 161.266 11.9299 160.748 10.0233C158.869 3.0232 158.951 3.26834 156.417 0.816954C154.756 -0.790062 150.425 0.108777 148.001 2.09712C144.787 4.71193 141.573 12.0116 137.787 19.0934C135.826 22.7704 137.487 28.5448 144.406 27.4281C146.585 27.074 146.721 23.6965 148.628 24.1051C153.558 25.1129 149.499 29.2802 152.414 30.751C155.192 32.1674 156.69 32.5215 160.258 33.6382C164.589 34.9729 164.453 40.0663 171.344 38.2414C174.885 37.2608 180.06 32.4398 176.9 26.4747Z" fill="black"/>
<path d="M368.19 437.163C368.545 437.708 381.918 456.828 381.918 456.828C381.918 456.828 380.039 463.447 376.58 464.4L360.673 447.214L368.19 437.163Z" fill="white"/>
<path d="M376.552 465.299C376.307 465.299 376.062 465.19 375.899 465L359.992 447.813C359.692 447.486 359.665 446.996 359.937 446.669L367.455 436.618C367.646 436.373 367.918 436.264 368.218 436.264C368.517 436.264 368.79 436.427 368.953 436.672C369.253 437.163 378.949 450.999 382.654 456.311C382.817 456.529 382.844 456.801 382.79 457.073C382.572 457.809 380.665 464.237 376.825 465.272C376.716 465.299 376.634 465.299 376.552 465.299ZM361.844 447.132L376.825 463.338C378.84 462.33 380.338 458.762 380.91 456.964C379.031 454.268 370.696 442.365 368.163 438.688L361.844 447.132Z" fill="black"/>
<path d="M390.88 461.895C390.88 461.895 386.903 477.338 380.23 485.292C373.556 493.245 362.498 490.385 362.498 490.385C362.498 490.385 361.681 483.657 363.07 481.914C364.459 480.171 372.113 470.828 372.113 462.439L375.518 457.264L377.914 460.369L381.129 453.75L390.88 461.895Z" fill="white"/>
<path d="M367.21 491.801C364.432 491.801 362.444 491.311 362.253 491.257C361.899 491.175 361.626 490.848 361.572 490.494C361.436 489.323 360.782 483.303 362.335 481.37L362.471 481.179C369.662 472.163 371.16 466.035 371.16 462.467C371.16 462.276 371.214 462.113 371.296 461.976L374.7 456.801C374.864 456.556 375.136 456.393 375.409 456.393C375.708 456.393 375.981 456.502 376.171 456.747L377.697 458.708L380.284 453.397C380.393 453.151 380.638 452.961 380.911 452.906C381.183 452.852 381.455 452.906 381.673 453.097L391.424 461.241C391.697 461.459 391.806 461.813 391.724 462.167C391.561 462.793 387.611 477.91 380.883 485.918C376.825 490.766 371.214 491.801 367.21 491.801ZM363.315 489.622C365.658 490.058 374.183 491.093 379.522 484.72C385.269 477.856 389.055 465.027 389.845 462.221L381.428 455.194L378.704 460.778C378.568 461.05 378.296 461.241 377.996 461.268C377.697 461.295 377.37 461.159 377.179 460.914L375.545 458.817L372.984 462.712C372.93 466.607 371.241 473.089 363.914 482.296L363.778 482.486C363.043 483.385 363.07 487.008 363.315 489.622Z" fill="black"/>
<path d="M385.486 463.038C385.486 463.038 381.292 485.863 365.14 487.579L385.486 463.038Z" fill="white"/>
<path d="M365.14 488.478C364.677 488.478 364.295 488.124 364.241 487.661C364.186 487.171 364.54 486.708 365.058 486.653C380.338 485.046 384.56 463.093 384.587 462.848C384.669 462.358 385.159 462.031 385.65 462.112C386.14 462.194 386.467 462.684 386.385 463.175C386.222 464.128 381.864 486.681 365.249 488.451C365.194 488.478 365.167 488.478 365.14 488.478Z" fill="black"/>
<path d="M359.91 455.33C359.992 456.147 359.148 467.614 355.58 474.805C355.58 474.805 358.249 480.116 363.288 479.163C363.288 479.163 369.525 465.463 370.751 455.058L359.91 455.33Z" fill="white"/>
<path d="M362.144 480.171C358.358 480.171 355.716 477.039 354.79 475.187C354.653 474.941 354.653 474.642 354.79 474.369C358.14 467.614 359.093 456.502 359.011 455.385C358.984 455.14 359.093 454.895 359.257 454.704C359.42 454.513 359.665 454.404 359.91 454.404L370.751 454.132C371.023 454.105 371.268 454.241 371.432 454.431C371.595 454.622 371.704 454.895 371.65 455.14C370.424 465.572 364.377 478.945 364.105 479.517C363.996 479.79 363.751 479.98 363.451 480.035C362.988 480.117 362.552 480.171 362.144 480.171ZM356.615 474.751C357.268 475.813 359.338 478.7 362.661 478.319C363.696 475.976 368.408 464.918 369.716 455.957L360.782 456.175C360.618 459.28 359.556 468.459 356.615 474.751Z" fill="black"/>
<path d="M367.21 472.381C367.21 472.381 368.163 483.412 367.237 489.241C367.019 490.712 365.957 491.883 364.54 492.346C360.046 493.735 346.564 498.012 333.762 497.603C330.82 497.521 329.268 495.533 328.886 494.416C327.824 491.339 329.295 487.171 333.844 483.058C340.435 477.093 355.715 468.078 355.715 468.078L360.346 473.661L359.147 479.136L367.21 472.381Z" fill="white"/>
<path d="M335.533 498.529C334.933 498.529 334.334 498.529 333.708 498.502C330.194 498.393 328.451 495.969 328.015 494.716C326.735 491.012 328.641 486.517 333.217 482.405C339.809 476.44 354.626 467.696 355.253 467.315C355.634 467.097 356.124 467.179 356.397 467.506L361.027 473.089C361.218 473.307 361.272 473.58 361.218 473.852L360.591 476.739L366.611 471.7C366.883 471.482 367.237 471.428 367.537 471.564C367.836 471.7 368.054 472 368.081 472.327C368.109 472.79 369.008 483.549 368.081 489.405C367.809 491.202 366.529 492.673 364.758 493.218L364.541 493.3C359.856 494.743 347.708 498.529 335.533 498.529ZM355.498 469.249C352.502 471.047 340.108 478.591 334.416 483.739C330.466 487.307 328.723 491.202 329.731 494.144C329.976 494.825 331.147 496.623 333.789 496.704C346.237 497.113 359.175 493.082 364.05 491.556L364.268 491.475C365.358 491.121 366.175 490.222 366.338 489.105C367.019 484.829 366.665 477.529 366.447 474.206L359.747 479.817C359.447 480.062 359.039 480.089 358.684 479.899C358.358 479.708 358.194 479.3 358.276 478.945L359.393 473.906L355.498 469.249Z" fill="black"/>
<path d="M361.272 488.887C361.272 488.887 350.813 493.599 334.58 494.008L361.272 488.887Z" fill="white"/>
<path d="M334.58 494.906C334.089 494.906 333.681 494.525 333.681 494.035C333.681 493.545 334.062 493.109 334.552 493.109C350.432 492.727 360.809 488.124 360.891 488.07C361.354 487.852 361.872 488.07 362.089 488.533C362.307 488.996 362.089 489.513 361.626 489.731C361.218 489.895 350.84 494.498 334.58 494.906Z" fill="black"/>
<path d="M336.731 305.496C336.731 305.496 316.575 350.139 316.521 380.618C316.439 411.096 363.968 453.151 363.968 453.151L372.875 445.416C372.875 445.416 353.618 420.139 350.595 397.396C347.571 374.653 360.155 340.143 360.155 340.143L363.587 309.8L336.731 305.496Z" fill="black"/>
<path d="M384.996 305.496C384.996 305.496 395.864 372.474 372.494 460.778L355.906 458.081C355.906 458.081 365.085 381.38 346.89 340.578L342.832 303.699L384.996 305.496Z" fill="black"/>
<path d="M355.716 381.598C355.198 381.598 354.817 381.19 354.817 380.699C354.871 370.703 352.039 351.61 348.035 345.726C347.762 345.318 347.871 344.746 348.28 344.473C348.688 344.201 349.26 344.31 349.533 344.718C353.891 351.092 356.696 370.621 356.642 380.727C356.614 381.19 356.233 381.598 355.716 381.598Z" fill="white"/>
<path d="M357.105 439.287C357.078 439.287 357.078 439.287 357.05 439.287C356.56 439.26 356.179 438.824 356.206 438.334C356.723 428.991 356.451 417.225 356.451 417.089C356.451 416.598 356.832 416.163 357.323 416.163C357.813 416.163 358.249 416.544 358.249 417.034C358.249 417.143 358.521 429.019 358.004 438.416C357.976 438.933 357.568 439.287 357.105 439.287Z" fill="#99B9FF"/>
<path d="M380.474 203.029C382.353 206.815 379.684 208.149 380.992 215.503C381.945 220.897 383.906 222.967 382.599 225.663C381.427 228.087 378.649 228.959 376.797 229.531C368.408 232.146 360.318 227.897 355.361 225.282C351.357 223.157 345.828 220.27 346.209 217.328C346.563 214.441 352.256 214.823 354.925 209.974C357.077 206.052 354.598 203.601 356.859 200.305C359.773 196.029 366.61 196.192 367.7 196.219C372.085 196.355 378.132 198.344 380.474 203.029Z" fill="black"/>
<path d="M333.571 225.418L355.634 230.947C356.042 231.029 356.451 230.811 356.587 230.43C358.085 226.208 355.742 221.469 355.062 220.243C354.953 220.052 354.762 219.916 354.571 219.862C353.482 219.562 352.501 219.181 351.602 218.718C350.513 218.146 350.05 216.784 350.567 215.667C351.384 213.842 352.256 211.391 352.746 210.356C352.855 210.111 352.855 209.811 352.719 209.593C352.338 209.048 351.766 208.612 351.82 207.768C351.847 207.441 352.065 207.169 352.365 207.087C355.143 206.27 357.268 202.103 359.12 200.85C359.992 200.251 360.591 200.087 361.599 199.542C361.762 199.461 361.953 199.406 362.143 199.461C366.855 200.496 359.637 206.325 365.793 209.756C366.093 209.92 366.283 210.274 366.202 210.628C366.093 211.146 366.12 211.827 366.174 212.453C366.174 212.453 366.174 212.453 366.174 212.48C366.229 213.107 366.992 213.434 367.482 213.025C368.408 212.262 369.361 212.044 369.933 212.371C370.723 212.834 370.669 214.387 370.396 215.313C369.824 217.165 367.918 218.009 366.828 218.336C366.42 218.472 366.174 218.908 366.283 219.317C367.019 221.85 369.225 229.776 369.388 233.371C369.416 233.753 369.661 234.052 370.015 234.134L374.237 235.06C380.583 236.449 388.101 240.29 392.949 244.593C392.949 244.593 401.883 251.566 401.447 252.029C388.346 265.348 362.579 257.014 353.073 252.792C343.84 248.679 332.972 225.282 333.571 225.418Z" fill="white"/>
<path d="M381.291 260.146C368.081 260.146 354.898 254.562 352.719 253.582C347.735 251.375 342.532 244.049 339.046 238.301C337.139 235.142 332.291 226.317 332.672 225.146C332.808 224.71 333.299 224.438 333.734 224.519H333.762L355.715 230.021C356.995 226.235 354.952 221.986 354.244 220.679C353.128 220.379 352.065 219.971 351.112 219.453C349.614 218.663 348.96 216.811 349.668 215.231C350.05 214.36 350.458 213.352 350.812 212.426C351.221 211.418 351.575 210.519 351.847 209.947C351.793 209.865 351.711 209.784 351.657 209.702C351.275 209.239 350.785 208.613 350.867 207.632C350.921 206.951 351.412 206.352 352.065 206.161C353.509 205.725 354.898 204.064 356.124 202.593C356.968 201.558 357.758 200.605 358.575 200.06C359.174 199.651 359.665 199.433 360.155 199.188C360.454 199.052 360.754 198.916 361.108 198.698C361.489 198.507 361.898 198.426 362.279 198.507C363.26 198.725 363.914 199.134 364.295 199.76C364.949 200.795 364.649 202.021 364.349 203.328C363.859 205.398 363.423 207.36 366.174 208.885C366.828 209.239 367.182 210.002 367.046 210.71C366.991 210.928 366.964 211.364 367.019 212.099C368.19 211.2 369.47 210.955 370.342 211.472C371.649 212.235 371.567 214.278 371.213 215.449C370.56 217.628 368.408 218.636 367.128 219.045C368.027 222.177 370.042 229.558 370.233 233.154L374.373 234.052C380.855 235.469 388.536 239.391 393.494 243.803C402.21 250.613 402.264 251.375 402.291 251.811C402.319 252.056 402.21 252.383 402.019 252.547C396.571 258.294 388.918 260.146 381.291 260.146ZM334.96 226.698C337.166 231.737 345.937 248.625 353.454 251.947C356.75 253.418 385.785 265.702 400.33 251.866C399.186 250.695 395.673 247.78 392.459 245.274C387.665 241.025 380.311 237.266 374.1 235.905L369.879 234.978C369.116 234.815 368.571 234.161 368.544 233.371C368.381 229.858 366.147 221.877 365.466 219.535C365.194 218.636 365.711 217.71 366.61 217.437C367.536 217.138 369.143 216.457 369.606 215.013C369.879 214.115 369.742 213.216 369.552 213.134C369.443 213.079 368.898 213.079 368.135 213.706C367.645 214.115 366.991 214.196 366.392 213.951C365.82 213.706 365.412 213.161 365.357 212.535C365.276 211.69 365.276 211.009 365.384 210.492C361.489 208.313 362.225 205.099 362.715 202.974C362.933 202.076 363.124 201.149 362.879 200.768C362.742 200.55 362.361 200.414 362.061 200.332C361.68 200.55 361.326 200.714 361.026 200.85C360.563 201.068 360.182 201.258 359.692 201.585C359.093 201.994 358.357 202.865 357.595 203.791C356.233 205.453 354.68 207.305 352.746 207.932C352.746 208.149 352.855 208.286 353.128 208.64C353.237 208.776 353.373 208.939 353.482 209.103C353.809 209.593 353.836 210.22 353.591 210.764C353.345 211.255 352.991 212.181 352.61 213.161C352.256 214.087 351.82 215.15 351.439 216.021C351.139 216.729 351.412 217.546 352.065 217.901C352.91 218.336 353.836 218.718 354.844 218.99C355.307 219.126 355.688 219.399 355.906 219.807C356.696 221.224 359.093 226.181 357.486 230.729C357.186 231.547 356.342 232.01 355.497 231.846L334.96 226.698Z" fill="black"/>
<path d="M358.411 221.496C357.349 221.496 356.123 221.332 354.843 220.842C354.38 220.679 354.135 220.134 354.326 219.671C354.489 219.208 355.034 218.963 355.497 219.153C358.52 220.297 361.135 219.262 361.162 219.235C361.625 219.044 362.143 219.262 362.334 219.725C362.524 220.188 362.306 220.706 361.843 220.897C361.734 220.951 360.373 221.496 358.411 221.496Z" fill="black"/>
<path d="M377.206 201.068C377.206 201.068 378.622 192.461 385.459 194.803C392.268 197.118 385.677 204.2 380.501 204.745C375.354 205.289 377.206 201.068 377.206 201.068Z" fill="black"/>
<path d="M260.956 192.951C260.956 192.951 258.613 188.021 258.232 185.651C257.251 179.768 255.209 172.387 250.905 167.457C249.38 165.713 247.473 164.352 243.851 163.997C238.948 163.507 232.193 159.176 231.267 163.725C230.45 167.647 236.905 167.048 239.302 169.881C240.555 171.352 245.948 177.398 242.298 180.449C239.683 182.628 236.551 181.675 235.761 183.145C235.325 183.963 235.516 184.943 236.142 185.651C238.185 188.048 244.341 185.733 244.341 185.733C245.594 185.216 247.092 186.741 247.8 187.912L252.866 196.029L260.956 192.951Z" fill="white"/>
<path d="M252.512 197.118L247.037 188.375C246.302 187.204 245.185 186.359 244.695 186.55C243.959 186.822 237.831 189.029 235.461 186.223C234.562 185.188 234.399 183.799 234.971 182.71C235.543 181.647 236.714 181.429 237.967 181.212C239.166 180.994 240.527 180.749 241.726 179.741C242.271 179.278 242.57 178.706 242.652 178.025C242.87 175.437 239.819 171.842 238.811 170.643L238.648 170.453C237.831 169.499 236.333 168.955 234.862 168.437C232.601 167.62 229.769 166.639 230.422 163.534C230.64 162.472 231.158 161.709 231.92 161.246C233.664 160.211 236.36 161.029 239.193 161.927C240.827 162.445 242.516 162.962 243.987 163.099C248.181 163.507 250.197 165.223 251.613 166.857C256.189 172.087 258.232 179.877 259.158 185.488C259.512 187.694 261.773 192.488 261.8 192.542L262.208 193.414L252.512 197.118ZM244.885 184.698C246.438 184.698 247.882 186.305 248.59 187.394L253.275 194.885L259.757 192.433C259.049 190.881 257.687 187.64 257.36 185.787C256.489 180.394 254.527 172.959 250.251 168.056C248.998 166.612 247.337 165.25 243.796 164.896C242.162 164.733 240.364 164.188 238.648 163.643C236.306 162.908 233.909 162.172 232.846 162.799C232.628 162.935 232.329 163.18 232.193 163.888C231.893 165.305 232.901 165.822 235.461 166.721C237.068 167.293 238.893 167.947 240.037 169.281L240.201 169.472C241.453 170.943 244.749 174.838 244.477 178.161C244.368 179.332 243.85 180.34 242.924 181.103C241.345 182.41 239.601 182.737 238.321 182.955C237.531 183.091 236.769 183.227 236.605 183.527C236.306 184.044 236.551 184.643 236.878 185.025C238.212 186.577 242.625 185.379 244.068 184.834C244.313 184.752 244.586 184.698 244.885 184.698Z" fill="black"/>
<path d="M388.346 322.874C388.346 322.874 380.311 317.536 376.007 316.61C373.392 316.038 370.097 317.509 368.408 318.653C367.536 319.225 367.618 320.532 368.571 320.995C370.124 321.758 372.412 322.193 373.556 322.874C376.28 324.509 381.128 336.33 394.828 327.614L393.031 321.077L388.346 322.874Z" fill="white"/>
<path d="M385.677 331.699C380.202 331.699 376.906 327.859 374.809 325.407C374.128 324.617 373.502 323.882 373.093 323.637C372.603 323.337 371.731 323.065 370.832 322.765C369.933 322.466 368.98 322.166 368.19 321.785C367.455 321.431 366.992 320.723 366.937 319.905C366.883 319.088 367.264 318.326 367.945 317.863C370.015 316.473 373.42 315.084 376.225 315.711C380.147 316.582 386.793 320.75 388.482 321.866L392.731 320.259C392.976 320.178 393.249 320.178 393.467 320.287C393.685 320.396 393.875 320.614 393.93 320.859L395.727 327.396C395.836 327.777 395.673 328.186 395.346 328.404C391.506 330.773 388.319 331.699 385.677 331.699ZM374.754 317.372C372.793 317.372 370.451 318.326 368.898 319.388C368.708 319.524 368.68 319.715 368.68 319.796C368.68 319.878 368.708 320.069 368.926 320.178C369.607 320.505 370.478 320.804 371.323 321.049C372.33 321.376 373.284 321.676 373.965 322.084C374.645 322.493 375.299 323.256 376.144 324.236C379.221 327.804 383.825 333.197 393.712 327.205L392.35 322.302L388.618 323.719C388.346 323.828 388.046 323.8 387.801 323.637C387.72 323.582 379.875 318.38 375.762 317.481C375.463 317.4 375.136 317.372 374.754 317.372Z" fill="black"/>
<path d="M249.162 193.087L260.384 188.429C260.384 188.429 286.941 206.733 298.081 211.745C309.793 217.002 337.848 224.737 345.855 226.889C347.108 227.216 347.953 228.332 348.007 229.613C348.171 234.189 349.723 244.784 360.346 247.998C374.537 252.274 383.307 244.73 386.657 240.889C387.638 239.772 389.299 239.582 390.525 240.426C399.405 246.554 431.136 269.924 433.942 291.85C436.965 318.598 393.331 331.427 393.331 331.427L390.144 320.041C390.144 320.041 404.144 311.489 402.51 297.38C399.759 286.948 395.319 284.197 392.105 283.134C390.389 282.562 388.836 283.543 388.591 285.313C387.229 295.173 387.692 302.31 388.237 306.341C388.537 308.547 387.039 310.617 384.86 311.08C355.661 317.045 328.914 307.294 317.719 301.792C313.742 299.831 311.509 295.5 312.19 291.088C313.988 279.512 317.719 265.784 319.789 258.593C320.525 256.088 318.836 253.527 316.221 253.228C310.583 252.574 304.672 251.212 298.68 248.897C260.684 234.134 249.162 193.087 249.162 193.087Z" fill="#FF8787"/>
<path d="M392.731 332.544L389.108 319.633L389.68 319.279C389.817 319.197 403.136 310.862 401.638 297.543C398.968 287.411 394.774 284.959 391.859 284.006C391.288 283.815 390.743 283.87 390.307 284.142C389.871 284.415 389.599 284.878 389.517 285.477C388.182 295.092 388.591 302.065 389.163 306.259C389.517 308.929 387.719 311.462 385.077 312.006C353.155 318.543 325.182 306.477 317.365 302.637C313.007 300.485 310.583 295.8 311.345 291.006C313.17 279.376 316.902 265.594 318.972 258.403C319.244 257.45 319.081 256.442 318.536 255.625C317.991 254.807 317.147 254.29 316.166 254.181C310.011 253.446 304.046 251.975 298.407 249.796C278.524 242.088 265.967 227.161 258.94 215.994C251.314 203.928 248.345 193.496 248.318 193.387L248.1 192.624L260.52 187.449L260.928 187.721C261.201 187.912 287.54 206.052 298.489 210.955C310.092 216.157 337.902 223.838 346.128 226.045C347.762 226.48 348.879 227.924 348.96 229.613C349.124 233.862 350.567 244.103 360.645 247.154C374.455 251.321 382.98 243.776 386.003 240.317C387.284 238.846 389.463 238.601 391.07 239.691C400.63 246.309 432.035 269.597 434.895 291.742C436.175 303.072 429.393 313.668 415.311 322.438C404.797 328.975 393.766 332.271 393.657 332.298L392.731 332.544ZM391.206 320.45L393.957 330.283C400.058 328.294 435.712 315.574 433.043 291.96C430.292 270.551 399.404 247.671 390.007 241.161C389.163 240.562 388.019 240.726 387.338 241.488C384.097 245.193 374.918 253.337 360.1 248.87C348.879 245.492 347.299 234.298 347.108 229.667C347.081 228.768 346.482 228.006 345.61 227.788C337.33 225.554 309.411 217.846 297.699 212.589C287.213 207.904 263.761 191.889 260.248 189.465L250.251 193.632C252.076 199.297 264.715 234.761 299.034 248.08C304.536 250.204 310.365 251.648 316.357 252.356C317.855 252.52 319.19 253.364 320.007 254.617C320.851 255.87 321.096 257.422 320.66 258.893C318.618 266.029 314.886 279.73 313.088 291.279C312.462 295.31 314.478 299.232 318.127 301.03C325.808 304.816 353.318 316.664 384.696 310.236C386.439 309.882 387.61 308.248 387.365 306.504C386.793 302.228 386.385 295.037 387.719 285.232C387.883 284.115 388.455 283.189 389.354 282.617C390.252 282.072 391.342 281.936 392.431 282.317C397.661 284.033 401.256 288.909 403.435 297.189L403.463 297.325C404.934 310.29 393.93 318.598 391.206 320.45Z" fill="black"/>
<path d="M351.902 301.411C351.793 301.411 351.684 301.384 351.548 301.356C328.042 291.714 324.61 265.212 324.583 264.94C324.528 264.45 324.882 263.987 325.373 263.932C325.863 263.878 326.326 264.232 326.38 264.722C326.408 264.967 329.731 290.461 352.229 299.668C352.692 299.858 352.91 300.376 352.719 300.839C352.583 301.193 352.256 301.411 351.902 301.411Z" fill="black"/>
</svg>
