<svg width="100" height="31" viewBox="0 0 100 31" fill="none" xmlns="http://www.w3.org/2000/svg">
<path d="M0.0653177 1.63289C5.07294 1.63289 5.07294 6.85823 10.0588 6.85823C15.0664 6.85823 15.0664 1.63289 20.0523 1.63289C25.0599 1.63289 25.0599 6.85823 30.0457 6.85823C35.0533 6.85823 35.0533 1.63289 40.0392 1.63289C45.0468 1.63289 45.0468 6.85824 50.0327 6.85824C55.0403 6.85824 55.0403 1.63289 60.0261 1.63289C65.0337 1.6329 65.0337 6.85824 70.0196 6.85824C75.0272 6.85824 75.0272 1.6329 80.0131 1.6329C85.0207 1.6329 85.0207 6.85824 90.0065 6.85824C94.9924 6.85824 95.0142 1.6329 100 1.6329M0.0653091 12.9979C5.07293 12.9979 5.07293 18.2233 10.0588 18.2233C15.0664 18.2233 15.0664 12.9979 20.0522 12.9979C25.0599 12.9979 25.0599 18.2233 30.0457 18.2233C35.0533 18.2233 35.0533 12.9979 40.0392 12.998C45.0468 12.998 45.0468 18.2233 50.0327 18.2233C55.0403 18.2233 55.0403 12.998 60.0261 12.998C65.0337 12.998 65.0337 18.2233 70.0196 18.2233C75.0272 18.2233 75.0272 12.998 80.0131 12.998C85.0207 12.998 85.0207 18.2233 90.0065 18.2233C94.9924 18.2233 95.0141 12.998 100 12.998M0.0653081 24.3413C5.07293 24.3413 5.07293 29.5666 10.0588 29.5666C15.0664 29.5666 15.0664 24.3413 20.0522 24.3413C25.0599 24.3413 25.0599 29.5666 30.0457 29.5666C35.0533 29.5666 35.0533 24.3413 40.0392 24.3413C45.0468 24.3413 45.0468 29.5666 50.0327 29.5666C55.0403 29.5666 55.0403 24.3413 60.0261 24.3413C65.0337 24.3413 65.0337 29.5666 70.0196 29.5666C75.0272 29.5666 75.0272 24.3413 80.0131 24.3413C85.0207 24.3413 85.0207 29.5666 90.0065 29.5666C94.9924 29.5667 95.0141 24.3413 100 24.3413" stroke="#3C3C63" stroke-width="2.5" stroke-miterlimit="10"/>
</svg>
