<svg width="276" height="231" viewBox="0 0 276 231" fill="none" xmlns="http://www.w3.org/2000/svg">
<path d="M275.55 96.6563L198.361 164.605L275.55 164.605L275.55 96.6563Z" fill="#00B3FF"/>
<path d="M198.361 164.605L121.14 232.58L198.361 232.58L198.361 164.605Z" fill="#00B3FF"/>
<path d="M121.14 96.6563L43.9508 164.605L121.14 164.605L121.14 96.6563Z" fill="#00B3FF"/>
<path d="M71.6566 95.365L42.4844 121.045L71.6566 121.045L71.6566 95.365Z" fill="#00B3FF"/>
<path d="M198.361 96.6563L121.14 164.605L198.361 164.605L198.361 96.6563Z" fill="#0047FF"/>
<path d="M166.38 96.6559L275.55 96.6559L220.95 48.5922L166.38 96.6559Z" fill="#0047FF"/>
<path d="M275.55 96.6559L275.55 0.528465L220.95 48.5922L275.55 96.6559Z" fill="#287FEA"/>
<path d="M43.9508 232.58L121.14 232.58L198.361 164.605L121.14 164.605L43.9508 232.58Z" fill="#287FEA"/>
<path d="M82.3895 188.362L101.047 171.938L82.3895 171.938L82.3895 188.362Z" fill="#0047FF"/>
</svg>
