<svg width="138" height="112" viewBox="0 0 138 112" fill="none" xmlns="http://www.w3.org/2000/svg">
<g style="mix-blend-mode:luminosity">
<path d="M-0.683229 48.5354L37.9114 82.5095L-0.683228 82.5095L-0.683229 48.5354Z" fill="#00B3FF"/>
<path d="M37.9114 82.5097L76.5217 116.498L37.9114 116.498L37.9114 82.5097Z" fill="#00B3FF"/>
<path d="M76.5217 48.5354L115.116 82.5095L76.5217 82.5095L76.5217 48.5354Z" fill="#00B3FF"/>
<path d="M101.263 47.8899L115.85 60.7297L101.263 60.7297L101.263 47.8899Z" fill="#00B3FF"/>
<path d="M37.9114 48.5354L76.5217 82.5095L37.9114 82.5095L37.9114 48.5354Z" fill="#0047FF"/>
<path d="M53.9015 48.5354L-0.683228 48.5354L26.617 24.5036L53.9015 48.5354Z" fill="#0047FF"/>
<path d="M-0.683228 48.5354L-0.68323 0.471691L26.6169 24.5036L-0.683228 48.5354Z" fill="#287FEA"/>
<path d="M115.116 116.498L76.5217 116.498L37.9114 82.5097L76.5217 82.5097L115.116 116.498Z" fill="#287FEA"/>
<path d="M95.897 94.3882L86.5681 86.1762L95.897 86.1762L95.897 94.3882Z" fill="#0047FF"/>
</g>
</svg>
