<svg width="127" height="141" viewBox="0 0 127 141" fill="none" xmlns="http://www.w3.org/2000/svg">
<g style="mix-blend-mode:luminosity">
<path d="M129.092 45.3879L93.0705 77.0972L129.092 77.0972L129.092 45.3879Z" fill="#00B3FF"/>
<path d="M93.0705 77.097L57.0343 108.819L93.0705 108.819L93.0705 77.097Z" fill="#00B3FF"/>
<path d="M57.0342 45.3879L21.0126 77.0972L57.0342 77.0972L57.0342 45.3879Z" fill="#00B3FF"/>
<path d="M33.942 44.7854L20.3283 56.7693L33.942 56.7693L33.942 44.7854Z" fill="#00B3FF"/>
<path d="M14.1547 128.544L0.541032 140.528L14.1547 140.528L14.1547 128.544Z" fill="#0047FF"/>
<path d="M93.0705 45.3879L57.0343 77.0972L93.0705 77.0972L93.0705 45.3879Z" fill="#0047FF"/>
<path d="M78.1464 45.3877L129.092 45.3877L103.612 22.958L78.1464 45.3877Z" fill="#0047FF"/>
<path d="M129.092 45.3877L129.092 0.528236L103.612 22.958L129.092 45.3877Z" fill="#287FEA"/>
<path d="M93.0704 140.528L129.092 108.819L93.0704 108.819L93.0704 140.528Z" fill="#0047FF"/>
<path d="M21.0126 140.528L57.0343 108.819L21.0126 108.819L21.0126 140.528Z" fill="#00B3FF"/>
<path d="M21.0126 108.819L57.0343 108.819L93.0705 77.097L57.0343 77.097L21.0126 108.819Z" fill="#287FEA"/>
<path d="M21.0126 140.528L57.0343 140.528L93.0705 108.819L57.0343 108.819L21.0126 140.528Z" fill="#0047FF"/>
<path d="M38.9507 88.1836L47.6576 80.519L38.9507 80.519L38.9507 88.1836Z" fill="#0047FF"/>
</g>
</svg>
