<svg width="487" height="537" viewBox="0 0 487 537" fill="none" xmlns="http://www.w3.org/2000/svg">
<g opacity="0.5" clip-path="url(#clip0_198_3924)">
<path opacity="0.84" d="M-2.75673 472.378C4.5496 466.55 5.62258 455.852 -0.268705 448.706L-46.2764 391.983C-52.1043 384.677 -62.8033 383.603 -69.9493 389.493L-126.674 435.495C-133.98 441.322 -135.053 452.02 -129.162 459.166L-83.154 515.89C-77.3261 523.196 -66.627 524.269 -59.4811 518.379L-2.75673 472.378Z" fill="#E8E8E8"/>
<path opacity="0.71" d="M85.9415 581.549C93.2478 575.722 94.3208 565.023 88.4295 557.877L42.4219 501.154C36.5939 493.848 25.8949 492.774 18.7489 498.665L-37.9754 544.666C-45.2817 550.493 -46.3547 561.192 -40.4634 568.338L5.54422 625.061C11.3722 632.367 22.0712 633.441 29.2172 627.55L85.9415 581.549Z" fill="#E8E8E8"/>
<path opacity="0.41" d="M14.3986 277.289C21.7049 271.461 22.7779 260.763 16.8866 253.617L-29.1211 196.894C-34.949 189.588 -45.6481 188.514 -52.794 194.405L-109.518 240.406C-116.825 246.233 -117.898 256.931 -112.006 264.077L-65.9987 320.801C-60.1708 328.107 -49.4717 329.181 -42.3258 323.29L14.3986 277.289Z" fill="#E8E8E8"/>
<path opacity="0.54" d="M103.034 386.62C110.341 380.793 111.414 370.095 105.522 362.949L59.5147 306.226C53.6867 298.919 42.9876 297.846 35.8417 303.736L-20.8826 349.738C-28.1889 355.565 -29.2619 366.263 -23.3706 373.409L22.637 430.133C28.465 437.439 39.164 438.512 46.31 432.622L103.034 386.62Z" fill="#E8E8E8"/>
<path opacity="0.68" d="M191.732 495.792C199.038 489.964 200.111 479.266 194.22 472.12L148.212 415.397C142.384 408.091 131.685 407.017 124.539 412.907L67.8146 458.909C60.5083 464.736 59.4353 475.434 65.3266 482.58L111.334 539.304C117.162 546.61 127.861 547.683 135.007 541.793L191.732 495.792Z" fill="#E8E8E8"/>
<path opacity="0.88" d="M280.368 605.123C287.675 599.295 288.748 588.597 282.856 581.451L236.849 524.728C231.021 517.422 220.322 516.348 213.176 522.238L156.451 568.24C149.145 574.067 148.072 584.765 153.963 591.911L199.971 648.635C205.799 655.941 216.498 657.014 223.644 651.124L280.368 605.123Z" fill="#E8E8E8"/>
<path opacity="0.19" d="M120.03 191.467C127.337 185.64 128.41 174.942 122.518 167.796L76.5108 111.072C70.6828 103.766 59.9838 102.693 52.8378 108.583L-3.88649 154.585C-11.1928 160.412 -12.2658 171.11 -6.37453 178.256L39.6331 234.979C45.4611 242.286 56.1601 243.359 63.3061 237.469L120.03 191.467Z" fill="#E8E8E8"/>
<path opacity="0.78" d="M208.729 300.639C216.035 294.811 217.108 284.113 211.217 276.967L165.209 220.244C159.381 212.938 148.682 211.864 141.536 217.755L84.8117 263.756C77.5054 269.583 76.4324 280.281 82.3237 287.427L128.331 344.151C134.159 351.457 144.858 352.531 152.004 346.64L208.729 300.639Z" fill="#E8E8E8"/>
<path opacity="0.58" d="M297.363 409.97C304.67 404.143 305.743 393.445 299.851 386.299L253.844 329.575C248.016 322.269 237.317 321.196 230.171 327.086L173.446 373.088C166.14 378.915 165.067 389.613 170.958 396.759L216.966 453.482C222.794 460.789 233.493 461.862 240.639 455.972L297.363 409.97Z" fill="#E8E8E8"/>
<path opacity="0.7" d="M386.062 519.142C393.368 513.314 394.441 502.616 388.55 495.47L342.542 438.747C336.714 431.441 326.015 430.367 318.869 436.257L262.145 482.259C254.838 488.086 253.765 498.784 259.657 505.93L305.664 562.654C311.492 569.96 322.191 571.033 329.337 565.143L386.062 519.142Z" fill="#E8E8E8"/>
<path opacity="0.68" d="M-9.83053 545.215C-5.14114 541.321 -4.43568 534.37 -8.17047 529.744L-38.2092 492.673C-42.1044 487.983 -49.0556 487.278 -53.6817 491.012L-90.7536 521.046C-95.443 524.941 -96.1485 531.892 -92.4137 536.518L-62.3749 573.589C-58.4798 578.279 -51.5285 578.984 -46.9025 575.25L-9.83053 545.215Z" fill="#E8E8E8"/>
<path opacity="0.78" d="M1.41653 417.675C6.10593 413.781 6.81137 406.83 3.07657 402.204L-26.9621 365.132C-30.8573 360.443 -37.8086 359.737 -42.4346 363.472L-79.5066 393.506C-84.196 397.401 -84.9014 404.352 -81.1666 408.978L-51.1279 446.049C-47.2327 450.738 -40.2815 451.444 -35.6554 447.71L1.41653 417.675Z" fill="#E8E8E8"/>
<path opacity="0.58" d="M59.3999 489.138C64.0893 485.243 64.7948 478.292 61.06 473.666L31.0213 436.595C27.1261 431.906 20.1748 431.2 15.5488 434.934L-21.5232 464.969C-26.2125 468.864 -26.918 475.814 -23.1832 480.44L6.85554 517.512C10.7507 522.201 17.7019 522.907 22.328 519.172L59.3999 489.138Z" fill="#E8E8E8"/>
<path opacity="0.7" d="M117.384 560.6C122.074 556.706 122.779 549.755 119.044 545.129L89.0056 508.058C85.1105 503.368 78.1592 502.662 73.5331 506.397L36.4612 536.431C31.7718 540.326 31.0664 547.277 34.8012 551.903L64.8399 588.974C68.7351 593.663 75.6863 594.369 80.3124 590.635L117.384 560.6Z" fill="#E8E8E8"/>
<path opacity="0.84" d="M-7.25962 489.879C-2.85725 486.242 -2.18139 479.835 -5.81913 475.433L-33.6043 441.105C-37.2421 436.703 -43.6488 436.027 -48.0512 439.664L-82.3796 467.445C-86.7819 471.083 -87.4578 477.489 -83.8201 481.891L-56.0349 516.219C-52.3971 520.622 -45.9904 521.298 -41.588 517.66L-7.25962 489.879Z" fill="#D9D9D9"/>
<path opacity="0.71" d="M46.4757 556.142C50.8781 552.505 51.554 546.098 47.9162 541.696L20.131 507.368C16.4933 502.966 10.0865 502.29 5.68415 505.927L-28.6442 533.708C-33.0466 537.346 -33.7225 543.752 -30.0847 548.154L-2.29952 582.482C1.33823 586.884 7.74499 587.561 12.1474 583.923L46.4757 556.142Z" fill="#D9D9D9"/>
<path opacity="0.41" d="M3.09975 371.628C7.50213 367.99 8.17799 361.584 4.54025 357.182L-23.2449 322.854C-26.8827 318.452 -33.2895 317.775 -37.6918 321.413L-72.0202 349.194C-76.4226 352.831 -77.0984 359.238 -73.4607 363.64L-45.6755 397.968C-42.0378 402.37 -35.631 403.046 -31.2286 399.409L3.09975 371.628Z" fill="#D9D9D9"/>
<path opacity="0.54" d="M56.8351 437.89C61.2375 434.253 61.9133 427.846 58.2756 423.444L30.4904 389.116C26.8527 384.714 20.4459 384.038 16.0435 387.675L-18.2848 415.456C-22.6872 419.094 -23.3631 425.5 -19.7253 429.902L8.05987 464.23C11.6976 468.633 18.1044 469.309 22.5067 465.671L56.8351 437.89Z" fill="#D9D9D9"/>
<path opacity="0.68" d="M110.569 504.153C114.972 500.515 115.648 494.109 112.01 489.707L84.2248 455.379C80.587 450.977 74.1803 450.3 69.7779 453.938L35.4495 481.719C31.0472 485.356 30.3713 491.763 34.009 496.165L61.7942 530.493C65.432 534.895 71.8387 535.571 76.2411 531.934L110.569 504.153Z" fill="#D9D9D9"/>
<path opacity="0.88" d="M164.208 570.192C168.611 566.555 169.286 560.148 165.649 555.746L137.863 521.418C134.226 517.016 127.819 516.34 123.417 519.977L89.0882 547.759C84.6858 551.396 84.01 557.802 87.6477 562.204L115.433 596.532C119.071 600.935 125.477 601.611 129.88 597.974L164.208 570.192Z" fill="#D9D9D9"/>
<path opacity="0.81" d="M13.3957 253.537C17.798 249.899 18.4739 243.493 14.8361 239.091L-12.9491 204.763C-16.5868 200.36 -22.9936 199.684 -27.3959 203.322L-61.7243 231.103C-66.1267 234.74 -66.8025 241.147 -63.1648 245.549L-35.3796 279.877C-31.7419 284.279 -25.3351 284.955 -20.9327 281.318L13.3957 253.537Z" fill="#D9D9D9"/>
<path opacity="0.19" d="M67.1945 319.639C71.5969 316.001 72.2727 309.595 68.635 305.193L40.8498 270.865C37.2121 266.463 30.8053 265.786 26.4029 269.424L-7.92547 297.205C-12.3278 300.842 -13.0037 307.249 -9.36594 311.651L18.4192 345.979C22.057 350.381 28.4637 351.057 32.8661 347.42L67.1945 319.639Z" fill="#D9D9D9"/>
<path opacity="0.78" d="M120.929 385.901C125.331 382.264 126.007 375.858 122.369 371.455L94.5841 337.128C90.9464 332.725 84.5397 332.049 80.1373 335.686L45.8089 363.468C41.4065 367.105 40.7307 373.511 44.3684 377.914L72.1536 412.241C75.7914 416.644 82.1981 417.32 86.6005 413.683L120.929 385.901Z" fill="#D9D9D9"/>
<path opacity="0.58" d="M174.503 452.1C178.905 448.463 179.581 442.057 175.944 437.654L148.158 403.326C144.521 398.924 138.114 398.248 133.711 401.885L99.3831 429.667C94.9807 433.304 94.3049 439.71 97.9426 444.113L125.888 478.504C129.526 482.906 135.933 483.582 140.335 479.945L174.503 452.1Z" fill="#D9D9D9"/>
<path opacity="0.7" d="M228.302 518.203C232.704 514.566 233.38 508.16 229.742 503.757L201.957 469.429C198.319 465.027 191.913 464.351 187.51 467.988L153.182 495.77C148.78 499.407 148.104 505.813 151.741 510.216L179.527 544.543C183.164 548.946 189.571 549.622 193.974 545.985L228.302 518.203Z" fill="#D9D9D9"/>
<path opacity="0.88" d="M23.6444 577.341C26.6116 574.991 26.9454 570.859 24.5948 567.892L6.37238 545.496C4.02178 542.529 -0.110132 542.195 -3.0774 544.545L-25.4734 562.765C-28.4406 565.116 -28.7744 569.247 -26.4238 572.215L-8.20138 594.61C-5.85078 597.577 -1.71889 597.911 1.24838 595.561L23.6444 577.341Z" fill="#D9D9D9"/>
<path opacity="0.78" d="M-4.74919 456.763C-1.78192 454.413 -1.44813 450.281 -3.79873 447.314L-22.0212 424.918C-24.3718 421.951 -28.5037 421.617 -31.471 423.967L-53.8669 442.187C-56.8342 444.537 -57.168 448.669 -54.8174 451.636L-36.5949 474.032C-34.2443 476.999 -30.1124 477.333 -27.1452 474.983L-4.74919 456.763Z" fill="#D9D9D9"/>
<path opacity="0.58" d="M30.408 500.119C33.3753 497.769 33.7091 493.637 31.3585 490.67L13.136 468.274C10.7855 465.307 6.65354 464.973 3.68627 467.323L-18.7097 485.543C-21.677 487.893 -22.0107 492.025 -19.6601 494.992L-1.43771 517.388C0.91289 520.355 5.0448 520.689 8.01207 518.339L30.408 500.119Z" fill="#D9D9D9"/>
<path opacity="0.7" d="M65.4686 543.251C68.4358 540.901 68.7696 536.77 66.419 533.802L48.1966 511.407C45.846 508.439 41.7141 508.105 38.7468 510.456L16.3509 528.676C13.3836 531.026 13.0498 535.158 15.4004 538.125L33.6228 560.52C35.9734 563.488 40.1054 563.822 43.0726 561.471L65.4686 543.251Z" fill="#D9D9D9"/>
</g>
<defs>
<clipPath id="clip0_198_3924">
<rect width="736.779" height="814.991" fill="white" transform="matrix(-0.930112 -0.367276 -0.367276 0.930112 486.613 270.601)"/>
</clipPath>
</defs>
</svg>
