<svg width="111" height="124" viewBox="0 0 111 124" fill="none" xmlns="http://www.w3.org/2000/svg">
<path d="M0.868651 51.3587L37.0419 87.5978L0.868652 87.5978L0.868651 51.3587Z" fill="#00B3FF"/>
<path d="M37.0419 87.5983L73.2298 123.852L37.0419 123.852L37.0419 87.5983Z" fill="#00B3FF"/>
<path d="M73.2298 51.3587L109.403 87.5978L73.2298 87.5978L73.2298 51.3587Z" fill="#00B3FF"/>
<path d="M96.4192 50.67L110.09 64.3658L96.4192 64.3658L96.4192 50.67Z" fill="#0047FF"/>
<path d="M37.0418 51.3587L73.2297 87.5978L37.0418 87.5978L37.0418 51.3587Z" fill="#0047FF"/>
<path d="M52.0288 51.3591L0.868713 51.3591L26.4561 25.7252L52.0288 51.3591Z" fill="#0047FF"/>
<path d="M0.868713 51.3591L0.868711 0.0911751L26.4561 25.7252L0.868713 51.3591Z" fill="#287FEA"/>
<path d="M109.403 123.852L73.2298 123.852L37.0419 87.5983L73.2298 87.5983L109.403 123.852Z" fill="#287FEA"/>
<path d="M91.3895 100.269L82.6459 91.5093L91.3895 91.5093L91.3895 100.269Z" fill="#0047FF"/>
</svg>
