<svg width="363" height="240" viewBox="0 0 363 240" fill="none" xmlns="http://www.w3.org/2000/svg">
<path d="M150.877 51.4187C188.367 54.7348 228.549 73.6908 256.728 101.392C281.972 126.215 316.554 186.233 364.848 185.266C388.56 184.795 401.447 167.015 420.251 157.903C487.095 125.535 558.948 207.217 618.049 230.751C692.619 260.443 726.926 209.28 680.526 154.548C659.198 129.39 627.936 111.562 597.683 95.0767C470.194 25.5894 339.362 -37.3087 206.424 -92.9547C99.845 -137.593 50.2234 -133.553 9.7014 -30.8535C-0.369986 -5.31611 -14.2813 54.5482 40.3297 71.7232C73.785 82.2253 90.7706 46.1168 150.877 51.4187Z" fill="#F4F6FC"/>
</svg>
