<svg width="490" height="300" viewBox="0 0 490 300" fill="none" xmlns="http://www.w3.org/2000/svg">
<path d="M341.692 226.97C304.566 220.791 265.954 198.812 239.98 169.033C216.712 142.349 186.829 79.859 138.604 77.1227C114.925 75.7763 100.714 92.5166 81.267 100.161C12.1401 127.313 -53.2444 40.3657 -110.368 12.3731C-182.444 -22.9442 -220.571 25.4399 -178.5 83.5664C-159.162 110.284 -129.357 130.455 -100.456 149.209C21.3339 228.259 146.963 300.996 275.247 366.663C378.093 419.335 427.878 419.109 476.149 319.816C488.147 295.125 506.604 236.502 453.469 215.194C420.917 202.16 401.215 236.861 341.692 226.97Z" fill="#F4F6FC"/>
</svg>
