<svg width="407" height="387" viewBox="0 0 407 387" fill="none" xmlns="http://www.w3.org/2000/svg">
<path d="M459.655 353.653L459.653 353.651C442.035 339.975 421.185 332.614 399.284 327.898C383.582 324.518 367.237 322.48 351.117 320.47C344.794 319.682 338.505 318.898 332.303 318.039C288.09 311.914 248.109 301.951 227.61 260.127C222.836 250.369 218.431 240.981 214.245 232.062C209.569 222.097 205.167 212.717 200.834 204.063C192.586 187.591 184.426 173.405 174.69 162.039C164.933 150.648 153.591 142.084 139 136.858C124.429 131.639 106.714 129.782 84.2545 131.648C55.5318 134.027 34.0921 128.243 20.3 117.047C6.55373 105.887 0.179958 89.1703 1.91208 69.1273C5.38819 28.9044 41.5697 -24.5379 115.965 -71.1609C137.614 -84.7212 156.673 -97.8517 174.019 -109.802C183.802 -116.542 193.041 -122.907 201.891 -128.762C226.507 -145.044 248.213 -157.447 270.77 -163.474C315.695 -175.479 364.532 -162.32 447.038 -101.992C505.331 -59.3573 568.433 -50.8064 619.015 -43.9523C621.543 -43.6097 624.04 -43.2713 626.504 -42.9332C652.467 -39.3693 674.529 -35.8478 690.566 -27.7898C698.545 -23.7805 704.973 -18.6736 709.63 -11.9237C714.286 -5.17565 717.237 3.3071 718.12 14.1684C722.499 68.0421 696.687 102.934 668.094 134.956C664.502 138.979 660.861 142.963 657.229 146.935C646.443 158.734 635.745 170.436 626.694 182.792C614.566 199.35 605.28 217.222 602.515 238.393C599.793 259.237 596.701 282.572 591.763 304.449C586.821 326.346 580.061 346.635 570.079 361.443C560.133 376.199 547.077 385.405 529.434 385.499C511.661 385.594 488.914 376.455 459.655 353.653Z" stroke="#242544" stroke-width="3"/>
</svg>
