<svg width="99" height="40" viewBox="0 0 99 40" fill="none" xmlns="http://www.w3.org/2000/svg">
<path d="M98.1228 37.813C93.206 37.813 93.206 31.1137 88.3105 31.1137C83.3937 31.1137 83.3937 37.813 78.4982 37.813C73.5814 37.813 73.5814 31.1137 68.686 31.1137C63.7691 31.1137 63.7691 37.813 58.8737 37.813C53.9569 37.813 53.9569 31.1137 49.0614 31.1137C44.1446 31.1137 44.1446 37.813 39.2491 37.813C34.3323 37.813 34.3323 31.1137 29.4368 31.1137C24.52 31.1137 24.52 37.813 19.6246 37.813C14.7077 37.813 14.7077 31.1137 9.81228 31.1137C4.91683 31.1137 4.89545 37.813 1.31211e-06 37.813M98.1228 23.2422C93.206 23.2422 93.206 16.5429 88.3105 16.5429C83.3937 16.5429 83.3937 23.2421 78.4982 23.2421C73.5814 23.2421 73.5814 16.5429 68.686 16.5429C63.7691 16.5429 63.7691 23.2421 58.8737 23.2421C53.9569 23.2421 53.9569 16.5429 49.0614 16.5429C44.1446 16.5429 44.1446 23.2421 39.2491 23.2421C34.3323 23.2421 34.3323 16.5429 29.4368 16.5429C24.52 16.5429 24.52 23.2421 19.6246 23.2421C14.7077 23.2421 14.7077 16.5429 9.81228 16.5429C4.91683 16.5429 4.89545 23.2421 1.31211e-06 23.2421M98.1228 8.69924C93.206 8.69924 93.206 2 88.3105 2C83.3937 2 83.3937 8.69924 78.4982 8.69923C73.5814 8.69923 73.5814 2 68.686 2C63.7691 2 63.7691 8.69923 58.8737 8.69923C53.9569 8.69923 53.9569 2 49.0614 2C44.1446 2 44.1446 8.69923 39.2491 8.69923C34.3323 8.69923 34.3323 2 29.4368 2C24.52 2 24.52 8.69923 19.6246 8.69923C14.7077 8.69923 14.7077 2 9.81228 2C4.91683 2 4.89545 8.69923 0 8.69923" stroke="#0047FF" stroke-width="3" stroke-miterlimit="10"/>
</svg>
