<svg width="122" height="112" viewBox="0 0 122 112" fill="none" xmlns="http://www.w3.org/2000/svg">
<path d="M102.068 1.93285C102.07 2.31702 101.96 2.69304 101.753 3.01327C101.546 3.3335 101.251 3.58354 100.905 3.73171C100.559 3.87988 100.177 3.91951 99.8095 3.84558C99.4414 3.77165 99.1031 3.5875 98.8374 3.31644C98.5716 3.04538 98.3904 2.69961 98.3166 2.32294C98.2428 1.94628 98.2799 1.55566 98.423 1.20057C98.5661 0.845484 98.8089 0.541906 99.1207 0.328297C99.4324 0.114687 99.799 0.000658158 100.174 0.000654559C100.422 -0.000451738 100.669 0.0487095 100.898 0.145316C101.128 0.241923 101.337 0.384072 101.513 0.563603C101.689 0.743134 101.829 0.956512 101.924 1.19149C102.019 1.42646 102.068 1.6784 102.068 1.93285Z" fill="#6F7494"/>
<path d="M121.382 1.93285C121.383 2.31702 121.274 2.69304 121.066 3.01327C120.859 3.3335 120.564 3.58354 120.218 3.73171C119.872 3.87988 119.491 3.91951 119.123 3.84558C118.755 3.77165 118.416 3.5875 118.151 3.31644C117.885 3.04538 117.704 2.69961 117.63 2.32294C117.556 1.94628 117.593 1.55566 117.736 1.20057C117.879 0.845484 118.122 0.541906 118.434 0.328297C118.746 0.114687 119.112 0.000658158 119.487 0.000654559C119.988 0.00064975 120.469 0.203951 120.824 0.566069C121.179 0.928187 121.379 1.41963 121.382 1.93285Z" fill="#6F7494"/>
<path d="M102.068 17.34C102.07 17.7242 101.96 18.1002 101.753 18.4204C101.546 18.7407 101.251 18.9907 100.905 19.1389C100.559 19.287 100.177 19.3267 99.8095 19.2528C99.4414 19.1788 99.1031 18.9947 98.8374 18.7236C98.5716 18.4525 98.3904 18.1068 98.3166 17.7301C98.2428 17.3534 98.2799 16.9628 98.423 16.6077C98.5661 16.2527 98.8089 15.9491 99.1207 15.7355C99.4324 15.5219 99.799 15.4078 100.174 15.4078C100.422 15.4067 100.669 15.4559 100.898 15.5525C101.128 15.6491 101.337 15.7912 101.513 15.9708C101.689 16.1503 101.829 16.3637 101.924 16.5987C102.019 16.8336 102.068 17.0856 102.068 17.34Z" fill="#6F7494"/>
<path d="M121.382 17.34C121.383 17.7242 121.274 18.1002 121.066 18.4204C120.859 18.7407 120.564 18.9907 120.218 19.1389C119.872 19.287 119.491 19.3267 119.123 19.2528C118.755 19.1788 118.416 18.9947 118.151 18.7236C117.885 18.4525 117.704 18.1068 117.63 17.7301C117.556 17.3534 117.593 16.9628 117.736 16.6077C117.879 16.2527 118.122 15.9491 118.434 15.7355C118.746 15.5219 119.112 15.4078 119.487 15.4078C119.988 15.4078 120.469 15.6111 120.824 15.9732C121.179 16.3354 121.379 16.8268 121.382 17.34Z" fill="#6F7494"/>
<path d="M102.068 32.764C102.068 33.1478 101.957 33.523 101.749 33.8421C101.541 34.1613 101.245 34.41 100.899 34.5569C100.553 34.7038 100.172 34.7422 99.8044 34.6673C99.4369 34.5924 99.0994 34.4076 98.8344 34.1362C98.5695 33.8648 98.3891 33.519 98.316 33.1426C98.2429 32.7661 98.2804 32.376 98.4238 32.0214C98.5672 31.6668 98.81 31.3637 99.1215 31.1504C99.433 30.9372 99.7993 30.8234 100.174 30.8234C100.423 30.8223 100.67 30.8717 100.9 30.9689C101.131 31.066 101.34 31.2089 101.516 31.3893C101.692 31.5697 101.832 31.7841 101.926 32.02C102.021 32.256 102.069 32.5088 102.068 32.764Z" fill="#6F7494"/>
<path d="M121.382 32.764C121.382 33.1478 121.271 33.523 121.062 33.8421C120.854 34.1613 120.558 34.41 120.212 34.5569C119.866 34.7038 119.485 34.7422 119.118 34.6673C118.75 34.5924 118.413 34.4076 118.148 34.1362C117.883 33.8648 117.702 33.519 117.629 33.1426C117.556 32.7661 117.594 32.376 117.737 32.0214C117.88 31.6668 118.123 31.3637 118.435 31.1504C118.746 30.9372 119.113 30.8234 119.487 30.8234C119.99 30.8234 120.472 31.0279 120.827 31.3918C121.182 31.7557 121.382 32.2493 121.382 32.764Z" fill="#6F7494"/>
<path d="M102.068 48.1628C102.065 48.5458 101.951 48.9194 101.741 49.2363C101.531 49.5532 101.234 49.7993 100.888 49.9436C100.541 50.0879 100.161 50.124 99.7944 50.0472C99.4281 49.9704 99.092 49.7843 98.8287 49.5122C98.5654 49.2402 98.3866 48.8944 98.3149 48.5184C98.2431 48.1424 98.2815 47.7531 98.4254 47.3995C98.5692 47.0459 98.8121 46.7438 99.1232 46.5313C99.4344 46.3188 99.8 46.2054 100.174 46.2054C100.424 46.2054 100.672 46.2561 100.903 46.3547C101.134 46.4532 101.343 46.5977 101.519 46.7797C101.696 46.9617 101.835 47.1776 101.929 47.415C102.023 47.6524 102.071 47.9065 102.068 48.1628Z" fill="#6F7494"/>
<path d="M121.382 48.1628C121.378 48.5458 121.265 48.9194 121.054 49.2363C120.844 49.5532 120.547 49.7993 120.201 49.9436C119.854 50.0879 119.474 50.124 119.108 50.0472C118.741 49.9704 118.405 49.7843 118.142 49.5122C117.879 49.2402 117.7 48.8944 117.628 48.5184C117.556 48.1424 117.595 47.7531 117.739 47.3995C117.882 47.0459 118.125 46.7438 118.436 46.5313C118.748 46.3188 119.113 46.2054 119.487 46.2054C119.737 46.2065 119.984 46.258 120.215 46.3569C120.445 46.4559 120.654 46.6004 120.83 46.7821C121.006 46.9639 121.145 47.1794 121.24 47.4163C121.335 47.6532 121.383 47.9068 121.382 48.1628Z" fill="#6F7494"/>
<path d="M23.7888 62.6438C23.7905 63.028 23.6807 63.404 23.4736 63.7243C23.2664 64.0445 22.9711 64.2945 22.6251 64.4427C22.2791 64.5909 21.8979 64.6305 21.5299 64.5566C21.1619 64.4826 20.8235 64.2985 20.5578 64.0274C20.292 63.7564 20.1108 63.4106 20.037 63.0339C19.9633 62.6573 20.0003 62.2666 20.1434 61.9115C20.2866 61.5565 20.5294 61.2529 20.8411 61.0393C21.1528 60.8257 21.5194 60.7116 21.8944 60.7116C22.1428 60.7105 22.389 60.7597 22.6188 60.8563C22.8486 60.9529 23.0575 61.095 23.2335 61.2746C23.4095 61.4541 23.5492 61.6675 23.6445 61.9025C23.7398 62.1374 23.7888 62.3894 23.7888 62.6438Z" fill="#6F7494"/>
<path d="M43.1021 62.6438C43.1037 63.028 42.994 63.404 42.7868 63.7243C42.5796 64.0445 42.2843 64.2945 41.9383 64.4427C41.5923 64.5909 41.2111 64.6305 40.8431 64.5566C40.4751 64.4826 40.1368 64.2985 39.871 64.0274C39.6053 63.7564 39.424 63.4106 39.3503 63.0339C39.2765 62.6573 39.3135 62.2666 39.4567 61.9115C39.5998 61.5565 39.8426 61.2529 40.1543 61.0393C40.466 60.8257 40.8326 60.7116 41.2077 60.7116C41.7087 60.7116 42.1893 60.9149 42.5443 61.2771C42.8994 61.6392 43.0999 62.1306 43.1021 62.6438Z" fill="#6F7494"/>
<path d="M62.4071 62.6438C62.4071 63.026 62.2965 63.3996 62.0892 63.7173C61.882 64.035 61.5874 64.2827 61.2427 64.4289C60.8981 64.5752 60.5188 64.6135 60.1529 64.5389C59.787 64.4643 59.4509 64.2803 59.1871 64.0101C58.9233 63.7399 58.7437 63.3956 58.6709 63.0208C58.5981 62.646 58.6355 62.2575 58.7783 61.9044C58.921 61.5514 59.1628 61.2496 59.473 61.0373C59.7832 60.825 60.1478 60.7116 60.5209 60.7116C61.0212 60.7116 61.5009 60.9152 61.8547 61.2776C62.2084 61.6399 62.4071 62.1314 62.4071 62.6438Z" fill="#6F7494"/>
<path d="M81.7203 62.6438C81.7218 63.0301 81.6108 63.4081 81.4014 63.7293C81.1919 64.0506 80.8937 64.3005 80.5448 64.447C80.1959 64.5936 79.8122 64.6302 79.4429 64.5521C79.0736 64.474 78.7355 64.2848 78.4717 64.0086C78.208 63.7325 78.0308 63.382 77.9627 63.0021C77.8946 62.6221 77.9387 62.23 78.0894 61.8759C78.2402 61.5218 78.4906 61.2219 78.8087 61.0145C79.1269 60.807 79.4982 60.7016 79.8751 60.7116C80.3683 60.7226 80.8375 60.931 81.1825 61.2922C81.5274 61.6534 81.7205 62.1386 81.7203 62.6438Z" fill="#6F7494"/>
<path d="M23.7888 78.051C23.7905 78.4352 23.6807 78.8112 23.4736 79.1314C23.2664 79.4517 22.9711 79.7017 22.6251 79.8499C22.2791 79.998 21.8979 80.0377 21.5299 79.9637C21.1619 79.8898 20.8235 79.7056 20.5578 79.4346C20.292 79.1635 20.1108 78.8178 20.037 78.4411C19.9633 78.0644 20.0003 77.6738 20.1434 77.3187C20.2866 76.9636 20.5294 76.6601 20.8411 76.4464C21.1528 76.2328 21.5194 76.1188 21.8944 76.1188C22.1428 76.1177 22.389 76.1669 22.6188 76.2635C22.8486 76.3601 23.0575 76.5022 23.2335 76.6818C23.4095 76.8613 23.5492 77.0747 23.6445 77.3096C23.7398 77.5446 23.7888 77.7966 23.7888 78.051Z" fill="#6F7494"/>
<path d="M43.1021 78.051C43.1037 78.4352 42.994 78.8112 42.7868 79.1314C42.5796 79.4517 42.2843 79.7017 41.9383 79.8499C41.5923 79.998 41.2111 80.0377 40.8431 79.9637C40.4751 79.8898 40.1368 79.7056 39.871 79.4346C39.6053 79.1635 39.424 78.8178 39.3503 78.4411C39.2765 78.0644 39.3135 77.6738 39.4567 77.3187C39.5998 76.9636 39.8426 76.6601 40.1543 76.4464C40.466 76.2328 40.8326 76.1188 41.2077 76.1188C41.7087 76.1188 42.1893 76.3221 42.5443 76.6842C42.8994 77.0463 43.0999 77.5378 43.1021 78.051Z" fill="#6F7494"/>
<path d="M62.4071 78.051C62.4071 78.4332 62.2965 78.8067 62.0892 79.1245C61.882 79.4422 61.5874 79.6899 61.2427 79.8361C60.8981 79.9824 60.5188 80.0206 60.1529 79.9461C59.787 79.8715 59.4509 79.6875 59.1871 79.4173C58.9233 79.147 58.7437 78.8028 58.6709 78.428C58.5981 78.0531 58.6355 77.6646 58.7783 77.3116C58.921 76.9585 59.1628 76.6567 59.473 76.4444C59.7832 76.2321 60.1478 76.1188 60.5209 76.1188C61.0212 76.1188 61.5009 76.3224 61.8547 76.6847C62.2084 77.0471 62.4071 77.5386 62.4071 78.051Z" fill="#6F7494"/>
<path d="M81.7203 78.051C81.722 78.4355 81.612 78.8119 81.4045 79.1323C81.197 79.4527 80.9012 79.7027 80.5547 79.8506C80.2082 79.9986 79.8266 80.0377 79.4584 79.9631C79.0901 79.8885 78.7518 79.7035 78.4864 79.4316C78.221 79.1597 78.0404 78.8131 77.9675 78.4359C77.8947 78.0587 77.9329 77.6678 78.0773 77.3129C78.2217 76.9579 78.4658 76.6549 78.7786 76.4423C79.0914 76.2298 79.4588 76.1171 79.8341 76.1188C80.3344 76.1188 80.8142 76.3224 81.1679 76.6847C81.5216 77.0471 81.7203 77.5386 81.7203 78.051Z" fill="#6F7494"/>
<path d="M23.7888 1.93285C23.7905 2.31702 23.6807 2.69304 23.4736 3.01327C23.2664 3.3335 22.9711 3.58354 22.6251 3.73171C22.2791 3.87988 21.8979 3.91951 21.5299 3.84558C21.1619 3.77165 20.8235 3.5875 20.5578 3.31644C20.292 3.04538 20.1108 2.69961 20.037 2.32294C19.9633 1.94628 20.0003 1.55566 20.1434 1.20057C20.2866 0.845484 20.5294 0.541906 20.8411 0.328297C21.1528 0.114687 21.5194 0.000658158 21.8944 0.000654559C22.1428 -0.000451738 22.389 0.0487095 22.6188 0.145316C22.8486 0.241923 23.0575 0.384072 23.2335 0.563603C23.4095 0.743134 23.5492 0.956512 23.6445 1.19149C23.7398 1.42646 23.7888 1.6784 23.7888 1.93285Z" fill="#6F7494"/>
<path d="M43.1021 1.93285C43.1037 2.31702 42.994 2.69304 42.7868 3.01327C42.5796 3.3335 42.2843 3.58354 41.9383 3.73171C41.5923 3.87988 41.2111 3.91951 40.8431 3.84558C40.4751 3.77165 40.1368 3.5875 39.871 3.31644C39.6053 3.04538 39.424 2.69961 39.3503 2.32294C39.2765 1.94628 39.3135 1.55566 39.4567 1.20057C39.5998 0.845484 39.8426 0.541906 40.1543 0.328297C40.466 0.114687 40.8326 0.000658158 41.2077 0.000654559C41.7087 0.00064975 42.1893 0.203951 42.5443 0.566069C42.8994 0.928187 43.0999 1.41963 43.1021 1.93285Z" fill="#6F7494"/>
<path d="M62.4071 1.93285C62.4071 2.315 62.2965 2.68857 62.0892 3.00632C61.882 3.32407 61.5874 3.57173 61.2427 3.71797C60.8981 3.86421 60.5188 3.90248 60.1529 3.82792C59.787 3.75337 59.4509 3.56934 59.1871 3.29912C58.9233 3.0289 58.7437 2.68461 58.6709 2.3098C58.5981 1.93499 58.6355 1.54649 58.7783 1.19343C58.921 0.840369 59.1628 0.538601 59.473 0.326288C59.7832 0.113976 60.1478 0.000654559 60.5209 0.000654559C61.0212 0.000654559 61.5009 0.204225 61.8547 0.566582C62.2084 0.928939 62.4071 1.4204 62.4071 1.93285Z" fill="#6F7494"/>
<path d="M81.7203 1.93285C81.7218 2.31914 81.6108 2.6971 81.4014 3.01834C81.1919 3.33958 80.8937 3.58949 80.5448 3.73606C80.1959 3.88264 79.8122 3.91922 79.4429 3.84112C79.0736 3.76301 78.7355 3.57378 78.4717 3.29765C78.208 3.02151 78.0308 2.67104 77.9627 2.29111C77.8946 1.91117 77.9387 1.51906 78.0894 1.16496C78.2402 0.810869 78.4906 0.510911 78.8087 0.30349C79.1269 0.0960691 79.4982 -0.00937588 79.8751 0.000654559C80.3683 0.0116384 80.8375 0.220047 81.1825 0.581221C81.5274 0.942394 81.7205 1.4276 81.7203 1.93285Z" fill="#6F7494"/>
<path d="M23.7888 17.34C23.7905 17.7242 23.6807 18.1002 23.4736 18.4204C23.2664 18.7407 22.9711 18.9907 22.6251 19.1389C22.2791 19.287 21.8979 19.3267 21.5299 19.2528C21.1619 19.1788 20.8235 18.9947 20.5578 18.7236C20.292 18.4525 20.1108 18.1068 20.037 17.7301C19.9633 17.3534 20.0003 16.9628 20.1434 16.6077C20.2866 16.2527 20.5294 15.9491 20.8411 15.7355C21.1528 15.5219 21.5194 15.4078 21.8944 15.4078C22.1428 15.4067 22.389 15.4559 22.6188 15.5525C22.8486 15.6491 23.0575 15.7912 23.2335 15.9708C23.4095 16.1503 23.5492 16.3637 23.6445 16.5987C23.7398 16.8336 23.7888 17.0856 23.7888 17.34Z" fill="#6F7494"/>
<path d="M43.1021 17.34C43.1037 17.7242 42.994 18.1002 42.7868 18.4204C42.5796 18.7407 42.2843 18.9907 41.9383 19.1389C41.5923 19.287 41.2111 19.3267 40.8431 19.2528C40.4751 19.1788 40.1368 18.9947 39.871 18.7236C39.6053 18.4525 39.424 18.1068 39.3503 17.7301C39.2765 17.3534 39.3135 16.9628 39.4567 16.6077C39.5998 16.2527 39.8426 15.9491 40.1543 15.7355C40.466 15.5219 40.8326 15.4078 41.2077 15.4078C41.7087 15.4078 42.1893 15.6111 42.5443 15.9732C42.8994 16.3354 43.0999 16.8268 43.1021 17.34Z" fill="#6F7494"/>
<path d="M62.4071 17.34C62.4071 17.7222 62.2965 18.0957 62.0892 18.4135C61.882 18.7312 61.5874 18.9789 61.2427 19.1251C60.8981 19.2714 60.5188 19.3096 60.1529 19.2351C59.787 19.1605 59.4509 18.9765 59.1871 18.7063C58.9233 18.4361 58.7437 18.0918 58.6709 17.717C58.5981 17.3422 58.6355 16.9537 58.7783 16.6006C58.921 16.2475 59.1628 15.9458 59.473 15.7335C59.7832 15.5211 60.1478 15.4078 60.5209 15.4078C61.0212 15.4078 61.5009 15.6114 61.8547 15.9738C62.2084 16.3361 62.4071 16.8276 62.4071 17.34Z" fill="#6F7494"/>
<path d="M81.7203 17.34C81.722 17.7245 81.612 18.1009 81.4045 18.4213C81.197 18.7417 80.9012 18.9918 80.5547 19.1397C80.2082 19.2876 79.8266 19.3267 79.4584 19.2521C79.0901 19.1775 78.7518 18.9925 78.4864 18.7206C78.221 18.4487 78.0404 18.1022 77.9675 17.7249C77.8947 17.3477 77.9329 16.9568 78.0773 16.6019C78.2217 16.247 78.4658 15.944 78.7786 15.7314C79.0914 15.5188 79.4588 15.4062 79.8341 15.4078C80.3344 15.4078 80.8142 15.6114 81.1679 15.9738C81.5216 16.3361 81.7203 16.8276 81.7203 17.34Z" fill="#6F7494"/>
<path d="M23.7888 32.764C23.7888 33.1478 23.6777 33.523 23.4696 33.8421C23.2614 34.1613 22.9655 34.41 22.6194 34.5569C22.2732 34.7038 21.8923 34.7422 21.5248 34.6673C21.1574 34.5924 20.8198 34.4076 20.5549 34.1362C20.2899 33.8648 20.1095 33.519 20.0364 33.1426C19.9633 32.7661 20.0008 32.376 20.1442 32.0214C20.2876 31.6668 20.5304 31.3637 20.8419 31.1504C21.1535 30.9372 21.5197 30.8234 21.8944 30.8234C22.1435 30.8223 22.3903 30.8717 22.6207 30.9689C22.851 31.066 23.0603 31.2089 23.2364 31.3893C23.4125 31.5697 23.552 31.7841 23.6468 32.02C23.7417 32.256 23.7899 32.5088 23.7888 32.764Z" fill="#6F7494"/>
<path d="M43.1021 32.764C43.1021 33.1478 42.991 33.523 42.7828 33.8421C42.5746 34.1613 42.2788 34.41 41.9326 34.5569C41.5865 34.7038 41.2056 34.7422 40.8381 34.6673C40.4706 34.5924 40.133 34.4076 39.8681 34.1362C39.6032 33.8648 39.4227 33.519 39.3496 33.1426C39.2765 32.7661 39.3141 32.376 39.4574 32.0214C39.6008 31.6668 39.8436 31.3637 40.1552 31.1504C40.4667 30.9372 40.833 30.8234 41.2077 30.8234C41.7101 30.8234 42.1919 31.0279 42.5472 31.3918C42.9025 31.7557 43.1021 32.2493 43.1021 32.764Z" fill="#6F7494"/>
<path d="M62.4071 32.764C62.4055 33.1458 62.2935 33.5185 62.0853 33.8352C61.877 34.1518 61.5819 34.3982 61.2371 34.5431C60.8923 34.6881 60.5133 34.7251 60.1479 34.6496C59.7826 34.5741 59.4472 34.3895 59.1843 34.1189C58.9213 33.8483 58.7425 33.504 58.6703 33.1295C58.5982 32.7549 58.6361 32.3668 58.7791 32.0142C58.9221 31.6617 59.1638 31.3604 59.4738 31.1485C59.7838 30.9365 60.1482 30.8234 60.5209 30.8234C60.7693 30.8234 61.0152 30.8736 61.2446 30.9713C61.474 31.0689 61.6823 31.212 61.8576 31.3923C62.0328 31.5726 62.1716 31.7866 62.2659 32.022C62.3602 32.2574 62.4082 32.5095 62.4071 32.764Z" fill="#6F7494"/>
<path d="M81.7203 32.764C81.7202 33.1499 81.6078 33.5271 81.3973 33.8472C81.1869 34.1673 80.8881 34.4159 80.5391 34.5612C80.19 34.7065 79.8066 34.7418 79.4379 34.6628C79.0691 34.5837 78.7317 34.3938 78.4689 34.1174C78.206 33.8409 78.0296 33.4904 77.9621 33.1107C77.8947 32.731 77.9393 32.3394 78.0902 31.9858C78.2412 31.6322 78.4916 31.3327 78.8096 31.1257C79.1275 30.9186 79.4985 30.8134 79.8751 30.8234C80.3697 30.8344 80.8402 31.044 81.1853 31.407C81.5305 31.7699 81.7226 32.2573 81.7203 32.764Z" fill="#6F7494"/>
<path d="M23.7888 48.1628C23.7856 48.5458 23.6717 48.9194 23.4616 49.2363C23.2515 49.5532 22.9545 49.7993 22.6081 49.9436C22.2617 50.0879 21.8813 50.124 21.5149 50.0472C21.1485 49.9704 20.8125 49.7843 20.5492 49.5122C20.2859 49.2402 20.1071 48.8944 20.0353 48.5184C19.9635 48.1424 20.002 47.7531 20.1458 47.3995C20.2897 47.0459 20.5325 46.7438 20.8437 46.5313C21.1548 46.3188 21.5204 46.2054 21.8944 46.2054C22.1446 46.2054 22.3923 46.2561 22.6232 46.3547C22.8541 46.4532 23.0637 46.5977 23.2398 46.7797C23.4159 46.9617 23.5551 47.1776 23.6494 47.415C23.7436 47.6524 23.791 47.9065 23.7888 48.1628Z" fill="#6F7494"/>
<path d="M43.1021 48.1628C43.0988 48.5458 42.985 48.9194 42.7749 49.2363C42.5647 49.5532 42.2678 49.7993 41.9213 49.9436C41.5749 50.0879 41.1945 50.124 40.8281 50.0472C40.4617 49.9704 40.1257 49.7843 39.8624 49.5122C39.5991 49.2402 39.4203 48.8944 39.3485 48.5184C39.2768 48.1424 39.3152 47.7531 39.4591 47.3995C39.6029 47.0459 39.8457 46.7438 40.1569 46.5313C40.4681 46.3188 40.8337 46.2054 41.2077 46.2054C41.4575 46.2065 41.7047 46.258 41.9351 46.3569C42.1656 46.4559 42.3747 46.6004 42.5506 46.7821C42.7265 46.9639 42.8658 47.1794 42.9604 47.4163C43.055 47.6532 43.1032 47.9068 43.1021 48.1628Z" fill="#6F7494"/>
<path d="M62.4071 48.1628C62.4023 48.5438 62.2875 48.9149 62.0773 49.2293C61.8671 49.5437 61.5709 49.7874 61.2258 49.9298C60.8808 50.0722 60.5023 50.1069 60.1381 50.0295C59.7738 49.9521 59.44 49.7662 59.1787 49.495C58.9174 49.2238 58.7401 48.8794 58.6693 48.5053C58.5985 48.1312 58.6373 47.744 58.7807 47.3924C58.9242 47.0408 59.1659 46.7405 59.4756 46.5293C59.7852 46.3181 60.1489 46.2054 60.5209 46.2054C60.7704 46.2065 61.0172 46.258 61.2471 46.3571C61.4771 46.4562 61.6857 46.6008 61.861 46.7826C62.0362 46.9645 62.1747 47.1801 62.2684 47.4169C62.3621 47.6537 62.4093 47.9072 62.4071 48.1628Z" fill="#6F7494"/>
<path d="M81.7203 48.1628C81.717 48.548 81.6017 48.9234 81.3894 49.2413C81.177 49.5592 80.8771 49.8052 80.5278 49.9479C80.1785 50.0906 79.7956 50.1235 79.428 50.0426C79.0603 49.9616 78.7245 49.7705 78.4633 49.4934C78.202 49.2162 78.0272 48.8658 77.9611 48.4866C77.895 48.1073 77.9405 47.7166 78.0919 47.3639C78.2433 47.0113 78.4938 46.7129 78.8113 46.5065C79.1289 46.3002 79.4992 46.1954 79.8751 46.2054C80.3718 46.2186 80.8436 46.4311 81.1888 46.7973C81.5339 47.1634 81.7248 47.6538 81.7203 48.1628Z" fill="#6F7494"/>
<path d="M102.068 62.6438C102.07 63.028 101.96 63.404 101.753 63.7243C101.546 64.0445 101.251 64.2945 100.905 64.4427C100.559 64.5909 100.177 64.6305 99.8095 64.5566C99.4414 64.4826 99.1031 64.2985 98.8374 64.0274C98.5716 63.7564 98.3904 63.4106 98.3166 63.0339C98.2428 62.6573 98.2799 62.2666 98.423 61.9115C98.5661 61.5565 98.8089 61.2529 99.1207 61.0393C99.4324 60.8257 99.799 60.7116 100.174 60.7116C100.422 60.7105 100.669 60.7597 100.898 60.8563C101.128 60.9529 101.337 61.095 101.513 61.2746C101.689 61.4541 101.829 61.6675 101.924 61.9025C102.019 62.1374 102.068 62.3894 102.068 62.6438Z" fill="#6F7494"/>
<path d="M121.382 62.6438C121.383 63.028 121.274 63.404 121.066 63.7243C120.859 64.0445 120.564 64.2945 120.218 64.4427C119.872 64.5909 119.491 64.6305 119.123 64.5566C118.755 64.4826 118.416 64.2985 118.151 64.0274C117.885 63.7564 117.704 63.4106 117.63 63.0339C117.556 62.6573 117.593 62.2666 117.736 61.9115C117.879 61.5565 118.122 61.2529 118.434 61.0393C118.746 60.8257 119.112 60.7116 119.487 60.7116C119.988 60.7116 120.469 60.9149 120.824 61.2771C121.179 61.6392 121.379 62.1306 121.382 62.6438Z" fill="#6F7494"/>
<path d="M102.068 78.051C102.07 78.4352 101.96 78.8112 101.753 79.1314C101.546 79.4517 101.251 79.7017 100.905 79.8499C100.559 79.998 100.177 80.0377 99.8095 79.9637C99.4414 79.8898 99.1031 79.7056 98.8374 79.4346C98.5716 79.1635 98.3904 78.8178 98.3166 78.4411C98.2428 78.0644 98.2799 77.6738 98.423 77.3187C98.5661 76.9636 98.8089 76.6601 99.1207 76.4464C99.4324 76.2328 99.799 76.1188 100.174 76.1188C100.422 76.1177 100.669 76.1669 100.898 76.2635C101.128 76.3601 101.337 76.5022 101.513 76.6818C101.689 76.8613 101.829 77.0747 101.924 77.3096C102.019 77.5446 102.068 77.7966 102.068 78.051Z" fill="#6F7494"/>
<path d="M121.382 78.051C121.383 78.4352 121.274 78.8112 121.066 79.1314C120.859 79.4517 120.564 79.7017 120.218 79.8499C119.872 79.998 119.491 80.0377 119.123 79.9637C118.755 79.8898 118.416 79.7056 118.151 79.4346C117.885 79.1635 117.704 78.8178 117.63 78.4411C117.556 78.0644 117.593 77.6738 117.736 77.3187C117.879 76.9636 118.122 76.6601 118.434 76.4464C118.746 76.2328 119.112 76.1188 119.487 76.1188C119.988 76.1188 120.469 76.3221 120.824 76.6842C121.179 77.0463 121.379 77.5378 121.382 78.051Z" fill="#6F7494"/>
<path d="M3.78884 62.6432C3.79046 63.0274 3.68074 63.4034 3.47357 63.7236C3.26639 64.0438 2.9711 64.2939 2.62508 64.4421C2.27907 64.5902 1.89791 64.6299 1.52989 64.5559C1.16187 64.482 0.82355 64.2978 0.55779 64.0268C0.292029 63.7557 0.110787 63.41 0.0370234 63.0333C-0.0367404 62.6566 0.000294402 62.266 0.143434 61.9109C0.286574 61.5558 0.529379 61.2522 0.84109 61.0386C1.1528 60.825 1.51939 60.711 1.89442 60.711C2.14281 60.7099 2.38897 60.759 2.61876 60.8557C2.84856 60.9523 3.05746 61.0944 3.23348 61.2739C3.4095 61.4535 3.54918 61.6669 3.64448 61.9018C3.73978 62.1368 3.78884 62.3887 3.78884 62.6432Z" fill="#6F7494"/>
<path d="M3.78884 78.0504C3.79046 78.4345 3.68074 78.8105 3.47357 79.1308C3.26639 79.451 2.9711 79.7011 2.62508 79.8492C2.27907 79.9974 1.89791 80.037 1.52989 79.9631C1.16187 79.8892 0.82355 79.705 0.55779 79.4339C0.292029 79.1629 0.110787 78.8171 0.0370234 78.4405C-0.0367404 78.0638 0.000294402 77.6732 0.143434 77.3181C0.286574 76.963 0.529379 76.6594 0.84109 76.4458C1.1528 76.2322 1.51939 76.1182 1.89442 76.1182C2.14281 76.1171 2.38897 76.1662 2.61876 76.2628C2.84856 76.3594 3.05746 76.5016 3.23348 76.6811C3.4095 76.8607 3.54918 77.074 3.64448 77.309C3.73978 77.544 3.78884 77.7959 3.78884 78.0504Z" fill="#6F7494"/>
<path d="M3.78884 1.93222C3.79046 2.31638 3.68074 2.6924 3.47357 3.01263C3.26639 3.33287 2.9711 3.5829 2.62508 3.73107C2.27907 3.87924 1.89791 3.91887 1.52989 3.84494C1.16187 3.77102 0.82355 3.58686 0.55779 3.3158C0.292029 3.04474 0.110787 2.69897 0.0370234 2.32231C-0.0367404 1.94564 0.000294402 1.55502 0.143434 1.19993C0.286574 0.844847 0.529379 0.54127 0.84109 0.327661C1.1528 0.114051 1.51939 2.18642e-05 1.89442 1.82644e-05C2.14281 -0.00108803 2.38897 0.0480732 2.61876 0.14468C2.84856 0.241286 3.05746 0.383436 3.23348 0.562967C3.4095 0.742498 3.54918 0.955876 3.64448 1.19085C3.73978 1.42582 3.78884 1.67777 3.78884 1.93222Z" fill="#6F7494"/>
<path d="M3.78884 17.3394C3.79046 17.7236 3.68074 18.0996 3.47357 18.4198C3.26639 18.74 2.9711 18.9901 2.62508 19.1382C2.27907 19.2864 1.89791 19.326 1.52989 19.2521C1.16187 19.1782 0.82355 18.994 0.55779 18.723C0.292029 18.4519 0.110787 18.1061 0.0370234 17.7295C-0.0367404 17.3528 0.000294402 16.9622 0.143434 16.6071C0.286574 16.252 0.529379 15.9484 0.84109 15.7348C1.1528 15.5212 1.51939 15.4072 1.89442 15.4072C2.14281 15.4061 2.38897 15.4552 2.61876 15.5519C2.84856 15.6485 3.05746 15.7906 3.23348 15.9701C3.4095 16.1497 3.54918 16.363 3.64448 16.598C3.73978 16.833 3.78884 17.0849 3.78884 17.3394Z" fill="#6F7494"/>
<path d="M3.78884 32.7634C3.78884 33.1472 3.67773 33.5224 3.46957 33.8415C3.26141 34.1606 2.96554 34.4094 2.61938 34.5562C2.27322 34.7031 1.89232 34.7415 1.52484 34.6667C1.15736 34.5918 0.819803 34.407 0.554864 34.1356C0.289924 33.8642 0.109498 33.5184 0.0364016 33.1419C-0.036695 32.7655 0.000820816 32.3753 0.144205 32.0207C0.287589 31.6661 0.530401 31.363 0.841937 31.1498C1.15347 30.9366 1.51974 30.8228 1.89442 30.8228C2.1435 30.8216 2.39033 30.8711 2.62067 30.9682C2.851 31.0653 3.06027 31.2082 3.2364 31.3887C3.41253 31.5691 3.55203 31.7835 3.64685 32.0194C3.74167 32.2554 3.78993 32.5082 3.78884 32.7634Z" fill="#6F7494"/>
<path d="M3.78884 48.1621C3.7856 48.5452 3.67175 48.9187 3.46163 49.2356C3.25151 49.5526 2.95452 49.7987 2.60809 49.943C2.26166 50.0873 1.88128 50.1233 1.51489 50.0466C1.14849 49.9698 0.812474 49.7837 0.549173 49.5116C0.285872 49.2396 0.107068 48.8938 0.0352906 48.5178C-0.0364865 48.1418 0.00197552 47.7525 0.145829 47.3989C0.289683 47.0452 0.532492 46.7431 0.843662 46.5306C1.15483 46.3181 1.52044 46.2047 1.89442 46.2047C2.14459 46.2047 2.39227 46.2555 2.62319 46.354C2.85411 46.4526 3.06368 46.5971 3.23981 46.779C3.41594 46.961 3.55514 47.1769 3.64937 47.4143C3.7436 47.6517 3.79101 47.9059 3.78884 48.1621Z" fill="#6F7494"/>
<path d="M23.7888 94.6438C23.7904 95.028 23.6807 95.404 23.4735 95.7242C23.2664 96.0444 22.9711 96.2945 22.6251 96.4426C22.2791 96.5908 21.8979 96.6304 21.5299 96.5565C21.1619 96.4826 20.8235 96.2984 20.5578 96.0274C20.292 95.7563 20.1108 95.4106 20.037 95.0339C19.9632 94.6572 20.0003 94.2666 20.1434 93.9115C20.2866 93.5564 20.5294 93.2528 20.8411 93.0392C21.1528 92.8256 21.5194 92.7116 21.8944 92.7116C22.1428 92.7105 22.389 92.7597 22.6187 92.8563C22.8485 92.9529 23.0574 93.095 23.2335 93.2745C23.4095 93.4541 23.5492 93.6674 23.6445 93.9024C23.7398 94.1374 23.7888 94.3893 23.7888 94.6438Z" fill="#6F7494"/>
<path d="M43.1021 94.6438C43.1037 95.028 42.994 95.404 42.7868 95.7242C42.5796 96.0444 42.2843 96.2945 41.9383 96.4426C41.5923 96.5908 41.2111 96.6304 40.8431 96.5565C40.4751 96.4826 40.1368 96.2984 39.871 96.0274C39.6052 95.7563 39.424 95.4106 39.3502 95.0339C39.2765 94.6572 39.3135 94.2666 39.4567 93.9115C39.5998 93.5564 39.8426 93.2528 40.1543 93.0392C40.466 92.8256 40.8326 92.7116 41.2076 92.7116C41.7087 92.7116 42.1893 92.9149 42.5443 93.277C42.8993 93.6391 43.0999 94.1306 43.1021 94.6438Z" fill="#6F7494"/>
<path d="M62.4071 94.6438C62.4071 95.0259 62.2965 95.3995 62.0892 95.7173C61.882 96.035 61.5874 96.2827 61.2427 96.4289C60.898 96.5751 60.5188 96.6134 60.1529 96.5389C59.787 96.4643 59.4509 96.2803 59.1871 96.0101C58.9233 95.7398 58.7437 95.3955 58.6709 95.0207C58.5981 94.6459 58.6355 94.2574 58.7782 93.9044C58.921 93.5513 59.1628 93.2495 59.4729 93.0372C59.7831 92.8249 60.1478 92.7116 60.5209 92.7116C61.0211 92.7116 61.5009 92.9152 61.8546 93.2775C62.2084 93.6399 62.4071 94.1313 62.4071 94.6438Z" fill="#6F7494"/>
<path d="M81.7203 94.6438C81.7218 95.0301 81.6108 95.408 81.4013 95.7293C81.1919 96.0505 80.8937 96.3004 80.5448 96.447C80.1959 96.5936 79.8122 96.6302 79.4429 96.5521C79.0736 96.474 78.7354 96.2847 78.4717 96.0086C78.208 95.7325 78.0308 95.382 77.9627 95.002C77.8946 94.6221 77.9387 94.23 78.0894 93.8759C78.2401 93.5218 78.4906 93.2219 78.8087 93.0144C79.1268 92.807 79.4982 92.7016 79.8751 92.7116C80.3682 92.7226 80.8375 92.931 81.1824 93.2922C81.5274 93.6533 81.7204 94.1385 81.7203 94.6438Z" fill="#6F7494"/>
<path d="M23.7888 110.051C23.7904 110.435 23.6807 110.811 23.4735 111.131C23.2664 111.452 22.9711 111.702 22.6251 111.85C22.2791 111.998 21.8979 112.038 21.5299 111.964C21.1619 111.89 20.8235 111.706 20.5578 111.435C20.292 111.163 20.1108 110.818 20.037 110.441C19.9632 110.064 20.0003 109.674 20.1434 109.319C20.2866 108.964 20.5294 108.66 20.8411 108.446C21.1528 108.233 21.5194 108.119 21.8944 108.119C22.1428 108.118 22.389 108.167 22.6187 108.263C22.8485 108.36 23.0574 108.502 23.2335 108.682C23.4095 108.861 23.5492 109.075 23.6445 109.31C23.7398 109.545 23.7888 109.797 23.7888 110.051Z" fill="#6F7494"/>
<path d="M43.1021 110.051C43.1037 110.435 42.994 110.811 42.7868 111.131C42.5796 111.452 42.2843 111.702 41.9383 111.85C41.5923 111.998 41.2111 112.038 40.8431 111.964C40.4751 111.89 40.1368 111.706 39.871 111.435C39.6052 111.163 39.424 110.818 39.3502 110.441C39.2765 110.064 39.3135 109.674 39.4567 109.319C39.5998 108.964 39.8426 108.66 40.1543 108.446C40.466 108.233 40.8326 108.119 41.2076 108.119C41.7087 108.119 42.1893 108.322 42.5443 108.684C42.8993 109.046 43.0999 109.538 43.1021 110.051Z" fill="#6F7494"/>
<path d="M62.4071 110.051C62.4071 110.433 62.2965 110.807 62.0892 111.124C61.882 111.442 61.5874 111.69 61.2427 111.836C60.898 111.982 60.5188 112.021 60.1529 111.946C59.787 111.871 59.4509 111.687 59.1871 111.417C58.9233 111.147 58.7437 110.803 58.6709 110.428C58.5981 110.053 58.6355 109.665 58.7782 109.312C58.921 108.958 59.1628 108.657 59.4729 108.444C59.7831 108.232 60.1478 108.119 60.5209 108.119C61.0211 108.119 61.5009 108.322 61.8546 108.685C62.2084 109.047 62.4071 109.539 62.4071 110.051Z" fill="#6F7494"/>
<path d="M81.7203 110.051C81.722 110.435 81.612 110.812 81.4045 111.132C81.197 111.453 80.9012 111.703 80.5547 111.851C80.2082 111.999 79.8266 112.038 79.4584 111.963C79.0901 111.888 78.7518 111.703 78.4864 111.432C78.2209 111.16 78.0404 110.813 77.9675 110.436C77.8947 110.059 77.9329 109.668 78.0773 109.313C78.2217 108.958 78.4658 108.655 78.7786 108.442C79.0913 108.23 79.4587 108.117 79.8341 108.119C80.3344 108.119 80.8141 108.322 81.1679 108.685C81.5216 109.047 81.7203 109.539 81.7203 110.051Z" fill="#6F7494"/>
<path d="M102.068 94.6438C102.07 95.028 101.96 95.404 101.753 95.7242C101.546 96.0444 101.251 96.2945 100.905 96.4426C100.559 96.5908 100.177 96.6304 99.8094 96.5565C99.4414 96.4826 99.1031 96.2984 98.8373 96.0274C98.5716 95.7563 98.3903 95.4106 98.3166 95.0339C98.2428 94.6572 98.2798 94.2666 98.423 93.9115C98.5661 93.5564 98.8089 93.2528 99.1206 93.0392C99.4324 92.8256 99.7989 92.7116 100.174 92.7116C100.422 92.7105 100.669 92.7597 100.898 92.8563C101.128 92.9529 101.337 93.095 101.513 93.2745C101.689 93.4541 101.829 93.6674 101.924 93.9024C102.019 94.1374 102.068 94.3893 102.068 94.6438Z" fill="#6F7494"/>
<path d="M121.382 94.6438C121.383 95.028 121.274 95.404 121.066 95.7242C120.859 96.0444 120.564 96.2945 120.218 96.4426C119.872 96.5908 119.491 96.6304 119.123 96.5565C118.755 96.4826 118.416 96.2984 118.151 96.0274C117.885 95.7563 117.704 95.4106 117.63 95.0339C117.556 94.6572 117.593 94.2666 117.736 93.9115C117.879 93.5564 118.122 93.2528 118.434 93.0392C118.746 92.8256 119.112 92.7116 119.487 92.7116C119.988 92.7116 120.469 92.9149 120.824 93.277C121.179 93.6391 121.379 94.1306 121.382 94.6438Z" fill="#6F7494"/>
<path d="M102.068 110.051C102.07 110.435 101.96 110.811 101.753 111.131C101.546 111.452 101.251 111.702 100.905 111.85C100.559 111.998 100.177 112.038 99.8094 111.964C99.4414 111.89 99.1031 111.706 98.8373 111.435C98.5716 111.163 98.3903 110.818 98.3166 110.441C98.2428 110.064 98.2798 109.674 98.423 109.319C98.5661 108.964 98.8089 108.66 99.1206 108.446C99.4324 108.233 99.7989 108.119 100.174 108.119C100.422 108.118 100.669 108.167 100.898 108.263C101.128 108.36 101.337 108.502 101.513 108.682C101.689 108.861 101.829 109.075 101.924 109.31C102.019 109.545 102.068 109.797 102.068 110.051Z" fill="#6F7494"/>
<path d="M121.382 110.051C121.383 110.435 121.274 110.811 121.066 111.131C120.859 111.452 120.564 111.702 120.218 111.85C119.872 111.998 119.491 112.038 119.123 111.964C118.755 111.89 118.416 111.706 118.151 111.435C117.885 111.163 117.704 110.818 117.63 110.441C117.556 110.064 117.593 109.674 117.736 109.319C117.879 108.964 118.122 108.66 118.434 108.446C118.746 108.233 119.112 108.119 119.487 108.119C119.988 108.119 120.469 108.322 120.824 108.684C121.179 109.046 121.379 109.538 121.382 110.051Z" fill="#6F7494"/>
<path d="M3.78882 94.6432C3.79045 95.0273 3.68072 95.4033 3.47355 95.7236C3.26638 96.0438 2.97108 96.2938 2.62507 96.442C2.27905 96.5902 1.89789 96.6298 1.52987 96.5559C1.16185 96.482 0.823532 96.2978 0.557772 96.0267C0.292012 95.7557 0.11077 95.4099 0.0370059 95.0332C-0.0367578 94.6566 0.000276953 94.266 0.143417 93.9109C0.286557 93.5558 0.529361 93.2522 0.841072 93.0386C1.15278 92.825 1.51937 92.711 1.8944 92.711C2.14279 92.7098 2.38895 92.759 2.61875 92.8556C2.84854 92.9522 3.05744 93.0944 3.23347 93.2739C3.40949 93.4534 3.54916 93.6668 3.64446 93.9018C3.73977 94.1368 3.78882 94.3887 3.78882 94.6432Z" fill="#6F7494"/>
<path d="M3.78882 110.05C3.79045 110.435 3.68072 110.811 3.47355 111.131C3.26638 111.451 2.97108 111.701 2.62507 111.849C2.27905 111.997 1.89789 112.037 1.52987 111.963C1.16185 111.889 0.823532 111.705 0.557772 111.434C0.292012 111.163 0.11077 110.817 0.0370059 110.44C-0.0367578 110.064 0.000276953 109.673 0.143417 109.318C0.286557 108.963 0.529361 108.659 0.841072 108.446C1.15278 108.232 1.51937 108.118 1.8944 108.118C2.14279 108.117 2.38895 108.166 2.61875 108.263C2.84854 108.359 3.05744 108.502 3.23347 108.681C3.40949 108.861 3.54916 109.074 3.64446 109.309C3.73977 109.544 3.78882 109.796 3.78882 110.05Z" fill="#6F7494"/>
</svg>
