<svg width="556" height="608" viewBox="0 0 556 608" fill="none" xmlns="http://www.w3.org/2000/svg">
<path d="M311.662 124.427C342.895 138.914 378.126 141.336 412.362 144.54C446.644 147.766 482.038 152.372 511.323 170.496C540.561 188.598 562.063 223.778 553.713 257.2C547.335 282.84 525.817 301.375 506.851 319.807C487.933 338.261 469.326 361.591 471.735 387.911C473.845 411.014 491.342 429.145 503.373 448.964C519.342 475.26 526.121 507.749 518.753 537.649C511.386 567.548 488.934 594.073 459.547 603.246C429.406 612.689 396.055 603.523 368.908 587.379C341.761 571.234 319.148 548.632 294.972 528.253C252.342 492.366 204.235 463.004 152.755 441.616C119.929 427.97 85.3949 417.333 55.7766 397.627C26.1584 377.921 1.37924 346.66 0.796131 311.063C0.106331 270.516 29.9881 236.226 60.8931 209.882C91.7295 183.563 126.77 158.947 143.331 121.888C150.841 105.045 154.014 86.6635 158.44 68.7605C162.866 50.8575 168.969 32.7792 181.149 18.9428C193.329 5.10632 212.826 -3.61744 230.525 1.4497C260.412 10.1166 250.334 39.247 255.834 61.56C262.824 89.9899 285.662 112.357 311.662 124.427Z" fill="#0D50FF"/>
</svg>
