<svg width="371" height="425" viewBox="0 0 371 425" fill="none" xmlns="http://www.w3.org/2000/svg">
<path d="M758.343 433.444C782.501 398.464 766.393 349.286 737.636 323.846C711.884 301.044 675.097 288.763 625.227 286.328C610.297 285.584 595.136 285.67 580.469 285.726C555.877 285.831 530.395 285.949 505.706 282.298C479.054 278.321 430.679 265.676 406.067 225.441C392.811 203.78 388.449 176.993 384.298 151.103C378.831 117.36 373.211 82.5245 347.236 60.3556C320.116 37.2029 282.618 37.7798 246.307 38.3053C236.525 38.458 226.348 38.5948 216.734 38.2604C216.389 38.2467 216.044 38.2329 215.649 38.2172C126.227 34.6477 41.1053 -22.2222 3.66569 -103.505L0.94865 -102.231C38.8399 -19.8933 124.972 37.6588 215.527 41.2735C215.872 41.2873 216.218 41.301 216.612 41.3168C226.325 41.6551 236.502 41.5182 246.382 41.3695C282.102 40.8204 319.006 40.2691 345.316 62.6983C370.431 84.1417 375.738 116.94 381.362 151.677C385.6 177.867 389.952 204.9 403.533 227.068C428.796 268.316 478.145 281.296 505.339 285.295C530.224 289.004 555.804 288.889 580.546 288.741C595.213 288.685 610.374 288.599 625.157 289.337C674.336 291.744 710.492 303.754 735.719 326.09C763.522 350.702 779.158 398.084 755.943 431.719L758.343 433.444Z" fill="#3F74FF"/>
</svg>
