<svg width="96" height="119" viewBox="0 0 96 119" fill="none" xmlns="http://www.w3.org/2000/svg">
<g style="mix-blend-mode:luminosity">
<path d="M-3.40528 82.038L35.205 116.026L-3.40527 116.026L-3.40528 82.038Z" fill="#00B3FF"/>
<path d="M35.2048 48.0637L73.7995 82.0378L35.2048 82.0378L35.2048 48.0637Z" fill="#00B3FF"/>
<path d="M59.9468 47.4182L74.5329 60.2581L59.9468 60.2581L59.9468 47.4182Z" fill="#00B3FF"/>
<path d="M-3.40528 48.0637L35.205 82.0378L-3.40527 82.0378L-3.40528 48.0637Z" fill="#919AB2"/>
<path d="M12.5848 48.0637L-42 48.0637L-14.6998 24.0319L12.5848 48.0637Z" fill="#919AB2"/>
<path d="M73.7995 150L35.2048 116.026L73.7995 116.026L73.7995 150Z" fill="#00B3FF"/>
<path d="M73.7996 116.026L35.205 116.026L-3.40528 82.038L35.205 82.038L73.7996 116.026Z" fill="#287FEA"/>
<path d="M73.7996 150L35.205 150L-3.40528 116.026L35.205 116.026L73.7996 150Z" fill="#919AB2"/>
<path d="M54.5803 93.9165L45.2515 85.7045L54.5803 85.7045L54.5803 93.9165Z" fill="#919AB2"/>
</g>
</svg>
