<svg width="137" height="97" viewBox="0 0 137 97" fill="none" xmlns="http://www.w3.org/2000/svg">
<path d="M-1.68311 48.5354L36.9116 82.5096L-1.68311 82.5096L-1.68311 48.5354Z" fill="#00B3FF"/>
<path d="M36.9115 82.5096L75.5218 116.497L36.9115 116.497L36.9115 82.5096Z" fill="#00B3FF"/>
<path d="M75.5218 48.5355L114.117 82.5096L75.5219 82.5096L75.5218 48.5355Z" fill="#00B3FF"/>
<path d="M100.264 47.8899L114.85 60.7298L100.264 60.7298L100.264 47.8899Z" fill="#00B3FF"/>
<path d="M36.9115 48.5355L75.5218 82.5096L36.9115 82.5096L36.9115 48.5355Z" fill="#919AB2"/>
<path d="M52.9017 48.5353L-1.68311 48.5353L25.6171 24.5034L52.9017 48.5353Z" fill="#919AB2"/>
<path d="M-1.68311 48.5353L-1.68311 0.471584L25.6171 24.5034L-1.68311 48.5353Z" fill="#287FEA"/>
<path d="M114.116 116.497L75.5218 116.497L36.9115 82.5096L75.5218 82.5096L114.116 116.497Z" fill="#287FEA"/>
<path d="M94.8971 94.3881L85.5682 86.1761L94.8971 86.1761L94.8971 94.3881Z" fill="#919AB2"/>
</svg>
