<svg width="166" height="132" viewBox="0 0 166 132" fill="none" xmlns="http://www.w3.org/2000/svg">
<path d="M-2.02443e-06 57.6768L46.3136 98.4458L0 98.4458L-2.02443e-06 57.6768Z" fill="#00B3FF"/>
<path d="M46.3138 98.4457L92.6461 139.231L46.3138 139.231L46.3138 98.4457Z" fill="#00B3FF"/>
<path d="M92.6467 57.6768L138.96 98.4458L92.6467 98.4458L92.6467 57.6768Z" fill="#00B3FF"/>
<path d="M122.337 56.9022L139.84 72.3101L122.337 72.3101L122.337 56.9022Z" fill="#00B3FF"/>
<path d="M46.3138 57.6766L92.6461 98.4456L46.3138 98.4456L46.3138 57.6766Z" fill="#0047FF"/>
<path d="M65.5017 57.6765L0 57.6765L32.7602 28.8383L65.5017 57.6765Z" fill="#0047FF"/>
<path d="M0 57.6765L-2.86399e-06 6.86646e-05L32.7602 28.8383L0 57.6765Z" fill="#287FEA"/>
<path d="M138.96 139.231L92.6461 139.231L46.3138 98.4457L92.6461 98.4457L138.96 139.231Z" fill="#287FEA"/>
<path d="M115.897 112.7L104.702 102.846L115.897 102.846L115.897 112.7Z" fill="#0047FF"/>
</svg>
