<svg width="266" height="216" viewBox="0 0 266 216" fill="none" xmlns="http://www.w3.org/2000/svg">
<path d="M275.467 96.1276L198.277 164.076L275.467 164.076L275.467 96.1276Z" fill="#00B3FF"/>
<path d="M198.278 164.076L121.057 232.052L198.278 232.052L198.278 164.076Z" fill="#00B3FF"/>
<path d="M121.057 96.1278L43.8673 164.076L121.057 164.076L121.057 96.1278Z" fill="#00B3FF"/>
<path d="M71.573 94.8366L42.4008 120.516L71.573 120.516L71.573 94.8366Z" fill="#00B3FF"/>
<path d="M198.278 96.1276L121.057 164.076L198.278 164.076L198.278 96.1276Z" fill="#0047FF"/>
<path d="M166.297 96.1272L275.467 96.1272L220.866 48.0635L166.297 96.1272Z" fill="#0047FF"/>
<path d="M275.467 96.1272L275.467 -0.000221252L220.866 48.0635L275.467 96.1272Z" fill="#287FEA"/>
<path d="M43.8678 232.052L121.057 232.052L198.278 164.076L121.057 164.076L43.8678 232.052Z" fill="#287FEA"/>
<path d="M82.3064 187.833L100.964 171.409L82.3064 171.409L82.3064 187.833Z" fill="#0047FF"/>
</svg>
