<svg width="244" height="120" viewBox="0 0 244 120" fill="none" xmlns="http://www.w3.org/2000/svg">
<rect x="0.5" y="0.5" width="243" height="119" fill="white"/>
<rect x="0.5" y="0.5" width="243" height="119" stroke="white"/>
<path d="M35.0394 30.5494C35.7783 30.6995 36.373 31.0517 36.8233 31.6059C37.2851 32.1602 37.5161 32.8067 37.5161 33.5457C37.5161 34.5618 37.1754 35.37 36.4942 35.9705C35.813 36.5593 34.8258 36.8538 33.5326 36.8538H28.6658V24.6261H33.446C34.6699 24.6261 35.6051 24.9032 36.2517 25.4575C36.9099 26.0002 37.239 26.7507 37.239 27.709C37.239 28.4826 37.0369 29.1119 36.6328 29.5969C36.2286 30.0703 35.6975 30.3878 35.0394 30.5494ZM30.6402 29.8913H33.0822C33.775 29.8913 34.3004 29.7296 34.6583 29.4063C35.0278 29.083 35.2126 28.6327 35.2126 28.0554C35.2126 27.4896 35.0278 27.0451 34.6583 26.7218C34.3004 26.3985 33.7519 26.2369 33.013 26.2369H30.6402V29.8913ZM33.1342 35.2257C33.8847 35.2257 34.462 35.0583 34.8662 34.7235C35.2818 34.3771 35.4897 33.8979 35.4897 33.2859C35.4897 32.674 35.2818 32.1948 34.8662 31.8484C34.4505 31.502 33.8674 31.3288 33.1169 31.3288H30.6402V35.2257H33.1342ZM47.8241 27.3107V36.8538H45.8323V34.7754C45.5898 35.4797 45.1684 36.0282 44.568 36.4208C43.9676 36.8018 43.269 36.9923 42.4723 36.9923C41.3639 36.9923 40.4748 36.6344 39.8051 35.9185C39.1354 35.2026 38.8006 34.1808 38.8006 32.8529V27.3107H40.775V32.6451C40.775 33.5111 40.9944 34.1808 41.4331 34.6542C41.8719 35.116 42.4723 35.347 43.2344 35.347C44.0195 35.347 44.6488 35.0929 45.1222 34.5849C45.5956 34.0769 45.8323 33.3379 45.8323 32.368V27.3107H47.8241ZM52.9772 27.1894C54.0972 27.1894 54.992 27.4781 55.6617 28.0554C56.343 28.6212 56.7586 29.3832 56.9087 30.3416H55.0382C54.9574 29.822 54.7322 29.4063 54.3627 29.0946C54.0048 28.7713 53.5256 28.6096 52.9252 28.6096C52.4287 28.6096 52.0419 28.7309 51.7648 28.9733C51.4992 29.2043 51.3665 29.5218 51.3665 29.9259C51.3665 30.2261 51.4646 30.4686 51.6609 30.6533C51.8572 30.8381 52.0997 30.9824 52.3883 31.0863C52.6885 31.1903 53.11 31.3057 53.6526 31.4327C54.3685 31.5944 54.9458 31.7618 55.3846 31.935C55.8349 32.1082 56.2159 32.3853 56.5277 32.7663C56.851 33.1358 57.0126 33.6439 57.0126 34.2905C57.0126 35.0872 56.7067 35.7338 56.0947 36.2303C55.4943 36.7267 54.6803 36.975 53.6526 36.975C52.4634 36.975 51.4992 36.6979 50.7603 36.1437C50.0328 35.5894 49.5941 34.8158 49.444 33.8228H51.3665C51.4242 34.3424 51.6551 34.7639 52.0592 35.0872C52.4634 35.4105 52.9945 35.5721 53.6526 35.5721C54.126 35.5721 54.4955 35.4509 54.7611 35.2084C55.0382 34.9544 55.1768 34.6369 55.1768 34.2558C55.1768 33.921 55.0728 33.6554 54.865 33.4591C54.6572 33.2628 54.3974 33.1127 54.0856 33.0088C53.7739 32.8933 53.3467 32.7779 52.804 32.6624C52.1112 32.5008 51.5454 32.3391 51.1067 32.1775C50.6794 32.0158 50.31 31.756 49.9982 31.3981C49.698 31.0286 49.5479 30.5321 49.5479 29.9086C49.5479 29.1004 49.8481 28.448 50.4485 27.9515C51.0605 27.4435 51.9034 27.1894 52.9772 27.1894ZM58.3691 24.5395C58.3691 24.2047 58.4846 23.9276 58.7155 23.7082C58.9464 23.4888 59.2524 23.3791 59.6334 23.3791C60.0145 23.3791 60.3205 23.4888 60.5514 23.7082C60.7939 23.9276 60.9151 24.2047 60.9151 24.5395C60.9151 24.8744 60.7939 25.1457 60.5514 25.3536C60.3205 25.5614 60.0145 25.6653 59.6334 25.6653C59.2524 25.6653 58.9464 25.5614 58.7155 25.3536C58.4846 25.1457 58.3691 24.8744 58.3691 24.5395ZM60.6207 27.3107V36.8538H58.6462V27.3107H60.6207ZM67.998 27.1548C69.1065 27.1548 69.9955 27.5127 70.6652 28.2286C71.3349 28.9445 71.6698 29.9663 71.6698 31.2942V36.8538H69.6953V31.502C69.6953 30.6476 69.4759 29.9894 69.0372 29.5276C68.5984 29.0542 67.998 28.8175 67.2359 28.8175C66.4508 28.8175 65.8215 29.0715 65.3481 29.5795C64.8747 30.076 64.638 30.8092 64.638 31.7791V36.8538H62.6636V27.3107H64.638V29.4063C64.892 28.6905 65.3192 28.1362 65.9196 27.7437C66.5201 27.3511 67.2128 27.1548 67.998 27.1548ZM82.5 31.6232C82.5 31.9465 82.4769 32.2294 82.4308 32.4719H75.0873C75.1219 33.4533 75.3932 34.1808 75.9013 34.6542C76.4093 35.1276 77.0386 35.3643 77.7891 35.3643C78.4473 35.3643 79.0015 35.1969 79.4518 34.862C79.9136 34.5272 80.1965 34.0826 80.3005 33.5284H82.4134C82.2864 34.1981 82.0209 34.7927 81.6167 35.3123C81.2126 35.8319 80.6873 36.2418 80.0407 36.542C79.3941 36.8307 78.6724 36.975 77.8757 36.975C76.952 36.975 76.1322 36.7787 75.4163 36.3861C74.712 35.9936 74.1578 35.4278 73.7536 34.6888C73.3495 33.9498 73.1475 33.0781 73.1475 32.0736C73.1475 31.0806 73.3495 30.2146 73.7536 29.4756C74.1578 28.7366 74.712 28.1709 75.4163 27.7783C76.1322 27.3857 76.952 27.1894 77.8757 27.1894C78.811 27.1894 79.625 27.3857 80.3178 27.7783C81.0221 28.1593 81.559 28.6905 81.9285 29.3717C82.3095 30.0414 82.5 30.7919 82.5 31.6232ZM80.5083 31.5713C80.5314 30.9478 80.4217 30.4282 80.1792 30.0125C79.9483 29.5853 79.625 29.2736 79.2093 29.0773C78.8052 28.8694 78.3607 28.7655 77.8757 28.7655C77.1021 28.7655 76.4555 29.0022 75.9359 29.4756C75.4163 29.949 75.1334 30.6476 75.0873 31.5713H80.5083ZM87.1949 27.1894C88.3149 27.1894 89.2097 27.4781 89.8794 28.0554C90.5606 28.6212 90.9763 29.3832 91.1264 30.3416H89.2559C89.1751 29.822 88.9499 29.4063 88.5804 29.0946C88.2225 28.7713 87.7433 28.6096 87.1429 28.6096C86.6464 28.6096 86.2596 28.7309 85.9825 28.9733C85.7169 29.2043 85.5841 29.5218 85.5841 29.9259C85.5841 30.2261 85.6823 30.4686 85.8786 30.6533C86.0749 30.8381 86.3173 30.9824 86.606 31.0863C86.9062 31.1903 87.3276 31.3057 87.8703 31.4327C88.5862 31.5944 89.1635 31.7618 89.6023 31.935C90.0526 32.1082 90.4336 32.3853 90.7454 32.7663C91.0687 33.1358 91.2303 33.6439 91.2303 34.2905C91.2303 35.0872 90.9243 35.7338 90.3124 36.2303C89.712 36.7267 88.898 36.975 87.8703 36.975C86.681 36.975 85.7169 36.6979 84.978 36.1437C84.2505 35.5894 83.8118 34.8158 83.6617 33.8228H85.5841C85.6419 34.3424 85.8728 34.7639 86.2769 35.0872C86.6811 35.4105 87.2122 35.5721 87.8703 35.5721C88.3437 35.5721 88.7132 35.4509 88.9788 35.2084C89.2559 34.9544 89.3945 34.6369 89.3945 34.2558C89.3945 33.921 89.2905 33.6554 89.0827 33.4591C88.8749 33.2628 88.6151 33.1127 88.3033 33.0088C87.9916 32.8933 87.5643 32.7779 87.0217 32.6624C86.3289 32.5008 85.7631 32.3391 85.3243 32.1775C84.8971 32.0158 84.5276 31.756 84.2159 31.3981C83.9157 31.0286 83.7656 30.5321 83.7656 29.9086C83.7656 29.1004 84.0658 28.448 84.6662 27.9515C85.2782 27.4435 86.121 27.1894 87.1949 27.1894ZM95.9988 27.1894C97.1188 27.1894 98.0136 27.4781 98.6833 28.0554C99.3645 28.6212 99.7802 29.3832 99.9303 30.3416H98.0598C97.979 29.822 97.7538 29.4063 97.3843 29.0946C97.0264 28.7713 96.5472 28.6096 95.9468 28.6096C95.4503 28.6096 95.0635 28.7309 94.7864 28.9733C94.5208 29.2043 94.388 29.5218 94.388 29.9259C94.388 30.2261 94.4862 30.4686 94.6825 30.6533C94.8788 30.8381 95.1212 30.9824 95.4099 31.0863C95.7101 31.1903 96.1315 31.3057 96.6742 31.4327C97.3901 31.5944 97.9674 31.7618 98.4062 31.935C98.8565 32.1082 99.2375 32.3853 99.5493 32.7663C99.8726 33.1358 100.034 33.6439 100.034 34.2905C100.034 35.0872 99.7282 35.7338 99.1163 36.2303C98.5159 36.7267 97.7019 36.975 96.6742 36.975C95.4849 36.975 94.5208 36.6979 93.7819 36.1437C93.0544 35.5894 92.6157 34.8158 92.4656 33.8228H94.388C94.4458 34.3424 94.6767 34.7639 95.0808 35.0872C95.4849 35.4105 96.0161 35.5721 96.6742 35.5721C97.1476 35.5721 97.5171 35.4509 97.7827 35.2084C98.0598 34.9544 98.1983 34.6369 98.1983 34.2558C98.1983 33.921 98.0944 33.6554 97.8866 33.4591C97.6788 33.2628 97.419 33.1127 97.1072 33.0088C96.7955 32.8933 96.3682 32.7779 95.8256 32.6624C95.1328 32.5008 94.567 32.3391 94.1282 32.1775C93.701 32.0158 93.3315 31.756 93.0198 31.3981C92.7196 31.0286 92.5695 30.5321 92.5695 29.9086C92.5695 29.1004 92.8697 28.448 93.4701 27.9515C94.0821 27.4435 94.9249 27.1894 95.9988 27.1894ZM34.26 44.5222C35.7148 44.5222 36.9272 44.8802 37.8971 45.596C38.867 46.3119 39.5078 47.2876 39.8196 48.523H37.7412C37.4757 47.8649 37.0369 47.3395 36.4249 46.947C35.8245 46.5544 35.1086 46.3581 34.2773 46.3581C33.5152 46.3581 32.8282 46.5371 32.2163 46.895C31.6159 47.2529 31.1425 47.761 30.7961 48.4191C30.4612 49.0773 30.2938 49.8509 30.2938 50.7399C30.2938 51.6752 30.467 52.4777 30.8134 53.1474C31.1598 53.8171 31.6447 54.3309 32.2682 54.6888C32.9033 55.0352 33.6365 55.2084 34.4678 55.2084C35.4839 55.2084 36.3557 54.8966 37.0831 54.2731C37.8105 53.6381 38.2493 52.7721 38.3994 51.6752H33.9136V50.2204H40.062V52.1082C39.9235 53.0088 39.6002 53.8286 39.0921 54.5676C38.5957 55.295 37.9317 55.8781 37.1004 56.3169C36.2806 56.7556 35.3396 56.975 34.2773 56.975C33.088 56.975 32.0373 56.7094 31.1251 56.1783C30.213 55.6472 29.5086 54.914 29.0121 53.9787C28.5157 53.0319 28.2674 51.9523 28.2674 50.7399C28.2674 49.5276 28.5157 48.4538 29.0121 47.5185C29.5086 46.5717 30.2072 45.8385 31.1078 45.3189C32.02 44.7878 33.0707 44.5222 34.26 44.5222ZM43.6894 49.1812C44.0127 48.5577 44.4746 48.067 45.075 47.709C45.6754 47.3395 46.3682 47.1548 47.1533 47.1548V49.3024H46.5645C45.6985 49.3024 44.9999 49.516 44.4688 49.9432C43.9492 50.3589 43.6894 51.0517 43.6894 52.0216V56.8538H41.715V47.3107H43.6894V49.1812ZM52.6508 47.1894C53.5745 47.1894 54.4059 47.3857 55.1448 47.7783C55.8838 48.1709 56.4611 48.7366 56.8768 49.4756C57.2925 50.2146 57.5003 51.0806 57.5003 52.0736C57.5003 53.0781 57.2925 53.9498 56.8768 54.6888C56.4611 55.4278 55.8838 55.9936 55.1448 56.3861C54.4059 56.7787 53.5745 56.975 52.6508 56.975C51.7271 56.975 50.8958 56.7787 50.1568 56.3861C49.4294 55.9936 48.852 55.4278 48.4248 54.6888C48.0092 53.9383 47.8013 53.0665 47.8013 52.0736C47.8013 51.0806 48.0092 50.2146 48.4248 49.4756C48.852 48.7366 49.4294 48.1709 50.1568 47.7783C50.8958 47.3857 51.7271 47.1894 52.6508 47.1894ZM52.6508 48.9041C52.1428 48.9041 51.6751 49.0195 51.2479 49.2505C50.8207 49.4814 50.4743 49.8393 50.2088 50.3243C49.9547 50.7977 49.8277 51.3808 49.8277 52.0736C49.8277 52.7779 49.9547 53.3667 50.2088 53.8402C50.4743 54.3136 50.8207 54.6657 51.2479 54.8966C51.6751 55.1276 52.1428 55.243 52.6508 55.243C53.1589 55.243 53.6265 55.1276 54.0537 54.8966C54.4809 54.6657 54.8215 54.3136 55.0756 53.8402C55.3411 53.3667 55.4739 52.7779 55.4739 52.0736C55.4739 51.3808 55.3411 50.7977 55.0756 50.3243C54.8215 49.8393 54.4809 49.4814 54.0537 49.2505C53.6265 49.0195 53.1589 48.9041 52.6508 48.9041ZM72.4229 47.3107L69.773 56.8538H67.5907L65.2353 49.4756L62.8451 56.8538H60.6802L58.0303 47.3107H60.0221L61.8406 55.0352L64.2307 47.3107H66.3091L68.7338 55.0352L70.5524 47.3107H72.4229ZM78.2182 55.1391V56.8538H77.0058C75.9897 56.8538 75.2161 56.6113 74.685 56.1263C74.1654 55.6298 73.9056 54.81 73.9056 53.667V48.9907H72.5374V47.3107H73.9056V44.9379H75.8974V47.3107H78.2009V48.9907H75.8974V53.7016C75.8974 54.2443 75.9955 54.6195 76.1918 54.8274C76.3996 55.0352 76.7576 55.1391 77.2656 55.1391H78.2182ZM85.0558 47.1548C86.1642 47.1548 87.0533 47.5127 87.723 48.2286C88.3927 48.9445 88.7275 49.9663 88.7275 51.2942V56.8538H86.7531V51.502C86.7531 50.6476 86.5337 49.9894 86.0949 49.5276C85.6562 49.0542 85.0558 48.8175 84.2937 48.8175C83.5085 48.8175 82.8793 49.0715 82.4059 49.5795C81.9325 50.076 81.6958 50.8092 81.6958 51.7791V56.8538H79.7213V44.0373H81.6958V49.4063C81.9498 48.6905 82.377 48.1362 82.9774 47.7437C83.5778 47.3511 84.2706 47.1548 85.0558 47.1548Z" fill="#555C6A"/>
<path d="M36.942 91.9513C35.4179 91.9513 34.1016 91.684 32.9932 91.1496C31.9045 90.6152 31.0435 89.8828 30.4101 88.9525C29.7965 88.0024 29.4402 86.9335 29.3412 85.7459H33.0526C33.2307 86.597 33.6662 87.3096 34.359 87.8836C35.0517 88.4379 35.9128 88.715 36.942 88.715C38.0505 88.715 38.9511 88.3092 39.6439 87.4977C40.3565 86.6861 40.7128 85.6766 40.7128 84.4692C40.7128 83.2222 40.3565 82.2325 39.6439 81.5001C38.9511 80.7678 38.0703 80.4016 37.0014 80.4016C36.1107 80.4016 35.3387 80.6193 34.6855 81.0548C34.0324 81.4902 33.5672 82.0346 33.2901 82.6878H29.6381L31.4196 70.8115H42.9396V74.1368H34.2699L33.3198 78.9467C33.7552 78.4717 34.3491 78.0857 35.1012 77.7888C35.8534 77.4721 36.6946 77.3137 37.6249 77.3137C39.1095 77.3137 40.3466 77.6502 41.3363 78.3232C42.326 78.9764 43.0781 79.8473 43.5928 80.936C44.1074 82.0049 44.3647 83.1727 44.3647 84.4395C44.3647 85.8845 44.048 87.1711 43.4146 88.2993C42.801 89.4275 41.9301 90.3183 40.8018 90.9715C39.6934 91.6247 38.4068 91.9513 36.942 91.9513ZM53.6788 91.9513C52.2338 91.9513 51.0165 91.6741 50.0268 91.1199C49.0371 90.5459 48.2652 89.8036 47.711 88.8931C47.1567 87.9826 46.8301 87.0028 46.7312 85.9537H50.2644C50.4227 86.8642 50.7988 87.5669 51.3926 88.0618C52.0062 88.5566 52.7782 88.804 53.7085 88.804C55.0347 88.804 56.1035 88.2003 56.9151 86.9929C57.7266 85.7657 58.1621 83.9051 58.2215 81.4111C57.7464 82.2226 57.024 82.8956 56.0541 83.43C55.104 83.9645 54.0549 84.2317 52.9068 84.2317C51.7588 84.2317 50.68 83.9546 49.6706 83.4003C48.6611 82.8461 47.8396 82.0642 47.2062 81.0548C46.5728 80.0453 46.2561 78.8576 46.2561 77.4919C46.2561 76.2449 46.5629 75.0869 47.1765 74.0181C47.7901 72.9492 48.6413 72.0882 49.7299 71.435C50.8186 70.7818 52.0953 70.4552 53.56 70.4552C55.1237 70.4552 56.44 70.7422 57.5089 71.3162C58.5778 71.8902 59.4289 72.6622 60.0623 73.6321C60.7155 74.602 61.1807 75.6807 61.4578 76.8684C61.7547 78.056 61.9031 79.2733 61.9031 80.5203C61.9031 82.8362 61.5765 84.8552 60.9233 86.5772C60.2899 88.2795 59.3497 89.6057 58.1027 90.5558C56.8755 91.4861 55.4009 91.9513 53.6788 91.9513ZM53.7976 81.0251C54.5299 81.0251 55.193 80.8667 55.7868 80.55C56.3807 80.2135 56.8458 79.7781 57.1823 79.2436C57.5188 78.6894 57.687 78.0758 57.687 77.4028C57.687 76.3339 57.311 75.4531 56.5588 74.7603C55.8264 74.0675 54.8961 73.7212 53.7679 73.7212C52.6594 73.7212 51.739 74.0675 51.0066 74.7603C50.2743 75.4333 49.9081 76.2944 49.9081 77.3434C49.9081 78.4519 50.2743 79.3426 51.0066 80.0156C51.739 80.6886 52.6693 81.0251 53.7976 81.0251ZM69.082 81.0251C68.1319 81.0251 67.2709 80.8172 66.4989 80.4016C65.727 79.9661 65.1134 79.3525 64.6581 78.5607C64.2028 77.769 63.9752 76.8288 63.9752 75.7401C63.9752 74.6515 64.2028 73.7113 64.6581 72.9195C65.1134 72.1278 65.727 71.524 66.4989 71.1084C67.2709 70.6729 68.1418 70.4552 69.1117 70.4552C70.0618 70.4552 70.9129 70.6729 71.6651 71.1084C72.4371 71.524 73.0507 72.1278 73.5059 72.9195C73.9612 73.7113 74.1888 74.6515 74.1888 75.7401C74.1888 76.8288 73.9612 77.769 73.5059 78.5607C73.0507 79.3525 72.4371 79.9661 71.6651 80.4016C70.8932 80.8172 70.0321 81.0251 69.082 81.0251ZM67.9538 91.595L79.6816 70.8115H83.3929L71.6651 91.595H67.9538ZM69.082 78.3826C69.656 78.3826 70.1509 78.1649 70.5666 77.7294C70.9822 77.2741 71.1901 76.6111 71.1901 75.7401C71.1901 74.8692 70.9822 74.2061 70.5666 73.7508C70.1707 73.2956 69.6758 73.068 69.082 73.068C68.4882 73.068 67.9835 73.2956 67.5678 73.7508C67.1719 74.2061 66.974 74.8692 66.974 75.7401C66.974 76.6111 67.1719 77.2741 67.5678 77.7294C67.9835 78.1649 68.4882 78.3826 69.082 78.3826ZM82.3835 91.9513C81.4334 91.9513 80.5723 91.7434 79.8004 91.3278C79.0284 90.8923 78.4148 90.2787 77.9595 89.4869C77.5043 88.6952 77.2767 87.755 77.2767 86.6663C77.2767 85.5777 77.5043 84.6473 77.9595 83.8754C78.4148 83.0836 79.0284 82.4799 79.8004 82.0642C80.5723 81.6288 81.4433 81.4111 82.4132 81.4111C83.3633 81.4111 84.2144 81.6288 84.9666 82.0642C85.7385 82.4799 86.3521 83.0836 86.8074 83.8754C87.2626 84.6473 87.4903 85.5777 87.4903 86.6663C87.4903 87.755 87.2626 88.6952 86.8074 89.4869C86.3521 90.2787 85.7385 90.8923 84.9666 91.3278C84.2144 91.7434 83.3534 91.9513 82.3835 91.9513ZM82.3835 89.3088C82.9773 89.3088 83.4721 89.0911 83.868 88.6556C84.2837 88.2003 84.4915 87.5372 84.4915 86.6663C84.4915 85.7954 84.2837 85.1323 83.868 84.677C83.4721 84.2218 82.9773 83.9941 82.3835 83.9941C81.7897 83.9941 81.2849 84.2218 80.8692 84.677C80.4734 85.1323 80.2754 85.7954 80.2754 86.6663C80.2754 87.5372 80.4734 88.2003 80.8692 88.6556C81.2849 89.0911 81.7897 89.3088 82.3835 89.3088Z" fill="#01022E"/>
<rect x="207.204" y="87.3037" width="56.3758" height="6.59735" rx="3.29867" transform="rotate(-90 207.204 87.3037)" fill="#DCDFEE"/>
<rect x="207.204" y="87.3037" width="13.4435" height="6.59735" rx="3.29868" transform="rotate(-90 207.204 87.3037)" fill="#0047FF"/>
<rect x="189.243" y="87.3037" width="56.3758" height="6.59729" rx="3.29865" transform="rotate(-90 189.243 87.3037)" fill="#DCDFEE"/>
<rect x="189.243" y="87.3037" width="51.1719" height="6.59736" rx="3.29868" transform="rotate(-90 189.243 87.3037)" fill="#0047FF"/>
<rect x="171.282" y="87.3035" width="56.3758" height="6.59736" rx="3.29868" transform="rotate(-90 171.282 87.3035)" fill="#DCDFEE"/>
<rect x="171.282" y="87.3035" width="39.0294" height="6.59736" rx="3.29868" transform="rotate(-90 171.282 87.3035)" fill="#0047FF"/>
<rect x="153.322" y="87.3035" width="56.3758" height="6.59737" rx="3.29868" transform="rotate(-90 153.322 87.3035)" fill="#DCDFEE"/>
<rect x="153.322" y="87.3035" width="29.0552" height="6.59736" rx="3.29868" transform="rotate(-90 153.322 87.3035)" fill="#0047FF"/>
<rect x="135.36" y="87.3035" width="56.3758" height="6.59737" rx="3.29868" transform="rotate(-90 135.36 87.3035)" fill="#DCDFEE"/>
<rect x="135.36" y="87.3035" width="46.4016" height="6.59738" rx="3.29869" transform="rotate(-90 135.36 87.3035)" fill="#0047FF"/>
</svg>
