<svg width="131" height="120" viewBox="0 0 131 120" fill="none" xmlns="http://www.w3.org/2000/svg">
<path d="M110.024 2.0714C110.026 2.48301 109.908 2.88589 109.686 3.22899C109.464 3.5721 109.148 3.84 108.777 3.99875C108.406 4.1575 107.998 4.19996 107.604 4.12075C107.209 4.04155 106.847 3.84423 106.562 3.55381C106.278 3.26339 106.083 2.89293 106.004 2.48936C105.925 2.08579 105.965 1.66727 106.118 1.28681C106.272 0.906364 106.532 0.581102 106.866 0.352235C107.2 0.123368 107.593 0.00119345 107.994 0.00118959C108.26 4.27646e-06 108.524 0.0526771 108.77 0.156184C109.017 0.259691 109.24 0.411994 109.429 0.604349C109.618 0.796704 109.767 1.02532 109.869 1.27708C109.972 1.52884 110.024 1.79878 110.024 2.0714Z" fill="#BBBDCB"/>
<path d="M130.717 2.0714C130.719 2.48301 130.601 2.88589 130.379 3.22899C130.157 3.5721 129.841 3.84 129.47 3.99875C129.099 4.1575 128.691 4.19996 128.297 4.12075C127.902 4.04155 127.54 3.84423 127.255 3.55381C126.97 3.26339 126.776 2.89293 126.697 2.48936C126.618 2.08579 126.658 1.66727 126.811 1.28681C126.964 0.906364 127.225 0.581102 127.559 0.352235C127.893 0.123368 128.285 0.00119345 128.687 0.00118959C129.224 0.00118444 129.739 0.219008 130.119 0.606991C130.5 0.994974 130.715 1.52152 130.717 2.0714Z" fill="#BBBDCB"/>
<path d="M110.024 18.5791C110.026 18.9907 109.908 19.3936 109.686 19.7367C109.464 20.0798 109.148 20.3477 108.777 20.5064C108.406 20.6652 107.998 20.7077 107.604 20.6284C107.209 20.5492 106.847 20.3519 106.562 20.0615C106.278 19.7711 106.083 19.4006 106.004 18.997C105.925 18.5935 105.965 18.175 106.118 17.7945C106.272 17.4141 106.532 17.0888 106.866 16.8599C107.2 16.6311 107.593 16.5089 107.994 16.5089C108.26 16.5077 108.524 16.5604 108.77 16.6639C109.017 16.7674 109.24 16.9197 109.429 17.112C109.618 17.3044 109.767 17.533 109.869 17.7848C109.972 18.0365 110.024 18.3065 110.024 18.5791Z" fill="#BBBDCB"/>
<path d="M130.717 18.5791C130.719 18.9907 130.601 19.3936 130.379 19.7367C130.157 20.0798 129.841 20.3477 129.47 20.5064C129.099 20.6652 128.691 20.7077 128.297 20.6284C127.902 20.5492 127.54 20.3519 127.255 20.0615C126.97 19.7711 126.776 19.4006 126.697 18.997C126.618 18.5935 126.658 18.175 126.811 17.7945C126.964 17.4141 127.225 17.0888 127.559 16.8599C127.893 16.6311 128.285 16.5089 128.687 16.5089C129.224 16.5089 129.739 16.7267 130.119 17.1147C130.5 17.5027 130.715 18.0292 130.717 18.5791Z" fill="#BBBDCB"/>
<path d="M110.024 35.1048C110.024 35.516 109.905 35.918 109.682 36.2599C109.459 36.6018 109.142 36.8684 108.771 37.0257C108.4 37.1831 107.992 37.2243 107.598 37.144C107.205 37.0638 106.843 36.8658 106.559 36.575C106.275 36.2842 106.082 35.9137 106.004 35.5104C105.925 35.1071 105.965 34.689 106.119 34.3091C106.273 33.9292 106.533 33.6044 106.867 33.376C107.2 33.1475 107.593 33.0256 107.994 33.0256C108.261 33.0244 108.526 33.0773 108.772 33.1814C109.019 33.2855 109.243 33.4386 109.432 33.6319C109.621 33.8252 109.77 34.0549 109.872 34.3077C109.974 34.5605 110.025 34.8314 110.024 35.1048Z" fill="#BBBDCB"/>
<path d="M130.717 35.1048C130.717 35.516 130.598 35.918 130.375 36.2599C130.152 36.6018 129.835 36.8684 129.464 37.0257C129.093 37.1831 128.685 37.2243 128.291 37.144C127.897 37.0638 127.536 36.8658 127.252 36.575C126.968 36.2842 126.775 35.9137 126.696 35.5104C126.618 35.1071 126.658 34.689 126.812 34.3091C126.966 33.9292 127.226 33.6044 127.559 33.376C127.893 33.1475 128.286 33.0256 128.687 33.0256C129.225 33.0256 129.742 33.2446 130.122 33.6346C130.503 34.0245 130.717 34.5533 130.717 35.1048Z" fill="#BBBDCB"/>
<path d="M110.024 51.6035C110.021 52.0139 109.899 52.4141 109.674 52.7537C109.448 53.0932 109.13 53.3569 108.759 53.5115C108.388 53.6661 107.98 53.7048 107.588 53.6225C107.195 53.5403 106.835 53.3408 106.553 53.0493C106.271 52.7579 106.079 52.3874 106.002 51.9845C105.926 51.5817 105.967 51.1646 106.121 50.7857C106.275 50.4068 106.535 50.0831 106.869 49.8554C107.202 49.6278 107.594 49.5063 107.994 49.5063C108.262 49.5062 108.528 49.5606 108.775 49.6662C109.023 49.7718 109.247 49.9266 109.436 50.1216C109.625 50.3166 109.774 50.5479 109.875 50.8023C109.976 51.0566 110.026 51.3289 110.024 51.6035Z" fill="#BBBDCB"/>
<path d="M130.717 51.6035C130.713 52.0139 130.591 52.4141 130.366 52.7537C130.141 53.0932 129.823 53.3569 129.452 53.5115C129.081 53.6661 128.673 53.7048 128.28 53.6225C127.888 53.5403 127.528 53.3408 127.246 53.0493C126.964 52.7579 126.772 52.3874 126.695 51.9845C126.618 51.5817 126.66 51.1646 126.814 50.7857C126.968 50.4068 127.228 50.0831 127.561 49.8554C127.895 49.6278 128.286 49.5063 128.687 49.5063C128.955 49.5074 129.22 49.5626 129.467 49.6686C129.713 49.7747 129.938 49.9295 130.126 50.1242C130.314 50.319 130.464 50.5498 130.565 50.8036C130.666 51.0575 130.718 51.3292 130.717 51.6035Z" fill="#BBBDCB"/>
<path d="M26.1531 67.1189C26.1548 67.5305 26.0373 67.9334 25.8153 68.2765C25.5933 68.6196 25.2769 68.8875 24.9062 69.0462C24.5355 69.205 24.1271 69.2475 23.7328 69.1683C23.3385 69.089 22.976 68.8917 22.6912 68.6013C22.4065 68.3109 22.2123 67.9404 22.1333 67.5369C22.0543 67.1333 22.0939 66.7148 22.2473 66.3343C22.4007 65.9539 22.6608 65.6286 22.9948 65.3997C23.3288 65.1709 23.7215 65.0487 24.1234 65.0487C24.3895 65.0475 24.6532 65.1002 24.8994 65.2037C25.1456 65.3072 25.3695 65.4595 25.5581 65.6518C25.7467 65.8442 25.8963 66.0728 25.9984 66.3246C26.1005 66.5763 26.1531 66.8463 26.1531 67.1189Z" fill="#BBBDCB"/>
<path d="M46.8459 67.1189C46.8476 67.5305 46.73 67.9334 46.5081 68.2765C46.2861 68.6196 45.9697 68.8875 45.599 69.0462C45.2282 69.205 44.8199 69.2475 44.4255 69.1683C44.0312 69.089 43.6688 68.8917 43.384 68.6013C43.0993 68.3109 42.9051 67.9404 42.826 67.5369C42.747 67.1333 42.7867 66.7148 42.9401 66.3343C43.0934 65.9539 43.3536 65.6286 43.6875 65.3997C44.0215 65.1709 44.4143 65.0487 44.8161 65.0487C45.3529 65.0487 45.8679 65.2665 46.2483 65.6545C46.6287 66.0425 46.8435 66.569 46.8459 67.1189Z" fill="#BBBDCB"/>
<path d="M67.5298 67.1189C67.5298 67.5283 67.4113 67.9286 67.1892 68.269C66.9672 68.6095 66.6516 68.8748 66.2823 69.0315C65.913 69.1882 65.5066 69.2292 65.1146 69.1493C64.7226 69.0695 64.3625 68.8723 64.0799 68.5828C63.7972 68.2932 63.6047 67.9244 63.5268 67.5228C63.4488 67.1212 63.4888 66.7049 63.6418 66.3267C63.7947 65.9484 64.0538 65.6251 64.3861 65.3976C64.7184 65.1701 65.1092 65.0487 65.5089 65.0487C66.0449 65.0487 66.5589 65.2668 66.9379 65.655C67.3169 66.0433 67.5298 66.5698 67.5298 67.1189Z" fill="#BBBDCB"/>
<path d="M88.2226 67.1189C88.2242 67.5328 88.1052 67.9377 87.8808 68.2819C87.6564 68.6261 87.3369 68.8939 86.9631 69.0509C86.5892 69.208 86.1782 69.2471 85.7825 69.1635C85.3868 69.0798 85.0245 68.877 84.7419 68.5812C84.4594 68.2853 84.2695 67.9098 84.1965 67.5027C84.1235 67.0957 84.1708 66.6755 84.3323 66.2962C84.4938 65.9168 84.7622 65.5954 85.103 65.3732C85.4438 65.1509 85.8417 65.0379 86.2456 65.0487C86.7739 65.0605 87.2767 65.2837 87.6463 65.6707C88.0158 66.0577 88.2227 66.5776 88.2226 67.1189Z" fill="#BBBDCB"/>
<path d="M26.1531 83.6266C26.1548 84.0382 26.0373 84.4411 25.8153 84.7842C25.5933 85.1273 25.2769 85.3952 24.9062 85.5539C24.5355 85.7127 24.1271 85.7551 23.7328 85.6759C23.3385 85.5967 22.976 85.3994 22.6912 85.109C22.4065 84.8186 22.2123 84.4481 22.1333 84.0445C22.0543 83.641 22.0939 83.2225 22.2473 82.842C22.4007 82.4615 22.6608 82.1363 22.9948 81.9074C23.3288 81.6786 23.7215 81.5564 24.1234 81.5564C24.3895 81.5552 24.6532 81.6079 24.8994 81.7114C25.1456 81.8149 25.3695 81.9672 25.5581 82.1595C25.7467 82.3519 25.8963 82.5805 25.9984 82.8323C26.1005 83.084 26.1531 83.354 26.1531 83.6266Z" fill="#BBBDCB"/>
<path d="M46.8459 83.6266C46.8476 84.0382 46.73 84.4411 46.5081 84.7842C46.2861 85.1273 45.9697 85.3952 45.599 85.5539C45.2282 85.7127 44.8199 85.7551 44.4255 85.6759C44.0312 85.5967 43.6688 85.3994 43.384 85.109C43.0993 84.8186 42.9051 84.4481 42.826 84.0445C42.747 83.641 42.7867 83.2225 42.9401 82.842C43.0934 82.4615 43.3536 82.1363 43.6875 81.9074C44.0215 81.6786 44.4143 81.5564 44.8161 81.5564C45.3529 81.5564 45.8679 81.7742 46.2483 82.1622C46.6287 82.5502 46.8435 83.0767 46.8459 83.6266Z" fill="#BBBDCB"/>
<path d="M67.5298 83.6266C67.5298 84.036 67.4113 84.4363 67.1892 84.7767C66.9672 85.1172 66.6516 85.3825 66.2823 85.5392C65.913 85.6959 65.5066 85.7369 65.1146 85.657C64.7226 85.5771 64.3625 85.38 64.0799 85.0904C63.7972 84.8009 63.6047 84.432 63.5268 84.0305C63.4488 83.6289 63.4888 83.2126 63.6418 82.8344C63.7947 82.4561 64.0538 82.1327 64.3861 81.9053C64.7184 81.6778 65.1092 81.5564 65.5089 81.5564C66.0449 81.5564 66.5589 81.7745 66.9379 82.1627C67.3169 82.551 67.5298 83.0775 67.5298 83.6266Z" fill="#BBBDCB"/>
<path d="M88.2226 83.6266C88.2243 84.0386 88.1065 84.4418 87.8842 84.7851C87.6618 85.1284 87.3449 85.3963 86.9737 85.5548C86.6024 85.7133 86.1936 85.7552 85.799 85.6753C85.4045 85.5953 85.042 85.3971 84.7576 85.1058C84.4732 84.8145 84.2797 84.4432 84.2017 84.039C84.1237 83.6348 84.1646 83.216 84.3193 82.8357C84.474 82.4554 84.7356 82.1308 85.0707 81.903C85.4058 81.6752 85.7995 81.5546 86.2016 81.5564C86.7376 81.5564 87.2517 81.7745 87.6307 82.1627C88.0097 82.551 88.2226 83.0775 88.2226 83.6266Z" fill="#BBBDCB"/>
<path d="M26.1531 2.0714C26.1548 2.48301 26.0373 2.88589 25.8153 3.22899C25.5933 3.5721 25.2769 3.84 24.9062 3.99875C24.5355 4.1575 24.1271 4.19996 23.7328 4.12075C23.3385 4.04155 22.976 3.84423 22.6912 3.55381C22.4065 3.26339 22.2123 2.89293 22.1333 2.48936C22.0543 2.08579 22.0939 1.66727 22.2473 1.28681C22.4007 0.906364 22.6608 0.581102 22.9948 0.352235C23.3288 0.123368 23.7215 0.00119345 24.1234 0.00118959C24.3895 4.27646e-06 24.6532 0.0526771 24.8994 0.156184C25.1456 0.259691 25.3695 0.411994 25.5581 0.604349C25.7467 0.796704 25.8963 1.02532 25.9984 1.27708C26.1005 1.52884 26.1531 1.79878 26.1531 2.0714Z" fill="#BBBDCB"/>
<path d="M46.8459 2.0714C46.8476 2.48301 46.73 2.88589 46.5081 3.22899C46.2861 3.5721 45.9697 3.84 45.599 3.99875C45.2282 4.1575 44.8199 4.19996 44.4255 4.12075C44.0312 4.04155 43.6688 3.84423 43.384 3.55381C43.0993 3.26339 42.9051 2.89293 42.826 2.48936C42.747 2.08579 42.7867 1.66727 42.9401 1.28681C43.0934 0.906364 43.3536 0.581102 43.6875 0.352235C44.0215 0.123368 44.4143 0.00119345 44.8161 0.00118959C45.3529 0.00118444 45.8679 0.219008 46.2483 0.606991C46.6287 0.994974 46.8435 1.52152 46.8459 2.0714Z" fill="#BBBDCB"/>
<path d="M67.5298 2.0714C67.5298 2.48085 67.4113 2.8811 67.1892 3.22155C66.9672 3.56199 66.6516 3.82734 66.2823 3.98403C65.913 4.14072 65.5066 4.18171 65.1146 4.10183C64.7226 4.02196 64.3625 3.82479 64.0799 3.53526C63.7972 3.24574 63.6047 2.87686 63.5268 2.47528C63.4488 2.0737 63.4888 1.65745 63.6418 1.27917C63.7947 0.900884 64.0538 0.577561 64.3861 0.350083C64.7184 0.122605 65.1092 0.00118959 65.5089 0.00118959C66.0449 0.00118959 66.5589 0.219301 66.9379 0.607541C67.3169 0.995781 67.5298 1.52235 67.5298 2.0714Z" fill="#BBBDCB"/>
<path d="M88.2226 2.0714C88.2242 2.48528 88.1052 2.89024 87.8808 3.23442C87.6564 3.57861 87.3369 3.84637 86.9631 4.00341C86.5892 4.16046 86.1782 4.19965 85.7825 4.11597C85.3868 4.03229 85.0245 3.82954 84.7419 3.53368C84.4594 3.23783 84.2695 2.86232 84.1965 2.45525C84.1235 2.04817 84.1708 1.62805 84.3323 1.24866C84.4938 0.869276 84.7622 0.547893 85.103 0.325656C85.4438 0.103419 85.8417 -0.0095573 86.2456 0.00118959C86.7739 0.0129579 87.2767 0.236253 87.6463 0.623225C88.0158 1.0102 88.2227 1.53006 88.2226 2.0714Z" fill="#BBBDCB"/>
<path d="M26.1531 18.5791C26.1548 18.9907 26.0373 19.3936 25.8153 19.7367C25.5933 20.0798 25.2769 20.3477 24.9062 20.5064C24.5355 20.6652 24.1271 20.7077 23.7328 20.6284C23.3385 20.5492 22.976 20.3519 22.6912 20.0615C22.4065 19.7711 22.2123 19.4006 22.1333 18.997C22.0543 18.5935 22.0939 18.175 22.2473 17.7945C22.4007 17.4141 22.6608 17.0888 22.9948 16.8599C23.3288 16.6311 23.7215 16.5089 24.1234 16.5089C24.3895 16.5077 24.6532 16.5604 24.8994 16.6639C25.1456 16.7674 25.3695 16.9197 25.5581 17.112C25.7467 17.3044 25.8963 17.533 25.9984 17.7848C26.1005 18.0365 26.1531 18.3065 26.1531 18.5791Z" fill="#BBBDCB"/>
<path d="M46.8459 18.5791C46.8476 18.9907 46.73 19.3936 46.5081 19.7367C46.2861 20.0798 45.9697 20.3477 45.599 20.5064C45.2282 20.6652 44.8199 20.7077 44.4255 20.6284C44.0312 20.5492 43.6688 20.3519 43.384 20.0615C43.0993 19.7711 42.9051 19.4006 42.826 18.997C42.747 18.5935 42.7867 18.175 42.9401 17.7945C43.0934 17.4141 43.3536 17.0888 43.6875 16.8599C44.0215 16.6311 44.4143 16.5089 44.8161 16.5089C45.3529 16.5089 45.8679 16.7267 46.2483 17.1147C46.6287 17.5027 46.8435 18.0292 46.8459 18.5791Z" fill="#BBBDCB"/>
<path d="M67.5298 18.5791C67.5298 18.9885 67.4113 19.3888 67.1892 19.7292C66.9672 20.0697 66.6516 20.335 66.2823 20.4917C65.913 20.6484 65.5066 20.6894 65.1146 20.6095C64.7226 20.5296 64.3625 20.3325 64.0799 20.0429C63.7972 19.7534 63.6047 19.3845 63.5268 18.983C63.4488 18.5814 63.4888 18.1651 63.6418 17.7869C63.7947 17.4086 64.0538 17.0852 64.3861 16.8578C64.7184 16.6303 65.1092 16.5089 65.5089 16.5089C66.0449 16.5089 66.5589 16.727 66.9379 17.1152C67.3169 17.5035 67.5298 18.03 67.5298 18.5791Z" fill="#BBBDCB"/>
<path d="M88.2226 18.5791C88.2243 18.9911 88.1065 19.3943 87.8842 19.7376C87.6618 20.0809 87.3449 20.3488 86.9737 20.5073C86.6024 20.6658 86.1936 20.7077 85.799 20.6278C85.4045 20.5478 85.042 20.3496 84.7576 20.0583C84.4732 19.767 84.2797 19.3957 84.2017 18.9915C84.1237 18.5873 84.1646 18.1685 84.3193 17.7882C84.474 17.408 84.7356 17.0833 85.0707 16.8555C85.4058 16.6278 85.7995 16.5071 86.2016 16.5089C86.7376 16.5089 87.2517 16.727 87.6307 17.1152C88.0097 17.5035 88.2226 18.03 88.2226 18.5791Z" fill="#BBBDCB"/>
<path d="M26.1531 35.1048C26.1531 35.516 26.034 35.918 25.811 36.2599C25.588 36.6018 25.271 36.8684 24.9001 37.0257C24.5292 37.1831 24.1211 37.2243 23.7274 37.144C23.3336 37.0638 22.972 36.8658 22.6881 36.575C22.4043 36.2842 22.2109 35.9137 22.1326 35.5104C22.0543 35.1071 22.0945 34.689 22.2481 34.3091C22.4018 33.9292 22.6619 33.6044 22.9957 33.376C23.3295 33.1475 23.7219 33.0256 24.1234 33.0256C24.3902 33.0244 24.6547 33.0773 24.9015 33.1814C25.1483 33.2855 25.3725 33.4386 25.5612 33.6319C25.7499 33.8252 25.8994 34.0549 26.001 34.3077C26.1025 34.5605 26.1543 34.8314 26.1531 35.1048Z" fill="#BBBDCB"/>
<path d="M46.8459 35.1048C46.8459 35.516 46.7268 35.918 46.5038 36.2599C46.2808 36.6018 45.9637 36.8684 45.5929 37.0257C45.222 37.1831 44.8139 37.2243 44.4201 37.144C44.0264 37.0638 43.6647 36.8658 43.3809 36.575C43.097 36.2842 42.9037 35.9137 42.8254 35.5104C42.7471 35.1071 42.7873 34.689 42.9409 34.3091C43.0945 33.9292 43.3547 33.6044 43.6885 33.376C44.0222 33.1475 44.4147 33.0256 44.8161 33.0256C45.3544 33.0256 45.8707 33.2446 46.2514 33.6346C46.632 34.0245 46.8459 34.5533 46.8459 35.1048Z" fill="#BBBDCB"/>
<path d="M67.5298 35.1048C67.5281 35.5138 67.4081 35.9132 67.185 36.2525C66.9619 36.5917 66.6456 36.8557 66.2762 37.011C65.9068 37.1663 65.5007 37.206 65.1093 37.1251C64.7178 37.0442 64.3585 36.8463 64.0768 36.5565C63.795 36.2666 63.6034 35.8977 63.5261 35.4964C63.4489 35.095 63.4894 34.6792 63.6426 34.3015C63.7958 33.9237 64.0549 33.6009 64.387 33.3738C64.7192 33.1468 65.1096 33.0256 65.5089 33.0256C65.775 33.0256 66.0385 33.0794 66.2843 33.184C66.5301 33.2886 66.7533 33.4419 66.941 33.6351C67.1288 33.8283 67.2775 34.0576 67.3785 34.3098C67.4796 34.562 67.531 34.8322 67.5298 35.1048Z" fill="#BBBDCB"/>
<path d="M88.2226 35.1048C88.2225 35.5183 88.102 35.9223 87.8765 36.2653C87.6511 36.6083 87.3309 36.8747 86.9569 37.0303C86.583 37.186 86.1722 37.2239 85.7771 37.1392C85.382 37.0545 85.0205 36.851 84.7389 36.5548C84.4572 36.2586 84.2682 35.8831 84.1959 35.4763C84.1236 35.0695 84.1714 34.6498 84.3332 34.271C84.4949 33.8921 84.7633 33.5713 85.1039 33.3494C85.4446 33.1276 85.8421 33.0148 86.2456 33.0256C86.7754 33.0374 87.2796 33.2619 87.6494 33.6508C88.0192 34.0397 88.225 34.5619 88.2226 35.1048Z" fill="#BBBDCB"/>
<path d="M26.1531 51.6035C26.1496 52.0139 26.0276 52.4141 25.8025 52.7537C25.5774 53.0932 25.2592 53.3569 24.888 53.5115C24.5168 53.6661 24.1093 53.7048 23.7167 53.6225C23.3241 53.5403 22.9641 53.3408 22.682 53.0493C22.3999 52.7579 22.2083 52.3874 22.1314 51.9845C22.0545 51.5817 22.0957 51.1646 22.2499 50.7857C22.404 50.4068 22.6641 50.0831 22.9975 49.8554C23.3309 49.6278 23.7227 49.5063 24.1234 49.5063C24.3914 49.5062 24.6568 49.5606 24.9042 49.6662C25.1516 49.7718 25.3761 49.9266 25.5648 50.1216C25.7536 50.3166 25.9027 50.5479 26.0037 50.8023C26.1046 51.0566 26.1554 51.3289 26.1531 51.6035Z" fill="#BBBDCB"/>
<path d="M46.8459 51.6035C46.8424 52.0139 46.7204 52.4141 46.4953 52.7537C46.2701 53.0932 45.9519 53.3569 45.5808 53.5115C45.2096 53.6661 44.802 53.7048 44.4095 53.6225C44.0169 53.5403 43.6569 53.3408 43.3748 53.0493C43.0927 52.7579 42.9011 52.3874 42.8242 51.9845C42.7473 51.5817 42.7885 51.1646 42.9426 50.7857C43.0968 50.4068 43.3569 50.0831 43.6903 49.8554C44.0237 49.6278 44.4154 49.5063 44.8161 49.5063C45.0838 49.5074 45.3487 49.5626 45.5956 49.6686C45.8424 49.7747 46.0665 49.9295 46.255 50.1242C46.4435 50.319 46.5927 50.5498 46.694 50.8036C46.7954 51.0575 46.847 51.3292 46.8459 51.6035Z" fill="#BBBDCB"/>
<path d="M67.5298 51.6035C67.5246 52.0117 67.4017 52.4093 67.1765 52.7462C66.9513 53.083 66.6339 53.3442 66.2642 53.4967C65.8945 53.6493 65.489 53.6865 65.0987 53.6035C64.7084 53.5206 64.3508 53.3214 64.0708 53.0308C63.7908 52.7402 63.6009 52.3713 63.5251 51.9705C63.4492 51.5697 63.4907 51.1548 63.6444 50.7781C63.7981 50.4014 64.0571 50.0797 64.3889 49.8534C64.7206 49.627 65.1103 49.5063 65.5089 49.5063C65.7762 49.5074 66.0406 49.5627 66.287 49.6688C66.5334 49.775 66.7569 49.9299 66.9447 50.1248C67.1325 50.3196 67.2808 50.5506 67.3812 50.8043C67.4817 51.0581 67.5322 51.3297 67.5298 51.6035Z" fill="#BBBDCB"/>
<path d="M88.2226 51.6035C88.219 52.0162 88.0955 52.4185 87.868 52.7591C87.6404 53.0997 87.3191 53.3632 86.9448 53.5161C86.5706 53.669 86.1604 53.7043 85.7665 53.6176C85.3725 53.5308 85.0127 53.326 84.7328 53.0291C84.453 52.7322 84.2657 52.3567 84.1948 51.9504C84.124 51.5441 84.1728 51.1254 84.335 50.7476C84.4972 50.3698 84.7655 50.05 85.1058 49.8289C85.446 49.6079 85.8428 49.4955 86.2456 49.5063C86.7778 49.5204 87.2832 49.7481 87.653 50.1404C88.0228 50.5327 88.2274 51.0581 88.2226 51.6035Z" fill="#BBBDCB"/>
<path d="M110.024 67.1189C110.026 67.5305 109.908 67.9334 109.686 68.2765C109.464 68.6196 109.148 68.8875 108.777 69.0462C108.406 69.205 107.998 69.2475 107.604 69.1683C107.209 69.089 106.847 68.8917 106.562 68.6013C106.278 68.3109 106.083 67.9404 106.004 67.5369C105.925 67.1333 105.965 66.7148 106.118 66.3343C106.272 65.9539 106.532 65.6286 106.866 65.3997C107.2 65.1709 107.593 65.0487 107.994 65.0487C108.26 65.0475 108.524 65.1002 108.77 65.2037C109.017 65.3072 109.24 65.4595 109.429 65.6518C109.618 65.8442 109.767 66.0728 109.869 66.3246C109.972 66.5763 110.024 66.8463 110.024 67.1189Z" fill="#BBBDCB"/>
<path d="M130.717 67.1189C130.719 67.5305 130.601 67.9334 130.379 68.2765C130.157 68.6196 129.841 68.8875 129.47 69.0462C129.099 69.205 128.691 69.2475 128.297 69.1683C127.902 69.089 127.54 68.8917 127.255 68.6013C126.97 68.3109 126.776 67.9404 126.697 67.5369C126.618 67.1333 126.658 66.7148 126.811 66.3343C126.964 65.9539 127.225 65.6286 127.559 65.3997C127.893 65.1709 128.285 65.0487 128.687 65.0487C129.224 65.0487 129.739 65.2665 130.119 65.6545C130.5 66.0425 130.715 66.569 130.717 67.1189Z" fill="#BBBDCB"/>
<path d="M110.024 83.6266C110.026 84.0382 109.908 84.4411 109.686 84.7842C109.464 85.1273 109.148 85.3952 108.777 85.5539C108.406 85.7127 107.998 85.7551 107.604 85.6759C107.209 85.5967 106.847 85.3994 106.562 85.109C106.278 84.8186 106.083 84.4481 106.004 84.0445C105.925 83.641 105.965 83.2225 106.118 82.842C106.272 82.4615 106.532 82.1363 106.866 81.9074C107.2 81.6786 107.593 81.5564 107.994 81.5564C108.26 81.5552 108.524 81.6079 108.77 81.7114C109.017 81.8149 109.24 81.9672 109.429 82.1595C109.618 82.3519 109.767 82.5805 109.869 82.8323C109.972 83.084 110.024 83.354 110.024 83.6266Z" fill="#BBBDCB"/>
<path d="M130.717 83.6266C130.719 84.0382 130.601 84.4411 130.379 84.7842C130.157 85.1273 129.841 85.3952 129.47 85.5539C129.099 85.7127 128.691 85.7551 128.297 85.6759C127.902 85.5967 127.54 85.3994 127.255 85.109C126.97 84.8186 126.776 84.4481 126.697 84.0445C126.618 83.641 126.658 83.2225 126.811 82.842C126.964 82.4615 127.225 82.1363 127.559 81.9074C127.893 81.6786 128.285 81.5564 128.687 81.5564C129.224 81.5564 129.739 81.7742 130.119 82.1622C130.5 82.5502 130.715 83.0767 130.717 83.6266Z" fill="#BBBDCB"/>
<path d="M4.72451 67.1182C4.72625 67.5298 4.60869 67.9327 4.38672 68.2758C4.16475 68.6189 3.84836 68.8868 3.47763 69.0456C3.1069 69.2043 2.69851 69.2468 2.30421 69.1676C1.9099 69.0884 1.54741 68.8911 1.26267 68.6006C0.977928 68.3102 0.78374 67.9397 0.704707 67.5362C0.625674 67.1326 0.665354 66.7141 0.818719 66.3336C0.972083 65.9532 1.23223 65.6279 1.56621 65.399C1.90018 65.1702 2.29296 65.048 2.69478 65.048C2.96091 65.0468 3.22465 65.0995 3.47086 65.203C3.71707 65.3065 3.94089 65.4588 4.12949 65.6512C4.31808 65.8435 4.46773 66.0721 4.56984 66.3239C4.67195 66.5757 4.72451 66.8456 4.72451 67.1182Z" fill="#BBBDCB"/>
<path d="M4.72451 83.6259C4.72625 84.0375 4.60869 84.4404 4.38672 84.7835C4.16475 85.1266 3.84836 85.3945 3.47763 85.5533C3.1069 85.712 2.69851 85.7545 2.30421 85.6753C1.9099 85.5961 1.54741 85.3987 1.26267 85.1083C0.977928 84.8179 0.78374 84.4474 0.704707 84.0439C0.625674 83.6403 0.665354 83.2218 0.818719 82.8413C0.972083 82.4609 1.23223 82.1356 1.56621 81.9067C1.90018 81.6779 2.29296 81.5557 2.69478 81.5557C2.96091 81.5545 3.22465 81.6072 3.47086 81.7107C3.71707 81.8142 3.94089 81.9665 4.12949 82.1589C4.31808 82.3512 4.46773 82.5798 4.56984 82.8316C4.67195 83.0834 4.72451 83.3533 4.72451 83.6259Z" fill="#BBBDCB"/>
<path d="M4.72451 2.07072C4.72625 2.48233 4.60869 2.8852 4.38672 3.22831C4.16475 3.57142 3.84836 3.83932 3.47763 3.99807C3.1069 4.15682 2.69851 4.19928 2.30421 4.12007C1.9099 4.04087 1.54741 3.84355 1.26267 3.55313C0.977928 3.26271 0.78374 2.89225 0.704707 2.48868C0.625674 2.0851 0.665354 1.66658 0.818719 1.28613C0.972083 0.905682 1.23223 0.58042 1.56621 0.351553C1.90018 0.122686 2.29296 0.000511707 2.69478 0.00050785C2.96091 -0.000677468 3.22465 0.0519953 3.47086 0.155502C3.71707 0.259009 3.94089 0.411312 4.12949 0.603667C4.31808 0.796022 4.46773 1.02464 4.56984 1.2764C4.67195 1.52816 4.72451 1.7981 4.72451 2.07072Z" fill="#BBBDCB"/>
<path d="M4.72451 18.5784C4.72625 18.99 4.60869 19.3929 4.38672 19.736C4.16475 20.0791 3.84836 20.347 3.47763 20.5058C3.1069 20.6645 2.69851 20.707 2.30421 20.6278C1.9099 20.5486 1.54741 20.3512 1.26267 20.0608C0.977928 19.7704 0.78374 19.3999 0.704707 18.9964C0.625674 18.5928 0.665354 18.1743 0.818719 17.7938C0.972083 17.4134 1.23223 17.0881 1.56621 16.8592C1.90018 16.6304 2.29296 16.5082 2.69478 16.5082C2.96091 16.507 3.22465 16.5597 3.47086 16.6632C3.71707 16.7667 3.94089 16.919 4.12949 17.1114C4.31808 17.3037 4.46773 17.5323 4.56984 17.7841C4.67195 18.0358 4.72451 18.3058 4.72451 18.5784Z" fill="#BBBDCB"/>
<path d="M4.72451 35.1041C4.72451 35.5153 4.60547 35.9173 4.38244 36.2592C4.15941 36.6012 3.84241 36.8677 3.47152 37.025C3.10064 37.1824 2.69252 37.2236 2.29879 37.1434C1.90506 37.0631 1.5434 36.8651 1.25954 36.5743C0.975672 36.2835 0.782359 35.9131 0.704041 35.5097C0.625723 35.1064 0.665919 34.6883 0.819544 34.3084C0.97317 33.9285 1.23333 33.6038 1.56711 33.3753C1.9009 33.1468 2.29333 33.0249 2.69478 33.0249C2.96165 33.0237 3.22611 33.0767 3.4729 33.1807C3.71968 33.2848 3.9439 33.4379 4.13261 33.6312C4.32132 33.8245 4.47078 34.0542 4.57238 34.307C4.67397 34.5598 4.72568 34.8307 4.72451 35.1041Z" fill="#BBBDCB"/>
<path d="M4.72451 51.6028C4.72104 52.0132 4.59906 52.4134 4.37393 52.753C4.1488 53.0925 3.8306 53.3562 3.45942 53.5108C3.08824 53.6655 2.6807 53.7041 2.28813 53.6218C1.89557 53.5396 1.53555 53.3401 1.25344 53.0487C0.971331 52.7572 0.779754 52.3867 0.70285 51.9838C0.625946 51.581 0.667156 51.1639 0.821285 50.785C0.975413 50.4061 1.23557 50.0825 1.56896 49.8548C1.90236 49.6271 2.29408 49.5056 2.69478 49.5056C2.96281 49.5056 3.22819 49.5599 3.4756 49.6655C3.72301 49.7712 3.94756 49.9259 4.13627 50.1209C4.32498 50.3159 4.47412 50.5472 4.57508 50.8016C4.67604 51.0559 4.72683 51.3282 4.72451 51.6028Z" fill="#BBBDCB"/>
<path d="M26.1531 101.405C26.1548 101.816 26.0373 102.219 25.8153 102.562C25.5933 102.905 25.2769 103.173 24.9062 103.332C24.5355 103.491 24.1271 103.533 23.7328 103.454C23.3385 103.375 22.976 103.177 22.6912 102.887C22.4065 102.597 22.2123 102.226 22.1333 101.823C22.0542 101.419 22.0939 101 22.2473 100.62C22.4006 100.24 22.6608 99.9143 22.9948 99.6854C23.3287 99.4566 23.7215 99.3344 24.1233 99.3344C24.3895 99.3332 24.6532 99.3859 24.8994 99.4894C25.1456 99.5929 25.3695 99.7452 25.558 99.9375C25.7466 100.13 25.8963 100.359 25.9984 100.61C26.1005 100.862 26.1531 101.132 26.1531 101.405Z" fill="#BBBDCB"/>
<path d="M46.8458 101.405C46.8476 101.816 46.73 102.219 46.508 102.562C46.2861 102.905 45.9697 103.173 45.599 103.332C45.2282 103.491 44.8198 103.533 44.4255 103.454C44.0312 103.375 43.6687 103.177 43.384 102.887C43.0992 102.597 42.9051 102.226 42.826 101.823C42.747 101.419 42.7867 101 42.94 100.62C43.0934 100.24 43.3536 99.9143 43.6875 99.6854C44.0215 99.4566 44.4143 99.3344 44.8161 99.3344C45.3529 99.3344 45.8678 99.5522 46.2482 99.9402C46.6286 100.328 46.8435 100.855 46.8458 101.405Z" fill="#BBBDCB"/>
<path d="M67.5298 101.405C67.5298 101.814 67.4113 102.214 67.1892 102.555C66.9672 102.895 66.6515 103.161 66.2822 103.317C65.913 103.474 65.5066 103.515 65.1146 103.435C64.7226 103.355 64.3625 103.158 64.0798 102.868C63.7972 102.579 63.6047 102.21 63.5267 101.808C63.4488 101.407 63.4888 100.991 63.6417 100.612C63.7947 100.234 64.0537 99.9107 64.3861 99.6833C64.7184 99.4558 65.1092 99.3344 65.5089 99.3344C66.0449 99.3344 66.5589 99.5525 66.9379 99.9407C67.3169 100.329 67.5298 100.856 67.5298 101.405Z" fill="#BBBDCB"/>
<path d="M88.2226 101.405C88.2242 101.818 88.1052 102.223 87.8808 102.568C87.6564 102.912 87.3369 103.18 86.963 103.337C86.5892 103.494 86.1781 103.533 85.7825 103.449C85.3868 103.365 85.0245 103.163 84.7419 102.867C84.4594 102.571 84.2695 102.196 84.1965 101.788C84.1235 101.381 84.1708 100.961 84.3323 100.582C84.4938 100.202 84.7621 99.8811 85.103 99.6588C85.4438 99.4366 85.8417 99.3236 86.2456 99.3344C86.7739 99.3461 87.2767 99.5694 87.6463 99.9564C88.0158 100.343 88.2227 100.863 88.2226 101.405Z" fill="#BBBDCB"/>
<path d="M26.1531 117.912C26.1548 118.324 26.0373 118.727 25.8153 119.07C25.5933 119.413 25.2769 119.681 24.9062 119.84C24.5355 119.998 24.1271 120.041 23.7328 119.962C23.3385 119.882 22.976 119.685 22.6912 119.395C22.4065 119.104 22.2123 118.734 22.1333 118.33C22.0542 117.927 22.0939 117.508 22.2473 117.128C22.4006 116.747 22.6608 116.422 22.9948 116.193C23.3287 115.964 23.7215 115.842 24.1233 115.842C24.3895 115.841 24.6532 115.894 24.8994 115.997C25.1456 116.101 25.3695 116.253 25.558 116.445C25.7466 116.638 25.8963 116.866 25.9984 117.118C26.1005 117.37 26.1531 117.64 26.1531 117.912Z" fill="#BBBDCB"/>
<path d="M46.8458 117.912C46.8476 118.324 46.73 118.727 46.508 119.07C46.2861 119.413 45.9697 119.681 45.599 119.84C45.2282 119.998 44.8198 120.041 44.4255 119.962C44.0312 119.882 43.6687 119.685 43.384 119.395C43.0992 119.104 42.9051 118.734 42.826 118.33C42.747 117.927 42.7867 117.508 42.94 117.128C43.0934 116.747 43.3536 116.422 43.6875 116.193C44.0215 115.964 44.4143 115.842 44.8161 115.842C45.3529 115.842 45.8678 116.06 46.2482 116.448C46.6286 116.836 46.8435 117.362 46.8458 117.912Z" fill="#BBBDCB"/>
<path d="M67.5298 117.912C67.5298 118.322 67.4113 118.722 67.1892 119.062C66.9672 119.403 66.6515 119.668 66.2822 119.825C65.913 119.982 65.5066 120.023 65.1146 119.943C64.7226 119.863 64.3625 119.666 64.0798 119.376C63.7972 119.087 63.6047 118.718 63.5267 118.316C63.4488 117.915 63.4888 117.498 63.6417 117.12C63.7947 116.742 64.0537 116.418 64.3861 116.191C64.7184 115.963 65.1092 115.842 65.5089 115.842C66.0449 115.842 66.5589 116.06 66.9379 116.448C67.3169 116.837 67.5298 117.363 67.5298 117.912Z" fill="#BBBDCB"/>
<path d="M88.2226 117.912C88.2243 118.324 88.1065 118.727 87.8842 119.071C87.6618 119.414 87.3449 119.682 86.9737 119.84C86.6024 119.999 86.1936 120.041 85.799 119.961C85.4045 119.881 85.042 119.683 84.7576 119.391C84.4732 119.1 84.2797 118.729 84.2017 118.325C84.1237 117.921 84.1646 117.502 84.3193 117.121C84.474 116.741 84.7355 116.416 85.0707 116.189C85.4058 115.961 85.7994 115.84 86.2016 115.842C86.7376 115.842 87.2517 116.06 87.6307 116.448C88.0097 116.837 88.2226 117.363 88.2226 117.912Z" fill="#BBBDCB"/>
<path d="M110.024 101.405C110.026 101.816 109.908 102.219 109.686 102.562C109.464 102.905 109.148 103.173 108.777 103.332C108.406 103.491 107.998 103.533 107.604 103.454C107.209 103.375 106.847 103.177 106.562 102.887C106.277 102.597 106.083 102.226 106.004 101.823C105.925 101.419 105.965 101 106.118 100.62C106.272 100.24 106.532 99.9143 106.866 99.6854C107.2 99.4566 107.593 99.3344 107.994 99.3344C108.26 99.3332 108.524 99.3859 108.77 99.4894C109.017 99.5929 109.24 99.7452 109.429 99.9375C109.618 100.13 109.767 100.359 109.869 100.61C109.972 100.862 110.024 101.132 110.024 101.405Z" fill="#BBBDCB"/>
<path d="M130.717 101.405C130.719 101.816 130.601 102.219 130.379 102.562C130.157 102.905 129.841 103.173 129.47 103.332C129.099 103.491 128.691 103.533 128.297 103.454C127.902 103.375 127.54 103.177 127.255 102.887C126.97 102.597 126.776 102.226 126.697 101.823C126.618 101.419 126.658 101 126.811 100.62C126.964 100.24 127.225 99.9143 127.559 99.6854C127.893 99.4566 128.285 99.3344 128.687 99.3344C129.224 99.3344 129.739 99.5522 130.119 99.9402C130.5 100.328 130.715 100.855 130.717 101.405Z" fill="#BBBDCB"/>
<path d="M110.024 117.912C110.026 118.324 109.908 118.727 109.686 119.07C109.464 119.413 109.148 119.681 108.777 119.84C108.406 119.998 107.998 120.041 107.604 119.962C107.209 119.882 106.847 119.685 106.562 119.395C106.277 119.104 106.083 118.734 106.004 118.33C105.925 117.927 105.965 117.508 106.118 117.128C106.272 116.747 106.532 116.422 106.866 116.193C107.2 115.964 107.593 115.842 107.994 115.842C108.26 115.841 108.524 115.894 108.77 115.997C109.017 116.101 109.24 116.253 109.429 116.445C109.618 116.638 109.767 116.866 109.869 117.118C109.972 117.37 110.024 117.64 110.024 117.912Z" fill="#BBBDCB"/>
<path d="M130.717 117.912C130.719 118.324 130.601 118.727 130.379 119.07C130.157 119.413 129.841 119.681 129.47 119.84C129.099 119.998 128.691 120.041 128.297 119.962C127.902 119.882 127.54 119.685 127.255 119.395C126.97 119.104 126.776 118.734 126.697 118.33C126.618 117.927 126.658 117.508 126.811 117.128C126.964 116.747 127.225 116.422 127.559 116.193C127.893 115.964 128.285 115.842 128.687 115.842C129.224 115.842 129.739 116.06 130.119 116.448C130.5 116.836 130.715 117.362 130.717 117.912Z" fill="#BBBDCB"/>
<path d="M4.72449 101.404C4.72623 101.816 4.60867 102.218 4.3867 102.561C4.16473 102.905 3.84834 103.173 3.47761 103.331C3.10688 103.49 2.6985 103.532 2.30419 103.453C1.90988 103.374 1.5474 103.177 1.26265 102.886C0.977909 102.596 0.783721 102.225 0.704688 101.822C0.625656 101.418 0.665336 101 0.8187 100.619C0.972064 100.239 1.23221 99.9136 1.56619 99.6847C1.90016 99.4559 2.29294 99.3337 2.69476 99.3337C2.96089 99.3325 3.22463 99.3852 3.47084 99.4887C3.71705 99.5922 3.94087 99.7445 4.12947 99.9368C4.31806 100.129 4.46771 100.358 4.56982 100.61C4.67193 100.861 4.7245 101.131 4.72449 101.404Z" fill="#BBBDCB"/>
<path d="M4.72449 117.912C4.72623 118.323 4.60867 118.726 4.3867 119.069C4.16473 119.412 3.84834 119.68 3.47761 119.839C3.10688 119.998 2.6985 120.04 2.30419 119.961C1.90988 119.882 1.5474 119.684 1.26265 119.394C0.977909 119.104 0.783721 118.733 0.704688 118.33C0.625656 117.926 0.665336 117.507 0.8187 117.127C0.972064 116.747 1.23221 116.421 1.56619 116.192C1.90016 115.964 2.29294 115.841 2.69476 115.841C2.96089 115.84 3.22463 115.893 3.47084 115.996C3.71705 116.1 3.94087 116.252 4.12947 116.445C4.31806 116.637 4.46771 116.866 4.56982 117.117C4.67193 117.369 4.7245 117.639 4.72449 117.912Z" fill="#BBBDCB"/>
</svg>
