<svg width="344" height="212" viewBox="0 0 344 212" fill="none" xmlns="http://www.w3.org/2000/svg">
<path d="M67.1188 -12.1424C39.7078 2.25824 23.3918 31.6207 13.3224 60.8896C-1.22216 102.97 -5.60418 151.315 15.2804 190.589C19.1962 198.07 24.4174 205.364 32.0626 208.824C43.9966 214.247 57.9818 208.637 69.17 201.811C96.9539 184.698 118.864 159.544 139.096 133.828C157.929 109.889 175.644 85.1089 192.24 59.4869C205.199 39.4756 217.693 18.6227 223.287 -4.56806C224.126 -7.84094 224.685 -11.6749 222.727 -14.4802C221.515 -16.2569 219.464 -17.2855 217.32 -17.7531C208.369 -19.5298 200.631 -11.3944 195.783 -3.72646C171.355 35.1741 168.558 84.1738 175.271 129.62C177.415 144.208 181.051 159.731 192.053 169.643C206.784 182.921 230.652 181.238 247.435 170.671C264.217 160.105 275.405 142.712 285.195 125.506C309.902 81.9295 329.388 35.4546 343 -12.797" stroke="#D7DBE4" stroke-width="2" stroke-miterlimit="10"/>
</svg>
