<svg width="89" height="82" viewBox="0 0 89 82" fill="none" xmlns="http://www.w3.org/2000/svg">
<path d="M3.42904 49.129C3.42904 48.2844 2.73794 47.5998 1.88542 47.5998C1.0329 47.5998 0.341795 48.2844 0.341795 49.129C0.341796 49.9736 1.0329 50.6583 1.88542 50.6583C2.73794 50.6583 3.42904 49.9736 3.42904 49.129Z" fill="#555C6A"/>
<path d="M3.42904 33.4375C3.42904 32.593 2.73794 31.9083 1.88542 31.9083C1.0329 31.9083 0.341795 32.593 0.341795 33.4375C0.341795 34.2821 1.0329 34.9668 1.88542 34.9668C2.73794 34.9668 3.42904 34.2821 3.42904 33.4375Z" fill="#555C6A"/>
<path d="M3.42904 17.8125C3.42904 16.968 2.73794 16.2833 1.88542 16.2833C1.0329 16.2833 0.341794 16.968 0.341794 17.8125C0.341794 18.6571 1.0329 19.3418 1.88542 19.3418C2.73794 19.3418 3.42904 18.6571 3.42904 17.8125Z" fill="#555C6A"/>
<path d="M3.42904 2.18754C3.42904 1.34296 2.73794 0.658287 1.88542 0.658287C1.0329 0.658287 0.341793 1.34296 0.341793 2.18754C0.341793 3.03212 1.0329 3.7168 1.88542 3.7168C2.73794 3.7168 3.42904 3.03212 3.42904 2.18754Z" fill="#555C6A"/>
<path d="M15.7109 49.129C15.7109 48.2844 15.0198 47.5998 14.1673 47.5998C13.3148 47.5998 12.6237 48.2844 12.6237 49.129C12.6237 49.9736 13.3148 50.6583 14.1673 50.6583C15.0198 50.6583 15.7109 49.9736 15.7109 49.129Z" fill="#555C6A"/>
<path d="M15.7109 33.4375C15.7109 32.593 15.0198 31.9083 14.1673 31.9083C13.3148 31.9083 12.6237 32.593 12.6237 33.4375C12.6237 34.2821 13.3148 34.9668 14.1673 34.9668C15.0198 34.9668 15.7109 34.2821 15.7109 33.4375Z" fill="#555C6A"/>
<path d="M15.7109 17.8125C15.7109 16.968 15.0198 16.2833 14.1673 16.2833C13.3148 16.2833 12.6237 16.968 12.6237 17.8125C12.6237 18.6571 13.3148 19.3418 14.1673 19.3418C15.0198 19.3418 15.7109 18.6571 15.7109 17.8125Z" fill="#555C6A"/>
<path d="M15.7109 2.18754C15.7109 1.34296 15.0198 0.658286 14.1673 0.658286C13.3148 0.658286 12.6237 1.34296 12.6237 2.18754C12.6237 3.03212 13.3148 3.7168 14.1673 3.7168C15.0198 3.7168 15.7109 3.03212 15.7109 2.18754Z" fill="#555C6A"/>
<path d="M28.0599 49.129C28.0599 48.2844 27.3688 47.5998 26.5163 47.5998C25.6638 47.5998 24.9727 48.2844 24.9727 49.129C24.9727 49.9736 25.6638 50.6583 26.5163 50.6583C27.3688 50.6583 28.0599 49.9736 28.0599 49.129Z" fill="#555C6A"/>
<path d="M28.0599 33.4375C28.0599 32.593 27.3688 31.9083 26.5163 31.9083C25.6638 31.9083 24.9727 32.593 24.9727 33.4375C24.9727 34.2821 25.6638 34.9668 26.5163 34.9668C27.3688 34.9668 28.0599 34.2821 28.0599 33.4375Z" fill="#555C6A"/>
<path d="M28.0599 17.8125C28.0599 16.968 27.3688 16.2833 26.5163 16.2833C25.6638 16.2833 24.9727 16.968 24.9727 17.8125C24.9727 18.6571 25.6638 19.3418 26.5163 19.3418C27.3688 19.3418 28.0599 18.6571 28.0599 17.8125Z" fill="#555C6A"/>
<path d="M28.0599 2.18754C28.0599 1.34296 27.3688 0.658286 26.5163 0.658286C25.6638 0.658286 24.9727 1.34296 24.9727 2.18754C24.9727 3.03212 25.6638 3.7168 26.5163 3.7168C27.3688 3.7168 28.0599 3.03212 28.0599 2.18754Z" fill="#555C6A"/>
<path d="M40.3418 49.129C40.3418 48.2844 39.6507 47.5998 38.7982 47.5998C37.9457 47.5998 37.2545 48.2844 37.2545 49.129C37.2545 49.9736 37.9457 50.6583 38.7982 50.6583C39.6507 50.6583 40.3418 49.9736 40.3418 49.129Z" fill="#555C6A"/>
<path d="M40.3418 33.4375C40.3418 32.593 39.6507 31.9083 38.7982 31.9083C37.9456 31.9083 37.2545 32.593 37.2545 33.4375C37.2545 34.2821 37.9456 34.9668 38.7982 34.9668C39.6507 34.9668 40.3418 34.2821 40.3418 33.4375Z" fill="#555C6A"/>
<path d="M40.3418 17.8125C40.3418 16.968 39.6507 16.2833 38.7982 16.2833C37.9456 16.2833 37.2545 16.968 37.2545 17.8125C37.2545 18.6571 37.9456 19.3418 38.7982 19.3418C39.6507 19.3418 40.3418 18.6571 40.3418 17.8125Z" fill="#555C6A"/>
<path d="M40.3418 2.18754C40.3418 1.34295 39.6507 0.658285 38.7982 0.658285C37.9456 0.658285 37.2545 1.34295 37.2545 2.18754C37.2545 3.03212 37.9456 3.7168 38.7982 3.7168C39.6507 3.7168 40.3418 3.03212 40.3418 2.18754Z" fill="#555C6A"/>
<path d="M3.42905 79.8125C3.42905 78.968 2.73794 78.2833 1.88542 78.2833C1.0329 78.2833 0.341797 78.968 0.341797 79.8125C0.341797 80.6571 1.0329 81.3418 1.88542 81.3418C2.73794 81.3418 3.42905 80.6571 3.42905 79.8125Z" fill="#555C6A"/>
<path d="M3.42904 64.1875C3.42904 63.343 2.73794 62.6583 1.88542 62.6583C1.0329 62.6583 0.341796 63.343 0.341796 64.1875C0.341796 65.0321 1.0329 65.7168 1.88542 65.7168C2.73794 65.7168 3.42904 65.0321 3.42904 64.1875Z" fill="#555C6A"/>
<path d="M15.7109 79.8125C15.7109 78.968 15.0198 78.2833 14.1673 78.2833C13.3148 78.2833 12.6237 78.968 12.6237 79.8125C12.6237 80.6571 13.3148 81.3418 14.1673 81.3418C15.0198 81.3418 15.7109 80.6571 15.7109 79.8125Z" fill="#555C6A"/>
<path d="M15.7109 64.1875C15.7109 63.343 15.0198 62.6583 14.1673 62.6583C13.3148 62.6583 12.6237 63.343 12.6237 64.1875C12.6237 65.0321 13.3148 65.7168 14.1673 65.7168C15.0198 65.7168 15.7109 65.0321 15.7109 64.1875Z" fill="#555C6A"/>
<path d="M28.0599 79.8125C28.0599 78.968 27.3688 78.2833 26.5163 78.2833C25.6638 78.2833 24.9727 78.968 24.9727 79.8125C24.9727 80.6571 25.6638 81.3418 26.5163 81.3418C27.3688 81.3418 28.0599 80.6571 28.0599 79.8125Z" fill="#555C6A"/>
<path d="M28.0599 64.1875C28.0599 63.343 27.3688 62.6583 26.5163 62.6583C25.6638 62.6583 24.9727 63.343 24.9727 64.1875C24.9727 65.0321 25.6638 65.7168 26.5163 65.7168C27.3688 65.7168 28.0599 65.0321 28.0599 64.1875Z" fill="#555C6A"/>
<path d="M40.3418 79.8125C40.3418 78.968 39.6507 78.2833 38.7982 78.2833C37.9457 78.2833 37.2546 78.968 37.2546 79.8125C37.2546 80.6571 37.9457 81.3418 38.7982 81.3418C39.6507 81.3418 40.3418 80.6571 40.3418 79.8125Z" fill="#555C6A"/>
<path d="M40.3418 64.1875C40.3418 63.343 39.6507 62.6583 38.7982 62.6583C37.9457 62.6583 37.2546 63.343 37.2546 64.1875C37.2546 65.0321 37.9457 65.7168 38.7982 65.7168C39.6507 65.7168 40.3418 65.0321 40.3418 64.1875Z" fill="#555C6A"/>
<path d="M51.429 49.129C51.429 48.2844 50.7379 47.5998 49.8854 47.5998C49.0329 47.5998 48.3418 48.2844 48.3418 49.129C48.3418 49.9736 49.0329 50.6583 49.8854 50.6583C50.7379 50.6583 51.429 49.9736 51.429 49.129Z" fill="#555C6A"/>
<path d="M51.429 33.4375C51.429 32.593 50.7379 31.9083 49.8854 31.9083C49.0329 31.9083 48.3418 32.593 48.3418 33.4375C48.3418 34.2821 49.0329 34.9668 49.8854 34.9668C50.7379 34.9668 51.429 34.2821 51.429 33.4375Z" fill="#555C6A"/>
<path d="M51.429 17.8125C51.429 16.968 50.7379 16.2833 49.8854 16.2833C49.0329 16.2833 48.3418 16.968 48.3418 17.8125C48.3418 18.6571 49.0329 19.3418 49.8854 19.3418C50.7379 19.3418 51.429 18.6571 51.429 17.8125Z" fill="#555C6A"/>
<path d="M51.429 2.18754C51.429 1.34295 50.7379 0.658285 49.8854 0.658285C49.0329 0.658285 48.3418 1.34295 48.3418 2.18754C48.3418 3.03212 49.0329 3.7168 49.8854 3.7168C50.7379 3.7168 51.429 3.03212 51.429 2.18754Z" fill="#555C6A"/>
<path d="M63.7109 49.129C63.7109 48.2844 63.0198 47.5998 62.1673 47.5998C61.3148 47.5998 60.6237 48.2844 60.6237 49.129C60.6237 49.9736 61.3148 50.6583 62.1673 50.6583C63.0198 50.6583 63.7109 49.9736 63.7109 49.129Z" fill="#555C6A"/>
<path d="M63.7109 33.4375C63.7109 32.5929 63.0198 31.9083 62.1673 31.9083C61.3148 31.9083 60.6237 32.593 60.6237 33.4375C60.6237 34.2821 61.3148 34.9668 62.1673 34.9668C63.0198 34.9668 63.7109 34.2821 63.7109 33.4375Z" fill="#555C6A"/>
<path d="M63.7109 17.8125C63.7109 16.968 63.0198 16.2833 62.1673 16.2833C61.3148 16.2833 60.6237 16.968 60.6237 17.8125C60.6237 18.6571 61.3148 19.3418 62.1673 19.3418C63.0198 19.3418 63.7109 18.6571 63.7109 17.8125Z" fill="#555C6A"/>
<path d="M63.7109 2.18754C63.7109 1.34295 63.0198 0.658284 62.1673 0.658284C61.3148 0.658284 60.6237 1.34295 60.6237 2.18754C60.6237 3.03212 61.3148 3.7168 62.1673 3.7168C63.0198 3.7168 63.7109 3.03212 63.7109 2.18754Z" fill="#555C6A"/>
<path d="M76.0599 49.129C76.0599 48.2844 75.3688 47.5998 74.5163 47.5998C73.6638 47.5998 72.9727 48.2844 72.9727 49.129C72.9727 49.9736 73.6638 50.6583 74.5163 50.6583C75.3688 50.6583 76.0599 49.9736 76.0599 49.129Z" fill="#555C6A"/>
<path d="M76.0599 33.4375C76.0599 32.5929 75.3688 31.9083 74.5163 31.9083C73.6638 31.9083 72.9727 32.5929 72.9727 33.4375C72.9727 34.2821 73.6638 34.9668 74.5163 34.9668C75.3688 34.9668 76.0599 34.2821 76.0599 33.4375Z" fill="#555C6A"/>
<path d="M76.0599 17.8125C76.0599 16.968 75.3688 16.2833 74.5163 16.2833C73.6638 16.2833 72.9727 16.968 72.9727 17.8125C72.9727 18.6571 73.6638 19.3418 74.5163 19.3418C75.3688 19.3418 76.0599 18.6571 76.0599 17.8125Z" fill="#555C6A"/>
<path d="M76.0599 2.18753C76.0599 1.34295 75.3688 0.658284 74.5163 0.658284C73.6638 0.658284 72.9727 1.34295 72.9727 2.18753C72.9727 3.03212 73.6638 3.7168 74.5163 3.7168C75.3688 3.7168 76.0599 3.03212 76.0599 2.18753Z" fill="#555C6A"/>
<path d="M88.3418 49.129C88.3418 48.2844 87.6507 47.5998 86.7982 47.5998C85.9456 47.5998 85.2545 48.2844 85.2545 49.129C85.2545 49.9736 85.9456 50.6583 86.7982 50.6583C87.6507 50.6583 88.3418 49.9736 88.3418 49.129Z" fill="#555C6A"/>
<path d="M88.3418 33.4375C88.3418 32.5929 87.6507 31.9083 86.7982 31.9083C85.9456 31.9083 85.2545 32.5929 85.2545 33.4375C85.2545 34.2821 85.9456 34.9668 86.7982 34.9668C87.6507 34.9668 88.3418 34.2821 88.3418 33.4375Z" fill="#555C6A"/>
<path d="M88.3418 17.8125C88.3418 16.968 87.6507 16.2833 86.7982 16.2833C85.9456 16.2833 85.2545 16.968 85.2545 17.8125C85.2545 18.6571 85.9456 19.3418 86.7982 19.3418C87.6507 19.3418 88.3418 18.6571 88.3418 17.8125Z" fill="#555C6A"/>
<path d="M88.3418 2.18753C88.3418 1.34295 87.6507 0.658283 86.7982 0.658283C85.9456 0.658283 85.2545 1.34295 85.2545 2.18753C85.2545 3.03212 85.9456 3.7168 86.7982 3.7168C87.6507 3.7168 88.3418 3.03212 88.3418 2.18753Z" fill="#555C6A"/>
<path d="M51.429 79.8125C51.429 78.968 50.7379 78.2833 49.8854 78.2833C49.0329 78.2833 48.3418 78.968 48.3418 79.8125C48.3418 80.6571 49.0329 81.3418 49.8854 81.3418C50.7379 81.3418 51.429 80.6571 51.429 79.8125Z" fill="#555C6A"/>
<path d="M51.429 64.1875C51.429 63.343 50.7379 62.6583 49.8854 62.6583C49.0329 62.6583 48.3418 63.343 48.3418 64.1875C48.3418 65.0321 49.0329 65.7168 49.8854 65.7168C50.7379 65.7168 51.429 65.0321 51.429 64.1875Z" fill="#555C6A"/>
<path d="M63.7109 79.8125C63.7109 78.968 63.0198 78.2833 62.1673 78.2833C61.3148 78.2833 60.6237 78.968 60.6237 79.8125C60.6237 80.6571 61.3148 81.3418 62.1673 81.3418C63.0198 81.3418 63.7109 80.6571 63.7109 79.8125Z" fill="#555C6A"/>
<path d="M63.7109 64.1875C63.7109 63.3429 63.0198 62.6583 62.1673 62.6583C61.3148 62.6583 60.6237 63.343 60.6237 64.1875C60.6237 65.0321 61.3148 65.7168 62.1673 65.7168C63.0198 65.7168 63.7109 65.0321 63.7109 64.1875Z" fill="#555C6A"/>
<path d="M76.0599 79.8125C76.0599 78.968 75.3688 78.2833 74.5163 78.2833C73.6638 78.2833 72.9727 78.968 72.9727 79.8125C72.9727 80.6571 73.6638 81.3418 74.5163 81.3418C75.3688 81.3418 76.0599 80.6571 76.0599 79.8125Z" fill="#555C6A"/>
<path d="M76.0599 64.1875C76.0599 63.3429 75.3688 62.6583 74.5163 62.6583C73.6638 62.6583 72.9727 63.3429 72.9727 64.1875C72.9727 65.0321 73.6638 65.7168 74.5163 65.7168C75.3688 65.7168 76.0599 65.0321 76.0599 64.1875Z" fill="#555C6A"/>
<path d="M88.3418 79.8125C88.3418 78.9679 87.6507 78.2833 86.7982 78.2833C85.9456 78.2833 85.2545 78.9679 85.2545 79.8125C85.2545 80.6571 85.9456 81.3418 86.7982 81.3418C87.6507 81.3418 88.3418 80.6571 88.3418 79.8125Z" fill="#555C6A"/>
<path d="M88.3418 64.1875C88.3418 63.3429 87.6507 62.6583 86.7982 62.6583C85.9456 62.6583 85.2545 63.3429 85.2545 64.1875C85.2545 65.0321 85.9456 65.7168 86.7982 65.7168C87.6507 65.7168 88.3418 65.0321 88.3418 64.1875Z" fill="#555C6A"/>
</svg>
