<svg width="207" height="210" viewBox="0 0 207 210" fill="none" xmlns="http://www.w3.org/2000/svg">
<path d="M146.124 138.238L159.449 192.538L117.111 156.025L116.136 155.183L115.563 156.337L90.6784 206.432L81.6216 151.244L81.4135 149.975L80.2352 150.489L29.2626 172.713L57.525 124.611L58.1693 123.515L56.9517 123.147L3.57549 107.04L56.2237 88.6559L57.4331 88.2336L56.7299 87.1629L25.9098 40.2339L77.9605 60.1773L79.1669 60.6395L79.312 59.3557L85.5917 3.76242L112.932 52.574L113.563 53.7012L114.496 52.8074L154.745 14.2456L144.528 69.4526L144.294 70.7122L145.573 70.6327L201.218 67.1701L157.974 102.768L156.986 103.582L158.014 104.344L202.996 137.668L147.108 136.999L145.817 136.984L146.124 138.238Z" stroke="#0047FF" stroke-width="2"/>
</svg>
