<svg width="231" height="78" viewBox="0 0 231 78" fill="none" xmlns="http://www.w3.org/2000/svg">
<path d="M190.894 0.999997L229 38.9998L190.894 76.9997M171.92 1.00031L209.867 39.0002L171.92 77M152.947 0.999999L190.894 38.9998L152.947 76.9997M133.973 1.00031L171.92 39.0002L133.973 77M115 1.00031L152.947 39.0002L115 77M96.0269 1L133.974 38.9998L96.0269 76.9997M76.894 1L115 38.9998L76.894 76.9997M57.9208 1L95.8676 38.9998L57.9208 76.9997M38.9468 1.00032L76.8936 39.0002L38.9468 77M19.9734 1.00032L57.9202 39.0002L19.9734 77M0.999997 1.00032L38.9468 39.0002L1 77" stroke="url(#paint0_linear_160_1288)" stroke-width="2" stroke-miterlimit="10"/>
<defs>
<linearGradient id="paint0_linear_160_1288" x1="237" y1="39" x2="32" y2="39" gradientUnits="userSpaceOnUse">
<stop stop-color="#AAAAAA"/>
<stop offset="1" stop-color="white"/>
</linearGradient>
</defs>
</svg>
