<svg width="1513" height="251" viewBox="0 0 1513 251" fill="none" xmlns="http://www.w3.org/2000/svg">
<path d="M-139 127.874C-132.703 52.2578 -54.7796 2.66502 13.7049 0.144881C75.0556 -2.14026 139.713 22.5868 211.263 75.7145C232.702 91.5998 253.518 108.892 273.686 125.582C307.492 153.582 342.508 182.608 380.702 205.536C421.971 230.238 503.025 267.589 582.549 239.965C625.371 225.1 661.729 193.09 696.78 162.078C742.542 121.723 789.753 80.0356 850.694 78.8759C914.33 77.6568 965.403 120.926 1014.9 162.78C1028.22 174.071 1042.1 185.787 1055.74 196.216C1056.23 196.588 1056.73 196.959 1057.29 197.384C1184.68 293.748 1366.52 311.716 1510.24 241.998L1512.54 246.833C1367.01 317.495 1183.01 299.324 1053.99 201.739C1053.5 201.367 1053.01 200.995 1052.45 200.57C1038.67 190.035 1024.78 178.319 1011.32 166.922C962.671 125.705 912.388 83.1437 850.69 84.2827C791.757 85.4153 747.285 124.648 700.18 166.195C664.67 197.522 628.046 229.883 584.202 245.079C502.632 273.364 419.854 235.372 377.813 210.086C339.285 187.016 304.128 157.883 270.165 129.653C249.997 112.963 229.18 95.6713 207.952 79.9454C137.385 27.5614 73.9068 3.17376 13.8066 5.41119C-52.4233 7.8701 -127.662 55.5189 -133.735 128.213L-139 127.874Z" fill="#1D1E48"/>
</svg>
