<svg width="198" height="71" viewBox="0 0 198 71" fill="none" xmlns="http://www.w3.org/2000/svg">
<path d="M161.688 1L196.542 35.7083L161.688 70.4167M144.334 1L179.042 35.7083L144.334 70.4167M126.979 1L161.688 35.7083L126.979 70.4167M109.625 1L144.333 35.7083L109.625 70.4167M92.2708 1L126.979 35.7083L92.2708 70.4167M74.9172 1L109.626 35.7083L74.9172 70.4167M57.4172 1L92.2714 35.7083L57.4172 70.4167M40.0631 1L74.7714 35.7083L40.0631 70.4167M22.7083 1L57.4167 35.7083L22.7083 70.4167M5.35417 1L40.0625 35.7083L5.35417 70.4167M-12 1L22.7083 35.7083L-12 70.4167" stroke="#2B2C65" stroke-miterlimit="10"/>
</svg>
