<svg width="125" height="101" viewBox="0 0 125 101" fill="none" xmlns="http://www.w3.org/2000/svg">
<path d="M2.11038 3.94061C3.02619 3.94061 3.76861 3.1704 3.76861 2.2203C3.76861 1.27021 3.02619 0.5 2.11038 0.5C1.19456 0.5 0.452148 1.27021 0.452148 2.2203C0.452148 3.1704 1.19456 3.94061 2.11038 3.94061Z" fill="#47486B"/>
<path d="M19.1252 3.94061C20.0411 3.94061 20.7835 3.1704 20.7835 2.2203C20.7835 1.27021 20.0411 0.5 19.1252 0.5C18.2094 0.5 17.467 1.27021 17.467 2.2203C17.467 3.1704 18.2094 3.94061 19.1252 3.94061Z" fill="#47486B"/>
<path d="M36.068 3.94061C36.9838 3.94061 37.7262 3.1704 37.7262 2.2203C37.7262 1.27021 36.9838 0.500001 36.068 0.500001C35.1522 0.500001 34.4098 1.27021 34.4098 2.2203C34.4098 3.1704 35.1522 3.94061 36.068 3.94061Z" fill="#47486B"/>
<path d="M53.0108 3.94061C53.9266 3.94061 54.669 3.1704 54.669 2.22031C54.669 1.27021 53.9266 0.500001 53.0108 0.500001C52.095 0.500001 51.3526 1.27021 51.3526 2.22031C51.3526 3.1704 52.095 3.94061 53.0108 3.94061Z" fill="#47486B"/>
<path d="M2.11038 17.6282C3.02619 17.6282 3.76861 16.858 3.76861 15.9079C3.76861 14.9578 3.02619 14.1876 2.11038 14.1876C1.19456 14.1876 0.452148 14.9578 0.452148 15.9079C0.452148 16.858 1.19456 17.6282 2.11038 17.6282Z" fill="#47486B"/>
<path d="M19.1252 17.6282C20.0411 17.6282 20.7835 16.858 20.7835 15.9079C20.7835 14.9578 20.0411 14.1876 19.1252 14.1876C18.2094 14.1876 17.467 14.9578 17.467 15.9079C17.467 16.858 18.2094 17.6282 19.1252 17.6282Z" fill="#47486B"/>
<path d="M36.068 17.6282C36.9838 17.6282 37.7262 16.858 37.7262 15.9079C37.7262 14.9578 36.9838 14.1876 36.068 14.1876C35.1522 14.1876 34.4098 14.9578 34.4098 15.9079C34.4098 16.858 35.1522 17.6282 36.068 17.6282Z" fill="#47486B"/>
<path d="M53.0108 17.6282C53.9266 17.6282 54.669 16.858 54.669 15.9079C54.669 14.9578 53.9266 14.1876 53.0108 14.1876C52.095 14.1876 51.3526 14.9578 51.3526 15.9079C51.3526 16.858 52.095 17.6282 53.0108 17.6282Z" fill="#47486B"/>
<path d="M2.11038 31.3907C3.02619 31.3907 3.7686 30.6205 3.7686 29.6704C3.7686 28.7203 3.02619 27.9501 2.11038 27.9501C1.19456 27.9501 0.452148 28.7203 0.452148 29.6704C0.452148 30.6205 1.19456 31.3907 2.11038 31.3907Z" fill="#47486B"/>
<path d="M19.1252 31.3907C20.0411 31.3907 20.7835 30.6205 20.7835 29.6704C20.7835 28.7203 20.0411 27.9501 19.1252 27.9501C18.2094 27.9501 17.467 28.7203 17.467 29.6704C17.467 30.6205 18.2094 31.3907 19.1252 31.3907Z" fill="#47486B"/>
<path d="M36.068 31.3907C36.9838 31.3907 37.7262 30.6205 37.7262 29.6704C37.7262 28.7203 36.9838 27.9501 36.068 27.9501C35.1522 27.9501 34.4098 28.7203 34.4098 29.6704C34.4098 30.6205 35.1522 31.3907 36.068 31.3907Z" fill="#47486B"/>
<path d="M53.0108 31.3907C53.9266 31.3907 54.669 30.6205 54.669 29.6704C54.669 28.7203 53.9266 27.9501 53.0108 27.9501C52.095 27.9501 51.3526 28.7203 51.3526 29.6704C51.3526 30.6205 52.095 31.3907 53.0108 31.3907Z" fill="#47486B"/>
<path d="M2.11038 45.0783C3.02619 45.0783 3.7686 44.3081 3.7686 43.358C3.7686 42.4079 3.02619 41.6377 2.11038 41.6377C1.19456 41.6377 0.452147 42.4079 0.452147 43.358C0.452147 44.3081 1.19456 45.0783 2.11038 45.0783Z" fill="#47486B"/>
<path d="M19.1252 45.0783C20.0411 45.0783 20.7835 44.3081 20.7835 43.358C20.7835 42.4079 20.0411 41.6377 19.1252 41.6377C18.2094 41.6377 17.467 42.4079 17.467 43.358C17.467 44.3081 18.2094 45.0783 19.1252 45.0783Z" fill="#47486B"/>
<path d="M36.068 45.0783C36.9838 45.0783 37.7262 44.3081 37.7262 43.358C37.7262 42.4079 36.9838 41.6377 36.068 41.6377C35.1522 41.6377 34.4098 42.4079 34.4098 43.358C34.4098 44.3081 35.1522 45.0783 36.068 45.0783Z" fill="#47486B"/>
<path d="M53.0108 45.0783C53.9266 45.0783 54.669 44.3081 54.669 43.358C54.669 42.4079 53.9266 41.6377 53.0108 41.6377C52.095 41.6377 51.3526 42.4079 51.3526 43.358C51.3526 44.3081 52.095 45.0783 53.0108 45.0783Z" fill="#47486B"/>
<path d="M2.11038 59.3623C3.02619 59.3623 3.7686 58.5921 3.7686 57.642C3.7686 56.6919 3.02619 55.9217 2.11038 55.9217C1.19456 55.9217 0.452147 56.6919 0.452147 57.642C0.452147 58.5921 1.19456 59.3623 2.11038 59.3623Z" fill="#47486B"/>
<path d="M19.1252 59.3623C20.0411 59.3623 20.7835 58.5921 20.7835 57.642C20.7835 56.6919 20.0411 55.9217 19.1252 55.9217C18.2094 55.9217 17.467 56.6919 17.467 57.642C17.467 58.5921 18.2094 59.3623 19.1252 59.3623Z" fill="#47486B"/>
<path d="M36.068 59.3623C36.9838 59.3623 37.7262 58.5921 37.7262 57.642C37.7262 56.6919 36.9838 55.9217 36.068 55.9217C35.1522 55.9217 34.4098 56.6919 34.4098 57.642C34.4098 58.5921 35.1522 59.3623 36.068 59.3623Z" fill="#47486B"/>
<path d="M53.0108 59.3623C53.9266 59.3623 54.669 58.5921 54.669 57.642C54.669 56.6919 53.9266 55.9217 53.0108 55.9217C52.095 55.9217 51.3526 56.6919 51.3526 57.642C51.3526 58.5921 52.095 59.3623 53.0108 59.3623Z" fill="#47486B"/>
<path d="M2.11038 73.0499C3.02619 73.0499 3.7686 72.2797 3.7686 71.3296C3.7686 70.3795 3.02619 69.6093 2.11038 69.6093C1.19456 69.6093 0.452147 70.3795 0.452147 71.3296C0.452147 72.2797 1.19456 73.0499 2.11038 73.0499Z" fill="#47486B"/>
<path d="M19.1252 73.0499C20.0411 73.0499 20.7835 72.2797 20.7835 71.3296C20.7835 70.3795 20.0411 69.6093 19.1252 69.6093C18.2094 69.6093 17.467 70.3795 17.467 71.3296C17.467 72.2797 18.2094 73.0499 19.1252 73.0499Z" fill="#47486B"/>
<path d="M36.068 73.0499C36.9838 73.0499 37.7262 72.2797 37.7262 71.3296C37.7262 70.3795 36.9838 69.6093 36.068 69.6093C35.1522 69.6093 34.4098 70.3795 34.4098 71.3296C34.4098 72.2797 35.1522 73.0499 36.068 73.0499Z" fill="#47486B"/>
<path d="M53.0108 73.0499C53.9266 73.0499 54.669 72.2797 54.669 71.3296C54.669 70.3795 53.9266 69.6093 53.0108 69.6093C52.095 69.6093 51.3526 70.3795 51.3526 71.3296C51.3526 72.2797 52.095 73.0499 53.0108 73.0499Z" fill="#47486B"/>
<path d="M2.11037 86.8124C3.02619 86.8124 3.7686 86.0422 3.7686 85.0921C3.7686 84.142 3.02619 83.3718 2.11037 83.3718C1.19456 83.3718 0.452146 84.142 0.452146 85.0921C0.452146 86.0422 1.19456 86.8124 2.11037 86.8124Z" fill="#47486B"/>
<path d="M19.1252 86.8124C20.0411 86.8124 20.7835 86.0422 20.7835 85.0921C20.7835 84.142 20.0411 83.3718 19.1252 83.3718C18.2094 83.3718 17.467 84.142 17.467 85.0921C17.467 86.0422 18.2094 86.8124 19.1252 86.8124Z" fill="#47486B"/>
<path d="M36.068 86.8124C36.9838 86.8124 37.7262 86.0422 37.7262 85.0921C37.7262 84.142 36.9838 83.3718 36.068 83.3718C35.1522 83.3718 34.4098 84.142 34.4098 85.0921C34.4098 86.0422 35.1522 86.8124 36.068 86.8124Z" fill="#47486B"/>
<path d="M53.0108 86.8124C53.9266 86.8124 54.669 86.0422 54.669 85.0921C54.669 84.142 53.9266 83.3718 53.0108 83.3718C52.095 83.3718 51.3526 84.142 51.3526 85.0921C51.3526 86.0422 52.095 86.8124 53.0108 86.8124Z" fill="#47486B"/>
<path d="M2.11037 100.5C3.02619 100.5 3.7686 99.7298 3.7686 98.7797C3.7686 97.8296 3.02619 97.0594 2.11037 97.0594C1.19456 97.0594 0.452146 97.8296 0.452146 98.7797C0.452146 99.7298 1.19456 100.5 2.11037 100.5Z" fill="#47486B"/>
<path d="M19.1252 100.5C20.0411 100.5 20.7835 99.7298 20.7835 98.7797C20.7835 97.8296 20.0411 97.0594 19.1252 97.0594C18.2094 97.0594 17.467 97.8296 17.467 98.7797C17.467 99.7298 18.2094 100.5 19.1252 100.5Z" fill="#47486B"/>
<path d="M36.068 100.5C36.9838 100.5 37.7262 99.7298 37.7262 98.7797C37.7262 97.8296 36.9838 97.0594 36.068 97.0594C35.1522 97.0594 34.4098 97.8296 34.4098 98.7797C34.4098 99.7298 35.1522 100.5 36.068 100.5Z" fill="#47486B"/>
<path d="M53.0108 100.5C53.9266 100.5 54.669 99.7298 54.669 98.7797C54.669 97.8296 53.9266 97.0594 53.0108 97.0594C52.095 97.0594 51.3526 97.8296 51.3526 98.7797C51.3526 99.7298 52.095 100.5 53.0108 100.5Z" fill="#47486B"/>
<path d="M71.9899 3.94061C72.9057 3.94061 73.6481 3.1704 73.6481 2.22031C73.6481 1.27021 72.9057 0.500002 71.9899 0.500002C71.0741 0.500002 70.3317 1.27021 70.3317 2.22031C70.3317 3.1704 71.0741 3.94061 71.9899 3.94061Z" fill="#47486B"/>
<path d="M89.0048 3.94061C89.9206 3.94061 90.663 3.1704 90.663 2.22031C90.663 1.27021 89.9206 0.500002 89.0048 0.500002C88.0889 0.500002 87.3465 1.27021 87.3465 2.22031C87.3465 3.1704 88.0889 3.94061 89.0048 3.94061Z" fill="#47486B"/>
<path d="M105.948 3.94061C106.863 3.94061 107.606 3.1704 107.606 2.22031C107.606 1.27021 106.863 0.500003 105.948 0.500003C105.032 0.500003 104.289 1.27021 104.289 2.22031C104.289 3.1704 105.032 3.94061 105.948 3.94061Z" fill="#47486B"/>
<path d="M122.89 3.94061C123.806 3.94061 124.549 3.1704 124.549 2.22031C124.549 1.27021 123.806 0.500003 122.89 0.500003C121.974 0.500003 121.232 1.27021 121.232 2.22031C121.232 3.1704 121.974 3.94061 122.89 3.94061Z" fill="#47486B"/>
<path d="M71.9899 17.6282C72.9057 17.6282 73.6481 16.858 73.6481 15.9079C73.6481 14.9578 72.9057 14.1876 71.9899 14.1876C71.0741 14.1876 70.3317 14.9578 70.3317 15.9079C70.3317 16.858 71.0741 17.6282 71.9899 17.6282Z" fill="#47486B"/>
<path d="M89.0048 17.6282C89.9206 17.6282 90.663 16.858 90.663 15.9079C90.663 14.9578 89.9206 14.1876 89.0048 14.1876C88.0889 14.1876 87.3465 14.9578 87.3465 15.9079C87.3465 16.858 88.0889 17.6282 89.0048 17.6282Z" fill="#47486B"/>
<path d="M105.948 17.6282C106.863 17.6282 107.606 16.858 107.606 15.9079C107.606 14.9578 106.863 14.1876 105.948 14.1876C105.032 14.1876 104.289 14.9578 104.289 15.9079C104.289 16.858 105.032 17.6282 105.948 17.6282Z" fill="#47486B"/>
<path d="M122.89 17.6282C123.806 17.6282 124.549 16.858 124.549 15.9079C124.549 14.9578 123.806 14.1876 122.89 14.1876C121.974 14.1876 121.232 14.9578 121.232 15.9079C121.232 16.858 121.974 17.6282 122.89 17.6282Z" fill="#47486B"/>
<path d="M71.9899 31.3907C72.9057 31.3907 73.6481 30.6205 73.6481 29.6704C73.6481 28.7203 72.9057 27.9501 71.9899 27.9501C71.0741 27.9501 70.3317 28.7203 70.3317 29.6704C70.3317 30.6205 71.0741 31.3907 71.9899 31.3907Z" fill="#47486B"/>
<path d="M89.0048 31.3907C89.9206 31.3907 90.663 30.6205 90.663 29.6704C90.663 28.7203 89.9206 27.9501 89.0048 27.9501C88.0889 27.9501 87.3465 28.7203 87.3465 29.6704C87.3465 30.6205 88.0889 31.3907 89.0048 31.3907Z" fill="#47486B"/>
<path d="M105.948 31.3907C106.863 31.3907 107.606 30.6205 107.606 29.6704C107.606 28.7203 106.863 27.9501 105.948 27.9501C105.032 27.9501 104.289 28.7203 104.289 29.6704C104.289 30.6205 105.032 31.3907 105.948 31.3907Z" fill="#47486B"/>
<path d="M122.89 31.3907C123.806 31.3907 124.549 30.6205 124.549 29.6704C124.549 28.7203 123.806 27.9501 122.89 27.9501C121.974 27.9501 121.232 28.7203 121.232 29.6704C121.232 30.6205 121.974 31.3907 122.89 31.3907Z" fill="#47486B"/>
<path d="M71.9899 45.0783C72.9057 45.0783 73.6481 44.3081 73.6481 43.358C73.6481 42.4079 72.9057 41.6377 71.9899 41.6377C71.0741 41.6377 70.3317 42.4079 70.3317 43.358C70.3317 44.3081 71.0741 45.0783 71.9899 45.0783Z" fill="#47486B"/>
<path d="M89.0048 45.0783C89.9206 45.0783 90.663 44.3081 90.663 43.358C90.663 42.4079 89.9206 41.6377 89.0048 41.6377C88.0889 41.6377 87.3465 42.4079 87.3465 43.358C87.3465 44.3081 88.0889 45.0783 89.0048 45.0783Z" fill="#47486B"/>
<path d="M105.948 45.0783C106.863 45.0783 107.606 44.3081 107.606 43.358C107.606 42.4079 106.863 41.6377 105.948 41.6377C105.032 41.6377 104.289 42.4079 104.289 43.358C104.289 44.3081 105.032 45.0783 105.948 45.0783Z" fill="#47486B"/>
<path d="M122.89 45.0783C123.806 45.0783 124.549 44.3081 124.549 43.358C124.549 42.4079 123.806 41.6377 122.89 41.6377C121.974 41.6377 121.232 42.4079 121.232 43.358C121.232 44.3081 121.974 45.0783 122.89 45.0783Z" fill="#47486B"/>
<path d="M71.9899 59.3623C72.9057 59.3623 73.6481 58.5921 73.6481 57.642C73.6481 56.6919 72.9057 55.9217 71.9899 55.9217C71.0741 55.9217 70.3317 56.6919 70.3317 57.642C70.3317 58.5921 71.0741 59.3623 71.9899 59.3623Z" fill="#47486B"/>
<path d="M89.0048 59.3623C89.9206 59.3623 90.663 58.5921 90.663 57.642C90.663 56.6919 89.9206 55.9217 89.0048 55.9217C88.0889 55.9217 87.3465 56.6919 87.3465 57.642C87.3465 58.5921 88.0889 59.3623 89.0048 59.3623Z" fill="#47486B"/>
<path d="M105.948 59.3623C106.863 59.3623 107.606 58.5921 107.606 57.642C107.606 56.6919 106.863 55.9217 105.948 55.9217C105.032 55.9217 104.289 56.6919 104.289 57.642C104.289 58.5921 105.032 59.3623 105.948 59.3623Z" fill="#47486B"/>
<path d="M122.89 59.3623C123.806 59.3623 124.549 58.5921 124.549 57.642C124.549 56.6919 123.806 55.9217 122.89 55.9217C121.974 55.9217 121.232 56.6919 121.232 57.642C121.232 58.5921 121.974 59.3623 122.89 59.3623Z" fill="#47486B"/>
<path d="M71.9899 73.0499C72.9057 73.0499 73.6481 72.2797 73.6481 71.3296C73.6481 70.3795 72.9057 69.6093 71.9899 69.6093C71.0741 69.6093 70.3317 70.3795 70.3317 71.3296C70.3317 72.2797 71.0741 73.0499 71.9899 73.0499Z" fill="#47486B"/>
<path d="M89.0048 73.0499C89.9206 73.0499 90.663 72.2797 90.663 71.3296C90.663 70.3795 89.9206 69.6093 89.0048 69.6093C88.0889 69.6093 87.3465 70.3795 87.3465 71.3296C87.3465 72.2797 88.0889 73.0499 89.0048 73.0499Z" fill="#47486B"/>
<path d="M105.948 73.0499C106.863 73.0499 107.606 72.2797 107.606 71.3296C107.606 70.3795 106.863 69.6093 105.948 69.6093C105.032 69.6093 104.289 70.3795 104.289 71.3296C104.289 72.2797 105.032 73.0499 105.948 73.0499Z" fill="#47486B"/>
<path d="M122.89 73.0499C123.806 73.0499 124.549 72.2797 124.549 71.3296C124.549 70.3795 123.806 69.6093 122.89 69.6093C121.974 69.6093 121.232 70.3795 121.232 71.3296C121.232 72.2797 121.974 73.0499 122.89 73.0499Z" fill="#47486B"/>
<path d="M71.9899 86.8124C72.9057 86.8124 73.6481 86.0422 73.6481 85.0921C73.6481 84.142 72.9057 83.3718 71.9899 83.3718C71.0741 83.3718 70.3317 84.142 70.3317 85.0921C70.3317 86.0422 71.0741 86.8124 71.9899 86.8124Z" fill="#47486B"/>
<path d="M89.0048 86.8124C89.9206 86.8124 90.663 86.0422 90.663 85.0921C90.663 84.142 89.9206 83.3718 89.0048 83.3718C88.0889 83.3718 87.3465 84.142 87.3465 85.0921C87.3465 86.0422 88.0889 86.8124 89.0048 86.8124Z" fill="#47486B"/>
<path d="M105.948 86.8124C106.863 86.8124 107.606 86.0422 107.606 85.0921C107.606 84.142 106.863 83.3718 105.948 83.3718C105.032 83.3718 104.289 84.142 104.289 85.0921C104.289 86.0422 105.032 86.8124 105.948 86.8124Z" fill="#47486B"/>
<path d="M122.89 86.8124C123.806 86.8124 124.549 86.0422 124.549 85.0921C124.549 84.142 123.806 83.3718 122.89 83.3718C121.974 83.3718 121.232 84.142 121.232 85.0921C121.232 86.0422 121.974 86.8124 122.89 86.8124Z" fill="#47486B"/>
<path d="M71.9899 100.5C72.9057 100.5 73.6481 99.7298 73.6481 98.7797C73.6481 97.8296 72.9057 97.0594 71.9899 97.0594C71.0741 97.0594 70.3317 97.8296 70.3317 98.7797C70.3317 99.7298 71.0741 100.5 71.9899 100.5Z" fill="#47486B"/>
<path d="M89.0048 100.5C89.9206 100.5 90.663 99.7298 90.663 98.7797C90.663 97.8296 89.9206 97.0594 89.0048 97.0594C88.0889 97.0594 87.3465 97.8296 87.3465 98.7797C87.3465 99.7298 88.0889 100.5 89.0048 100.5Z" fill="#47486B"/>
<path d="M105.948 100.5C106.863 100.5 107.606 99.7298 107.606 98.7797C107.606 97.8296 106.863 97.0594 105.948 97.0594C105.032 97.0594 104.289 97.8296 104.289 98.7797C104.289 99.7298 105.032 100.5 105.948 100.5Z" fill="#47486B"/>
<path d="M122.89 100.5C123.806 100.5 124.549 99.7298 124.549 98.7797C124.549 97.8296 123.806 97.0594 122.89 97.0594C121.974 97.0594 121.232 97.8296 121.232 98.7797C121.232 99.7298 121.974 100.5 122.89 100.5Z" fill="#47486B"/>
</svg>
