<svg width="229" height="96" viewBox="0 0 229 96" fill="none" xmlns="http://www.w3.org/2000/svg">
<path d="M120.62 103.306L12.3913 15.8126C9.97673 13.8607 6.47607 13.8489 4.26488 16.1713C1.8114 18.6501 2.12894 22.7819 4.82756 24.9634L104.109 105.223L120.634 103.434L120.62 103.306Z" stroke="#18F1FF" stroke-width="4" stroke-miterlimit="10"/>
<path d="M158.796 99.1741L50.5809 11.8098C48.1663 9.85788 44.6657 9.84615 42.4545 12.1685C40.001 14.6473 40.3185 18.7791 43.0172 20.9606L142.156 101.105L158.81 99.3028L158.796 99.1741Z" stroke="#18F1FF" stroke-width="4" stroke-miterlimit="10"/>
<path d="M196.844 95.0565L88.7566 7.67834C86.342 5.7264 82.8414 5.71467 80.6302 8.03704C78.1767 10.5158 78.4942 14.6476 81.1928 16.8292L180.332 96.9737L196.857 95.1852L196.844 95.0565Z" stroke="#18F1FF" stroke-width="4" stroke-miterlimit="10"/>
<path d="M235.019 90.925L126.662 3.44591C124.106 1.37914 120.39 1.7812 118.335 4.34707C116.28 6.91294 116.684 10.6448 119.24 12.7115L218.379 92.856L235.033 91.0537L235.019 90.925Z" stroke="#18F1FF" stroke-width="4" stroke-miterlimit="10"/>
</svg>
