<svg width="179" height="169" viewBox="0 0 179 169" fill="none" xmlns="http://www.w3.org/2000/svg">
<path d="M152.328 1C188.859 42.511 184.821 105.78 143.31 142.31C101.799 178.841 38.5308 174.804 1.99986 133.293M142.932 9.26833C174.878 45.5691 171.343 100.969 135.042 132.915C98.7413 164.861 43.3412 161.326 11.3953 125.025M133.537 17.5367C160.972 48.7126 157.95 96.0837 126.774 123.52C95.5978 150.955 48.2266 147.932 20.7908 116.757M124.141 25.805C146.992 51.7707 144.471 91.2734 118.505 114.124C92.5397 136.975 53.037 134.454 30.1863 108.488M114.746 34.0733C133.011 54.8288 130.993 86.4631 110.237 104.729C89.4816 122.994 57.8473 120.975 39.5818 100.22" stroke="#FF185E" stroke-width="2.8347" stroke-miterlimit="10"/>
</svg>
