<svg width="122" height="120" viewBox="0 0 122 120" fill="none" xmlns="http://www.w3.org/2000/svg">
<path d="M40.6914 3.8949C41.7713 3.8949 42.6468 3.023 42.6468 1.94745C42.6468 0.871903 41.7713 0 40.6914 0C39.6114 0 38.7359 0.871903 38.7359 1.94745C38.7359 3.023 39.6114 3.8949 40.6914 3.8949Z" fill="#535477"/>
<path d="M40.6914 20.4946C41.7713 20.4946 42.6468 19.6227 42.6468 18.5471C42.6468 17.4716 41.7713 16.5997 40.6914 16.5997C39.6114 16.5997 38.7359 17.4716 38.7359 18.5471C38.7359 19.6227 39.6114 20.4946 40.6914 20.4946Z" fill="#535477"/>
<path d="M40.6914 37.187C41.7713 37.187 42.6468 36.3151 42.6468 35.2396C42.6468 34.164 41.7713 33.2921 40.6914 33.2921C39.6114 33.2921 38.7359 34.164 38.7359 35.2396C38.7359 36.3151 39.6114 37.187 40.6914 37.187Z" fill="#535477"/>
<path d="M40.6914 53.8794C41.7713 53.8794 42.6468 53.0075 42.6468 51.932C42.6468 50.8564 41.7713 49.9845 40.6914 49.9845C39.6114 49.9845 38.7359 50.8564 38.7359 51.932C38.7359 53.0075 39.6114 53.8794 40.6914 53.8794Z" fill="#535477"/>
<path d="M40.6914 70.0155C41.7713 70.0155 42.6468 69.1436 42.6468 68.068C42.6468 66.9925 41.7713 66.1206 40.6914 66.1206C39.6114 66.1206 38.7359 66.9925 38.7359 68.068C38.7359 69.1436 39.6114 70.0155 40.6914 70.0155Z" fill="#535477"/>
<path d="M40.6914 86.7079C41.7713 86.7079 42.6468 85.836 42.6468 84.7604C42.6468 83.6849 41.7713 82.813 40.6914 82.813C39.6114 82.813 38.7359 83.6849 38.7359 84.7604C38.7359 85.836 39.6114 86.7079 40.6914 86.7079Z" fill="#535477"/>
<path d="M40.6914 103.308C41.7713 103.308 42.6468 102.436 42.6468 101.36C42.6468 100.285 41.7713 99.4127 40.6914 99.4127C39.6114 99.4127 38.7359 100.285 38.7359 101.36C38.7359 102.436 39.6114 103.308 40.6914 103.308Z" fill="#535477"/>
<path d="M40.6914 120C41.7713 120 42.6468 119.128 42.6468 118.053C42.6468 116.977 41.7713 116.105 40.6914 116.105C39.6114 116.105 38.7359 116.977 38.7359 118.053C38.7359 119.128 39.6114 120 40.6914 120Z" fill="#535477"/>
<path d="M21.137 3.8949C22.2169 3.8949 23.0924 3.023 23.0924 1.94745C23.0924 0.871903 22.2169 0 21.137 0C20.057 0 19.1815 0.871903 19.1815 1.94745C19.1815 3.023 20.057 3.8949 21.137 3.8949Z" fill="#535477"/>
<path d="M21.137 20.4946C22.2169 20.4946 23.0924 19.6227 23.0924 18.5471C23.0924 17.4716 22.2169 16.5997 21.137 16.5997C20.057 16.5997 19.1815 17.4716 19.1815 18.5471C19.1815 19.6227 20.057 20.4946 21.137 20.4946Z" fill="#535477"/>
<path d="M21.137 37.187C22.2169 37.187 23.0924 36.3151 23.0924 35.2396C23.0924 34.164 22.2169 33.2921 21.137 33.2921C20.057 33.2921 19.1815 34.164 19.1815 35.2396C19.1815 36.3151 20.057 37.187 21.137 37.187Z" fill="#535477"/>
<path d="M21.137 53.8794C22.2169 53.8794 23.0924 53.0075 23.0924 51.932C23.0924 50.8564 22.2169 49.9845 21.137 49.9845C20.057 49.9845 19.1815 50.8564 19.1815 51.932C19.1815 53.0075 20.057 53.8794 21.137 53.8794Z" fill="#535477"/>
<path d="M21.137 70.0155C22.2169 70.0155 23.0924 69.1436 23.0924 68.068C23.0924 66.9925 22.2169 66.1206 21.137 66.1206C20.057 66.1206 19.1815 66.9925 19.1815 68.068C19.1815 69.1436 20.057 70.0155 21.137 70.0155Z" fill="#535477"/>
<path d="M21.137 86.7079C22.2169 86.7079 23.0924 85.836 23.0924 84.7604C23.0924 83.6849 22.2169 82.813 21.137 82.813C20.057 82.813 19.1815 83.6849 19.1815 84.7604C19.1815 85.836 20.057 86.7079 21.137 86.7079Z" fill="#535477"/>
<path d="M21.137 103.308C22.2169 103.308 23.0924 102.436 23.0924 101.36C23.0924 100.285 22.2169 99.4127 21.137 99.4127C20.057 99.4127 19.1815 100.285 19.1815 101.36C19.1815 102.436 20.057 103.308 21.137 103.308Z" fill="#535477"/>
<path d="M21.137 120C22.2169 120 23.0924 119.128 23.0924 118.053C23.0924 116.977 22.2169 116.105 21.137 116.105C20.057 116.105 19.1815 116.977 19.1815 118.053C19.1815 119.128 20.057 120 21.137 120Z" fill="#535477"/>
<path d="M79.9865 3.8949C81.0665 3.8949 81.9419 3.023 81.9419 1.94745C81.9419 0.871903 81.0665 0 79.9865 0C78.9066 0 78.0311 0.871903 78.0311 1.94745C78.0311 3.023 78.9066 3.8949 79.9865 3.8949Z" fill="#535477"/>
<path d="M79.9865 20.4946C81.0665 20.4946 81.9419 19.6227 81.9419 18.5471C81.9419 17.4716 81.0665 16.5997 79.9865 16.5997C78.9066 16.5997 78.0311 17.4716 78.0311 18.5471C78.0311 19.6227 78.9066 20.4946 79.9865 20.4946Z" fill="#535477"/>
<path d="M79.9865 37.187C81.0665 37.187 81.9419 36.3151 81.9419 35.2396C81.9419 34.164 81.0665 33.2921 79.9865 33.2921C78.9066 33.2921 78.0311 34.164 78.0311 35.2396C78.0311 36.3151 78.9066 37.187 79.9865 37.187Z" fill="#535477"/>
<path d="M79.9865 53.8794C81.0665 53.8794 81.9419 53.0075 81.9419 51.932C81.9419 50.8564 81.0665 49.9845 79.9865 49.9845C78.9066 49.9845 78.0311 50.8564 78.0311 51.932C78.0311 53.0075 78.9066 53.8794 79.9865 53.8794Z" fill="#535477"/>
<path d="M79.9865 70.0155C81.0665 70.0155 81.9419 69.1436 81.9419 68.068C81.9419 66.9925 81.0665 66.1206 79.9865 66.1206C78.9066 66.1206 78.0311 66.9925 78.0311 68.068C78.0311 69.1436 78.9066 70.0155 79.9865 70.0155Z" fill="#535477"/>
<path d="M79.9865 86.7079C81.0665 86.7079 81.9419 85.836 81.9419 84.7604C81.9419 83.6849 81.0665 82.813 79.9865 82.813C78.9066 82.813 78.0311 83.6849 78.0311 84.7604C78.0311 85.836 78.9066 86.7079 79.9865 86.7079Z" fill="#535477"/>
<path d="M79.9865 103.308C81.0665 103.308 81.9419 102.436 81.9419 101.36C81.9419 100.285 81.0665 99.4127 79.9865 99.4127C78.9066 99.4127 78.0311 100.285 78.0311 101.36C78.0311 102.436 78.9066 103.308 79.9865 103.308Z" fill="#535477"/>
<path d="M79.9865 120C81.0665 120 81.9419 119.128 81.9419 118.053C81.9419 116.977 81.0665 116.105 79.9865 116.105C78.9066 116.105 78.0311 116.977 78.0311 118.053C78.0311 119.128 78.9066 120 79.9865 120Z" fill="#535477"/>
<path d="M60.4321 3.8949C61.5121 3.8949 62.3876 3.023 62.3876 1.94745C62.3876 0.871903 61.5121 0 60.4321 0C59.3522 0 58.4767 0.871903 58.4767 1.94745C58.4767 3.023 59.3522 3.8949 60.4321 3.8949Z" fill="#535477"/>
<path d="M60.4321 20.4946C61.5121 20.4946 62.3876 19.6227 62.3876 18.5471C62.3876 17.4716 61.5121 16.5997 60.4321 16.5997C59.3522 16.5997 58.4767 17.4716 58.4767 18.5471C58.4767 19.6227 59.3522 20.4946 60.4321 20.4946Z" fill="#535477"/>
<path d="M60.4321 37.187C61.5121 37.187 62.3876 36.3151 62.3876 35.2396C62.3876 34.164 61.5121 33.2921 60.4321 33.2921C59.3522 33.2921 58.4767 34.164 58.4767 35.2396C58.4767 36.3151 59.3522 37.187 60.4321 37.187Z" fill="#535477"/>
<path d="M60.4321 53.8794C61.5121 53.8794 62.3876 53.0075 62.3876 51.932C62.3876 50.8564 61.5121 49.9845 60.4321 49.9845C59.3522 49.9845 58.4767 50.8564 58.4767 51.932C58.4767 53.0075 59.3522 53.8794 60.4321 53.8794Z" fill="#535477"/>
<path d="M60.4321 70.0155C61.5121 70.0155 62.3876 69.1436 62.3876 68.068C62.3876 66.9925 61.5121 66.1206 60.4321 66.1206C59.3522 66.1206 58.4767 66.9925 58.4767 68.068C58.4767 69.1436 59.3522 70.0155 60.4321 70.0155Z" fill="#535477"/>
<path d="M60.4321 86.7079C61.5121 86.7079 62.3876 85.836 62.3876 84.7604C62.3876 83.6849 61.5121 82.813 60.4321 82.813C59.3522 82.813 58.4767 83.6849 58.4767 84.7604C58.4767 85.836 59.3522 86.7079 60.4321 86.7079Z" fill="#535477"/>
<path d="M60.4321 103.308C61.5121 103.308 62.3876 102.436 62.3876 101.36C62.3876 100.285 61.5121 99.4127 60.4321 99.4127C59.3522 99.4127 58.4767 100.285 58.4767 101.36C58.4767 102.436 59.3522 103.308 60.4321 103.308Z" fill="#535477"/>
<path d="M60.4321 120C61.5121 120 62.3876 119.128 62.3876 118.053C62.3876 116.977 61.5121 116.105 60.4321 116.105C59.3522 116.105 58.4767 116.977 58.4767 118.053C58.4767 119.128 59.3522 120 60.4321 120Z" fill="#535477"/>
<path d="M119.282 3.8949C120.362 3.8949 121.237 3.023 121.237 1.94745C121.237 0.871903 120.362 0 119.282 0C118.202 0 117.326 0.871903 117.326 1.94745C117.326 3.023 118.202 3.8949 119.282 3.8949Z" fill="#535477"/>
<path d="M119.282 20.4946C120.362 20.4946 121.237 19.6227 121.237 18.5471C121.237 17.4716 120.362 16.5997 119.282 16.5997C118.202 16.5997 117.326 17.4716 117.326 18.5471C117.326 19.6227 118.202 20.4946 119.282 20.4946Z" fill="#535477"/>
<path d="M119.282 37.187C120.362 37.187 121.237 36.3151 121.237 35.2396C121.237 34.164 120.362 33.2921 119.282 33.2921C118.202 33.2921 117.326 34.164 117.326 35.2396C117.326 36.3151 118.202 37.187 119.282 37.187Z" fill="#535477"/>
<path d="M119.282 53.8794C120.362 53.8794 121.237 53.0075 121.237 51.932C121.237 50.8564 120.362 49.9845 119.282 49.9845C118.202 49.9845 117.326 50.8564 117.326 51.932C117.326 53.0075 118.202 53.8794 119.282 53.8794Z" fill="#535477"/>
<path d="M119.282 70.0155C120.362 70.0155 121.237 69.1436 121.237 68.068C121.237 66.9925 120.362 66.1206 119.282 66.1206C118.202 66.1206 117.326 66.9925 117.326 68.068C117.326 69.1436 118.202 70.0155 119.282 70.0155Z" fill="#535477"/>
<path d="M119.282 86.7079C120.362 86.7079 121.237 85.836 121.237 84.7604C121.237 83.6849 120.362 82.813 119.282 82.813C118.202 82.813 117.326 83.6849 117.326 84.7604C117.326 85.836 118.202 86.7079 119.282 86.7079Z" fill="#535477"/>
<path d="M119.282 103.308C120.362 103.308 121.237 102.436 121.237 101.36C121.237 100.285 120.362 99.4127 119.282 99.4127C118.202 99.4127 117.326 100.285 117.326 101.36C117.326 102.436 118.202 103.308 119.282 103.308Z" fill="#535477"/>
<path d="M119.282 120C120.362 120 121.237 119.128 121.237 118.053C121.237 116.977 120.362 116.105 119.282 116.105C118.202 116.105 117.326 116.977 117.326 118.053C117.326 119.128 118.202 120 119.282 120Z" fill="#535477"/>
<path d="M99.7273 3.8949C100.807 3.8949 101.683 3.023 101.683 1.94745C101.683 0.871903 100.807 0 99.7273 0C98.6473 0 97.7719 0.871903 97.7719 1.94745C97.7719 3.023 98.6473 3.8949 99.7273 3.8949Z" fill="#535477"/>
<path d="M99.7273 20.4946C100.807 20.4946 101.683 19.6227 101.683 18.5471C101.683 17.4716 100.807 16.5997 99.7273 16.5997C98.6473 16.5997 97.7719 17.4716 97.7719 18.5471C97.7719 19.6227 98.6473 20.4946 99.7273 20.4946Z" fill="#535477"/>
<path d="M99.7273 37.187C100.807 37.187 101.683 36.3151 101.683 35.2396C101.683 34.164 100.807 33.2921 99.7273 33.2921C98.6473 33.2921 97.7719 34.164 97.7719 35.2396C97.7719 36.3151 98.6473 37.187 99.7273 37.187Z" fill="#535477"/>
<path d="M99.7273 53.8794C100.807 53.8794 101.683 53.0075 101.683 51.932C101.683 50.8564 100.807 49.9845 99.7273 49.9845C98.6473 49.9845 97.7719 50.8564 97.7719 51.932C97.7719 53.0075 98.6473 53.8794 99.7273 53.8794Z" fill="#535477"/>
<path d="M99.7273 70.0155C100.807 70.0155 101.683 69.1436 101.683 68.068C101.683 66.9925 100.807 66.1206 99.7273 66.1206C98.6473 66.1206 97.7719 66.9925 97.7719 68.068C97.7719 69.1436 98.6473 70.0155 99.7273 70.0155Z" fill="#535477"/>
<path d="M99.7273 86.7079C100.807 86.7079 101.683 85.836 101.683 84.7604C101.683 83.6849 100.807 82.813 99.7273 82.813C98.6473 82.813 97.7719 83.6849 97.7719 84.7604C97.7719 85.836 98.6473 86.7079 99.7273 86.7079Z" fill="#535477"/>
<path d="M99.7273 103.308C100.807 103.308 101.683 102.436 101.683 101.36C101.683 100.285 100.807 99.4127 99.7273 99.4127C98.6473 99.4127 97.7719 100.285 97.7719 101.36C97.7719 102.436 98.6473 103.308 99.7273 103.308Z" fill="#535477"/>
<path d="M99.7273 120C100.807 120 101.683 119.128 101.683 118.053C101.683 116.977 100.807 116.105 99.7273 116.105C98.6473 116.105 97.7719 116.977 97.7719 118.053C97.7719 119.128 98.6473 120 99.7273 120Z" fill="#535477"/>
<path d="M1.95544 3.8949C3.0354 3.8949 3.91088 3.023 3.91088 1.94745C3.91088 0.871903 3.0354 0 1.95544 0C0.875479 0 0 0.871903 0 1.94745C0 3.023 0.875479 3.8949 1.95544 3.8949Z" fill="#535477"/>
<path d="M1.95544 20.4946C3.0354 20.4946 3.91088 19.6227 3.91088 18.5471C3.91088 17.4716 3.0354 16.5997 1.95544 16.5997C0.875479 16.5997 0 17.4716 0 18.5471C0 19.6227 0.875479 20.4946 1.95544 20.4946Z" fill="#535477"/>
<path d="M1.95544 37.187C3.0354 37.187 3.91088 36.3151 3.91088 35.2396C3.91088 34.164 3.0354 33.2921 1.95544 33.2921C0.875479 33.2921 0 34.164 0 35.2396C0 36.3151 0.875479 37.187 1.95544 37.187Z" fill="#535477"/>
<path d="M1.95544 53.8794C3.0354 53.8794 3.91088 53.0075 3.91088 51.932C3.91088 50.8564 3.0354 49.9845 1.95544 49.9845C0.875479 49.9845 0 50.8564 0 51.932C0 53.0075 0.875479 53.8794 1.95544 53.8794Z" fill="#535477"/>
<path d="M1.95544 70.0155C3.0354 70.0155 3.91088 69.1436 3.91088 68.068C3.91088 66.9925 3.0354 66.1206 1.95544 66.1206C0.875479 66.1206 0 66.9925 0 68.068C0 69.1436 0.875479 70.0155 1.95544 70.0155Z" fill="#535477"/>
<path d="M1.95544 86.7079C3.0354 86.7079 3.91088 85.836 3.91088 84.7604C3.91088 83.6849 3.0354 82.813 1.95544 82.813C0.875479 82.813 0 83.6849 0 84.7604C0 85.836 0.875479 86.7079 1.95544 86.7079Z" fill="#535477"/>
<path d="M1.95544 103.308C3.0354 103.308 3.91088 102.436 3.91088 101.36C3.91088 100.285 3.0354 99.4127 1.95544 99.4127C0.875479 99.4127 0 100.285 0 101.36C0 102.436 0.875479 103.308 1.95544 103.308Z" fill="#535477"/>
<path d="M1.95544 120C3.0354 120 3.91088 119.128 3.91088 118.053C3.91088 116.977 3.0354 116.105 1.95544 116.105C0.875479 116.105 0 116.977 0 118.053C0 119.128 0.875479 120 1.95544 120Z" fill="#535477"/>
</svg>
