<svg width="188" height="200" viewBox="0 0 188 200" fill="none" xmlns="http://www.w3.org/2000/svg">
<path fill-rule="evenodd" clip-rule="evenodd" d="M97.2612 3.70407C97.2613 1.65857 95.6245 0.000203704 93.605 0L93.5758 0.000111262C91.5696 0.0156298 89.9481 1.66759 89.9478 3.70333L89.9474 7.21389C45.5299 8.72759 8.50755 37.7048 0.243611 76.3768C-0.78753 81.2019 1.57623 85.1811 5.04262 87.1691C8.39858 89.0937 12.8694 89.2544 16.6795 86.9889C20.8229 84.5252 25.185 82.405 28.9042 81.5269C33.1359 80.5276 38.6726 82.1565 43.4097 84.3382C45.6983 85.3924 48.1074 85.1676 50.0647 84.2928C52.2755 86.352 55.7448 86.8881 58.4991 85.5457C60.7297 84.4583 63.4888 83.2507 66.314 82.3439C69.1827 81.4231 71.8887 80.8889 74.0845 80.965C76.5554 81.0507 79.6596 81.9494 82.7853 83.2156C85.5934 84.353 88.1758 85.6854 89.9474 86.6654V94.4444C89.9474 96.49 91.5844 98.1481 93.6039 98.1481C95.6234 98.1481 97.2605 96.49 97.2605 94.4444V87.2311C97.5014 87.123 97.7382 87.0019 97.9693 86.8676C99.7268 85.847 102.509 84.3409 105.557 83.0981C108.675 81.8265 111.736 80.9717 114.148 80.9672C117.94 80.96 123.13 83.0056 127.159 84.9981C129.899 86.3535 133.458 85.8552 135.682 83.7309C137.602 84.6068 139.965 84.8674 142.245 83.8702C144.77 82.7656 147.656 81.7398 150.497 81.2133C153.37 80.6807 155.916 80.7115 157.937 81.4204C161.997 82.8443 166.806 85.378 171.21 87.9917C174.945 90.2072 179.291 90.0241 182.551 88.088C185.904 86.0976 188.123 82.2006 187.204 77.5444C179.445 38.2906 142.121 8.74333 97.2608 7.21389L97.2612 3.70407ZM69.4683 37.5728C77.177 27.3028 86.4989 19.625 93.4637 15.2493C100.144 20.0478 108.959 27.9778 116.326 37.963C123.406 47.5596 128.971 58.8083 130.259 70.8241C130.397 72.1124 130.486 73.4094 130.523 74.7143C130.535 75.1481 130.541 75.5828 130.542 76.0182L130.542 76.0726C130.542 76.8372 130.523 77.6044 130.486 78.3739C130.448 78.3718 130.409 78.3624 130.368 78.3419C126.32 76.3398 119.777 73.5491 114.134 73.5598C110.322 73.567 106.227 74.8398 102.825 76.2267C99.3536 77.6426 96.2525 79.3261 94.3321 80.4413C94.2796 80.4719 94.214 80.4909 94.142 80.4915C94.0701 80.4922 94.0076 80.4741 93.959 80.4469C92.0393 79.3663 88.9515 77.7354 85.5007 76.3378C82.1142 74.9659 78.0748 73.6917 74.3347 73.5619C70.9419 73.4443 67.3246 74.2491 64.1049 75.2826C60.8416 76.33 57.7467 77.6919 55.3278 78.8709C55.2813 78.8937 55.2394 78.9011 55.1985 78.8996L55.1882 78.8993L55.1793 78.8983C54.7378 62.8261 61.0608 48.7739 69.4683 37.5728ZM138.444 76.8415C137.97 76.5202 137.863 76.1617 137.855 76.0276C137.848 60.38 131.231 46.1183 122.979 34.6209C117.466 26.9409 111.127 20.3557 105.269 15.2407C143.421 19.7383 173.508 45.9863 180.033 78.9985C180.28 80.253 179.788 81.1417 178.852 81.6976C177.825 82.3078 176.307 82.4313 174.907 81.6C170.376 78.912 165.076 76.0852 160.33 74.4207C156.666 73.1357 152.718 73.2711 149.181 73.9268C145.61 74.5885 142.17 75.8343 139.345 77.0696C139.274 77.1009 138.935 77.175 138.444 76.8415ZM80.6987 15.395C43.5428 20.2563 14.2629 45.7863 7.39121 77.9439C7.12008 79.212 7.60804 80.128 8.64577 80.7232C9.79392 81.3817 11.4796 81.4915 12.9773 80.6009C17.3295 78.013 22.4464 75.4457 27.244 74.313C34.0095 72.7154 41.5019 75.3222 46.4367 77.5952C46.523 77.635 46.853 77.7037 47.3137 77.4076C47.7743 77.1117 47.8461 76.7863 47.8469 76.6991C48.0125 59.0469 55.3153 43.9172 64.3042 32.2237C69.4734 25.4989 75.2553 19.8357 80.6987 15.395Z" fill="#306AFF"/>
<path fill-rule="evenodd" clip-rule="evenodd" d="M15.9859 138.536C15.9859 126.44 25.6669 116.634 37.6091 116.634C49.5513 116.634 59.2326 126.44 59.2326 138.536V141.701C59.2326 153.798 49.5513 163.604 37.6091 163.604C25.6669 163.604 15.9859 153.798 15.9859 141.701V138.536ZM37.6091 124.041C29.7057 124.041 23.2989 130.531 23.2989 138.536V141.701C23.2989 149.707 29.7057 156.196 37.6091 156.196C45.5125 156.196 51.9195 149.707 51.9195 141.701V138.536C51.9195 130.531 45.5125 124.041 37.6091 124.041Z" fill="#306AFF"/>
<path d="M26.6728 164.109C12.142 164.109 0.362448 176.041 0.362448 190.759C0.362448 192.804 1.99948 194.463 4.01898 194.463C6.03848 194.463 7.6755 192.804 7.6755 190.759C7.6755 180.131 16.181 171.517 26.6728 171.517H45.4209C49.8795 171.517 53.9704 173.067 57.2105 175.669C57.3771 175.802 57.5516 175.919 57.7321 176.019C57.0004 178.428 56.6066 180.985 56.6066 183.637V196.296C56.6066 198.343 58.2436 200 60.2631 200C62.2825 200 63.9197 198.343 63.9197 196.296V183.637C63.9197 173.446 72.0752 165.185 82.1358 165.185H104.008C114.069 165.185 122.225 173.446 122.225 183.637V196.296C122.225 198.343 123.862 200 125.881 200C127.901 200 129.538 198.343 129.538 196.296V183.637C129.538 180.82 129.093 178.111 128.272 175.574C131.493 173.03 135.539 171.517 139.943 171.517H158.691C169.183 171.517 177.688 180.131 177.688 190.759C177.688 192.804 179.326 194.463 181.344 194.463C183.364 194.463 185.001 192.804 185.001 190.759C185.001 176.041 173.221 164.109 158.691 164.109H139.943C134.378 164.109 129.209 165.863 124.956 168.852C120.342 162.157 112.68 157.778 104.008 157.778H82.1358C73.3014 157.778 65.5152 162.323 60.9319 169.231C56.5829 166.011 51.2167 164.109 45.4209 164.109H26.6728Z" fill="#306AFF"/>
<path fill-rule="evenodd" clip-rule="evenodd" d="M169.378 138.536C169.378 126.44 159.697 116.634 147.754 116.634C135.812 116.634 126.131 126.44 126.131 138.536V141.701C126.131 153.798 135.812 163.604 147.754 163.604C159.697 163.604 169.378 153.798 169.378 141.701V138.536ZM147.754 124.041C155.658 124.041 162.065 130.531 162.065 138.536V141.701C162.065 149.707 155.658 156.196 147.754 156.196C139.851 156.196 133.444 149.707 133.444 141.701V138.536C133.444 130.531 139.851 124.041 147.754 124.041Z" fill="#306AFF"/>
<path fill-rule="evenodd" clip-rule="evenodd" d="M70.2052 128.739C70.2052 115.935 80.4529 105.556 93.094 105.556C105.735 105.556 115.983 115.935 115.983 128.739V132.127C115.983 144.931 105.735 155.311 93.094 155.311C80.4529 155.311 70.2052 144.931 70.2052 132.127V128.739ZM93.094 112.963C84.4919 112.963 77.5183 120.026 77.5183 128.739V132.127C77.5183 140.841 84.4919 147.904 93.094 147.904C101.696 147.904 108.67 140.841 108.67 132.127V128.739C108.67 120.026 101.696 112.963 93.094 112.963Z" fill="#306AFF"/>
</svg>
