<svg width="561" height="874" viewBox="0 0 561 874" fill="none" xmlns="http://www.w3.org/2000/svg">
<g clip-path="url(#clip0_198_882)">
<g opacity="0.2">
<path d="M-44.4289 174.506L-130.849 88.0858L-55.2931 12.5303L31.1266 98.95L-44.4289 174.506Z" fill="url(#paint0_linear_198_882)"/>
<path d="M-24.1847 498.951L-110.604 412.531L-35.0489 336.976L51.3708 423.396L-24.1847 498.951Z" fill="url(#paint1_linear_198_882)"/>
<path d="M8.90246 379.445L-77.0234 293.025L-1.46786 217.469L84.458 303.889L8.90246 379.445Z" fill="url(#paint2_linear_198_882)"/>
<path d="M41.4953 260.432L-44.4307 174.506L31.1249 98.9502L117.051 184.876L41.4953 260.432Z" fill="url(#paint3_linear_198_882)"/>
<path d="M127.423 346.851L41.4971 260.431L117.053 184.876L203.472 271.295L127.423 346.851Z" fill="url(#paint4_linear_198_882)"/>
<g opacity="0.8">
<path opacity="0.0192308" d="M-5.90643 307.84C19.2788 333.025 79.0319 308.827 84.464 303.395L-1.46194 217.469C-6.89404 222.901 -29.6101 284.136 -5.90643 307.84Z" fill="#FEFEFE"/>
<path opacity="0.0384615" d="M-4.92136 307.346C20.7577 333.025 79.5231 309.321 84.4614 303.889L-1.46451 217.963C-6.89661 222.901 -28.6251 283.148 -4.92136 307.346Z" fill="#FDFDFD"/>
<path opacity="0.0576923" d="M-4.42583 306.358C21.2532 332.037 79.031 308.828 84.4631 303.889L-1.46284 217.963C-6.89493 222.902 -28.1295 282.655 -4.42583 306.358Z" fill="#FCFCFC"/>
<path opacity="0.0769231" d="M-3.44105 305.37C22.238 331.049 79.5219 308.827 84.4602 303.395L-1.46569 217.469C-6.89779 222.408 -27.1448 281.667 -3.44105 305.37Z" fill="#FBFBFB"/>
<path opacity="0.0961538" d="M-2.45267 304.877C23.2263 330.556 80.0165 308.827 84.9548 303.889L-0.971177 217.963C-6.40328 222.408 -26.6502 281.173 -2.45267 304.877Z" fill="#FAFAFA"/>
<path opacity="0.1154" d="M-1.95646 303.889C23.7225 329.568 79.525 308.333 84.4633 303.395L-1.46261 217.469C-6.40088 222.408 -25.6602 280.185 -1.95646 303.889Z" fill="#F9F9F9"/>
<path opacity="0.1346" d="M-0.968255 303.396C24.7108 329.075 80.0194 308.828 84.9577 303.89L-0.968255 217.964C-6.40035 222.408 -24.672 279.198 -0.968255 303.396Z" fill="#F8F8F8"/>
<path opacity="0.1538" d="M-0.477584 302.408C25.2014 328.087 79.5224 308.334 84.4607 303.889L-1.46522 217.963C-6.40349 222.408 -24.1813 278.704 -0.477584 302.408Z" fill="#F7F7F7"/>
<path opacity="0.1731" d="M0.512692 301.42C26.1917 327.099 80.0189 308.333 84.4633 303.395L-1.46259 217.469C-6.40086 222.408 -23.191 277.716 0.512692 301.42Z" fill="#F6F6F6"/>
<path opacity="0.1923" d="M1.00718 300.927C26.6862 326.606 79.5257 308.334 84.464 303.89L-1.46195 217.964C-6.40022 222.408 -22.6965 277.223 1.00718 300.927Z" fill="#F5F5F5"/>
<path opacity="0.2115" d="M1.98997 299.938C27.669 325.617 80.0146 308.333 84.4591 303.395L-1.4668 217.469C-5.91125 221.914 -21.7137 276.235 1.98997 299.938Z" fill="#F4F4F4"/>
<path opacity="0.2308" d="M2.97814 299.445C28.6572 325.124 80.0152 308.334 84.9535 303.889L-0.972488 217.963C-5.91076 221.914 -21.2194 275.741 2.97814 299.445Z" fill="#F3F3F3"/>
<path opacity="0.25" d="M3.47157 298.457C29.1506 324.136 80.0147 307.84 84.4592 303.395L-1.4667 217.469C-5.91115 221.914 -20.2321 274.753 3.47157 298.457Z" fill="#F2F2F2"/>
<path opacity="0.2692" d="M4.45946 297.964C30.1385 323.643 80.5088 308.334 84.4594 303.89L-1.46645 217.964C-5.9109 221.914 -19.2442 273.766 4.45946 297.964Z" fill="#F1F1F1"/>
<path opacity="0.2885" d="M4.95585 296.975C30.6349 322.654 80.0176 307.84 84.4621 303.889L-1.46384 217.963C-5.90828 221.914 -18.7478 273.272 4.95585 296.975Z" fill="#F0F0F0"/>
<path opacity="0.3077" d="M5.94176 295.988C31.6208 321.667 80.5096 307.84 84.4603 303.395L-1.46565 217.469C-5.91009 221.914 -17.7619 272.284 5.94176 295.988Z" fill="#EFEFEF"/>
<path opacity="0.3269" d="M6.92863 295.494C32.6076 321.173 80.5089 307.84 84.9533 303.889L-0.97264 217.963C-5.91091 221.42 -17.2689 271.791 6.92863 295.494Z" fill="#EEEEEE"/>
<path opacity="0.3462" d="M7.42544 294.506C33.1045 320.185 80.5119 307.84 84.4625 303.395L-1.46339 217.469C-5.414 221.42 -16.2783 270.803 7.42544 294.506Z" fill="#EDEDED"/>
<path opacity="0.3654" d="M8.41118 294.013C34.0902 319.692 80.5099 307.84 84.4605 303.889L-1.46536 217.963C-5.41598 221.42 -15.2925 269.815 8.41118 294.013Z" fill="#ECECEC"/>
<path opacity="0.3846" d="M8.90457 293.025C34.5836 318.704 80.5095 307.84 84.4601 303.889L-1.46575 217.963C-5.41637 221.42 -14.7991 269.321 8.90457 293.025Z" fill="#EBEBEB"/>
<path opacity="0.4038" d="M9.89333 292.037C35.5723 317.716 81.0045 307.346 84.4613 303.395L-1.46463 217.469C-5.41525 221.42 -13.8104 268.333 9.89333 292.037Z" fill="#EAEAEA"/>
<path opacity="0.4231" d="M10.8795 291.544C36.5585 317.223 81.003 307.347 84.9536 303.89L-0.972403 217.964C-5.41685 221.421 -13.318 267.84 10.8795 291.544Z" fill="#E9E9E9"/>
<path opacity="0.4423" d="M11.3748 290.556C37.0539 316.235 81.0045 307.346 84.4613 303.395L-1.46461 217.469C-5.41523 221.42 -12.3289 266.852 11.3748 290.556Z" fill="#E8E8E8"/>
<path opacity="0.4615" d="M12.3623 290.062C38.0413 315.741 81.0043 307.346 84.4611 303.889L-1.46482 217.963C-5.41543 220.926 -11.3414 265.864 12.3623 290.062Z" fill="#E7E7E7"/>
<path opacity="0.4808" d="M12.8562 289.074C38.5353 314.753 81.0044 307.346 84.4612 303.889L-1.46472 217.963C-4.92151 220.926 -10.8475 265.371 12.8562 289.074Z" fill="#E6E6E6"/>
<path opacity="0.5" d="M13.8438 288.086C39.5228 313.766 81.0043 306.852 84.4611 303.395L-1.4648 217.469C-4.92159 220.926 -9.85991 264.383 13.8438 288.086Z" fill="#E6E6E6"/>
<path opacity="0.5192" d="M14.3379 287.593C40.5108 313.766 81.0046 307.346 84.4614 303.889L-1.46452 217.963C-4.92131 220.926 -9.36577 263.889 14.3379 287.593Z" fill="#E5E5E5"/>
<path opacity="0.5385" d="M15.3259 286.605C41.4987 312.778 81.0049 306.852 84.4617 303.395L-1.46421 217.469C-4.921 220.926 -8.37783 262.901 15.3259 286.605Z" fill="#E4E4E4"/>
<path opacity="0.5577" d="M16.3143 286.112C42.4871 312.284 81.4995 306.852 84.9563 303.889L-0.969644 217.963C-4.92026 220.926 -7.3894 261.914 16.3143 286.112Z" fill="#E3E3E3"/>
<path opacity="0.5769" d="M16.807 285.124C42.9799 311.296 81.4984 306.852 84.4613 303.395L-1.46457 217.469C-4.92136 220.926 -6.89669 261.42 16.807 285.124Z" fill="#E2E2E2"/>
<path opacity="0.5962" d="M17.7944 284.136C43.9673 310.309 81.4981 306.358 84.4611 303.395L-1.46482 217.469C-4.42778 220.432 -5.90929 260.432 17.7944 284.136Z" fill="#E1E1E1"/>
<path opacity="0.6154" d="M18.288 283.642C44.4609 309.815 81.4979 306.852 84.4608 303.889L-1.46506 217.963C-4.42802 220.432 -5.41568 259.938 18.288 283.642Z" fill="#E0E0E0"/>
<path opacity="0.6346" d="M19.2759 282.654C45.4487 308.827 81.4981 306.358 84.4611 303.395L-1.46482 217.469C-4.42779 220.432 -4.4278 258.951 19.2759 282.654Z" fill="#DFDFDF"/>
<path opacity="0.6538" d="M20.2663 282.161C46.4391 308.334 81.9947 306.852 84.9577 303.889L-0.968302 217.963C-4.42509 220.433 -3.93125 258.457 20.2663 282.161Z" fill="#DEDEDE"/>
<path opacity="0.6731" d="M20.7562 281.173C46.929 307.346 81.4969 306.358 84.4599 303.395L-1.46602 217.469C-4.42898 220.432 -2.9475 257.469 20.7562 281.173Z" fill="#DDDDDD"/>
<path opacity="0.6923" d="M21.7477 280.68C47.9205 306.852 81.9946 306.852 84.4637 303.89L-1.46219 217.964C-4.42515 220.433 -1.95603 256.482 21.7477 280.68Z" fill="#DCDCDC"/>
<path opacity="0.7115" d="M22.2407 279.692C48.4135 305.865 81.9938 306.359 84.4629 303.89L-1.46298 217.964C-4.42594 219.939 -1.46304 255.989 22.2407 279.692Z" fill="#DBDBDB"/>
<path opacity="0.7308" d="M23.227 278.704C49.3998 304.877 81.9924 305.864 84.4615 303.395L-1.46438 217.469C-3.93352 219.938 -0.476725 255 23.227 278.704Z" fill="#DADADA"/>
<path opacity="0.75" d="M24.2124 278.211C50.3852 304.384 82.484 306.359 84.9531 303.89L-0.972862 217.964C-3.93583 219.939 0.0148226 254.507 24.2124 278.211Z" fill="#D9D9D9"/>
<path opacity="0.7692" d="M24.7065 277.222C50.8793 303.395 81.9905 305.864 84.4596 303.395L-1.46627 217.469C-3.93541 219.938 1.0028 253.519 24.7065 277.222Z" fill="#D8D8D8"/>
<path opacity="0.7885" d="M25.6961 276.729C51.8689 302.901 82.4861 306.358 84.4615 303.889L-1.46443 217.963C-3.93357 219.938 1.99236 252.531 25.6961 276.729Z" fill="#D7D7D7"/>
<path opacity="0.8077" d="M26.1892 275.741C52.362 301.914 81.9917 305.864 84.4608 303.889L-1.46511 217.963C-3.93425 219.938 2.48546 252.037 26.1892 275.741Z" fill="#D6D6D6"/>
<path opacity="0.8269" d="M27.179 274.753C53.3518 300.926 82.4877 305.864 84.463 303.395L-1.46293 217.469C-3.93206 219.938 3.47528 251.049 27.179 274.753Z" fill="#D5D5D5"/>
<path opacity="0.8462" d="M28.1652 274.259C54.3381 300.432 82.4862 305.864 84.9554 303.889L-0.970625 217.963C-3.43976 219.445 3.96769 250.556 28.1652 274.259Z" fill="#D4D4D4"/>
<path opacity="0.8654" d="M28.6603 273.272C54.8331 299.445 82.4874 305.37 84.4627 303.395L-1.46315 217.469C-3.43846 219.445 4.95656 249.568 28.6603 273.272Z" fill="#D3D3D3"/>
<path opacity="0.8846" d="M29.6458 272.778C55.8187 298.951 82.9792 305.865 84.9545 303.889L-0.971436 217.963C-3.44057 219.445 5.94213 248.581 29.6458 272.778Z" fill="#D2D2D2"/>
<path opacity="0.9038" d="M30.1388 271.791C56.3116 297.963 82.4845 305.371 84.4598 303.889L-1.46613 217.963C-3.44144 219.445 6.43507 248.087 30.1388 271.791Z" fill="#D1D1D1"/>
<path opacity="0.9231" d="M31.1281 270.803C57.3009 296.975 82.9799 305.37 84.4614 303.395L-1.46446 217.469C-3.43977 219.445 7.42438 247.099 31.1281 270.803Z" fill="#D0D0D0"/>
<path opacity="0.9423" d="M31.6237 270.31C57.7965 296.482 82.4879 305.371 84.4632 303.89L-1.46274 217.964C-3.43804 219.445 7.91996 246.606 31.6237 270.31Z" fill="#CFCFCF"/>
<path opacity="0.9615" d="M32.6114 269.321C58.7842 295.494 82.9818 305.37 84.4632 303.395L-1.46264 217.469C-3.43795 218.951 8.90769 245.617 32.6114 269.321Z" fill="#CECECE"/>
<path opacity="0.9808" d="M33.5973 268.827C59.7701 295 82.98 305.371 84.9553 303.889L-0.970622 217.963C-2.94593 218.951 9.39975 245.124 33.5973 268.827Z" fill="#CDCDCD"/>
<path d="M34.092 267.84C60.7587 294.506 82.9809 305.37 84.4624 303.395L-1.46352 217.469C-2.945 218.951 10.3883 244.136 34.092 267.84Z" fill="#CCCCCC"/>
</g>
<path d="M-3.44324 822.408L-89.3691 736.482L-13.8136 660.433L72.1123 746.853L-3.44324 822.408Z" fill="url(#paint5_linear_198_882)"/>
<path d="M-56.7756 617.47L-143.195 531.544L-67.6398 455.494L18.78 541.914L-56.7756 617.47Z" fill="url(#paint6_linear_198_882)"/>
<path d="M29.1505 703.396L-56.7754 617.47L18.7801 541.914L104.706 627.84L29.1505 703.396Z" fill="url(#paint7_linear_198_882)"/>
<path d="M-11.3446 54.9985L-97.2705 -31.4213L-21.7149 -106.977L64.211 -20.5571L-11.3446 54.9985Z" fill="url(#paint8_linear_198_882)"/>
<path d="M107.173 22.4074L21.2471 -63.5185L96.8026 -139.568L183.222 -53.1481L107.173 22.4074Z" fill="url(#paint9_linear_198_882)"/>
<g opacity="0.8">
<path opacity="0.0192308" d="M-26.1623 -16.6042C-0.977089 8.58094 58.776 -15.6166 64.2081 -21.0487L-21.7178 -106.975C-27.1499 -101.543 -49.866 -40.3079 -26.1623 -16.6042Z" fill="#FEFEFE"/>
<path opacity="0.0384615" d="M-25.1772 -17.0981C0.501816 8.58096 59.2672 -15.1228 64.2055 -20.5549L-21.7204 -106.975C-27.1525 -101.543 -48.8809 -40.8018 -25.1772 -17.0981Z" fill="#FDFDFD"/>
<path opacity="0.0576923" d="M-24.6817 -18.0857C0.997334 7.59327 58.7751 -15.6166 64.2072 -20.5549L-21.7187 -106.975C-27.1508 -101.543 -48.3854 -41.7894 -24.6817 -18.0857Z" fill="#FCFCFC"/>
<path opacity="0.0769231" d="M-23.691 -18.5805C1.98798 7.09847 59.2719 -15.1238 64.2102 -20.5559L-21.7157 -106.976C-27.1478 -101.543 -47.3947 -42.7781 -23.691 -18.5805Z" fill="#FBFBFB"/>
<path opacity="0.0961538" d="M-22.7044 -19.567C2.9746 6.11205 59.7647 -15.6164 64.703 -20.5546L-21.7168 -106.974C-26.655 -101.542 -46.9019 -43.2707 -22.7044 -19.567Z" fill="#FAFAFA"/>
<path opacity="0.1154" d="M-22.2123 -20.5546C3.4667 5.12438 59.2691 -16.1102 64.2074 -21.0485L-21.7185 -106.974C-26.6568 -102.036 -45.916 -44.2583 -22.2123 -20.5546Z" fill="#F9F9F9"/>
<path opacity="0.1346" d="M-21.2227 -21.0497C4.45635 4.62934 59.765 -15.6176 64.7033 -20.5559L-21.7165 -106.976C-26.6547 -102.037 -44.9264 -44.7534 -21.2227 -21.0497Z" fill="#F8F8F8"/>
<path opacity="0.1538" d="M-20.7315 -22.0361C4.94752 3.64292 59.2685 -16.1102 64.2068 -20.5546L-21.7191 -106.974C-26.6574 -102.036 -44.4352 -45.7398 -20.7315 -22.0361Z" fill="#F7F7F7"/>
<path opacity="0.1731" d="M-19.7422 -22.5299C5.93683 3.1491 59.764 -15.6164 64.2084 -20.5546L-21.7175 -106.974C-26.6558 -102.036 -43.4459 -46.2336 -19.7422 -22.5299Z" fill="#F6F6F6"/>
<path opacity="0.1923" d="M-19.2487 -23.5178C6.43034 2.16119 59.2698 -16.1104 64.2081 -20.5549L-21.7178 -106.975C-26.6561 -102.036 -42.9524 -47.2215 -19.2487 -23.5178Z" fill="#F5F5F5"/>
<path opacity="0.2115" d="M-18.2591 -24.5064C7.41996 1.17256 59.7656 -16.1114 64.2101 -21.0497L-21.7158 -106.976C-26.1603 -102.037 -41.9628 -48.2102 -18.2591 -24.5064Z" fill="#F4F4F4"/>
<path opacity="0.2308" d="M-17.2754 -24.999C8.40366 0.679977 59.7617 -16.1102 64.6999 -20.5546L-21.7198 -106.974C-26.1642 -102.53 -41.4729 -48.7027 -17.2754 -24.999Z" fill="#F3F3F3"/>
</g>
<path d="M75.0712 140.927L-11.3486 55.0009L64.2069 -20.5547L150.627 65.3712L75.0712 140.927Z" fill="url(#paint10_linear_198_882)"/>
<path d="M160.997 227.347L75.0713 140.927L150.627 65.3713L236.553 151.791L160.997 227.347Z" fill="url(#paint11_linear_198_882)"/>
<g opacity="0.8">
<path opacity="0.0192308" d="M27.662 188.334C52.8471 213.519 112.6 189.322 118.032 183.89L32.1064 97.9639C26.6743 103.396 3.95825 164.631 27.662 188.334Z" fill="#FEFEFE"/>
<path opacity="0.0384615" d="M28.1594 187.841C53.8384 213.52 112.604 189.817 117.542 184.385L31.6162 98.4587C26.6779 103.397 4.45568 163.644 28.1594 187.841Z" fill="#FDFDFD"/>
<path opacity="0.0576923" d="M29.1474 186.854C54.8264 212.533 112.604 189.323 118.036 184.385L32.1104 98.4587C26.6783 103.397 5.44373 163.15 29.1474 186.854Z" fill="#FCFCFC"/>
<path opacity="0.0769231" d="M30.1334 185.865C55.8124 211.544 113.096 189.322 118.035 183.89L32.1087 97.9639C26.6766 102.902 5.93584 162.161 30.1334 185.865Z" fill="#FBFBFB"/>
<path opacity="0.0961538" d="M30.6275 185.372C56.3066 211.051 113.097 189.322 118.035 184.384L32.109 98.458C26.6769 102.902 6.92384 161.668 30.6275 185.372Z" fill="#FAFAFA"/>
<path opacity="0.1154" d="M31.6128 184.384C57.2919 210.063 113.094 188.828 118.033 183.89L32.1066 97.9639C26.6745 102.902 7.90914 160.68 31.6128 184.384Z" fill="#F9F9F9"/>
<path opacity="0.1346" d="M32.1089 183.89C57.7879 209.569 113.097 189.322 118.035 184.384L32.1089 98.458C26.6768 102.902 8.40519 159.693 32.1089 183.89Z" fill="#F8F8F8"/>
<path opacity="0.1538" d="M33.0957 182.902C58.7747 208.581 113.096 188.828 118.034 184.384L32.108 98.458C27.1697 102.902 9.39198 159.199 33.0957 182.902Z" fill="#F7F7F7"/>
<path opacity="0.1731" d="M33.592 181.914C59.271 207.593 113.098 188.828 117.543 183.89L31.6168 97.9639C27.1723 102.902 9.88833 158.211 33.592 181.914Z" fill="#F6F6F6"/>
<path opacity="0.1923" d="M34.5794 181.421C60.2585 207.1 113.098 188.829 118.036 184.384L32.1103 98.4585C27.172 102.903 10.8757 157.718 34.5794 181.421Z" fill="#F5F5F5"/>
<path opacity="0.2115" d="M35.5645 180.433C61.2435 206.112 113.589 188.828 118.034 183.89L32.1076 97.9639C27.1694 102.408 11.3669 156.729 35.5645 180.433Z" fill="#F4F4F4"/>
<path opacity="0.2308" d="M36.057 179.94C61.736 205.619 113.094 188.829 118.032 184.385L32.1064 98.4587C27.1681 102.409 12.3533 155.743 36.057 179.94Z" fill="#F3F3F3"/>
<path opacity="0.25" d="M37.0478 178.952C62.7268 204.631 113.591 188.334 118.035 183.89L32.1095 97.9639C27.1712 102.408 13.3441 155.248 37.0478 178.952Z" fill="#F2F2F2"/>
<path opacity="0.2692" d="M37.541 177.964C63.22 203.643 113.59 188.334 117.541 183.89L31.6151 97.9639C27.6645 102.408 13.8373 154.26 37.541 177.964Z" fill="#F1F1F1"/>
<path opacity="0.2885" d="M38.5291 177.47C64.2081 203.149 113.591 188.335 118.035 184.384L32.1094 98.458C27.6649 102.409 14.8254 153.767 38.5291 177.47Z" fill="#F0F0F0"/>
<path opacity="0.3077" d="M39.5161 176.482C65.1951 202.161 114.084 188.334 118.035 183.89L32.1087 97.9639C27.6643 102.408 15.3186 152.779 39.5161 176.482Z" fill="#EFEFEF"/>
<path opacity="0.3269" d="M40.0116 175.99C65.6907 201.669 113.592 188.335 118.036 184.385L32.1104 98.4587C27.6659 101.916 16.3079 152.286 40.0116 175.99Z" fill="#EEEEEE"/>
<path opacity="0.3462" d="M40.9955 175.001C66.6745 200.68 114.082 188.334 118.033 183.89L32.1066 97.9639C27.6622 101.914 17.2918 151.297 40.9955 175.001Z" fill="#EDEDED"/>
<path opacity="0.3654" d="M41.4903 174.508C67.1693 200.187 113.589 188.335 117.54 184.385L31.6137 98.4587C27.6631 101.916 17.7866 150.311 41.4903 174.508Z" fill="#ECECEC"/>
<path opacity="0.3846" d="M42.4796 173.52C68.1586 199.199 114.085 188.335 118.035 184.384L32.1092 98.458C27.6648 101.915 18.7759 149.816 42.4796 173.52Z" fill="#EBEBEB"/>
<path opacity="0.4038" d="M43.4682 172.532C69.1472 198.211 114.579 187.84 118.036 183.89L32.1102 97.9639C28.1595 101.914 19.2707 148.828 43.4682 172.532Z" fill="#EAEAEA"/>
<path opacity="0.4231" d="M43.9594 172.039C69.6384 197.718 114.083 187.841 118.033 184.384L32.1075 98.4585C28.1569 101.915 20.2557 148.335 43.9594 172.039Z" fill="#E9E9E9"/>
<path opacity="0.4423" d="M44.9481 171.05C70.6271 196.729 114.578 187.84 118.035 183.89L32.1086 97.9639C28.158 101.914 21.2444 147.347 44.9481 171.05Z" fill="#E8E8E8"/>
<path opacity="0.4615" d="M45.4438 170.557C71.1228 196.236 114.086 187.841 117.543 184.384L31.6166 98.4585C28.1598 101.421 21.7401 146.36 45.4438 170.557Z" fill="#E7E7E7"/>
<path opacity="0.4808" d="M46.4305 169.569C72.1095 195.248 114.579 187.841 118.035 184.384L32.1095 98.458C28.1589 101.421 22.7268 145.865 46.4305 169.569Z" fill="#E6E6E6"/>
<path opacity="0.5" d="M46.9209 168.581C72.6 194.26 114.081 187.347 117.538 183.89L31.6123 97.9639C28.1556 101.421 23.2172 144.877 46.9209 168.581Z" fill="#E6E6E6"/>
<path opacity="0.5192" d="M47.9112 168.088C74.0841 194.26 114.578 187.841 118.035 184.384L32.1087 98.458C28.6519 101.421 24.2075 144.384 47.9112 168.088Z" fill="#E5E5E5"/>
<path opacity="0.5385" d="M48.8995 167.1C75.0723 193.273 114.578 187.347 118.035 183.89L32.1093 97.9639C28.6525 101.421 24.7019 143.396 48.8995 167.1Z" fill="#E4E4E4"/>
<path opacity="0.5577" d="M49.3948 166.607C75.5677 192.779 114.58 187.347 118.037 184.384L32.1109 98.4585C28.6541 101.421 25.6911 142.409 49.3948 166.607Z" fill="#E3E3E3"/>
<path opacity="0.5769" d="M50.3803 165.618C76.5532 191.791 115.072 187.347 118.035 183.89L32.1087 97.9639C28.6519 100.927 26.6766 141.915 50.3803 165.618Z" fill="#E2E2E2"/>
<path opacity="0.5962" d="M50.8716 164.631C77.0444 190.803 114.575 186.853 117.538 183.89L31.6123 97.9639C28.6494 100.927 27.1679 140.927 50.8716 164.631Z" fill="#E1E1E1"/>
<path opacity="0.6154" d="M51.8614 164.137C78.0343 190.31 115.071 187.347 118.034 184.384L32.1084 98.458C28.6516 100.927 28.1577 140.433 51.8614 164.137Z" fill="#E0E0E0"/>
<path opacity="0.6346" d="M52.8497 163.149C79.0226 189.322 115.072 186.853 118.035 183.89L32.1089 97.9639C28.6521 100.927 28.6522 139.445 52.8497 163.149Z" fill="#DFDFDF"/>
<path opacity="0.6538" d="M53.3428 162.656C79.5156 188.828 115.071 187.347 118.034 184.384L32.1082 98.458C29.1452 100.927 29.6391 138.952 53.3428 162.656Z" fill="#DEDEDE"/>
<path opacity="0.6731" d="M54.3285 161.668C80.5013 187.84 115.069 186.853 118.032 183.89L32.1062 97.9639C29.1433 100.927 30.6248 137.964 54.3285 161.668Z" fill="#DDDDDD"/>
<path opacity="0.6923" d="M54.8244 161.174C80.9973 187.347 115.071 187.347 117.54 184.384L31.6146 98.458C29.1454 100.927 31.1207 136.977 54.8244 161.174Z" fill="#DCDCDC"/>
<path opacity="0.7115" d="M55.815 160.187C81.9878 186.36 115.568 186.854 118.037 184.385L32.1112 98.4587C29.1483 100.434 32.1112 136.483 55.815 160.187Z" fill="#DBDBDB"/>
<path opacity="0.7308" d="M56.7977 159.198C82.9705 185.371 115.563 186.359 118.032 183.89L32.1063 97.9639C29.1434 100.433 32.6002 135.495 56.7977 159.198Z" fill="#DADADA"/>
<path opacity="0.75" d="M57.2945 158.705C83.4674 184.878 115.566 186.853 118.035 184.384L32.1093 98.458C29.1464 100.433 33.5908 135.001 57.2945 158.705Z" fill="#D9D9D9"/>
<path opacity="0.7692" d="M58.28 157.717C84.4529 183.89 115.564 186.359 118.033 183.89L32.1072 97.9639C29.1442 100.433 34.5763 134.013 58.28 157.717Z" fill="#D8D8D8"/>
<path opacity="0.7885" d="M58.7781 157.224C84.9509 183.397 115.568 186.854 117.543 184.385L31.6176 98.4587C29.6423 100.434 35.0744 133.027 58.7781 157.224Z" fill="#D7D7D7"/>
<path opacity="0.8077" d="M59.7635 156.236C85.9363 182.409 115.566 186.359 118.035 184.384L32.1091 98.458C29.64 100.433 36.0598 132.532 59.7635 156.236Z" fill="#D6D6D6"/>
<path opacity="0.8269" d="M60.259 155.248C86.4318 181.421 115.568 186.359 117.543 183.89L31.617 97.9639C29.6417 100.433 36.5552 131.544 60.259 155.248Z" fill="#D5D5D5"/>
<path opacity="0.8462" d="M61.2467 154.755C87.4196 180.928 115.568 186.36 118.037 184.385L32.1109 98.4587C29.6417 99.9402 37.543 131.051 61.2467 154.755Z" fill="#D4D4D4"/>
<path opacity="0.8654" d="M62.2346 153.766C88.4075 179.939 116.062 185.865 118.037 183.89L32.1111 97.9639C29.642 99.9392 38.5309 130.063 62.2346 153.766Z" fill="#D3D3D3"/>
<path opacity="0.8846" d="M62.726 153.273C88.8988 179.446 116.059 186.359 118.035 184.384L32.1086 98.458C29.6395 99.9395 39.0223 129.075 62.726 153.273Z" fill="#D2D2D2"/>
<path opacity="0.9038" d="M63.7131 152.285C89.8859 178.458 116.059 185.865 118.034 184.384L32.1081 98.458C30.1328 99.9395 40.0094 128.581 63.7131 152.285Z" fill="#D1D1D1"/>
<path opacity="0.9231" d="M64.2067 151.297C90.3795 177.47 116.059 185.865 117.54 183.89L31.6141 97.9639C30.1326 99.9392 40.503 127.594 64.2067 151.297Z" fill="#D0D0D0"/>
<path opacity="0.9423" d="M65.197 150.804C91.3698 176.977 116.061 185.866 118.036 184.385L32.1105 98.4587C30.1352 99.9402 41.4933 127.101 65.197 150.804Z" fill="#CFCFCF"/>
<path opacity="0.9615" d="M66.1828 149.816C92.3556 175.989 116.553 185.865 118.035 183.89L32.1087 97.9639C30.1334 99.4453 41.9853 126.112 66.1828 149.816Z" fill="#CECECE"/>
<path opacity="0.9808" d="M66.6758 149.322C92.8486 175.495 116.059 185.865 118.034 184.384L32.1079 98.458C30.1326 99.4457 42.9721 125.618 66.6758 149.322Z" fill="#CDCDCD"/>
<path d="M67.6622 148.334C94.3289 175.001 116.551 185.865 118.033 183.89L32.1066 97.9639C30.1313 99.4453 43.9585 124.631 67.6622 148.334Z" fill="#CCCCCC"/>
</g>
<path d="M193.591 108.334L107.171 22.4076L183.22 -53.1479L269.146 32.778L193.591 108.334Z" fill="url(#paint12_linear_198_882)"/>
<path d="M279.517 194.753L193.591 108.334L269.146 32.7781L355.072 119.198L279.517 194.753Z" fill="url(#paint13_linear_198_882)"/>
<g opacity="0.8">
<path opacity="0.0192308" d="M146.186 155.741C171.372 180.926 231.125 156.729 236.557 151.297L150.631 65.3706C145.199 70.8027 122.483 132.037 146.186 155.741Z" fill="#FEFEFE"/>
<path opacity="0.0384615" d="M147.174 155.248C172.853 180.927 231.619 157.223 236.557 151.791L150.631 65.865C145.199 70.8033 122.977 131.544 147.174 155.248Z" fill="#FDFDFD"/>
<path opacity="0.0576923" d="M147.667 154.26C173.346 179.939 231.124 156.729 236.556 151.791L150.63 65.8652C145.198 70.8035 123.963 130.557 147.667 154.26Z" fill="#FCFCFC"/>
<path opacity="0.0769231" d="M148.657 153.766C174.336 179.446 231.62 157.223 236.558 151.791L150.632 65.8652C145.2 70.8035 124.953 129.569 148.657 153.766Z" fill="#FBFBFB"/>
<path opacity="0.0961538" d="M149.146 152.778C174.825 178.457 231.615 156.729 236.553 151.79L150.628 65.8645C145.195 70.3089 125.442 129.074 149.146 152.778Z" fill="#FAFAFA"/>
<path opacity="0.1154" d="M150.136 151.79C175.815 177.469 231.618 156.235 236.556 151.297L150.63 65.3706C145.692 70.3089 126.433 128.087 150.136 151.79Z" fill="#F9F9F9"/>
<path opacity="0.1346" d="M151.124 151.297C176.803 176.976 232.112 156.729 237.05 151.791L151.124 65.8652C145.692 70.3097 126.926 127.594 151.124 151.297Z" fill="#F8F8F8"/>
<path opacity="0.1538" d="M151.616 150.309C177.295 175.988 231.616 156.235 236.554 151.79L150.628 65.8643C145.69 70.3087 127.912 126.605 151.616 150.309Z" fill="#F7F7F7"/>
<path opacity="0.1731" d="M152.605 149.816C178.285 175.495 232.112 156.729 236.556 151.791L150.63 65.8652C145.692 70.3097 128.902 125.618 152.605 149.816Z" fill="#F6F6F6"/>
<path opacity="0.1923" d="M153.098 148.828C178.777 174.507 231.617 156.236 236.555 151.791L150.629 65.8652C145.691 70.3097 129.394 125.125 153.098 148.828Z" fill="#F5F5F5"/>
<path opacity="0.2115" d="M154.084 147.84C179.763 173.519 232.109 156.235 236.554 151.297L150.628 65.3706C145.689 70.3089 130.381 124.136 154.084 147.84Z" fill="#F4F4F4"/>
<path opacity="0.2308" d="M155.076 147.346C180.755 173.025 232.113 156.235 237.051 151.791L151.125 65.865C146.187 69.8156 130.878 123.643 155.076 147.346Z" fill="#F3F3F3"/>
<path opacity="0.25" d="M155.569 146.358C181.248 172.037 232.112 155.741 236.557 151.297L150.631 65.3706C146.187 69.815 131.866 122.655 155.569 146.358Z" fill="#F2F2F2"/>
<path opacity="0.2692" d="M156.552 145.865C182.231 171.544 232.602 156.236 236.552 151.791L150.626 65.8652C146.182 69.8159 132.849 121.668 156.552 145.865Z" fill="#F1F1F1"/>
<path opacity="0.2885" d="M157.048 144.877C182.727 170.556 232.109 155.741 236.554 151.791L150.628 65.8647C146.183 69.8154 133.344 121.173 157.048 144.877Z" fill="#F0F0F0"/>
<path opacity="0.3077" d="M158.035 143.889C183.714 169.568 232.602 155.741 236.553 151.297L150.627 65.3706C146.183 69.815 134.331 120.185 158.035 143.889Z" fill="#EFEFEF"/>
<path opacity="0.3269" d="M158.531 143.396C184.21 169.075 232.111 155.742 236.556 151.791L150.63 65.865C146.185 69.8156 134.827 119.692 158.531 143.396Z" fill="#EEEEEE"/>
<path opacity="0.3462" d="M159.52 142.408C185.199 168.087 232.606 155.741 236.557 151.297L150.631 65.3706C146.187 69.3212 135.816 118.704 159.52 142.408Z" fill="#EDEDED"/>
<path opacity="0.3654" d="M160.504 141.914C186.183 167.593 232.603 155.741 236.554 151.791L150.628 65.8647C146.677 69.3215 136.307 117.717 160.504 141.914Z" fill="#ECECEC"/>
<path opacity="0.3846" d="M161.002 140.927C186.681 166.606 232.607 155.741 236.558 151.791L150.632 65.8647C146.681 69.3215 137.299 117.223 161.002 140.927Z" fill="#EBEBEB"/>
<path opacity="0.4038" d="M161.986 139.938C187.665 165.618 233.097 155.247 236.554 151.297L150.628 65.3706C146.677 69.3212 138.282 116.235 161.986 139.938Z" fill="#EAEAEA"/>
<path opacity="0.4231" d="M162.478 139.445C188.157 165.124 232.601 155.248 236.552 151.791L150.626 65.8652C146.675 69.322 138.774 115.742 162.478 139.445Z" fill="#E9E9E9"/>
<path opacity="0.4423" d="M163.468 138.457C189.147 164.136 233.097 155.247 236.554 151.297L150.628 65.3706C146.678 69.3212 139.764 114.753 163.468 138.457Z" fill="#E8E8E8"/>
<path opacity="0.4615" d="M164.456 137.963C190.135 163.642 233.098 155.247 236.554 151.79L150.628 65.8645C146.678 69.3213 140.258 114.26 164.456 137.963Z" fill="#E7E7E7"/>
<path opacity="0.4808" d="M164.949 136.976C190.628 162.655 233.097 155.247 236.554 151.79L150.628 65.8645C147.171 68.8275 141.245 113.272 164.949 136.976Z" fill="#E6E6E6"/>
<path opacity="0.5" d="M165.937 136.482C191.616 162.161 233.097 155.247 236.554 151.79L150.628 65.8645C147.171 68.8275 142.233 112.284 165.937 136.482Z" fill="#E6E6E6"/>
<path opacity="0.5192" d="M166.431 135.494C192.604 161.667 233.097 155.247 236.554 151.79L150.628 65.8643C147.171 68.8272 142.727 111.79 166.431 135.494Z" fill="#E5E5E5"/>
<path opacity="0.5385" d="M167.42 134.506C193.593 160.679 233.099 154.753 236.555 151.297L150.63 65.3706C147.173 68.8274 143.716 110.803 167.42 134.506Z" fill="#E4E4E4"/>
<path opacity="0.5577" d="M168.409 134.013C194.582 160.186 233.594 154.754 237.051 151.791L151.125 65.865C147.175 68.828 144.212 110.309 168.409 134.013Z" fill="#E3E3E3"/>
<path opacity="0.5769" d="M168.9 133.025C195.073 159.198 233.591 154.753 236.554 151.297L150.628 65.3706C147.171 68.8274 145.196 109.321 168.9 133.025Z" fill="#E2E2E2"/>
<path opacity="0.5962" d="M169.889 132.531C196.062 158.704 233.593 154.754 236.556 151.791L150.63 65.8647C147.173 68.3339 146.185 108.334 169.889 132.531Z" fill="#E1E1E1"/>
<path opacity="0.6154" d="M170.382 131.544C196.555 157.717 233.592 154.754 236.555 151.791L150.629 65.8652C147.666 68.3344 146.678 107.841 170.382 131.544Z" fill="#E0E0E0"/>
<path opacity="0.6346" d="M171.369 130.556C197.542 156.729 233.591 154.259 236.554 151.297L150.628 65.3706C147.665 68.3336 147.665 106.852 171.369 130.556Z" fill="#DFDFDF"/>
<path opacity="0.6538" d="M172.359 130.063C198.532 156.236 234.087 154.754 237.05 151.791L151.124 65.8652C147.668 68.3344 148.162 106.359 172.359 130.063Z" fill="#DEDEDE"/>
<path opacity="0.6731" d="M172.853 129.074C199.026 155.247 233.594 154.259 236.557 151.297L150.631 65.3706C147.668 68.3336 149.149 105.371 172.853 129.074Z" fill="#DDDDDD"/>
<path opacity="0.6923" d="M173.841 128.581C200.013 154.754 234.087 154.754 236.557 151.791L150.631 65.865C147.668 68.3341 150.137 104.384 173.841 128.581Z" fill="#DCDCDC"/>
<path opacity="0.7115" d="M174.334 127.593C200.506 153.766 234.087 154.26 236.556 151.791L150.63 65.8647C147.667 68.3339 150.63 103.889 174.334 127.593Z" fill="#DBDBDB"/>
<path opacity="0.7308" d="M175.319 126.605C201.492 152.778 234.085 153.766 236.554 151.297L150.628 65.3706C147.665 67.8397 151.615 102.901 175.319 126.605Z" fill="#DADADA"/>
<path opacity="0.75" d="M175.813 126.111C201.986 152.284 234.085 154.26 236.554 151.79L150.628 65.8645C148.159 67.8398 152.11 102.408 175.813 126.111Z" fill="#D9D9D9"/>
<path opacity="0.7692" d="M176.803 125.124C202.976 151.297 234.087 153.766 236.556 151.297L150.63 65.3706C148.161 67.8397 153.1 101.42 176.803 125.124Z" fill="#D8D8D8"/>
<path opacity="0.7885" d="M177.79 124.63C203.963 150.803 234.58 154.26 236.556 151.791L150.63 65.865C148.161 67.8403 153.593 100.927 177.79 124.63Z" fill="#D7D7D7"/>
<path opacity="0.8077" d="M178.282 123.642C204.455 149.815 234.084 153.765 236.554 151.79L150.628 65.8643C148.159 67.8396 154.578 99.9384 178.282 123.642Z" fill="#D6D6D6"/>
<path opacity="0.8269" d="M179.272 123.149C205.445 149.322 234.581 154.26 236.556 151.791L150.63 65.865C148.161 67.8403 155.568 98.9514 179.272 123.149Z" fill="#D5D5D5"/>
<path opacity="0.8462" d="M179.766 122.162C205.939 148.334 234.087 153.766 236.556 151.791L150.63 65.8652C148.161 67.3467 156.063 98.4578 179.766 122.162Z" fill="#D4D4D4"/>
<path opacity="0.8654" d="M180.754 121.173C206.927 147.346 234.581 153.272 236.557 151.297L150.631 65.3706C148.655 67.3459 157.05 97.4694 180.754 121.173Z" fill="#D3D3D3"/>
<path opacity="0.8846" d="M181.74 120.679C207.912 146.852 235.073 153.766 237.048 151.79L151.122 65.8645C148.653 67.346 157.542 96.9756 181.74 120.679Z" fill="#D2D2D2"/>
<path opacity="0.9038" d="M182.233 119.691C208.405 145.864 234.578 153.272 236.554 151.79L150.628 65.8643C148.652 67.3457 158.529 95.9877 182.233 119.691Z" fill="#D1D1D1"/>
<path opacity="0.9231" d="M183.221 119.198C209.394 145.37 235.073 153.766 236.554 151.79L150.628 65.8643C148.653 67.3457 159.517 95.0001 183.221 119.198Z" fill="#D0D0D0"/>
<path opacity="0.9423" d="M183.717 118.211C209.889 144.384 234.581 153.273 236.556 151.791L150.63 65.8652C148.655 67.3467 160.013 94.5072 183.717 118.211Z" fill="#CFCFCF"/>
<path opacity="0.9615" d="M184.704 117.222C210.877 143.395 235.075 153.272 236.556 151.297L150.63 65.3706C148.655 67.3459 161.001 93.5188 184.704 117.222Z" fill="#CECECE"/>
<path opacity="0.9808" d="M185.689 116.729C211.862 142.902 235.072 153.272 237.047 151.791L151.121 65.8647C148.652 66.8524 161.491 93.0253 185.689 116.729Z" fill="#CDCDCD"/>
<path d="M186.183 115.741C212.85 142.408 235.072 153.272 236.553 151.297L150.627 65.3706C149.146 66.8521 162.479 92.0373 186.183 115.741Z" fill="#CCCCCC"/>
</g>
<path d="M246.925 313.272L160.999 227.346L236.555 151.79L322.974 237.716L246.925 313.272Z" fill="url(#paint14_linear_198_882)"/>
<path d="M333.347 399.691L246.927 313.272L322.976 237.716L408.902 324.136L333.347 399.691Z" fill="url(#paint15_linear_198_882)"/>
<g opacity="0.8">
<path opacity="0.0192308" d="M200.01 360.68C225.195 385.865 284.948 361.667 290.38 356.235L204.454 270.309C198.528 275.741 175.812 336.976 200.01 360.68Z" fill="#FEFEFE"/>
<path opacity="0.0384615" d="M200.507 359.692C226.186 385.371 284.952 361.667 289.89 356.235L203.964 270.309C199.026 275.741 176.803 335.988 200.507 359.692Z" fill="#FDFDFD"/>
<path opacity="0.0576923" d="M201.495 359.199C227.174 384.878 284.952 361.668 290.384 356.729L204.458 270.803C199.026 275.248 177.791 335.495 201.495 359.199Z" fill="#FCFCFC"/>
<path opacity="0.0769231" d="M201.985 358.211C227.664 383.89 284.948 361.668 289.887 356.236L203.961 270.31C199.022 275.248 178.282 334.507 201.985 358.211Z" fill="#FBFBFB"/>
<path opacity="0.0961538" d="M202.975 357.716C228.654 383.395 285.444 361.667 290.383 356.729L204.457 270.803C199.025 275.247 179.271 334.013 202.975 357.716Z" fill="#FAFAFA"/>
<path opacity="0.1154" d="M203.961 356.729C229.64 382.408 285.443 361.174 290.381 356.236L204.455 270.31C199.023 275.248 179.764 333.026 203.961 356.729Z" fill="#F9F9F9"/>
<path opacity="0.1346" d="M204.457 355.741C230.136 381.42 285.444 361.173 290.382 356.235L204.457 270.309C199.024 275.247 180.753 332.037 204.457 355.741Z" fill="#F8F8F8"/>
<path opacity="0.1538" d="M205.443 355.247C231.122 380.926 285.443 361.173 290.382 356.729L204.456 270.803C199.517 275.247 181.74 331.544 205.443 355.247Z" fill="#F7F7F7"/>
<path opacity="0.1731" d="M205.94 354.26C231.619 379.939 285.446 361.174 289.89 356.236L203.964 270.31C199.52 275.248 182.236 330.557 205.94 354.26Z" fill="#F6F6F6"/>
<path opacity="0.1923" d="M206.927 353.766C232.606 379.445 285.446 361.174 290.384 356.729L204.458 270.803C199.52 274.754 183.223 330.062 206.927 353.766Z" fill="#F5F5F5"/>
<path opacity="0.2115" d="M207.912 352.778C233.591 378.457 285.937 361.174 290.381 356.235L204.455 270.309C199.517 274.754 183.715 329.075 207.912 352.778Z" fill="#F4F4F4"/>
<path opacity="0.2308" d="M208.405 352.285C234.084 377.964 285.442 361.174 290.38 356.729L204.454 270.803C199.516 274.754 184.701 328.087 208.405 352.285Z" fill="#F3F3F3"/>
<path opacity="0.25" d="M209.395 351.297C235.074 376.976 285.939 360.679 290.383 356.235L204.457 270.309C199.519 274.753 185.692 327.593 209.395 351.297Z" fill="#F2F2F2"/>
<path opacity="0.2692" d="M209.888 350.309C235.567 375.988 285.938 360.679 289.888 356.235L203.962 270.309C199.518 274.753 186.184 326.605 209.888 350.309Z" fill="#F1F1F1"/>
<path opacity="0.2885" d="M210.877 349.815C236.556 375.494 285.938 360.679 290.383 356.729L204.457 270.803C200.013 274.753 187.173 326.111 210.877 349.815Z" fill="#F0F0F0"/>
<path opacity="0.3077" d="M211.37 348.827C237.049 374.506 285.938 360.679 289.889 356.235L203.963 270.309C200.012 274.753 187.666 325.124 211.37 348.827Z" fill="#EFEFEF"/>
<path opacity="0.3269" d="M212.36 348.334C238.039 374.013 285.941 360.68 290.385 356.729L204.459 270.803C200.015 274.26 188.657 324.137 212.36 348.334Z" fill="#EEEEEE"/>
<path opacity="0.3462" d="M213.345 347.346C239.024 373.025 286.432 360.679 290.382 356.235L204.456 270.309C200.012 274.259 189.148 323.642 213.345 347.346Z" fill="#EDEDED"/>
<path opacity="0.3654" d="M213.838 346.359C239.517 372.038 285.937 360.186 289.887 356.235L203.961 270.309C200.011 274.26 190.134 322.655 213.838 346.359Z" fill="#ECECEC"/>
<path opacity="0.3846" d="M214.827 345.864C240.506 371.543 286.432 360.679 290.383 356.729L204.457 270.803C200.012 274.26 191.124 322.161 214.827 345.864Z" fill="#EBEBEB"/>
<path opacity="0.4038" d="M215.323 344.877C241.002 370.556 286.434 360.186 289.891 356.236L203.965 270.31C200.014 274.26 191.619 321.174 215.323 344.877Z" fill="#EAEAEA"/>
<path opacity="0.4231" d="M216.307 344.384C241.986 370.063 286.43 360.186 290.381 356.729L204.455 270.803C200.505 274.26 192.603 320.186 216.307 344.384Z" fill="#E9E9E9"/>
<path opacity="0.4423" d="M217.295 343.396C242.974 369.075 286.924 360.186 290.381 356.235L204.455 270.309C200.505 273.766 193.097 319.692 217.295 343.396Z" fill="#E8E8E8"/>
<path opacity="0.4615" d="M217.791 342.408C243.47 368.087 286.433 359.692 289.89 356.236L203.964 270.31C200.507 273.766 194.088 318.705 217.791 342.408Z" fill="#E7E7E7"/>
<path opacity="0.4808" d="M218.778 341.914C244.457 367.593 286.926 360.186 290.383 356.729L204.457 270.803C200.507 273.766 195.074 318.21 218.778 341.914Z" fill="#E6E6E6"/>
<path opacity="0.5" d="M219.269 340.927C244.948 366.606 286.429 359.692 289.886 356.235L203.96 270.309C200.503 273.766 195.565 317.223 219.269 340.927Z" fill="#E6E6E6"/>
<path opacity="0.5192" d="M220.26 340.432C246.432 366.605 286.926 360.185 290.383 356.729L204.457 270.803C200.506 273.766 196.556 316.729 220.26 340.432Z" fill="#E5E5E5"/>
<path opacity="0.5385" d="M221.247 339.444C247.42 365.617 286.926 359.691 290.383 356.235L204.457 270.309C201 273.765 197.05 315.741 221.247 339.444Z" fill="#E4E4E4"/>
<path opacity="0.5577" d="M221.742 338.951C247.915 365.124 286.928 359.692 290.384 356.729L204.459 270.803C201.002 273.766 198.039 314.754 221.742 338.951Z" fill="#E3E3E3"/>
<path opacity="0.5769" d="M222.728 337.963C248.901 364.136 287.419 359.691 290.382 356.235L204.456 270.309C201 273.272 199.024 314.259 222.728 337.963Z" fill="#E2E2E2"/>
<path opacity="0.5962" d="M223.219 336.976C249.392 363.149 286.923 359.198 289.886 356.235L203.96 270.309C200.997 273.272 199.516 313.272 223.219 336.976Z" fill="#E1E1E1"/>
<path opacity="0.6154" d="M224.209 336.482C250.382 362.655 287.419 359.692 290.382 356.729L204.456 270.803C200.999 273.272 200.505 312.778 224.209 336.482Z" fill="#E0E0E0"/>
<path opacity="0.6346" d="M224.705 335.495C250.877 361.668 286.927 359.198 289.89 356.236L203.964 270.31C201.001 273.273 201.001 311.791 224.705 335.495Z" fill="#DFDFDF"/>
<path opacity="0.6538" d="M225.689 335.001C251.861 361.174 287.417 359.692 290.38 356.729L204.454 270.803C200.997 273.272 201.985 310.803 225.689 335.001Z" fill="#DEDEDE"/>
<path opacity="0.6731" d="M226.676 334.013C252.849 360.186 287.417 359.198 290.38 356.236L204.454 270.31C201.491 273.273 202.972 310.31 226.676 334.013Z" fill="#DDDDDD"/>
<path opacity="0.6923" d="M227.172 333.025C253.345 359.198 287.419 359.198 289.888 356.235L203.962 270.309C201.493 272.778 203.468 309.321 227.172 333.025Z" fill="#DCDCDC"/>
<path opacity="0.7115" d="M228.163 332.532C254.335 358.705 287.916 359.199 290.385 356.729L204.459 270.803C201.496 272.779 204.459 308.828 228.163 332.532Z" fill="#DBDBDB"/>
<path opacity="0.7308" d="M228.654 331.543C254.827 357.716 287.419 358.704 289.888 356.235L203.962 270.309C201.493 272.778 204.95 307.84 228.654 331.543Z" fill="#DADADA"/>
<path opacity="0.75" d="M229.642 331.05C255.815 357.222 287.914 359.198 290.383 356.729L204.457 270.803C201.494 272.778 205.938 306.852 229.642 331.05Z" fill="#D9D9D9"/>
<path opacity="0.7692" d="M230.628 330.063C256.801 356.235 287.912 358.705 290.381 356.236L204.455 270.31C201.492 272.779 206.43 306.359 230.628 330.063Z" fill="#D8D8D8"/>
<path opacity="0.7885" d="M231.126 329.075C257.299 355.248 287.916 358.704 289.891 356.235L203.965 270.309C201.99 272.778 207.422 305.371 231.126 329.075Z" fill="#D7D7D7"/>
<path opacity="0.8077" d="M232.111 328.58C258.284 354.753 287.914 358.704 290.383 356.729L204.457 270.803C201.988 272.778 208.407 304.877 232.111 328.58Z" fill="#D6D6D6"/>
<path opacity="0.8269" d="M232.607 327.593C258.779 353.766 287.915 358.704 289.891 356.235L203.965 270.309C201.989 272.285 208.903 303.89 232.607 327.593Z" fill="#D5D5D5"/>
<path opacity="0.8462" d="M233.594 327.1C259.767 353.273 287.915 358.705 290.384 356.729L204.459 270.803C201.989 272.285 209.891 303.396 233.594 327.1Z" fill="#D4D4D4"/>
<path opacity="0.8654" d="M234.577 326.112C260.75 352.285 288.405 358.211 290.38 356.236L204.454 270.31C201.985 272.285 210.38 302.408 234.577 326.112Z" fill="#D3D3D3"/>
<path opacity="0.8846" d="M235.074 325.618C261.246 351.79 288.407 358.704 290.382 356.729L204.456 270.803C201.987 272.284 211.37 301.42 235.074 325.618Z" fill="#D2D2D2"/>
<path opacity="0.9038" d="M236.059 324.631C262.232 350.804 288.405 358.211 290.38 356.729L204.454 270.803C201.985 272.285 212.356 300.927 236.059 324.631Z" fill="#D1D1D1"/>
<path opacity="0.9231" d="M236.554 323.642C262.727 349.815 288.406 358.21 289.888 356.235L203.962 270.309C202.48 272.284 212.851 299.938 236.554 323.642Z" fill="#D0D0D0"/>
<path opacity="0.9423" d="M237.545 323.149C263.717 349.322 288.409 358.211 290.384 356.729L204.458 270.803C202.483 271.791 213.841 299.445 237.545 323.149Z" fill="#CFCFCF"/>
<path opacity="0.9615" d="M238.53 322.16C264.703 348.333 288.901 358.21 290.382 356.235L204.456 270.309C202.481 271.79 214.333 298.457 238.53 322.16Z" fill="#CECECE"/>
<path opacity="0.9808" d="M239.023 321.667C265.196 347.84 288.406 358.21 290.381 356.729L204.456 270.803C202.48 271.79 215.32 297.469 239.023 321.667Z" fill="#CDCDCD"/>
<path d="M240.01 320.68C266.676 347.346 288.899 358.211 290.38 356.235L204.454 270.309C202.479 271.791 216.306 296.976 240.01 320.68Z" fill="#CCCCCC"/>
</g>
<path d="M365.938 280.679L279.519 194.753L355.074 119.198L441.494 205.124L365.938 280.679Z" fill="url(#paint16_linear_198_882)"/>
<path d="M451.864 367.099L365.938 280.679L441.494 205.124L527.42 291.543L451.864 367.099Z" fill="url(#paint17_linear_198_882)"/>
<g opacity="0.8">
<path opacity="0.0192308" d="M318.533 328.087C343.718 353.272 403.471 329.074 408.903 323.642L322.978 237.716C317.545 243.148 294.829 304.383 318.533 328.087Z" fill="#FEFEFE"/>
<path opacity="0.0384615" d="M319.521 327.593C345.2 353.272 403.965 329.568 408.903 324.136L322.978 237.716C317.545 243.148 295.323 303.395 319.521 327.593Z" fill="#FDFDFD"/>
<path opacity="0.0576923" d="M320.014 326.605C345.693 352.284 403.47 329.074 408.903 324.136L322.977 237.716C317.545 243.148 296.31 302.901 320.014 326.605Z" fill="#FCFCFC"/>
<path opacity="0.0769231" d="M321.003 325.618C346.682 351.297 403.966 329.074 408.905 323.642L322.979 237.716C317.547 242.655 297.3 301.914 321.003 325.618Z" fill="#FBFBFB"/>
<path opacity="0.0961538" d="M321.493 325.124C347.172 350.803 403.962 329.074 408.9 324.136L322.974 237.716C317.542 242.655 297.789 301.42 321.493 325.124Z" fill="#FAFAFA"/>
<path opacity="0.1154" d="M322.483 324.136C348.162 349.815 403.964 328.58 408.903 323.642L322.977 237.716C318.039 242.655 298.779 300.432 322.483 324.136Z" fill="#F9F9F9"/>
<path opacity="0.1346" d="M322.975 323.642C348.654 349.321 403.962 329.074 408.9 324.136L322.975 237.716C318.036 242.655 299.271 299.445 322.975 323.642Z" fill="#F8F8F8"/>
<path opacity="0.1538" d="M323.963 322.655C349.642 348.334 403.963 328.581 408.901 324.136L322.975 237.716C318.037 242.655 300.259 298.951 323.963 322.655Z" fill="#F7F7F7"/>
<path opacity="0.1731" d="M324.95 321.667C350.629 347.346 404.456 328.58 408.901 323.642L322.975 237.716C318.037 242.655 300.753 297.963 324.95 321.667Z" fill="#F6F6F6"/>
<path opacity="0.1923" d="M325.445 321.173C351.124 346.852 403.963 328.581 408.901 324.136L322.976 237.716C318.037 242.655 301.741 297.469 325.445 321.173Z" fill="#F5F5F5"/>
<path opacity="0.2115" d="M326.432 320.185C352.111 345.864 404.457 328.58 408.901 323.642L322.975 237.716C318.037 242.161 302.728 296.482 326.432 320.185Z" fill="#F4F4F4"/>
<path opacity="0.2308" d="M326.928 319.692C352.607 345.371 403.965 328.581 408.903 324.136L322.977 237.716C318.039 242.161 303.224 295.988 326.928 319.692Z" fill="#F3F3F3"/>
<path opacity="0.25" d="M327.916 318.704C353.595 344.383 404.459 328.087 408.904 323.642L322.978 237.716C318.533 242.161 304.212 295 327.916 318.704Z" fill="#F2F2F2"/>
<path opacity="0.2692" d="M328.902 318.21C354.581 343.889 404.951 328.581 408.901 324.136L322.976 237.716C318.531 242.161 304.704 294.013 328.902 318.21Z" fill="#F1F1F1"/>
<path opacity="0.2885" d="M329.394 317.223C355.073 342.902 404.456 328.087 408.9 324.136L322.975 237.716C318.53 242.161 305.691 293.519 329.394 317.223Z" fill="#F0F0F0"/>
<path opacity="0.3077" d="M330.381 316.235C356.06 341.914 404.949 328.087 408.9 323.642L322.974 237.716C318.529 242.161 306.678 292.531 330.381 316.235Z" fill="#EFEFEF"/>
<path opacity="0.3269" d="M330.878 315.741C356.557 341.42 404.458 328.087 408.903 324.136L322.977 237.716C318.532 241.667 307.174 292.037 330.878 315.741Z" fill="#EEEEEE"/>
<path opacity="0.3462" d="M331.867 314.753C357.546 340.432 404.953 328.087 408.904 323.642L322.978 237.716C318.533 241.667 308.163 291.05 331.867 314.753Z" fill="#EDEDED"/>
<path opacity="0.3654" d="M332.851 314.26C358.53 339.939 404.95 328.087 408.9 324.136L322.974 237.716C318.53 241.667 308.653 290.062 332.851 314.26Z" fill="#ECECEC"/>
<path opacity="0.3846" d="M333.349 313.272C359.028 338.951 404.954 328.087 408.904 324.136L322.979 237.716C319.028 241.667 309.645 289.568 333.349 313.272Z" fill="#EBEBEB"/>
<path opacity="0.4038" d="M334.333 312.284C360.012 337.963 405.444 327.593 408.901 323.642L322.975 237.716C319.024 241.667 310.629 288.581 334.333 312.284Z" fill="#EAEAEA"/>
<path opacity="0.4231" d="M334.825 311.79C360.504 337.469 404.948 327.593 408.899 324.136L322.973 237.716C319.022 241.667 311.121 288.087 334.825 311.79Z" fill="#E9E9E9"/>
<path opacity="0.4423" d="M335.814 310.803C361.493 336.482 405.444 327.593 408.901 323.642L322.975 237.716C319.024 241.667 312.111 287.099 335.814 310.803Z" fill="#E8E8E8"/>
<path opacity="0.4615" d="M336.802 310.309C362.481 335.988 405.444 327.593 408.901 324.136L322.975 237.716C319.024 241.173 312.605 286.111 336.802 310.309Z" fill="#E7E7E7"/>
<path opacity="0.4808" d="M337.296 309.321C362.975 335 405.444 327.593 408.901 324.136L322.975 237.716C319.024 241.173 313.592 285.618 337.296 309.321Z" fill="#E6E6E6"/>
<path opacity="0.5" d="M338.283 308.334C363.962 334.013 405.444 327.099 408.901 323.642L322.975 237.716C319.518 241.173 314.58 284.63 338.283 308.334Z" fill="#E6E6E6"/>
<path opacity="0.5192" d="M338.777 307.84C364.95 334.013 405.444 327.593 408.901 324.136L322.975 237.716C319.518 241.173 315.074 284.136 338.777 307.84Z" fill="#E5E5E5"/>
<path opacity="0.5385" d="M339.765 306.852C365.938 333.025 405.444 327.099 408.901 323.642L322.975 237.716C319.518 241.173 316.062 283.148 339.765 306.852Z" fill="#E4E4E4"/>
<path opacity="0.5577" d="M340.26 306.358C366.433 332.531 405.445 327.099 408.902 324.136L322.976 237.716C319.519 241.173 316.556 282.161 340.26 306.358Z" fill="#E3E3E3"/>
<path opacity="0.5769" d="M341.246 305.371C367.419 331.543 405.938 327.099 408.901 323.642L322.975 237.716C319.518 241.173 317.543 281.667 341.246 305.371Z" fill="#E2E2E2"/>
<path opacity="0.5962" d="M342.235 304.383C368.408 330.556 405.938 326.605 408.901 323.642L322.975 237.716C319.519 240.679 318.037 280.679 342.235 304.383Z" fill="#E1E1E1"/>
<path opacity="0.6154" d="M342.728 303.889C368.9 330.062 405.938 327.099 408.9 324.136L322.975 237.716C319.518 240.679 319.024 280.185 342.728 303.889Z" fill="#E0E0E0"/>
<path opacity="0.6346" d="M343.715 302.901C369.888 329.074 405.938 326.605 408.901 323.642L322.975 237.716C320.012 240.679 320.012 279.198 343.715 302.901Z" fill="#DFDFDF"/>
<path opacity="0.6538" d="M344.209 302.408C370.382 328.581 405.937 327.099 408.9 324.136L322.974 237.716C320.011 240.679 320.505 278.704 344.209 302.408Z" fill="#DEDEDE"/>
<path opacity="0.6731" d="M345.2 301.42C371.372 327.593 405.94 326.605 408.903 323.642L322.977 237.716C320.014 240.679 321.496 277.716 345.2 301.42Z" fill="#DDDDDD"/>
<path opacity="0.6923" d="M346.187 300.926C372.36 327.099 406.434 327.099 408.903 324.136L322.978 237.716C320.015 240.679 321.99 276.729 346.187 300.926Z" fill="#DCDCDC"/>
<path opacity="0.7115" d="M346.68 299.939C372.853 326.111 406.433 326.605 408.902 324.136L322.976 237.716C320.014 240.185 322.976 276.235 346.68 299.939Z" fill="#DBDBDB"/>
<path opacity="0.7308" d="M347.665 298.951C373.838 325.124 406.43 326.111 408.899 323.642L322.974 237.716C320.011 240.185 323.961 275.247 347.665 298.951Z" fill="#DADADA"/>
<path opacity="0.75" d="M348.16 298.457C374.333 324.63 406.432 326.605 408.901 324.136L322.975 237.716C320.506 240.185 324.456 274.753 348.16 298.457Z" fill="#D9D9D9"/>
<path opacity="0.7692" d="M349.15 297.469C375.323 323.642 406.434 326.111 408.903 323.642L322.977 237.716C320.508 240.185 325.446 273.766 349.15 297.469Z" fill="#D8D8D8"/>
<path opacity="0.7885" d="M350.137 296.976C376.31 323.148 406.927 326.605 408.902 324.136L322.976 237.716C320.507 240.185 325.939 272.778 350.137 296.976Z" fill="#D7D7D7"/>
<path opacity="0.8077" d="M350.629 295.988C376.801 322.161 406.431 326.111 408.9 324.136L322.974 237.716C320.505 240.185 326.925 272.284 350.629 295.988Z" fill="#D6D6D6"/>
<path opacity="0.8269" d="M351.619 295C377.791 321.173 406.927 326.111 408.902 323.642L322.977 237.716C320.507 240.185 327.915 271.297 351.619 295Z" fill="#D5D5D5"/>
<path opacity="0.8462" d="M352.113 294.506C378.286 320.679 406.434 326.111 408.903 324.136L322.977 237.716C320.508 239.692 328.409 270.803 352.113 294.506Z" fill="#D4D4D4"/>
<path opacity="0.8654" d="M353.1 293.519C379.273 319.692 406.927 325.618 408.902 323.642L322.976 237.716C320.507 239.692 329.396 269.815 353.1 293.519Z" fill="#D3D3D3"/>
<path opacity="0.8846" d="M353.592 293.025C379.765 319.198 406.925 326.111 408.9 324.136L322.974 237.716C320.999 239.692 329.888 268.827 353.592 293.025Z" fill="#D2D2D2"/>
<path opacity="0.9038" d="M354.579 292.037C380.752 318.21 406.925 325.618 408.9 324.136L322.974 237.716C320.999 239.692 330.876 268.334 354.579 292.037Z" fill="#D1D1D1"/>
<path opacity="0.9231" d="M355.567 291.05C381.74 317.222 407.419 325.618 408.9 323.642L322.975 237.716C320.999 239.692 331.37 267.346 355.567 291.05Z" fill="#D0D0D0"/>
<path opacity="0.9423" d="M356.063 290.556C382.236 316.729 406.927 325.618 408.903 324.136L322.977 237.716C321.001 239.692 332.359 266.852 356.063 290.556Z" fill="#CFCFCF"/>
<path opacity="0.9615" d="M357.051 289.568C383.224 315.741 407.421 325.618 408.903 323.642L322.977 237.716C321.002 239.198 333.347 265.864 357.051 289.568Z" fill="#CECECE"/>
<path opacity="0.9808" d="M357.543 289.074C383.716 315.247 406.926 325.618 408.901 324.136L322.975 237.716C321 239.198 333.839 265.371 357.543 289.074Z" fill="#CDCDCD"/>
<path d="M358.532 288.087C385.199 314.753 407.421 325.618 408.903 323.642L322.977 237.716C321.001 239.198 334.829 264.383 358.532 288.087Z" fill="#CCCCCC"/>
</g>
<path d="M313.102 75.2458L226.683 -11.1739L302.732 -86.7295L388.658 -0.309723L313.102 75.2458Z" fill="url(#paint18_linear_198_882)"/>
<g opacity="0.8">
<path opacity="0.0192308" d="M179.766 36.2341C204.951 61.4193 264.704 37.2218 270.136 31.7897L184.21 -54.1362C178.284 -48.7041 155.568 12.5304 179.766 36.2341Z" fill="#FEFEFE"/>
<path opacity="0.0384615" d="M180.263 35.7411C205.942 61.4201 264.707 37.7164 269.646 32.2843L183.72 -53.6416C178.781 -48.7033 156.559 11.5436 180.263 35.7411Z" fill="#FDFDFD"/>
<path opacity="0.0576923" d="M181.251 34.7532C206.93 60.4322 264.708 37.2224 270.14 32.2841L184.214 -53.6418C178.782 -48.7036 157.547 11.0495 181.251 34.7532Z" fill="#FCFCFC"/>
<path opacity="0.0769231" d="M181.741 33.765C207.42 59.444 264.704 37.2218 269.642 31.7897L183.717 -54.1362C178.778 -48.7041 158.037 10.0613 181.741 33.765Z" fill="#FBFBFB"/>
<path opacity="0.0961538" d="M182.731 33.2712C208.41 58.9502 265.2 37.2219 270.139 32.2836L184.213 -53.6423C178.78 -49.1979 159.027 9.56753 182.731 33.2712Z" fill="#FAFAFA"/>
<path opacity="0.1154" d="M183.717 32.2835C209.396 57.9625 265.199 36.728 270.137 31.7897L184.211 -54.1362C178.779 -49.198 159.52 8.57982 183.717 32.2835Z" fill="#F9F9F9"/>
<path opacity="0.1346" d="M184.212 31.7898C209.891 57.4688 265.2 37.2219 270.138 32.2836L184.212 -53.6423C178.78 -49.1979 160.509 8.08607 184.212 31.7898Z" fill="#F8F8F8"/>
<path opacity="0.1538" d="M185.199 30.8021C210.878 56.4811 265.199 36.728 270.137 32.2836L184.212 -53.6423C179.273 -49.1979 161.495 7.0984 185.199 30.8021Z" fill="#F7F7F7"/>
<path opacity="0.1731" d="M185.696 30.309C211.375 55.988 265.202 37.2226 269.646 32.2843L183.72 -53.6416C179.276 -49.1972 161.992 6.11148 185.696 30.309Z" fill="#F6F6F6"/>
<path opacity="0.1923" d="M186.683 29.3211C212.362 55.0001 265.202 36.7285 270.14 32.2841L184.214 -53.6418C179.276 -49.1974 162.979 5.61743 186.683 29.3211Z" fill="#F5F5F5"/>
<path opacity="0.2115" d="M187.668 28.3329C213.347 54.0119 265.693 36.728 270.137 31.7897L184.211 -54.1362C179.273 -49.6918 163.47 4.62918 187.668 28.3329Z" fill="#F4F4F4"/>
<path opacity="0.2308" d="M188.161 27.8396C213.84 53.5187 265.198 36.7285 270.136 32.2841L184.21 -53.6418C179.272 -49.6912 164.457 4.13594 188.161 27.8396Z" fill="#F3F3F3"/>
<path opacity="0.25" d="M189.151 26.8514C214.83 52.5304 265.695 36.2341 270.139 31.7897L184.213 -54.1362C179.275 -49.6918 165.448 3.14772 189.151 26.8514Z" fill="#F2F2F2"/>
<path opacity="0.2692" d="M189.644 26.3577C215.323 52.0367 265.693 36.728 269.644 32.2836L183.718 -53.6423C179.274 -49.6917 165.94 2.16012 189.644 26.3577Z" fill="#F1F1F1"/>
<path opacity="0.2885" d="M190.632 25.3698C216.311 51.0488 265.693 36.234 270.138 32.2834L184.212 -53.6426C179.767 -49.692 166.928 1.66606 190.632 25.3698Z" fill="#F0F0F0"/>
<path opacity="0.3077" d="M191.126 24.3823C216.805 50.0613 265.694 36.2341 269.644 31.7897L183.718 -54.1362C179.768 -49.6918 167.422 0.678589 191.126 24.3823Z" fill="#EFEFEF"/>
<path opacity="0.3269" d="M192.115 23.8893C217.794 49.5683 265.695 36.235 270.14 32.2843L184.214 -53.6416C179.769 -49.691 168.411 0.185547 192.115 23.8893Z" fill="#EEEEEE"/>
<path opacity="0.3462" d="M193.101 22.9008C218.78 48.5798 266.188 36.2341 270.138 31.7897L184.212 -54.1362C179.768 -50.1856 168.904 -0.802906 193.101 22.9008Z" fill="#EDEDED"/>
<path opacity="0.3654" d="M193.594 22.4078C219.273 48.0868 265.693 36.2349 269.643 32.2843L183.717 -53.6416C179.767 -50.1848 169.89 -1.78975 193.594 22.4078Z" fill="#ECECEC"/>
<path opacity="0.3846" d="M194.583 21.4191C220.262 47.0981 266.188 36.234 270.139 32.2834L184.213 -53.6426C179.768 -50.1858 170.879 -2.28457 194.583 21.4191Z" fill="#EBEBEB"/>
<path opacity="0.4038" d="M195.079 20.4317C220.758 46.1107 266.19 35.7403 269.647 31.7897L183.721 -54.1362C179.77 -50.1856 171.375 -3.27204 195.079 20.4317Z" fill="#EAEAEA"/>
<path opacity="0.4231" d="M196.063 19.9387C221.742 45.6177 266.186 35.7411 270.137 32.2843L184.211 -53.6416C180.26 -50.1848 172.359 -3.76505 196.063 19.9387Z" fill="#E9E9E9"/>
<path opacity="0.4423" d="M197.051 18.9502C222.73 44.6292 266.68 35.7403 270.137 31.7897L184.211 -54.1362C180.26 -50.1856 172.853 -4.75354 197.051 18.9502Z" fill="#E8E8E8"/>
<path opacity="0.4615" d="M197.547 18.4572C223.226 44.1362 266.189 35.7411 269.646 32.2843L183.72 -53.6416C180.263 -50.1848 173.844 -5.24655 197.547 18.4572Z" fill="#E7E7E7"/>
<path opacity="0.4808" d="M198.534 17.4688C224.213 43.1478 266.682 35.7404 270.139 32.2836L184.213 -53.6423C180.262 -50.6794 174.83 -6.23492 198.534 17.4688Z" fill="#E6E6E6"/>
<path opacity="0.5" d="M199.024 16.9755C224.703 42.6545 266.185 35.7409 269.642 32.2841L183.716 -53.6418C180.259 -50.6789 175.321 -7.22207 199.024 16.9755Z" fill="#E6E6E6"/>
<path opacity="0.5192" d="M200.015 15.9873C226.188 42.1601 266.682 35.7404 270.139 32.2836L184.213 -53.6423C180.262 -50.6794 176.312 -7.71641 200.015 15.9873Z" fill="#E5E5E5"/>
<path opacity="0.5385" d="M201.002 14.9996C227.175 41.1724 266.681 35.2465 270.138 31.7897L184.212 -54.1362C180.755 -50.6794 176.804 -8.70413 201.002 14.9996Z" fill="#E4E4E4"/>
<path opacity="0.5577" d="M201.498 14.5066C227.671 40.6794 266.684 35.2473 270.14 32.2843L184.214 -53.6416C180.758 -50.6786 177.795 -9.19714 201.498 14.5066Z" fill="#E3E3E3"/>
<path opacity="0.5769" d="M202.484 13.5181C228.657 39.6909 267.175 35.2465 270.138 31.7897L184.212 -54.1362C180.755 -50.6794 178.78 -10.1856 202.484 13.5181Z" fill="#E2E2E2"/>
<path opacity="0.5962" d="M202.975 13.0251C229.148 39.1979 266.679 35.2473 269.642 32.2843L183.716 -53.6416C180.753 -51.1725 179.271 -11.1725 202.975 13.0251Z" fill="#E1E1E1"/>
<path opacity="0.6154" d="M203.965 12.0367C230.138 38.2095 267.175 35.2466 270.138 32.2836L184.212 -53.6423C180.755 -51.1732 180.261 -11.667 203.965 12.0367Z" fill="#E0E0E0"/>
<path opacity="0.6346" d="M204.459 11.0489C230.631 37.2218 266.681 34.7527 269.644 31.7897L183.718 -54.1362C180.755 -51.1733 180.755 -12.6548 204.459 11.0489Z" fill="#DFDFDF"/>
<path opacity="0.6538" d="M205.444 10.5554C231.617 36.7283 267.173 35.2468 270.136 32.2838L184.21 -53.6421C180.753 -51.173 181.741 -13.1483 205.444 10.5554Z" fill="#DEDEDE"/>
<path opacity="0.6731" d="M206.432 9.56748C232.605 35.7403 267.173 34.7527 270.136 31.7897L184.21 -54.1362C181.247 -51.1733 182.728 -14.1362 206.432 9.56748Z" fill="#DDDDDD"/>
<path opacity="0.6923" d="M206.929 9.0737C233.102 35.2466 267.176 35.2466 269.645 32.2836L183.719 -53.6423C181.25 -51.1732 183.225 -15.1238 206.929 9.0737Z" fill="#DCDCDC"/>
<path opacity="0.7115" d="M207.918 8.08679C234.091 34.2596 267.672 34.7535 270.141 32.2843L184.215 -53.6416C181.252 -51.1725 184.215 -15.6169 207.918 8.08679Z" fill="#DBDBDB"/>
<path opacity="0.7308" d="M208.41 7.09835C234.582 33.2712 267.175 34.2588 269.644 31.7897L183.718 -54.1362C181.249 -51.6671 184.706 -16.6054 208.41 7.09835Z" fill="#DADADA"/>
<path opacity="0.75" d="M209.398 6.60456C235.571 32.7774 267.67 34.7527 270.139 32.2836L184.213 -53.6423C181.25 -51.667 185.694 -17.0991 209.398 6.60456Z" fill="#D9D9D9"/>
<path opacity="0.7692" d="M210.384 5.61685C236.557 31.7897 267.668 34.2588 270.137 31.7897L184.211 -54.1362C181.248 -51.6671 186.186 -18.0869 210.384 5.61685Z" fill="#D8D8D8"/>
<path opacity="0.7885" d="M210.881 5.12384C237.053 31.2967 267.671 34.7535 269.646 32.2843L183.72 -53.6416C181.745 -51.6663 187.177 -18.5799 210.881 5.12384Z" fill="#D7D7D7"/>
<path opacity="0.8077" d="M211.867 4.13543C238.04 30.3083 267.669 34.2589 270.139 32.2836L184.213 -53.6423C181.743 -51.667 188.163 -19.5683 211.867 4.13543Z" fill="#D6D6D6"/>
<path opacity="0.8269" d="M212.362 3.64185C238.535 29.8147 267.671 34.753 269.646 32.2838L183.72 -53.6421C181.745 -51.6668 188.659 -20.5557 212.362 3.64185Z" fill="#D5D5D5"/>
<path opacity="0.8462" d="M213.35 2.65446C239.523 28.8273 267.671 34.2594 270.14 32.2841L184.214 -53.6418C181.745 -52.1604 189.647 -21.0492 213.35 2.65446Z" fill="#D4D4D4"/>
<path opacity="0.8654" d="M214.334 1.66621C240.507 27.8391 268.161 33.765 270.137 31.7897L184.211 -54.1362C181.742 -52.1609 190.137 -22.0375 214.334 1.66621Z" fill="#D3D3D3"/>
<path opacity="0.8846" d="M214.829 1.17247C241.002 27.3453 268.163 34.2589 270.138 32.2836L184.212 -53.6423C181.743 -52.1609 191.126 -22.5312 214.829 1.17247Z" fill="#D2D2D2"/>
<path opacity="0.9038" d="M215.815 0.185566C241.988 26.3584 268.161 33.7658 270.136 32.2843L184.21 -53.6416C181.741 -52.1601 192.111 -23.5181 215.815 0.185566Z" fill="#D1D1D1"/>
<path opacity="0.9231" d="M216.31 -0.308739C242.483 25.8641 268.162 34.2592 269.644 32.2839L183.718 -53.6421C182.236 -52.1606 192.606 -24.5063 216.31 -0.308739Z" fill="#D0D0D0"/>
<path opacity="0.9423" d="M217.3 -1.29618C243.473 24.8767 268.165 33.7656 270.14 32.2841L184.214 -53.6418C182.239 -52.1604 193.597 -24.9999 217.3 -1.29618Z" fill="#CFCFCF"/>
<path opacity="0.9615" d="M218.286 -2.28437C244.459 23.8885 268.657 33.765 270.138 31.7897L184.212 -54.1362C182.237 -52.1609 194.089 -25.9881 218.286 -2.28437Z" fill="#CECECE"/>
<path opacity="0.9808" d="M218.779 -2.77788C244.952 23.395 268.162 33.7653 270.137 32.2838L184.211 -53.6421C182.236 -52.6544 195.076 -26.4816 218.779 -2.77788Z" fill="#CDCDCD"/>
<path d="M219.766 -3.76588C246.432 22.9008 268.655 33.765 270.136 31.7897L184.21 -54.1362C182.235 -52.6547 196.062 -27.4696 219.766 -3.76588Z" fill="#CCCCCC"/>
</g>
<path d="M399.025 161.173L313.099 75.2474L388.654 -0.308105L474.58 85.6178L399.025 161.173Z" fill="url(#paint19_linear_198_882)"/>
<path d="M485.445 247.592L399.025 161.172L474.581 85.6162L561.001 172.036L485.445 247.592Z" fill="url(#paint20_linear_198_882)"/>
<g opacity="0.8">
<path opacity="0.0192308" d="M352.108 208.58C377.293 233.765 437.046 209.567 442.478 204.135L356.552 118.209C350.626 123.642 327.91 184.876 352.108 208.58Z" fill="#FEFEFE"/>
<path opacity="0.0384615" d="M352.601 208.087C378.28 233.766 437.046 210.062 441.984 204.63L356.058 118.704C350.626 123.642 328.897 183.889 352.601 208.087Z" fill="#FDFDFD"/>
<path opacity="0.0576923" d="M353.593 207.099C379.272 232.778 437.05 209.568 442.482 204.63L356.556 118.704C351.124 123.642 329.889 183.395 353.593 207.099Z" fill="#FCFCFC"/>
<path opacity="0.0769231" d="M354.083 206.111C379.762 231.79 437.046 209.567 441.984 204.135L356.058 118.209C351.12 123.148 330.379 182.407 354.083 206.111Z" fill="#FBFBFB"/>
<path opacity="0.0961538" d="M355.073 205.617C380.752 231.296 437.542 209.568 442.48 204.629L356.554 118.703C351.122 123.148 331.369 181.913 355.073 205.617Z" fill="#FAFAFA"/>
<path opacity="0.1154" d="M355.566 204.629C381.245 230.308 437.047 209.074 441.986 204.135L356.06 118.209C351.122 123.148 331.862 180.926 355.566 204.629Z" fill="#F9F9F9"/>
<path opacity="0.1346" d="M356.554 204.135C382.233 229.814 437.542 209.568 442.48 204.629L356.554 118.703C351.122 123.148 332.851 179.938 356.554 204.135Z" fill="#F8F8F8"/>
<path opacity="0.1538" d="M357.542 203.148C383.221 228.827 437.542 209.074 442.48 204.629L356.554 118.703C351.122 123.148 333.345 179.444 357.542 203.148Z" fill="#F7F7F7"/>
<path opacity="0.1731" d="M358.037 202.16C383.716 227.839 437.544 209.074 441.988 204.135L356.062 118.209C351.618 123.148 334.334 178.456 358.037 202.16Z" fill="#F6F6F6"/>
<path opacity="0.1923" d="M359.025 201.667C384.704 227.346 437.543 209.074 442.482 204.63L356.556 118.704C351.617 123.148 335.321 177.963 359.025 201.667Z" fill="#F5F5F5"/>
<path opacity="0.2115" d="M359.517 200.679C385.196 226.358 437.542 209.074 441.986 204.135L356.061 118.209C351.616 122.654 335.814 176.975 359.517 200.679Z" fill="#F4F4F4"/>
<path opacity="0.2308" d="M360.503 200.186C386.182 225.865 437.54 209.074 442.479 204.63L356.553 118.704C351.614 122.655 336.8 175.988 360.503 200.186Z" fill="#F3F3F3"/>
<path opacity="0.25" d="M361.492 199.197C387.171 224.876 438.035 208.58 442.48 204.135L356.554 118.209C351.616 122.654 337.295 175.493 361.492 199.197Z" fill="#F2F2F2"/>
<path opacity="0.2692" d="M361.986 198.209C387.665 223.888 438.035 208.58 441.986 204.135L356.06 118.209C351.615 122.654 338.282 174.506 361.986 198.209Z" fill="#F1F1F1"/>
<path opacity="0.2885" d="M362.974 197.715C388.653 223.394 438.036 208.58 442.48 204.629L356.555 118.703C351.616 122.654 339.27 174.012 362.974 197.715Z" fill="#F0F0F0"/>
<path opacity="0.3077" d="M363.468 196.728C389.147 222.407 438.035 208.58 441.986 204.135L356.06 118.209C352.11 122.654 339.764 173.024 363.468 196.728Z" fill="#EFEFEF"/>
<path opacity="0.3269" d="M364.458 196.234C390.137 221.913 438.038 208.58 442.483 204.63L356.557 118.704C352.112 122.16 340.754 172.531 364.458 196.234Z" fill="#EEEEEE"/>
<path opacity="0.3462" d="M365.443 195.246C391.122 220.926 438.529 208.58 442.48 204.135L356.554 118.209C352.11 122.16 341.245 171.543 365.443 195.246Z" fill="#EDEDED"/>
<path opacity="0.3654" d="M365.936 194.753C391.615 220.432 438.034 208.58 441.985 204.63L356.059 118.704C352.108 122.16 342.232 170.555 365.936 194.753Z" fill="#ECECEC"/>
<path opacity="0.3846" d="M366.925 193.765C392.604 219.444 438.53 208.58 442.48 204.629L356.555 118.703C352.11 122.16 343.221 170.061 366.925 193.765Z" fill="#EBEBEB"/>
<path opacity="0.4038" d="M367.42 192.777C393.099 218.456 438.531 208.086 441.988 204.135L356.062 118.209C352.111 122.16 343.716 169.074 367.42 192.777Z" fill="#EAEAEA"/>
<path opacity="0.4231" d="M368.406 192.283C394.085 217.962 438.529 208.086 442.48 204.629L356.554 118.703C352.603 122.16 344.702 168.58 368.406 192.283Z" fill="#E9E9E9"/>
<path opacity="0.4423" d="M368.899 191.296C394.578 216.975 438.529 208.086 441.986 204.135L356.06 118.209C352.603 122.16 345.195 167.592 368.899 191.296Z" fill="#E8E8E8"/>
<path opacity="0.4615" d="M369.89 190.803C395.569 216.482 438.532 208.087 441.989 204.63L356.063 118.704C352.606 121.667 346.186 166.605 369.89 190.803Z" fill="#E7E7E7"/>
<path opacity="0.4808" d="M370.873 189.815C396.552 215.494 439.021 208.087 442.478 204.63L356.552 118.704C352.602 121.667 346.676 166.112 370.873 189.815Z" fill="#E6E6E6"/>
<path opacity="0.5" d="M371.366 188.827C397.045 214.506 438.527 207.592 441.984 204.135L356.058 118.209C352.601 121.666 347.663 165.123 371.366 188.827Z" fill="#E6E6E6"/>
<path opacity="0.5192" d="M372.357 188.333C398.53 214.506 439.024 208.086 442.481 204.629L356.555 118.703C352.604 121.666 348.653 164.629 372.357 188.333Z" fill="#E5E5E5"/>
<path opacity="0.5385" d="M372.849 187.345C399.022 213.518 438.528 207.592 441.985 204.135L356.059 118.209C352.602 121.666 349.146 163.642 372.849 187.345Z" fill="#E4E4E4"/>
<path opacity="0.5577" d="M373.839 186.852C400.012 213.025 439.024 207.593 442.481 204.63L356.555 118.704C353.098 121.667 350.135 162.654 373.839 186.852Z" fill="#E3E3E3"/>
<path opacity="0.5769" d="M374.826 185.864C400.999 212.037 439.518 207.592 442.481 204.135L356.555 118.209C353.098 121.172 350.629 162.16 374.826 185.864Z" fill="#E2E2E2"/>
<path opacity="0.5962" d="M375.318 184.876C401.491 211.049 439.022 207.098 441.985 204.135L356.059 118.209C353.096 121.172 351.614 161.172 375.318 184.876Z" fill="#E1E1E1"/>
<path opacity="0.6154" d="M376.307 184.382C402.48 210.555 439.517 207.592 442.48 204.629L356.554 118.703C353.097 121.173 352.603 160.679 376.307 184.382Z" fill="#E0E0E0"/>
<path opacity="0.6346" d="M376.803 183.395C402.976 209.567 439.025 207.098 441.988 204.135L356.063 118.209C353.1 121.172 353.1 159.691 376.803 183.395Z" fill="#DFDFDF"/>
<path opacity="0.6538" d="M377.787 182.901C403.96 209.074 439.516 207.593 442.479 204.63L356.553 118.704C353.096 121.173 354.083 159.197 377.787 182.901Z" fill="#DEDEDE"/>
<path opacity="0.6731" d="M378.776 181.913C404.949 208.086 439.517 207.098 442.48 204.135L356.554 118.209C353.097 121.172 354.579 158.209 378.776 181.913Z" fill="#DDDDDD"/>
<path opacity="0.6923" d="M379.27 181.419C405.443 207.592 439.517 207.592 441.986 204.629L356.06 118.703C353.591 121.173 355.566 157.222 379.27 181.419Z" fill="#DCDCDC"/>
<path opacity="0.7115" d="M380.26 180.432C406.433 206.605 440.013 207.099 442.482 204.63L356.557 118.704C353.594 120.679 356.556 156.729 380.26 180.432Z" fill="#DBDBDB"/>
<path opacity="0.7308" d="M380.753 179.444C406.926 205.617 439.519 206.604 441.988 204.135L356.062 118.209C353.593 120.679 357.05 155.74 380.753 179.444Z" fill="#DADADA"/>
<path opacity="0.75" d="M381.74 178.95C407.913 205.123 440.011 207.098 442.481 204.629L356.555 118.703C353.592 120.679 358.036 155.247 381.74 178.95Z" fill="#D9D9D9"/>
<path opacity="0.7692" d="M382.725 177.963C408.898 204.135 440.009 206.604 442.479 204.135L356.553 118.209C353.59 120.679 358.528 154.259 382.725 177.963Z" fill="#D8D8D8"/>
<path opacity="0.7885" d="M383.219 177.47C409.391 203.642 440.009 207.099 441.984 204.63L356.058 118.704C353.589 120.679 359.515 153.272 383.219 177.47Z" fill="#D7D7D7"/>
<path opacity="0.8077" d="M384.21 176.482C410.383 202.655 440.012 206.605 442.481 204.63L356.555 118.704C354.086 120.679 360.506 152.778 384.21 176.482Z" fill="#D6D6D6"/>
<path opacity="0.8269" d="M384.704 175.493C410.877 201.666 440.013 206.604 441.988 204.135L356.062 118.209C354.087 120.679 361.001 151.79 384.704 175.493Z" fill="#D5D5D5"/>
<path opacity="0.8462" d="M385.692 175C411.865 201.173 440.013 206.605 442.482 204.63L356.556 118.704C354.087 120.185 361.988 151.296 385.692 175Z" fill="#D4D4D4"/>
<path opacity="0.8654" d="M386.184 174.012C412.357 200.185 440.011 206.111 441.986 204.135L356.06 118.209C354.085 120.185 362.48 150.308 386.184 174.012Z" fill="#D3D3D3"/>
<path opacity="0.8846" d="M387.172 173.519C413.345 199.692 440.506 206.605 442.481 204.63L356.555 118.704C354.086 120.186 363.468 149.321 387.172 173.519Z" fill="#D2D2D2"/>
<path opacity="0.9038" d="M388.161 172.531C414.334 198.704 440.507 206.112 442.482 204.63L356.556 118.704C354.087 120.186 363.963 148.828 388.161 172.531Z" fill="#D1D1D1"/>
<path opacity="0.9231" d="M388.651 171.543C414.823 197.716 440.502 206.111 441.984 204.135L356.058 118.209C354.083 120.185 364.947 147.839 388.651 171.543Z" fill="#D0D0D0"/>
<path opacity="0.9423" d="M389.642 171.05C415.815 197.223 440.506 206.112 442.482 204.63L356.556 118.704C354.581 120.186 365.939 147.346 389.642 171.05Z" fill="#CFCFCF"/>
<path opacity="0.9615" d="M390.134 170.061C416.307 196.234 440.505 206.111 441.986 204.135L356.06 118.209C354.579 119.691 366.431 146.358 390.134 170.061Z" fill="#CECECE"/>
<path opacity="0.9808" d="M391.121 169.568C417.294 195.741 440.504 206.111 442.479 204.63L356.553 118.704C354.578 119.691 367.417 145.864 391.121 169.568Z" fill="#CDCDCD"/>
<path d="M392.108 168.58C418.775 195.246 440.997 206.111 442.479 204.135L356.553 118.209C354.577 119.691 367.911 144.876 392.108 168.58Z" fill="#CCCCCC"/>
</g>
</g>
</g>
<defs>
<linearGradient id="paint0_linear_198_882" x1="-92.9921" y1="50.5051" x2="-6.84675" y2="136.65" gradientUnits="userSpaceOnUse">
<stop stop-color="#CCCCCC"/>
<stop offset="0.241" stop-color="#D9D9D9"/>
<stop offset="0.6851" stop-color="#EBEBEB"/>
<stop offset="1" stop-color="#F2F2F2"/>
</linearGradient>
<linearGradient id="paint1_linear_198_882" x1="-72.7477" y1="374.841" x2="13.3976" y2="460.987" gradientUnits="userSpaceOnUse">
<stop stop-color="#CCCCCC"/>
<stop offset="0.241" stop-color="#D9D9D9"/>
<stop offset="0.6851" stop-color="#EBEBEB"/>
<stop offset="1" stop-color="#F2F2F2"/>
</linearGradient>
<linearGradient id="paint2_linear_198_882" x1="-39.3767" y1="255.324" x2="46.7694" y2="341.47" gradientUnits="userSpaceOnUse">
<stop stop-color="#CCCCCC"/>
<stop offset="0.241" stop-color="#D9D9D9"/>
<stop offset="0.6851" stop-color="#EBEBEB"/>
<stop offset="1" stop-color="#F2F2F2"/>
</linearGradient>
<linearGradient id="paint3_linear_198_882" x1="-6.84851" y1="136.651" x2="79.2972" y2="222.796" gradientUnits="userSpaceOnUse">
<stop stop-color="#CCCCCC"/>
<stop offset="0.241" stop-color="#D9D9D9"/>
<stop offset="0.6851" stop-color="#EBEBEB"/>
<stop offset="1" stop-color="#F2F2F2"/>
</linearGradient>
<linearGradient id="paint4_linear_198_882" x1="79.299" y1="222.796" x2="165.444" y2="308.941" gradientUnits="userSpaceOnUse">
<stop stop-color="#CCCCCC"/>
<stop offset="0.241" stop-color="#D9D9D9"/>
<stop offset="0.6851" stop-color="#EBEBEB"/>
<stop offset="1" stop-color="#F2F2F2"/>
</linearGradient>
<linearGradient id="paint5_linear_198_882" x1="-51.7979" y1="698.474" x2="34.3471" y2="784.619" gradientUnits="userSpaceOnUse">
<stop stop-color="#CCCCCC"/>
<stop offset="0.241" stop-color="#D9D9D9"/>
<stop offset="0.6851" stop-color="#EBEBEB"/>
<stop offset="1" stop-color="#F2F2F2"/>
</linearGradient>
<linearGradient id="paint6_linear_198_882" x1="-105.274" y1="493.514" x2="-19.1283" y2="579.66" gradientUnits="userSpaceOnUse">
<stop stop-color="#CCCCCC"/>
<stop offset="0.241" stop-color="#D9D9D9"/>
<stop offset="0.6851" stop-color="#EBEBEB"/>
<stop offset="1" stop-color="#F2F2F2"/>
</linearGradient>
<linearGradient id="paint7_linear_198_882" x1="-19.1281" y1="579.66" x2="67.0173" y2="665.805" gradientUnits="userSpaceOnUse">
<stop stop-color="#CCCCCC"/>
<stop offset="0.241" stop-color="#D9D9D9"/>
<stop offset="0.6851" stop-color="#EBEBEB"/>
<stop offset="1" stop-color="#F2F2F2"/>
</linearGradient>
<linearGradient id="paint8_linear_198_882" x1="-59.6237" y1="-69.0124" x2="26.5221" y2="17.1333" gradientUnits="userSpaceOnUse">
<stop stop-color="#CCCCCC"/>
<stop offset="0.241" stop-color="#D9D9D9"/>
<stop offset="0.6851" stop-color="#EBEBEB"/>
<stop offset="1" stop-color="#F2F2F2"/>
</linearGradient>
<linearGradient id="paint9_linear_198_882" x1="59.0488" y1="-101.538" x2="145.194" y2="-15.3928" gradientUnits="userSpaceOnUse">
<stop stop-color="#CCCCCC"/>
<stop offset="0.241" stop-color="#D9D9D9"/>
<stop offset="0.6851" stop-color="#EBEBEB"/>
<stop offset="1" stop-color="#F2F2F2"/>
</linearGradient>
<linearGradient id="paint10_linear_198_882" x1="26.518" y1="17.1357" x2="112.663" y2="103.281" gradientUnits="userSpaceOnUse">
<stop stop-color="#CCCCCC"/>
<stop offset="0.241" stop-color="#D9D9D9"/>
<stop offset="0.6851" stop-color="#EBEBEB"/>
<stop offset="1" stop-color="#F2F2F2"/>
</linearGradient>
<linearGradient id="paint11_linear_198_882" x1="112.663" y1="103.281" x2="198.809" y2="189.427" gradientUnits="userSpaceOnUse">
<stop stop-color="#CCCCCC"/>
<stop offset="0.241" stop-color="#D9D9D9"/>
<stop offset="0.6851" stop-color="#EBEBEB"/>
<stop offset="1" stop-color="#F2F2F2"/>
</linearGradient>
<linearGradient id="paint12_linear_198_882" x1="145.192" y1="-15.3926" x2="231.338" y2="70.7531" gradientUnits="userSpaceOnUse">
<stop stop-color="#CCCCCC"/>
<stop offset="0.241" stop-color="#D9D9D9"/>
<stop offset="0.6851" stop-color="#EBEBEB"/>
<stop offset="1" stop-color="#F2F2F2"/>
</linearGradient>
<linearGradient id="paint13_linear_198_882" x1="231.337" y1="70.7525" x2="317.483" y2="156.899" gradientUnits="userSpaceOnUse">
<stop stop-color="#CCCCCC"/>
<stop offset="0.241" stop-color="#D9D9D9"/>
<stop offset="0.6851" stop-color="#EBEBEB"/>
<stop offset="1" stop-color="#F2F2F2"/>
</linearGradient>
<linearGradient id="paint14_linear_198_882" x1="198.811" y1="189.426" x2="284.957" y2="275.571" gradientUnits="userSpaceOnUse">
<stop stop-color="#CCCCCC"/>
<stop offset="0.241" stop-color="#D9D9D9"/>
<stop offset="0.6851" stop-color="#EBEBEB"/>
<stop offset="1" stop-color="#F2F2F2"/>
</linearGradient>
<linearGradient id="paint15_linear_198_882" x1="284.958" y1="275.571" x2="371.104" y2="361.717" gradientUnits="userSpaceOnUse">
<stop stop-color="#CCCCCC"/>
<stop offset="0.241" stop-color="#D9D9D9"/>
<stop offset="0.6851" stop-color="#EBEBEB"/>
<stop offset="1" stop-color="#F2F2F2"/>
</linearGradient>
<linearGradient id="paint16_linear_198_882" x1="317.486" y1="156.898" x2="403.631" y2="243.043" gradientUnits="userSpaceOnUse">
<stop stop-color="#CCCCCC"/>
<stop offset="0.241" stop-color="#D9D9D9"/>
<stop offset="0.6851" stop-color="#EBEBEB"/>
<stop offset="1" stop-color="#F2F2F2"/>
</linearGradient>
<linearGradient id="paint17_linear_198_882" x1="403.631" y1="243.043" x2="489.776" y2="329.189" gradientUnits="userSpaceOnUse">
<stop stop-color="#CCCCCC"/>
<stop offset="0.241" stop-color="#D9D9D9"/>
<stop offset="0.6851" stop-color="#EBEBEB"/>
<stop offset="1" stop-color="#F2F2F2"/>
</linearGradient>
<linearGradient id="paint18_linear_198_882" x1="264.714" y1="-48.7652" x2="350.86" y2="37.3808" gradientUnits="userSpaceOnUse">
<stop stop-color="#CCCCCC"/>
<stop offset="0.241" stop-color="#D9D9D9"/>
<stop offset="0.6851" stop-color="#EBEBEB"/>
<stop offset="1" stop-color="#F2F2F2"/>
</linearGradient>
<linearGradient id="paint19_linear_198_882" x1="350.856" y1="37.3825" x2="437.001" y2="123.528" gradientUnits="userSpaceOnUse">
<stop stop-color="#CCCCCC"/>
<stop offset="0.241" stop-color="#D9D9D9"/>
<stop offset="0.6851" stop-color="#EBEBEB"/>
<stop offset="1" stop-color="#F2F2F2"/>
</linearGradient>
<linearGradient id="paint20_linear_198_882" x1="437.002" y1="123.526" x2="523.148" y2="209.672" gradientUnits="userSpaceOnUse">
<stop stop-color="#CCCCCC"/>
<stop offset="0.241" stop-color="#D9D9D9"/>
<stop offset="0.6851" stop-color="#EBEBEB"/>
<stop offset="1" stop-color="#F2F2F2"/>
</linearGradient>
<clipPath id="clip0_198_882">
<rect width="562" height="874" fill="white" transform="translate(-1)"/>
</clipPath>
</defs>
</svg>
