<svg width="564" height="874" viewBox="0 0 564 874" fill="none" xmlns="http://www.w3.org/2000/svg">
<g clip-path="url(#clip0_198_2252)">
<g opacity="0.2">
<path d="M605.429 174.506L691.849 88.0858L616.293 12.5303L529.873 98.95L605.429 174.506Z" fill="url(#paint0_linear_198_2252)"/>
<path d="M585.185 498.951L671.604 412.531L596.049 336.976L509.629 423.396L585.185 498.951Z" fill="url(#paint1_linear_198_2252)"/>
<path d="M638.024 293.025L724.443 207.099L648.888 131.543L562.468 217.469L638.024 293.025Z" fill="url(#paint2_linear_198_2252)"/>
<path d="M552.098 379.445L638.023 293.025L562.468 217.469L476.542 303.889L552.098 379.445Z" fill="url(#paint3_linear_198_2252)"/>
<path d="M519.505 260.432L605.431 174.506L529.875 98.9502L443.949 184.876L519.505 260.432Z" fill="url(#paint4_linear_198_2252)"/>
<path d="M433.577 346.851L519.503 260.431L443.947 184.876L357.528 271.295L433.577 346.851Z" fill="url(#paint5_linear_198_2252)"/>
<g opacity="0.8">
<path opacity="0.0192308" d="M566.906 307.84C541.721 333.025 481.968 308.827 476.536 303.395L562.462 217.469C567.894 222.901 590.61 284.136 566.906 307.84Z" fill="#FEFEFE"/>
<path opacity="0.0384615" d="M565.921 307.346C540.242 333.025 481.477 309.321 476.539 303.889L562.465 217.963C567.897 222.901 589.625 283.148 565.921 307.346Z" fill="#FDFDFD"/>
<path opacity="0.0576923" d="M565.426 306.358C539.747 332.037 481.969 308.828 476.537 303.889L562.463 217.963C567.895 222.902 589.13 282.655 565.426 306.358Z" fill="#FCFCFC"/>
<path opacity="0.0769231" d="M564.441 305.37C538.762 331.049 481.478 308.827 476.54 303.395L562.466 217.469C567.898 222.408 588.145 281.667 564.441 305.37Z" fill="#FBFBFB"/>
<path opacity="0.0961538" d="M563.453 304.877C537.774 330.556 480.983 308.827 476.045 303.889L561.971 217.963C567.403 222.408 587.65 281.173 563.453 304.877Z" fill="#FAFAFA"/>
<path opacity="0.1154" d="M562.956 303.889C537.277 329.568 481.475 308.333 476.537 303.395L562.463 217.469C567.401 222.408 586.66 280.185 562.956 303.889Z" fill="#F9F9F9"/>
<path opacity="0.1346" d="M561.968 303.396C536.289 329.075 480.981 308.828 476.042 303.89L561.968 217.964C567.4 222.408 585.672 279.198 561.968 303.396Z" fill="#F8F8F8"/>
<path opacity="0.1538" d="M561.478 302.408C535.799 328.087 481.478 308.334 476.539 303.889L562.465 217.963C567.403 222.408 585.181 278.704 561.478 302.408Z" fill="#F7F7F7"/>
<path opacity="0.1731" d="M560.487 301.42C534.808 327.099 480.981 308.333 476.537 303.395L562.463 217.469C567.401 222.408 584.191 277.716 560.487 301.42Z" fill="#F6F6F6"/>
<path opacity="0.1923" d="M559.993 300.927C534.314 326.606 481.474 308.334 476.536 303.89L562.462 217.964C567.4 222.408 583.697 277.223 559.993 300.927Z" fill="#F5F5F5"/>
<path opacity="0.2115" d="M559.01 299.938C533.331 325.617 480.985 308.333 476.541 303.395L562.467 217.469C566.911 221.914 582.714 276.235 559.01 299.938Z" fill="#F4F4F4"/>
<path opacity="0.2308" d="M558.022 299.445C532.343 325.124 480.985 308.334 476.047 303.889L561.972 217.963C566.911 221.914 582.219 275.741 558.022 299.445Z" fill="#F3F3F3"/>
<path opacity="0.25" d="M557.528 298.457C531.849 324.136 480.985 307.84 476.541 303.395L562.467 217.469C566.911 221.914 581.232 274.753 557.528 298.457Z" fill="#F2F2F2"/>
<path opacity="0.2692" d="M556.541 297.964C530.862 323.643 480.491 308.334 476.541 303.89L562.466 217.964C566.911 221.914 580.244 273.766 556.541 297.964Z" fill="#F1F1F1"/>
<path opacity="0.2885" d="M556.044 296.975C530.365 322.654 480.982 307.84 476.538 303.889L562.464 217.963C566.908 221.914 579.748 273.272 556.044 296.975Z" fill="#F0F0F0"/>
<path opacity="0.3077" d="M555.058 295.988C529.379 321.667 480.49 307.84 476.54 303.395L562.466 217.469C566.91 221.914 578.762 272.284 555.058 295.988Z" fill="#EFEFEF"/>
<path opacity="0.3269" d="M554.071 295.494C528.392 321.173 480.491 307.84 476.047 303.889L561.973 217.963C566.911 221.42 578.269 271.791 554.071 295.494Z" fill="#EEEEEE"/>
<path opacity="0.3462" d="M553.575 294.506C527.896 320.185 480.488 307.84 476.537 303.395L562.463 217.469C566.414 221.42 577.278 270.803 553.575 294.506Z" fill="#EDEDED"/>
<path opacity="0.3654" d="M552.589 294.013C526.91 319.692 480.49 307.84 476.539 303.889L562.465 217.963C566.416 221.42 576.293 269.815 552.589 294.013Z" fill="#ECECEC"/>
<path opacity="0.3846" d="M552.095 293.025C526.416 318.704 480.49 307.84 476.54 303.889L562.466 217.963C566.416 221.42 575.799 269.321 552.095 293.025Z" fill="#EBEBEB"/>
<path opacity="0.4038" d="M551.107 292.037C525.428 317.716 479.996 307.346 476.539 303.395L562.465 217.469C566.415 221.42 574.81 268.333 551.107 292.037Z" fill="#EAEAEA"/>
<path opacity="0.4231" d="M550.121 291.544C524.441 317.223 479.997 307.347 476.046 303.89L561.972 217.964C566.417 221.421 574.318 267.84 550.121 291.544Z" fill="#E9E9E9"/>
<path opacity="0.4423" d="M549.625 290.556C523.946 316.235 479.996 307.346 476.539 303.395L562.465 217.469C566.415 221.42 573.329 266.852 549.625 290.556Z" fill="#E8E8E8"/>
<path opacity="0.4615" d="M548.638 290.062C522.959 315.741 479.996 307.346 476.539 303.889L562.465 217.963C566.415 220.926 572.341 265.864 548.638 290.062Z" fill="#E7E7E7"/>
<path opacity="0.4808" d="M548.144 289.074C522.465 314.753 479.996 307.346 476.539 303.889L562.465 217.963C565.922 220.926 571.847 265.371 548.144 289.074Z" fill="#E6E6E6"/>
<path opacity="0.5" d="M547.156 288.086C521.477 313.766 479.996 306.852 476.539 303.395L562.465 217.469C565.922 220.926 570.86 264.383 547.156 288.086Z" fill="#E6E6E6"/>
<path opacity="0.5192" d="M546.662 287.593C520.489 313.766 479.995 307.346 476.539 303.889L562.465 217.963C565.921 220.926 570.366 263.889 546.662 287.593Z" fill="#E5E5E5"/>
<path opacity="0.5385" d="M545.674 286.605C519.501 312.778 479.995 306.852 476.538 303.395L562.464 217.469C565.921 220.926 569.378 262.901 545.674 286.605Z" fill="#E4E4E4"/>
<path opacity="0.5577" d="M544.686 286.112C518.513 312.284 479.5 306.852 476.044 303.889L561.97 217.963C565.92 220.926 568.389 261.914 544.686 286.112Z" fill="#E3E3E3"/>
<path opacity="0.5769" d="M544.193 285.124C518.02 311.296 479.502 306.852 476.539 303.395L562.465 217.469C565.921 220.926 567.897 261.42 544.193 285.124Z" fill="#E2E2E2"/>
<path opacity="0.5962" d="M543.206 284.136C517.033 310.309 479.502 306.358 476.539 303.395L562.465 217.469C565.428 220.432 566.909 260.432 543.206 284.136Z" fill="#E1E1E1"/>
<path opacity="0.6154" d="M542.712 283.642C516.539 309.815 479.502 306.852 476.539 303.889L562.465 217.963C565.428 220.432 566.416 259.938 542.712 283.642Z" fill="#E0E0E0"/>
<path opacity="0.6346" d="M541.724 282.654C515.551 308.827 479.502 306.358 476.539 303.395L562.465 217.469C565.428 220.432 565.428 258.951 541.724 282.654Z" fill="#DFDFDF"/>
<path opacity="0.6538" d="M540.734 282.161C514.561 308.334 479.005 306.852 476.042 303.889L561.968 217.963C565.425 220.433 564.931 258.457 540.734 282.161Z" fill="#DEDEDE"/>
<path opacity="0.6731" d="M540.244 281.173C514.071 307.346 479.503 306.358 476.54 303.395L562.466 217.469C565.429 220.432 563.947 257.469 540.244 281.173Z" fill="#DDDDDD"/>
<path opacity="0.6923" d="M539.252 280.68C513.079 306.852 479.005 306.852 476.536 303.89L562.462 217.964C565.425 220.433 562.956 256.482 539.252 280.68Z" fill="#DCDCDC"/>
<path opacity="0.7115" d="M538.759 279.692C512.586 305.865 479.006 306.359 476.537 303.89L562.463 217.964C565.426 219.939 562.463 255.989 538.759 279.692Z" fill="#DBDBDB"/>
<path opacity="0.7308" d="M537.773 278.704C511.6 304.877 479.008 305.864 476.538 303.395L562.464 217.469C564.934 219.938 561.477 255 537.773 278.704Z" fill="#DADADA"/>
<path opacity="0.75" d="M536.788 278.211C510.615 304.384 478.516 306.359 476.047 303.89L561.973 217.964C564.936 219.939 560.985 254.507 536.788 278.211Z" fill="#D9D9D9"/>
<path opacity="0.7692" d="M536.293 277.222C510.121 303.395 479.01 305.864 476.54 303.395L562.466 217.469C564.935 219.938 559.997 253.519 536.293 277.222Z" fill="#D8D8D8"/>
<path opacity="0.7885" d="M535.304 276.729C509.131 302.901 478.514 306.358 476.539 303.889L562.464 217.963C564.934 219.938 559.008 252.531 535.304 276.729Z" fill="#D7D7D7"/>
<path opacity="0.8077" d="M534.811 275.741C508.638 301.914 479.008 305.864 476.539 303.889L562.465 217.963C564.934 219.938 558.515 252.037 534.811 275.741Z" fill="#D6D6D6"/>
<path opacity="0.8269" d="M533.821 274.753C507.648 300.926 478.512 305.864 476.537 303.395L562.463 217.469C564.932 219.938 557.525 251.049 533.821 274.753Z" fill="#D5D5D5"/>
<path opacity="0.8462" d="M532.835 274.259C506.662 300.432 478.514 305.864 476.045 303.889L561.971 217.963C564.44 219.445 557.032 250.556 532.835 274.259Z" fill="#D4D4D4"/>
<path opacity="0.8654" d="M532.34 273.272C506.167 299.445 478.513 305.37 476.537 303.395L562.463 217.469C564.438 219.445 556.043 249.568 532.34 273.272Z" fill="#D3D3D3"/>
<path opacity="0.8846" d="M531.354 272.778C505.181 298.951 478.021 305.865 476.045 303.889L561.971 217.963C564.441 219.445 555.058 248.581 531.354 272.778Z" fill="#D2D2D2"/>
<path opacity="0.9038" d="M530.861 271.791C504.688 297.963 478.516 305.371 476.54 303.889L562.466 217.963C564.441 219.445 554.565 248.087 530.861 271.791Z" fill="#D1D1D1"/>
<path opacity="0.9231" d="M529.872 270.803C503.699 296.975 478.02 305.37 476.539 303.395L562.464 217.469C564.44 219.445 553.576 247.099 529.872 270.803Z" fill="#D0D0D0"/>
<path opacity="0.9423" d="M529.376 270.31C503.203 296.482 478.512 305.371 476.537 303.89L562.463 217.964C564.438 219.445 553.08 246.606 529.376 270.31Z" fill="#CFCFCF"/>
<path opacity="0.9615" d="M528.389 269.321C502.216 295.494 478.018 305.37 476.537 303.395L562.463 217.469C564.438 218.951 552.092 245.617 528.389 269.321Z" fill="#CECECE"/>
<path opacity="0.9808" d="M527.403 268.827C501.23 295 478.02 305.371 476.045 303.889L561.971 217.963C563.946 218.951 551.6 245.124 527.403 268.827Z" fill="#CDCDCD"/>
<path d="M526.908 267.84C500.241 294.506 478.019 305.37 476.538 303.395L562.464 217.469C563.945 218.951 550.612 244.136 526.908 267.84Z" fill="#CCCCCC"/>
</g>
<path d="M564.443 822.408L650.369 736.482L574.814 660.433L488.888 746.853L564.443 822.408Z" fill="url(#paint6_linear_198_2252)"/>
<path d="M617.776 617.47L704.195 531.544L628.64 455.494L542.22 541.914L617.776 617.47Z" fill="url(#paint7_linear_198_2252)"/>
<path d="M531.849 703.396L617.775 617.47L542.22 541.914L456.294 627.84L531.849 703.396Z" fill="url(#paint8_linear_198_2252)"/>
<path d="M572.345 54.9985L658.271 -31.4213L582.715 -106.977L496.789 -20.5571L572.345 54.9985Z" fill="url(#paint9_linear_198_2252)"/>
<path d="M453.827 22.4074L539.753 -63.5185L464.197 -139.568L377.778 -53.1481L453.827 22.4074Z" fill="url(#paint10_linear_198_2252)"/>
<g opacity="0.8">
<path opacity="0.0192308" d="M587.162 -16.6042C561.977 8.58094 502.224 -15.6166 496.792 -21.0487L582.718 -106.975C588.15 -101.543 610.866 -40.3079 587.162 -16.6042Z" fill="#FEFEFE"/>
<path opacity="0.0384615" d="M586.177 -17.0981C560.498 8.58096 501.733 -15.1228 496.795 -20.5549L582.72 -106.975C588.153 -101.543 609.881 -40.8018 586.177 -17.0981Z" fill="#FDFDFD"/>
<path opacity="0.0576923" d="M585.682 -18.0857C560.003 7.59327 502.225 -15.6166 496.793 -20.5549L582.719 -106.975C588.151 -101.543 609.385 -41.7894 585.682 -18.0857Z" fill="#FCFCFC"/>
<path opacity="0.0769231" d="M584.691 -18.5805C559.012 7.09847 501.728 -15.1238 496.79 -20.5559L582.716 -106.976C588.148 -101.543 608.395 -42.7781 584.691 -18.5805Z" fill="#FBFBFB"/>
<path opacity="0.0961538" d="M583.704 -19.567C558.025 6.11205 501.235 -15.6164 496.297 -20.5546L582.717 -106.974C587.655 -101.542 607.902 -43.2707 583.704 -19.567Z" fill="#FAFAFA"/>
<path opacity="0.1154" d="M583.212 -20.5546C557.533 5.12438 501.731 -16.1102 496.793 -21.0485L582.718 -106.974C587.657 -102.036 606.916 -44.2583 583.212 -20.5546Z" fill="#F9F9F9"/>
<path opacity="0.1346" d="M582.223 -21.0497C556.544 4.62934 501.235 -15.6176 496.297 -20.5559L582.716 -106.976C587.655 -102.037 605.926 -44.7534 582.223 -21.0497Z" fill="#F8F8F8"/>
<path opacity="0.1538" d="M581.731 -22.0361C556.052 3.64292 501.732 -16.1102 496.793 -20.5546L582.719 -106.974C587.657 -102.036 605.435 -45.7398 581.731 -22.0361Z" fill="#F7F7F7"/>
<path opacity="0.1731" d="M580.742 -22.5299C555.063 3.1491 501.236 -15.6164 496.792 -20.5546L582.717 -106.974C587.656 -102.036 604.446 -46.2336 580.742 -22.5299Z" fill="#F6F6F6"/>
<path opacity="0.1923" d="M580.249 -23.5178C554.57 2.16119 501.73 -16.1104 496.792 -20.5549L582.718 -106.975C587.656 -102.036 603.952 -47.2215 580.249 -23.5178Z" fill="#F5F5F5"/>
<path opacity="0.2115" d="M579.259 -24.5064C553.58 1.17256 501.234 -16.1114 496.79 -21.0497L582.716 -106.976C587.16 -102.037 602.963 -48.2102 579.259 -24.5064Z" fill="#F4F4F4"/>
<path opacity="0.2308" d="M578.275 -24.999C552.596 0.679977 501.238 -16.1102 496.3 -20.5546L582.72 -106.974C587.164 -102.53 602.473 -48.7027 578.275 -24.999Z" fill="#F3F3F3"/>
</g>
<path d="M485.929 140.927L572.349 55.0009L496.793 -20.5547L410.373 65.3712L485.929 140.927Z" fill="url(#paint11_linear_198_2252)"/>
<path d="M400.003 227.347L485.929 140.927L410.373 65.3713L324.447 151.791L400.003 227.347Z" fill="url(#paint12_linear_198_2252)"/>
<g opacity="0.8">
<path opacity="0.0192308" d="M533.338 188.334C508.153 213.519 448.4 189.322 442.968 183.89L528.894 97.9639C534.326 103.396 557.042 164.631 533.338 188.334Z" fill="#FEFEFE"/>
<path opacity="0.0384615" d="M532.841 187.841C507.162 213.52 448.396 189.817 443.458 184.385L529.384 98.4587C534.322 103.397 556.544 163.644 532.841 187.841Z" fill="#FDFDFD"/>
<path opacity="0.0576923" d="M531.853 186.854C506.174 212.533 448.396 189.323 442.964 184.385L528.89 98.4587C534.322 103.397 555.556 163.15 531.853 186.854Z" fill="#FCFCFC"/>
<path opacity="0.0769231" d="M530.867 185.865C505.188 211.544 447.904 189.322 442.965 183.89L528.891 97.9639C534.323 102.902 555.064 162.161 530.867 185.865Z" fill="#FBFBFB"/>
<path opacity="0.0961538" d="M530.372 185.372C504.693 211.051 447.903 189.322 442.965 184.384L528.891 98.458C534.323 102.902 554.076 161.668 530.372 185.372Z" fill="#FAFAFA"/>
<path opacity="0.1154" d="M529.387 184.384C503.708 210.063 447.906 188.828 442.967 183.89L528.893 97.9639C534.325 102.902 553.091 160.68 529.387 184.384Z" fill="#F9F9F9"/>
<path opacity="0.1346" d="M528.891 183.89C503.212 209.569 447.903 189.322 442.965 184.384L528.891 98.458C534.323 102.902 552.595 159.693 528.891 183.89Z" fill="#F8F8F8"/>
<path opacity="0.1538" d="M527.904 182.902C502.225 208.581 447.904 188.828 442.966 184.384L528.892 98.458C533.83 102.902 551.608 159.199 527.904 182.902Z" fill="#F7F7F7"/>
<path opacity="0.1731" d="M527.408 181.914C501.729 207.593 447.902 188.828 443.457 183.89L529.383 97.9639C533.828 102.902 551.112 158.211 527.408 181.914Z" fill="#F6F6F6"/>
<path opacity="0.1923" d="M526.421 181.421C500.742 207.1 447.902 188.829 442.964 184.384L528.89 98.4585C533.828 102.903 550.124 157.718 526.421 181.421Z" fill="#F5F5F5"/>
<path opacity="0.2115" d="M525.436 180.433C499.757 206.112 447.411 188.828 442.966 183.89L528.892 97.9639C533.831 102.408 549.633 156.729 525.436 180.433Z" fill="#F4F4F4"/>
<path opacity="0.2308" d="M524.943 179.94C499.264 205.619 447.906 188.829 442.968 184.385L528.894 98.4587C533.832 102.409 548.647 155.743 524.943 179.94Z" fill="#F3F3F3"/>
<path opacity="0.25" d="M523.952 178.952C498.273 204.631 447.409 188.334 442.965 183.89L528.891 97.9639C533.829 102.408 547.656 155.248 523.952 178.952Z" fill="#F2F2F2"/>
<path opacity="0.2692" d="M523.459 177.964C497.78 203.643 447.41 188.334 443.459 183.89L529.385 97.9639C533.336 102.408 547.163 154.26 523.459 177.964Z" fill="#F1F1F1"/>
<path opacity="0.2885" d="M522.471 177.47C496.792 203.149 447.409 188.335 442.965 184.384L528.891 98.458C533.335 102.409 546.175 153.767 522.471 177.47Z" fill="#F0F0F0"/>
<path opacity="0.3077" d="M521.484 176.482C495.805 202.161 446.916 188.334 442.965 183.89L528.891 97.9639C533.336 102.408 545.681 152.779 521.484 176.482Z" fill="#EFEFEF"/>
<path opacity="0.3269" d="M520.988 175.99C495.309 201.669 447.408 188.335 442.964 184.385L528.89 98.4587C533.334 101.916 544.692 152.286 520.988 175.99Z" fill="#EEEEEE"/>
<path opacity="0.3462" d="M520.004 175.001C494.325 200.68 446.918 188.334 442.967 183.89L528.893 97.9639C533.338 101.914 543.708 151.297 520.004 175.001Z" fill="#EDEDED"/>
<path opacity="0.3654" d="M519.51 174.508C493.831 200.187 447.411 188.335 443.46 184.385L529.386 98.4587C533.337 101.916 543.213 150.311 519.51 174.508Z" fill="#ECECEC"/>
<path opacity="0.3846" d="M518.52 173.52C492.841 199.199 446.915 188.335 442.965 184.384L528.891 98.458C533.335 101.915 542.224 149.816 518.52 173.52Z" fill="#EBEBEB"/>
<path opacity="0.4038" d="M517.532 172.532C491.853 198.211 446.421 187.84 442.964 183.89L528.89 97.9639C532.84 101.914 541.729 148.828 517.532 172.532Z" fill="#EAEAEA"/>
<path opacity="0.4231" d="M517.041 172.039C491.362 197.718 446.917 187.841 442.967 184.384L528.893 98.4585C532.843 101.915 540.744 148.335 517.041 172.039Z" fill="#E9E9E9"/>
<path opacity="0.4423" d="M516.052 171.05C490.373 196.729 446.422 187.84 442.965 183.89L528.891 97.9639C532.842 101.914 539.756 147.347 516.052 171.05Z" fill="#E8E8E8"/>
<path opacity="0.4615" d="M515.556 170.557C489.877 196.236 446.914 187.841 443.457 184.384L529.383 98.4585C532.84 101.421 539.26 146.36 515.556 170.557Z" fill="#E7E7E7"/>
<path opacity="0.4808" d="M514.569 169.569C488.89 195.248 446.421 187.841 442.965 184.384L528.891 98.458C532.841 101.421 538.273 145.865 514.569 169.569Z" fill="#E6E6E6"/>
<path opacity="0.5" d="M514.079 168.581C488.4 194.26 446.919 187.347 443.462 183.89L529.388 97.9639C532.844 101.421 537.783 144.877 514.079 168.581Z" fill="#E6E6E6"/>
<path opacity="0.5192" d="M513.089 168.088C486.916 194.26 446.422 187.841 442.965 184.384L528.891 98.458C532.348 101.421 536.792 144.384 513.089 168.088Z" fill="#E5E5E5"/>
<path opacity="0.5385" d="M512.101 167.1C485.928 193.273 446.422 187.347 442.965 183.89L528.891 97.9639C532.347 101.421 536.298 143.396 512.101 167.1Z" fill="#E4E4E4"/>
<path opacity="0.5577" d="M511.605 166.607C485.432 192.779 446.42 187.347 442.963 184.384L528.889 98.4585C532.346 101.421 535.309 142.409 511.605 166.607Z" fill="#E3E3E3"/>
<path opacity="0.5769" d="M510.62 165.618C484.447 191.791 445.928 187.347 442.965 183.89L528.891 97.9639C532.348 100.927 534.323 141.915 510.62 165.618Z" fill="#E2E2E2"/>
<path opacity="0.5962" d="M510.128 164.631C483.956 190.803 446.425 186.853 443.462 183.89L529.388 97.9639C532.351 100.927 533.832 140.927 510.128 164.631Z" fill="#E1E1E1"/>
<path opacity="0.6154" d="M509.139 164.137C482.966 190.31 445.929 187.347 442.966 184.384L528.892 98.458C532.348 100.927 532.842 140.433 509.139 164.137Z" fill="#E0E0E0"/>
<path opacity="0.6346" d="M508.15 163.149C481.977 189.322 445.928 186.853 442.965 183.89L528.891 97.9639C532.348 100.927 532.348 139.445 508.15 163.149Z" fill="#DFDFDF"/>
<path opacity="0.6538" d="M507.657 162.656C481.484 188.828 445.929 187.347 442.966 184.384L528.892 98.458C531.855 100.927 531.361 138.952 507.657 162.656Z" fill="#DEDEDE"/>
<path opacity="0.6731" d="M506.672 161.668C480.499 187.84 445.931 186.853 442.968 183.89L528.894 97.9639C531.857 100.927 530.375 137.964 506.672 161.668Z" fill="#DDDDDD"/>
<path opacity="0.6923" d="M506.176 161.174C480.003 187.347 445.929 187.347 443.46 184.384L529.385 98.458C531.855 100.927 529.879 136.977 506.176 161.174Z" fill="#DCDCDC"/>
<path opacity="0.7115" d="M505.185 160.187C479.012 186.36 445.432 186.854 442.963 184.385L528.889 98.4587C531.852 100.434 528.889 136.483 505.185 160.187Z" fill="#DBDBDB"/>
<path opacity="0.7308" d="M504.202 159.198C478.029 185.371 445.437 186.359 442.968 183.89L528.894 97.9639C531.857 100.433 528.4 135.495 504.202 159.198Z" fill="#DADADA"/>
<path opacity="0.75" d="M503.705 158.705C477.533 184.878 445.434 186.853 442.965 184.384L528.891 98.458C531.854 100.433 527.409 135.001 503.705 158.705Z" fill="#D9D9D9"/>
<path opacity="0.7692" d="M502.72 157.717C476.547 183.89 445.436 186.359 442.967 183.89L528.893 97.9639C531.856 100.433 526.424 134.013 502.72 157.717Z" fill="#D8D8D8"/>
<path opacity="0.7885" d="M502.222 157.224C476.049 183.397 445.432 186.854 443.457 184.385L529.382 98.4587C531.358 100.434 525.926 133.027 502.222 157.224Z" fill="#D7D7D7"/>
<path opacity="0.8077" d="M501.237 156.236C475.064 182.409 445.434 186.359 442.965 184.384L528.891 98.458C531.36 100.433 524.94 132.532 501.237 156.236Z" fill="#D6D6D6"/>
<path opacity="0.8269" d="M500.741 155.248C474.568 181.421 445.432 186.359 443.457 183.89L529.383 97.9639C531.358 100.433 524.445 131.544 500.741 155.248Z" fill="#D5D5D5"/>
<path opacity="0.8462" d="M499.753 154.755C473.58 180.928 445.432 186.36 442.963 184.385L528.889 98.4587C531.358 99.9402 523.457 131.051 499.753 154.755Z" fill="#D4D4D4"/>
<path opacity="0.8654" d="M498.765 153.766C472.593 179.939 444.938 185.865 442.963 183.89L528.889 97.9639C531.358 99.9392 522.469 130.063 498.765 153.766Z" fill="#D3D3D3"/>
<path opacity="0.8846" d="M498.274 153.273C472.101 179.446 444.941 186.359 442.965 184.384L528.891 98.458C531.36 99.9395 521.978 129.075 498.274 153.273Z" fill="#D2D2D2"/>
<path opacity="0.9038" d="M497.287 152.285C471.114 178.458 444.941 185.865 442.966 184.384L528.892 98.458C530.867 99.9395 520.991 128.581 497.287 152.285Z" fill="#D1D1D1"/>
<path opacity="0.9231" d="M496.793 151.297C470.62 177.47 444.941 185.865 443.46 183.89L529.386 97.9639C530.867 99.9392 520.497 127.594 496.793 151.297Z" fill="#D0D0D0"/>
<path opacity="0.9423" d="M495.803 150.804C469.63 176.977 444.939 185.866 442.964 184.385L528.889 98.4587C530.865 99.9402 519.507 127.101 495.803 150.804Z" fill="#CFCFCF"/>
<path opacity="0.9615" d="M494.817 149.816C468.644 175.989 444.447 185.865 442.965 183.89L528.891 97.9639C530.867 99.4453 519.015 126.112 494.817 149.816Z" fill="#CECECE"/>
<path opacity="0.9808" d="M494.324 149.322C468.151 175.495 444.941 185.865 442.966 184.384L528.892 98.458C530.867 99.4457 518.028 125.618 494.324 149.322Z" fill="#CDCDCD"/>
<path d="M493.338 148.334C466.671 175.001 444.449 185.865 442.967 183.89L528.893 97.9639C530.869 99.4453 517.042 124.631 493.338 148.334Z" fill="#CCCCCC"/>
</g>
<path d="M367.409 108.334L453.829 22.4076L377.78 -53.1479L291.854 32.778L367.409 108.334Z" fill="url(#paint13_linear_198_2252)"/>
<path d="M281.483 194.753L367.409 108.334L291.854 32.7781L205.928 119.198L281.483 194.753Z" fill="url(#paint14_linear_198_2252)"/>
<g opacity="0.8">
<path opacity="0.0192308" d="M414.814 155.741C389.628 180.926 329.875 156.729 324.443 151.297L410.369 65.3706C415.801 70.8027 438.517 132.037 414.814 155.741Z" fill="#FEFEFE"/>
<path opacity="0.0384615" d="M413.826 155.248C388.147 180.927 329.381 157.223 324.443 151.791L410.369 65.865C415.801 70.8033 438.023 131.544 413.826 155.248Z" fill="#FDFDFD"/>
<path opacity="0.0576923" d="M413.333 154.26C387.654 179.939 329.876 156.729 324.444 151.791L410.37 65.8652C415.802 70.8035 437.037 130.557 413.333 154.26Z" fill="#FCFCFC"/>
<path opacity="0.0769231" d="M412.343 153.766C386.664 179.446 329.38 157.223 324.442 151.791L410.368 65.8652C415.8 70.8035 436.047 129.569 412.343 153.766Z" fill="#FBFBFB"/>
<path opacity="0.0961538" d="M411.854 152.778C386.175 178.457 329.385 156.729 324.447 151.79L410.372 65.8645C415.805 70.3089 435.558 129.074 411.854 152.778Z" fill="#FAFAFA"/>
<path opacity="0.1154" d="M410.864 151.79C385.185 177.469 329.382 156.235 324.444 151.297L410.37 65.3706C415.308 70.3089 434.567 128.087 410.864 151.79Z" fill="#F9F9F9"/>
<path opacity="0.1346" d="M409.876 151.297C384.197 176.976 328.888 156.729 323.95 151.791L409.876 65.8652C415.308 70.3097 434.074 127.594 409.876 151.297Z" fill="#F8F8F8"/>
<path opacity="0.1538" d="M409.384 150.309C383.705 175.988 329.384 156.235 324.446 151.79L410.372 65.8643C415.31 70.3087 433.088 126.605 409.384 150.309Z" fill="#F7F7F7"/>
<path opacity="0.1731" d="M408.395 149.816C382.715 175.495 328.888 156.729 324.444 151.791L410.37 65.8652C415.308 70.3097 432.098 125.618 408.395 149.816Z" fill="#F6F6F6"/>
<path opacity="0.1923" d="M407.902 148.828C382.223 174.507 329.383 156.236 324.445 151.791L410.371 65.8652C415.309 70.3097 431.606 125.125 407.902 148.828Z" fill="#F5F5F5"/>
<path opacity="0.2115" d="M406.916 147.84C381.237 173.519 328.891 156.235 324.446 151.297L410.372 65.3706C415.311 70.3089 430.619 124.136 406.916 147.84Z" fill="#F4F4F4"/>
<path opacity="0.2308" d="M405.924 147.346C380.245 173.025 328.887 156.235 323.949 151.791L409.875 65.865C414.813 69.8156 430.122 123.643 405.924 147.346Z" fill="#F3F3F3"/>
<path opacity="0.25" d="M405.431 146.358C379.752 172.037 328.888 155.741 324.443 151.297L410.369 65.3706C414.813 69.815 429.134 122.655 405.431 146.358Z" fill="#F2F2F2"/>
<path opacity="0.2692" d="M404.448 145.865C378.769 171.544 328.398 156.236 324.448 151.791L410.374 65.8652C414.818 69.8159 428.151 121.668 404.448 145.865Z" fill="#F1F1F1"/>
<path opacity="0.2885" d="M403.952 144.877C378.273 170.556 328.891 155.741 324.446 151.791L410.372 65.8647C414.817 69.8154 427.656 121.173 403.952 144.877Z" fill="#F0F0F0"/>
<path opacity="0.3077" d="M402.965 143.889C377.286 169.568 328.398 155.741 324.447 151.297L410.373 65.3706C414.817 69.815 426.669 120.185 402.965 143.889Z" fill="#EFEFEF"/>
<path opacity="0.3269" d="M402.469 143.396C376.79 169.075 328.889 155.742 324.444 151.791L410.37 65.865C414.815 69.8156 426.173 119.692 402.469 143.396Z" fill="#EEEEEE"/>
<path opacity="0.3462" d="M401.48 142.408C375.801 168.087 328.394 155.741 324.443 151.297L410.369 65.3706C414.813 69.3212 425.184 118.704 401.48 142.408Z" fill="#EDEDED"/>
<path opacity="0.3654" d="M400.496 141.914C374.817 167.593 328.397 155.741 324.446 151.791L410.372 65.8647C414.323 69.3215 424.693 117.717 400.496 141.914Z" fill="#ECECEC"/>
<path opacity="0.3846" d="M399.998 140.927C374.319 166.606 328.393 155.741 324.442 151.791L410.368 65.8647C414.319 69.3215 423.701 117.223 399.998 140.927Z" fill="#EBEBEB"/>
<path opacity="0.4038" d="M399.014 139.938C373.335 165.618 327.903 155.247 324.446 151.297L410.372 65.3706C414.323 69.3212 422.718 116.235 399.014 139.938Z" fill="#EAEAEA"/>
<path opacity="0.4231" d="M398.522 139.445C372.843 165.124 328.399 155.248 324.448 151.791L410.374 65.8652C414.325 69.322 422.226 115.742 398.522 139.445Z" fill="#E9E9E9"/>
<path opacity="0.4423" d="M397.532 138.457C371.853 164.136 327.903 155.247 324.446 151.297L410.372 65.3706C414.322 69.3212 421.236 114.753 397.532 138.457Z" fill="#E8E8E8"/>
<path opacity="0.4615" d="M396.544 137.963C370.865 163.642 327.902 155.247 324.446 151.79L410.372 65.8645C414.322 69.3213 420.742 114.26 396.544 137.963Z" fill="#E7E7E7"/>
<path opacity="0.4808" d="M396.051 136.976C370.372 162.655 327.903 155.247 324.446 151.79L410.372 65.8645C413.829 68.8275 419.755 113.272 396.051 136.976Z" fill="#E6E6E6"/>
<path opacity="0.5" d="M395.063 136.482C369.384 162.161 327.903 155.247 324.446 151.79L410.372 65.8645C413.829 68.8275 418.767 112.284 395.063 136.482Z" fill="#E6E6E6"/>
<path opacity="0.5192" d="M394.569 135.494C368.396 161.667 327.903 155.247 324.446 151.79L410.372 65.8643C413.829 68.8272 418.273 111.79 394.569 135.494Z" fill="#E5E5E5"/>
<path opacity="0.5385" d="M393.58 134.506C367.407 160.679 327.901 154.753 324.445 151.297L410.37 65.3706C413.827 68.8274 417.284 110.803 393.58 134.506Z" fill="#E4E4E4"/>
<path opacity="0.5577" d="M392.591 134.013C366.418 160.186 327.406 154.754 323.949 151.791L409.875 65.865C413.825 68.828 416.788 110.309 392.591 134.013Z" fill="#E3E3E3"/>
<path opacity="0.5769" d="M392.1 133.025C365.927 159.198 327.409 154.753 324.446 151.297L410.372 65.3706C413.829 68.8274 415.804 109.321 392.1 133.025Z" fill="#E2E2E2"/>
<path opacity="0.5962" d="M391.111 132.531C364.938 158.704 327.407 154.754 324.444 151.791L410.37 65.8647C413.827 68.3339 414.815 108.334 391.111 132.531Z" fill="#E1E1E1"/>
<path opacity="0.6154" d="M390.618 131.544C364.445 157.717 327.408 154.754 324.445 151.791L410.371 65.8652C413.334 68.3344 414.322 107.841 390.618 131.544Z" fill="#E0E0E0"/>
<path opacity="0.6346" d="M389.631 130.556C363.458 156.729 327.409 154.259 324.446 151.297L410.372 65.3706C413.335 68.3336 413.335 106.852 389.631 130.556Z" fill="#DFDFDF"/>
<path opacity="0.6538" d="M388.641 130.063C362.468 156.236 326.913 154.754 323.95 151.791L409.876 65.8652C413.332 68.3344 412.838 106.359 388.641 130.063Z" fill="#DEDEDE"/>
<path opacity="0.6731" d="M388.147 129.074C361.974 155.247 327.406 154.259 324.443 151.297L410.369 65.3706C413.332 68.3336 411.851 105.371 388.147 129.074Z" fill="#DDDDDD"/>
<path opacity="0.6923" d="M387.159 128.581C360.987 154.754 326.913 154.754 324.443 151.791L410.369 65.865C413.332 68.3341 410.863 104.384 387.159 128.581Z" fill="#DCDCDC"/>
<path opacity="0.7115" d="M386.666 127.593C360.494 153.766 326.913 154.26 324.444 151.791L410.37 65.8647C413.333 68.3339 410.37 103.889 386.666 127.593Z" fill="#DBDBDB"/>
<path opacity="0.7308" d="M385.681 126.605C359.508 152.778 326.915 153.766 324.446 151.297L410.372 65.3706C413.335 67.8397 409.385 102.901 385.681 126.605Z" fill="#DADADA"/>
<path opacity="0.75" d="M385.187 126.111C359.014 152.284 326.915 154.26 324.446 151.79L410.372 65.8645C412.841 67.8398 408.89 102.408 385.187 126.111Z" fill="#D9D9D9"/>
<path opacity="0.7692" d="M384.197 125.124C358.024 151.297 326.913 153.766 324.444 151.297L410.37 65.3706C412.839 67.8397 407.9 101.42 384.197 125.124Z" fill="#D8D8D8"/>
<path opacity="0.7885" d="M383.21 124.63C357.037 150.803 326.42 154.26 324.444 151.791L410.37 65.865C412.839 67.8403 407.407 100.927 383.21 124.63Z" fill="#D7D7D7"/>
<path opacity="0.8077" d="M382.718 123.642C356.545 149.815 326.916 153.765 324.446 151.79L410.372 65.8643C412.841 67.8396 406.422 99.9384 382.718 123.642Z" fill="#D6D6D6"/>
<path opacity="0.8269" d="M381.728 123.149C355.555 149.322 326.419 154.26 324.444 151.791L410.37 65.865C412.839 67.8403 405.432 98.9514 381.728 123.149Z" fill="#D5D5D5"/>
<path opacity="0.8462" d="M381.234 122.162C355.061 148.334 326.913 153.766 324.444 151.791L410.37 65.8652C412.839 67.3467 404.937 98.4578 381.234 122.162Z" fill="#D4D4D4"/>
<path opacity="0.8654" d="M380.246 121.173C354.073 147.346 326.419 153.272 324.443 151.297L410.369 65.3706C412.345 67.3459 403.95 97.4694 380.246 121.173Z" fill="#D3D3D3"/>
<path opacity="0.8846" d="M379.26 120.679C353.088 146.852 325.927 153.766 323.952 151.79L409.878 65.8645C412.347 67.346 403.458 96.9756 379.26 120.679Z" fill="#D2D2D2"/>
<path opacity="0.9038" d="M378.767 119.691C352.595 145.864 326.422 153.272 324.446 151.79L410.372 65.8643C412.348 67.3457 402.471 95.9877 378.767 119.691Z" fill="#D1D1D1"/>
<path opacity="0.9231" d="M377.779 119.198C351.606 145.37 325.927 153.766 324.446 151.79L410.372 65.8643C412.347 67.3457 401.483 95.0001 377.779 119.198Z" fill="#D0D0D0"/>
<path opacity="0.9423" d="M377.283 118.211C351.111 144.384 326.419 153.273 324.444 151.791L410.37 65.8652C412.345 67.3467 400.987 94.5072 377.283 118.211Z" fill="#CFCFCF"/>
<path opacity="0.9615" d="M376.296 117.222C350.123 143.395 325.925 153.272 324.444 151.297L410.37 65.3706C412.345 67.3459 399.999 93.5188 376.296 117.222Z" fill="#CECECE"/>
<path opacity="0.9808" d="M375.311 116.729C349.138 142.902 325.928 153.272 323.953 151.791L409.879 65.8647C412.348 66.8524 399.509 93.0253 375.311 116.729Z" fill="#CDCDCD"/>
<path d="M374.817 115.741C348.15 142.408 325.928 153.272 324.447 151.297L410.373 65.3706C411.854 66.8521 398.521 92.0373 374.817 115.741Z" fill="#CCCCCC"/>
</g>
<path d="M314.075 313.272L400.001 227.346L324.445 151.79L238.026 237.716L314.075 313.272Z" fill="url(#paint15_linear_198_2252)"/>
<path d="M227.653 399.691L314.073 313.272L238.024 237.716L152.098 324.136L227.653 399.691Z" fill="url(#paint16_linear_198_2252)"/>
<g opacity="0.8">
<path opacity="0.0192308" d="M360.99 360.68C335.805 385.865 276.052 361.667 270.62 356.235L356.546 270.309C362.472 275.741 385.188 336.976 360.99 360.68Z" fill="#FEFEFE"/>
<path opacity="0.0384615" d="M360.493 359.692C334.814 385.371 276.048 361.667 271.11 356.235L357.036 270.309C361.974 275.741 384.197 335.988 360.493 359.692Z" fill="#FDFDFD"/>
<path opacity="0.0576923" d="M359.505 359.199C333.826 384.878 276.048 361.668 270.616 356.729L356.542 270.803C361.974 275.248 383.209 335.495 359.505 359.199Z" fill="#FCFCFC"/>
<path opacity="0.0769231" d="M359.015 358.211C333.336 383.89 276.052 361.668 271.113 356.236L357.039 270.31C361.978 275.248 382.718 334.507 359.015 358.211Z" fill="#FBFBFB"/>
<path opacity="0.0961538" d="M358.025 357.716C332.346 383.395 275.556 361.667 270.617 356.729L356.543 270.803C361.975 275.247 381.729 334.013 358.025 357.716Z" fill="#FAFAFA"/>
<path opacity="0.1154" d="M357.039 356.729C331.36 382.408 275.557 361.174 270.619 356.236L356.545 270.31C361.977 275.248 381.236 333.026 357.039 356.729Z" fill="#F9F9F9"/>
<path opacity="0.1346" d="M356.543 355.741C330.864 381.42 275.556 361.173 270.618 356.235L356.543 270.309C361.976 275.247 380.247 332.037 356.543 355.741Z" fill="#F8F8F8"/>
<path opacity="0.1538" d="M355.557 355.247C329.878 380.926 275.557 361.173 270.618 356.729L356.544 270.803C361.483 275.247 379.26 331.544 355.557 355.247Z" fill="#F7F7F7"/>
<path opacity="0.1731" d="M355.06 354.26C329.381 379.939 275.554 361.174 271.11 356.236L357.036 270.31C361.48 275.248 378.764 330.557 355.06 354.26Z" fill="#F6F6F6"/>
<path opacity="0.1923" d="M354.073 353.766C328.394 379.445 275.554 361.174 270.616 356.729L356.542 270.803C361.48 274.754 377.777 330.062 354.073 353.766Z" fill="#F5F5F5"/>
<path opacity="0.2115" d="M353.088 352.778C327.409 378.457 275.063 361.174 270.619 356.235L356.545 270.309C361.483 274.754 377.285 329.075 353.088 352.778Z" fill="#F4F4F4"/>
<path opacity="0.2308" d="M352.595 352.285C326.916 377.964 275.558 361.174 270.62 356.729L356.546 270.803C361.484 274.754 376.299 328.087 352.595 352.285Z" fill="#F3F3F3"/>
<path opacity="0.25" d="M351.605 351.297C325.926 376.976 275.061 360.679 270.617 356.235L356.543 270.309C361.481 274.753 375.308 327.593 351.605 351.297Z" fill="#F2F2F2"/>
<path opacity="0.2692" d="M351.112 350.309C325.433 375.988 275.062 360.679 271.112 356.235L357.038 270.309C361.482 274.753 374.816 326.605 351.112 350.309Z" fill="#F1F1F1"/>
<path opacity="0.2885" d="M350.123 349.815C324.444 375.494 275.062 360.679 270.617 356.729L356.543 270.803C360.987 274.753 373.827 326.111 350.123 349.815Z" fill="#F0F0F0"/>
<path opacity="0.3077" d="M349.63 348.827C323.951 374.506 275.062 360.679 271.111 356.235L357.037 270.309C360.988 274.753 373.334 325.124 349.63 348.827Z" fill="#EFEFEF"/>
<path opacity="0.3269" d="M348.64 348.334C322.961 374.013 275.059 360.68 270.615 356.729L356.541 270.803C360.985 274.26 372.343 324.137 348.64 348.334Z" fill="#EEEEEE"/>
<path opacity="0.3462" d="M347.655 347.346C321.976 373.025 274.568 360.679 270.618 356.235L356.544 270.309C360.988 274.259 371.852 323.642 347.655 347.346Z" fill="#EDEDED"/>
<path opacity="0.3654" d="M347.162 346.359C321.483 372.038 275.063 360.186 271.113 356.235L357.039 270.309C360.989 274.26 370.866 322.655 347.162 346.359Z" fill="#ECECEC"/>
<path opacity="0.3846" d="M346.173 345.864C320.494 371.543 274.568 360.679 270.617 356.729L356.543 270.803C360.988 274.26 369.876 322.161 346.173 345.864Z" fill="#EBEBEB"/>
<path opacity="0.4038" d="M345.677 344.877C319.998 370.556 274.566 360.186 271.109 356.236L357.035 270.31C360.986 274.26 369.381 321.174 345.677 344.877Z" fill="#EAEAEA"/>
<path opacity="0.4231" d="M344.693 344.384C319.014 370.063 274.57 360.186 270.619 356.729L356.545 270.803C360.495 274.26 368.397 320.186 344.693 344.384Z" fill="#E9E9E9"/>
<path opacity="0.4423" d="M343.705 343.396C318.026 369.075 274.076 360.186 270.619 356.235L356.545 270.309C360.495 273.766 367.903 319.692 343.705 343.396Z" fill="#E8E8E8"/>
<path opacity="0.4615" d="M343.209 342.408C317.53 368.087 274.567 359.692 271.11 356.236L357.036 270.31C360.493 273.766 366.912 318.705 343.209 342.408Z" fill="#E7E7E7"/>
<path opacity="0.4808" d="M342.222 341.914C316.543 367.593 274.074 360.186 270.617 356.729L356.543 270.803C360.493 273.766 365.926 318.21 342.222 341.914Z" fill="#E6E6E6"/>
<path opacity="0.5" d="M341.731 340.927C316.052 366.606 274.571 359.692 271.114 356.235L357.04 270.309C360.497 273.766 365.435 317.223 341.731 340.927Z" fill="#E6E6E6"/>
<path opacity="0.5192" d="M340.74 340.432C314.568 366.605 274.074 360.185 270.617 356.729L356.543 270.803C360.494 273.766 364.444 316.729 340.74 340.432Z" fill="#E5E5E5"/>
<path opacity="0.5385" d="M339.753 339.444C313.58 365.617 274.074 359.691 270.617 356.235L356.543 270.309C360 273.765 363.95 315.741 339.753 339.444Z" fill="#E4E4E4"/>
<path opacity="0.5577" d="M339.258 338.951C313.085 365.124 274.072 359.692 270.616 356.729L356.541 270.803C359.998 273.766 362.961 314.754 339.258 338.951Z" fill="#E3E3E3"/>
<path opacity="0.5769" d="M338.272 337.963C312.099 364.136 273.581 359.691 270.618 356.235L356.544 270.309C360 273.272 361.976 314.259 338.272 337.963Z" fill="#E2E2E2"/>
<path opacity="0.5962" d="M337.781 336.976C311.608 363.149 274.077 359.198 271.114 356.235L357.04 270.309C360.003 273.272 361.484 313.272 337.781 336.976Z" fill="#E1E1E1"/>
<path opacity="0.6154" d="M336.791 336.482C310.618 362.655 273.581 359.692 270.618 356.729L356.544 270.803C360.001 273.272 360.495 312.778 336.791 336.482Z" fill="#E0E0E0"/>
<path opacity="0.6346" d="M336.295 335.495C310.123 361.668 274.073 359.198 271.11 356.236L357.036 270.31C359.999 273.273 359.999 311.791 336.295 335.495Z" fill="#DFDFDF"/>
<path opacity="0.6538" d="M335.311 335.001C309.139 361.174 273.583 359.692 270.62 356.729L356.546 270.803C360.003 273.272 359.015 310.803 335.311 335.001Z" fill="#DEDEDE"/>
<path opacity="0.6731" d="M334.324 334.013C308.151 360.186 273.583 359.198 270.62 356.236L356.546 270.31C359.509 273.273 358.028 310.31 334.324 334.013Z" fill="#DDDDDD"/>
<path opacity="0.6923" d="M333.828 333.025C307.655 359.198 273.581 359.198 271.112 356.235L357.038 270.309C359.507 272.778 357.532 309.321 333.828 333.025Z" fill="#DCDCDC"/>
<path opacity="0.7115" d="M332.837 332.532C306.665 358.705 273.084 359.199 270.615 356.729L356.541 270.803C359.504 272.779 356.541 308.828 332.837 332.532Z" fill="#DBDBDB"/>
<path opacity="0.7308" d="M332.346 331.543C306.173 357.716 273.581 358.704 271.112 356.235L357.038 270.309C359.507 272.778 356.05 307.84 332.346 331.543Z" fill="#DADADA"/>
<path opacity="0.75" d="M331.358 331.05C305.185 357.222 273.086 359.198 270.617 356.729L356.543 270.803C359.506 272.778 355.062 306.852 331.358 331.05Z" fill="#D9D9D9"/>
<path opacity="0.7692" d="M330.372 330.063C304.199 356.235 273.088 358.705 270.619 356.236L356.545 270.31C359.508 272.779 354.57 306.359 330.372 330.063Z" fill="#D8D8D8"/>
<path opacity="0.7885" d="M329.874 329.075C303.701 355.248 273.084 358.704 271.109 356.235L357.035 270.309C359.01 272.778 353.578 305.371 329.874 329.075Z" fill="#D7D7D7"/>
<path opacity="0.8077" d="M328.889 328.58C302.716 354.753 273.086 358.704 270.617 356.729L356.543 270.803C359.012 272.778 352.593 304.877 328.889 328.58Z" fill="#D6D6D6"/>
<path opacity="0.8269" d="M328.393 327.593C302.221 353.766 273.085 358.704 271.109 356.235L357.035 270.309C359.011 272.285 352.097 303.89 328.393 327.593Z" fill="#D5D5D5"/>
<path opacity="0.8462" d="M327.406 327.1C301.233 353.273 273.085 358.705 270.616 356.729L356.541 270.803C359.011 272.285 351.109 303.396 327.406 327.1Z" fill="#D4D4D4"/>
<path opacity="0.8654" d="M326.423 326.112C300.25 352.285 272.595 358.211 270.62 356.236L356.546 270.31C359.015 272.285 350.62 302.408 326.423 326.112Z" fill="#D3D3D3"/>
<path opacity="0.8846" d="M325.926 325.618C299.754 351.79 272.593 358.704 270.618 356.729L356.544 270.803C359.013 272.284 349.63 301.42 325.926 325.618Z" fill="#D2D2D2"/>
<path opacity="0.9038" d="M324.941 324.631C298.768 350.804 272.595 358.211 270.62 356.729L356.546 270.803C359.015 272.285 348.644 300.927 324.941 324.631Z" fill="#D1D1D1"/>
<path opacity="0.9231" d="M324.446 323.642C298.273 349.815 272.594 358.21 271.112 356.235L357.038 270.309C358.52 272.284 348.149 299.938 324.446 323.642Z" fill="#D0D0D0"/>
<path opacity="0.9423" d="M323.455 323.149C297.283 349.322 272.591 358.211 270.616 356.729L356.542 270.803C358.517 271.791 347.159 299.445 323.455 323.149Z" fill="#CFCFCF"/>
<path opacity="0.9615" d="M322.47 322.16C296.297 348.333 272.099 358.21 270.618 356.235L356.544 270.309C358.519 271.79 346.667 298.457 322.47 322.16Z" fill="#CECECE"/>
<path opacity="0.9808" d="M321.977 321.667C295.804 347.84 272.594 358.21 270.619 356.729L356.544 270.803C358.52 271.79 345.68 297.469 321.977 321.667Z" fill="#CDCDCD"/>
<path d="M320.99 320.68C294.324 347.346 272.101 358.211 270.62 356.235L356.546 270.309C358.521 271.791 344.694 296.976 320.99 320.68Z" fill="#CCCCCC"/>
</g>
<path d="M195.062 280.679L281.481 194.753L205.926 119.198L119.506 205.124L195.062 280.679Z" fill="url(#paint17_linear_198_2252)"/>
<path d="M109.136 367.099L195.062 280.679L119.506 205.124L33.5801 291.543L109.136 367.099Z" fill="url(#paint18_linear_198_2252)"/>
<g opacity="0.8">
<path opacity="0.0192308" d="M242.467 328.087C217.282 353.272 157.529 329.074 152.097 323.642L238.022 237.716C243.455 243.148 266.171 304.383 242.467 328.087Z" fill="#FEFEFE"/>
<path opacity="0.0384615" d="M241.479 327.593C215.8 353.272 157.035 329.568 152.097 324.136L238.022 237.716C243.455 243.148 265.677 303.395 241.479 327.593Z" fill="#FDFDFD"/>
<path opacity="0.0576923" d="M240.986 326.605C215.307 352.284 157.53 329.074 152.097 324.136L238.023 237.716C243.455 243.148 264.69 302.901 240.986 326.605Z" fill="#FCFCFC"/>
<path opacity="0.0769231" d="M239.997 325.618C214.318 351.297 157.034 329.074 152.095 323.642L238.021 237.716C243.453 242.655 263.7 301.914 239.997 325.618Z" fill="#FBFBFB"/>
<path opacity="0.0961538" d="M239.507 325.124C213.828 350.803 157.038 329.074 152.1 324.136L238.026 237.716C243.458 242.655 263.211 301.42 239.507 325.124Z" fill="#FAFAFA"/>
<path opacity="0.1154" d="M238.517 324.136C212.838 349.815 157.036 328.58 152.097 323.642L238.023 237.716C242.961 242.655 262.221 300.432 238.517 324.136Z" fill="#F9F9F9"/>
<path opacity="0.1346" d="M238.025 323.642C212.346 349.321 157.038 329.074 152.1 324.136L238.025 237.716C242.964 242.655 261.729 299.445 238.025 323.642Z" fill="#F8F8F8"/>
<path opacity="0.1538" d="M237.037 322.655C211.358 348.334 157.037 328.581 152.099 324.136L238.025 237.716C242.963 242.655 260.741 298.951 237.037 322.655Z" fill="#F7F7F7"/>
<path opacity="0.1731" d="M236.05 321.667C210.371 347.346 156.544 328.58 152.099 323.642L238.025 237.716C242.963 242.655 260.247 297.963 236.05 321.667Z" fill="#F6F6F6"/>
<path opacity="0.1923" d="M235.555 321.173C209.876 346.852 157.037 328.581 152.099 324.136L238.024 237.716C242.963 242.655 259.259 297.469 235.555 321.173Z" fill="#F5F5F5"/>
<path opacity="0.2115" d="M234.568 320.185C208.889 345.864 156.543 328.58 152.099 323.642L238.025 237.716C242.963 242.161 258.272 296.482 234.568 320.185Z" fill="#F4F4F4"/>
<path opacity="0.2308" d="M234.072 319.692C208.393 345.371 157.035 328.581 152.097 324.136L238.023 237.716C242.961 242.161 257.776 295.988 234.072 319.692Z" fill="#F3F3F3"/>
<path opacity="0.25" d="M233.084 318.704C207.405 344.383 156.541 328.087 152.096 323.642L238.022 237.716C242.467 242.161 256.788 295 233.084 318.704Z" fill="#F2F2F2"/>
<path opacity="0.2692" d="M232.098 318.21C206.419 343.889 156.049 328.581 152.099 324.136L238.024 237.716C242.469 242.161 256.296 294.013 232.098 318.21Z" fill="#F1F1F1"/>
<path opacity="0.2885" d="M231.606 317.223C205.927 342.902 156.544 328.087 152.1 324.136L238.025 237.716C242.47 242.161 255.309 293.519 231.606 317.223Z" fill="#F0F0F0"/>
<path opacity="0.3077" d="M230.619 316.235C204.94 341.914 156.051 328.087 152.1 323.642L238.026 237.716C242.471 242.161 254.322 292.531 230.619 316.235Z" fill="#EFEFEF"/>
<path opacity="0.3269" d="M230.122 315.741C204.443 341.42 156.542 328.087 152.097 324.136L238.023 237.716C242.468 241.667 253.826 292.037 230.122 315.741Z" fill="#EEEEEE"/>
<path opacity="0.3462" d="M229.133 314.753C203.454 340.432 156.047 328.087 152.096 323.642L238.022 237.716C242.467 241.667 252.837 291.05 229.133 314.753Z" fill="#EDEDED"/>
<path opacity="0.3654" d="M228.149 314.26C202.47 339.939 156.05 328.087 152.1 324.136L238.026 237.716C242.47 241.667 252.347 290.062 228.149 314.26Z" fill="#ECECEC"/>
<path opacity="0.3846" d="M227.651 313.272C201.972 338.951 156.046 328.087 152.096 324.136L238.021 237.716C241.972 241.667 251.355 289.568 227.651 313.272Z" fill="#EBEBEB"/>
<path opacity="0.4038" d="M226.667 312.284C200.988 337.963 155.556 327.593 152.099 323.642L238.025 237.716C241.976 241.667 250.371 288.581 226.667 312.284Z" fill="#EAEAEA"/>
<path opacity="0.4231" d="M226.175 311.79C200.496 337.469 156.052 327.593 152.101 324.136L238.027 237.716C241.978 241.667 249.879 288.087 226.175 311.79Z" fill="#E9E9E9"/>
<path opacity="0.4423" d="M225.186 310.803C199.507 336.482 155.556 327.593 152.099 323.642L238.025 237.716C241.976 241.667 248.889 287.099 225.186 310.803Z" fill="#E8E8E8"/>
<path opacity="0.4615" d="M224.198 310.309C198.519 335.988 155.556 327.593 152.099 324.136L238.025 237.716C241.976 241.173 248.395 286.111 224.198 310.309Z" fill="#E7E7E7"/>
<path opacity="0.4808" d="M223.704 309.321C198.025 335 155.556 327.593 152.099 324.136L238.025 237.716C241.976 241.173 247.408 285.618 223.704 309.321Z" fill="#E6E6E6"/>
<path opacity="0.5" d="M222.717 308.334C197.038 334.013 155.556 327.099 152.099 323.642L238.025 237.716C241.482 241.173 246.42 284.63 222.717 308.334Z" fill="#E6E6E6"/>
<path opacity="0.5192" d="M222.223 307.84C196.05 334.013 155.556 327.593 152.099 324.136L238.025 237.716C241.482 241.173 245.926 284.136 222.223 307.84Z" fill="#E5E5E5"/>
<path opacity="0.5385" d="M221.235 306.852C195.062 333.025 155.556 327.099 152.099 323.642L238.025 237.716C241.482 241.173 244.938 283.148 221.235 306.852Z" fill="#E4E4E4"/>
<path opacity="0.5577" d="M220.74 306.358C194.567 332.531 155.555 327.099 152.098 324.136L238.024 237.716C241.481 241.173 244.444 282.161 220.74 306.358Z" fill="#E3E3E3"/>
<path opacity="0.5769" d="M219.754 305.371C193.581 331.543 155.062 327.099 152.099 323.642L238.025 237.716C241.482 241.173 243.457 281.667 219.754 305.371Z" fill="#E2E2E2"/>
<path opacity="0.5962" d="M218.765 304.383C192.592 330.556 155.062 326.605 152.099 323.642L238.025 237.716C241.481 240.679 242.963 280.679 218.765 304.383Z" fill="#E1E1E1"/>
<path opacity="0.6154" d="M218.272 303.889C192.1 330.062 155.062 327.099 152.1 324.136L238.025 237.716C241.482 240.679 241.976 280.185 218.272 303.889Z" fill="#E0E0E0"/>
<path opacity="0.6346" d="M217.285 302.901C191.112 329.074 155.062 326.605 152.099 323.642L238.025 237.716C240.988 240.679 240.988 279.198 217.285 302.901Z" fill="#DFDFDF"/>
<path opacity="0.6538" d="M216.791 302.408C190.618 328.581 155.063 327.099 152.1 324.136L238.026 237.716C240.989 240.679 240.495 278.704 216.791 302.408Z" fill="#DEDEDE"/>
<path opacity="0.6731" d="M215.8 301.42C189.628 327.593 155.06 326.605 152.097 323.642L238.023 237.716C240.986 240.679 239.504 277.716 215.8 301.42Z" fill="#DDDDDD"/>
<path opacity="0.6923" d="M214.813 300.926C188.64 327.099 154.566 327.099 152.097 324.136L238.022 237.716C240.985 240.679 239.01 276.729 214.813 300.926Z" fill="#DCDCDC"/>
<path opacity="0.7115" d="M214.32 299.939C188.147 326.111 154.567 326.605 152.098 324.136L238.024 237.716C240.986 240.185 238.024 276.235 214.32 299.939Z" fill="#DBDBDB"/>
<path opacity="0.7308" d="M213.335 298.951C187.162 325.124 154.57 326.111 152.101 323.642L238.026 237.716C240.989 240.185 237.039 275.247 213.335 298.951Z" fill="#DADADA"/>
<path opacity="0.75" d="M212.84 298.457C186.667 324.63 154.568 326.605 152.099 324.136L238.025 237.716C240.494 240.185 236.544 274.753 212.84 298.457Z" fill="#D9D9D9"/>
<path opacity="0.7692" d="M211.85 297.469C185.677 323.642 154.566 326.111 152.097 323.642L238.023 237.716C240.492 240.185 235.554 273.766 211.85 297.469Z" fill="#D8D8D8"/>
<path opacity="0.7885" d="M210.863 296.976C184.69 323.148 154.073 326.605 152.098 324.136L238.024 237.716C240.493 240.185 235.061 272.778 210.863 296.976Z" fill="#D7D7D7"/>
<path opacity="0.8077" d="M210.371 295.988C184.199 322.161 154.569 326.111 152.1 324.136L238.026 237.716C240.495 240.185 234.075 272.284 210.371 295.988Z" fill="#D6D6D6"/>
<path opacity="0.8269" d="M209.381 295C183.209 321.173 154.073 326.111 152.098 323.642L238.023 237.716C240.493 240.185 233.085 271.297 209.381 295Z" fill="#D5D5D5"/>
<path opacity="0.8462" d="M208.887 294.506C182.714 320.679 154.566 326.111 152.097 324.136L238.023 237.716C240.492 239.692 232.591 270.803 208.887 294.506Z" fill="#D4D4D4"/>
<path opacity="0.8654" d="M207.9 293.519C181.727 319.692 154.073 325.618 152.098 323.642L238.024 237.716C240.493 239.692 231.604 269.815 207.9 293.519Z" fill="#D3D3D3"/>
<path opacity="0.8846" d="M207.408 293.025C181.235 319.198 154.075 326.111 152.1 324.136L238.026 237.716C240.001 239.692 231.112 268.827 207.408 293.025Z" fill="#D2D2D2"/>
<path opacity="0.9038" d="M206.421 292.037C180.248 318.21 154.075 325.618 152.1 324.136L238.026 237.716C240.001 239.692 230.124 268.334 206.421 292.037Z" fill="#D1D1D1"/>
<path opacity="0.9231" d="M205.433 291.05C179.26 317.222 153.581 325.618 152.1 323.642L238.025 237.716C240.001 239.692 229.63 267.346 205.433 291.05Z" fill="#D0D0D0"/>
<path opacity="0.9423" d="M204.937 290.556C178.764 316.729 154.073 325.618 152.097 324.136L238.023 237.716C239.999 239.692 228.641 266.852 204.937 290.556Z" fill="#CFCFCF"/>
<path opacity="0.9615" d="M203.949 289.568C177.776 315.741 153.579 325.618 152.097 323.642L238.023 237.716C239.998 239.198 227.653 265.864 203.949 289.568Z" fill="#CECECE"/>
<path opacity="0.9808" d="M203.457 289.074C177.284 315.247 154.074 325.618 152.099 324.136L238.025 237.716C240 239.198 227.161 265.371 203.457 289.074Z" fill="#CDCDCD"/>
<path d="M202.468 288.087C175.801 314.753 153.579 325.618 152.097 323.642L238.023 237.716C239.999 239.198 226.171 264.383 202.468 288.087Z" fill="#CCCCCC"/>
</g>
<path d="M247.898 75.2458L334.317 -11.1739L258.268 -86.7295L172.342 -0.309723L247.898 75.2458Z" fill="url(#paint19_linear_198_2252)"/>
<g opacity="0.8">
<path opacity="0.0192308" d="M381.234 36.2341C356.049 61.4193 296.296 37.2218 290.864 31.7897L376.79 -54.1362C382.716 -48.7041 405.432 12.5304 381.234 36.2341Z" fill="#FEFEFE"/>
<path opacity="0.0384615" d="M380.737 35.7411C355.058 61.4201 296.293 37.7164 291.354 32.2843L377.28 -53.6416C382.219 -48.7033 404.441 11.5436 380.737 35.7411Z" fill="#FDFDFD"/>
<path opacity="0.0576923" d="M379.749 34.7532C354.07 60.4322 296.292 37.2224 290.86 32.2841L376.786 -53.6418C382.218 -48.7036 403.453 11.0495 379.749 34.7532Z" fill="#FCFCFC"/>
<path opacity="0.0769231" d="M379.259 33.765C353.58 59.444 296.296 37.2218 291.358 31.7897L377.283 -54.1362C382.222 -48.7041 402.963 10.0613 379.259 33.765Z" fill="#FBFBFB"/>
<path opacity="0.0961538" d="M378.269 33.2712C352.59 58.9502 295.8 37.2219 290.861 32.2836L376.787 -53.6423C382.22 -49.1979 401.973 9.56753 378.269 33.2712Z" fill="#FAFAFA"/>
<path opacity="0.1154" d="M377.283 32.2835C351.604 57.9625 295.801 36.728 290.863 31.7897L376.789 -54.1362C382.221 -49.198 401.48 8.57982 377.283 32.2835Z" fill="#F9F9F9"/>
<path opacity="0.1346" d="M376.788 31.7898C351.109 57.4688 295.8 37.2219 290.862 32.2836L376.788 -53.6423C382.22 -49.1979 400.491 8.08607 376.788 31.7898Z" fill="#F8F8F8"/>
<path opacity="0.1538" d="M375.801 30.8021C350.122 56.4811 295.801 36.728 290.863 32.2836L376.788 -53.6423C381.727 -49.1979 399.505 7.0984 375.801 30.8021Z" fill="#F7F7F7"/>
<path opacity="0.1731" d="M375.304 30.309C349.625 55.988 295.798 37.2226 291.354 32.2843L377.28 -53.6416C381.724 -49.1972 399.008 6.11148 375.304 30.309Z" fill="#F6F6F6"/>
<path opacity="0.1923" d="M374.317 29.3211C348.638 55.0001 295.798 36.7285 290.86 32.2841L376.786 -53.6418C381.724 -49.1974 398.021 5.61743 374.317 29.3211Z" fill="#F5F5F5"/>
<path opacity="0.2115" d="M373.332 28.3329C347.653 54.0119 295.307 36.728 290.863 31.7897L376.789 -54.1362C381.727 -49.6918 397.53 4.62918 373.332 28.3329Z" fill="#F4F4F4"/>
<path opacity="0.2308" d="M372.839 27.8396C347.16 53.5187 295.802 36.7285 290.864 32.2841L376.79 -53.6418C381.728 -49.6912 396.543 4.13594 372.839 27.8396Z" fill="#F3F3F3"/>
<path opacity="0.25" d="M371.849 26.8514C346.17 52.5304 295.305 36.2341 290.861 31.7897L376.787 -54.1362C381.725 -49.6918 395.552 3.14772 371.849 26.8514Z" fill="#F2F2F2"/>
<path opacity="0.2692" d="M371.356 26.3577C345.677 52.0367 295.307 36.728 291.356 32.2836L377.282 -53.6423C381.726 -49.6917 395.06 2.16012 371.356 26.3577Z" fill="#F1F1F1"/>
<path opacity="0.2885" d="M370.368 25.3698C344.689 51.0488 295.307 36.234 290.862 32.2834L376.788 -53.6426C381.233 -49.692 394.072 1.66606 370.368 25.3698Z" fill="#F0F0F0"/>
<path opacity="0.3077" d="M369.874 24.3823C344.195 50.0613 295.306 36.2341 291.356 31.7897L377.282 -54.1362C381.232 -49.6918 393.578 0.678589 369.874 24.3823Z" fill="#EFEFEF"/>
<path opacity="0.3269" d="M368.885 23.8893C343.206 49.5683 295.305 36.235 290.86 32.2843L376.786 -53.6416C381.231 -49.691 392.589 0.185547 368.885 23.8893Z" fill="#EEEEEE"/>
<path opacity="0.3462" d="M367.899 22.9008C342.22 48.5798 294.812 36.2341 290.862 31.7897L376.788 -54.1362C381.232 -50.1856 392.096 -0.802906 367.899 22.9008Z" fill="#EDEDED"/>
<path opacity="0.3654" d="M367.406 22.4078C341.727 48.0868 295.307 36.2349 291.357 32.2843L377.283 -53.6416C381.233 -50.1848 391.11 -1.78975 367.406 22.4078Z" fill="#ECECEC"/>
<path opacity="0.3846" d="M366.417 21.4191C340.738 47.0981 294.812 36.234 290.861 32.2834L376.787 -53.6426C381.232 -50.1858 390.121 -2.28457 366.417 21.4191Z" fill="#EBEBEB"/>
<path opacity="0.4038" d="M365.921 20.4317C340.242 46.1107 294.81 35.7403 291.353 31.7897L377.279 -54.1362C381.23 -50.1856 389.625 -3.27204 365.921 20.4317Z" fill="#EAEAEA"/>
<path opacity="0.4231" d="M364.937 19.9387C339.258 45.6177 294.814 35.7411 290.863 32.2843L376.789 -53.6416C380.74 -50.1848 388.641 -3.76505 364.937 19.9387Z" fill="#E9E9E9"/>
<path opacity="0.4423" d="M363.949 18.9502C338.27 44.6292 294.32 35.7403 290.863 31.7897L376.789 -54.1362C380.74 -50.1856 388.147 -4.75354 363.949 18.9502Z" fill="#E8E8E8"/>
<path opacity="0.4615" d="M363.453 18.4572C337.774 44.1362 294.811 35.7411 291.354 32.2843L377.28 -53.6416C380.737 -50.1848 387.156 -5.24655 363.453 18.4572Z" fill="#E7E7E7"/>
<path opacity="0.4808" d="M362.466 17.4688C336.787 43.1478 294.318 35.7404 290.861 32.2836L376.787 -53.6423C380.738 -50.6794 386.17 -6.23492 362.466 17.4688Z" fill="#E6E6E6"/>
<path opacity="0.5" d="M361.976 16.9755C336.297 42.6545 294.815 35.7409 291.358 32.2841L377.284 -53.6418C380.741 -50.6789 385.679 -7.22207 361.976 16.9755Z" fill="#E6E6E6"/>
<path opacity="0.5192" d="M360.985 15.9873C334.812 42.1601 294.318 35.7404 290.861 32.2836L376.787 -53.6423C380.738 -50.6794 384.688 -7.71641 360.985 15.9873Z" fill="#E5E5E5"/>
<path opacity="0.5385" d="M359.998 14.9996C333.825 41.1724 294.319 35.2465 290.862 31.7897L376.788 -54.1362C380.245 -50.6794 384.196 -8.70413 359.998 14.9996Z" fill="#E4E4E4"/>
<path opacity="0.5577" d="M359.502 14.5066C333.329 40.6794 294.316 35.2473 290.86 32.2843L376.786 -53.6416C380.242 -50.6786 383.205 -9.19714 359.502 14.5066Z" fill="#E3E3E3"/>
<path opacity="0.5769" d="M358.516 13.5181C332.343 39.6909 293.825 35.2465 290.862 31.7897L376.788 -54.1362C380.245 -50.6794 382.22 -10.1856 358.516 13.5181Z" fill="#E2E2E2"/>
<path opacity="0.5962" d="M358.025 13.0251C331.852 39.1979 294.321 35.2473 291.358 32.2843L377.284 -53.6416C380.247 -51.1725 381.729 -11.1725 358.025 13.0251Z" fill="#E1E1E1"/>
<path opacity="0.6154" d="M357.035 12.0367C330.862 38.2095 293.825 35.2466 290.862 32.2836L376.788 -53.6423C380.245 -51.1732 380.739 -11.667 357.035 12.0367Z" fill="#E0E0E0"/>
<path opacity="0.6346" d="M356.541 11.0489C330.369 37.2218 294.319 34.7527 291.356 31.7897L377.282 -54.1362C380.245 -51.1733 380.245 -12.6548 356.541 11.0489Z" fill="#DFDFDF"/>
<path opacity="0.6538" d="M355.556 10.5554C329.383 36.7283 293.827 35.2468 290.864 32.2838L376.79 -53.6421C380.247 -51.173 379.259 -13.1483 355.556 10.5554Z" fill="#DEDEDE"/>
<path opacity="0.6731" d="M354.568 9.56748C328.395 35.7403 293.827 34.7527 290.864 31.7897L376.79 -54.1362C379.753 -51.1733 378.272 -14.1362 354.568 9.56748Z" fill="#DDDDDD"/>
<path opacity="0.6923" d="M354.071 9.0737C327.898 35.2466 293.824 35.2466 291.355 32.2836L377.281 -53.6423C379.75 -51.1732 377.775 -15.1238 354.071 9.0737Z" fill="#DCDCDC"/>
<path opacity="0.7115" d="M353.082 8.08679C326.909 34.2596 293.328 34.7535 290.859 32.2843L376.785 -53.6416C379.748 -51.1725 376.785 -15.6169 353.082 8.08679Z" fill="#DBDBDB"/>
<path opacity="0.7308" d="M352.59 7.09835C326.418 33.2712 293.825 34.2588 291.356 31.7897L377.282 -54.1362C379.751 -51.6671 376.294 -16.6054 352.59 7.09835Z" fill="#DADADA"/>
<path opacity="0.75" d="M351.602 6.60456C325.429 32.7774 293.33 34.7527 290.861 32.2836L376.787 -53.6423C379.75 -51.667 375.306 -17.0991 351.602 6.60456Z" fill="#D9D9D9"/>
<path opacity="0.7692" d="M350.616 5.61685C324.443 31.7897 293.332 34.2588 290.863 31.7897L376.789 -54.1362C379.752 -51.6671 374.814 -18.0869 350.616 5.61685Z" fill="#D8D8D8"/>
<path opacity="0.7885" d="M350.119 5.12384C323.947 31.2967 293.329 34.7535 291.354 32.2843L377.28 -53.6416C379.255 -51.6663 373.823 -18.5799 350.119 5.12384Z" fill="#D7D7D7"/>
<path opacity="0.8077" d="M349.133 4.13543C322.96 30.3083 293.331 34.2589 290.861 32.2836L376.787 -53.6423C379.257 -51.667 372.837 -19.5683 349.133 4.13543Z" fill="#D6D6D6"/>
<path opacity="0.8269" d="M348.638 3.64185C322.465 29.8147 293.329 34.753 291.354 32.2838L377.28 -53.6421C379.255 -51.6668 372.341 -20.5557 348.638 3.64185Z" fill="#D5D5D5"/>
<path opacity="0.8462" d="M347.65 2.65446C321.477 28.8273 293.329 34.2594 290.86 32.2841L376.786 -53.6418C379.255 -52.1604 371.353 -21.0492 347.65 2.65446Z" fill="#D4D4D4"/>
<path opacity="0.8654" d="M346.666 1.66621C320.493 27.8391 292.839 33.765 290.863 31.7897L376.789 -54.1362C379.258 -52.1609 370.863 -22.0375 346.666 1.66621Z" fill="#D3D3D3"/>
<path opacity="0.8846" d="M346.171 1.17247C319.998 27.3453 292.837 34.2589 290.862 32.2836L376.788 -53.6423C379.257 -52.1609 369.874 -22.5312 346.171 1.17247Z" fill="#D2D2D2"/>
<path opacity="0.9038" d="M345.185 0.185566C319.012 26.3584 292.839 33.7658 290.864 32.2843L376.79 -53.6416C379.259 -52.1601 368.889 -23.5181 345.185 0.185566Z" fill="#D1D1D1"/>
<path opacity="0.9231" d="M344.69 -0.308739C318.517 25.8641 292.838 34.2592 291.356 32.2839L377.282 -53.6421C378.764 -52.1606 368.394 -24.5063 344.69 -0.308739Z" fill="#D0D0D0"/>
<path opacity="0.9423" d="M343.7 -1.29618C317.527 24.8767 292.835 33.7656 290.86 32.2841L376.786 -53.6418C378.761 -52.1604 367.403 -24.9999 343.7 -1.29618Z" fill="#CFCFCF"/>
<path opacity="0.9615" d="M342.714 -2.28437C316.541 23.8885 292.343 33.765 290.862 31.7897L376.788 -54.1362C378.763 -52.1609 366.911 -25.9881 342.714 -2.28437Z" fill="#CECECE"/>
<path opacity="0.9808" d="M342.221 -2.77788C316.048 23.395 292.838 33.7653 290.863 32.2838L376.789 -53.6421C378.764 -52.6544 365.924 -26.4816 342.221 -2.77788Z" fill="#CDCDCD"/>
<path d="M341.234 -3.76588C314.568 22.9008 292.345 33.765 290.864 31.7897L376.79 -54.1362C378.765 -52.6547 364.938 -27.4696 341.234 -3.76588Z" fill="#CCCCCC"/>
</g>
<path d="M161.975 161.173L247.901 75.2474L172.346 -0.308105L86.4199 85.6178L161.975 161.173Z" fill="url(#paint20_linear_198_2252)"/>
<path d="M75.5549 247.592L161.975 161.172L86.419 85.6162L-0.000701904 172.036L75.5549 247.592Z" fill="url(#paint21_linear_198_2252)"/>
<g opacity="0.8">
<path opacity="0.0192308" d="M208.892 208.58C183.707 233.765 123.954 209.567 118.522 204.135L204.448 118.209C210.374 123.642 233.09 184.876 208.892 208.58Z" fill="#FEFEFE"/>
<path opacity="0.0384615" d="M208.399 208.087C182.72 233.766 123.954 210.062 119.016 204.63L204.942 118.704C210.374 123.642 232.103 183.889 208.399 208.087Z" fill="#FDFDFD"/>
<path opacity="0.0576923" d="M207.407 207.099C181.728 232.778 123.95 209.568 118.518 204.63L204.444 118.704C209.876 123.642 231.111 183.395 207.407 207.099Z" fill="#FCFCFC"/>
<path opacity="0.0769231" d="M206.917 206.111C181.238 231.79 123.954 209.567 119.016 204.135L204.942 118.209C209.88 123.148 230.621 182.407 206.917 206.111Z" fill="#FBFBFB"/>
<path opacity="0.0961538" d="M205.927 205.617C180.248 231.296 123.458 209.568 118.52 204.629L204.446 118.703C209.878 123.148 229.631 181.913 205.927 205.617Z" fill="#FAFAFA"/>
<path opacity="0.1154" d="M205.434 204.629C179.755 230.308 123.953 209.074 119.014 204.135L204.94 118.209C209.878 123.148 229.138 180.926 205.434 204.629Z" fill="#F9F9F9"/>
<path opacity="0.1346" d="M204.446 204.135C178.767 229.814 123.458 209.568 118.52 204.629L204.446 118.703C209.878 123.148 228.149 179.938 204.446 204.135Z" fill="#F8F8F8"/>
<path opacity="0.1538" d="M203.458 203.148C177.779 228.827 123.458 209.074 118.52 204.629L204.446 118.703C209.878 123.148 227.655 179.444 203.458 203.148Z" fill="#F7F7F7"/>
<path opacity="0.1731" d="M202.963 202.16C177.284 227.839 123.456 209.074 119.012 204.135L204.938 118.209C209.382 123.148 226.666 178.456 202.963 202.16Z" fill="#F6F6F6"/>
<path opacity="0.1923" d="M201.975 201.667C176.296 227.346 123.457 209.074 118.518 204.63L204.444 118.704C209.383 123.148 225.679 177.963 201.975 201.667Z" fill="#F5F5F5"/>
<path opacity="0.2115" d="M201.483 200.679C175.804 226.358 123.458 209.074 119.014 204.135L204.939 118.209C209.384 122.654 225.186 176.975 201.483 200.679Z" fill="#F4F4F4"/>
<path opacity="0.2308" d="M200.497 200.186C174.818 225.865 123.46 209.074 118.521 204.63L204.447 118.704C209.386 122.655 224.2 175.988 200.497 200.186Z" fill="#F3F3F3"/>
<path opacity="0.25" d="M199.508 199.197C173.829 224.876 122.965 208.58 118.52 204.135L204.446 118.209C209.384 122.654 223.705 175.493 199.508 199.197Z" fill="#F2F2F2"/>
<path opacity="0.2692" d="M199.014 198.209C173.335 223.888 122.965 208.58 119.014 204.135L204.94 118.209C209.385 122.654 222.718 174.506 199.014 198.209Z" fill="#F1F1F1"/>
<path opacity="0.2885" d="M198.026 197.715C172.347 223.394 122.964 208.58 118.52 204.629L204.445 118.703C209.384 122.654 221.73 174.012 198.026 197.715Z" fill="#F0F0F0"/>
<path opacity="0.3077" d="M197.532 196.728C171.853 222.407 122.965 208.58 119.014 204.135L204.94 118.209C208.89 122.654 221.236 173.024 197.532 196.728Z" fill="#EFEFEF"/>
<path opacity="0.3269" d="M196.542 196.234C170.863 221.913 122.962 208.58 118.517 204.63L204.443 118.704C208.888 122.16 220.246 172.531 196.542 196.234Z" fill="#EEEEEE"/>
<path opacity="0.3462" d="M195.557 195.246C169.878 220.926 122.471 208.58 118.52 204.135L204.446 118.209C208.89 122.16 219.755 171.543 195.557 195.246Z" fill="#EDEDED"/>
<path opacity="0.3654" d="M195.064 194.753C169.385 220.432 122.966 208.58 119.015 204.63L204.941 118.704C208.892 122.16 218.768 170.555 195.064 194.753Z" fill="#ECECEC"/>
<path opacity="0.3846" d="M194.075 193.765C168.396 219.444 122.47 208.58 118.52 204.629L204.445 118.703C208.89 122.16 217.779 170.061 194.075 193.765Z" fill="#EBEBEB"/>
<path opacity="0.4038" d="M193.58 192.777C167.901 218.456 122.469 208.086 119.012 204.135L204.938 118.209C208.889 122.16 217.284 169.074 193.58 192.777Z" fill="#EAEAEA"/>
<path opacity="0.4231" d="M192.594 192.283C166.915 217.962 122.471 208.086 118.52 204.629L204.446 118.703C208.397 122.16 216.298 168.58 192.594 192.283Z" fill="#E9E9E9"/>
<path opacity="0.4423" d="M192.101 191.296C166.422 216.975 122.471 208.086 119.014 204.135L204.94 118.209C208.397 122.16 215.805 167.592 192.101 191.296Z" fill="#E8E8E8"/>
<path opacity="0.4615" d="M191.11 190.803C165.431 216.482 122.468 208.087 119.011 204.63L204.937 118.704C208.394 121.667 214.814 166.605 191.11 190.803Z" fill="#E7E7E7"/>
<path opacity="0.4808" d="M190.127 189.815C164.448 215.494 121.979 208.087 118.522 204.63L204.448 118.704C208.398 121.667 214.324 166.112 190.127 189.815Z" fill="#E6E6E6"/>
<path opacity="0.5" d="M189.634 188.827C163.955 214.506 122.473 207.592 119.016 204.135L204.942 118.209C208.399 121.666 213.337 165.123 189.634 188.827Z" fill="#E6E6E6"/>
<path opacity="0.5192" d="M188.643 188.333C162.47 214.506 121.976 208.086 118.519 204.629L204.445 118.703C208.396 121.666 212.347 164.629 188.643 188.333Z" fill="#E5E5E5"/>
<path opacity="0.5385" d="M188.151 187.345C161.978 213.518 122.472 207.592 119.015 204.135L204.941 118.209C208.398 121.666 211.854 163.642 188.151 187.345Z" fill="#E4E4E4"/>
<path opacity="0.5577" d="M187.161 186.852C160.988 213.025 121.976 207.593 118.519 204.63L204.445 118.704C207.902 121.667 210.865 162.654 187.161 186.852Z" fill="#E3E3E3"/>
<path opacity="0.5769" d="M186.174 185.864C160.001 212.037 121.482 207.592 118.519 204.135L204.445 118.209C207.902 121.172 210.371 162.16 186.174 185.864Z" fill="#E2E2E2"/>
<path opacity="0.5962" d="M185.682 184.876C159.509 211.049 121.978 207.098 119.015 204.135L204.941 118.209C207.904 121.172 209.386 161.172 185.682 184.876Z" fill="#E1E1E1"/>
<path opacity="0.6154" d="M184.693 184.382C158.52 210.555 121.483 207.592 118.52 204.629L204.446 118.703C207.903 121.173 208.397 160.679 184.693 184.382Z" fill="#E0E0E0"/>
<path opacity="0.6346" d="M184.197 183.395C158.024 209.567 121.975 207.098 119.012 204.135L204.937 118.209C207.9 121.172 207.9 159.691 184.197 183.395Z" fill="#DFDFDF"/>
<path opacity="0.6538" d="M183.213 182.901C157.04 209.074 121.484 207.593 118.521 204.63L204.447 118.704C207.904 121.173 206.917 159.197 183.213 182.901Z" fill="#DEDEDE"/>
<path opacity="0.6731" d="M182.224 181.913C156.051 208.086 121.483 207.098 118.52 204.135L204.446 118.209C207.903 121.172 206.421 158.209 182.224 181.913Z" fill="#DDDDDD"/>
<path opacity="0.6923" d="M181.73 181.419C155.557 207.592 121.483 207.592 119.014 204.629L204.94 118.703C207.409 121.173 205.434 157.222 181.73 181.419Z" fill="#DCDCDC"/>
<path opacity="0.7115" d="M180.74 180.432C154.567 206.605 120.987 207.099 118.518 204.63L204.443 118.704C207.406 120.679 204.444 156.729 180.74 180.432Z" fill="#DBDBDB"/>
<path opacity="0.7308" d="M180.247 179.444C154.074 205.617 121.481 206.604 119.012 204.135L204.938 118.209C207.407 120.679 203.95 155.74 180.247 179.444Z" fill="#DADADA"/>
<path opacity="0.75" d="M179.26 178.95C153.087 205.123 120.989 207.098 118.519 204.629L204.445 118.703C207.408 120.679 202.964 155.247 179.26 178.95Z" fill="#D9D9D9"/>
<path opacity="0.7692" d="M178.275 177.963C152.102 204.135 120.991 206.604 118.521 204.135L204.447 118.209C207.41 120.679 202.472 154.259 178.275 177.963Z" fill="#D8D8D8"/>
<path opacity="0.7885" d="M177.781 177.47C151.609 203.642 120.991 207.099 119.016 204.63L204.942 118.704C207.411 120.679 201.485 153.272 177.781 177.47Z" fill="#D7D7D7"/>
<path opacity="0.8077" d="M176.79 176.482C150.617 202.655 120.988 206.605 118.519 204.63L204.445 118.704C206.914 120.679 200.494 152.778 176.79 176.482Z" fill="#D6D6D6"/>
<path opacity="0.8269" d="M176.296 175.493C150.123 201.666 120.987 206.604 119.012 204.135L204.938 118.209C206.913 120.679 199.999 151.79 176.296 175.493Z" fill="#D5D5D5"/>
<path opacity="0.8462" d="M175.308 175C149.135 201.173 120.987 206.605 118.518 204.63L204.444 118.704C206.913 120.185 199.012 151.296 175.308 175Z" fill="#D4D4D4"/>
<path opacity="0.8654" d="M174.816 174.012C148.643 200.185 120.989 206.111 119.014 204.135L204.94 118.209C206.915 120.185 198.52 150.308 174.816 174.012Z" fill="#D3D3D3"/>
<path opacity="0.8846" d="M173.828 173.519C147.655 199.692 120.494 206.605 118.519 204.63L204.445 118.704C206.914 120.186 197.532 149.321 173.828 173.519Z" fill="#D2D2D2"/>
<path opacity="0.9038" d="M172.839 172.531C146.666 198.704 120.493 206.112 118.518 204.63L204.444 118.704C206.913 120.186 197.037 148.828 172.839 172.531Z" fill="#D1D1D1"/>
<path opacity="0.9231" d="M172.349 171.543C146.177 197.716 120.498 206.111 119.016 204.135L204.942 118.209C206.917 120.185 196.053 147.839 172.349 171.543Z" fill="#D0D0D0"/>
<path opacity="0.9423" d="M171.358 171.05C145.185 197.223 120.494 206.112 118.518 204.63L204.444 118.704C206.419 120.186 195.061 147.346 171.358 171.05Z" fill="#CFCFCF"/>
<path opacity="0.9615" d="M170.866 170.061C144.693 196.234 120.495 206.111 119.014 204.135L204.94 118.209C206.421 119.691 194.569 146.358 170.866 170.061Z" fill="#CECECE"/>
<path opacity="0.9808" d="M169.879 169.568C143.706 195.741 120.496 206.111 118.521 204.63L204.447 118.704C206.422 119.691 193.583 145.864 169.879 169.568Z" fill="#CDCDCD"/>
<path d="M168.892 168.58C142.225 195.246 120.003 206.111 118.521 204.135L204.447 118.209C206.423 119.691 193.089 144.876 168.892 168.58Z" fill="#CCCCCC"/>
</g>
</g>
</g>
<defs>
<linearGradient id="paint0_linear_198_2252" x1="653.992" y1="50.5051" x2="567.847" y2="136.65" gradientUnits="userSpaceOnUse">
<stop stop-color="#CCCCCC"/>
<stop offset="0.241" stop-color="#D9D9D9"/>
<stop offset="0.6851" stop-color="#EBEBEB"/>
<stop offset="1" stop-color="#F2F2F2"/>
</linearGradient>
<linearGradient id="paint1_linear_198_2252" x1="633.748" y1="374.841" x2="547.602" y2="460.987" gradientUnits="userSpaceOnUse">
<stop stop-color="#CCCCCC"/>
<stop offset="0.241" stop-color="#D9D9D9"/>
<stop offset="0.6851" stop-color="#EBEBEB"/>
<stop offset="1" stop-color="#F2F2F2"/>
</linearGradient>
<linearGradient id="paint2_linear_198_2252" x1="686.522" y1="169.179" x2="600.377" y2="255.324" gradientUnits="userSpaceOnUse">
<stop stop-color="#CCCCCC"/>
<stop offset="0.241" stop-color="#D9D9D9"/>
<stop offset="0.6851" stop-color="#EBEBEB"/>
<stop offset="1" stop-color="#F2F2F2"/>
</linearGradient>
<linearGradient id="paint3_linear_198_2252" x1="600.377" y1="255.324" x2="514.231" y2="341.47" gradientUnits="userSpaceOnUse">
<stop stop-color="#CCCCCC"/>
<stop offset="0.241" stop-color="#D9D9D9"/>
<stop offset="0.6851" stop-color="#EBEBEB"/>
<stop offset="1" stop-color="#F2F2F2"/>
</linearGradient>
<linearGradient id="paint4_linear_198_2252" x1="567.849" y1="136.651" x2="481.703" y2="222.796" gradientUnits="userSpaceOnUse">
<stop stop-color="#CCCCCC"/>
<stop offset="0.241" stop-color="#D9D9D9"/>
<stop offset="0.6851" stop-color="#EBEBEB"/>
<stop offset="1" stop-color="#F2F2F2"/>
</linearGradient>
<linearGradient id="paint5_linear_198_2252" x1="481.701" y1="222.796" x2="395.556" y2="308.941" gradientUnits="userSpaceOnUse">
<stop stop-color="#CCCCCC"/>
<stop offset="0.241" stop-color="#D9D9D9"/>
<stop offset="0.6851" stop-color="#EBEBEB"/>
<stop offset="1" stop-color="#F2F2F2"/>
</linearGradient>
<linearGradient id="paint6_linear_198_2252" x1="612.798" y1="698.474" x2="526.653" y2="784.619" gradientUnits="userSpaceOnUse">
<stop stop-color="#CCCCCC"/>
<stop offset="0.241" stop-color="#D9D9D9"/>
<stop offset="0.6851" stop-color="#EBEBEB"/>
<stop offset="1" stop-color="#F2F2F2"/>
</linearGradient>
<linearGradient id="paint7_linear_198_2252" x1="666.274" y1="493.514" x2="580.128" y2="579.66" gradientUnits="userSpaceOnUse">
<stop stop-color="#CCCCCC"/>
<stop offset="0.241" stop-color="#D9D9D9"/>
<stop offset="0.6851" stop-color="#EBEBEB"/>
<stop offset="1" stop-color="#F2F2F2"/>
</linearGradient>
<linearGradient id="paint8_linear_198_2252" x1="580.128" y1="579.66" x2="493.983" y2="665.805" gradientUnits="userSpaceOnUse">
<stop stop-color="#CCCCCC"/>
<stop offset="0.241" stop-color="#D9D9D9"/>
<stop offset="0.6851" stop-color="#EBEBEB"/>
<stop offset="1" stop-color="#F2F2F2"/>
</linearGradient>
<linearGradient id="paint9_linear_198_2252" x1="620.624" y1="-69.0124" x2="534.478" y2="17.1333" gradientUnits="userSpaceOnUse">
<stop stop-color="#CCCCCC"/>
<stop offset="0.241" stop-color="#D9D9D9"/>
<stop offset="0.6851" stop-color="#EBEBEB"/>
<stop offset="1" stop-color="#F2F2F2"/>
</linearGradient>
<linearGradient id="paint10_linear_198_2252" x1="501.951" y1="-101.538" x2="415.806" y2="-15.3928" gradientUnits="userSpaceOnUse">
<stop stop-color="#CCCCCC"/>
<stop offset="0.241" stop-color="#D9D9D9"/>
<stop offset="0.6851" stop-color="#EBEBEB"/>
<stop offset="1" stop-color="#F2F2F2"/>
</linearGradient>
<linearGradient id="paint11_linear_198_2252" x1="534.482" y1="17.1357" x2="448.337" y2="103.281" gradientUnits="userSpaceOnUse">
<stop stop-color="#CCCCCC"/>
<stop offset="0.241" stop-color="#D9D9D9"/>
<stop offset="0.6851" stop-color="#EBEBEB"/>
<stop offset="1" stop-color="#F2F2F2"/>
</linearGradient>
<linearGradient id="paint12_linear_198_2252" x1="448.337" y1="103.281" x2="362.191" y2="189.427" gradientUnits="userSpaceOnUse">
<stop stop-color="#CCCCCC"/>
<stop offset="0.241" stop-color="#D9D9D9"/>
<stop offset="0.6851" stop-color="#EBEBEB"/>
<stop offset="1" stop-color="#F2F2F2"/>
</linearGradient>
<linearGradient id="paint13_linear_198_2252" x1="415.808" y1="-15.3926" x2="329.662" y2="70.7531" gradientUnits="userSpaceOnUse">
<stop stop-color="#CCCCCC"/>
<stop offset="0.241" stop-color="#D9D9D9"/>
<stop offset="0.6851" stop-color="#EBEBEB"/>
<stop offset="1" stop-color="#F2F2F2"/>
</linearGradient>
<linearGradient id="paint14_linear_198_2252" x1="329.663" y1="70.7525" x2="243.517" y2="156.899" gradientUnits="userSpaceOnUse">
<stop stop-color="#CCCCCC"/>
<stop offset="0.241" stop-color="#D9D9D9"/>
<stop offset="0.6851" stop-color="#EBEBEB"/>
<stop offset="1" stop-color="#F2F2F2"/>
</linearGradient>
<linearGradient id="paint15_linear_198_2252" x1="362.189" y1="189.426" x2="276.043" y2="275.571" gradientUnits="userSpaceOnUse">
<stop stop-color="#CCCCCC"/>
<stop offset="0.241" stop-color="#D9D9D9"/>
<stop offset="0.6851" stop-color="#EBEBEB"/>
<stop offset="1" stop-color="#F2F2F2"/>
</linearGradient>
<linearGradient id="paint16_linear_198_2252" x1="276.042" y1="275.571" x2="189.896" y2="361.717" gradientUnits="userSpaceOnUse">
<stop stop-color="#CCCCCC"/>
<stop offset="0.241" stop-color="#D9D9D9"/>
<stop offset="0.6851" stop-color="#EBEBEB"/>
<stop offset="1" stop-color="#F2F2F2"/>
</linearGradient>
<linearGradient id="paint17_linear_198_2252" x1="243.514" y1="156.898" x2="157.369" y2="243.043" gradientUnits="userSpaceOnUse">
<stop stop-color="#CCCCCC"/>
<stop offset="0.241" stop-color="#D9D9D9"/>
<stop offset="0.6851" stop-color="#EBEBEB"/>
<stop offset="1" stop-color="#F2F2F2"/>
</linearGradient>
<linearGradient id="paint18_linear_198_2252" x1="157.369" y1="243.043" x2="71.2236" y2="329.189" gradientUnits="userSpaceOnUse">
<stop stop-color="#CCCCCC"/>
<stop offset="0.241" stop-color="#D9D9D9"/>
<stop offset="0.6851" stop-color="#EBEBEB"/>
<stop offset="1" stop-color="#F2F2F2"/>
</linearGradient>
<linearGradient id="paint19_linear_198_2252" x1="296.286" y1="-48.7652" x2="210.14" y2="37.3808" gradientUnits="userSpaceOnUse">
<stop stop-color="#CCCCCC"/>
<stop offset="0.241" stop-color="#D9D9D9"/>
<stop offset="0.6851" stop-color="#EBEBEB"/>
<stop offset="1" stop-color="#F2F2F2"/>
</linearGradient>
<linearGradient id="paint20_linear_198_2252" x1="210.144" y1="37.3825" x2="123.999" y2="123.528" gradientUnits="userSpaceOnUse">
<stop stop-color="#CCCCCC"/>
<stop offset="0.241" stop-color="#D9D9D9"/>
<stop offset="0.6851" stop-color="#EBEBEB"/>
<stop offset="1" stop-color="#F2F2F2"/>
</linearGradient>
<linearGradient id="paint21_linear_198_2252" x1="123.998" y1="123.526" x2="37.8525" y2="209.672" gradientUnits="userSpaceOnUse">
<stop stop-color="#CCCCCC"/>
<stop offset="0.241" stop-color="#D9D9D9"/>
<stop offset="0.6851" stop-color="#EBEBEB"/>
<stop offset="1" stop-color="#F2F2F2"/>
</linearGradient>
<clipPath id="clip0_198_2252">
<rect width="565" height="874" fill="white" transform="matrix(-1 0 0 1 565 0)"/>
</clipPath>
</defs>
</svg>
