<svg width="60" height="59" viewBox="0 0 60 59" fill="none" xmlns="http://www.w3.org/2000/svg">
<path d="M27.744 4.92939C22.9867 4.92939 18.3185 6.21999 14.2367 8.66368C10.155 11.1074 6.81262 14.6126 4.56578 18.806C2.31894 22.9993 1.25177 27.7236 1.47799 32.4756C1.7042 37.2275 3.21532 41.8291 5.85035 45.7901C8.48537 49.751 12.1456 52.9229 16.441 54.9678C20.7364 57.0127 25.5062 57.854 30.242 57.4021C34.9778 56.9502 39.5023 55.2219 43.3335 52.4016C47.1647 49.5812 50.1589 45.7743 51.9972 41.3865L27.744 31.2252L27.744 4.92939Z" fill="#0047FF"/>
<path d="M55.9886 38.811C57.7884 34.8246 58.5653 30.4523 58.2492 26.0899C57.933 21.7276 56.5337 17.513 54.1779 13.8278C51.8222 10.1426 48.5844 7.10318 44.7578 4.98484C40.9312 2.86651 36.6366 1.73614 32.263 1.69609L32.0221 27.9908L55.9886 38.811Z" fill="#BFC6F0"/>
</svg>
