<svg width="504" height="210" viewBox="0 0 504 210" fill="none" xmlns="http://www.w3.org/2000/svg">
<path d="M194.087 13.1226C233.656 31.4774 278.292 34.5455 321.666 38.6045C365.099 42.6914 409.94 48.5272 447.042 71.489C484.084 94.4229 511.326 138.993 500.746 181.337C492.667 213.82 465.404 237.302 441.377 260.654C417.408 284.034 393.835 313.592 396.887 346.938C399.56 376.206 421.728 399.178 436.97 424.287C457.202 457.602 465.79 498.763 456.455 536.643C447.121 574.524 418.677 608.129 381.446 619.75C343.259 631.714 301.006 620.101 266.613 599.648C232.219 579.194 203.571 550.559 172.942 524.74C118.933 479.274 57.9853 442.074 -7.23655 414.978C-48.8246 397.689 -92.5764 384.213 -130.1 359.247C-167.624 334.281 -199.018 294.676 -199.757 249.577C-200.63 198.207 -162.772 154.763 -123.618 121.388C-84.5509 88.0438 -40.1575 56.8578 -19.1764 9.90659C-9.66063 -11.4317 -5.64146 -34.7203 -0.0341201 -57.402C5.57324 -80.0837 13.3051 -102.987 28.7367 -120.517C44.1683 -138.047 68.8693 -149.099 91.2925 -142.68C129.157 -131.699 116.389 -94.7934 123.357 -66.5245C132.213 -30.506 161.147 -2.16895 194.087 13.1226Z" fill="#0D50FF"/>
</svg>
