<svg width="104" height="78" viewBox="0 0 104 78" fill="none" xmlns="http://www.w3.org/2000/svg">
<path d="M7.96249 -2.41128C1.35324 6.89341 0.886061 19.2663 2.45672 30.5667C4.69254 46.8247 11.3138 63.4475 24.7282 72.8754C27.2628 74.6816 30.1954 76.2086 33.2855 76.0711C38.1129 75.8639 41.7746 71.6875 44.3141 67.5779C50.5937 57.3196 53.6015 45.3971 55.964 33.5701C58.1631 22.5604 59.8541 11.4605 61.037 0.270623C61.9601 -8.46861 62.5897 -17.4068 60.5615 -25.9629C60.2916 -27.1787 59.8361 -28.5323 58.7247 -29.128C58.03 -29.5099 57.1842 -29.506 56.4014 -29.3021C53.1628 -28.3936 51.9756 -24.4289 51.6606 -21.0998C50.1175 -4.23899 57.3689 12.3347 67.1539 26.1546C70.2913 30.5923 74.0751 35.0887 79.3445 36.5124C86.4012 38.421 93.9665 33.8876 97.7211 27.6156C101.476 21.3436 102.253 13.7604 102.602 6.47195C103.458 -11.9725 102.113 -30.4992 98.5417 -48.6305" stroke="#3871FF" stroke-width="2" stroke-miterlimit="10"/>
</svg>
