<svg width="442" height="169" viewBox="0 0 442 169" fill="none" xmlns="http://www.w3.org/2000/svg">
<path d="M21.5765 -9.90667C29.0825 -8.69412 36.4134 -6.74524 43.5962 -4.48339C50.4951 -2.34417 57.2704 0.0896083 63.9811 2.4375C92.9742 12.5984 121.862 25.5266 143.484 46.3353C129.274 54.3621 117.468 68.4441 111.486 82.2144C107.029 92.4532 106.342 102.915 111.731 111.767C117.087 120.576 127.425 127.086 138.951 126.251C152.893 125.213 163.368 113.441 167.067 100.917C171.288 86.5891 166.92 72.6686 159.757 61.3535C156.437 56.1208 152.497 51.2871 148.124 46.8462C153.986 43.9851 160.265 42.2897 166.827 42.2969C167.51 42.2875 168.184 42.318 168.843 42.327C191.75 43.2188 209.539 60.4576 221.953 76.3606C254.149 117.714 274.017 169.242 309.612 207.873C310.387 208.702 311.147 209.508 311.923 210.336C317.879 216.577 324.261 222.466 331.214 227.891C332.687 229.034 334.201 230.181 335.723 231.288C335.958 231.448 336.209 231.629 336.444 231.788C354.437 244.708 375.22 254.353 397.648 259.604C402.584 260.765 407.588 261.708 412.682 262.416C420.822 263.554 429.072 264.073 437.407 263.991L441.106 261.21C436.942 261.383 432.787 261.415 428.601 261.202C417.57 260.656 406.806 259.037 396.405 256.472C377 251.671 358.858 243.5 342.846 232.756C323.682 219.91 308.321 203.3 294.961 185.118C294.67 184.731 294.396 184.366 294.13 183.961C288.539 176.269 283.3 168.279 278.273 160.163C259.945 130.628 244.165 99.1785 222.295 72.0716C209.273 55.9204 190.084 38.9611 166.208 39.6373C165.793 39.6466 165.394 39.6774 164.98 39.6867C158.53 40.0323 152.209 41.9271 146.241 44.9017C140.945 39.7433 135.084 35.1096 129.043 30.8471C115.949 21.6384 101.494 14.1911 86.4149 7.95269C74.4749 2.9834 62.174 -1.44583 49.6915 -5.40256C46.0149 -6.57028 42.2894 -7.70116 38.5716 -8.77069C26.3874 -12.2796 13.3284 -14.963 0 -13.2102L1.87203 -10.7197C8.51057 -11.3752 15.1917 -10.9539 21.5765 -9.90667ZM165.656 84.6059C167.403 97.6407 161.833 114.663 147.647 121.294C135.931 126.773 123.584 121.875 116.639 113.655C109.662 105.393 109.088 94.8363 113.541 84.03C118.035 73.1254 126.069 63.0543 135.392 55.2069C138.57 52.5492 141.917 50.1675 145.4 48.2214C155.198 58.0938 163.714 70.2398 165.656 84.6059Z" fill="#2965FF"/>
</svg>
