<svg width="98" height="97" viewBox="0 0 98 97" fill="none" xmlns="http://www.w3.org/2000/svg">
<path d="M32.8922 3.14838C33.7651 3.14838 34.4728 2.44359 34.4728 1.57419C34.4728 0.704788 33.7651 0 32.8922 0C32.0192 0 31.3115 0.704788 31.3115 1.57419C31.3115 2.44359 32.0192 3.14838 32.8922 3.14838Z" fill="#B5B5B5"/>
<path d="M32.8922 16.5665C33.7651 16.5665 34.4728 15.8617 34.4728 14.9923C34.4728 14.1229 33.7651 13.4181 32.8922 13.4181C32.0192 13.4181 31.3115 14.1229 31.3115 14.9923C31.3115 15.8617 32.0192 16.5665 32.8922 16.5665Z" fill="#B5B5B5"/>
<path d="M32.8922 30.0595C33.7651 30.0595 34.4728 29.3547 34.4728 28.4853C34.4728 27.6159 33.7651 26.9111 32.8922 26.9111C32.0192 26.9111 31.3115 27.6159 31.3115 28.4853C31.3115 29.3547 32.0192 30.0595 32.8922 30.0595Z" fill="#B5B5B5"/>
<path d="M32.8922 43.5526C33.7651 43.5526 34.4728 42.8478 34.4728 41.9784C34.4728 41.109 33.7651 40.4042 32.8922 40.4042C32.0192 40.4042 31.3115 41.109 31.3115 41.9784C31.3115 42.8478 32.0192 43.5526 32.8922 43.5526Z" fill="#B5B5B5"/>
<path d="M32.8922 56.5958C33.7651 56.5958 34.4728 55.891 34.4728 55.0216C34.4728 54.1522 33.7651 53.4475 32.8922 53.4475C32.0192 53.4475 31.3115 54.1522 31.3115 55.0216C31.3115 55.891 32.0192 56.5958 32.8922 56.5958Z" fill="#B5B5B5"/>
<path d="M32.8922 70.0889C33.7651 70.0889 34.4728 69.3841 34.4728 68.5147C34.4728 67.6453 33.7651 66.9405 32.8922 66.9405C32.0192 66.9405 31.3115 67.6453 31.3115 68.5147C31.3115 69.3841 32.0192 70.0889 32.8922 70.0889Z" fill="#B5B5B5"/>
<path d="M32.8922 83.507C33.7651 83.507 34.4728 82.8022 34.4728 81.9328C34.4728 81.0634 33.7651 80.3586 32.8922 80.3586C32.0192 80.3586 31.3115 81.0634 31.3115 81.9328C31.3115 82.8022 32.0192 83.507 32.8922 83.507Z" fill="#B5B5B5"/>
<path d="M32.8922 97C33.7651 97 34.4728 96.2952 34.4728 95.4258C34.4728 94.5564 33.7651 93.8516 32.8922 93.8516C32.0192 93.8516 31.3115 94.5564 31.3115 95.4258C31.3115 96.2952 32.0192 97 32.8922 97Z" fill="#B5B5B5"/>
<path d="M17.0857 3.14838C17.9587 3.14838 18.6664 2.44359 18.6664 1.57419C18.6664 0.704788 17.9587 0 17.0857 0C16.2128 0 15.5051 0.704788 15.5051 1.57419C15.5051 2.44359 16.2128 3.14838 17.0857 3.14838Z" fill="#B5B5B5"/>
<path d="M17.0857 16.5665C17.9587 16.5665 18.6664 15.8617 18.6664 14.9923C18.6664 14.1229 17.9587 13.4181 17.0857 13.4181C16.2128 13.4181 15.5051 14.1229 15.5051 14.9923C15.5051 15.8617 16.2128 16.5665 17.0857 16.5665Z" fill="#B5B5B5"/>
<path d="M17.0857 30.0595C17.9587 30.0595 18.6664 29.3547 18.6664 28.4853C18.6664 27.6159 17.9587 26.9111 17.0857 26.9111C16.2128 26.9111 15.5051 27.6159 15.5051 28.4853C15.5051 29.3547 16.2128 30.0595 17.0857 30.0595Z" fill="#B5B5B5"/>
<path d="M17.0857 43.5526C17.9587 43.5526 18.6664 42.8478 18.6664 41.9784C18.6664 41.109 17.9587 40.4042 17.0857 40.4042C16.2128 40.4042 15.5051 41.109 15.5051 41.9784C15.5051 42.8478 16.2128 43.5526 17.0857 43.5526Z" fill="#B5B5B5"/>
<path d="M17.0857 56.5958C17.9587 56.5958 18.6664 55.891 18.6664 55.0216C18.6664 54.1522 17.9587 53.4475 17.0857 53.4475C16.2128 53.4475 15.5051 54.1522 15.5051 55.0216C15.5051 55.891 16.2128 56.5958 17.0857 56.5958Z" fill="#B5B5B5"/>
<path d="M17.0857 70.0889C17.9587 70.0889 18.6664 69.3841 18.6664 68.5147C18.6664 67.6453 17.9587 66.9405 17.0857 66.9405C16.2128 66.9405 15.5051 67.6453 15.5051 68.5147C15.5051 69.3841 16.2128 70.0889 17.0857 70.0889Z" fill="#B5B5B5"/>
<path d="M17.0857 83.507C17.9587 83.507 18.6664 82.8022 18.6664 81.9328C18.6664 81.0634 17.9587 80.3586 17.0857 80.3586C16.2128 80.3586 15.5051 81.0634 15.5051 81.9328C15.5051 82.8022 16.2128 83.507 17.0857 83.507Z" fill="#B5B5B5"/>
<path d="M17.0857 97C17.9587 97 18.6664 96.2952 18.6664 95.4258C18.6664 94.5564 17.9587 93.8516 17.0857 93.8516C16.2128 93.8516 15.5051 94.5564 15.5051 95.4258C15.5051 96.2952 16.2128 97 17.0857 97Z" fill="#B5B5B5"/>
<path d="M64.6558 3.14838C65.5287 3.14838 66.2364 2.44359 66.2364 1.57419C66.2364 0.704788 65.5287 0 64.6558 0C63.7828 0 63.0751 0.704788 63.0751 1.57419C63.0751 2.44359 63.7828 3.14838 64.6558 3.14838Z" fill="#B5B5B5"/>
<path d="M64.6558 16.5665C65.5287 16.5665 66.2364 15.8617 66.2364 14.9923C66.2364 14.1229 65.5287 13.4181 64.6558 13.4181C63.7828 13.4181 63.0751 14.1229 63.0751 14.9923C63.0751 15.8617 63.7828 16.5665 64.6558 16.5665Z" fill="#B5B5B5"/>
<path d="M64.6558 30.0595C65.5287 30.0595 66.2364 29.3547 66.2364 28.4853C66.2364 27.6159 65.5287 26.9111 64.6558 26.9111C63.7828 26.9111 63.0751 27.6159 63.0751 28.4853C63.0751 29.3547 63.7828 30.0595 64.6558 30.0595Z" fill="#B5B5B5"/>
<path d="M64.6558 43.5526C65.5287 43.5526 66.2364 42.8478 66.2364 41.9784C66.2364 41.109 65.5287 40.4042 64.6558 40.4042C63.7828 40.4042 63.0751 41.109 63.0751 41.9784C63.0751 42.8478 63.7828 43.5526 64.6558 43.5526Z" fill="#B5B5B5"/>
<path d="M64.6558 56.5958C65.5287 56.5958 66.2364 55.891 66.2364 55.0216C66.2364 54.1522 65.5287 53.4475 64.6558 53.4475C63.7828 53.4475 63.0751 54.1522 63.0751 55.0216C63.0751 55.891 63.7828 56.5958 64.6558 56.5958Z" fill="#B5B5B5"/>
<path d="M64.6558 70.0889C65.5287 70.0889 66.2364 69.3841 66.2364 68.5147C66.2364 67.6453 65.5287 66.9405 64.6558 66.9405C63.7828 66.9405 63.0751 67.6453 63.0751 68.5147C63.0751 69.3841 63.7828 70.0889 64.6558 70.0889Z" fill="#B5B5B5"/>
<path d="M64.6558 83.507C65.5287 83.507 66.2364 82.8022 66.2364 81.9328C66.2364 81.0634 65.5287 80.3586 64.6558 80.3586C63.7828 80.3586 63.0751 81.0634 63.0751 81.9328C63.0751 82.8022 63.7828 83.507 64.6558 83.507Z" fill="#B5B5B5"/>
<path d="M64.6558 97C65.5287 97 66.2364 96.2952 66.2364 95.4258C66.2364 94.5564 65.5287 93.8516 64.6558 93.8516C63.7828 93.8516 63.0751 94.5564 63.0751 95.4258C63.0751 96.2952 63.7828 97 64.6558 97Z" fill="#B5B5B5"/>
<path d="M48.8493 3.14838C49.7223 3.14838 50.43 2.44359 50.43 1.57419C50.43 0.704788 49.7223 0 48.8493 0C47.9763 0 47.2687 0.704788 47.2687 1.57419C47.2687 2.44359 47.9763 3.14838 48.8493 3.14838Z" fill="#B5B5B5"/>
<path d="M48.8493 16.5665C49.7223 16.5665 50.43 15.8617 50.43 14.9923C50.43 14.1229 49.7223 13.4181 48.8493 13.4181C47.9763 13.4181 47.2687 14.1229 47.2687 14.9923C47.2687 15.8617 47.9763 16.5665 48.8493 16.5665Z" fill="#B5B5B5"/>
<path d="M48.8493 30.0595C49.7223 30.0595 50.43 29.3547 50.43 28.4853C50.43 27.6159 49.7223 26.9111 48.8493 26.9111C47.9763 26.9111 47.2687 27.6159 47.2687 28.4853C47.2687 29.3547 47.9763 30.0595 48.8493 30.0595Z" fill="#B5B5B5"/>
<path d="M48.8493 43.5526C49.7223 43.5526 50.43 42.8478 50.43 41.9784C50.43 41.109 49.7223 40.4042 48.8493 40.4042C47.9763 40.4042 47.2687 41.109 47.2687 41.9784C47.2687 42.8478 47.9763 43.5526 48.8493 43.5526Z" fill="#B5B5B5"/>
<path d="M48.8493 56.5958C49.7223 56.5958 50.43 55.891 50.43 55.0216C50.43 54.1522 49.7223 53.4475 48.8493 53.4475C47.9763 53.4475 47.2687 54.1522 47.2687 55.0216C47.2687 55.891 47.9763 56.5958 48.8493 56.5958Z" fill="#B5B5B5"/>
<path d="M48.8493 70.0889C49.7223 70.0889 50.43 69.3841 50.43 68.5147C50.43 67.6453 49.7223 66.9405 48.8493 66.9405C47.9763 66.9405 47.2687 67.6453 47.2687 68.5147C47.2687 69.3841 47.9763 70.0889 48.8493 70.0889Z" fill="#B5B5B5"/>
<path d="M48.8493 83.507C49.7223 83.507 50.43 82.8022 50.43 81.9328C50.43 81.0634 49.7223 80.3586 48.8493 80.3586C47.9763 80.3586 47.2687 81.0634 47.2687 81.9328C47.2687 82.8022 47.9763 83.507 48.8493 83.507Z" fill="#B5B5B5"/>
<path d="M48.8493 97C49.7223 97 50.43 96.2952 50.43 95.4258C50.43 94.5564 49.7223 93.8516 48.8493 93.8516C47.9763 93.8516 47.2687 94.5564 47.2687 95.4258C47.2687 96.2952 47.9763 97 48.8493 97Z" fill="#B5B5B5"/>
<path d="M96.4194 3.14838C97.2923 3.14838 98 2.44359 98 1.57419C98 0.704788 97.2923 0 96.4194 0C95.5464 0 94.8387 0.704788 94.8387 1.57419C94.8387 2.44359 95.5464 3.14838 96.4194 3.14838Z" fill="#B5B5B5"/>
<path d="M96.4194 16.5665C97.2923 16.5665 98 15.8617 98 14.9923C98 14.1229 97.2923 13.4181 96.4194 13.4181C95.5464 13.4181 94.8387 14.1229 94.8387 14.9923C94.8387 15.8617 95.5464 16.5665 96.4194 16.5665Z" fill="#B5B5B5"/>
<path d="M96.4194 30.0595C97.2923 30.0595 98 29.3547 98 28.4853C98 27.6159 97.2923 26.9111 96.4194 26.9111C95.5464 26.9111 94.8387 27.6159 94.8387 28.4853C94.8387 29.3547 95.5464 30.0595 96.4194 30.0595Z" fill="#B5B5B5"/>
<path d="M96.4194 43.5526C97.2923 43.5526 98 42.8478 98 41.9784C98 41.109 97.2923 40.4042 96.4194 40.4042C95.5464 40.4042 94.8387 41.109 94.8387 41.9784C94.8387 42.8478 95.5464 43.5526 96.4194 43.5526Z" fill="#B5B5B5"/>
<path d="M96.4194 56.5958C97.2923 56.5958 98 55.891 98 55.0216C98 54.1522 97.2923 53.4475 96.4194 53.4475C95.5464 53.4475 94.8387 54.1522 94.8387 55.0216C94.8387 55.891 95.5464 56.5958 96.4194 56.5958Z" fill="#B5B5B5"/>
<path d="M96.4194 70.0889C97.2923 70.0889 98 69.3841 98 68.5147C98 67.6453 97.2923 66.9405 96.4194 66.9405C95.5464 66.9405 94.8387 67.6453 94.8387 68.5147C94.8387 69.3841 95.5464 70.0889 96.4194 70.0889Z" fill="#B5B5B5"/>
<path d="M96.4194 83.507C97.2923 83.507 98 82.8022 98 81.9328C98 81.0634 97.2923 80.3586 96.4194 80.3586C95.5464 80.3586 94.8387 81.0634 94.8387 81.9328C94.8387 82.8022 95.5464 83.507 96.4194 83.507Z" fill="#B5B5B5"/>
<path d="M96.4194 97C97.2923 97 98 96.2952 98 95.4258C98 94.5564 97.2923 93.8516 96.4194 93.8516C95.5464 93.8516 94.8387 94.5564 94.8387 95.4258C94.8387 96.2952 95.5464 97 96.4194 97Z" fill="#B5B5B5"/>
<path d="M80.6129 3.14838C81.4859 3.14838 82.1935 2.44359 82.1935 1.57419C82.1935 0.704788 81.4859 0 80.6129 0C79.7399 0 79.0323 0.704788 79.0323 1.57419C79.0323 2.44359 79.7399 3.14838 80.6129 3.14838Z" fill="#B5B5B5"/>
<path d="M80.6129 16.5665C81.4859 16.5665 82.1935 15.8617 82.1935 14.9923C82.1935 14.1229 81.4859 13.4181 80.6129 13.4181C79.7399 13.4181 79.0323 14.1229 79.0323 14.9923C79.0323 15.8617 79.7399 16.5665 80.6129 16.5665Z" fill="#B5B5B5"/>
<path d="M80.6129 30.0595C81.4859 30.0595 82.1935 29.3547 82.1935 28.4853C82.1935 27.6159 81.4859 26.9111 80.6129 26.9111C79.7399 26.9111 79.0323 27.6159 79.0323 28.4853C79.0323 29.3547 79.7399 30.0595 80.6129 30.0595Z" fill="#B5B5B5"/>
<path d="M80.6129 43.5526C81.4859 43.5526 82.1935 42.8478 82.1935 41.9784C82.1935 41.109 81.4859 40.4042 80.6129 40.4042C79.7399 40.4042 79.0323 41.109 79.0323 41.9784C79.0323 42.8478 79.7399 43.5526 80.6129 43.5526Z" fill="#B5B5B5"/>
<path d="M80.6129 56.5958C81.4859 56.5958 82.1935 55.891 82.1935 55.0216C82.1935 54.1522 81.4859 53.4475 80.6129 53.4475C79.7399 53.4475 79.0323 54.1522 79.0323 55.0216C79.0323 55.891 79.7399 56.5958 80.6129 56.5958Z" fill="#B5B5B5"/>
<path d="M80.6129 70.0889C81.4859 70.0889 82.1935 69.3841 82.1935 68.5147C82.1935 67.6453 81.4859 66.9405 80.6129 66.9405C79.7399 66.9405 79.0323 67.6453 79.0323 68.5147C79.0323 69.3841 79.7399 70.0889 80.6129 70.0889Z" fill="#B5B5B5"/>
<path d="M80.6129 83.507C81.4859 83.507 82.1935 82.8022 82.1935 81.9328C82.1935 81.0634 81.4859 80.3586 80.6129 80.3586C79.7399 80.3586 79.0323 81.0634 79.0323 81.9328C79.0323 82.8022 79.7399 83.507 80.6129 83.507Z" fill="#B5B5B5"/>
<path d="M80.6129 97C81.4859 97 82.1935 96.2952 82.1935 95.4258C82.1935 94.5564 81.4859 93.8516 80.6129 93.8516C79.7399 93.8516 79.0323 94.5564 79.0323 95.4258C79.0323 96.2952 79.7399 97 80.6129 97Z" fill="#B5B5B5"/>
<path d="M1.58065 3.14838C2.45361 3.14838 3.16129 2.44359 3.16129 1.57419C3.16129 0.704788 2.45361 0 1.58065 0C0.707679 0 0 0.704788 0 1.57419C0 2.44359 0.707679 3.14838 1.58065 3.14838Z" fill="#B5B5B5"/>
<path d="M1.58065 16.5665C2.45361 16.5665 3.16129 15.8617 3.16129 14.9923C3.16129 14.1229 2.45361 13.4181 1.58065 13.4181C0.707679 13.4181 0 14.1229 0 14.9923C0 15.8617 0.707679 16.5665 1.58065 16.5665Z" fill="#B5B5B5"/>
<path d="M1.58065 30.0595C2.45361 30.0595 3.16129 29.3547 3.16129 28.4853C3.16129 27.6159 2.45361 26.9111 1.58065 26.9111C0.707679 26.9111 0 27.6159 0 28.4853C0 29.3547 0.707679 30.0595 1.58065 30.0595Z" fill="#B5B5B5"/>
<path d="M1.58065 43.5526C2.45361 43.5526 3.16129 42.8478 3.16129 41.9784C3.16129 41.109 2.45361 40.4042 1.58065 40.4042C0.707679 40.4042 0 41.109 0 41.9784C0 42.8478 0.707679 43.5526 1.58065 43.5526Z" fill="#B5B5B5"/>
<path d="M1.58065 56.5958C2.45361 56.5958 3.16129 55.891 3.16129 55.0216C3.16129 54.1522 2.45361 53.4475 1.58065 53.4475C0.707679 53.4475 0 54.1522 0 55.0216C0 55.891 0.707679 56.5958 1.58065 56.5958Z" fill="#B5B5B5"/>
<path d="M1.58065 70.0889C2.45361 70.0889 3.16129 69.3841 3.16129 68.5147C3.16129 67.6453 2.45361 66.9405 1.58065 66.9405C0.707679 66.9405 0 67.6453 0 68.5147C0 69.3841 0.707679 70.0889 1.58065 70.0889Z" fill="#B5B5B5"/>
<path d="M1.58065 83.507C2.45361 83.507 3.16129 82.8022 3.16129 81.9328C3.16129 81.0634 2.45361 80.3586 1.58065 80.3586C0.707679 80.3586 0 81.0634 0 81.9328C0 82.8022 0.707679 83.507 1.58065 83.507Z" fill="#B5B5B5"/>
<path d="M1.58065 97C2.45361 97 3.16129 96.2952 3.16129 95.4258C3.16129 94.5564 2.45361 93.8516 1.58065 93.8516C0.707679 93.8516 0 94.5564 0 95.4258C0 96.2952 0.707679 97 1.58065 97Z" fill="#B5B5B5"/>
</svg>
