<svg width="104" height="78" viewBox="0 0 104 78" fill="none" xmlns="http://www.w3.org/2000/svg">
<path d="M7.96249 -2.41122C1.35324 6.89347 0.886061 19.2663 2.45672 30.5668C4.69254 46.8247 11.3138 63.4476 24.7282 72.8755C27.2628 74.6816 30.1954 76.2087 33.2855 76.0711C38.1129 75.864 41.7746 71.6875 44.3141 67.5779C50.5937 57.3196 53.6015 45.3972 55.964 33.5702C58.1631 22.5604 59.8541 11.4606 61.037 0.270684C61.9601 -8.46855 62.5897 -17.4067 60.5615 -25.9628C60.2916 -27.1786 59.8361 -28.5322 58.7247 -29.1279C58.03 -29.5098 57.1842 -29.5059 56.4014 -29.302C53.1628 -28.3936 51.9756 -24.4288 51.6606 -21.0998C50.1175 -4.23893 57.3689 12.3348 67.1539 26.1546C70.2913 30.5924 74.0751 35.0887 79.3445 36.5125C86.4012 38.421 93.9665 33.8876 97.7211 27.6156C101.476 21.3436 102.253 13.7605 102.602 6.47201C103.458 -11.9724 102.113 -30.4991 98.5417 -48.6304" stroke="#1C1D4A" stroke-width="2" stroke-miterlimit="10"/>
</svg>
