<svg width="600" height="450" viewBox="0 0 600 450" fill="none" xmlns="http://www.w3.org/2000/svg">
<g opacity="0.2" clip-path="url(#clip0_238_1476)">
<path d="M-7.11692 -106L-7.11697 1005M29.2611 -106L29.2611 1005M65.6392 -106L65.6392 1005M102.017 -106L102.017 1005M138.395 -106L138.395 1005M174.773 -106L174.773 1005M211.151 -106L211.151 1005M247.53 -106L247.53 1005M283.908 -106L283.908 1005M320.286 -106L320.286 1005M356.664 -106L356.664 1005M393.042 -106L393.042 1005M429.42 -106L429.42 1005M465.798 -106L465.798 1005M502.176 -106L502.176 1005M538.554 -106L538.554 1005M574.932 -106L574.932 1005M611.31 -106V1005M647.688 -106V1005M684.066 -106V1005M720.444 -106V1005M756.822 -106V1005M793.2 -106V1005M829.578 -106V1005M865.956 -106V1005M902.334 -106V1005M938.712 -106V1005M975.09 -106V1005M1011.47 -106V1005M1047.85 -106V1005M1084.22 -106V1005M1120.6 -106V1005M1156.98 -106V1005M1193.36 -106V1005M1229.74 -106L1229.74 1005M1266.11 -106L1266.11 1005M1302.49 -106L1302.49 1005M1338.87 -106L1338.87 1005M1375.25 -106L1375.25 1005M1411.63 -106L1411.63 1005M1448 -106L1448 1005M1484.38 -106L1484.38 1005M1519 -85.4476L-30 -85.4478M1519 -49.0406L-30 -49.0408M1519 -12.6336L-30 -12.6338M1519 23.7734L-30 23.7733M1519 60.1804L-30 60.1803M1519 96.5874L-30 96.5873M1519 132.994L-30 132.994M1519 169.401L-30 169.401M1519 205.808L-30 205.808M1519 242.215L-30 242.215M1519 278.622L-30 278.622M1519 315.029L-30 315.029M1519 351.436L-30 351.436M1519 387.843L-30 387.843M1519 424.25L-30 424.25M1519 460.657L-30 460.657M1519 497.064L-30 497.064M1519 533.471L-30 533.471M1519 569.878L-30 569.878M1519 606.285L-30 606.285M1519 642.692L-30 642.692M1519 679.099L-30 679.099M1519 715.506L-30 715.506M1519 751.913L-30 751.913M1519 788.32L-30 788.32M1519 824.727L-30 824.727M1519 861.134L-30 861.134M1519 897.541L-30 897.541M1519 933.948L-30 933.948M1519 970.355L-30 970.355" stroke="url(#paint0_linear_238_1476)" stroke-width="1.34228"/>
</g>
<defs>
<linearGradient id="paint0_linear_238_1476" x1="744.5" y1="-106" x2="744.5" y2="1005" gradientUnits="userSpaceOnUse">
<stop stop-color="white" stop-opacity="0.5"/>
<stop offset="1" stop-color="white" stop-opacity="0"/>
</linearGradient>
<clipPath id="clip0_238_1476">
<rect width="600" height="450" fill="white"/>
</clipPath>
</defs>
</svg>
