<svg width="442" height="169" viewBox="0 0 442 169" fill="none" xmlns="http://www.w3.org/2000/svg">
<path d="M21.5765 -9.90673C29.0825 -8.69418 36.4134 -6.7453 43.5962 -4.48345C50.4951 -2.34423 57.2704 0.0895473 63.9811 2.43744C92.9742 12.5984 121.862 25.5266 143.484 46.3352C129.274 54.362 117.468 68.444 111.486 82.2144C107.029 92.4531 106.342 102.915 111.731 111.767C117.087 120.576 127.425 127.086 138.951 126.251C152.893 125.213 163.368 113.441 167.067 100.917C171.288 86.589 166.92 72.6685 159.757 61.3534C156.437 56.1207 152.497 51.287 148.124 46.8461C153.986 43.9851 160.265 42.2897 166.827 42.2969C167.51 42.2874 168.184 42.3179 168.843 42.3269C191.75 43.2187 209.539 60.4576 221.953 76.3605C254.149 117.714 274.017 169.242 309.612 207.873C310.387 208.702 311.147 209.508 311.923 210.336C317.879 216.577 324.261 222.466 331.214 227.891C332.687 229.034 334.201 230.181 335.723 231.288C335.958 231.448 336.209 231.629 336.444 231.788C354.437 244.707 375.22 254.352 397.648 259.604C402.584 260.765 407.588 261.708 412.682 262.415C420.822 263.554 429.072 264.073 437.407 263.991L441.106 261.21C436.942 261.383 432.787 261.415 428.601 261.202C417.57 260.656 406.806 259.037 396.405 256.472C377 251.671 358.858 243.5 342.846 232.756C323.682 219.91 308.321 203.3 294.961 185.118C294.67 184.731 294.396 184.366 294.13 183.961C288.539 176.269 283.3 168.279 278.273 160.163C259.945 130.628 244.165 99.1784 222.295 72.0715C209.273 55.9203 190.084 38.961 166.208 39.6372C165.793 39.6465 165.394 39.6773 164.98 39.6867C158.53 40.0323 152.209 41.9271 146.241 44.9017C140.945 39.7432 135.084 35.1095 129.043 30.847C115.949 21.6384 101.494 14.191 86.4149 7.95263C74.4749 2.98334 62.174 -1.4459 49.6915 -5.40262C46.0149 -6.57034 42.2894 -7.70122 38.5716 -8.77075C26.3874 -12.2797 13.3284 -14.9631 0 -13.2103L1.87203 -10.7198C8.51057 -11.3753 15.1917 -10.954 21.5765 -9.90673ZM165.656 84.6059C167.403 97.6406 161.833 114.663 147.647 121.294C135.931 126.773 123.584 121.875 116.639 113.655C109.662 105.392 109.088 94.8362 113.541 84.0299C118.035 73.1254 126.069 63.0542 135.392 55.2069C138.57 52.5491 141.917 50.1674 145.4 48.2213C155.198 58.0937 163.714 70.2397 165.656 84.6059Z" fill="#1C1D4A"/>
</svg>
