<svg width="1253" height="13" viewBox="0 0 1253 13" fill="none" xmlns="http://www.w3.org/2000/svg">
<path d="M0.434511 4.29428C0.430734 6.65069 2.33792 8.564 4.69433 8.56778C7.05075 8.57155 8.96406 6.66437 8.96783 4.30795C8.97161 1.95154 7.06442 0.0382322 4.70801 0.0344556C2.3516 0.0306791 0.438287 1.93787 0.434511 4.29428ZM1251.87 6.86557C1252.18 6.55366 1252.18 6.04712 1251.87 5.73421L1246.78 0.634884C1246.47 0.321964 1245.97 0.321152 1245.65 0.63307C1245.34 0.944989 1245.34 1.45152 1245.65 1.76444L1250.17 6.29717L1245.64 10.8154C1245.32 11.1273 1245.32 11.6338 1245.64 11.9468C1245.95 12.2597 1246.45 12.2605 1246.77 11.9486L1251.87 6.86557ZM7.69652 5.10592C8.13835 5.10663 8.4971 4.74903 8.49781 4.3072C8.49851 3.86537 8.14092 3.50663 7.69909 3.50592L7.69652 5.10592ZM13.6924 3.51553C13.2505 3.51482 12.8918 3.87242 12.8911 4.31424C12.8904 4.75607 13.248 5.11482 13.6898 5.11552L13.6924 3.51553ZM19.6831 5.12513C20.1249 5.12584 20.4836 4.76824 20.4843 4.32641C20.4851 3.88458 20.1275 3.52584 19.6856 3.52513L19.6831 5.12513ZM25.6789 3.53474C25.2371 3.53403 24.8783 3.89163 24.8776 4.33345C24.8769 4.77528 25.2345 5.13403 25.6763 5.13473L25.6789 3.53474ZM31.6696 5.14434C32.1114 5.14505 32.4702 4.78745 32.4709 4.34562C32.4716 3.90379 32.114 3.54505 31.6722 3.54434L31.6696 5.14434ZM37.6654 3.55395C37.2236 3.55324 36.8649 3.91084 36.8642 4.35266C36.8635 4.79449 37.221 5.15324 37.6629 5.15394L37.6654 3.55395ZM43.6561 5.16355C44.098 5.16426 44.4567 4.80666 44.4574 4.36483C44.4581 3.92301 44.1005 3.56426 43.6587 3.56355L43.6561 5.16355ZM49.652 3.57316C49.2102 3.57245 48.8514 3.93005 48.8507 4.37187C48.85 4.8137 49.2076 5.17245 49.6494 5.17315L49.652 3.57316ZM55.6427 5.18276C56.0845 5.18347 56.4433 4.82587 56.444 4.38404C56.4447 3.94222 56.0871 3.58347 55.6452 3.58276L55.6427 5.18276ZM61.6385 3.59237C61.1967 3.59166 60.8379 3.94926 60.8372 4.39108C60.8365 4.83291 61.1941 5.19166 61.636 5.19236L61.6385 3.59237ZM67.6292 5.20197C68.0711 5.20268 68.4298 4.84508 68.4305 4.40325C68.4312 3.96143 68.0736 3.60268 67.6318 3.60197L67.6292 5.20197ZM73.6251 3.61158C73.1832 3.61087 72.8245 3.96847 72.8238 4.41029C72.8231 4.85212 73.1807 5.21087 73.6225 5.21157L73.6251 3.61158ZM79.6158 5.22118C80.0576 5.22189 80.4163 4.86429 80.4171 4.42246C80.4178 3.98064 80.0602 3.62189 79.6183 3.62118L79.6158 5.22118ZM85.6116 3.63079C85.1698 3.63008 84.811 3.98768 84.8103 4.4295C84.8096 4.87133 85.1672 5.23008 85.609 5.23079L85.6116 3.63079ZM91.6023 5.24039C92.0441 5.2411 92.4029 4.8835 92.4036 4.44167C92.4043 3.99985 92.0467 3.6411 91.6049 3.64039L91.6023 5.24039ZM97.5981 3.65C97.1563 3.64929 96.7976 4.00689 96.7969 4.44871C96.7962 4.89054 97.1537 5.24929 97.5956 5.25L97.5981 3.65ZM103.589 5.2596C104.031 5.26031 104.389 4.90271 104.39 4.46088C104.391 4.01906 104.033 3.66031 103.591 3.6596L103.589 5.2596ZM109.585 3.66921C109.143 3.6685 108.784 4.0261 108.783 4.46792C108.783 4.90975 109.14 5.2685 109.582 5.26921L109.585 3.66921ZM115.575 5.27881C116.017 5.27952 116.376 4.92192 116.377 4.48009C116.377 4.03827 116.02 3.67952 115.578 3.67881L115.575 5.27881ZM121.571 3.68842C121.129 3.68771 120.771 4.04531 120.77 4.48713C120.769 4.92896 121.127 5.28771 121.569 5.28842L121.571 3.68842ZM127.562 5.29802C128.004 5.29873 128.363 4.94113 128.363 4.4993C128.364 4.05748 128.006 3.69873 127.564 3.69802L127.562 5.29802ZM133.558 3.70763C133.116 3.70692 132.757 4.06452 132.756 4.50635C132.756 4.94817 133.113 5.30692 133.555 5.30763L133.558 3.70763ZM139.548 5.31723C139.99 5.31794 140.349 4.96034 140.35 4.51851C140.35 4.07669 139.993 3.71794 139.551 3.71723L139.548 5.31723ZM145.544 3.72684C145.102 3.72613 144.744 4.08373 144.743 4.52556C144.742 4.96738 145.1 5.32613 145.542 5.32684L145.544 3.72684ZM151.535 5.33644C151.977 5.33715 152.336 4.97955 152.336 4.53772C152.337 4.0959 151.979 3.73715 151.538 3.73644L151.535 5.33644ZM157.531 3.74605C157.089 3.74534 156.73 4.10294 156.73 4.54477C156.729 4.98659 157.086 5.34534 157.528 5.34605L157.531 3.74605ZM163.522 5.35565C163.963 5.35636 164.322 4.99876 164.323 4.55693C164.324 4.11511 163.966 3.75636 163.524 3.75565L163.522 5.35565ZM169.517 3.76526C169.076 3.76455 168.717 4.12215 168.716 4.56398C168.715 5.0058 169.073 5.36455 169.515 5.36526L169.517 3.76526ZM175.508 5.37486C175.95 5.37557 176.309 5.01797 176.309 4.57615C176.31 4.13432 175.952 3.77557 175.511 3.77486L175.508 5.37486ZM181.504 3.78447C181.062 3.78376 180.703 4.14136 180.703 4.58319C180.702 5.02501 181.059 5.38376 181.501 5.38447L181.504 3.78447ZM187.495 5.39407C187.936 5.39478 188.295 5.03718 188.296 4.59536C188.297 4.15353 187.939 3.79478 187.497 3.79407L187.495 5.39407ZM193.49 3.80368C193.049 3.80297 192.69 4.16057 192.689 4.6024C192.688 5.04422 193.046 5.40297 193.488 5.40368L193.49 3.80368ZM199.481 5.41328C199.923 5.41399 200.282 5.05639 200.282 4.61457C200.283 4.17274 199.925 3.81399 199.484 3.81328L199.481 5.41328ZM205.477 3.82289C205.035 3.82218 204.676 4.17978 204.676 4.62161C204.675 5.06343 205.033 5.42218 205.474 5.42289L205.477 3.82289ZM211.468 5.43249C211.909 5.4332 212.268 5.0756 212.269 4.63378C212.27 4.19195 211.912 3.8332 211.47 3.83249L211.468 5.43249ZM217.463 3.8421C217.022 3.84139 216.663 4.19899 216.662 4.64082C216.661 5.08264 217.019 5.44139 217.461 5.4421L217.463 3.8421ZM223.454 5.4517C223.896 5.45241 224.255 5.09481 224.255 4.65299C224.256 4.21116 223.899 3.85241 223.457 3.8517L223.454 5.4517ZM229.45 3.86131C229.008 3.8606 228.649 4.2182 228.649 4.66003C228.648 5.10185 229.006 5.4606 229.447 5.46131L229.45 3.86131ZM235.441 5.47091C235.883 5.47162 236.241 5.11402 236.242 4.6722C236.243 4.23037 235.885 3.87162 235.443 3.87092L235.441 5.47091ZM241.437 3.88052C240.995 3.87981 240.636 4.23741 240.635 4.67924C240.635 5.12106 240.992 5.47981 241.434 5.48052L241.437 3.88052ZM247.427 5.49012C247.869 5.49083 248.228 5.13323 248.228 4.69141C248.229 4.24958 247.872 3.89083 247.43 3.89013L247.427 5.49012ZM253.423 3.89973C252.981 3.89902 252.622 4.25662 252.622 4.69845C252.621 5.14027 252.979 5.49902 253.42 5.49973L253.423 3.89973ZM259.414 5.50933C259.856 5.51004 260.214 5.15244 260.215 4.71062C260.216 4.26879 259.858 3.91004 259.416 3.90934L259.414 5.50933ZM265.41 3.91894C264.968 3.91823 264.609 4.27583 264.608 4.71766C264.608 5.15948 264.965 5.51823 265.407 5.51894L265.41 3.91894ZM271.4 5.52854C271.842 5.52925 272.201 5.17165 272.202 4.72983C272.202 4.288 271.845 3.92925 271.403 3.92855L271.4 5.52854ZM277.396 3.93815C276.954 3.93744 276.596 4.29504 276.595 4.73687C276.594 5.1787 276.952 5.53744 277.394 5.53815L277.396 3.93815ZM283.387 5.54775C283.829 5.54846 284.187 5.19086 284.188 4.74904C284.189 4.30721 283.831 3.94846 283.389 3.94776L283.387 5.54775ZM289.383 3.95736C288.941 3.95665 288.582 4.31425 288.581 4.75608C288.581 5.19791 288.938 5.55665 289.38 5.55736L289.383 3.95736ZM295.373 5.56696C295.815 5.56767 296.174 5.21007 296.175 4.76825C296.175 4.32642 295.818 3.96767 295.376 3.96697L295.373 5.56696ZM301.369 3.97657C300.927 3.97586 300.569 4.33346 300.568 4.77529C300.567 5.21712 300.925 5.57586 301.367 5.57657L301.369 3.97657ZM307.36 5.58617C307.802 5.58688 308.161 5.22929 308.161 4.78746C308.162 4.34563 307.804 3.98688 307.363 3.98618L307.36 5.58617ZM313.356 3.99578C312.914 3.99507 312.555 4.35267 312.555 4.7945C312.554 5.23633 312.911 5.59507 313.353 5.59578L313.356 3.99578ZM319.347 5.60538C319.788 5.60609 320.147 5.2485 320.148 4.80667C320.148 4.36484 319.791 4.0061 319.349 4.00539L319.347 5.60538ZM325.342 4.01499C324.901 4.01428 324.542 4.37188 324.541 4.81371C324.54 5.25554 324.898 5.61428 325.34 5.61499L325.342 4.01499ZM331.333 5.6246C331.775 5.6253 332.134 5.26771 332.134 4.82588C332.135 4.38405 331.777 4.02531 331.336 4.0246L331.333 5.6246ZM337.329 4.0342C336.887 4.03349 336.528 4.39109 336.528 4.83292C336.527 5.27475 336.885 5.63349 337.326 5.6342L337.329 4.0342ZM343.32 5.64381C343.761 5.64451 344.12 5.28692 344.121 4.84509C344.122 4.40326 343.764 4.04452 343.322 4.04381L343.32 5.64381ZM349.315 4.05341C348.874 4.0527 348.515 4.4103 348.514 4.85213C348.513 5.29396 348.871 5.6527 349.313 5.65341L349.315 4.05341ZM355.306 5.66302C355.748 5.66372 356.107 5.30613 356.107 4.8643C356.108 4.42247 355.751 4.06373 355.309 4.06302L355.306 5.66302ZM361.302 4.07262C360.86 4.07191 360.501 4.42951 360.501 4.87134C360.5 5.31317 360.858 5.67191 361.299 5.67262L361.302 4.07262ZM367.293 5.68223C367.735 5.68293 368.093 5.32534 368.094 4.88351C368.095 4.44168 367.737 4.08294 367.295 4.08223L367.293 5.68223ZM373.289 4.09183C372.847 4.09113 372.488 4.44872 372.487 4.89055C372.487 5.33238 372.844 5.69112 373.286 5.69183L373.289 4.09183ZM379.279 5.70144C379.721 5.70214 380.08 5.34455 380.081 4.90272C380.081 4.46089 379.724 4.10215 379.282 4.10144L379.279 5.70144ZM385.275 4.11104C384.833 4.11034 384.475 4.46793 384.474 4.90976C384.473 5.35159 384.831 5.71033 385.273 5.71104L385.275 4.11104ZM391.266 5.72065C391.708 5.72135 392.066 5.36376 392.067 4.92193C392.068 4.4801 391.71 4.12136 391.268 4.12065L391.266 5.72065ZM397.262 4.13025C396.82 4.12955 396.461 4.48714 396.46 4.92897C396.46 5.3708 396.817 5.72954 397.259 5.73025L397.262 4.13025ZM403.252 5.73986C403.694 5.74057 404.053 5.38297 404.054 4.94114C404.054 4.49931 403.697 4.14057 403.255 4.13986L403.252 5.73986ZM409.248 4.14946C408.806 4.14876 408.448 4.50635 408.447 4.94818C408.446 5.39001 408.804 5.74875 409.246 5.74946L409.248 4.14946ZM415.239 5.75907C415.681 5.75978 416.04 5.40218 416.04 4.96035C416.041 4.51852 415.683 4.15978 415.242 4.15907L415.239 5.75907ZM421.235 4.16867C420.793 4.16797 420.434 4.52556 420.434 4.96739C420.433 5.40922 420.79 5.76796 421.232 5.76867L421.235 4.16867ZM427.226 5.77828C427.667 5.77899 428.026 5.42139 428.027 4.97956C428.027 4.53773 427.67 4.17899 427.228 4.17828L427.226 5.77828ZM433.221 4.18788C432.78 4.18718 432.421 4.54477 432.42 4.9866C432.419 5.42843 432.777 5.78717 433.219 5.78788L433.221 4.18788ZM439.212 5.79749C439.654 5.7982 440.013 5.4406 440.013 4.99877C440.014 4.55694 439.656 4.1982 439.215 4.19749L439.212 5.79749ZM445.208 4.2071C444.766 4.20639 444.407 4.56398 444.407 5.00581C444.406 5.44764 444.764 5.80638 445.205 5.80709L445.208 4.2071ZM451.199 5.8167C451.64 5.81741 451.999 5.45981 452 5.01798C452.001 4.57615 451.643 4.21741 451.201 4.2167L451.199 5.8167ZM457.194 4.22631C456.753 4.2256 456.394 4.58319 456.393 5.02502C456.392 5.46685 456.75 5.8256 457.192 5.8263L457.194 4.22631ZM463.185 5.83591C463.627 5.83662 463.986 5.47902 463.986 5.03719C463.987 4.59536 463.63 4.23662 463.188 4.23591L463.185 5.83591ZM469.181 4.24552C468.739 4.24481 468.38 4.60241 468.38 5.04423C468.379 5.48606 468.737 5.84481 469.178 5.84551L469.181 4.24552ZM475.172 5.85512C475.614 5.85583 475.972 5.49823 475.973 5.0564C475.974 4.61457 475.616 4.25583 475.174 4.25512L475.172 5.85512ZM481.168 4.26473C480.726 4.26402 480.367 4.62162 480.366 5.06344C480.366 5.50527 480.723 5.86402 481.165 5.86472L481.168 4.26473ZM487.158 5.87433C487.6 5.87504 487.959 5.51744 487.96 5.07561C487.96 4.63378 487.603 4.27504 487.161 4.27433L487.158 5.87433ZM493.154 4.28394C492.712 4.28323 492.354 4.64083 492.353 5.08265C492.352 5.52448 492.71 5.88323 493.152 5.88393L493.154 4.28394ZM499.145 5.89354C499.587 5.89425 499.945 5.53665 499.946 5.09482C499.947 4.653 499.589 4.29425 499.147 4.29354L499.145 5.89354ZM505.141 4.30315C504.699 4.30244 504.34 4.66004 504.339 5.10186C504.339 5.54369 504.696 5.90244 505.138 5.90314L505.141 4.30315ZM511.131 5.91275C511.573 5.91346 511.932 5.55586 511.933 5.11403C511.933 4.67221 511.576 4.31346 511.134 4.31275L511.131 5.91275ZM517.127 4.32236C516.685 4.32165 516.327 4.67925 516.326 5.12107C516.325 5.5629 516.683 5.92165 517.125 5.92235L517.127 4.32236ZM523.118 5.93196C523.56 5.93267 523.919 5.57507 523.919 5.13324C523.92 4.69142 523.562 4.33267 523.121 4.33196L523.118 5.93196ZM529.114 4.34157C528.672 4.34086 528.313 4.69846 528.313 5.14028C528.312 5.58211 528.669 5.94086 529.111 5.94156L529.114 4.34157ZM535.105 5.95117C535.546 5.95188 535.905 5.59428 535.906 5.15245C535.907 4.71063 535.549 4.35188 535.107 4.35117L535.105 5.95117ZM541.1 4.36078C540.659 4.36007 540.3 4.71767 540.299 5.15949C540.298 5.60132 540.656 5.96007 541.098 5.96078L541.1 4.36078ZM547.091 5.97038C547.533 5.97109 547.892 5.61349 547.892 5.17166C547.893 4.72984 547.535 4.37109 547.094 4.37038L547.091 5.97038ZM553.087 4.37999C552.645 4.37928 552.286 4.73688 552.286 5.1787C552.285 5.62053 552.643 5.97928 553.084 5.97999L553.087 4.37999ZM559.078 5.98959C559.519 5.9903 559.878 5.6327 559.879 5.19087C559.88 4.74905 559.522 4.3903 559.08 4.38959L559.078 5.98959ZM565.073 4.3992C564.632 4.39849 564.273 4.75609 564.272 5.19791C564.272 5.63974 564.629 5.99849 565.071 5.9992L565.073 4.3992ZM571.064 6.0088C571.506 6.00951 571.865 5.65191 571.865 5.21008C571.866 4.76826 571.509 4.40951 571.067 4.4088L571.064 6.0088ZM577.06 4.41841C576.618 4.4177 576.259 4.7753 576.259 5.21712C576.258 5.65895 576.616 6.0177 577.057 6.01841L577.06 4.41841ZM583.051 6.02801C583.493 6.02872 583.851 5.67112 583.852 5.22929C583.853 4.78747 583.495 4.42872 583.053 4.42801L583.051 6.02801ZM589.047 4.43762C588.605 4.43691 588.246 4.79451 588.245 5.23634C588.245 5.67816 588.602 6.03691 589.044 6.03762L589.047 4.43762ZM595.037 6.04722C595.479 6.04793 595.838 5.69033 595.839 5.2485C595.839 4.80668 595.482 4.44793 595.04 4.44722L595.037 6.04722ZM601.033 4.45683C600.591 4.45612 600.233 4.81372 600.232 5.25555C600.231 5.69737 600.589 6.05612 601.031 6.05683L601.033 4.45683ZM607.024 6.06643C607.466 6.06714 607.824 5.70954 607.825 5.26771C607.826 4.82589 607.468 4.46714 607.026 4.46643L607.024 6.06643ZM613.02 4.47604C612.578 4.47533 612.219 4.83293 612.218 5.27476C612.218 5.71658 612.575 6.07533 613.017 6.07604L613.02 4.47604ZM619.01 6.08564C619.452 6.08635 619.811 5.72875 619.812 5.28693C619.812 4.8451 619.455 4.48635 619.013 4.48564L619.01 6.08564ZM625.006 4.49525C624.564 4.49454 624.206 4.85214 624.205 5.29397C624.204 5.73579 624.562 6.09454 625.004 6.09525L625.006 4.49525ZM630.997 6.10485C631.439 6.10556 631.798 5.74796 631.798 5.30614C631.799 4.86431 631.441 4.50556 631 4.50485L630.997 6.10485ZM636.993 4.51446C636.551 4.51375 636.192 4.87135 636.191 5.31318C636.191 5.755 636.548 6.11375 636.99 6.11446L636.993 4.51446ZM642.984 6.12406C643.425 6.12477 643.784 5.76717 643.785 5.32535C643.786 4.88352 643.428 4.52477 642.986 4.52406L642.984 6.12406ZM648.979 4.53367C648.538 4.53296 648.179 4.89056 648.178 5.33239C648.177 5.77421 648.535 6.13296 648.977 6.13367L648.979 4.53367ZM654.97 6.14327C655.412 6.14398 655.771 5.78638 655.771 5.34456C655.772 4.90273 655.414 4.54398 654.973 4.54327L654.97 6.14327ZM660.966 4.55288C660.524 4.55217 660.165 4.90977 660.165 5.3516C660.164 5.79342 660.522 6.15217 660.963 6.15288L660.966 4.55288ZM666.957 6.16248C667.398 6.16319 667.757 5.80559 667.758 5.36377C667.759 4.92194 667.401 4.56319 666.959 4.56249L666.957 6.16248ZM672.952 4.57209C672.511 4.57138 672.152 4.92898 672.151 5.37081C672.15 5.81263 672.508 6.17138 672.95 6.17209L672.952 4.57209ZM678.943 6.18169C679.385 6.1824 679.744 5.8248 679.744 5.38298C679.745 4.94115 679.388 4.5824 678.946 4.5817L678.943 6.18169ZM684.939 4.5913C684.497 4.59059 684.138 4.94819 684.138 5.39002C684.137 5.83184 684.495 6.19059 684.936 6.1913L684.939 4.5913ZM690.93 6.2009C691.372 6.20161 691.73 5.84401 691.731 5.40219C691.732 4.96036 691.374 4.60161 690.932 4.60091L690.93 6.2009ZM696.926 4.61051C696.484 4.6098 696.125 4.9674 696.124 5.40923C696.124 5.85105 696.481 6.2098 696.923 6.21051L696.926 4.61051ZM702.916 6.22011C703.358 6.22082 703.717 5.86322 703.718 5.4214C703.718 4.97957 703.361 4.62082 702.919 4.62012L702.916 6.22011ZM708.912 4.62972C708.47 4.62901 708.112 4.98661 708.111 5.42844C708.11 5.87027 708.468 6.22901 708.91 6.22972L708.912 4.62972ZM714.903 6.23932C715.345 6.24003 715.703 5.88243 715.704 5.44061C715.705 4.99878 715.347 4.64003 714.905 4.63933L714.903 6.23932ZM720.899 4.64893C720.457 4.64822 720.098 5.00582 720.097 5.44765C720.097 5.88948 720.454 6.24822 720.896 6.24893L720.899 4.64893ZM726.889 6.25853C727.331 6.25924 727.69 5.90164 727.691 5.45982C727.691 5.01799 727.334 4.65924 726.892 4.65854L726.889 6.25853ZM732.885 4.66814C732.443 4.66743 732.085 5.02503 732.084 5.46686C732.083 5.90869 732.441 6.26743 732.883 6.26814L732.885 4.66814ZM738.876 6.27774C739.318 6.27845 739.677 5.92086 739.677 5.47903C739.678 5.0372 739.32 4.67845 738.879 4.67775L738.876 6.27774ZM744.872 4.68735C744.43 4.68664 744.071 5.04424 744.071 5.48607C744.07 5.9279 744.427 6.28664 744.869 6.28735L744.872 4.68735ZM750.863 6.29696C751.304 6.29766 751.663 5.94007 751.664 5.49824C751.665 5.05641 751.307 4.69767 750.865 4.69696L750.863 6.29696ZM756.858 4.70656C756.417 4.70585 756.058 5.06345 756.057 5.50528C756.056 5.94711 756.414 6.30585 756.856 6.30656L756.858 4.70656ZM762.849 6.31617C763.291 6.31687 763.65 5.95928 763.65 5.51745C763.651 5.07562 763.293 4.71688 762.852 4.71617L762.849 6.31617ZM768.845 4.72577C768.403 4.72506 768.044 5.08266 768.044 5.52449C768.043 5.96632 768.401 6.32506 768.842 6.32577L768.845 4.72577ZM774.836 6.33538C775.277 6.33608 775.636 5.97849 775.637 5.53666C775.638 5.09483 775.28 4.73609 774.838 4.73538L774.836 6.33538ZM780.832 4.74498C780.39 4.74427 780.031 5.10187 780.03 5.5437C780.03 5.98553 780.387 6.34427 780.829 6.34498L780.832 4.74498ZM786.822 6.35459C787.264 6.35529 787.623 5.9977 787.624 5.55587C787.624 5.11404 787.267 4.7553 786.825 4.75459L786.822 6.35459ZM792.818 4.76419C792.376 4.76349 792.017 5.12108 792.017 5.56291C792.016 6.00474 792.374 6.36348 792.816 6.36419L792.818 4.76419ZM798.809 6.3738C799.251 6.3745 799.609 6.01691 799.61 5.57508C799.611 5.13325 799.253 4.77451 798.811 4.7738L798.809 6.3738ZM804.805 4.7834C804.363 4.7827 804.004 5.14029 804.003 5.58212C804.003 6.02395 804.36 6.38269 804.802 6.3834L804.805 4.7834ZM810.795 6.39301C811.237 6.39371 811.596 6.03612 811.597 5.59429C811.597 5.15246 811.24 4.79372 810.798 4.79301L810.795 6.39301ZM816.791 4.80261C816.349 4.80191 815.991 5.1595 815.99 5.60133C815.989 6.04316 816.347 6.4019 816.789 6.40261L816.791 4.80261ZM822.782 6.41222C823.224 6.41292 823.583 6.05533 823.583 5.6135C823.584 5.17167 823.226 4.81293 822.784 4.81222L822.782 6.41222ZM828.778 4.82182C828.336 4.82112 827.977 5.17871 827.976 5.62054C827.976 6.06237 828.333 6.42111 828.775 6.42182L828.778 4.82182ZM834.768 6.43143C835.21 6.43214 835.569 6.07454 835.57 5.63271C835.57 5.19088 835.213 4.83214 834.771 4.83143L834.768 6.43143ZM840.764 4.84103C840.322 4.84033 839.964 5.19792 839.963 5.63975C839.962 6.08158 840.32 6.44032 840.762 6.44103L840.764 4.84103ZM846.755 6.45064C847.197 6.45135 847.556 6.09375 847.556 5.65192C847.557 5.21009 847.199 4.85135 846.758 4.85064L846.755 6.45064ZM852.751 4.86024C852.309 4.85954 851.95 5.21713 851.95 5.65896C851.949 6.10079 852.307 6.45953 852.748 6.46024L852.751 4.86024ZM858.741 6.46985C859.183 6.47056 859.542 6.11296 859.543 5.67113C859.544 5.2293 859.186 4.87056 858.744 4.86985L858.741 6.46985ZM864.737 4.87945C864.296 4.87875 863.937 5.23634 863.936 5.67817C863.935 6.12 864.293 6.47874 864.735 6.47945L864.737 4.87945ZM870.728 6.48906C871.17 6.48977 871.529 6.13217 871.529 5.69034C871.53 5.24851 871.173 4.88977 870.731 4.88906L870.728 6.48906ZM876.724 4.89867C876.282 4.89796 875.923 5.25555 875.923 5.69738C875.922 6.13921 876.28 6.49795 876.721 6.49866L876.724 4.89867ZM882.715 6.50827C883.157 6.50898 883.515 6.15138 883.516 5.70955C883.517 5.26772 883.159 4.90898 882.717 4.90827L882.715 6.50827ZM888.711 4.91788C888.269 4.91717 887.91 5.27477 887.909 5.71659C887.909 6.15842 888.266 6.51717 888.708 6.51787L888.711 4.91788ZM894.701 6.52748C895.143 6.52819 895.502 6.17059 895.502 5.72876C895.503 5.28693 895.146 4.92819 894.704 4.92748L894.701 6.52748ZM900.697 4.93709C900.255 4.93638 899.897 5.29398 899.896 5.7358C899.895 6.17763 900.253 6.53638 900.695 6.53708L900.697 4.93709ZM906.688 6.54669C907.13 6.5474 907.488 6.1898 907.489 5.74797C907.49 5.30614 907.132 4.9474 906.69 4.94669L906.688 6.54669ZM912.684 4.9563C912.242 4.95559 911.883 5.31319 911.882 5.75501C911.882 6.19684 912.239 6.55559 912.681 6.55629L912.684 4.9563ZM918.674 6.5659C919.116 6.56661 919.475 6.20901 919.476 5.76718C919.476 5.32536 919.119 4.96661 918.677 4.9659L918.674 6.5659ZM924.67 4.97551C924.228 4.9748 923.87 5.3324 923.869 5.77422C923.868 6.21605 924.226 6.5748 924.668 6.5755L924.67 4.97551ZM930.661 6.58511C931.103 6.58582 931.461 6.22822 931.462 5.78639C931.463 5.34457 931.105 4.98582 930.663 4.98511L930.661 6.58511ZM936.657 4.99472C936.215 4.99401 935.856 5.35161 935.855 5.79343C935.855 6.23526 936.212 6.59401 936.654 6.59471L936.657 4.99472ZM942.647 6.60432C943.089 6.60503 943.448 6.24743 943.449 5.8056C943.449 5.36378 943.092 5.00503 942.65 5.00432L942.647 6.60432ZM948.643 5.01393C948.202 5.01322 947.843 5.37082 947.842 5.81264C947.841 6.25447 948.199 6.61322 948.641 6.61392L948.643 5.01393ZM954.634 6.62353C955.076 6.62424 955.435 6.26664 955.435 5.82481C955.436 5.38299 955.078 5.02424 954.637 5.02353L954.634 6.62353ZM960.63 5.03314C960.188 5.03243 959.829 5.39003 959.829 5.83185C959.828 6.27368 960.185 6.63243 960.627 6.63313L960.63 5.03314ZM966.621 6.64274C967.062 6.64345 967.421 6.28585 967.422 5.84402C967.423 5.4022 967.065 5.04345 966.623 5.04274L966.621 6.64274ZM972.616 5.05235C972.175 5.05164 971.816 5.40924 971.815 5.85106C971.814 6.29289 972.172 6.65164 972.614 6.65235L972.616 5.05235ZM978.607 6.66195C979.049 6.66266 979.408 6.30506 979.408 5.86323C979.409 5.42141 979.052 5.06266 978.61 5.06195L978.607 6.66195ZM984.603 5.07156C984.161 5.07085 983.802 5.42845 983.802 5.87027C983.801 6.3121 984.159 6.67085 984.6 6.67156L984.603 5.07156ZM990.594 6.68116C991.036 6.68187 991.394 6.32427 991.395 5.88244C991.396 5.44062 991.038 5.08187 990.596 5.08116L990.594 6.68116ZM996.59 5.09077C996.148 5.09006 995.789 5.44766 995.788 5.88948C995.788 6.33131 996.145 6.69006 996.587 6.69077L996.59 5.09077ZM1002.58 6.70037C1003.02 6.70108 1003.38 6.34348 1003.38 5.90165C1003.38 5.45983 1003.02 5.10108 1002.58 5.10037L1002.58 6.70037ZM1008.58 5.10998C1008.13 5.10927 1007.78 5.46687 1007.77 5.9087C1007.77 6.35052 1008.13 6.70927 1008.57 6.70998L1008.58 5.10998ZM1014.57 6.71958C1015.01 6.72029 1015.37 6.36269 1015.37 5.92086C1015.37 5.47904 1015.01 5.12029 1014.57 5.11958L1014.57 6.71958ZM1020.56 5.12919C1020.12 5.12848 1019.76 5.48608 1019.76 5.92791C1019.76 6.36973 1020.12 6.72848 1020.56 6.72919L1020.56 5.12919ZM1026.55 6.73879C1027 6.7395 1027.35 6.3819 1027.35 5.94007C1027.36 5.49825 1027 5.1395 1026.56 5.13879L1026.55 6.73879ZM1032.55 5.1484C1032.11 5.14769 1031.75 5.50529 1031.75 5.94712C1031.75 6.38894 1032.1 6.74769 1032.55 6.7484L1032.55 5.1484ZM1038.54 6.758C1038.98 6.75871 1039.34 6.40111 1039.34 5.95928C1039.34 5.51746 1038.98 5.15871 1038.54 5.158L1038.54 6.758ZM1044.54 5.16761C1044.09 5.1669 1043.74 5.5245 1043.73 5.96633C1043.73 6.40815 1044.09 6.7669 1044.53 6.76761L1044.54 5.16761ZM1050.53 6.77721C1050.97 6.77792 1051.33 6.42032 1051.33 5.9785C1051.33 5.53667 1050.97 5.17792 1050.53 5.17721L1050.53 6.77721ZM1056.52 5.18682C1056.08 5.18611 1055.72 5.54371 1055.72 5.98554C1055.72 6.42736 1056.08 6.78611 1056.52 6.78682L1056.52 5.18682ZM1062.51 6.79642C1062.95 6.79713 1063.31 6.43953 1063.31 5.99771C1063.31 5.55588 1062.96 5.19713 1062.52 5.19642L1062.51 6.79642ZM1068.51 5.20603C1068.07 5.20532 1067.71 5.56292 1067.71 6.00475C1067.71 6.44657 1068.06 6.80532 1068.51 6.80603L1068.51 5.20603ZM1074.5 6.81563C1074.94 6.81634 1075.3 6.45874 1075.3 6.01692C1075.3 5.57509 1074.94 5.21634 1074.5 5.21563L1074.5 6.81563ZM1080.5 5.22524C1080.05 5.22453 1079.69 5.58213 1079.69 6.02396C1079.69 6.46578 1080.05 6.82453 1080.49 6.82524L1080.5 5.22524ZM1086.49 6.83484C1086.93 6.83555 1087.29 6.47795 1087.29 6.03613C1087.29 5.5943 1086.93 5.23555 1086.49 5.23484L1086.49 6.83484ZM1092.48 5.24445C1092.04 5.24374 1091.68 5.60134 1091.68 6.04317C1091.68 6.48499 1092.04 6.84374 1092.48 6.84445L1092.48 5.24445ZM1098.47 6.85405C1098.91 6.85476 1099.27 6.49716 1099.27 6.05534C1099.27 5.61351 1098.92 5.25476 1098.48 5.25406L1098.47 6.85405ZM1104.47 5.26366C1104.03 5.26295 1103.67 5.62055 1103.67 6.06238C1103.67 6.5042 1104.02 6.86295 1104.47 6.86366L1104.47 5.26366ZM1110.46 6.87326C1110.9 6.87397 1111.26 6.51637 1111.26 6.07455C1111.26 5.63272 1110.9 5.27397 1110.46 5.27327L1110.46 6.87326ZM1116.46 5.28287C1116.01 5.28216 1115.65 5.63976 1115.65 6.08159C1115.65 6.52341 1116.01 6.88216 1116.45 6.88287L1116.46 5.28287ZM1122.45 6.89247C1122.89 6.89318 1123.25 6.53558 1123.25 6.09376C1123.25 5.65193 1122.89 5.29318 1122.45 5.29248L1122.45 6.89247ZM1128.44 5.30208C1128 5.30137 1127.64 5.65897 1127.64 6.1008C1127.64 6.54262 1128 6.90137 1128.44 6.90208L1128.44 5.30208ZM1134.43 6.91168C1134.87 6.91239 1135.23 6.55479 1135.23 6.11297C1135.23 5.67114 1134.88 5.31239 1134.43 5.31169L1134.43 6.91168ZM1140.43 5.32129C1139.99 5.32058 1139.63 5.67818 1139.63 6.12001C1139.63 6.56184 1139.98 6.92058 1140.43 6.92129L1140.43 5.32129ZM1146.42 6.93089C1146.86 6.9316 1147.22 6.574 1147.22 6.13218C1147.22 5.69035 1146.86 5.3316 1146.42 5.3309L1146.42 6.93089ZM1152.41 5.3405C1151.97 5.33979 1151.61 5.69739 1151.61 6.13922C1151.61 6.58105 1151.97 6.93979 1152.41 6.9405L1152.41 5.3405ZM1158.41 6.9501C1158.85 6.95081 1159.21 6.59321 1159.21 6.15139C1159.21 5.70956 1158.85 5.35081 1158.41 5.35011L1158.41 6.9501ZM1164.4 5.35971C1163.96 5.359 1163.6 5.7166 1163.6 6.15843C1163.6 6.60026 1163.96 6.959 1164.4 6.95971L1164.4 5.35971ZM1170.39 6.96931C1170.83 6.97002 1171.19 6.61243 1171.19 6.1706C1171.19 5.72877 1170.84 5.37003 1170.39 5.36932L1170.39 6.96931ZM1176.39 5.37892C1175.95 5.37821 1175.59 5.73581 1175.59 6.17764C1175.59 6.61947 1175.94 6.97821 1176.39 6.97892L1176.39 5.37892ZM1182.38 6.98853C1182.82 6.98923 1183.18 6.63164 1183.18 6.18981C1183.18 5.74798 1182.82 5.38924 1182.38 5.38853L1182.38 6.98853ZM1188.37 5.39813C1187.93 5.39742 1187.57 5.75502 1187.57 6.19685C1187.57 6.63868 1187.93 6.99742 1188.37 6.99813L1188.37 5.39813ZM1194.37 7.00774C1194.81 7.00844 1195.17 6.65085 1195.17 6.20902C1195.17 5.76719 1194.81 5.40845 1194.37 5.40774L1194.37 7.00774ZM1200.36 5.41734C1199.92 5.41663 1199.56 5.77423 1199.56 6.21606C1199.56 6.65789 1199.92 7.01663 1200.36 7.01734L1200.36 5.41734ZM1206.35 7.02695C1206.79 7.02765 1207.15 6.67006 1207.15 6.22823C1207.15 5.7864 1206.8 5.42766 1206.35 5.42695L1206.35 7.02695ZM1212.35 5.43655C1211.91 5.43584 1211.55 5.79344 1211.55 6.23527C1211.55 6.6771 1211.9 7.03584 1212.34 7.03655L1212.35 5.43655ZM1218.34 7.04616C1218.78 7.04686 1219.14 6.68927 1219.14 6.24744C1219.14 5.80561 1218.78 5.44687 1218.34 5.44616L1218.34 7.04616ZM1224.33 5.45576C1223.89 5.45505 1223.53 5.81265 1223.53 6.25448C1223.53 6.69631 1223.89 7.05505 1224.33 7.05576L1224.33 5.45576ZM1230.32 7.06537C1230.77 7.06607 1231.13 6.70848 1231.13 6.26665C1231.13 5.82482 1230.77 5.46608 1230.33 5.46537L1230.32 7.06537ZM1236.32 5.47497C1235.88 5.47427 1235.52 5.83186 1235.52 6.27369C1235.52 6.71552 1235.88 7.07426 1236.32 7.07497L1236.32 5.47497ZM1242.31 7.08458C1242.75 7.08528 1243.11 6.72769 1243.11 6.28586C1243.11 5.84403 1242.76 5.48529 1242.31 5.48458L1242.31 7.08458ZM1248.31 5.49418C1247.87 5.49348 1247.51 5.85107 1247.51 6.2929C1247.51 6.73473 1247.86 7.09347 1248.3 7.09418L1248.31 5.49418ZM4.69989 5.10112L7.69652 5.10592L7.69909 3.50592L4.70245 3.50112L4.69989 5.10112ZM13.6898 5.11552L19.6831 5.12513L19.6856 3.52513L13.6924 3.51553L13.6898 5.11552ZM25.6763 5.13473L31.6696 5.14434L31.6722 3.54434L25.6789 3.53474L25.6763 5.13473ZM37.6629 5.15394L43.6561 5.16355L43.6587 3.56355L37.6654 3.55395L37.6629 5.15394ZM49.6494 5.17315L55.6427 5.18276L55.6452 3.58276L49.652 3.57316L49.6494 5.17315ZM61.636 5.19236L67.6292 5.20197L67.6318 3.60197L61.6385 3.59237L61.636 5.19236ZM73.6225 5.21157L79.6158 5.22118L79.6183 3.62118L73.6251 3.61158L73.6225 5.21157ZM85.609 5.23079L91.6023 5.24039L91.6049 3.64039L85.6116 3.63079L85.609 5.23079ZM97.5956 5.25L103.589 5.2596L103.591 3.6596L97.5981 3.65L97.5956 5.25ZM109.582 5.26921L115.575 5.27881L115.578 3.67881L109.585 3.66921L109.582 5.26921ZM121.569 5.28842L127.562 5.29802L127.564 3.69802L121.571 3.68842L121.569 5.28842ZM133.555 5.30763L139.548 5.31723L139.551 3.71723L133.558 3.70763L133.555 5.30763ZM145.542 5.32684L151.535 5.33644L151.538 3.73644L145.544 3.72684L145.542 5.32684ZM157.528 5.34605L163.522 5.35565L163.524 3.75565L157.531 3.74605L157.528 5.34605ZM169.515 5.36526L175.508 5.37486L175.511 3.77486L169.517 3.76526L169.515 5.36526ZM181.501 5.38447L187.495 5.39407L187.497 3.79407L181.504 3.78447L181.501 5.38447ZM193.488 5.40368L199.481 5.41328L199.484 3.81328L193.49 3.80368L193.488 5.40368ZM205.474 5.42289L211.468 5.43249L211.47 3.83249L205.477 3.82289L205.474 5.42289ZM217.461 5.4421L223.454 5.4517L223.457 3.8517L217.463 3.8421L217.461 5.4421ZM229.447 5.46131L235.441 5.47091L235.443 3.87092L229.45 3.86131L229.447 5.46131ZM241.434 5.48052L247.427 5.49012L247.43 3.89013L241.437 3.88052L241.434 5.48052ZM253.42 5.49973L259.414 5.50933L259.416 3.90934L253.423 3.89973L253.42 5.49973ZM265.407 5.51894L271.4 5.52854L271.403 3.92855L265.41 3.91894L265.407 5.51894ZM277.394 5.53815L283.387 5.54775L283.389 3.94776L277.396 3.93815L277.394 5.53815ZM289.38 5.55736L295.373 5.56696L295.376 3.96697L289.383 3.95736L289.38 5.55736ZM301.367 5.57657L307.36 5.58617L307.363 3.98618L301.369 3.97657L301.367 5.57657ZM313.353 5.59578L319.347 5.60538L319.349 4.00539L313.356 3.99578L313.353 5.59578ZM325.34 5.61499L331.333 5.6246L331.336 4.0246L325.342 4.01499L325.34 5.61499ZM337.326 5.6342L343.32 5.64381L343.322 4.04381L337.329 4.0342L337.326 5.6342ZM349.313 5.65341L355.306 5.66302L355.309 4.06302L349.315 4.05341L349.313 5.65341ZM361.299 5.67262L367.293 5.68223L367.295 4.08223L361.302 4.07262L361.299 5.67262ZM373.286 5.69183L379.279 5.70144L379.282 4.10144L373.289 4.09183L373.286 5.69183ZM385.273 5.71104L391.266 5.72065L391.268 4.12065L385.275 4.11104L385.273 5.71104ZM397.259 5.73025L403.252 5.73986L403.255 4.13986L397.262 4.13025L397.259 5.73025ZM409.246 5.74946L415.239 5.75907L415.242 4.15907L409.248 4.14946L409.246 5.74946ZM421.232 5.76867L427.226 5.77828L427.228 4.17828L421.235 4.16867L421.232 5.76867ZM433.219 5.78788L439.212 5.79749L439.215 4.19749L433.221 4.18788L433.219 5.78788ZM445.205 5.80709L451.199 5.8167L451.201 4.2167L445.208 4.2071L445.205 5.80709ZM457.192 5.8263L463.185 5.83591L463.188 4.23591L457.194 4.22631L457.192 5.8263ZM469.178 5.84551L475.172 5.85512L475.174 4.25512L469.181 4.24552L469.178 5.84551ZM481.165 5.86472L487.158 5.87433L487.161 4.27433L481.168 4.26473L481.165 5.86472ZM493.152 5.88393L499.145 5.89354L499.147 4.29354L493.154 4.28394L493.152 5.88393ZM505.138 5.90314L511.131 5.91275L511.134 4.31275L505.141 4.30315L505.138 5.90314ZM517.125 5.92235L523.118 5.93196L523.121 4.33196L517.127 4.32236L517.125 5.92235ZM529.111 5.94156L535.105 5.95117L535.107 4.35117L529.114 4.34157L529.111 5.94156ZM541.098 5.96078L547.091 5.97038L547.094 4.37038L541.1 4.36078L541.098 5.96078ZM553.084 5.97999L559.078 5.98959L559.08 4.38959L553.087 4.37999L553.084 5.97999ZM565.071 5.9992L571.064 6.0088L571.067 4.4088L565.073 4.3992L565.071 5.9992ZM577.057 6.01841L583.051 6.02801L583.053 4.42801L577.06 4.41841L577.057 6.01841ZM589.044 6.03762L595.037 6.04722L595.04 4.44722L589.047 4.43762L589.044 6.03762ZM601.031 6.05683L607.024 6.06643L607.026 4.46643L601.033 4.45683L601.031 6.05683ZM613.017 6.07604L619.01 6.08564L619.013 4.48564L613.02 4.47604L613.017 6.07604ZM625.004 6.09525L630.997 6.10485L631 4.50485L625.006 4.49525L625.004 6.09525ZM636.99 6.11446L642.984 6.12406L642.986 4.52406L636.993 4.51446L636.99 6.11446ZM648.977 6.13367L654.97 6.14327L654.973 4.54327L648.979 4.53367L648.977 6.13367ZM660.963 6.15288L666.957 6.16248L666.959 4.56249L660.966 4.55288L660.963 6.15288ZM672.95 6.17209L678.943 6.18169L678.946 4.5817L672.952 4.57209L672.95 6.17209ZM684.936 6.1913L690.93 6.2009L690.932 4.60091L684.939 4.5913L684.936 6.1913ZM696.923 6.21051L702.916 6.22011L702.919 4.62012L696.926 4.61051L696.923 6.21051ZM708.91 6.22972L714.903 6.23932L714.905 4.63933L708.912 4.62972L708.91 6.22972ZM720.896 6.24893L726.889 6.25853L726.892 4.65854L720.899 4.64893L720.896 6.24893ZM732.883 6.26814L738.876 6.27774L738.879 4.67775L732.885 4.66814L732.883 6.26814ZM744.869 6.28735L750.863 6.29696L750.865 4.69696L744.872 4.68735L744.869 6.28735ZM756.856 6.30656L762.849 6.31617L762.852 4.71617L756.858 4.70656L756.856 6.30656ZM768.842 6.32577L774.836 6.33538L774.838 4.73538L768.845 4.72577L768.842 6.32577ZM780.829 6.34498L786.822 6.35459L786.825 4.75459L780.832 4.74498L780.829 6.34498ZM792.816 6.36419L798.809 6.3738L798.811 4.7738L792.818 4.76419L792.816 6.36419ZM804.802 6.3834L810.795 6.39301L810.798 4.79301L804.805 4.7834L804.802 6.3834ZM816.789 6.40261L822.782 6.41222L822.784 4.81222L816.791 4.80261L816.789 6.40261ZM828.775 6.42182L834.768 6.43143L834.771 4.83143L828.778 4.82182L828.775 6.42182ZM840.762 6.44103L846.755 6.45064L846.758 4.85064L840.764 4.84103L840.762 6.44103ZM852.748 6.46024L858.741 6.46985L858.744 4.86985L852.751 4.86024L852.748 6.46024ZM864.735 6.47945L870.728 6.48906L870.731 4.88906L864.737 4.87945L864.735 6.47945ZM876.721 6.49866L882.715 6.50827L882.717 4.90827L876.724 4.89867L876.721 6.49866ZM888.708 6.51787L894.701 6.52748L894.704 4.92748L888.711 4.91788L888.708 6.51787ZM900.695 6.53708L906.688 6.54669L906.69 4.94669L900.697 4.93709L900.695 6.53708ZM912.681 6.55629L918.674 6.5659L918.677 4.9659L912.684 4.9563L912.681 6.55629ZM924.668 6.5755L930.661 6.58511L930.663 4.98511L924.67 4.97551L924.668 6.5755ZM936.654 6.59471L942.647 6.60432L942.65 5.00432L936.657 4.99472L936.654 6.59471ZM948.641 6.61392L954.634 6.62353L954.637 5.02353L948.643 5.01393L948.641 6.61392ZM960.627 6.63313L966.621 6.64274L966.623 5.04274L960.63 5.03314L960.627 6.63313ZM972.614 6.65235L978.607 6.66195L978.61 5.06195L972.616 5.05235L972.614 6.65235ZM984.6 6.67156L990.594 6.68116L990.596 5.08116L984.603 5.07156L984.6 6.67156ZM996.587 6.69077L1002.58 6.70037L1002.58 5.10037L996.59 5.09077L996.587 6.69077ZM1008.57 6.70998L1014.57 6.71958L1014.57 5.11958L1008.58 5.10998L1008.57 6.70998ZM1020.56 6.72919L1026.55 6.73879L1026.56 5.13879L1020.56 5.12919L1020.56 6.72919ZM1032.55 6.7484L1038.54 6.758L1038.54 5.158L1032.55 5.1484L1032.55 6.7484ZM1044.53 6.76761L1050.53 6.77721L1050.53 5.17721L1044.54 5.16761L1044.53 6.76761ZM1056.52 6.78682L1062.51 6.79642L1062.52 5.19642L1056.52 5.18682L1056.52 6.78682ZM1068.51 6.80603L1074.5 6.81563L1074.5 5.21563L1068.51 5.20603L1068.51 6.80603ZM1080.49 6.82524L1086.49 6.83484L1086.49 5.23484L1080.5 5.22524L1080.49 6.82524ZM1092.48 6.84445L1098.47 6.85405L1098.48 5.25406L1092.48 5.24445L1092.48 6.84445ZM1104.47 6.86366L1110.46 6.87326L1110.46 5.27327L1104.47 5.26366L1104.47 6.86366ZM1116.45 6.88287L1122.45 6.89247L1122.45 5.29248L1116.46 5.28287L1116.45 6.88287ZM1128.44 6.90208L1134.43 6.91168L1134.43 5.31169L1128.44 5.30208L1128.44 6.90208ZM1140.43 6.92129L1146.42 6.93089L1146.42 5.3309L1140.43 5.32129L1140.43 6.92129ZM1152.41 6.9405L1158.41 6.9501L1158.41 5.35011L1152.41 5.3405L1152.41 6.9405ZM1164.4 6.95971L1170.39 6.96931L1170.39 5.36932L1164.4 5.35971L1164.4 6.95971ZM1176.39 6.97892L1182.38 6.98853L1182.38 5.38853L1176.39 5.37892L1176.39 6.97892ZM1188.37 6.99813L1194.37 7.00774L1194.37 5.40774L1188.37 5.39813L1188.37 6.99813ZM1200.36 7.01734L1206.35 7.02695L1206.35 5.42695L1200.36 5.41734L1200.36 7.01734ZM1212.34 7.03655L1218.34 7.04616L1218.34 5.44616L1212.35 5.43655L1212.34 7.03655ZM1224.33 7.05576L1230.32 7.06537L1230.33 5.46537L1224.33 5.45576L1224.33 7.05576ZM1236.32 7.07497L1242.31 7.08458L1242.31 5.48458L1236.32 5.47497L1236.32 7.07497ZM1248.3 7.09418L1251.3 7.09898L1251.3 5.49898L1248.31 5.49418L1248.3 7.09418Z" fill="#E1E1E1"/>
</svg>
