<svg width="200" height="200" viewBox="0 0 200 200" fill="none" xmlns="http://www.w3.org/2000/svg">
<g clip-path="url(#clip0_294_3608)">
<g clip-path="url(#clip1_294_3608)">
<path d="M164.429 58.9701C163.704 58.2435 162.696 57.8259 161.669 57.8259C160.642 57.8259 159.634 58.2435 158.908 58.9701C158.182 59.6966 157.764 60.704 157.764 61.731C157.764 62.7579 158.181 63.7654 158.908 64.4915C159.634 65.2177 160.642 65.6361 161.669 65.6361C162.696 65.6361 163.703 65.2181 164.429 64.4915C165.155 63.7658 165.574 62.7579 165.574 61.731C165.574 60.704 165.156 59.6962 164.429 58.9701Z" fill="#235EFF"/>
<path d="M161.667 50.2116C163.823 50.2116 165.572 48.4627 165.572 46.3065V11.7472C165.572 5.28742 160.317 0.0323487 153.857 0.0323487H11.7152C5.25546 0.031958 0 5.28742 0 11.7472V188.253C0 194.713 5.25546 199.969 11.7152 199.969H153.858C160.317 199.969 165.573 194.713 165.573 188.253V170.714C165.573 168.558 163.824 166.809 161.668 166.809C159.511 166.809 157.763 168.558 157.763 170.714V188.253C157.763 190.407 156.011 192.159 153.858 192.159H11.7152C9.56209 192.159 7.81014 190.407 7.81014 188.253V11.7472C7.81014 9.59405 9.56209 7.8421 11.7152 7.8421H153.858C156.011 7.8421 157.763 9.59405 157.763 11.7472V46.3065C157.762 48.4627 159.511 50.2116 161.667 50.2116Z" fill="#235EFF"/>
<path d="M196.567 157.092L176.423 136.948C179.892 130.756 181.874 123.623 181.874 116.036C181.874 92.3638 162.615 73.1052 138.943 73.1052C138.707 73.1052 138.472 73.1103 138.237 73.1142V51.6275C138.237 49.4713 136.488 47.7225 134.331 47.7225H111.509V26.6358C111.509 24.4795 109.76 22.7307 107.604 22.7307H80.8765C78.7202 22.7307 76.9714 24.4795 76.9714 26.6358V50.0658H54.1488C51.9925 50.0658 50.2437 51.8146 50.2437 53.9709V75.058H31.2391C29.0828 75.058 27.334 76.8068 27.334 78.963V100.05C27.334 102.206 29.0828 103.955 31.2391 103.955H97.7456C96.6194 107.789 96.0124 111.843 96.0124 116.036C96.0124 139.708 115.271 158.966 138.943 158.966C146.531 158.966 153.663 156.985 159.855 153.516L179.867 173.528C182.225 175.885 185.289 177.074 188.341 177.073C191.188 177.073 194.025 176.039 196.263 173.954C198.614 171.765 199.94 168.792 199.997 165.586C200.054 162.377 198.836 159.361 196.567 157.092ZM50.2433 96.145H35.1441V82.8681H50.2437L50.2433 96.145ZM76.971 96.145H58.0535V78.963V57.876H76.971V96.145ZM84.7808 96.145V53.9709V30.5409H103.698V51.6279V65.7666V71.1037C103.698 73.2599 105.447 75.0087 107.603 75.0087C109.76 75.0087 111.508 73.2599 111.508 71.1037V65.7666V55.533H130.426V73.9552C117.596 76.5478 106.824 84.8794 100.908 96.145H84.7808ZM138.943 151.156C119.578 151.156 103.822 135.401 103.822 116.036C103.822 96.6704 119.577 80.915 138.943 80.915C158.308 80.915 174.063 96.67 174.063 116.036C174.063 135.401 158.308 151.156 138.943 151.156ZM190.94 168.239C189.421 169.653 186.933 169.548 185.39 168.005L166.397 149.012C168.4 147.341 170.249 145.493 171.92 143.489L191.045 162.614C191.801 163.37 192.208 164.376 192.188 165.445C192.168 166.515 191.726 167.507 190.94 168.239Z" fill="#235EFF"/>
<path d="M149.107 96.0685C147.23 95.0087 144.847 95.6704 143.787 97.5493L122.79 134.742C121.73 136.62 122.393 139.002 124.271 140.063C124.878 140.405 125.537 140.568 126.187 140.568C127.55 140.568 128.874 139.854 129.591 138.582L150.588 101.389C151.648 99.5102 150.986 97.1286 149.107 96.0685Z" fill="#235EFF"/>
<path d="M152.584 119.37C146.125 119.37 140.869 124.625 140.869 131.085C140.869 137.544 146.125 142.8 152.584 142.8C159.044 142.8 164.299 137.544 164.299 131.085C164.3 124.625 159.044 119.37 152.584 119.37ZM152.584 134.989C150.431 134.989 148.679 133.237 148.679 131.084C148.679 128.931 150.431 127.179 152.584 127.179C154.737 127.179 156.489 128.931 156.489 131.084C156.489 133.237 154.738 134.989 152.584 134.989Z" fill="#235EFF"/>
<path d="M125.299 89.2712C118.839 89.2712 113.584 94.5267 113.584 100.986C113.584 107.446 118.839 112.702 125.299 112.702C131.759 112.702 137.014 107.446 137.014 100.986C137.014 94.5267 131.759 89.2712 125.299 89.2712ZM125.299 104.891C123.146 104.891 121.394 103.139 121.394 100.986C121.394 98.8329 123.146 97.081 125.299 97.081C127.452 97.081 129.204 98.8329 129.204 100.986C129.204 103.139 127.452 104.891 125.299 104.891Z" fill="#235EFF"/>
<path d="M133.106 171.071H24.9891C22.8328 171.071 21.084 172.82 21.084 174.976C21.084 177.133 22.8328 178.881 24.9891 178.881H133.106C135.262 178.881 137.011 177.133 137.011 174.976C137.011 172.82 135.262 171.071 133.106 171.071Z" fill="#235EFF"/>
<path d="M82.7859 149.203H58.573C56.4168 149.203 54.668 150.952 54.668 153.109C54.668 155.265 56.4168 157.014 58.573 157.014H82.7859C84.9421 157.014 86.6909 155.265 86.6909 153.109C86.6909 150.952 84.9421 149.203 82.7859 149.203Z" fill="#235EFF"/>
<path d="M99.8691 150.348C99.143 149.621 98.1352 149.203 97.1082 149.203C96.0812 149.203 95.0738 149.621 94.3473 150.348C93.6172 151.074 93.2031 152.082 93.2031 153.109C93.2031 154.136 93.6172 155.143 94.3473 155.869C95.0734 156.595 96.0777 157.014 97.1082 157.014C98.1352 157.014 99.1426 156.596 99.8691 155.869C100.595 155.143 101.013 154.136 101.013 153.109C101.013 152.081 100.596 151.074 99.8691 150.348Z" fill="#235EFF"/>
<path d="M82.7859 127.335H58.573C56.4168 127.335 54.668 129.084 54.668 131.24C54.668 133.397 56.4168 135.145 58.573 135.145H82.7859C84.9421 135.145 86.6909 133.397 86.6909 131.24C86.6909 129.084 84.9421 127.335 82.7859 127.335Z" fill="#235EFF"/>
<path d="M33.5801 137.289C30.9961 137.289 28.8941 135.543 28.8941 133.396C28.8941 131.25 30.9961 129.505 33.5801 129.505C36.164 129.505 38.266 131.251 38.266 133.396C38.266 135.553 40.0148 137.302 42.1711 137.302C44.3273 137.302 46.0761 135.553 46.0761 133.396C46.0761 128.219 42.4664 123.82 37.4812 122.282C37.441 120.161 35.7113 118.452 33.5801 118.452C31.4488 118.452 29.7187 120.161 29.6789 122.282C24.6937 123.82 21.084 128.219 21.084 133.396C21.084 139.849 26.6894 145.099 33.5801 145.099C36.164 145.099 38.266 146.845 38.266 148.991C38.266 151.136 36.164 152.882 33.5801 152.882C30.9961 152.882 28.8941 151.136 28.8941 148.991C28.8941 146.834 27.1453 145.085 24.9891 145.085C22.8328 145.085 21.084 146.834 21.084 148.991C21.084 154.166 24.6918 158.564 29.675 160.104V160.329C29.675 162.485 31.4238 164.234 33.5801 164.234C35.7363 164.234 37.4851 162.485 37.4851 160.329V160.104C42.4683 158.564 46.0761 154.166 46.0761 148.991C46.0761 142.538 40.4703 137.289 33.5801 137.289Z" fill="#235EFF"/>
</g>
</g>
<defs>
<clipPath id="clip0_294_3608">
<rect width="200" height="200" fill="white"/>
</clipPath>
<clipPath id="clip1_294_3608">
<rect width="200" height="200" fill="white"/>
</clipPath>
</defs>
</svg>
