<svg width="125" height="134" viewBox="0 0 125 134" fill="none" xmlns="http://www.w3.org/2000/svg">
<path d="M80.8682 69.5939L55.3585 53.8932C54.9284 53.6282 54.4358 53.4836 53.9316 53.4742C53.4274 53.4648 52.9298 53.591 52.4903 53.8398C52.0549 54.0847 51.6923 54.4418 51.4396 54.8745C51.1869 55.3072 51.0533 55.7997 51.0526 56.3016V87.6993C51.0559 88.4521 51.3561 89.1727 51.8873 89.7028C52.4186 90.233 53.1373 90.5291 53.8854 90.5263C54.4077 90.5261 54.9197 90.3812 55.3656 90.1077L80.8682 74.407C81.2781 74.1556 81.6169 73.8024 81.852 73.3813C82.087 72.9601 82.2105 72.4852 82.2105 72.0022C82.2105 71.5192 82.087 71.0443 81.852 70.6232C81.6169 70.202 81.2781 69.8488 80.8682 69.5974V69.5939ZM53.8854 87.6655V56.3247L79.3508 72.0004L53.8854 87.6655Z" fill="white"/>
<path d="M119.004 63.191C120.348 71.8282 119.69 80.6586 117.08 89.0009C114.47 97.3433 109.979 104.975 103.952 111.306C97.9257 117.638 90.5252 122.5 82.3217 125.518C74.1183 128.536 65.3311 129.629 56.6382 128.713C47.9453 127.797 39.579 124.896 32.1848 120.235C24.7907 115.573 18.5664 109.275 13.9921 101.826C9.41775 94.3774 6.61575 85.9775 5.80225 77.2743C4.98876 68.5712 6.18551 59.7976 9.30017 51.6302" stroke="white" stroke-width="2.52632"/>
<g clip-path="url(#clip0_2026_1991)">
<path fill-rule="evenodd" clip-rule="evenodd" d="M116.433 45.0427C116.386 45.8336 116.156 46.5552 115.74 47.2086C115.323 47.8619 114.742 48.3746 113.995 48.7457C113.249 49.1176 112.484 49.2752 111.701 49.2182C110.919 49.162 110.198 48.9136 109.539 48.4739C108.881 48.034 108.361 47.4299 107.979 46.6623C107.597 45.8946 107.428 45.1154 107.475 44.3253C107.521 43.5345 107.756 42.8079 108.18 42.144C108.604 41.4802 109.19 40.962 109.936 40.5908C110.683 40.2189 111.442 40.0642 112.214 40.126C112.986 40.1878 113.703 40.441 114.365 40.8864C115.025 41.3311 115.544 41.9324 115.921 42.6895C116.309 43.4677 116.479 44.2525 116.433 45.0427ZM113.98 43.6551C113.792 43.2769 113.538 42.9833 113.218 42.7754C112.898 42.5675 112.543 42.4548 112.155 42.4383C111.766 42.4224 111.372 42.5135 110.973 42.7123C110.573 42.9111 110.259 43.1721 110.033 43.4945C109.807 43.8169 109.68 44.169 109.653 44.5501C109.626 44.9305 109.707 45.3101 109.896 45.689C110.089 46.0777 110.347 46.3789 110.67 46.5925C110.993 46.806 111.35 46.9169 111.741 46.9251C112.132 46.934 112.527 46.8391 112.927 46.6402C113.327 46.4414 113.637 46.1815 113.858 45.8619C114.08 45.5416 114.204 45.1912 114.231 44.8101C114.258 44.429 114.174 44.0445 113.98 43.6551ZM109.166 39.0584C109.045 39.1514 108.916 39.2393 108.78 39.3214C108.643 39.4043 108.481 39.487 108.294 39.5718L104.507 34.6558C104.401 34.796 104.297 34.9367 104.224 35.0871C104.039 35.4737 103.976 35.8735 104.034 36.2873C104.092 36.7012 104.268 37.0993 104.562 37.4822C104.825 37.8271 105.124 38.0951 105.455 38.2849C105.786 38.4754 106.146 38.5837 106.536 38.6104L106.285 40.5124C105.652 40.4788 105.058 40.3016 104.501 39.9814C103.945 39.6605 103.455 39.2251 103.034 38.6751C102.491 37.9665 102.16 37.2213 102.041 36.4388C101.923 35.6564 102.006 34.9006 102.291 34.1716C102.576 33.4432 103.058 32.8173 103.739 32.296C104.41 31.7817 105.129 31.4786 105.895 31.3874C106.661 31.2955 107.408 31.4007 108.135 31.7023C108.861 32.0032 109.478 32.4852 109.986 33.1468C110.486 33.7996 110.781 34.4874 110.869 35.2119C110.957 35.9356 110.857 36.6342 110.566 37.3085C110.277 37.982 109.809 38.5656 109.166 39.0584ZM108.461 34.3157C108.183 33.9518 107.858 33.6971 107.488 33.5522C107.117 33.4066 106.73 33.3744 106.326 33.4548C106.174 33.4847 106.024 33.5358 105.872 33.5981L108.384 36.8545C108.516 36.6967 108.627 36.5376 108.71 36.3778C108.884 36.045 108.952 35.7044 108.915 35.3555C108.877 35.0074 108.726 34.6605 108.461 34.3157ZM97.5886 32.2848L98.1049 31.6974C97.7894 31.7164 97.47 31.6929 97.1461 31.6146C96.6043 31.4826 96.104 31.2161 95.6455 30.8127C95.054 30.2932 94.6519 29.6829 94.44 28.9808C94.2281 28.2787 94.2083 27.5579 94.3807 26.8182C94.5531 26.0785 94.9149 25.3957 95.4653 24.769C96.0228 24.1334 96.6574 23.6822 97.3689 23.4153C98.0798 23.1485 98.7946 23.0733 99.514 23.1888C100.233 23.3045 100.893 23.6259 101.493 24.1526C101.952 24.5559 102.283 25.0107 102.487 25.518C102.609 25.8229 102.667 26.1335 102.691 26.4461L105.981 22.7001L107.716 24.2231L99.31 33.7959L97.5886 32.2848ZM99.4935 29.8889C99.8585 29.7486 100.192 29.506 100.495 29.1619C100.789 28.8262 100.982 28.4684 101.074 28.0883C101.166 27.7075 101.155 27.338 101.04 26.979C100.925 26.6202 100.709 26.3011 100.391 26.022C100.064 25.7357 99.7136 25.5606 99.3389 25.4975C98.9642 25.4343 98.5967 25.4708 98.2348 25.6064C97.8731 25.7427 97.5451 25.978 97.2509 26.3137C96.9488 26.6577 96.7514 27.0205 96.66 27.4005C96.568 27.7813 96.5813 28.1528 96.7008 28.5157C96.8201 28.8778 97.0343 29.1948 97.3432 29.4668C97.6699 29.7531 98.0187 29.9299 98.3895 29.9979C98.7595 30.0652 99.1277 30.0286 99.4935 29.8889ZM96.7902 18.5835C96.4493 18.66 96.1183 18.5913 95.7956 18.3762C95.4826 18.1675 95.2935 17.8905 95.2282 17.5432C95.1629 17.1966 95.2339 16.8668 95.4427 16.5537C95.6444 16.251 95.9197 16.0599 96.2678 15.9812C96.6167 15.9031 96.9473 15.9682 97.2603 16.1762C97.5829 16.3913 97.7726 16.6733 97.8299 17.0216C97.8872 17.3698 97.815 17.696 97.6133 17.9987C97.4045 18.3118 97.1304 18.5065 96.7902 18.5835ZM91.2845 27.2484L89.3489 25.9594L94.0659 18.8756L96.0016 20.1646L91.2845 27.2484ZM82.051 22.2222L82.5671 8.91846L84.9381 9.96046L84.4329 19.2379L90.9547 12.6052L93.2939 13.6329L83.7927 22.9873L82.051 22.2222ZM72.776 12.7382C72.6059 12.6416 72.4053 12.5764 72.1725 12.5413C71.6846 12.4691 71.2635 12.5632 70.9096 12.8249C70.5557 13.0874 70.3326 13.532 70.2387 14.159L69.5445 18.8124L67.2613 18.4713L68.5179 10.054L70.8004 10.3952L70.6888 11.1438C70.6961 11.1363 70.7025 11.1275 70.7099 11.1208C71.2989 10.597 72.0637 10.4055 73.0052 10.5455C73.4114 10.6067 73.7674 10.728 74.0731 10.9102C74.3781 11.0925 74.6417 11.3547 74.8643 11.6959L73.1909 13.1212C73.0834 12.9623 72.9454 12.8349 72.776 12.7382ZM64.9235 16.6723C64.6099 17.2421 64.1661 17.688 63.5905 18.0094C63.0148 18.3309 62.3508 18.4988 61.599 18.5123C60.8471 18.5258 60.1782 18.3789 59.5908 18.0724C59.0041 17.7658 58.541 17.3335 58.2023 16.776C57.8628 16.2179 57.687 15.5687 57.6733 14.8294L57.585 9.89603L59.9098 9.85446L59.9982 14.7347C60.0043 15.0871 60.0682 15.388 60.1908 15.6383C60.3121 15.8894 60.4921 16.0765 60.7295 16.2012C60.9663 16.3267 61.2439 16.3865 61.5608 16.3806C62.0421 16.3715 62.4153 16.2185 62.6803 15.9199C62.9452 15.6214 63.0728 15.2079 63.063 14.6794L62.9753 9.79909L65.2832 9.75789L65.3722 14.6905C65.3857 15.4423 65.2357 16.1028 64.9235 16.6723ZM54.0357 17.1497C53.6129 17.8555 53.0691 18.4615 52.403 18.9679C51.7368 19.4743 50.9649 19.8378 50.0879 20.0578C49.2103 20.2786 48.3534 20.3244 47.5159 20.1959C46.6777 20.0675 45.906 19.7915 45.2003 19.3694C44.4946 18.9473 43.8872 18.3978 43.3781 17.7201C42.8683 17.0425 42.5055 16.2712 42.2874 15.4052C42.0702 14.5397 42.0242 13.6939 42.1504 12.8692C42.2758 12.0446 42.5496 11.279 42.9724 10.5733C43.3944 9.8676 43.9421 9.26339 44.6154 8.7614C45.2887 8.2594 46.063 7.89776 46.9407 7.67769C47.8291 7.45423 48.6892 7.40447 49.5197 7.52929C50.3501 7.65339 51.1186 7.9268 51.8243 8.34887C52.5299 8.77094 53.1363 9.31835 53.644 9.98955C54.1518 10.6615 54.515 11.4305 54.7324 12.2966C54.9503 13.162 54.9937 14.011 54.8639 14.8428C54.7334 15.6754 54.4578 16.444 54.0357 17.1497ZM52.3361 12.88C52.1871 12.2877 51.9598 11.7697 51.6542 11.3253C51.3494 10.8816 50.9808 10.5231 50.5484 10.2498C50.1168 9.97725 49.6428 9.80237 49.127 9.72584C48.6114 9.65004 48.0627 9.68493 47.4819 9.83043C46.7301 10.0198 46.1087 10.3543 45.6176 10.8349C45.1266 11.3155 44.7945 11.8983 44.6221 12.5841C44.4489 13.2692 44.4628 14.0107 44.6631 14.8086C44.8148 15.4123 45.0476 15.9408 45.3617 16.3953C45.6757 16.8492 46.0447 17.2106 46.4699 17.4794C46.8945 17.7484 47.3674 17.9197 47.8889 17.9948C48.4104 18.07 48.9504 18.0368 49.5089 17.8967C50.283 17.702 50.912 17.3621 51.3959 16.8772C51.8797 16.3922 52.2087 15.8075 52.3811 15.1217C52.5543 14.4366 52.5391 13.6894 52.3361 12.88ZM34.1095 24.4465C34.5269 24.4341 34.9424 24.3029 35.3545 24.0533C35.7257 23.828 36.0245 23.562 36.2501 23.2537C36.4756 22.9455 36.623 22.5985 36.6917 22.2136L38.5549 22.6715C38.4526 23.2964 38.2116 23.8678 37.8318 24.3865C37.452 24.9044 36.966 25.343 36.3731 25.7018C35.6097 26.1642 34.8325 26.4117 34.0422 26.4442C33.2511 26.4768 32.5092 26.3113 31.8159 25.9484C31.1226 25.5855 30.5538 25.0377 30.1095 24.3042C29.6714 23.5803 29.4486 22.8329 29.4417 22.0612C29.4349 21.2901 29.6209 20.5593 29.9996 19.8694C30.3785 19.1803 30.925 18.6198 31.6384 18.1873C32.3415 17.7618 33.0577 17.5446 33.7872 17.5357C34.5159 17.5269 35.1999 17.7032 35.8384 18.0647C36.4763 18.4277 37.0051 18.9548 37.4251 19.6481C37.5037 19.7791 37.5771 19.9166 37.6439 20.0614C37.7114 20.2062 37.7758 20.3764 37.8392 20.5711L32.531 23.803C32.6597 23.9263 32.7937 24.0372 32.9371 24.1264C33.3008 24.3525 33.6914 24.4597 34.1095 24.4465ZM35.1493 20.1851C35.0066 20.0353 34.8607 19.9094 34.71 19.8085C34.3984 19.5996 34.0672 19.4947 33.7163 19.494C33.3661 19.4931 33.0047 19.6058 32.6327 19.8303C32.2407 20.0682 31.9524 20.3627 31.7679 20.7152C31.5826 21.0671 31.5084 21.4489 31.5444 21.8593C31.5573 22.0107 31.6023 22.1653 31.6465 22.32L35.1493 20.1851ZM25.0488 30.4005C25.4483 30.5547 25.8528 30.5865 26.2608 30.4954C26.669 30.405 27.0518 30.1984 27.4102 29.8763C27.733 29.5862 27.9766 29.2678 28.1406 28.9235C28.3045 28.5784 28.3839 28.2108 28.3795 27.8191L30.296 27.9204C30.3121 28.5538 30.182 29.1603 29.9064 29.7399C29.6301 30.3204 29.2345 30.8422 28.7194 31.3055C28.0558 31.9024 27.3383 32.2911 26.5677 32.4707C25.7971 32.6502 25.0376 32.6269 24.2882 32.4002C23.5389 32.1734 22.8779 31.7413 22.3045 31.1031C21.7387 30.4745 21.38 29.7818 21.2293 29.025C21.078 28.2691 21.1242 27.5166 21.3673 26.7685C21.6104 26.0203 22.0426 25.3667 22.6626 24.8092C23.2738 24.2594 23.9367 23.9121 24.6519 23.7667C25.3665 23.6213 26.0708 23.6669 26.7651 23.9034C27.4601 24.1398 28.0784 24.5596 28.6199 25.1621C28.7224 25.2757 28.8199 25.3972 28.9131 25.5266C29.0055 25.6561 29.1015 25.811 29.2002 25.9908L24.5896 30.1582C24.7391 30.2556 24.8915 30.3394 25.0488 30.4005ZM26.4855 26.1141C26.3173 25.9944 26.1495 25.8983 25.9836 25.8271C25.6382 25.6802 25.2932 25.6389 24.948 25.704C24.6043 25.7689 24.27 25.9466 23.9473 26.2374C23.6063 26.5435 23.3781 26.8875 23.2624 27.268C23.1467 27.6484 23.1449 28.0371 23.257 28.434C23.2981 28.5802 23.3714 28.7235 23.4432 28.8671L26.4855 26.1141ZM21.8558 38.757C21.2531 39.5533 20.6014 40.132 19.9017 40.4936C19.2012 40.8545 18.4053 41.0598 17.5146 41.107L17.2067 38.8859C17.8109 38.8862 18.3629 38.7742 18.8649 38.5494C19.3661 38.3247 19.8258 37.9362 20.2439 37.3831C20.6194 36.8863 20.8206 36.416 20.8466 35.9723C20.8734 35.5284 20.7129 35.1752 20.3667 34.9133C20.0672 34.6868 19.7594 34.5868 19.4447 34.6131C19.1293 34.6402 18.8022 34.7424 18.4619 34.9192C18.1217 35.0968 17.7721 35.3108 17.4126 35.562C17.0531 35.8133 16.6774 36.0516 16.2855 36.2776C15.8931 36.5044 15.4872 36.6759 15.0679 36.7926C14.6479 36.9095 14.2081 36.9265 13.7478 36.844C13.2874 36.7606 12.8041 36.5277 12.2984 36.145C11.6994 35.6921 11.2986 35.1606 11.096 34.5513C10.8942 33.9419 10.8727 33.2988 11.0306 32.6227C11.1878 31.9468 11.5075 31.2907 11.9895 30.6538C12.4999 29.979 13.0871 29.4658 13.751 29.114C14.4148 28.7615 15.0793 28.5647 15.7446 28.523L16.0526 30.7441C15.5145 30.7941 15.055 30.9145 14.6748 31.1053C14.2946 31.296 13.9598 31.5838 13.6687 31.9679C13.3358 32.4083 13.1583 32.8184 13.135 33.1991C13.1124 33.5797 13.2608 33.8906 13.5789 34.1313C13.851 34.3371 14.1347 34.4191 14.4308 34.3779C14.7269 34.3366 15.0403 34.224 15.3717 34.0401C15.7023 33.8555 16.0494 33.6395 16.4138 33.3921C16.7775 33.1448 17.1555 32.9078 17.5481 32.6817C17.9399 32.4557 18.3529 32.2886 18.7867 32.1828C19.2204 32.0763 19.677 32.0714 20.1559 32.169C20.6347 32.2658 21.1319 32.5098 21.6472 32.8995C22.565 33.5938 23.0419 34.4626 23.0777 35.5059C23.1135 36.5493 22.7062 37.633 21.8558 38.757Z" fill="white"/>
</g>
<defs>
<clipPath id="clip0_2026_1991">
<rect width="104.252" height="49.1891" fill="white" transform="translate(8.08878 11.3569) rotate(-6.24175)"/>
</clipPath>
</defs>
</svg>
