<svg width="60" height="60" viewBox="0 0 60 60" fill="none" xmlns="http://www.w3.org/2000/svg">
<circle cx="29.9999" cy="30" r="30" fill="#DFECF9"/>
<path d="M53.2251 11.0107C49.6347 6.61951 44.8731 3.33614 39.4924 1.54139C34.1118 -0.253358 28.3325 -0.48594 22.825 0.870621C17.3175 2.22718 12.3075 5.1173 8.37589 9.20576C4.44432 13.2942 1.75236 18.4135 0.612234 23.9698C-0.527889 29.5262 -0.0694579 35.2919 1.93436 40.5983C3.93817 45.9046 7.40526 50.5342 11.9335 53.95C16.4617 57.3658 21.8656 59.428 27.5182 59.8972C33.1709 60.3664 38.8408 59.2235 43.8702 56.601L29.9999 30L53.2251 11.0107Z" fill="#3F74FF"/>
<path d="M53.2251 11.0107C50.5364 7.72235 47.1802 5.04243 43.3784 3.14824C39.5766 1.25405 35.4159 0.188769 31.1715 0.0228864C26.9272 -0.142996 22.6961 0.594301 18.758 2.18599C14.82 3.77768 11.2648 6.18749 8.32773 9.25595C5.39068 12.3244 3.1387 15.9816 1.7208 19.9855C0.302892 23.9894 -0.248614 28.2488 0.102769 32.4818C0.454152 36.7148 1.70041 40.8249 3.7591 44.5402C5.81778 48.2555 8.64195 51.4913 12.0447 54.0335L29.9999 30L53.2251 11.0107Z" fill="#0047FF"/>
</svg>
