<svg width="47" height="46" viewBox="0 0 47 46" fill="none" xmlns="http://www.w3.org/2000/svg">
<path d="M21.9681 3.61148C18.2675 3.61148 14.6363 4.61539 11.4613 6.51624C8.28627 8.41709 5.6864 11.1437 3.93867 14.4055C2.19095 17.6673 1.36085 21.3421 1.53681 25.0385C1.71277 28.7348 2.88821 32.3142 4.93788 35.3953C6.98756 38.4763 9.83468 40.9436 13.1759 42.5342C16.5171 44.1249 20.2273 44.7793 23.9111 44.4278C27.5949 44.0762 31.1143 42.7319 34.0944 40.5381C37.0745 38.3442 39.4036 35.383 40.8336 31.9699L21.9681 24.0659L21.9681 3.61148Z" fill="#5081FF"/>
<path d="M43.9382 29.9665C45.3382 26.8657 45.9425 23.4646 45.6966 20.0713C45.4506 16.678 44.3622 13.3997 42.5297 10.5331C40.6973 7.66654 38.1788 5.30233 35.2022 3.65457C32.2256 2.00682 28.8851 1.12754 25.483 1.09639L25.2957 21.5499L43.9382 29.9665Z" fill="#F8F9FD"/>
</svg>
