<svg width="64" height="62" viewBox="0 0 64 62" fill="none" xmlns="http://www.w3.org/2000/svg">
<path d="M2.68541 45.2593C6.37749 49.2353 19.751 42.819 32.5559 30.9283C45.3609 19.0375 52.7483 6.17501 49.0562 2.19907C45.3641 -1.77686 31.9906 4.63936 19.1857 16.5301C6.38075 28.4209 -1.00668 41.2834 2.68541 45.2593Z" stroke="#30328A" stroke-width="2" stroke-miterlimit="10"/>
<path d="M9.06558 52.13C12.7577 56.106 26.1311 49.6897 38.9361 37.799C51.741 25.9082 59.1285 13.0457 55.4364 9.06977C51.7443 5.09383 38.3708 11.5101 25.5659 23.4008C12.7609 35.2916 5.3735 48.1541 9.06558 52.13Z" stroke="#30328A" stroke-width="2" stroke-miterlimit="10"/>
<path d="M15.4458 59.0007C19.1378 62.9766 32.5113 56.5604 45.3163 44.6697C58.1212 32.7789 65.5086 19.9164 61.8166 15.9405C58.1245 11.9645 44.751 18.3808 31.946 30.2715C19.1411 42.1623 11.7537 55.0248 15.4458 59.0007Z" stroke="#30328A" stroke-width="2" stroke-miterlimit="10"/>
</svg>
