<svg width="257" height="214" viewBox="0 0 257 214" fill="none" xmlns="http://www.w3.org/2000/svg">
<path d="M-0.7345 90.2476L71.3089 153.666L-0.734497 153.666L-0.7345 90.2476Z" fill="#00B3FF"/>
<path d="M71.3088 153.666L143.381 217.11L71.3088 217.11L71.3088 153.666Z" fill="#0047FF"/>
<path d="M143.381 90.2476L215.425 153.666L143.381 153.666L143.381 90.2476Z" fill="#00B3FF"/>
<path d="M189.566 89.0425L216.793 113.01L189.566 113.01L189.566 89.0425Z" fill="#0047FF"/>
<path d="M71.3088 90.2476L143.381 153.666L71.3088 153.666L71.3088 90.2476Z" fill="#0047FF"/>
<path d="M101.157 90.2473L-0.734497 90.2473L50.2258 45.3879L101.157 90.2473Z" fill="#0047FF"/>
<path d="M-0.734497 90.2473L-0.734502 0.528404L50.2258 45.3879L-0.734497 90.2473Z" fill="#287FEA"/>
<path d="M215.425 217.11L143.381 217.11L71.3088 153.666L143.381 153.666L215.425 217.11Z" fill="#287FEA"/>
<path d="M179.549 175.839L162.135 160.51L179.549 160.51L179.549 175.839Z" fill="#0047FF"/>
</svg>
