<svg width="20" height="20" viewBox="0 0 20 20" fill="none" xmlns="http://www.w3.org/2000/svg">
<path fill-rule="evenodd" clip-rule="evenodd" d="M17.1339 2.86612C17.3683 3.10054 17.5 3.41848 17.5 3.75V7.5H16.25V3.75H13.75V5H12.5V3.75H7.5V5H6.25V3.75H3.75V16.25H6.25V17.5H3.75C3.41848 17.5 3.10054 17.3683 2.86612 17.1339C2.6317 16.8995 2.5 16.5815 2.5 16.25V3.75C2.5 3.41848 2.6317 3.10054 2.86612 2.86612C3.10054 2.6317 3.41848 2.5 3.75 2.5H6.25V1.25H7.5V2.5H12.5V1.25H13.75V2.5H16.25C16.5815 2.5 16.8995 2.6317 17.1339 2.86612ZM14.7181 12.4613L13.125 9.375L11.625 12.4613L8.125 12.9556L10.625 15.3581L10 18.75L13.125 17.1488L16.25 18.75L15.625 15.3581L18.125 12.9556L14.7181 12.4613Z" fill="#050D20"/>
</svg>
