<svg width="20" height="20" viewBox="0 0 20 20" fill="none" xmlns="http://www.w3.org/2000/svg">
<path fill-rule="evenodd" clip-rule="evenodd" d="M7.76157 15.9272L11.0243 3.75049L12.2317 4.07401L8.96898 16.2507L7.76157 15.9272ZM0.625 9.9999L5 5.6249L5.88125 6.50615L2.39375 9.9999L5.88125 13.4937L5 14.3749L0.625 9.9999ZM19.375 9.9999L15 14.3749L14.1187 13.4937L17.6062 9.9999L14.1187 6.50615L15 5.6249L19.375 9.9999Z" fill="#505155"/>
<path fill-rule="evenodd" clip-rule="evenodd" d="M7.76157 15.9272L11.0243 3.75049L12.2317 4.07401L8.96898 16.2507L7.76157 15.9272ZM0.625 9.9999L5 5.6249L5.88125 6.50615L2.39375 9.9999L5.88125 13.4937L5 14.3749L0.625 9.9999ZM19.375 9.9999L15 14.3749L14.1187 13.4937L17.6062 9.9999L14.1187 6.50615L15 5.6249L19.375 9.9999Z" fill="black" fill-opacity="0.8"/>
</svg>
