<svg width="20" height="20" viewBox="0 0 20 20" fill="none" xmlns="http://www.w3.org/2000/svg">
<path fill-rule="evenodd" clip-rule="evenodd" d="M11.875 14.375V13.125H15.625V4.375H6.875V8.125H5.625V4.375C5.625 4.04348 5.7567 3.72554 5.99112 3.49112C6.22554 3.2567 6.54348 3.125 6.875 3.125H15.625C15.9565 3.125 16.2745 3.2567 16.5089 3.49112C16.7433 3.72554 16.875 4.04348 16.875 4.375V13.125C16.875 13.4565 16.7433 13.7745 16.5089 14.0089C16.2745 14.2433 15.9565 14.375 15.625 14.375H11.875ZM4.375 10.625H8.125C8.45652 10.625 8.77446 10.7567 9.00888 10.9911C9.2433 11.2255 9.375 11.5435 9.375 11.875V15.625C9.375 15.9565 9.2433 16.2745 9.00888 16.5089C8.77446 16.7433 8.45652 16.875 8.125 16.875H4.375C4.04348 16.875 3.72554 16.7433 3.49112 16.5089C3.2567 16.2745 3.125 15.9565 3.125 15.625V11.875C3.125 11.5435 3.2567 11.2255 3.49112 10.9911C3.72554 10.7567 4.04348 10.625 4.375 10.625ZM4.375 11.875V15.625H8.125V11.875H4.375Z" fill="#050D20"/>
</svg>
