<svg width="18" height="18" viewBox="0 0 18 18" fill="none" xmlns="http://www.w3.org/2000/svg">
<path d="M2 2H4.66667L6.45333 10.9267C6.5143 11.2336 6.68127 11.5093 6.92503 11.7055C7.16879 11.9018 7.4738 12.006 7.78667 12H14.2667C14.5795 12.006 14.8845 11.9018 15.1283 11.7055C15.3721 11.5093 15.539 11.2336 15.6 10.9267L16.6667 5.33333H5.33333M8 15.3333C8 15.7015 7.70152 16 7.33333 16C6.96514 16 6.66667 15.7015 6.66667 15.3333C6.66667 14.9651 6.96514 14.6667 7.33333 14.6667C7.70152 14.6667 8 14.9651 8 15.3333ZM15.3333 15.3333C15.3333 15.7015 15.0349 16 14.6667 16C14.2985 16 14 15.7015 14 15.3333C14 14.9651 14.2985 14.6667 14.6667 14.6667C15.0349 14.6667 15.3333 14.9651 15.3333 15.3333Z" stroke="currentColor" stroke-width="1.3" stroke-linecap="round" stroke-linejoin="round"/>
</svg>
