<svg width="18" height="16" viewBox="0 0 18 16" fill="none" xmlns="http://www.w3.org/2000/svg">
<path d="M1 1.77608V6.44398M1 6.44398H5.36364M1 6.44398L4.37454 3.05203C5.15618 2.21548 6.12318 1.60437 7.18531 1.27572C8.24745 0.947078 9.3701 0.91161 10.4485 1.17263C11.5269 1.43365 12.526 1.98264 13.3524 2.76839C14.1788 3.55414 14.8057 4.55104 15.1745 5.66605M17 14.224V9.55606M17 9.55606H12.6364M17 9.55606L13.6255 12.948C12.8438 13.7845 11.8768 14.3956 10.8147 14.7243C9.75255 15.0529 8.6299 15.0884 7.55148 14.8274C6.47306 14.5664 5.47404 14.0174 4.64761 13.2316C3.82119 12.4459 3.1943 11.449 2.82545 10.3339" stroke="currentColor" stroke-width="1.2" stroke-linecap="round" stroke-linejoin="round"/>
</svg>
