<svg width="19" height="19" viewBox="0 0 19 19" fill="none" xmlns="http://www.w3.org/2000/svg">
<path d="M1.84204 2.06617L1.0801 1.30399V2.3817V6.12126C1.0801 6.18044 1.05659 6.2372 1.01474 6.27905C0.972895 6.3209 0.916135 6.34441 0.856953 6.34441C0.79777 6.34441 0.741011 6.3209 0.699161 6.27905C0.657312 6.2372 0.633802 6.18044 0.633802 6.12126V0.765643C0.633802 0.706461 0.657312 0.649702 0.699161 0.607853C0.74101 0.566004 0.79777 0.542493 0.856953 0.542493H6.21258C6.27176 0.542493 6.32852 0.566003 6.37037 0.607852C6.41222 0.649702 6.43573 0.706461 6.43573 0.765643C6.43573 0.824826 6.41222 0.881585 6.37037 0.923434C6.32852 0.965284 6.27176 0.988794 6.21258 0.988794H2.47301H1.3953L2.15748 1.75073L6.37097 5.96287C6.37098 5.96288 6.37099 5.96289 6.371 5.9629C6.41298 6.00491 6.43657 6.06187 6.43657 6.12126C6.43657 6.18067 6.41297 6.23764 6.37097 6.27965C6.32896 6.32166 6.27198 6.34526 6.21258 6.34526C6.15319 6.34526 6.09624 6.32167 6.05424 6.2797C6.05422 6.27968 6.0542 6.27967 6.05419 6.27965L1.84204 2.06617ZM1.0801 16.5553V17.6331L1.84204 16.8709L6.05419 12.6574C6.09619 12.6154 6.15317 12.5918 6.21258 12.5918C6.27198 12.5918 6.32896 12.6154 6.37097 12.6574C6.41297 12.6994 6.43657 12.7564 6.43657 12.8158C6.43657 12.8752 6.41299 12.9321 6.37102 12.9741C6.371 12.9741 6.37098 12.9742 6.37097 12.9742L2.15748 17.1863L1.3953 17.9482H2.47301H6.21258C6.27176 17.9482 6.32852 17.9718 6.37037 18.0136C6.41222 18.0555 6.43573 18.1122 6.43573 18.1714C6.43573 18.2306 6.41222 18.2873 6.37037 18.3292C6.32852 18.371 6.27176 18.3945 6.21258 18.3945H0.856953C0.79777 18.3945 0.74101 18.371 0.69916 18.3292C0.657312 18.2873 0.633802 18.2306 0.633802 18.1714V12.8158C0.633802 12.7566 0.657312 12.6998 0.699162 12.658C0.741009 12.6161 0.797769 12.5926 0.856953 12.5926C0.916137 12.5926 0.972896 12.6161 1.01474 12.658C1.05659 12.6998 1.0801 12.7566 1.0801 12.8158V16.5553ZM16.9622 1.75073L17.7244 0.988794H16.6467H12.9071C12.8479 0.988794 12.7912 0.965283 12.7493 0.923435C12.7075 0.881586 12.684 0.824827 12.684 0.765643C12.684 0.70646 12.7075 0.649701 12.7493 0.607852C12.7912 0.566004 12.8479 0.542493 12.9071 0.542493H18.2627C18.3219 0.542493 18.3787 0.566004 18.4205 0.607851C18.4624 0.649701 18.4859 0.706461 18.4859 0.765643V6.12126C18.4859 6.18044 18.4624 6.2372 18.4205 6.27905C18.3787 6.3209 18.3219 6.34441 18.2627 6.34441C18.2035 6.34441 18.1468 6.3209 18.1049 6.27905C18.0631 6.2372 18.0396 6.18045 18.0396 6.12126V2.3817V1.30399L17.2776 2.06617L13.0655 6.27965C13.0655 6.27967 13.0655 6.27968 13.0654 6.2797C13.0234 6.32167 12.9665 6.34526 12.9071 6.34526C12.8477 6.34526 12.7907 6.32166 12.7487 6.27965C12.7067 6.23764 12.6831 6.18067 12.6831 6.12126C12.6831 6.06188 12.7067 6.00492 12.7487 5.96292C12.7487 5.9629 12.7487 5.96289 12.7487 5.96287L16.9622 1.75073ZM17.2776 16.8709L18.0396 17.6331V16.5553V12.8158C18.0396 12.7566 18.0631 12.6998 18.1049 12.658C18.1468 12.6161 18.2035 12.5926 18.2627 12.5926C18.3219 12.5926 18.3787 12.6161 18.4205 12.658C18.4624 12.6998 18.4859 12.7566 18.4859 12.8158V18.1714C18.4859 18.2306 18.4624 18.2873 18.4205 18.3292C18.3787 18.371 18.3219 18.3945 18.2627 18.3945H12.9071C12.8479 18.3945 12.7912 18.371 12.7493 18.3292C12.7075 18.2873 12.684 18.2306 12.684 18.1714C12.684 18.1122 12.7075 18.0555 12.7493 18.0136C12.7912 17.9718 12.8479 17.9482 12.9071 17.9482H16.6467H17.7244L16.9622 17.1863L12.7487 12.9742C12.7487 12.9742 12.7487 12.9741 12.7487 12.9741C12.7067 12.9321 12.6831 12.8752 12.6831 12.8158C12.6831 12.7564 12.7067 12.6994 12.7487 12.6574C12.7907 12.6154 12.8477 12.5918 12.9071 12.5918C12.9665 12.5918 13.0234 12.6154 13.0654 12.6573C13.0655 12.6574 13.0655 12.6574 13.0655 12.6574L17.2776 16.8709Z" fill="currentColor" stroke="currentColor" stroke-width="0.892603"/>
</svg>
