<svg viewBox="0 0 16 16" fill="none" xmlns="http://www.w3.org/2000/svg">
<path d="M8.03114 12.0628C5.78292 12.0628 3.9685 10.2483 3.9685 8.00006C3.9685 5.7518 5.78292 3.93735 8.03114 3.93735C10.2794 3.93735 12.0938 5.7518 12.0938 8.00006C12.0938 10.2483 10.2794 12.0628 8.03114 12.0628ZM8.03114 5.3596C6.57722 5.3596 5.39072 6.54612 5.39072 8.00006C5.39072 9.45401 6.57722 10.6405 8.03114 10.6405C9.48505 10.6405 10.6716 9.45401 10.6716 8.00006C10.6716 6.54612 9.48505 5.3596 8.03114 5.3596ZM12.2602 13.176C11.7353 13.176 11.3114 12.7521 11.3114 12.2272C11.3114 11.7023 11.7353 11.2784 12.2602 11.2784C12.7851 11.2784 13.209 11.7003 13.209 12.2272C13.2091 12.3518 13.1847 12.4753 13.1371 12.5905C13.0894 12.7057 13.0196 12.8103 12.9314 12.8985C12.8433 12.9866 12.7386 13.0565 12.6234 13.1041C12.5083 13.1517 12.3848 13.1762 12.2602 13.176ZM15.9504 8.00006C15.9504 9.09349 15.9603 10.177 15.8989 11.2685C15.8375 12.5362 15.5483 13.6613 14.6213 14.5884C13.6923 15.5174 12.5692 15.8046 11.3015 15.866C10.208 15.9274 9.12455 15.9175 8.03312 15.9175C6.93971 15.9175 5.85621 15.9274 4.76478 15.866C3.49707 15.8046 2.37197 15.5154 1.44495 14.5884C0.515947 13.6593 0.22873 12.5362 0.167325 11.2685C0.105919 10.175 0.115824 9.09151 0.115824 8.00006C0.115824 6.90862 0.105919 5.82311 0.167325 4.73167C0.22873 3.46393 0.517928 2.33881 1.44495 1.41177C2.37395 0.482752 3.49707 0.195529 4.76478 0.134123C5.85819 0.0727168 6.94169 0.0826203 8.03312 0.0826203C9.12653 0.0826203 10.21 0.0727168 11.3015 0.134123C12.5692 0.195529 13.6943 0.484733 14.6213 1.41177C15.5503 2.34079 15.8375 3.46393 15.8989 4.73167C15.9623 5.82311 15.9504 6.90664 15.9504 8.00006ZM14.2073 3.32923C14.0627 2.96871 13.8884 2.69932 13.6091 2.422C13.3298 2.1427 13.0624 1.96839 12.7019 1.82378C11.66 1.40979 9.18595 1.50289 8.03114 1.50289C6.87633 1.50289 4.40031 1.40979 3.35841 1.8218C2.9979 1.96641 2.72851 2.14072 2.4512 2.42002C2.1719 2.69932 1.99759 2.96673 1.85299 3.32725C1.44099 4.37115 1.53408 6.84523 1.53408 8.00006C1.53408 9.1549 1.44099 11.631 1.85299 12.6729C1.99759 13.0334 2.1719 13.3028 2.4512 13.5801C2.73049 13.8574 2.9979 14.0337 3.35841 14.1783C4.40031 14.5903 6.87633 14.4972 8.03114 14.4972C9.18595 14.4972 11.662 14.5903 12.7039 14.1783C13.0644 14.0337 13.3338 13.8594 13.6111 13.5801C13.8904 13.3008 14.0647 13.0334 14.2093 12.6729C14.6213 11.631 14.5282 9.1549 14.5282 8.00006C14.5282 6.84523 14.6213 4.37115 14.2073 3.32923Z" fill="currentColor"/>
</svg>
