
<svg xmlns="http://www.w3.org/2000/svg" width="24" height="24" fill="#000000" viewBox="0 0 24 24">
  <path d="M20.447 20.452h-3.554v-5.569c0-1.327-.025-3.037-1.85-3.037-1.851 0-2.135 1.445-2.135 2.939v5.667h-3.554v-11.5h3.413v1.571h.049c.476-.9 1.636-1.849 3.366-1.849 3.6 0 4.267 2.368 4.267 5.451v6.327zm-14.693-13.093c-1.144 0-2.07-.928-2.07-2.07s.926-2.07 2.07-2.07 2.07.928 2.07 2.07-.926 2.07-2.07 2.07zm1.777 13.093h-3.554v-11.5h3.554v11.5zm16.469-20.452h-22.447c-.553 0-1 .447-1 1v22.447c0 .553.447 1 1 1h22.447c.553 0 1-.447 1-1v-22.447c0-.553-.447-1-1-1z"/>
</svg>
