<svg width="16" height="18" viewBox="0 0 16 18" fill="none" xmlns="http://www.w3.org/2000/svg">
<path d="M4.11111 8.2V5C4.11111 3.93913 4.52083 2.92172 5.25014 2.17157C5.97945 1.42143 6.9686 1 8 1C9.0314 1 10.0205 1.42143 10.7499 2.17157C11.4792 2.92172 11.8889 3.93913 11.8889 5V8.2M2.55556 8.2H13.4444C14.3036 8.2 15 8.91635 15 9.8V15.4C15 16.2837 14.3036 17 13.4444 17H2.55556C1.69645 17 1 16.2837 1 15.4V9.8C1 8.91635 1.69645 8.2 2.55556 8.2Z" stroke="currentColor" stroke-width="1.6" stroke-linecap="round" stroke-linejoin="round"/>
</svg>
