<svg viewBox="0 0 14 16" fill="none" xmlns="http://www.w3.org/2000/svg">
<path d="M7.16958 0.0820312C3.08585 0.0820312 0.951172 2.72138 0.951172 5.64351C0.951172 7.05744 1.69367 8.47138 2.90023 9.22547C3.27147 9.414 3.17866 9.22547 3.4571 8.09433C3.4571 8.00006 3.4571 7.9058 3.36429 7.81154C1.69367 5.73777 3.08585 1.68449 6.98396 1.68449C12.6455 1.68449 11.5318 9.60252 8.00489 9.60252C7.2624 9.69679 6.61271 9.13121 6.61271 8.37711V8.00006C6.98396 6.96318 7.26239 6.02056 7.35521 4.98367C7.35521 3.00416 4.47803 3.28695 4.47803 5.92629C4.47803 6.3976 4.57084 6.86892 4.75647 7.24597C4.75647 7.24597 3.82835 11.1107 3.64272 11.7706C3.4571 12.9017 3.54991 14.0329 3.73553 15.0697C3.64272 15.164 3.73553 15.164 3.73553 15.164H3.82835C4.47803 14.2214 5.0349 13.2788 5.40615 12.2419C5.49897 11.7706 5.96303 10.0738 5.96303 10.0738C6.42709 10.7337 7.26239 11.1107 8.0977 11.1107C10.9749 11.1107 13.0167 8.56564 13.0167 5.45498C13.0167 2.34433 10.418 0.0820312 7.16958 0.0820312Z" fill="currentColor"/>
</svg>
