<svg viewBox="0 0 18 13" fill="none" xmlns="http://www.w3.org/2000/svg">
<path d="M17.4809 2.16612C17.3847 1.78969 17.1962 1.44641 16.9342 1.17063C16.6722 0.894856 16.346 0.696256 15.988 0.594709C14.6705 0.222168 9.3889 0.222168 9.3889 0.222168C9.3889 0.222168 4.10735 0.222168 2.7898 0.592727C2.4317 0.693945 2.10524 0.892435 1.8432 1.16826C1.58116 1.44409 1.39277 1.78754 1.29694 2.16414C0.944458 3.55125 0.944458 6.44439 0.944458 6.44439C0.944458 6.44439 0.944458 9.33753 1.29694 10.7227C1.49108 11.4876 2.0641 12.09 2.7898 12.2941C4.10735 12.6666 9.3889 12.6666 9.3889 12.6666C9.3889 12.6666 14.6705 12.6666 15.988 12.2941C16.7156 12.09 17.2867 11.4876 17.4809 10.7227C17.8333 9.33753 17.8333 6.44439 17.8333 6.44439C17.8333 6.44439 17.8333 3.55126 17.4809 2.16612ZM7.71132 9.09973V3.78905L12.0843 6.42457L7.71132 9.09973Z" fill="currentColor"/>
</svg>
