<svg width="227" height="551" viewBox="0 0 227 551" fill="none" xmlns="http://www.w3.org/2000/svg">
<path d="M159.339 393.956L159.336 393.958C139.028 403.178 122.803 418.199 108.429 435.383C98.1239 447.703 88.7075 461.218 79.4211 474.547C75.7782 479.775 72.1554 484.975 68.5067 490.063C42.4939 526.335 15.0553 557.073 -31.5029 555.732C-42.361 555.412 -52.7206 554.938 -62.5622 554.488C-73.5591 553.984 -83.9092 553.511 -93.5856 553.314C-112.003 552.941 -128.357 553.555 -142.95 556.876C-157.575 560.204 -170.436 566.252 -181.857 576.73C-193.261 587.193 -203.155 602.004 -211.965 622.748C-223.238 649.273 -238.342 665.551 -254.674 672.54C-270.952 679.507 -288.713 677.361 -305.643 666.493C-339.617 644.682 -370.056 587.773 -376.662 500.225C-378.579 474.752 -381.321 451.77 -383.817 430.855C-385.224 419.058 -386.553 407.918 -387.612 397.359C-390.555 367.993 -391.421 343.008 -386.248 320.24C-375.946 274.894 -341.555 237.808 -249.742 192.896C-184.863 161.17 -147.905 109.313 -118.28 67.7452C-116.799 65.6676 -115.337 63.6157 -113.89 61.5933C-98.6439 40.2784 -85.2516 22.3953 -70.6518 11.9576C-63.3874 6.7642 -55.8746 3.455 -47.7323 2.47752C-39.5922 1.50032 -30.7113 2.84005 -20.6888 7.11739C29.0238 28.3356 47.8774 67.4282 62.8968 107.645C64.7837 112.697 66.6125 117.775 68.4364 122.839C73.853 137.879 79.2256 152.796 85.9439 166.56C94.9469 185.005 106.437 201.546 123.884 213.854C141.061 225.971 160.27 239.577 177.329 254.135C194.405 268.707 209.209 284.139 217.664 299.869C226.089 315.544 228.154 331.385 220.02 347.041C211.826 362.813 193.143 378.685 159.339 393.956Z" stroke="#242544" stroke-width="3"/>
</svg>
