<svg width="90" height="43" viewBox="0 0 90 43" fill="none" xmlns="http://www.w3.org/2000/svg">
<g clip-path="url(#clip0_198_3840)">
<path d="M99.9697 40.7209C94.9817 40.7209 94.9817 33.5094 89.9938 33.5094C85.0058 33.5094 84.9757 40.7209 79.9878 40.7209C74.9998 40.7209 74.9998 33.5094 70.0118 33.5094C65.0238 33.5094 64.9938 40.7209 60.0058 40.7209C55.0178 40.7209 55.0178 33.5094 50.0298 33.5094C45.0418 33.5094 45.0118 40.7209 40.0238 40.7209C35.0358 40.7209 35.0358 33.5094 30.0478 33.5094C25.0599 33.5094 25.0298 40.7209 20.0418 40.7209C15.0539 40.7209 15.0539 33.5094 10.0659 33.5094C5.0779 33.5094 5.04785 40.7209 0.0598659 40.7209" stroke="#303150" stroke-width="2.5" stroke-miterlimit="10"/>
<path d="M99.9697 25.0659C94.9817 25.0659 94.9817 17.8544 89.9938 17.8544C85.0058 17.8544 84.9757 25.0659 79.9878 25.0659C74.9998 25.0659 74.9998 17.8544 70.0118 17.8544C65.0238 17.8544 64.9938 25.0659 60.0058 25.0659C55.0178 25.0659 55.0178 17.8544 50.0298 17.8544C45.0418 17.8544 45.0118 25.0659 40.0238 25.0659C35.0358 25.0659 35.0358 17.8544 30.0478 17.8544C25.0599 17.8544 25.0298 25.0659 20.0418 25.0659C15.0539 25.0659 15.0539 17.8544 10.0659 17.8544C5.0779 17.8544 5.04785 25.0659 0.0598659 25.0659" stroke="#303150" stroke-width="2.5" stroke-miterlimit="10"/>
<path d="M100 9.38085C95.012 9.38085 95.012 2.16931 90.024 2.16931C85.0361 2.16931 85.006 9.38085 80.018 9.38085C75.03 9.38085 75.03 2.16931 70.0421 2.16931C65.0541 2.16931 65.024 9.38085 60.0361 9.38085C55.0481 9.38085 55.0481 2.16931 50.0601 2.16931C45.0721 2.16931 45.0421 9.38085 40.0541 9.38085C35.0661 9.38085 35.0661 2.16931 30.0781 2.16931C25.0901 2.16931 25.0601 9.38085 20.0721 9.38085C15.0841 9.38085 15.0841 2.16931 10.0961 2.16931C5.10816 2.16931 5.07812 9.38085 0.0901393 9.38085" stroke="#303150" stroke-width="2.5" stroke-miterlimit="10"/>
</g>
<defs>
<clipPath id="clip0_198_3840">
<rect width="43" height="90" fill="white" transform="translate(90) rotate(90)"/>
</clipPath>
</defs>
</svg>
