<svg width="227" height="551" viewBox="0 0 227 551" fill="none" xmlns="http://www.w3.org/2000/svg">
<path d="M159.338 393.956L159.336 393.958C139.028 403.178 122.802 418.199 108.429 435.383C98.1237 447.703 88.7073 461.219 79.4209 474.547C75.778 479.775 72.1552 484.975 68.5066 490.063C42.4937 526.335 15.0551 557.073 -31.5031 555.733C-42.3612 555.412 -52.7208 554.938 -62.5624 554.488C-73.5593 553.984 -83.9094 553.511 -93.5857 553.315C-112.003 552.941 -128.357 553.555 -142.95 556.876C-157.575 560.204 -170.436 566.253 -181.857 576.73C-193.261 587.193 -203.155 602.004 -211.965 622.748C-223.238 649.273 -238.342 665.551 -254.674 672.541C-270.952 679.507 -288.713 677.361 -305.643 666.493C-339.617 644.682 -370.057 587.773 -376.663 500.225C-378.579 474.752 -381.321 451.771 -383.817 430.855C-385.224 419.058 -386.553 407.919 -387.612 397.359C-390.555 367.993 -391.421 343.009 -386.248 320.24C-375.946 274.894 -341.555 237.808 -249.742 192.896C-184.863 161.17 -147.905 109.313 -118.28 67.7454C-116.8 65.6678 -115.337 63.6159 -113.891 61.5935C-98.6441 40.2785 -85.2518 22.3954 -70.652 11.9577C-63.3876 6.76432 -55.8748 3.45512 -47.7324 2.47764C-39.5924 1.50045 -30.7115 2.84017 -20.689 7.11751C29.0236 28.3357 47.8772 67.4283 62.8966 107.645C64.7835 112.697 66.6123 117.775 68.4362 122.839C73.8528 137.879 79.2254 152.796 85.9437 166.56C94.9467 185.005 106.437 201.547 123.884 213.854C141.061 225.971 160.27 239.577 177.329 254.135C194.404 268.708 209.209 284.139 217.664 299.87C226.089 315.544 228.154 331.385 220.02 347.041C211.826 362.813 193.143 378.685 159.338 393.956Z" stroke="#1E5CFF" stroke-width="3"/>
</svg>
