<svg width="90" height="43" viewBox="0 0 90 43" fill="none" xmlns="http://www.w3.org/2000/svg">
<g clip-path="url(#clip0_1_631)">
<path d="M99.97 40.7209C94.982 40.7209 94.982 33.5094 89.994 33.5094C85.006 33.5094 84.976 40.7209 79.988 40.7209C75 40.7209 75 33.5094 70.012 33.5094C65.0241 33.5094 64.994 40.7209 60.006 40.7209C55.018 40.7209 55.018 33.5094 50.0301 33.5094C45.0421 33.5094 45.012 40.7209 40.0241 40.7209C35.0361 40.7209 35.0361 33.5094 30.0481 33.5094C25.0601 33.5094 25.0301 40.7209 20.0421 40.7209C15.0541 40.7209 15.0541 33.5094 10.0661 33.5094C5.07814 33.5094 5.04809 40.7209 0.06011 40.7209" stroke="white" stroke-width="2.5" stroke-miterlimit="10"/>
<path d="M99.97 25.0659C94.982 25.0659 94.982 17.8544 89.994 17.8544C85.006 17.8544 84.976 25.0659 79.988 25.0659C75 25.0659 75 17.8544 70.012 17.8544C65.0241 17.8544 64.994 25.0659 60.006 25.0659C55.018 25.0659 55.018 17.8544 50.0301 17.8544C45.0421 17.8544 45.012 25.0659 40.0241 25.0659C35.0361 25.0659 35.0361 17.8544 30.0481 17.8544C25.0601 17.8544 25.0301 25.0659 20.0421 25.0659C15.0541 25.0659 15.0541 17.8544 10.0661 17.8544C5.07814 17.8544 5.04809 25.0659 0.06011 25.0659" stroke="white" stroke-width="2.5" stroke-miterlimit="10"/>
<path d="M100 9.38085C95.012 9.38085 95.012 2.16931 90.024 2.16931C85.0361 2.16931 85.006 9.38085 80.018 9.38085C75.03 9.38085 75.03 2.16931 70.0421 2.16931C65.0541 2.16931 65.024 9.38085 60.0361 9.38085C55.0481 9.38085 55.0481 2.16931 50.0601 2.16931C45.0721 2.16931 45.0421 9.38085 40.0541 9.38085C35.0661 9.38085 35.0661 2.16931 30.0781 2.16931C25.0901 2.16931 25.0601 9.38085 20.0721 9.38085C15.0841 9.38085 15.0841 2.16931 10.0961 2.16931C5.10816 2.16931 5.07812 9.38085 0.0901393 9.38085" stroke="white" stroke-width="2.5" stroke-miterlimit="10"/>
</g>
<defs>
<clipPath id="clip0_1_631">
<rect width="43" height="90" fill="white" transform="translate(90) rotate(90)"/>
</clipPath>
</defs>
</svg>
