<svg width="79" height="77" viewBox="0 0 79 77" fill="none" xmlns="http://www.w3.org/2000/svg">
<path d="M80.8294 32.1009L58.18 54.7916L80.8294 54.7916L80.8294 32.1009Z" fill="#00B3FF"/>
<path d="M58.18 54.7916L35.5214 77.4915L58.18 77.4915L58.18 54.7916Z" fill="#00B3FF"/>
<path d="M35.5214 32.1009L12.8719 54.7916L35.5214 54.7916L35.5214 32.1009Z" fill="#00B3FF"/>
<path d="M21.0016 31.6697L12.4416 40.2452L21.0016 40.2452L21.0016 31.6697Z" fill="#00B3FF"/>
<path d="M58.18 32.1009L35.5214 54.7916L58.18 54.7916L58.18 32.1009Z" fill="#0047FF"/>
<path d="M48.7961 32.1008L80.8294 32.1008L64.8082 16.0504L48.7961 32.1008Z" fill="#0047FF"/>
<path d="M80.8294 32.1008L80.8294 -7.62939e-06L64.8082 16.0504L80.8294 32.1008Z" fill="#287FEA"/>
<path d="M12.8719 77.4915L35.5214 77.4915L58.18 54.7916L35.5214 54.7916L12.8719 77.4915Z" fill="#287FEA"/>
<path d="M24.1509 62.7251L29.6256 57.2404L24.1509 57.2404L24.1509 62.7251Z" fill="#0047FF"/>
</svg>
