<svg width="407" height="387" viewBox="0 0 407 387" fill="none" xmlns="http://www.w3.org/2000/svg">
<path d="M459.654 353.653L459.652 353.652C442.034 339.975 421.184 332.614 399.283 327.898C383.581 324.518 367.236 322.48 351.116 320.47C344.793 319.682 338.504 318.898 332.302 318.039C288.089 311.915 248.108 301.951 227.609 260.127C222.835 250.369 218.43 240.981 214.244 232.062C209.568 222.097 205.166 212.717 200.833 204.063C192.585 187.592 184.425 173.406 174.689 162.039C164.932 150.648 153.59 142.084 138.999 136.858C124.428 131.639 106.713 129.782 84.2535 131.649C55.5308 134.027 34.0912 128.243 20.299 117.047C6.55275 105.887 0.178981 89.1704 1.9111 69.1274C5.38722 28.9044 41.5687 -24.5378 115.964 -71.1608C137.613 -84.7211 156.672 -97.8516 174.018 -109.802C183.801 -116.542 193.04 -122.907 201.89 -128.762C226.506 -145.044 248.212 -157.447 270.769 -163.474C315.694 -175.479 364.531 -162.319 447.037 -101.992C505.33 -59.3572 568.432 -50.8064 619.014 -43.9522C621.542 -43.6096 624.039 -43.2713 626.503 -42.9331C652.466 -39.3692 674.528 -35.8477 690.565 -27.7898C698.544 -23.7804 704.972 -18.6736 709.629 -11.9236C714.285 -5.17559 717.236 3.30716 718.119 14.1684C722.498 68.0422 696.686 102.934 668.093 134.956C664.501 138.979 660.86 142.963 657.228 146.935C646.442 158.734 635.744 170.436 626.694 182.792C614.565 199.35 605.279 217.222 602.514 238.393C599.792 259.237 596.7 282.572 591.762 304.449C586.82 326.346 580.06 346.635 570.078 361.443C560.132 376.2 547.076 385.405 529.433 385.499C511.66 385.594 488.913 376.455 459.654 353.653Z" stroke="#1E5CFF" stroke-width="3"/>
</svg>
