<svg width="139" height="117" viewBox="0 0 139 117" fill="none" xmlns="http://www.w3.org/2000/svg">
<path d="M0.316405 48.5354L38.9111 82.5095L0.316406 82.5095L0.316405 48.5354Z" fill="#00B3FF"/>
<path d="M38.9102 82.5097L77.5204 116.498L38.9102 116.498L38.9102 82.5097Z" fill="#00B3FF"/>
<path d="M77.5215 48.5354L116.116 82.5095L77.5215 82.5095L77.5215 48.5354Z" fill="#00B3FF"/>
<path d="M102.264 47.8899L116.85 60.7297L102.264 60.7297L102.264 47.8899Z" fill="#00B3FF"/>
<path d="M38.9102 48.5354L77.5204 82.5095L38.9102 82.5095L38.9102 48.5354Z" fill="#0047FF"/>
<path d="M54.9012 48.5354L0.316406 48.5354L27.6166 24.5036L54.9012 48.5354Z" fill="#0047FF"/>
<path d="M0.316406 48.5354L0.316404 0.471691L27.6166 24.5036L0.316406 48.5354Z" fill="#287FEA"/>
<path d="M38.9111 150.472L0.316405 116.498L38.9111 116.498L38.9111 150.472Z" fill="#0047FF"/>
<path d="M116.116 150.472L77.5215 116.498L116.116 116.498L116.116 150.472Z" fill="#00B3FF"/>
<path d="M116.115 116.498L77.5204 116.498L38.9102 82.5097L77.5204 82.5097L116.115 116.498Z" fill="#287FEA"/>
<path d="M116.115 150.472L77.5204 150.472L38.9102 116.498L77.5204 116.498L116.115 150.472Z" fill="#0047FF"/>
<path d="M96.8972 94.3882L87.5684 86.1762L96.8972 86.1762L96.8972 94.3882Z" fill="#0047FF"/>
</svg>
