<svg width="262" height="252" viewBox="0 0 262 252" fill="none" xmlns="http://www.w3.org/2000/svg">
<path d="M137.967 143.932L168.753 116.211C168.753 116.211 168.316 109.184 152.133 114.641C135.949 120.098 91.7327 135.572 91.7327 135.572L94.7726 151.145L137.967 143.932Z" fill="#030F14"/>
<path d="M51.1299 243.813C50.4696 243.813 49.8716 243.465 49.5726 242.879C49.286 242.318 49.3234 241.671 49.6971 241.16L51.4165 238.78C36.9643 241.832 22.1509 243.128 7.36238 242.642C4.70867 242.555 1.76841 242.244 0.547459 239.602C0.186156 238.817 0.0491096 237.908 0.148779 236.961C0.397954 234.743 1.71858 232.937 3.16379 231.13C12.0095 220.117 22.6243 210.374 32.9277 200.955L26.4492 201.653C25.8885 201.715 25.3652 201.441 25.1161 200.943C24.8669 200.47 24.9417 199.921 25.303 199.523C32.3297 191.736 44.0907 183.364 56.7612 177.147C56.8858 177.084 57.0353 177.134 57.1101 177.246L89.9513 230.47C90.0261 230.595 90.0011 230.744 89.8766 230.831C78.863 239.004 65.1086 243.614 51.1548 243.813C51.1548 243.813 51.1424 243.813 51.1299 243.813ZM52.0518 238.095C52.1391 238.095 52.2263 238.145 52.2761 238.219C52.3384 238.319 52.3384 238.431 52.2636 238.531L50.1332 241.484C49.884 241.832 49.8467 242.256 50.046 242.63C50.2578 243.029 50.6689 243.278 51.1424 243.265C64.8968 243.066 78.4519 238.543 89.3408 230.545L56.7862 177.732C44.2527 183.912 32.6536 192.184 25.7141 199.871C25.5023 200.108 25.4649 200.407 25.602 200.681C25.7141 200.906 25.9882 201.13 26.3869 201.092L33.7001 200.295C33.8123 200.283 33.9244 200.345 33.9742 200.457C34.0241 200.569 33.9991 200.694 33.9119 200.769C23.4217 210.349 12.5826 220.254 3.58739 231.454C2.14218 233.261 0.921221 234.93 0.684505 237.011C0.584835 237.858 0.709422 238.668 1.03335 239.366C2.12972 241.72 4.87064 242.007 7.36238 242.094C22.3378 242.592 37.3505 241.247 51.9771 238.107C52.0145 238.095 52.0394 238.095 52.0518 238.095Z" fill="#0B255A"/>
<path d="M42.0599 203.759C41.9727 203.759 41.8855 203.721 41.8356 203.634C41.7484 203.509 41.7858 203.335 41.9104 203.26L54.6681 194.738C54.7927 194.651 54.9671 194.689 55.0419 194.813C55.1291 194.938 55.0917 195.112 54.9671 195.187L42.2094 203.709C42.1595 203.746 42.1097 203.759 42.0599 203.759Z" fill="#0B255A"/>
<path d="M18.2514 233.635C18.1642 233.635 18.0895 233.597 18.0396 233.522C17.9524 233.398 17.9649 233.236 18.0895 233.136C31.0839 223.207 44.7761 213.9 58.7797 205.478C58.9043 205.403 59.0787 205.44 59.1534 205.577C59.2282 205.702 59.1908 205.876 59.0538 205.951C45.0626 214.361 31.3954 223.655 18.4134 233.572C18.3636 233.61 18.3013 233.635 18.2514 233.635Z" fill="#0B255A"/>
<path d="M55.6898 223.605C55.5902 223.605 55.503 223.555 55.4531 223.468C55.3784 223.344 55.4158 223.169 55.5528 223.095L66.6785 216.616C66.803 216.541 66.9775 216.579 67.0522 216.716C67.127 216.84 67.0896 217.015 66.9525 217.089L55.8269 223.568C55.7895 223.593 55.7397 223.605 55.6898 223.605Z" fill="#0B255A"/>
<path d="M89.7146 225.399L92.7421 249.469C92.9788 251.338 95.1092 252.273 96.6292 251.189C107.057 243.713 137.93 219.332 136.41 193.393L89.7146 225.399Z" fill="#0047FF"/>
<path d="M60.6981 179.763L40.2284 166.918C38.6461 165.921 38.6835 163.579 40.3032 162.644C51.4163 156.253 86.3631 138.288 109.138 150.522L60.6981 179.763Z" fill="#0047FF"/>
<path d="M222.176 108.013L222.163 107.988C180.738 95.8285 82.1021 158.359 58.7669 173.72C55.6273 175.789 54.0451 179.576 54.7926 183.276C58.6672 202.4 68.4349 217.75 84.0706 229.311C87.0981 231.554 91.1845 231.691 94.3615 229.685C118.008 214.822 215.797 150.933 222.176 108.013Z" fill="#0047FF"/>
<path d="M100.18 207.833C91.1471 213.651 79.1369 210.997 73.3561 201.902C67.5752 192.807 70.2165 180.735 79.2491 174.917C88.2816 169.098 100.292 171.752 106.073 180.847C111.866 189.942 109.225 202.027 100.18 207.833Z" fill="white"/>
<path d="M96.953 202.749C90.7112 206.773 82.4137 204.93 78.4144 198.65C74.4152 192.371 76.2466 184.024 82.4884 180C88.7302 175.975 97.0278 177.819 101.027 184.099C105.014 190.39 103.195 198.738 96.953 202.749Z" fill="#759BFF"/>
<path d="M195.203 146.922C195.14 146.922 195.09 146.909 195.041 146.859C184.999 139.172 177.673 127.66 174.932 115.264C174.895 115.114 174.995 114.965 175.144 114.94C175.294 114.903 175.443 115.002 175.468 115.152C178.171 127.424 185.435 138.823 195.377 146.436C195.502 146.523 195.514 146.697 195.427 146.822C195.365 146.884 195.277 146.922 195.203 146.922Z" fill="#002C9D"/>
<path d="M127.265 167.877C123.465 172.014 120.4 175.639 119.64 177.259C117.298 182.242 118.345 208.505 120.6 214.897C120.6 214.897 125.621 209.789 132.647 202.326C133.557 196.719 134.342 188.198 133.557 184.572C131.538 175.303 130.081 172.936 127.265 167.877Z" fill="white"/>
<path d="M150.152 126.066C123.939 132.706 102.983 139.795 102.983 139.795L99.5817 132.831L88.8299 138.001C88.8299 138.001 84.407 163.953 102.983 161.91C121.559 159.866 146.19 148.38 146.19 148.38C146.19 148.38 135.151 159.268 127.265 167.865C127.066 175.527 127.589 189.369 132.647 202.301C147.211 186.84 170.41 161.224 175.73 149.7C183.603 132.607 176.365 119.425 150.152 126.066Z" fill="#030F14"/>
<path d="M147.623 147.894C147.548 147.894 147.461 147.857 147.411 147.794C147.311 147.682 147.336 147.508 147.448 147.408L152.357 143.496C152.469 143.396 152.643 143.421 152.743 143.533C152.843 143.646 152.818 143.82 152.706 143.92L147.797 147.832C147.747 147.869 147.685 147.894 147.623 147.894Z" fill="#3D3D3D"/>
<path d="M119.703 65.8406C119.067 63.598 116.912 61.9909 114.632 61.5673C112.352 61.1312 109.972 61.7043 107.854 62.6636C105.736 63.623 103.805 64.956 101.799 66.1396C97.9746 68.3947 93.8508 70.1389 89.5774 71.2975C80.8189 73.6772 71.4749 73.6273 62.9157 76.6548C59.2902 77.938 55.5028 80.1931 54.5933 83.9432C54.0327 86.2979 54.7926 88.8643 56.3251 90.7332C57.87 92.602 60.1125 93.7855 62.4672 94.3213C62.8908 96.5888 64.5852 98.47 66.6035 99.5789C68.6218 100.688 70.9267 101.136 73.2066 101.423C82.9618 102.644 93.2403 101.099 101.625 95.9409C105.849 93.3495 109.511 89.7988 112.227 85.6375C113.573 83.5694 114.694 81.3393 115.504 79.0095C116.276 76.8168 116.276 74.3499 117.061 72.207C117.448 71.1356 118.469 70.6372 119.067 69.7153C119.802 68.6065 120.064 67.1363 119.703 65.8406Z" fill="#01022E"/>
<path d="M167.557 61.6919C173.101 59.1005 182.844 53.6311 188.761 52.1111C189.285 51.9741 189.833 51.8619 190.356 51.9741C190.879 52.0986 191.378 52.5222 191.39 53.058C191.415 53.6062 190.967 54.0547 190.543 54.3911C189.198 55.4625 187.428 56.4343 185.771 56.8953C185.771 56.8953 187.927 57.9667 187.142 60.0722C187.142 60.0722 188.4 60.7325 186.98 63.1371C186.98 63.1371 187.104 65.4046 184.937 65.9777C183.379 66.3764 182.632 65.7908 182.632 65.7908C182.632 65.7908 169.102 73.6398 165.688 74.6116C162.274 75.5834 164.567 63.0872 167.557 61.6919Z" fill="white"/>
<path d="M167.631 74.1504C167.532 74.1504 167.432 74.0882 167.382 73.9885C167.32 73.8514 167.382 73.6895 167.519 73.6272C170.846 72.1321 182.395 65.6162 182.507 65.5539C182.607 65.5041 182.719 65.5041 182.806 65.5788C182.831 65.6038 183.491 66.0772 184.874 65.7159C186.793 65.2175 186.718 63.2491 186.718 63.1618C186.718 63.112 186.731 63.0497 186.756 63.0123C187.428 61.8786 187.453 61.1934 187.354 60.8321C187.254 60.4708 187.03 60.3337 187.017 60.3337C186.905 60.2714 186.843 60.1219 186.893 59.9973C187.59 58.141 185.734 57.1941 185.659 57.1567C185.56 57.1069 185.497 56.9948 185.51 56.8826C185.522 56.7705 185.597 56.6709 185.709 56.6459C187.229 56.2223 188.973 55.3128 190.381 54.1916C190.705 53.9299 191.141 53.5313 191.129 53.0827C191.116 52.6591 190.693 52.3352 190.306 52.248C189.845 52.1483 189.347 52.248 188.849 52.385C184.575 53.4814 177.735 56.92 172.229 59.6983C170.547 60.5455 168.952 61.3429 167.681 61.9534C167.544 62.0156 167.382 61.9658 167.32 61.8288C167.258 61.6917 167.308 61.5298 167.445 61.4675C168.715 60.8694 170.298 60.0596 171.98 59.2124C177.499 56.4341 184.376 52.9706 188.699 51.8618C189.247 51.7247 189.833 51.5877 190.418 51.7247C191.016 51.8618 191.639 52.3601 191.677 53.0703C191.702 53.768 191.154 54.2912 190.73 54.6276C189.447 55.6492 187.877 56.5089 186.432 57.0072C187.154 57.5679 187.902 58.602 187.478 59.9973C187.615 60.1219 187.777 60.3337 187.877 60.6701C188.064 61.3429 187.864 62.215 187.279 63.2366C187.279 63.6851 187.129 65.7159 185.036 66.2641C183.765 66.6005 182.968 66.3014 182.657 66.127C181.324 66.8745 170.908 72.7302 167.768 74.1504C167.706 74.138 167.669 74.1504 167.631 74.1504Z" fill="#3D3D3D"/>
<path d="M182.632 64.171C182.034 64.171 181.486 63.9218 181.174 63.4858C180.95 63.1619 180.875 62.7258 180.987 62.3271C181.087 61.9783 181.311 61.7042 181.61 61.5796C181.747 61.5173 181.909 61.5921 181.972 61.7291C182.034 61.8662 181.959 62.0281 181.822 62.0904C181.623 62.1776 181.535 62.3645 181.511 62.4766C181.448 62.7134 181.486 62.9874 181.61 63.1619C181.897 63.5605 182.47 63.6727 182.906 63.5855C183.392 63.4983 183.84 63.2491 184.351 62.8753C184.949 62.4642 185.697 61.8786 186.232 61.1186C186.419 60.857 186.569 60.5705 186.681 60.2839C186.731 60.1469 186.893 60.0721 187.03 60.1219C187.167 60.1718 187.242 60.3337 187.192 60.4708C187.067 60.7947 186.893 61.1186 186.693 61.4176C186.108 62.2524 185.31 62.8629 184.688 63.3114C184.189 63.6602 183.641 63.9966 183.018 64.1087C182.881 64.171 182.756 64.171 182.632 64.171Z" fill="#3D3D3D"/>
<path d="M183.928 61.7788C183.853 61.7788 183.778 61.7663 183.691 61.7539C183.292 61.6791 182.981 61.4673 182.669 61.2431C182.42 61.0687 182.183 60.9067 181.934 60.8444C181.486 60.7323 180.975 60.9441 180.589 61.1434L180.402 61.2431C179.978 61.4673 179.53 61.7041 179.019 61.7414C178.371 61.7913 177.611 61.43 177.486 60.7323C177.462 60.5828 177.561 60.4457 177.711 60.4208C177.86 60.3959 177.997 60.4956 178.022 60.6451C178.085 61.0188 178.558 61.2431 178.969 61.2057C179.368 61.1683 179.742 60.969 180.14 60.7696L180.352 60.6575C180.825 60.4083 181.448 60.1592 182.084 60.3087C182.433 60.3959 182.719 60.5952 183.006 60.7946C183.267 60.9814 183.529 61.1559 183.803 61.2057C184.052 61.2555 184.326 61.1683 184.563 60.969C184.862 60.7074 185.061 60.2962 185.061 59.9225C185.061 59.0379 184.376 58.3402 183.965 58.0038C183.205 57.3684 182.296 56.9573 181.311 56.8202C181.162 56.7953 181.062 56.6583 181.075 56.5088C181.1 56.3593 181.237 56.2596 181.386 56.272C182.458 56.434 183.467 56.8825 184.314 57.5802C184.8 57.9789 185.61 58.8261 185.61 59.9225C185.61 60.4706 185.348 61.0313 184.912 61.3926C184.613 61.6418 184.276 61.7788 183.928 61.7788Z" fill="#3D3D3D"/>
<path d="M182.981 65.4791C182.507 65.4791 182.084 65.3296 181.785 65.0679C181.411 64.744 181.236 64.2332 181.361 63.7847C181.398 63.6352 181.548 63.548 181.697 63.5978C181.847 63.6352 181.934 63.7847 181.884 63.9342C181.822 64.1709 181.922 64.4699 182.146 64.6568C182.345 64.8312 182.644 64.9309 182.981 64.9309H182.993C183.342 64.9309 183.691 64.8312 183.99 64.7316C185.011 64.3952 185.771 63.9467 186.32 63.386C186.419 63.2739 186.594 63.2739 186.706 63.3736C186.818 63.4732 186.818 63.6476 186.718 63.7598C186.108 64.3952 185.273 64.8811 184.177 65.2548C183.84 65.367 183.429 65.4791 183.005 65.4915C182.993 65.4791 182.993 65.4791 182.981 65.4791Z" fill="#3D3D3D"/>
<path d="M182.619 65.94C182.52 65.94 182.42 65.8902 182.37 65.7905C182.283 65.6161 182.221 65.4168 182.196 65.2174C182.183 65.0679 182.283 64.9309 182.445 64.9184C182.594 64.906 182.731 65.0181 182.744 65.1676C182.756 65.2922 182.794 65.4292 182.856 65.5414C182.931 65.6784 182.868 65.8404 182.744 65.9151C182.706 65.9276 182.657 65.94 182.619 65.94Z" fill="#3D3D3D"/>
<path d="M130.853 95.9903L128.15 118.877C127.826 121.593 126.081 123.935 123.565 124.994L86.3257 140.692L89.4279 118.329L74.5148 126.215L72.8079 142.499C72.6958 143.57 73.2938 144.592 74.2905 145.003C75.5489 145.526 77.2059 146.199 78.1776 146.56C79.8845 147.196 80.2458 150.123 76.6078 149.687C72.9699 149.251 72.4965 149.251 71.0263 149.563C71.0263 149.563 65.8186 151.868 62.8908 156.079C61.2089 158.496 61.2338 160.477 56.6116 160.302C56.6116 160.302 52.7494 162.682 53.1356 158.396C53.1356 158.396 47.4544 156.515 60.5984 149.501C60.5984 149.501 56.8857 129.155 63.4639 118.117C70.4408 106.431 105.562 90.9321 105.562 90.9321L167.557 61.6665C166.236 66.1267 165.912 70.2879 167.631 73.8511L130.853 95.9903Z" fill="#FA4343"/>
<path d="M51.9023 157.113C51.7403 157.113 51.6282 156.989 51.6282 156.839C51.6656 154.945 54.5809 152.441 60.287 149.376C59.9257 147.246 57.0103 128.421 63.2273 118.005C70.1668 106.381 104.005 91.3435 105.45 90.7081L167.445 61.4425C167.544 61.3927 167.656 61.4176 167.744 61.4799C167.831 61.5547 167.856 61.6668 167.831 61.7665C166.348 66.7873 166.361 70.5872 167.893 73.7518C167.955 73.8763 167.906 74.0383 167.793 74.1006L131.127 96.1525L128.449 118.915C128.112 121.73 126.293 124.16 123.702 125.256C123.565 125.318 123.403 125.244 123.341 125.107C123.278 124.97 123.353 124.808 123.49 124.745C125.907 123.724 127.602 121.469 127.913 118.852L130.617 95.9657C130.629 95.8785 130.679 95.8037 130.741 95.7663L167.307 73.7642C165.9 70.6869 165.85 66.887 167.158 62.1901L105.674 91.194C105.313 91.3559 70.5405 106.792 63.7007 118.267C57.2471 129.093 60.8227 149.252 60.8601 149.463C60.885 149.576 60.8227 149.7 60.723 149.75C53.3475 153.687 52.2013 155.88 52.1888 156.839C52.1764 157.001 52.0518 157.113 51.9023 157.113Z" fill="#3D3D3D"/>
<path d="M79.3488 148.131C79.2242 148.131 79.1245 148.056 79.0871 147.931C78.9501 147.433 78.5638 147.022 78.0655 146.835C77.0813 146.473 75.4118 145.788 74.1784 145.277C73.082 144.816 72.4092 143.67 72.5338 142.487L74.2407 126.203C74.2531 126.116 74.303 126.029 74.3902 125.991L89.3033 118.105C89.3905 118.055 89.5026 118.068 89.5898 118.117C89.677 118.18 89.7144 118.279 89.702 118.379L86.6745 140.207L88.5059 139.21C88.643 139.135 88.8049 139.185 88.8797 139.322C88.9544 139.459 88.9046 139.621 88.7675 139.696L86.4627 140.942C86.3755 140.992 86.2633 140.979 86.1761 140.929C86.0889 140.867 86.0515 140.767 86.064 140.668L89.0915 118.84L74.7764 126.402L73.082 142.549C72.9823 143.496 73.5181 144.405 74.4026 144.779C75.636 145.29 77.3055 145.975 78.2773 146.336C78.9252 146.573 79.4484 147.134 79.6353 147.794C79.6727 147.944 79.5855 148.093 79.4484 148.131C79.3986 148.131 79.3737 148.131 79.3488 148.131Z" fill="#3D3D3D"/>
<path d="M59.988 143.171C59.8758 143.171 59.7637 143.097 59.7263 142.985C59.6765 142.835 59.7637 142.686 59.9007 142.648C64.1367 141.34 68.4848 140.169 72.808 139.185C72.9575 139.147 73.107 139.247 73.1319 139.396C73.1693 139.546 73.0696 139.695 72.9201 139.72C68.6094 140.705 64.2738 141.863 60.0503 143.171C60.0503 143.171 60.0129 143.171 59.988 143.171Z" fill="#3D3D3D"/>
<path d="M65.4947 136.158C65.1334 136.158 64.8095 136.021 64.5105 135.896L64.4108 135.859C62.9532 135.248 61.2962 135.124 59.7637 135.472C59.6142 135.51 59.4647 135.41 59.4398 135.273C59.4024 135.124 59.5021 134.974 59.6391 134.949C61.2837 134.563 63.0528 134.712 64.6226 135.36L64.7223 135.398C65.0338 135.522 65.3203 135.647 65.5944 135.609C65.8934 135.572 66.18 135.335 66.4416 135.099L66.4665 135.074C68.5596 133.28 71.0887 132.059 73.7798 131.535C73.9293 131.511 74.0664 131.598 74.1037 131.747C74.1286 131.897 74.0414 132.034 73.8919 132.071C71.2881 132.582 68.8461 133.766 66.8278 135.497L66.8029 135.522C66.4914 135.796 66.1301 136.095 65.6692 136.158C65.6069 136.158 65.5446 136.158 65.4947 136.158Z" fill="#3D3D3D"/>
<path d="M160.231 78.6856C160.094 78.6856 159.982 78.5859 159.957 78.4613C159.583 76.1689 159.982 73.8017 161.09 71.771C159.72 70.0766 158.811 67.9586 158.524 65.8032C158.499 65.6537 158.611 65.5167 158.761 65.4918C158.91 65.4668 159.047 65.579 159.072 65.7285C159.359 67.8465 160.281 69.9271 161.639 71.5716C161.713 71.6588 161.726 71.7834 161.664 71.8831C160.567 73.8142 160.131 76.1813 160.505 78.3865C160.53 78.536 160.43 78.6731 160.281 78.698C160.256 78.6856 160.243 78.6856 160.231 78.6856Z" fill="#3D3D3D"/>
<path d="M54.1449 158.185C54.0078 158.185 53.8957 158.085 53.8708 157.948C53.8458 157.799 53.9455 157.661 54.095 157.637C54.9048 157.512 55.6524 157.113 56.4248 156.69C57.6582 156.004 58.9041 155.257 60.1126 154.534C63.6135 152.429 67.2265 150.261 71.2382 149.227C71.3877 149.19 71.5372 149.277 71.5746 149.426C71.612 149.576 71.5248 149.725 71.3753 149.763C67.4508 150.784 63.8627 152.927 60.3991 155.02C59.1906 155.743 57.9448 156.49 56.6989 157.188C55.8891 157.637 55.0917 158.048 54.1947 158.197C54.1698 158.185 54.1573 158.185 54.1449 158.185Z" fill="#3D3D3D"/>
<path d="M56.8111 160.527C56.7364 160.527 56.6616 160.502 56.6118 160.44C56.5121 160.328 56.5246 160.153 56.6367 160.053L62.5048 154.833C62.6169 154.734 62.7913 154.746 62.891 154.858C62.9906 154.97 62.9782 155.145 62.8661 155.244L56.998 160.465C56.9357 160.502 56.8734 160.527 56.8111 160.527Z" fill="#3D3D3D"/>
<path d="M90.0383 118.341C89.9386 118.341 89.8514 118.291 89.8016 118.204C89.7268 118.067 89.7767 117.905 89.9137 117.83L94.8847 115.139C95.0218 115.064 95.1837 115.114 95.2585 115.251C95.3332 115.388 95.2834 115.55 95.1464 115.625L90.1753 118.316C90.1255 118.329 90.0757 118.341 90.0383 118.341Z" fill="#3D3D3D"/>
<path d="M106.733 114.405C106.148 114.405 105.587 114.367 105.039 114.28C102.348 113.869 100.018 112.299 98.9464 110.206C98.8841 110.069 98.934 109.907 99.071 109.832C99.2081 109.77 99.37 109.82 99.4448 109.957C100.429 111.9 102.609 113.358 105.126 113.744C107.182 114.056 109.487 113.757 112.203 112.81C112.34 112.76 112.502 112.835 112.551 112.984C112.601 113.121 112.526 113.283 112.377 113.333C110.296 114.043 108.428 114.405 106.733 114.405Z" fill="#3D3D3D"/>
<path d="M121.397 109.371C121.272 109.371 121.173 109.297 121.135 109.172C121.098 109.022 121.185 108.873 121.322 108.836C123.689 108.175 125.72 106.443 126.754 104.213C127.801 101.983 127.826 99.3046 126.829 97.0496C126.767 96.9125 126.829 96.7506 126.966 96.6883C127.103 96.626 127.265 96.6883 127.327 96.8253C128.386 99.2174 128.361 102.07 127.253 104.438C126.144 106.817 123.976 108.649 121.472 109.359C121.447 109.371 121.422 109.371 121.397 109.371Z" fill="#3D3D3D"/>
<path d="M108.104 78.6606L105.5 88.7273C105.5 88.7273 108.963 89.1135 110.595 88.9017C112.227 88.6899 113.386 86.6591 113.386 86.6591L115.093 80.1183L108.104 78.6606Z" fill="white"/>
<path d="M109.312 89.2379C107.63 89.2379 105.575 89.0136 105.463 89.0012C105.388 88.9887 105.313 88.9513 105.263 88.889C105.213 88.8267 105.201 88.7395 105.226 88.6648L107.83 78.5981C107.867 78.4611 108.004 78.3739 108.154 78.3988L115.143 79.8564C115.218 79.8689 115.28 79.9187 115.317 79.981C115.355 80.0433 115.367 80.1181 115.355 80.1928L113.648 86.7337C113.648 86.7586 113.635 86.7835 113.623 86.796C113.573 86.8832 112.377 88.9389 110.633 89.1631C110.247 89.213 109.798 89.2379 109.312 89.2379ZM105.836 88.4779C106.721 88.5651 109.25 88.7894 110.546 88.6149C111.916 88.4281 112.975 86.7835 113.125 86.5468L114.757 80.3174L108.316 78.9719L105.836 88.4779Z" fill="#3D3D3D"/>
<path d="M103.008 91.6298L103.917 87.045L111.181 88.0666L114.545 84.5158L115.629 85.6994L122.518 82.5474L112.626 97.5228C112.165 98.2204 111.318 98.5444 110.508 98.3575C107.431 97.6349 99.8808 96.3143 96.4671 96.1648C96.2055 96.1523 96.1183 95.8159 96.3425 95.6789L103.008 91.6298Z" fill="#F8F9FD"/>
<path d="M110.969 98.7065C110.795 98.7065 110.633 98.6816 110.458 98.6442C107.207 97.8842 99.7314 96.601 96.4672 96.4639C96.2305 96.4515 96.0312 96.2895 95.9689 96.0652C95.9066 95.8285 96.0063 95.5918 96.2056 95.4672L102.759 91.468L103.693 86.7461L111.081 87.7802L114.557 84.1173L115.704 85.3756L123.278 81.9121L112.863 97.6849C112.439 98.3327 111.717 98.7065 110.969 98.7065ZM104.129 87.3566L103.257 91.8043L96.5046 95.9282C99.7937 96.0528 107.319 97.336 110.583 98.1085C111.281 98.2704 112.016 97.9839 112.414 97.3859L121.783 83.2078L115.579 86.0484L114.557 84.9271L111.293 88.3657L104.129 87.3566Z" fill="white"/>
<path d="M110.757 93.2996C110.72 93.2996 110.683 93.2871 110.658 93.2746C108.39 92.3527 105.911 92.0288 103.494 92.3527C103.344 92.3776 103.207 92.2655 103.182 92.116C103.158 91.9665 103.27 91.8294 103.419 91.8045C105.824 91.493 108.278 91.7796 110.533 92.6393L110.982 89.2006C111.007 89.0511 111.131 88.939 111.293 88.9639C111.443 88.9888 111.542 89.1259 111.53 89.2754L111.044 93.0628C111.031 93.1501 110.982 93.2248 110.907 93.2622C110.857 93.2871 110.807 93.2996 110.757 93.2996Z" fill="white"/>
<path d="M114.047 91.5055C113.984 91.5055 113.922 91.4806 113.872 91.4432C113 90.733 112.203 89.9232 111.53 89.0262C111.443 88.9016 111.455 88.7396 111.58 88.64C111.704 88.5528 111.866 88.5777 111.966 88.6898C112.539 89.4373 113.187 90.1226 113.897 90.733C114.271 89.3626 114.744 88.0046 115.317 86.6964C115.38 86.5594 115.542 86.4971 115.679 86.5594C115.816 86.6217 115.878 86.7836 115.816 86.9207C115.205 88.3285 114.694 89.7986 114.308 91.2937C114.283 91.3809 114.221 91.4556 114.134 91.4806C114.109 91.5055 114.071 91.5055 114.047 91.5055Z" fill="white"/>
<path d="M118.419 74.611C118.631 76.1061 118.706 77.7008 118.02 79.0463C117.26 80.5165 115.603 81.4135 113.959 81.4509C112.314 81.4882 110.695 80.7532 109.486 79.6319C108.652 79.8935 107.717 79.9558 106.92 79.6194C106.11 79.283 105.462 78.4857 105.45 77.6136C105.437 76.729 106.197 75.8693 107.069 75.9192C107.655 75.9566 108.153 76.3428 108.602 76.7415C108.751 76.8785 108.913 77.0156 109.112 77.028C109.436 77.0529 109.686 76.6916 109.686 76.3552C109.686 76.0313 109.524 75.7198 109.399 75.4208C108.602 73.4648 109.399 71.1101 110.931 69.6649C112.177 68.4938 113.809 67.8335 115.454 67.4846C115.691 67.4348 116.413 67.1856 116.625 67.2977C116.862 67.4348 116.986 68.2944 117.074 68.5685C117.36 69.5154 117.622 70.4623 117.846 71.4216C118.07 72.4681 118.27 73.5396 118.419 74.611Z" fill="white"/>
<path d="M113.822 81.7251C112.289 81.7251 110.695 81.0772 109.412 79.931C108.477 80.2051 107.555 80.1802 106.808 79.8687C105.836 79.4576 105.188 78.5605 105.176 77.6137C105.176 77.078 105.412 76.5298 105.811 76.1436C106.172 75.7947 106.621 75.6203 107.082 75.6452C107.754 75.6826 108.29 76.0937 108.776 76.5298C108.888 76.6294 109.013 76.7416 109.125 76.754C109.175 76.754 109.225 76.7416 109.262 76.6917C109.349 76.617 109.399 76.4799 109.399 76.3554C109.399 76.1436 109.299 75.9318 109.2 75.695C109.175 75.6327 109.15 75.5829 109.125 75.5206C108.328 73.5895 108.988 71.0978 110.72 69.4657C111.866 68.3818 113.423 67.6342 115.367 67.2106C115.417 67.1982 115.491 67.1857 115.579 67.1608C116.089 67.0238 116.488 66.9241 116.737 67.0611C116.999 67.2106 117.111 67.6342 117.248 68.2198C117.273 68.3319 117.298 68.4191 117.31 68.4814C117.609 69.4532 117.871 70.425 118.083 71.3594C118.332 72.4433 118.531 73.5272 118.681 74.5738C118.88 76.0439 118.992 77.7383 118.257 79.171C117.472 80.6785 115.79 81.6877 113.959 81.7251C113.909 81.7251 113.872 81.7251 113.822 81.7251ZM109.474 79.3454C109.536 79.3454 109.611 79.3704 109.661 79.4202C110.894 80.5664 112.451 81.2018 113.946 81.1644C115.579 81.127 117.086 80.23 117.771 78.8969C118.444 77.6137 118.332 76.019 118.145 74.636C118.008 73.602 117.809 72.543 117.56 71.4715C117.348 70.5496 117.086 69.5903 116.8 68.6309C116.775 68.5562 116.75 68.4565 116.725 68.3319C116.687 68.145 116.575 67.6467 116.476 67.5346C116.326 67.5097 115.903 67.6342 115.741 67.6841C115.641 67.709 115.554 67.7339 115.504 67.7464C113.66 68.1326 112.177 68.8552 111.118 69.8644C109.536 71.3345 108.926 73.5771 109.636 75.3088C109.661 75.3587 109.686 75.4209 109.711 75.4708C109.823 75.7324 109.947 76.019 109.947 76.3429C109.947 76.617 109.823 76.9035 109.636 77.078C109.486 77.2275 109.287 77.3022 109.088 77.2898C108.789 77.2648 108.577 77.078 108.415 76.9285C108.004 76.5547 107.555 76.2058 107.057 76.1809C106.758 76.1685 106.446 76.2931 106.185 76.5298C105.886 76.8163 105.711 77.215 105.711 77.6012C105.724 78.3238 106.247 79.0464 107.007 79.3579C107.68 79.632 108.527 79.6445 109.387 79.3579C109.424 79.3579 109.449 79.3454 109.474 79.3454Z" fill="#3D3D3D"/>
<path d="M108.602 78.7103L107.331 78.6605C107.182 78.648 107.057 78.5234 107.069 78.3739C107.082 78.2244 107.207 78.1123 107.356 78.1123L108.627 78.1621C108.776 78.1746 108.901 78.2992 108.888 78.4487C108.876 78.5982 108.751 78.7103 108.602 78.7103Z" fill="#3D3D3D"/>
<path d="M56.9108 177.657C56.8112 177.657 56.724 177.607 56.6741 177.508C56.5994 177.371 56.6492 177.209 56.7863 177.134L91.596 158.645C91.733 158.57 91.895 158.62 91.9697 158.757C92.0445 158.894 91.9946 159.056 91.8576 159.131L57.0479 177.62C56.9981 177.645 56.9482 177.657 56.9108 177.657Z" fill="#002C9D"/>
<path d="M89.7145 230.894C89.6148 230.894 89.5276 230.844 89.4778 230.757C89.403 230.632 89.4404 230.458 89.5775 230.383L118.419 213.551C118.544 213.476 118.718 213.514 118.793 213.651C118.868 213.775 118.831 213.95 118.694 214.024L89.8516 230.856C89.8142 230.881 89.7643 230.894 89.7145 230.894Z" fill="#002C9D"/>
<path d="M169 29.965C186.402 14.3326 221.395 -9.33827 236.982 5.92505C241.292 10.1452 240.119 16.94 237.654 22.4452C232.434 34.1039 228.997 48.6008 239.909 50.7215C241.274 50.9867 242.688 50.8353 244.07 50.6837C256.289 49.3428 272.179 53.248 251 78.9648" stroke="#A5B2BF"/>
<path d="M216.83 41.3579C215.608 46.9098 214.758 57.0302 219.792 57.8222C221.195 58.043 222.537 57.3041 223.874 56.8248C228.834 55.0468 234.849 55.62 229.642 68.8021" stroke="#A5B2BF"/>
</svg>
