<svg width="148" height="102" viewBox="0 0 148 102" fill="none" xmlns="http://www.w3.org/2000/svg">
<path d="M1 10.6573L10.6573 1M1 1L10.6573 10.6573M23.5857 33.243L33.243 23.5857M23.5857 23.5857L33.243 33.243M1 55.8287L10.6573 46.1713M1 46.1713L10.6573 55.8287M23.5857 78.4143L33.243 68.757M23.5857 68.757L33.243 78.4143M1 101L10.6573 91.3427M1 91.3427L10.6573 101M46.1713 10.6573L55.8287 1M46.1713 1L55.8287 10.6573M68.757 33.243L78.4143 23.5857M68.757 23.5857L78.4143 33.243M46.1713 55.8287L55.8287 46.1713M46.1713 46.1713L55.8287 55.8287M68.757 78.4143L78.4143 68.757M68.757 68.757L78.4143 78.4143M46.1713 101L55.8287 91.3427M46.1713 91.3427L55.8287 101M91.3427 10.6573L101 1M91.3427 1L101 10.6573M113.928 33.243L123.664 23.5857M113.928 23.5857L123.664 33.243M91.3427 55.8287L101 46.1713M91.3427 46.1713L101 55.8287M113.928 78.4143L123.664 68.757M113.928 68.757L123.664 78.4143M91.3427 101L101 91.3427M91.3427 91.3427L101 101M136.514 10.6573L146.249 1M136.514 1L146.249 10.6573M136.514 55.8287L146.249 46.1713M136.514 46.1713L146.249 55.8287M136.514 101L146.249 91.3427M136.514 91.3427L146.249 101" stroke="#0047FF" stroke-width="2.33645" stroke-miterlimit="10"/>
</svg>
