<svg width="106" height="82" viewBox="0 0 106 82" fill="none" xmlns="http://www.w3.org/2000/svg">
<path d="M2.2 4.4C3.41503 4.4 4.4 3.41503 4.4 2.2C4.4 0.984974 3.41503 0 2.2 0C0.984974 0 0 0.984974 0 2.2C0 3.41503 0.984974 4.4 2.2 4.4Z" fill="#0047FF"/>
<path d="M2.2 19.9C3.41503 19.9 4.4 18.915 4.4 17.7C4.4 16.485 3.41503 15.5 2.2 15.5C0.984974 15.5 0 16.485 0 17.7C0 18.915 0.984974 19.9 2.2 19.9Z" fill="#0047FF"/>
<path d="M2.2 35.4C3.41503 35.4 4.4 34.415 4.4 33.2C4.4 31.985 3.41503 31 2.2 31C0.984974 31 0 31.985 0 33.2C0 34.415 0.984974 35.4 2.2 35.4Z" fill="#0047FF"/>
<path d="M2.2 50.8C3.41503 50.8 4.4 49.815 4.4 48.6C4.4 47.385 3.41503 46.4 2.2 46.4C0.984974 46.4 0 47.385 0 48.6C0 49.815 0.984974 50.8 2.2 50.8Z" fill="#0047FF"/>
<path d="M2.2 66.3C3.41503 66.3 4.4 65.315 4.4 64.1C4.4 62.885 3.41503 61.9 2.2 61.9C0.984974 61.9 0 62.885 0 64.1C0 65.315 0.984974 66.3 2.2 66.3Z" fill="#0047FF"/>
<path d="M22.2 4.4C23.415 4.4 24.4 3.41503 24.4 2.2C24.4 0.984974 23.415 0 22.2 0C20.985 0 20 0.984974 20 2.2C20 3.41503 20.985 4.4 22.2 4.4Z" fill="#0047FF"/>
<path d="M22.2 19.9C23.415 19.9 24.4 18.915 24.4 17.7C24.4 16.485 23.415 15.5 22.2 15.5C20.985 15.5 20 16.485 20 17.7C20 18.915 20.985 19.9 22.2 19.9Z" fill="#0047FF"/>
<path d="M22.2 35.4C23.415 35.4 24.4 34.415 24.4 33.2C24.4 31.985 23.415 31 22.2 31C20.985 31 20 31.985 20 33.2C20 34.415 20.985 35.4 22.2 35.4Z" fill="#0047FF"/>
<path d="M22.2 50.8C23.415 50.8 24.4 49.815 24.4 48.6C24.4 47.385 23.415 46.4 22.2 46.4C20.985 46.4 20 47.385 20 48.6C20 49.815 20.985 50.8 22.2 50.8Z" fill="#0047FF"/>
<path d="M22.2 66.3C23.415 66.3 24.4 65.315 24.4 64.1C24.4 62.885 23.415 61.9 22.2 61.9C20.985 61.9 20 62.885 20 64.1C20 65.315 20.985 66.3 22.2 66.3Z" fill="#0047FF"/>
<path d="M42.2 4.4C43.415 4.4 44.4 3.41503 44.4 2.2C44.4 0.984974 43.415 0 42.2 0C40.985 0 40 0.984974 40 2.2C40 3.41503 40.985 4.4 42.2 4.4Z" fill="#0047FF"/>
<path d="M42.2 19.9C43.415 19.9 44.4 18.915 44.4 17.7C44.4 16.485 43.415 15.5 42.2 15.5C40.985 15.5 40 16.485 40 17.7C40 18.915 40.985 19.9 42.2 19.9Z" fill="#0047FF"/>
<path d="M42.2 35.4C43.415 35.4 44.4 34.415 44.4 33.2C44.4 31.985 43.415 31 42.2 31C40.985 31 40 31.985 40 33.2C40 34.415 40.985 35.4 42.2 35.4Z" fill="#0047FF"/>
<path d="M42.2 50.8C43.415 50.8 44.4 49.815 44.4 48.6C44.4 47.385 43.415 46.4 42.2 46.4C40.985 46.4 40 47.385 40 48.6C40 49.815 40.985 50.8 42.2 50.8Z" fill="#0047FF"/>
<path d="M42.2 66.3C43.415 66.3 44.4 65.315 44.4 64.1C44.4 62.885 43.415 61.9 42.2 61.9C40.985 61.9 40 62.885 40 64.1C40 65.315 40.985 66.3 42.2 66.3Z" fill="#0047FF"/>
<path d="M62.2 4.4C63.415 4.4 64.4 3.41503 64.4 2.2C64.4 0.984974 63.415 0 62.2 0C60.985 0 60 0.984974 60 2.2C60 3.41503 60.985 4.4 62.2 4.4Z" fill="#0047FF"/>
<path d="M62.2 19.9C63.415 19.9 64.4 18.915 64.4 17.7C64.4 16.485 63.415 15.5 62.2 15.5C60.985 15.5 60 16.485 60 17.7C60 18.915 60.985 19.9 62.2 19.9Z" fill="#0047FF"/>
<path d="M62.2 35.4C63.415 35.4 64.4 34.415 64.4 33.2C64.4 31.985 63.415 31 62.2 31C60.985 31 60 31.985 60 33.2C60 34.415 60.985 35.4 62.2 35.4Z" fill="#0047FF"/>
<path d="M62.2 50.8C63.415 50.8 64.4 49.815 64.4 48.6C64.4 47.385 63.415 46.4 62.2 46.4C60.985 46.4 60 47.385 60 48.6C60 49.815 60.985 50.8 62.2 50.8Z" fill="#0047FF"/>
<path d="M62.2 66.3C63.415 66.3 64.4 65.315 64.4 64.1C64.4 62.885 63.415 61.9 62.2 61.9C60.985 61.9 60 62.885 60 64.1C60 65.315 60.985 66.3 62.2 66.3Z" fill="#0047FF"/>
<path d="M82.2 4.4C83.415 4.4 84.4 3.41503 84.4 2.2C84.4 0.984974 83.415 0 82.2 0C80.985 0 80 0.984974 80 2.2C80 3.41503 80.985 4.4 82.2 4.4Z" fill="#0047FF"/>
<path d="M82.2 19.9C83.415 19.9 84.4 18.915 84.4 17.7C84.4 16.485 83.415 15.5 82.2 15.5C80.985 15.5 80 16.485 80 17.7C80 18.915 80.985 19.9 82.2 19.9Z" fill="#0047FF"/>
<path d="M82.2 35.4C83.415 35.4 84.4 34.415 84.4 33.2C84.4 31.985 83.415 31 82.2 31C80.985 31 80 31.985 80 33.2C80 34.415 80.985 35.4 82.2 35.4Z" fill="#0047FF"/>
<path d="M82.2 50.8C83.415 50.8 84.4 49.815 84.4 48.6C84.4 47.385 83.415 46.4 82.2 46.4C80.985 46.4 80 47.385 80 48.6C80 49.815 80.985 50.8 82.2 50.8Z" fill="#0047FF"/>
<path d="M82.2 66.3C83.415 66.3 84.4 65.315 84.4 64.1C84.4 62.885 83.415 61.9 82.2 61.9C80.985 61.9 80 62.885 80 64.1C80 65.315 80.985 66.3 82.2 66.3Z" fill="#0047FF"/>
<path d="M103.2 4.4C104.415 4.4 105.4 3.41503 105.4 2.2C105.4 0.984974 104.415 0 103.2 0C101.985 0 101 0.984974 101 2.2C101 3.41503 101.985 4.4 103.2 4.4Z" fill="#0047FF"/>
<path d="M103.2 19.9C104.415 19.9 105.4 18.915 105.4 17.7C105.4 16.485 104.415 15.5 103.2 15.5C101.985 15.5 101 16.485 101 17.7C101 18.915 101.985 19.9 103.2 19.9Z" fill="#0047FF"/>
<path d="M103.2 35.4C104.415 35.4 105.4 34.415 105.4 33.2C105.4 31.985 104.415 31 103.2 31C101.985 31 101 31.985 101 33.2C101 34.415 101.985 35.4 103.2 35.4Z" fill="#0047FF"/>
<path d="M103.2 50.8C104.415 50.8 105.4 49.815 105.4 48.6C105.4 47.385 104.415 46.4 103.2 46.4C101.985 46.4 101 47.385 101 48.6C101 49.815 101.985 50.8 103.2 50.8Z" fill="#0047FF"/>
<path d="M103.2 66.3C104.415 66.3 105.4 65.315 105.4 64.1C105.4 62.885 104.415 61.9 103.2 61.9C101.985 61.9 101 62.885 101 64.1C101 65.315 101.985 66.3 103.2 66.3Z" fill="#0047FF"/>
<path d="M2.2 81.2999C3.41503 81.2999 4.4 80.3149 4.4 79.0999C4.4 77.8849 3.41503 76.8999 2.2 76.8999C0.984974 76.8999 0 77.8849 0 79.0999C0 80.3149 0.984974 81.2999 2.2 81.2999Z" fill="#0047FF"/>
<path d="M22.2 81.2999C23.415 81.2999 24.4 80.3149 24.4 79.0999C24.4 77.8849 23.415 76.8999 22.2 76.8999C20.985 76.8999 20 77.8849 20 79.0999C20 80.3149 20.985 81.2999 22.2 81.2999Z" fill="#0047FF"/>
<path d="M42.2 81.2999C43.415 81.2999 44.4 80.3149 44.4 79.0999C44.4 77.8849 43.415 76.8999 42.2 76.8999C40.985 76.8999 40 77.8849 40 79.0999C40 80.3149 40.985 81.2999 42.2 81.2999Z" fill="#0047FF"/>
<path d="M62.2 81.2999C63.415 81.2999 64.4 80.3149 64.4 79.0999C64.4 77.8849 63.415 76.8999 62.2 76.8999C60.985 76.8999 60 77.8849 60 79.0999C60 80.3149 60.985 81.2999 62.2 81.2999Z" fill="#0047FF"/>
<path d="M82.2 81.2999C83.415 81.2999 84.4 80.3149 84.4 79.0999C84.4 77.8849 83.415 76.8999 82.2 76.8999C80.985 76.8999 80 77.8849 80 79.0999C80 80.3149 80.985 81.2999 82.2 81.2999Z" fill="#0047FF"/>
<path d="M103.2 81.2999C104.415 81.2999 105.4 80.3149 105.4 79.0999C105.4 77.8849 104.415 76.8999 103.2 76.8999C101.985 76.8999 101 77.8849 101 79.0999C101 80.3149 101.985 81.2999 103.2 81.2999Z" fill="#0047FF"/>
</svg>
