<svg width="507" height="595" viewBox="0 0 507 595" fill="none" xmlns="http://www.w3.org/2000/svg">
<path d="M-60.3645 416.549C-51.2671 401.143 -42.1195 385.788 -33.0221 370.383C-32.2933 369.127 -31.4891 368.448 -29.9059 368.448C-11.686 368.348 6.53393 368.172 24.7538 367.996C25.0805 367.996 25.4072 368.071 25.7339 368.121C25.3821 370.484 2.66377 409.612 -3.4179 418.283C-22.5928 418.459 -41.6923 418.634 -61.1687 418.81C-60.842 417.881 -60.7163 417.152 -60.3645 416.549ZM31.1622 368.146C48.8041 368.348 66.4208 368.549 84.0627 368.725C85.8219 368.75 86.9025 369.252 87.8072 370.81C96.8292 386.241 105.952 401.596 114.999 417.001C115.275 417.478 115.501 417.981 115.904 418.836C114.898 418.961 114.094 419.162 113.29 419.162C95.6481 418.986 78.0313 418.76 60.3894 418.584C58.8313 418.559 57.7004 418.283 56.8208 416.8C47.5727 400.993 38.2743 385.235 28.9758 369.453C28.8502 369.277 28.8502 369.026 28.624 368.322C29.6795 368.222 30.4083 368.146 31.1622 368.146ZM-0.578104 419.439C-0.578104 418.358 -0.201143 417.277 0.502516 416.046C8.87111 401.52 17.0638 386.894 25.3318 372.293C25.9098 371.238 26.513 370.232 27.3423 368.825C28.0711 369.805 28.6743 370.433 29.0763 371.137C37.5706 386.241 46.0146 401.37 54.5842 416.423C55.1873 417.504 55.514 418.433 55.514 419.414C55.514 420.293 55.2376 421.198 54.6596 422.203C46.09 437.131 37.6711 452.134 29.202 467.112C28.7245 467.966 28.1716 468.771 27.2669 470.153C25.6334 467.313 24.3015 465.026 22.9947 462.714C15.4805 449.344 8.06692 435.95 0.42713 422.655C-0.251405 421.525 -0.578104 420.469 -0.578104 419.439ZM116.13 524.159C115.451 525.466 114.999 526.446 114.446 527.351C105.726 542.077 96.9549 556.754 88.335 571.531C87.1287 573.617 85.7968 574.396 83.3591 574.396C66.2449 574.446 49.1308 574.647 32.0418 574.798C30.9612 574.798 29.9057 574.722 28.4481 574.647C29.1266 573.34 29.579 572.36 30.1318 571.455C38.8523 556.729 47.6229 542.052 56.2428 527.275C57.4491 525.189 58.781 524.41 61.1936 524.41C78.3077 524.36 95.4219 524.159 112.511 524.008C113.592 524.008 114.647 524.109 116.13 524.159ZM121.005 524.159C138.647 524.335 156.289 524.561 173.906 524.737C175.464 524.762 176.595 525.064 177.474 526.546C186.672 542.253 195.945 557.91 205.194 573.592C205.37 573.868 205.445 574.195 205.746 574.974C204.54 575.049 203.686 575.15 202.831 575.125C185.416 574.923 168 574.697 150.584 574.547C148.775 574.521 147.518 574.22 146.488 572.461C137.491 557.03 128.368 541.65 119.296 526.27C119.02 525.793 118.819 525.29 118.392 524.435C119.397 524.335 120.201 524.159 121.005 524.159ZM89.6669 573.29C98.4879 557.86 107.183 542.379 115.954 526.923C116.281 526.345 116.683 525.843 117.261 524.988C117.889 525.818 118.492 526.446 118.894 527.15C127.439 542.329 135.958 557.558 144.553 572.737C145.106 573.717 145.432 574.597 145.432 575.476C145.432 576.23 145.206 577.009 144.704 577.914C135.958 593.143 127.363 608.448 118.718 623.703C118.341 624.356 117.889 624.959 117.06 626.19C116.23 624.733 115.677 623.803 115.15 622.873C106.756 607.971 98.4125 593.043 89.9936 578.14C89.4407 577.16 89.0386 576.281 89.0386 575.326C89.0386 574.722 89.2146 574.044 89.6669 573.29ZM269.604 573.114C278.174 558.186 286.593 543.183 295.062 528.205C295.539 527.351 296.117 526.546 296.846 525.416C297.499 526.345 298.077 526.974 298.479 527.677C307.049 542.882 315.543 558.086 324.163 573.265C324.716 574.22 324.993 575.074 324.993 575.929C324.993 576.708 324.741 577.512 324.214 578.442C315.543 593.571 307.024 608.775 298.429 623.929C298.002 624.683 297.474 625.386 296.62 626.693C295.765 625.21 295.212 624.255 294.66 623.326C286.341 608.498 278.073 593.671 269.68 578.894C269.076 577.814 268.725 576.884 268.725 575.904C268.75 575.024 269.026 574.144 269.604 573.114ZM330.27 574.898C328.486 574.873 327.204 574.597 326.174 572.838C317.152 557.407 308.054 542.002 298.957 526.622C298.681 526.17 298.505 525.642 298.103 524.838C299.133 524.712 299.962 524.511 300.766 524.511C318.308 524.687 335.849 524.963 353.39 525.064C355.602 525.089 356.758 525.893 357.839 527.728C366.685 542.882 375.631 557.985 384.528 573.089C384.854 573.642 385.081 574.27 385.583 575.351C384.251 575.426 383.372 575.501 382.517 575.501C365.152 575.275 347.711 575.074 330.27 574.898ZM265.96 574.647C246.936 574.823 227.811 574.999 207.908 575.175C218.01 558.086 227.761 541.625 237.638 524.988C256.812 524.812 275.987 524.637 295.212 524.461C294.685 527.024 270.031 569.244 265.96 574.647ZM234.823 525.617C225.876 541.323 216.98 557.081 208.084 572.812C207.883 573.164 207.556 573.491 206.928 574.295C206.149 572.938 205.571 572.008 205.043 571.028C196.725 556.226 188.456 541.399 180.038 526.647C179.409 525.541 179.083 524.586 179.083 523.631C179.083 522.676 179.409 521.696 180.038 520.59C188.557 505.788 196.9 490.886 205.319 476.008C205.797 475.154 206.375 474.35 207.104 473.194C207.707 474.023 208.184 474.551 208.536 475.154C217.231 490.634 225.901 506.115 234.622 521.596C235.074 522.375 235.351 523.078 235.351 523.832C235.326 524.41 235.175 524.988 234.823 525.617ZM240.025 522.827C238.291 522.802 237.185 522.35 236.255 520.766C227.208 505.336 218.086 489.956 209.014 474.551C208.737 474.073 208.561 473.571 208.084 472.565C209.541 472.49 210.521 472.415 211.501 472.415C228.716 472.616 245.906 472.842 263.12 472.967C265.332 472.993 266.739 473.545 267.92 475.581C276.691 490.66 285.587 505.663 294.433 520.666C294.81 521.319 295.137 522.023 295.64 523.003C294.735 523.154 294.031 523.405 293.328 523.405C275.56 523.229 257.793 523.003 240.025 522.827ZM204.616 475.028C195.694 490.107 186.722 505.21 177.801 520.289C176.972 521.721 176.142 522.626 174.232 522.626C156.339 522.701 138.496 522.903 120.628 523.078C120 523.078 119.372 522.953 118.216 522.852C119.02 521.395 119.548 520.415 120.1 519.46C128.745 504.859 137.466 490.257 146.036 475.606C147.242 473.545 148.549 472.691 150.986 472.691C168.1 472.641 185.164 472.44 202.278 472.289C203.334 472.289 204.415 472.364 205.872 472.415C205.344 473.52 205.043 474.324 204.616 475.028ZM113.064 522.928C95.623 522.727 78.2072 522.5 60.7664 522.375C58.781 522.35 57.5496 521.772 56.5193 520.012C47.6481 504.859 38.7015 489.755 29.8051 474.651C29.4282 473.998 29.1015 473.294 28.5737 472.214C29.78 472.113 30.7098 471.962 31.6146 471.962C49.0554 472.163 66.4711 472.389 83.9119 472.515C86.1235 472.54 87.2795 473.344 88.3601 475.179C97.2062 490.333 106.153 505.437 115.049 520.54C115.376 521.093 115.602 521.721 116.105 522.802C114.773 522.852 113.918 522.928 113.064 522.928ZM144.704 473.872C135.883 489.277 127.187 504.758 118.442 520.188C118.14 520.741 117.738 521.244 116.984 522.325C116.205 520.967 115.703 520.113 115.225 519.259C106.806 504.255 98.4125 489.227 89.9182 474.299C89.3653 473.319 89.0638 472.44 89.0638 471.585C89.0638 470.731 89.3402 469.851 89.9182 468.846C98.4627 453.918 106.882 438.915 115.351 423.962C115.828 423.108 116.381 422.329 117.135 421.173C117.839 422.203 118.417 422.932 118.894 423.736C127.439 438.915 135.933 454.119 144.503 469.298C145.005 470.178 145.307 470.982 145.307 471.811C145.307 472.44 145.131 473.093 144.704 473.872ZM150.082 470.63C148.423 470.605 147.468 469.977 146.639 468.57C137.617 453.164 128.519 437.784 119.472 422.379C119.145 421.826 118.944 421.248 118.567 420.368C119.849 420.293 120.804 420.193 121.759 420.218C139.074 420.394 156.389 420.62 173.679 420.796C175.464 420.821 176.745 421.072 177.776 422.856C186.823 438.387 195.996 453.843 205.143 469.323C205.37 469.7 205.52 470.103 205.822 470.781C205.018 470.932 204.314 471.208 203.636 471.183C185.793 471.032 167.925 470.806 150.082 470.63ZM116.205 420.318C106.253 437.332 96.402 453.767 86.5758 470.379C67.3507 470.555 48.1758 470.731 28.3476 470.907C29.3025 469.223 29.8051 468.243 30.3831 467.313C38.9779 452.762 47.6481 438.262 56.1674 423.686C57.424 421.55 58.7308 420.595 61.3444 420.595C78.2324 420.595 95.1203 420.368 111.983 420.218C113.164 420.218 114.345 420.268 116.205 420.318ZM-61.6462 420.067C-59.9875 419.992 -58.932 419.891 -57.8765 419.891C-40.7624 420.067 -23.6734 420.343 -6.5844 420.419C-3.97078 420.419 -2.61371 421.323 -1.35716 423.51C7.2376 438.287 15.9832 453.014 24.6533 467.74C25.1559 468.57 25.5329 469.449 26.2114 470.781C24.603 470.831 23.6229 470.882 22.6177 470.882C5.5287 470.681 -11.5603 470.454 -28.6744 470.329C-31.0368 470.304 -32.4692 469.65 -33.7006 467.514C-42.3205 452.737 -51.0409 438.036 -59.7614 423.309C-60.3142 422.379 -60.842 421.449 -61.6462 420.067ZM-63.9833 519.359C-72.5781 504.105 -81.1729 488.8 -89.7928 473.52C-90.2954 472.641 -90.597 471.862 -90.597 471.032C-90.597 470.379 -90.3959 469.7 -89.9687 468.947C-81.1729 453.541 -72.4776 438.061 -63.732 422.63C-63.4053 422.077 -63.0032 421.575 -62.2745 420.494C-61.4954 421.826 -61.0179 422.655 -60.5153 423.535C-52.0462 438.639 -43.5771 453.742 -35.0828 468.821C-34.5802 469.7 -34.2535 470.505 -34.2535 471.334C-34.2535 471.962 -34.4294 472.641 -34.8566 473.395C-43.6525 488.8 -52.3477 504.281 -61.0933 519.736C-61.42 520.289 -61.797 520.792 -62.4001 521.646C-63.0284 520.716 -63.5813 520.088 -63.9833 519.359ZM-61.5457 522.526C-51.4933 505.562 -41.7928 489.177 -31.8661 472.465C-12.7415 472.289 6.48367 472.113 26.2617 471.937C25.5078 473.395 25.0554 474.375 24.5025 475.279C15.8072 489.981 7.03655 504.657 -1.58334 519.409C-2.81475 521.52 -4.17183 522.199 -6.55925 522.224C-23.5226 522.274 -40.5111 522.475 -57.4996 522.626C-58.6053 522.626 -59.686 522.551 -61.5457 522.526ZM-9.63752e-05 520.691C8.6198 505.663 17.0889 490.559 25.6334 475.481C26.0606 474.727 26.5633 473.998 27.2167 472.967C27.7947 473.671 28.3476 474.149 28.6994 474.752C37.4198 490.232 46.1151 505.738 54.8606 521.219C55.313 521.998 55.5894 522.701 55.5894 523.455C55.5894 524.008 55.4387 524.586 55.0868 525.215C46.0648 541.047 37.1182 556.879 28.1465 572.737C27.9706 573.014 27.7193 573.24 27.0407 574.044C26.312 572.762 25.7591 571.832 25.2313 570.903C16.8627 555.975 8.51928 541.047 0.100429 526.17C-0.477582 525.164 -0.779157 524.285 -0.779157 523.38C-0.804288 522.526 -0.552976 521.671 -9.63752e-05 520.691ZM-57.9771 523.682C-40.6619 523.883 -23.3718 524.109 -6.05664 524.234C-4.09643 524.26 -2.81476 524.737 -1.75926 526.546C7.08682 541.675 16.0334 556.754 24.9549 571.858C25.3821 572.586 25.7088 573.365 26.2366 574.446C24.9549 574.521 23.9999 574.647 23.0449 574.647C5.85541 574.446 -11.3341 574.195 -28.5488 574.119C-30.9614 574.094 -32.3184 573.315 -33.5247 571.229C-42.1697 556.352 -50.9404 541.575 -59.686 526.748C-60.1634 525.918 -60.5655 525.039 -61.1687 523.883C-59.9121 523.807 -58.9572 523.682 -57.9771 523.682ZM-64.1341 623.275C-72.7289 608.021 -81.2985 592.716 -89.9184 577.437C-90.421 576.557 -90.7226 575.778 -90.7226 574.949C-90.7226 574.295 -90.5216 573.617 -90.0943 572.863C-81.2985 557.458 -72.5781 541.977 -63.8577 526.521C-63.531 525.968 -63.1289 525.466 -62.4001 524.41C-61.6713 525.667 -61.2189 526.421 -60.8169 527.2C-52.2723 542.379 -43.7781 557.583 -35.2085 572.762C-34.7059 573.642 -34.4043 574.421 -34.4043 575.25C-34.4043 575.904 -34.6053 576.557 -35.0326 577.336C-43.8284 592.766 -52.5237 608.222 -61.2692 623.677C-61.5708 624.23 -61.998 624.733 -62.576 625.562C-63.2043 624.658 -63.7069 624.004 -64.1341 623.275ZM24.4271 579.372C15.757 593.973 7.06169 608.574 -1.50794 623.225C-2.71423 625.286 -4.02103 626.115 -6.45873 626.14C-23.5477 626.19 -40.6367 626.392 -57.7257 626.542C-58.8064 626.567 -59.8619 626.467 -61.3195 626.392C-60.7917 625.286 -60.4901 624.507 -60.0629 623.778C-51.1415 608.674 -42.1697 593.621 -33.2483 578.517C-32.4189 577.11 -31.5896 576.18 -29.6797 576.18C-11.8116 576.105 6.05646 575.904 23.9245 575.753C24.5528 575.753 25.2062 575.853 26.3371 575.979C25.5078 577.462 24.98 578.417 24.4271 579.372ZM60.0627 626.291C58.6303 626.291 57.5748 625.939 56.7706 624.582C47.5476 608.875 38.2743 593.194 29.0261 577.512C28.8502 577.236 28.7999 576.909 28.4732 576.029C29.9308 575.979 31.0114 575.904 32.0669 575.929C49.1559 576.105 66.2701 576.356 83.3591 576.456C85.7716 576.482 87.1538 577.236 88.3601 579.321C97.0051 594.174 105.801 609.001 114.521 623.828C114.974 624.582 115.401 625.336 116.029 626.417C115.049 626.618 114.371 626.894 113.667 626.869C95.7989 626.693 77.9308 626.467 60.0627 626.291ZM177.6 624.381C176.871 625.612 176.167 626.417 174.559 626.442C156.239 626.542 137.918 626.718 119.573 626.844C119.372 626.844 119.145 626.743 118.467 626.542C123.091 618.023 128.193 609.906 133.043 601.638C137.918 593.319 142.894 585.026 147.845 576.683C167.095 576.507 186.17 576.331 205.646 576.155C205.269 577.16 205.143 577.889 204.792 578.492C195.719 593.822 186.647 609.101 177.6 624.381ZM240.452 626.643C238.618 626.618 237.386 626.216 236.381 624.507C227.384 609.076 218.287 593.696 209.215 578.316C208.938 577.839 208.737 577.336 208.285 576.381C209.642 576.331 210.496 576.23 211.351 576.255C228.766 576.456 246.182 576.683 263.598 576.833C265.432 576.859 266.614 577.286 267.619 578.995C276.565 594.325 285.638 609.604 294.66 624.884C294.986 625.462 295.238 626.065 295.69 626.97C294.66 627.095 293.83 627.271 293.001 627.246C275.485 627.02 257.969 626.794 240.452 626.643ZM356.13 626.844C336.905 627.02 317.705 627.196 298.203 627.372C298.479 626.517 298.53 625.889 298.831 625.386C307.979 609.906 317.177 594.425 326.325 578.944C327.078 577.688 327.883 577.034 329.466 577.009C347.686 576.909 365.881 576.733 384.1 576.582C384.427 576.582 384.754 576.657 385.784 576.808C375.782 593.671 366.006 610.182 356.13 626.844ZM475.225 627.246C474.521 627.422 473.943 627.698 473.365 627.698C455.397 627.522 437.428 627.296 419.46 627.12C417.977 627.095 416.997 626.643 416.218 625.336C406.97 609.529 397.671 593.772 388.373 577.989C388.272 577.788 388.247 577.562 388.021 576.859C389.152 576.808 390.006 576.708 390.861 576.708C408.377 576.909 425.918 577.11 443.46 577.261C445.194 577.286 446.299 577.788 447.204 579.346C456.226 594.752 465.324 610.132 474.421 625.512C474.647 625.989 474.848 626.517 475.225 627.246ZM478.643 528.758C487.062 543.761 495.456 558.764 503.95 573.742C504.477 574.672 504.754 575.501 504.754 576.306C504.754 577.135 504.477 577.939 503.925 578.894C495.33 593.922 486.861 609.001 478.341 624.079C477.864 624.909 477.286 625.663 476.557 626.743C475.828 625.612 475.275 624.833 474.798 623.979C466.354 609.001 457.96 593.973 449.466 579.045C448.888 578.015 448.586 577.11 448.586 576.205C448.586 575.275 448.888 574.345 449.491 573.29C458.036 558.362 466.454 543.384 474.924 528.406C475.401 527.577 475.979 526.823 476.808 525.592C477.562 526.923 478.115 527.828 478.643 528.758ZM475.175 524.938C474.949 525.692 474.898 526.32 474.597 526.823C465.449 542.304 456.251 557.759 447.129 573.24C446.375 574.496 445.571 575.15 443.987 575.175C425.793 575.275 407.598 575.451 389.378 575.602C389.051 575.602 388.725 575.501 387.87 575.376C388.473 574.195 388.875 573.315 389.353 572.486C398.174 557.583 407.045 542.706 415.816 527.778C416.821 526.069 417.851 525.29 419.962 525.265C437.504 525.189 455.045 524.988 472.561 524.838C473.365 524.812 474.119 524.888 475.175 524.938ZM388.423 476.26C396.942 491.439 405.462 506.643 414.031 521.822C414.534 522.701 414.836 523.506 414.836 524.335C414.836 524.963 414.66 525.642 414.207 526.396C405.386 541.801 396.691 557.282 387.971 572.737C387.644 573.29 387.242 573.793 386.664 574.647C385.96 573.642 385.382 572.913 384.93 572.084C376.385 556.905 367.866 541.7 359.296 526.521C358.794 525.642 358.492 524.838 358.492 524.008C358.492 523.355 358.693 522.701 359.12 521.948C367.916 506.517 376.637 491.062 385.357 475.606C385.684 475.053 386.086 474.551 386.815 473.47C387.543 474.727 387.996 475.481 388.423 476.26ZM384.301 475.33C375.305 490.534 366.283 505.713 357.311 520.917C356.482 522.324 355.602 522.953 353.918 522.978C335.925 523.078 317.931 523.279 299.937 523.43C299.51 523.43 299.057 523.355 298.077 523.254C302.752 514.559 307.878 506.467 312.704 498.224C317.579 489.906 322.53 481.612 327.506 473.269C346.731 473.093 365.83 472.917 385.382 472.741C384.93 473.822 384.704 474.626 384.301 475.33ZM324.314 474.5C315.644 489.629 307.125 504.833 298.53 519.987C298.103 520.741 297.575 521.42 296.771 522.676C295.162 519.862 293.805 517.575 292.523 515.288C285.009 501.918 277.571 488.523 269.956 475.229C269.277 474.023 268.9 472.993 268.9 471.937C268.9 470.982 269.202 470.002 269.855 468.871C278.35 454.144 286.643 439.342 295.011 424.565C295.539 423.61 296.142 422.706 296.871 421.499C297.499 422.304 298.052 422.831 298.404 423.46C307.024 438.739 315.594 454.069 324.239 469.323C324.792 470.278 325.068 471.133 325.068 471.987C325.093 472.792 324.842 473.596 324.314 474.5ZM301.068 420.695C318.484 420.896 335.899 421.122 353.315 421.273C355.125 421.298 356.356 421.675 357.361 423.409C366.383 438.84 375.481 454.195 384.553 469.6C384.829 470.077 385.03 470.58 385.382 471.334C384.528 471.485 383.799 471.711 383.095 471.711C365.353 471.535 347.585 471.309 329.843 471.133C328.285 471.108 327.154 470.781 326.299 469.298C317.101 453.592 307.853 437.935 298.605 422.253C298.429 421.977 298.379 421.65 298.077 420.871C299.359 420.771 300.214 420.695 301.068 420.695ZM295.966 420.796C285.964 437.684 276.188 454.17 266.312 470.856C247.087 471.032 227.912 471.208 208.335 471.384C208.662 470.429 208.812 469.7 209.164 469.122C218.262 453.717 227.409 438.362 236.507 422.957C237.235 421.7 238.015 421.022 239.623 420.997C257.843 420.896 276.063 420.72 294.283 420.57C294.584 420.544 294.911 420.645 295.966 420.796ZM234.371 422.429C225.7 437.558 217.181 452.762 208.586 467.916C208.159 468.67 207.656 469.349 206.777 470.681C205.922 469.198 205.37 468.243 204.842 467.313C196.523 452.486 188.255 437.659 179.862 422.882C179.233 421.801 178.907 420.871 178.907 419.891C178.907 419.011 179.183 418.132 179.761 417.127C188.331 402.199 196.75 387.196 205.219 372.193C205.696 371.338 206.249 370.534 206.978 369.403C207.656 370.308 208.209 370.936 208.611 371.665C217.156 386.869 225.675 402.073 234.295 417.227C234.848 418.207 235.15 419.037 235.15 419.891C235.15 420.72 234.898 421.524 234.371 422.429ZM263.925 369.026C266.061 369.051 267.066 370.031 268.046 371.69C275.937 385.21 283.878 398.706 291.82 412.226C293.101 414.412 294.358 416.624 295.941 419.388C294.283 419.439 293.202 419.489 292.121 419.489C274.907 419.288 257.717 419.062 240.503 418.936C238.517 418.911 237.286 418.358 236.23 416.574C227.384 401.42 218.438 386.316 209.516 371.212C209.114 370.559 208.812 369.855 208.335 368.9C209.215 368.75 209.943 368.498 210.647 368.498C228.389 368.649 246.157 368.9 263.925 369.026ZM176.167 418.66C157.168 418.835 138.019 419.011 118.09 419.187C128.268 402.023 137.994 385.612 147.845 369.001C166.995 368.825 186.17 368.649 205.395 368.473C204.892 370.961 180.515 412.754 176.167 418.66ZM119.271 320.197C127.69 335.2 136.059 350.203 144.578 365.156C145.106 366.111 145.382 366.915 145.382 367.744C145.382 368.574 145.106 369.378 144.578 370.333C135.983 385.361 127.514 400.44 118.995 415.518C118.517 416.348 117.939 417.101 117.21 418.182C116.482 417.076 115.929 416.272 115.451 415.443C107.007 400.465 98.6135 385.437 90.1193 370.509C89.5161 369.478 89.2397 368.549 89.2397 367.644C89.2397 366.714 89.5413 365.784 90.1444 364.754C98.6889 349.826 107.108 334.823 115.577 319.87C116.054 319.041 116.632 318.262 117.462 317.055C118.216 318.362 118.743 319.292 119.271 320.197ZM-61.1184 318.739C-52.398 334.22 -43.7027 349.726 -34.9572 365.181C-34.5048 365.96 -34.2284 366.664 -34.2284 367.418C-34.2284 367.971 -34.3792 368.549 -34.7561 369.177C-43.753 385.009 -52.7247 400.842 -61.6964 416.699C-61.8472 416.976 -62.0985 417.202 -62.8022 418.006C-63.5561 416.725 -64.0839 415.795 -64.6116 414.865C-72.9802 399.937 -81.3237 385.009 -89.7425 370.132C-90.3205 369.127 -90.6221 368.222 -90.6221 367.317C-90.6221 366.488 -90.3457 365.633 -89.7928 364.653C-81.1729 349.625 -72.7038 334.521 -64.1844 319.443C-63.7572 318.664 -63.2546 317.96 -62.6012 316.93C-62.0231 317.659 -61.4703 318.136 -61.1184 318.739ZM-64.1342 3.94964C-64.4106 4.35174 -64.6368 4.65326 -64.8127 4.92969C-65.1645 5.40716 -65.441 5.80932 -65.6923 6.26166L-73.131 19.3799C-79.2881 30.2617 -85.6462 41.5203 -91.954 52.5779C-92.2556 53.1057 -92.4818 53.6585 -92.6577 54.2365L-92.6828 54.3119L-92.708 54.3873C-92.7834 54.7894 -92.8336 55.1915 -92.8336 55.5936C-92.8336 56.046 -92.7834 56.4983 -92.6828 56.9506L-92.6577 57.0009L-92.6326 57.1014C-92.5823 57.3276 -92.4567 57.6292 -92.3561 57.9559C-92.1802 58.358 -92.0294 58.7098 -91.8033 59.0868C-86.5006 68.4606 -81.2232 77.8345 -75.9457 87.2083C-72.6284 93.114 -69.3111 99.0198 -65.9687 104.926C-65.642 105.529 -65.2399 106.031 -64.8378 106.584C-64.6619 106.835 -64.4609 107.087 -64.2598 107.388L-64.1593 107.539L-64.5865 108.368C-64.7122 108.57 -64.8378 108.72 -64.9383 108.871C-65.2902 109.349 -65.5415 109.726 -65.8179 110.178L-72.754 122.467C-79.0116 133.55 -85.4703 144.984 -91.8787 156.218L-91.9289 156.293L-91.9792 156.368C-92.5069 157.474 -92.7582 158.53 -92.7582 159.585C-92.7582 160.691 -92.4818 161.772 -91.9289 162.928L-91.9038 163.003L-91.8787 163.053C-88.687 168.683 -85.5205 174.337 -82.354 179.966L-79.7656 184.565L-78.9111 186.098L-77.7551 188.159C-74.6389 193.688 -71.5478 199.217 -68.4315 204.745L-66.0944 208.817C-65.7425 209.42 -65.3656 209.973 -64.9383 210.526C-64.7624 210.752 -64.5865 211.003 -64.3855 211.279L-64.1341 211.631L-64.3352 211.908C-64.5111 212.159 -64.6619 212.335 -64.7875 212.511C-65.0389 212.863 -65.265 213.164 -65.4661 213.541L-72.5279 226.006L-79.4891 238.295L-80.243 239.451L-83.4347 245.131C-86.2996 250.207 -89.1896 255.284 -92.0546 260.36C-92.6326 261.365 -92.909 262.345 -92.909 263.376C-92.909 264.808 -92.331 266.015 -91.8284 266.894C-86.7771 275.866 -81.7258 284.838 -76.6745 293.834C-73.131 300.142 -69.5875 306.45 -66.019 312.783C-65.6923 313.386 -65.3153 313.889 -64.8881 314.492C-64.7373 314.718 -64.5614 314.944 -64.3854 315.196L-65.5917 317.256L-65.4661 317.256C-65.7174 317.659 -65.9436 318.035 -66.1697 318.412C-68.3813 322.308 -70.5676 326.228 -72.7792 330.123C-78.9865 341.106 -85.3949 352.465 -91.753 363.598C-92.5069 364.93 -92.8839 366.161 -92.8839 367.393C-92.8839 368.649 -92.5069 369.906 -91.7027 371.313C-85.2692 382.647 -78.7854 394.207 -72.5279 405.39L-66.597 415.996C-66.22 416.699 -65.8179 417.378 -65.3153 418.232L-64.486 419.69C-64.6116 419.866 -64.7121 420.017 -64.8127 420.167C-65.1645 420.645 -65.4409 421.047 -65.6923 421.499L-73.1059 434.593C-79.2629 445.499 -85.621 456.758 -91.9289 467.816C-92.5572 468.921 -92.8587 469.952 -92.8587 471.032C-92.8587 472.515 -92.2807 473.747 -91.7781 474.651C-86.5006 484 -81.2231 493.374 -75.9708 502.722C-72.6284 508.628 -69.286 514.559 -65.9687 520.49C-65.642 521.093 -65.2399 521.596 -64.8378 522.149C-64.687 522.35 -64.5111 522.576 -64.3603 522.802L-65.4912 524.712L-65.3907 524.712C-65.5415 524.938 -65.6922 525.164 -65.843 525.416L-72.8043 537.73C-79.1121 548.888 -85.621 560.423 -92.0797 571.732C-92.708 572.838 -93.0095 573.893 -93.0095 574.949C-93.0095 576.431 -92.4315 577.663 -91.9038 578.542C-86.375 588.318 -80.8713 598.119 -75.3676 607.92C-72.2765 613.424 -69.1854 618.928 -66.0943 624.406C-65.7425 625.009 -65.3655 625.562 -64.9383 626.115C-64.7624 626.341 -64.5865 626.593 -64.3854 626.869L-64.1844 627.145L-64.8378 628.477L-63.2043 628.553L-62.5006 629.533L-61.8723 628.603L-61.42 628.628L-60.2388 628.678C-59.309 628.729 -58.5048 628.779 -57.7006 628.754C-52.4734 628.754 -47.221 628.704 -41.9687 628.653C-30.3331 628.553 -18.2954 628.427 -6.45873 628.402C-3.24197 628.377 -1.18124 627.171 0.452263 624.356C6.70985 613.65 13.1685 602.794 19.401 592.289C21.7381 588.368 24.0502 584.448 26.3873 580.528C26.6889 580.05 26.9654 579.548 27.2669 578.995L35.1832 592.389C41.7172 603.497 48.2763 614.605 54.8104 625.738C56.2931 628.251 58.5046 628.553 60.0376 628.553C68.7078 628.653 77.403 628.754 86.0732 628.854C95.2711 628.955 104.444 629.055 113.642 629.156C114.396 629.156 115.049 629.005 115.677 628.829C115.753 628.804 115.828 628.779 115.929 628.779L116.934 630.513L118.065 628.804C118.216 628.854 118.316 628.879 118.417 628.905C118.743 629.005 119.12 629.131 119.623 629.131L133.571 629.005C147.242 628.905 160.888 628.779 174.559 628.704C177.7 628.678 178.957 626.567 179.56 625.537C184.134 617.797 188.733 610.056 193.307 602.316C197.78 594.777 202.253 587.238 206.727 579.673C206.852 579.472 206.953 579.246 207.053 579.045C207.129 579.171 207.204 579.321 207.28 579.447L215.321 593.093C221.604 603.749 228.113 614.781 234.446 625.638C236.13 628.503 238.417 628.879 240.452 628.905C251.384 629.005 262.341 629.131 273.273 629.256C279.858 629.332 286.442 629.407 293.001 629.483C293.73 629.508 294.433 629.382 295.087 629.307C295.137 629.307 295.187 629.282 295.238 629.282L295.112 629.684L295.715 629.684L296.494 631.016L297.399 629.659L298.253 629.659L332.482 629.332L356.155 629.106L357.437 629.081L358.09 627.975C366.986 612.997 375.782 598.144 384.729 583.016L386.714 579.648L392.57 589.575C399.807 601.864 407.02 614.128 414.232 626.417C415.363 628.352 417.072 629.307 419.409 629.332C428.632 629.432 437.855 629.533 447.078 629.633C455.824 629.734 464.57 629.834 473.315 629.91C474.044 629.91 474.697 629.709 475.2 629.558C475.326 629.508 475.451 629.483 475.577 629.432L476.507 630.865L477.814 628.879L478.467 628.729L478.241 628.251L478.442 627.975C478.693 627.598 478.919 627.246 479.146 626.944C479.548 626.366 479.95 625.788 480.276 625.185L487.213 612.921C493.319 602.115 499.602 590.957 505.86 580.025C506.614 578.693 506.965 577.512 506.965 576.306C506.965 575.099 506.614 573.943 505.885 572.611C499.376 561.127 492.792 549.416 486.459 538.107L480.603 527.652C480.276 527.074 479.95 526.496 479.548 525.793L478.769 524.461L478.04 523.179L478.165 522.752L477.788 522.752L476.959 521.294L476.029 522.676L475.25 522.651C474.873 522.626 474.547 522.626 474.22 522.601C473.617 522.576 473.089 522.551 472.561 522.551L460.297 522.676C447.079 522.802 433.382 522.928 419.937 523.003C418.831 523.003 417.876 523.179 417.022 523.556C416.871 522.425 416.394 521.47 415.966 520.741C408.98 508.352 402.019 495.937 395.032 483.522L390.358 475.179C390.082 474.676 389.78 474.174 389.403 473.52L388.75 472.389L388.297 471.61L388.8 470.454L387.644 470.454L386.965 469.273L386.94 469.323C386.789 469.022 386.664 468.745 386.488 468.444L381.034 459.196C373.897 447.108 366.509 434.593 359.296 422.253C357.638 419.413 355.326 419.011 353.29 419.011C341.478 418.911 329.667 418.785 317.881 418.634C312.276 418.559 306.672 418.509 301.068 418.433C300.415 418.433 299.761 418.459 299.032 418.509C298.731 418.534 298.404 418.559 298.052 418.584L297.851 418.257L296.343 415.644C295.414 414.01 294.559 412.553 293.705 411.095L287.447 400.44C281.592 390.488 275.761 380.536 269.931 370.559C268.85 368.699 267.267 366.789 263.874 366.764C252.113 366.689 240.176 366.538 228.616 366.412C222.609 366.337 216.603 366.262 210.597 366.211C209.868 366.211 209.215 366.337 208.637 366.488C208.436 366.538 208.234 366.588 208.033 366.614L208.008 366.563L208.084 366.161L207.807 366.161C207.606 365.759 207.405 365.382 207.254 365.03C206.903 364.327 206.626 363.723 206.274 363.12C203.837 358.974 201.374 354.802 198.911 350.655C192.729 340.176 186.32 329.319 180.113 318.614C178.505 315.874 176.419 314.693 173.101 314.693C160.838 314.618 148.348 314.467 136.26 314.316C131.434 314.266 126.634 314.19 121.809 314.14C121.206 314.14 120.628 314.165 119.95 314.216C120.226 313.813 120.452 313.437 120.678 313.034C123.041 308.863 125.403 304.666 127.765 300.494C133.872 289.688 140.18 278.505 146.438 267.548C147.166 266.291 147.518 265.11 147.518 263.929C147.518 262.697 147.166 261.491 146.362 260.134C142.467 253.273 138.597 246.387 134.727 239.501L134.073 238.345L133.897 238.345L126.534 225.277L120.98 215.401C120.653 214.823 120.327 214.245 119.899 213.491L119.698 213.164L119.623 213.039L119.522 212.913C119.422 212.762 119.296 212.637 119.196 212.486L119.271 212.461L119.045 212.059L120.025 210.375L118.09 210.4L117.738 209.772L116.054 206.831L109.696 196.075C103.288 185.219 96.6784 174.01 90.2198 162.953C88.6365 160.213 86.4753 158.982 83.2837 158.957C71.2711 158.882 59.0826 158.756 47.2962 158.605C42.1947 158.555 37.0931 158.479 32.0166 158.429C31.3632 158.429 30.6847 158.454 29.9308 158.479C29.9559 158.429 29.981 158.379 30.0062 158.329L35.8868 147.95C42.8983 135.56 49.9098 123.171 56.9465 110.806C57.1475 110.454 57.2481 110.178 57.2983 109.977L57.3486 109.876L57.424 109.65C57.5748 109.072 57.6502 108.519 57.6502 107.966C57.6502 107.564 57.5999 107.187 57.5496 106.785L57.5245 106.66L57.4742 106.534C57.2983 105.956 57.047 105.403 56.7706 104.875C51.7695 96.0292 46.7936 87.1832 41.8177 78.337C38.0732 71.7025 34.3538 65.0428 30.6093 58.4083C30.2575 57.78 29.8051 57.3025 29.403 56.8502C29.2522 56.6743 29.0763 56.4983 28.9004 56.2722L28.8501 56.1967L29.8051 54.3622L27.3423 54.3873L26.9402 53.9098L26.6135 54.4125L26.0355 54.4125L-30.9865 54.9402L-31.3635 54.9402L-31.7153 55.0659C-31.8661 55.1161 -31.9917 55.1664 -32.1174 55.2167C-32.1174 55.1161 -32.1425 54.9905 -32.1425 54.89L-32.1677 54.7643L-32.1928 54.6386C-32.3938 53.8847 -32.6703 53.1559 -33.0975 52.402C-39.5059 41.068 -45.8891 29.7088 -52.2472 18.3496L-58.53 7.14123C-59.0326 6.26166 -59.5352 5.40723 -60.2891 4.07525L-62.0986 0.958983L-64.1342 3.94964ZM-61.1436 212.486C-59.9875 212.435 -59.1582 212.335 -58.3289 212.36C-40.9132 212.561 -23.4975 212.787 -6.08179 212.938C-4.27236 212.963 -3.01581 213.34 -2.01058 215.049C2.96534 223.568 7.99151 232.088 13.0177 240.607L13.1936 240.607C17.0638 247.192 20.9591 253.751 24.8292 260.335C25.2564 261.064 25.5831 261.843 26.1109 262.923C24.8543 262.999 23.8994 263.124 22.9444 263.124C5.75487 262.923 -11.4598 262.672 -28.6493 262.597C-31.0619 262.597 -32.419 261.767 -33.6252 259.707C-37.3949 253.223 -41.2148 246.739 -45.0347 240.281L-45.0095 240.281C-50.2619 231.384 -55.4891 222.463 -60.7415 213.566C-60.8923 213.315 -60.9677 213.039 -61.1436 212.486ZM-64.0587 311.627C-72.6786 296.348 -81.2483 281.018 -89.8682 265.738C-90.3457 264.884 -90.6472 264.13 -90.6472 263.351C-90.6472 262.773 -90.4713 262.144 -90.0944 261.466C-86.1488 254.53 -82.2033 247.568 -78.2828 240.607L-78.1572 240.607C-73.2567 231.962 -68.3561 223.292 -63.4556 214.647C-63.2546 214.27 -62.953 213.918 -62.4755 213.24C-61.8724 214.019 -61.2692 214.572 -60.8923 215.275C-56.1425 223.719 -51.3928 232.163 -46.643 240.607L-46.4671 240.607C-42.7729 247.166 -39.1038 253.7 -35.3844 260.234C-34.7059 261.39 -34.3792 262.421 -34.3792 263.451C-34.3792 264.456 -34.7059 265.462 -35.3593 266.618C-43.8284 281.344 -52.1216 296.172 -60.4902 310.949C-61.0179 311.878 -61.6211 312.783 -62.4001 314.04C-63.1038 313.009 -63.6567 312.356 -64.0587 311.627ZM-31.8409 264.708C-12.6661 264.532 6.5088 264.356 25.7339 264.18C25.0303 267.07 2.28681 306.073 -3.44304 314.366C-22.4169 314.542 -41.6169 314.718 -61.5959 314.894C-51.4179 297.755 -41.6923 281.344 -31.8409 264.708ZM-29.1017 366.362C-30.9111 366.337 -32.1676 365.985 -33.1729 364.251C-42.1446 348.896 -51.1917 333.617 -60.2137 318.312C-60.5404 317.759 -60.7917 317.156 -61.219 316.276C-60.1383 316.151 -59.309 315.95 -58.5048 315.975C-40.9635 316.151 -23.4221 316.377 -5.88073 316.553C-4.0713 316.578 -2.78963 316.905 -1.7844 318.639C7.2376 334.069 16.3601 349.449 25.4324 364.854C25.7088 365.307 25.8596 365.834 26.2617 366.789C24.9297 366.84 24.0753 366.94 23.1957 366.915C5.72974 366.739 -11.686 366.513 -29.1017 366.362ZM173.152 316.955C175.514 316.955 176.972 317.608 178.203 319.744C186.848 334.622 195.644 349.424 204.364 364.276C204.842 365.106 205.244 365.985 205.872 367.242C204.44 367.317 203.359 367.418 202.304 367.393C185.215 367.192 168.1 366.965 151.011 366.84C148.649 366.815 147.217 366.136 145.985 364.025C137.365 349.248 128.62 334.546 119.925 319.82C119.397 318.915 118.869 317.985 118.065 316.578C119.723 316.503 120.804 316.402 121.86 316.402C138.949 316.603 156.038 316.854 173.152 316.955ZM115.828 316.377C115.602 317.106 115.552 317.759 115.25 318.262C106.103 333.742 96.9297 349.198 87.7821 364.678C87.0282 365.935 86.224 366.588 84.6407 366.614C66.446 366.714 48.2512 366.89 30.0313 367.041C29.7046 367.041 29.3779 366.94 28.5486 366.815C29.1517 365.633 29.5538 364.754 30.0564 363.899C38.8774 348.997 47.7486 334.119 56.5193 319.191C57.5245 317.483 58.58 316.704 60.6659 316.704C78.2072 316.628 95.7486 316.427 113.265 316.276C114.019 316.276 114.773 316.352 115.828 316.377ZM54.8606 317.86C46.0397 333.265 37.3695 348.745 28.624 364.201C28.3224 364.754 27.8952 365.256 27.1664 366.312C26.4376 365.055 25.9852 364.276 25.558 363.522C17.0386 348.343 8.51927 333.139 -0.0503677 317.96C-0.552985 317.081 -0.854552 316.301 -0.854552 315.497C-0.854552 314.844 -0.653502 314.165 -0.226279 313.386C8.56954 297.981 17.2648 282.5 26.0104 267.045C26.3371 266.492 26.7392 265.989 27.3172 265.16C27.9957 266.165 28.5989 266.919 29.0512 267.723C37.5957 282.928 46.09 298.132 54.6596 313.286C55.1622 314.165 55.4638 314.97 55.4638 315.774C55.4889 316.427 55.313 317.106 54.8606 317.86ZM113.064 315.196C95.6481 314.995 78.2324 314.768 60.8167 314.618C59.0072 314.593 57.7507 314.241 56.7454 312.507C47.7486 297.076 38.6261 281.696 29.579 266.291C29.3025 265.814 29.1015 265.311 28.6491 264.331C29.981 264.255 30.8355 264.18 31.6899 264.205C49.1057 264.406 66.5214 264.632 83.9371 264.783C85.7465 264.808 86.9779 265.185 87.9831 266.919C96.9549 282.249 106.002 297.529 115.024 312.808C115.351 313.386 115.627 313.989 116.105 314.944C114.923 315.045 113.994 315.196 113.064 315.196ZM117.814 214.27C118.341 215.175 118.718 215.828 119.095 216.482C123.619 224.523 128.142 232.565 132.641 240.582L132.817 240.582C136.687 247.468 140.582 254.354 144.477 261.215C145.03 262.195 145.332 263.024 145.332 263.904C145.332 264.683 145.081 265.487 144.553 266.391C135.908 281.52 127.363 296.724 118.768 311.904C118.341 312.657 117.839 313.361 116.959 314.668C116.105 313.16 115.552 312.23 114.999 311.3C106.681 296.473 98.4125 281.646 90.0187 266.869C89.4156 265.788 89.0638 264.833 89.0638 263.878C89.0638 263.024 89.3402 262.119 89.9182 261.114C93.8386 254.304 97.7088 247.443 101.579 240.607L101.654 240.607C106.329 232.339 111.003 224.071 115.677 215.803C116.029 215.175 116.507 214.597 117.236 213.516C117.462 213.793 117.638 214.044 117.814 214.27ZM99.7444 240.281L99.8701 240.281C95.447 247.744 91.0491 255.158 86.6009 262.647C67.4512 262.823 48.2763 262.999 29.0763 263.175C29.2774 261.969 35.0324 251.665 41.4407 240.607L41.692 240.607C46.7685 232.038 51.7946 223.543 56.8711 214.999C57.3486 214.27 57.7507 213.667 58.0774 213.189C77.1266 213.014 96.2009 212.838 116.079 212.662C110.576 222.035 105.122 231.183 99.7444 240.281ZM54.936 213.793C49.935 222.614 44.9339 231.434 39.958 240.255L40.0585 240.255C36.1884 247.116 32.2931 253.952 28.3978 260.812C28.1968 261.189 27.8701 261.466 27.2418 262.27C26.4627 260.888 25.9098 259.958 25.357 258.978C21.8386 252.745 18.3454 246.488 14.8271 240.255L14.8523 240.255C10.0271 231.661 5.17686 223.091 0.301465 214.521C0.0501603 214.069 -0.125766 213.642 -0.276546 213.24C-0.351939 213.013 -0.427333 212.762 -0.477596 212.536C-0.502727 212.436 -0.502727 212.36 -0.527858 212.26C-0.552989 212.033 -0.578113 211.832 -0.578113 211.606C-0.578113 211.179 -0.527858 210.752 -0.402202 210.324C-0.251415 209.847 -0.000102355 209.344 0.301465 208.791C8.82084 193.964 17.1643 179.062 25.5831 164.209C26.0606 163.355 26.6135 162.551 27.3674 161.395C27.9706 162.224 28.4229 162.777 28.7748 163.38C37.4701 178.861 46.1402 194.366 54.8858 209.797C55.313 210.526 55.4889 211.179 55.514 211.832C55.514 212.486 55.3381 213.114 54.936 213.793ZM32.0669 160.641C49.1559 160.817 66.27 161.068 83.359 161.168C85.7716 161.194 87.1538 161.973 88.3601 164.033C96.9046 178.71 105.55 193.286 114.17 207.912C114.722 208.867 115.275 209.847 115.878 210.852C114.999 211.053 114.345 211.279 113.692 211.254C95.824 211.078 77.9559 210.852 60.0878 210.676C59.8617 210.676 59.6355 210.651 59.4344 210.626C58.1779 210.324 57.248 209.571 56.4439 208.339C47.3465 192.833 38.1988 177.378 29.0763 161.897C28.9507 161.671 28.8753 161.395 28.6742 160.817C28.7999 160.791 28.9255 160.741 29.0512 160.716C30.1821 160.691 31.1371 160.616 32.0669 160.641ZM26.136 160.691C26.1109 160.741 26.0858 160.766 26.0606 160.817C25.3821 162.048 24.9046 162.928 24.402 163.782C15.757 178.383 7.03654 192.984 -1.53309 207.635C-2.73938 209.696 -4.04618 210.526 -6.48387 210.551C-23.5729 210.576 -40.6619 210.802 -57.7509 210.953C-58.731 210.978 -59.7614 210.877 -61.043 210.827C-60.9425 210.475 -60.842 210.149 -60.7415 209.847C-60.5153 209.37 -60.3143 208.917 -60.0881 208.515C-51.1666 193.411 -42.1949 178.358 -33.2734 163.254C-32.4441 161.822 -31.6148 160.917 -29.7048 160.917C-11.8368 160.842 6.03131 160.641 23.8994 160.49C24.5025 160.49 25.1308 160.59 26.136 160.691ZM-34.4043 159.661C-34.4043 160.012 -34.4797 160.364 -34.5551 160.716C-34.6556 161.043 -34.7813 161.37 -34.9823 161.746C-43.7781 177.177 -52.4734 192.632 -61.219 208.088C-61.5205 208.641 -61.9478 209.143 -62.5258 209.998C-63.1792 209.068 -63.7069 208.44 -64.109 207.711C-67.9792 200.825 -71.8745 193.939 -75.7446 187.028C-76.4232 185.822 -77.1017 184.641 -77.7551 183.434C-81.8012 176.247 -85.8221 169.085 -89.8682 161.897C-90.2703 161.068 -90.4713 160.314 -90.4713 159.56C-90.4713 158.831 -90.2954 158.103 -89.9184 157.298C-81.1729 141.994 -72.5279 126.639 -63.8326 111.284C-63.5059 110.731 -63.1038 110.228 -62.375 109.173C-61.6462 110.429 -61.1938 111.183 -60.7917 111.962C-52.2472 127.141 -43.753 142.345 -35.1834 157.525C-34.7561 158.278 -34.4797 158.957 -34.4043 159.661ZM26.0355 158.882C24.8543 158.957 23.9245 159.083 22.9947 159.057C5.80512 158.882 -11.3844 158.605 -28.5991 158.53C-31.0116 158.505 -32.3687 157.726 -33.575 155.665C-34.2786 154.484 -34.9572 153.303 -35.6608 152.096C-43.6525 138.425 -51.6944 124.804 -59.7362 111.158C-60.1635 110.429 -60.5404 109.625 -61.0431 108.62C-61.0431 108.62 -61.0431 108.62 -61.0431 108.595C-59.8368 108.519 -58.9069 108.394 -58.0022 108.419C-40.687 108.62 -23.397 108.846 -6.08179 108.972C-4.12158 108.997 -2.8399 109.474 -1.78441 111.284C7.06167 126.412 16.0083 141.491 24.9297 156.595C25.2816 157.273 25.6083 158.002 26.0355 158.882ZM28.6994 59.4889C37.4198 74.9695 46.1151 90.4753 54.8606 105.956C55.0868 106.383 55.2627 106.785 55.3884 107.162C55.4386 107.414 55.4638 107.665 55.4638 107.916C55.4638 108.268 55.4135 108.645 55.313 109.022C55.2376 109.223 55.1873 109.424 55.0617 109.625C46.0397 125.457 37.0931 141.29 28.1214 157.148C27.9454 157.424 27.6941 157.65 27.0156 158.454C26.2868 157.173 25.7339 156.243 25.2062 155.313C16.8376 140.385 8.49413 125.457 0.0752794 110.58C-0.201164 110.103 -0.402206 109.65 -0.552994 109.198C-0.578125 109.122 -0.578125 109.047 -0.603249 108.972C-0.703773 108.645 -0.754044 108.343 -0.779175 108.042C-0.754044 107.238 -0.527863 106.408 0.0250167 105.453C8.64491 90.425 17.114 75.3213 25.6585 60.2428C26.0858 59.4889 26.5884 58.7601 27.2418 57.7297C27.7947 58.4083 28.3475 58.8857 28.6994 59.4889ZM24.5025 59.6648C15.8072 74.3664 7.03654 89.0428 -1.58336 103.795C-2.81477 105.906 -4.17184 106.584 -6.55927 106.609C-23.5226 106.66 -40.5111 106.861 -57.4996 107.011C-58.53 107.011 -59.6106 106.961 -61.2692 106.936C-61.0933 106.584 -60.9425 106.308 -60.7917 106.031C-51.1917 89.847 -41.8933 74.1402 -32.4441 58.1821C-32.0169 57.7046 -31.5143 57.403 -30.9362 57.1769C-12.1635 57.001 6.70983 56.825 26.0857 56.6491C25.4323 57.9308 25.0051 58.8355 24.5025 59.6648ZM-60.5153 8.27215C-52.0462 23.3758 -43.5771 38.4794 -35.0828 53.558C-34.7561 54.136 -34.5551 54.6889 -34.4043 55.2167C-34.3792 55.4177 -34.354 55.6187 -34.354 55.8198C-34.354 56.1716 -34.4043 56.5234 -34.4797 56.8752C-34.5802 57.1768 -34.6807 57.4533 -34.8567 57.78C-43.6525 73.1852 -52.3478 88.6658 -61.0933 104.121C-61.42 104.674 -61.797 105.202 -62.4001 106.031C-63.0284 105.127 -63.5813 104.498 -63.9834 103.77C-72.5781 88.4899 -81.1729 73.2104 -89.7928 57.9308C-89.9687 57.6292 -90.0944 57.3527 -90.1949 57.0763C-90.2703 56.8752 -90.3457 56.6491 -90.3959 56.4481C-90.3959 56.4229 -90.3959 56.4229 -90.4211 56.3978C-90.4965 56.1213 -90.5216 55.8449 -90.5216 55.5685C-90.5216 55.3423 -90.4965 55.091 -90.4462 54.8397C-90.3457 54.4879 -90.1949 54.1108 -89.9687 53.6837C-81.1729 38.2784 -72.4776 22.7978 -63.7321 7.34228C-63.4054 6.78943 -63.0033 6.2868 -62.2745 5.20618C-61.4954 6.53808 -60.9928 7.39252 -60.5153 8.27215Z" fill="#D4D4D4"/>
</svg>
