<svg width="538" height="567" viewBox="0 0 538 567" fill="none" xmlns="http://www.w3.org/2000/svg">
<path d="M567.38 150.467C558.283 165.872 549.135 181.227 540.038 196.632C539.309 197.889 538.505 198.568 536.921 198.568C518.702 198.668 500.482 198.844 482.262 199.02C481.935 199.02 481.608 198.945 481.282 198.894C481.633 196.532 504.352 157.403 510.433 148.733C529.608 148.557 548.708 148.381 568.184 148.205C567.858 149.135 567.732 149.864 567.38 150.467ZM475.853 198.869C458.211 198.668 440.595 198.467 422.953 198.291C421.194 198.266 420.113 197.763 419.208 196.205C410.186 180.775 401.064 165.42 392.017 150.015C391.74 149.537 391.514 149.035 391.112 148.18C392.117 148.054 392.921 147.853 393.726 147.853C411.367 148.029 428.984 148.256 446.626 148.431C448.184 148.457 449.315 148.733 450.195 150.216C459.443 166.023 468.741 181.78 478.04 197.562C478.165 197.738 478.165 197.99 478.392 198.693C477.336 198.794 476.607 198.869 475.853 198.869ZM507.594 147.577C507.594 148.658 507.217 149.738 506.513 150.97C498.144 165.495 489.952 180.121 481.684 194.723C481.106 195.778 480.503 196.783 479.673 198.191C478.944 197.211 478.341 196.582 477.939 195.879C469.445 180.775 461.001 165.646 452.431 150.593C451.828 149.512 451.502 148.582 451.502 147.602C451.502 146.723 451.778 145.818 452.356 144.813C460.926 129.885 469.344 114.882 477.814 99.9037C478.291 99.0492 478.844 98.245 479.749 96.8628C481.382 99.7026 482.714 101.99 484.021 104.302C491.535 117.671 498.949 131.066 506.588 144.36C507.267 145.491 507.594 146.547 507.594 147.577ZM390.886 42.8566C391.564 41.5498 392.017 40.5696 392.57 39.6649C401.29 24.9382 410.061 10.2618 418.681 -4.51518C419.887 -6.60104 421.219 -7.3801 423.656 -7.3801C440.771 -7.43036 457.885 -7.63141 474.974 -7.78219C476.054 -7.78219 477.11 -7.7068 478.567 -7.63141C477.889 -6.3246 477.437 -5.3445 476.884 -4.43978C468.163 10.2869 459.393 24.9634 450.773 39.7403C449.566 41.8262 448.235 42.6052 445.822 42.6052C428.708 42.6555 411.594 42.8566 394.505 43.0073C393.424 43.0073 392.369 42.9068 390.886 42.8566ZM386.01 42.8566C368.369 42.6806 350.727 42.4545 333.11 42.2785C331.552 42.2534 330.421 41.9518 329.541 40.4691C320.343 24.7623 311.07 9.10577 301.822 -6.57591C301.646 -6.85235 301.571 -7.17905 301.269 -7.95811C302.475 -8.0335 303.33 -8.13403 304.184 -8.10889C321.6 -7.90785 339.016 -7.68167 356.431 -7.53088C358.241 -7.50575 359.497 -7.20418 360.528 -5.44502C369.525 9.98535 378.647 25.3655 387.719 40.7456C387.996 41.223 388.197 41.7257 388.624 42.5801C387.619 42.6806 386.815 42.8566 386.01 42.8566ZM417.349 -6.27434C408.528 9.15603 399.832 24.6367 391.062 40.0922C390.735 40.6702 390.333 41.1728 389.755 42.0272C389.127 41.1979 388.524 40.5696 388.121 39.866C379.577 24.6869 371.058 9.4576 362.463 -5.72146C361.91 -6.70157 361.583 -7.58114 361.583 -8.46072C361.583 -9.21465 361.809 -9.99371 362.312 -10.8984C371.058 -26.1277 379.652 -41.4325 388.297 -56.6869C388.674 -57.3403 389.127 -57.9435 389.956 -59.1749C390.785 -57.7173 391.338 -56.7874 391.866 -55.8576C400.26 -40.955 408.603 -26.0272 417.022 -11.1246C417.575 -10.1445 417.977 -9.26491 417.977 -8.30994C417.977 -7.7068 417.801 -7.02827 417.349 -6.27434ZM237.411 -6.09842C228.842 8.82933 220.423 23.8325 211.954 38.8105C211.476 39.6649 210.898 40.4691 210.17 41.6C209.516 40.6702 208.938 40.0419 208.536 39.3382C199.966 24.134 191.472 8.92985 182.852 -6.24921C182.299 -7.20418 182.023 -8.05863 182.023 -8.91308C182.023 -9.69214 182.274 -10.4963 182.802 -11.4262C191.472 -26.555 199.992 -41.7592 208.586 -56.9131C209.014 -57.667 209.541 -58.3707 210.396 -59.6775C211.25 -58.1948 211.803 -57.2398 212.356 -56.3099C220.674 -41.4827 228.942 -26.6555 237.336 -11.8785C237.939 -10.7979 238.291 -9.86805 238.291 -8.88795C238.266 -8.00837 237.989 -7.12879 237.411 -6.09842ZM176.745 -7.88271C178.53 -7.85758 179.811 -7.58114 180.842 -5.82198C189.864 9.60839 198.961 25.0136 208.059 40.3937C208.335 40.8461 208.511 41.3738 208.913 42.178C207.883 42.3037 207.053 42.5047 206.249 42.5047C188.708 42.3288 171.166 42.0524 153.625 41.9518C151.414 41.9267 150.258 41.1225 149.177 39.288C140.331 24.134 131.384 9.03038 122.488 -6.07329C122.161 -6.62617 121.935 -7.25444 121.432 -8.33507C122.764 -8.41046 123.644 -8.48586 124.498 -8.48586C141.864 -8.25968 159.305 -8.05863 176.745 -7.88271ZM241.055 -7.6314C260.079 -7.80732 279.204 -7.98324 299.108 -8.15916C289.005 8.92985 279.254 25.3906 269.378 42.0272C250.203 42.2032 231.028 42.3791 211.803 42.555C212.331 39.9916 236.984 -2.22826 241.055 -7.6314ZM272.193 41.399C281.139 25.6922 290.036 9.93509 298.932 -5.79685C299.133 -6.14868 299.46 -6.47538 300.088 -7.27958C300.867 -5.9225 301.445 -4.99266 301.973 -4.01256C310.291 10.7895 318.559 25.6168 326.978 40.3686C327.606 41.4744 327.933 42.4293 327.933 43.3843C327.933 44.3393 327.606 45.3194 326.978 46.4251C318.459 61.2272 310.115 76.1299 301.696 91.0073C301.219 91.8618 300.641 92.666 299.912 93.822C299.309 92.9927 298.831 92.4649 298.48 91.8618C289.784 76.3812 281.114 60.9005 272.394 45.4199C271.941 44.6409 271.665 43.9372 271.665 43.1833C271.69 42.6052 271.841 42.0272 272.193 41.399ZM266.991 44.1885C268.725 44.2136 269.83 44.666 270.76 46.2492C279.807 61.6796 288.93 77.0597 298.002 92.4649C298.278 92.9424 298.454 93.445 298.932 94.4503C297.474 94.5257 296.494 94.6011 295.514 94.6011C278.299 94.4 261.11 94.1738 243.895 94.0482C241.684 94.0231 240.276 93.4702 239.095 91.4346C230.325 76.356 221.428 61.3529 212.582 46.3498C212.205 45.6963 211.878 44.9927 211.376 44.0126C212.281 43.8618 212.984 43.6105 213.688 43.6105C231.455 43.7864 249.223 44.0126 266.991 44.1885ZM302.4 91.9874C311.321 76.9089 320.293 61.8052 329.215 46.7267C330.044 45.2943 330.873 44.3895 332.783 44.3895C350.676 44.3141 368.519 44.1131 386.387 43.9372C387.016 43.9372 387.644 44.0628 388.8 44.1634C387.996 45.621 387.468 46.6011 386.915 47.556C378.27 62.1571 369.55 76.7581 360.98 91.4094C359.774 93.4702 358.467 94.3246 356.029 94.3246C338.915 94.3749 321.851 94.5759 304.737 94.7267C303.682 94.7267 302.601 94.6513 301.143 94.6011C301.671 93.4953 301.973 92.6911 302.4 91.9874ZM393.952 44.088C411.393 44.289 428.808 44.5152 446.249 44.6408C448.235 44.666 449.466 45.244 450.496 47.0032C459.367 62.1571 468.314 77.2607 477.21 92.3644C477.587 93.0178 477.914 93.7215 478.442 94.8021C477.236 94.9026 476.306 95.0534 475.401 95.0534C457.96 94.8524 440.544 94.6262 423.104 94.5005C420.892 94.4754 419.736 93.6712 418.655 91.8367C409.809 76.6827 400.863 61.5791 391.966 46.4754C391.64 45.9225 391.414 45.2943 390.911 44.2136C392.243 44.1634 393.097 44.088 393.952 44.088ZM362.312 93.1435C371.133 77.7382 379.828 62.2576 388.574 46.8272C388.875 46.2744 389.277 45.7717 390.031 44.6911C390.81 46.0482 391.313 46.9026 391.791 47.7571C400.209 62.7602 408.603 77.7885 417.097 92.7162C417.65 93.6963 417.952 94.5759 417.952 95.4304C417.952 96.2848 417.675 97.1644 417.097 98.1696C408.553 113.097 400.134 128.101 391.665 143.053C391.187 143.908 390.635 144.687 389.881 145.843C389.177 144.813 388.599 144.084 388.121 143.28C379.577 128.101 371.083 112.896 362.513 97.7173C362.01 96.8377 361.709 96.0335 361.709 95.2042C361.709 94.5759 361.885 93.9225 362.312 93.1435ZM356.934 96.3854C358.593 96.4105 359.548 97.0388 360.377 98.4461C369.399 113.851 378.496 129.231 387.543 144.637C387.87 145.19 388.071 145.768 388.448 146.647C387.166 146.723 386.211 146.823 385.256 146.798C367.941 146.622 350.626 146.396 333.336 146.22C331.552 146.195 330.27 145.943 329.24 144.159C320.193 128.628 311.02 113.173 301.872 97.6922C301.646 97.3152 301.495 96.9131 301.194 96.2346C301.998 96.0838 302.702 95.8073 303.38 95.8325C321.223 95.9833 339.091 96.2094 356.934 96.3854ZM390.81 146.697C400.762 129.684 410.614 113.248 420.44 96.6367C439.665 96.4608 458.84 96.2848 478.668 96.1089C477.713 97.7927 477.21 98.7728 476.632 99.7026C468.038 114.253 459.367 128.754 450.848 143.33C449.592 145.466 448.285 146.421 445.671 146.421C428.783 146.421 411.895 146.647 395.032 146.798C393.851 146.798 392.67 146.748 390.81 146.697ZM568.662 146.949C567.003 147.024 565.948 147.125 564.892 147.125C547.778 146.949 530.689 146.672 513.6 146.597C510.986 146.597 509.629 145.692 508.373 143.506C499.778 128.729 491.032 114.002 482.362 99.2754C481.86 98.4461 481.483 97.5665 480.804 96.2346C482.413 96.1843 483.393 96.134 484.398 96.134C501.487 96.3351 518.576 96.5613 535.69 96.6869C538.052 96.7121 539.485 97.3654 540.716 99.5016C549.336 114.279 558.056 128.98 566.777 143.707C567.33 144.637 567.858 145.567 568.662 146.949ZM570.999 47.6565C579.594 62.911 588.188 78.2157 596.808 93.4953C597.311 94.3749 597.613 95.1539 597.613 95.9832C597.613 96.6367 597.411 97.3152 596.984 98.0691C588.188 113.474 579.493 128.955 570.748 144.385C570.421 144.938 570.019 145.441 569.29 146.521C568.511 145.19 568.033 144.36 567.531 143.481C559.062 128.377 550.593 113.273 542.098 98.1948C541.596 97.3152 541.269 96.511 541.269 95.6817C541.269 95.0534 541.445 94.3749 541.872 93.621C550.668 78.2157 559.363 62.7351 568.109 47.2796C568.436 46.7267 568.813 46.2241 569.416 45.3696C570.044 46.2995 570.597 46.9277 570.999 47.6565ZM568.561 44.4901C558.509 61.4534 548.808 77.8388 538.882 94.5508C519.757 94.7267 500.532 94.9026 480.754 95.0786C481.508 93.621 481.96 92.6409 482.513 91.7361C491.208 77.0346 499.979 62.3581 508.599 47.6063C509.83 45.4953 511.187 44.8168 513.575 44.7916C530.538 44.7414 547.527 44.5403 564.515 44.3895C565.621 44.3895 566.702 44.4649 568.561 44.4901ZM507.016 46.3246C498.396 61.3529 489.927 76.4566 481.382 91.5351C480.955 92.289 480.452 93.0178 479.799 94.0482C479.221 93.3445 478.668 92.867 478.316 92.2639C469.596 76.7833 460.9 61.2775 452.155 45.7969C451.703 45.0178 451.426 44.3141 451.426 43.5602C451.426 43.0073 451.577 42.4293 451.929 41.8011C460.951 25.9686 469.897 10.1361 478.869 -5.72146C479.045 -5.9979 479.296 -6.22408 479.975 -7.02827C480.704 -5.74659 481.256 -4.81675 481.784 -3.88691C490.153 11.0408 498.496 25.9686 506.915 40.8461C507.493 41.8513 507.795 42.7309 507.795 43.6356C507.82 44.4901 507.569 45.3445 507.016 46.3246ZM564.993 43.334C547.677 43.133 530.387 42.9068 513.072 42.7812C511.112 42.756 509.83 42.2785 508.775 40.4691C499.929 25.3403 490.982 10.2618 482.061 -4.84188C481.633 -5.57068 481.307 -6.34973 480.779 -7.43036C482.061 -7.50575 483.016 -7.63141 483.971 -7.63141C501.16 -7.43036 518.35 -7.17905 535.564 -7.10366C537.977 -7.07853 539.334 -6.29947 540.54 -4.21361C549.185 10.6639 557.956 25.4408 566.702 40.2681C567.179 41.0974 567.581 41.977 568.184 43.133C566.928 43.2084 565.973 43.334 564.993 43.334ZM571.15 -56.2597C579.744 -41.0052 588.314 -25.7005 596.934 -10.4209C597.437 -9.54136 597.738 -8.7623 597.738 -7.93298C597.738 -7.27958 597.537 -6.60104 597.11 -5.84712C588.314 9.55812 579.594 25.0387 570.873 40.4942C570.547 41.0471 570.144 41.5498 569.416 42.6052C568.687 41.3487 568.235 40.5948 567.832 39.8157C559.288 24.6367 550.794 9.43247 542.224 -5.74659C541.721 -6.62617 541.42 -7.40523 541.42 -8.23455C541.42 -8.88795 541.621 -9.54135 542.048 -10.3204C550.844 -25.7508 559.539 -41.2063 568.285 -56.6618C568.586 -57.2147 569.014 -57.7173 569.592 -58.5466C570.22 -57.6419 570.722 -56.9885 571.15 -56.2597ZM482.588 -12.356C491.259 -26.9571 499.954 -41.5581 508.524 -56.2094C509.73 -58.2702 511.037 -59.0995 513.474 -59.1246C530.563 -59.1749 547.652 -59.3759 564.741 -59.5267C565.822 -59.5518 566.877 -59.4513 568.335 -59.3759C567.807 -58.2702 567.506 -57.4911 567.078 -56.7623C558.157 -41.6586 549.185 -26.6052 540.264 -11.5016C539.435 -10.0942 538.605 -9.16439 536.695 -9.16439C518.827 -9.089 500.959 -8.88795 483.091 -8.73717C482.463 -8.73717 481.809 -8.83769 480.678 -8.96335C481.508 -10.4461 482.036 -11.401 482.588 -12.356ZM446.953 -59.2754C448.385 -59.2754 449.441 -58.9236 450.245 -57.5665C459.468 -41.8597 468.741 -26.178 477.989 -10.4963C478.165 -10.2199 478.216 -9.89319 478.542 -9.01361C477.085 -8.96334 476.004 -8.88795 474.949 -8.91308C457.86 -9.089 440.745 -9.34031 423.656 -9.44083C421.244 -9.46596 419.862 -10.2199 418.655 -12.3058C410.01 -27.1581 401.215 -41.9853 392.494 -56.8126C392.042 -57.5665 391.615 -58.3204 390.986 -59.401C391.966 -59.6021 392.645 -59.8785 393.349 -59.8534C411.217 -59.6775 429.085 -59.4513 446.953 -59.2754ZM329.416 -57.3654C330.144 -58.5969 330.848 -59.401 332.456 -59.4262C350.777 -59.5267 369.097 -59.7026 387.443 -59.8283C387.644 -59.8283 387.87 -59.7277 388.549 -59.5267C383.925 -51.0073 378.823 -42.89 373.973 -34.622C369.097 -26.3037 364.121 -18.0105 359.171 -9.66701C339.92 -9.49109 320.846 -9.31517 301.37 -9.13926C301.747 -10.1445 301.872 -10.8733 302.224 -11.4764C311.296 -26.8063 320.369 -42.0859 329.416 -57.3654ZM266.563 -59.6272C268.398 -59.6021 269.629 -59.2 270.634 -57.4911C279.631 -42.0607 288.729 -26.6806 297.801 -11.3005C298.077 -10.823 298.278 -10.3204 298.731 -9.36544C297.374 -9.31518 296.519 -9.21465 295.665 -9.23978C278.249 -9.44083 260.833 -9.66701 243.418 -9.81779C241.583 -9.84292 240.402 -10.2701 239.397 -11.979C230.45 -27.3089 221.378 -42.5885 212.356 -57.8681C212.029 -58.4461 211.778 -59.0492 211.326 -59.9539C212.356 -60.0796 213.185 -60.2555 214.015 -60.2304C231.531 -60.0042 249.047 -59.778 266.563 -59.6272ZM150.886 -59.8283C170.111 -60.0042 189.311 -60.1801 208.813 -60.356C208.536 -59.5016 208.486 -58.8733 208.184 -58.3707C199.037 -42.89 189.839 -27.4094 180.691 -11.9288C179.937 -10.6722 179.133 -10.0188 177.55 -9.99371C159.33 -9.89319 141.135 -9.71727 122.915 -9.56648C122.588 -9.56648 122.262 -9.64187 121.231 -9.79266C131.233 -26.6555 141.009 -43.1665 150.886 -59.8283ZM31.7905 -60.2304C32.4941 -60.4063 33.0721 -60.6827 33.6501 -60.6827C51.6187 -60.5068 69.5873 -60.2806 87.556 -60.1047C89.0387 -60.0796 90.0188 -59.6272 90.7979 -58.3204C100.046 -42.5131 109.344 -26.756 118.643 -10.9738C118.743 -10.7728 118.769 -10.5466 118.995 -9.84292C117.864 -9.79266 117.009 -9.69214 116.155 -9.69214C98.6387 -9.89318 81.0972 -10.0942 63.5559 -10.245C61.8218 -10.2701 60.7161 -10.7728 59.8114 -12.3309C50.7894 -27.7361 41.692 -43.1162 32.5947 -58.4963C32.3685 -58.9738 32.1674 -59.5016 31.7905 -60.2304ZM28.3726 38.2576C19.9538 23.2545 11.5601 8.25132 3.06586 -6.72669C2.53809 -7.65654 2.26166 -8.48585 2.26166 -9.29004C2.26166 -10.1194 2.53815 -10.9236 3.091 -11.8785C11.6858 -26.9068 20.1549 -41.9853 28.6743 -57.0639C29.1517 -57.8932 29.7297 -58.6471 30.4585 -59.7277C31.1873 -58.5969 31.7402 -57.8178 32.2177 -56.9633C40.6617 -41.9853 49.0554 -26.9571 57.5496 -12.0293C58.1276 -10.9989 58.4292 -10.0942 58.4292 -9.18952C58.4292 -8.25968 58.1276 -7.32984 57.5245 -6.27434C48.98 8.65341 40.5612 23.6314 32.092 38.6094C31.6146 39.4388 31.0365 40.1927 30.2072 41.4241C29.4533 40.0922 28.9004 39.1874 28.3726 38.2576ZM31.8407 42.0775C32.0669 41.3236 32.1172 40.6953 32.4188 40.1927C41.5664 24.7121 50.7643 9.25655 59.8868 -6.22408C60.6407 -7.48062 61.4449 -8.13402 63.0282 -8.15915C81.223 -8.25968 99.4177 -8.43559 117.638 -8.58638C117.964 -8.58638 118.291 -8.48586 119.145 -8.3602C118.542 -7.17905 118.14 -6.29947 117.663 -5.47015C108.842 9.43247 99.9706 24.31 91.1999 39.2377C90.1947 40.9466 89.1643 41.7257 87.0533 41.7508C69.512 41.8262 51.9706 42.0272 34.4543 42.178C33.6501 42.2032 32.8962 42.1278 31.8407 42.0775ZM118.593 90.756C110.073 75.577 101.554 60.3728 92.9842 45.1937C92.4816 44.3141 92.1801 43.51 92.1801 42.6806C92.1801 42.0524 92.356 41.3738 92.8083 40.6199C101.629 25.2147 110.325 9.73404 119.045 -5.72146C119.372 -6.27434 119.774 -6.77695 120.352 -7.6314C121.055 -6.62617 121.633 -5.89737 122.086 -5.06805C130.63 10.111 139.15 25.3152 147.719 40.4943C148.222 41.3738 148.523 42.178 148.523 43.0073C148.523 43.6607 148.322 44.3141 147.895 45.0681C139.099 60.4984 130.379 75.954 121.659 91.4094C121.332 91.9623 120.93 92.4649 120.201 93.5456C119.472 92.289 119.02 91.5351 118.593 90.756ZM122.714 91.6859C131.711 76.4817 140.733 61.3026 149.705 46.0984C150.534 44.6911 151.414 44.0628 153.097 44.0377C171.091 43.9372 189.085 43.7361 207.078 43.5854C207.506 43.5854 207.958 43.6607 208.938 43.7613C204.264 52.4566 199.137 60.5487 194.312 68.7916C189.437 77.11 184.486 85.4032 179.51 93.7466C160.285 93.9225 141.185 94.0984 121.633 94.2744C122.086 93.1937 122.312 92.3895 122.714 91.6859ZM182.702 92.5152C191.372 77.3864 199.891 62.1822 208.486 47.0283C208.913 46.2744 209.441 45.5958 210.245 44.3393C211.853 47.1539 213.21 49.4408 214.492 51.7278C222.006 65.0974 229.445 78.4922 237.06 91.7864C237.738 92.9927 238.115 94.023 238.115 95.0786C238.115 96.0335 237.814 97.0136 237.16 98.1445C228.666 112.871 220.373 127.673 212.004 142.45C211.476 143.405 210.873 144.31 210.144 145.516C209.516 144.712 208.963 144.184 208.611 143.556C199.992 128.276 191.422 112.947 182.777 97.6922C182.224 96.7372 181.948 95.8827 181.948 95.0283C181.922 94.2241 182.174 93.4199 182.702 92.5152ZM205.948 146.32C188.532 146.119 171.116 145.893 153.7 145.742C151.891 145.717 150.66 145.34 149.654 143.606C140.632 128.176 131.535 112.821 122.463 97.4157C122.186 96.9382 121.985 96.4356 121.633 95.6817C122.488 95.5309 123.217 95.3047 123.92 95.3047C141.663 95.4807 159.43 95.7068 177.173 95.8827C178.731 95.9079 179.862 96.2346 180.716 97.7173C189.914 113.424 199.162 129.081 208.41 144.762C208.586 145.039 208.637 145.365 208.938 146.145C207.656 146.245 206.802 146.32 205.948 146.32ZM211.049 146.22C221.051 129.332 230.827 112.846 240.704 96.1592C259.929 95.9833 279.104 95.8073 298.681 95.6314C298.354 96.5864 298.203 97.3152 297.851 97.8932C288.754 113.298 279.606 128.653 270.509 144.059C269.78 145.315 269.001 145.994 267.393 146.019C249.173 146.119 230.953 146.295 212.733 146.446C212.431 146.471 212.105 146.371 211.049 146.22ZM272.645 144.586C281.315 129.458 289.835 114.253 298.429 99.0995C298.856 98.3456 299.359 97.667 300.239 96.3351C301.093 97.8178 301.646 98.7728 302.174 99.7026C310.492 114.53 318.76 129.357 327.154 144.134C327.782 145.215 328.109 146.145 328.109 147.125C328.109 148.004 327.832 148.884 327.254 149.889C318.685 164.817 310.266 179.82 301.797 194.823C301.319 195.678 300.766 196.482 300.038 197.613C299.359 196.708 298.806 196.08 298.404 195.351C289.86 180.147 281.34 164.942 272.72 149.789C272.167 148.808 271.866 147.979 271.866 147.125C271.866 146.295 272.117 145.491 272.645 144.586ZM243.091 197.99C240.955 197.964 239.95 196.984 238.97 195.326C231.078 181.805 223.137 168.31 215.196 154.79C213.914 152.603 212.658 150.392 211.074 147.627C212.733 147.577 213.814 147.527 214.894 147.527C232.109 147.728 249.298 147.954 266.513 148.08C268.498 148.105 269.73 148.658 270.785 150.442C279.631 165.596 288.578 180.7 297.499 195.803C297.902 196.457 298.203 197.16 298.681 198.115C297.801 198.266 297.072 198.517 296.369 198.517C278.626 198.367 260.859 198.115 243.091 197.99ZM330.848 148.356C349.847 148.18 368.997 148.004 388.926 147.828C378.748 164.993 369.022 181.403 359.171 198.015C340.021 198.191 320.846 198.366 301.621 198.542C302.123 196.054 326.5 154.262 330.848 148.356ZM387.744 246.819C379.326 231.816 370.957 216.813 362.438 201.86C361.91 200.905 361.633 200.101 361.633 199.271C361.633 198.442 361.91 197.638 362.438 196.683C371.032 181.654 379.502 166.576 388.021 151.497C388.498 150.668 389.076 149.914 389.805 148.834C390.534 149.939 391.087 150.743 391.564 151.573C400.008 166.551 408.402 181.579 416.896 196.507C417.499 197.537 417.776 198.467 417.776 199.372C417.776 200.302 417.474 201.231 416.871 202.262C408.327 217.19 399.908 232.193 391.439 247.146C390.961 247.975 390.383 248.754 389.554 249.96C388.8 248.653 388.272 247.724 387.744 246.819ZM568.134 248.276C559.414 232.796 550.718 217.29 541.973 201.835C541.52 201.056 541.244 200.352 541.244 199.598C541.244 199.045 541.395 198.467 541.772 197.839C550.769 182.006 559.74 166.174 568.712 150.316C568.863 150.04 569.114 149.814 569.818 149.009C570.572 150.291 571.099 151.221 571.627 152.151C579.996 167.079 588.339 182.006 596.758 196.884C597.336 197.889 597.638 198.794 597.638 199.698C597.638 200.528 597.361 201.382 596.808 202.362C588.188 217.391 579.719 232.494 571.2 247.573C570.773 248.352 570.27 249.056 569.617 250.086C569.039 249.357 568.486 248.88 568.134 248.276ZM571.15 563.066C571.426 562.664 571.652 562.362 571.828 562.086C572.18 561.608 572.457 561.206 572.708 560.754L580.147 547.636C586.304 536.754 592.662 525.495 598.97 514.438C599.271 513.91 599.497 513.357 599.673 512.779L599.698 512.704L599.724 512.628C599.799 512.226 599.849 511.824 599.849 511.422C599.849 510.97 599.799 510.517 599.698 510.065L599.673 510.015L599.648 509.914C599.598 509.688 599.472 509.386 599.372 509.06C599.196 508.658 599.045 508.306 598.819 507.929C593.516 498.555 588.239 489.181 582.961 479.807C579.644 473.902 576.327 467.996 572.984 462.09C572.658 461.487 572.255 460.984 571.853 460.431C571.677 460.18 571.476 459.929 571.275 459.627L571.175 459.477L571.602 458.647C571.728 458.446 571.853 458.295 571.954 458.145C572.306 457.667 572.557 457.29 572.833 456.838L579.77 444.549C586.027 433.466 592.486 422.031 598.894 410.798L598.944 410.723L598.995 410.647C599.522 409.541 599.774 408.486 599.774 407.43C599.774 406.325 599.497 405.244 598.944 404.088L598.919 404.013L598.894 403.962C595.703 398.333 592.536 392.679 589.37 387.049L586.781 382.45L585.927 380.917L584.771 378.857C581.654 373.328 578.563 367.799 575.447 362.27L573.11 358.199C572.758 357.596 572.381 357.043 571.954 356.49C571.778 356.264 571.602 356.013 571.401 355.736L571.15 355.384L571.351 355.108C571.527 354.857 571.677 354.681 571.803 354.505C572.054 354.153 572.281 353.851 572.482 353.474L579.543 341.009L586.505 328.72L587.259 327.564L590.45 321.885C593.315 316.808 596.205 311.732 599.07 306.656C599.648 305.65 599.925 304.67 599.925 303.64C599.925 302.207 599.347 301.001 598.844 300.121C593.793 291.15 588.741 282.178 583.69 273.181C580.147 266.873 576.603 260.565 573.035 254.232C572.708 253.629 572.331 253.127 571.904 252.524C571.753 252.297 571.577 252.071 571.401 251.82L572.607 249.759L572.482 249.759C572.733 249.357 572.959 248.98 573.185 248.603C575.397 244.708 577.583 240.787 579.795 236.892C586.002 225.91 592.41 214.551 598.769 203.418C599.522 202.086 599.899 200.854 599.899 199.623C599.899 198.367 599.522 197.11 598.718 195.703C592.285 184.369 585.801 172.808 579.543 161.625L573.613 151.02C573.236 150.316 572.833 149.638 572.331 148.783L571.502 147.326C571.627 147.15 571.728 146.999 571.828 146.848C572.18 146.371 572.456 145.969 572.708 145.516L580.121 132.423C586.278 121.516 592.637 110.258 598.944 99.2C599.573 98.0943 599.874 97.0639 599.874 95.9832C599.874 94.5005 599.296 93.2691 598.794 92.3644C593.516 83.0157 588.239 73.6419 582.986 64.2932C579.644 58.3874 576.302 52.4566 572.984 46.5257C572.658 45.9225 572.255 45.4199 571.853 44.867C571.703 44.666 571.527 44.4398 571.376 44.2136L572.507 42.3037L572.406 42.3037C572.557 42.0775 572.708 41.8513 572.859 41.6L579.82 29.2859C586.128 18.1278 592.637 6.59267 599.095 -4.71623C599.724 -5.82199 600.025 -6.87748 600.025 -7.93298C600.025 -9.4157 599.447 -10.6471 598.919 -11.5267C593.391 -21.3026 587.887 -31.1037 582.383 -40.9047C579.292 -46.4084 576.201 -51.912 573.11 -57.3906C572.758 -57.9937 572.381 -58.5466 571.954 -59.0995C571.778 -59.3257 571.602 -59.577 571.401 -59.8534L571.2 -60.1298L571.853 -61.4618L570.22 -61.5372L569.516 -62.5173L568.888 -61.5874L568.436 -61.6126L567.254 -61.6628C566.325 -61.7131 565.52 -61.7634 564.716 -61.7382C559.489 -61.7382 554.237 -61.688 548.984 -61.6377C537.349 -61.5372 525.311 -61.4115 513.474 -61.3864C510.258 -61.3613 508.197 -60.155 506.563 -57.3403C500.306 -46.6346 493.847 -35.778 487.615 -25.2733C485.277 -21.3529 482.965 -17.4325 480.628 -13.512C480.327 -13.0346 480.05 -12.5319 479.749 -11.9791L471.832 -25.3738C465.298 -36.4817 458.739 -47.5895 452.205 -58.7225C450.722 -61.2356 448.511 -61.5372 446.978 -61.5372C438.308 -61.6377 429.613 -61.7382 420.942 -61.8387C411.744 -61.9393 402.572 -62.0398 393.374 -62.1403C392.62 -62.1403 391.966 -61.9895 391.338 -61.8136C391.263 -61.7885 391.187 -61.7633 391.087 -61.7633L390.082 -63.4974L388.951 -61.7885C388.8 -61.8387 388.699 -61.8639 388.599 -61.889C388.272 -61.9895 387.895 -62.1152 387.393 -62.1152L373.445 -61.9895C359.774 -61.889 346.128 -61.7633 332.456 -61.688C329.315 -61.6628 328.059 -59.5518 327.455 -58.5215C322.882 -50.7811 318.283 -43.0408 313.709 -35.3005C309.236 -27.7612 304.762 -20.222 300.289 -12.6576C300.163 -12.4565 300.063 -12.2304 299.962 -12.0293C299.887 -12.155 299.811 -12.3058 299.736 -12.4314L291.694 -26.0775C285.411 -36.733 278.903 -47.7654 272.57 -58.622C270.886 -61.4869 268.599 -61.8639 266.563 -61.889C255.631 -61.9895 244.674 -62.1152 233.742 -62.2408C227.158 -62.3162 220.574 -62.3916 214.015 -62.467C213.286 -62.4921 212.582 -62.3665 211.929 -62.2911C211.878 -62.2911 211.828 -62.266 211.778 -62.266L211.904 -62.6681L211.3 -62.6681L210.521 -64L209.617 -62.6429L208.762 -62.6429L174.534 -62.3162L150.861 -62.09L149.579 -62.0649L148.926 -60.9592C140.029 -45.9811 131.233 -31.1288 122.287 -16L120.301 -12.6325L114.446 -22.5592C107.208 -34.8482 99.9957 -47.112 92.7832 -59.401C91.6523 -61.3361 89.9434 -62.2911 87.6062 -62.3162C78.3832 -62.4167 69.1601 -62.5173 59.9371 -62.6178C51.1915 -62.7183 42.446 -62.8188 33.7004 -62.8942C32.9716 -62.8942 32.3182 -62.6932 31.8156 -62.5424C31.6899 -62.4921 31.5643 -62.467 31.4387 -62.4167L30.5088 -63.8492L29.202 -61.8639L28.5486 -61.7131L28.7748 -61.2356L28.5737 -60.9592C28.3224 -60.5822 28.0962 -60.2304 27.87 -59.9288C27.468 -59.3508 27.0659 -58.7728 26.7391 -58.1696L19.803 -45.9058C13.6962 -35.0995 7.41351 -23.9414 1.15595 -13.0094C0.401978 -11.6775 0.0501105 -10.4963 0.0501105 -9.29004C0.0501105 -8.08376 0.401978 -6.92774 1.1308 -5.5958C7.63971 5.88901 14.224 17.6 20.5569 28.9089L26.4125 39.3634C26.7392 39.9414 27.0659 40.5194 27.468 41.2231L28.247 42.555L28.9758 43.8367L28.8502 44.2639L29.2271 44.2639L30.0565 45.7215L30.9863 44.3393L31.7653 44.3644C32.1423 44.3895 32.469 44.3895 32.7957 44.4147C33.3989 44.4398 33.9266 44.4649 34.4543 44.4649L46.7182 44.3393C59.937 44.2136 73.6334 44.088 87.0784 44.0126C88.1842 44.0126 89.1392 43.8367 89.9936 43.4597C90.1444 44.5906 90.6219 45.5456 91.0492 46.2744C98.0356 58.6639 104.997 71.0786 111.983 83.4932L116.658 91.8367C116.934 92.3393 117.236 92.8419 117.612 93.4953L118.266 94.6262L118.718 95.4052L118.216 96.5613L119.372 96.5613L120.05 97.7424L120.075 97.6922C120.226 97.9937 120.352 98.2702 120.528 98.5718L125.981 107.82C133.118 119.908 140.507 132.423 147.719 144.762C149.378 147.602 151.69 148.004 153.726 148.004C165.537 148.105 177.349 148.23 189.135 148.381C194.739 148.457 200.343 148.507 205.948 148.582C206.601 148.582 207.254 148.557 207.983 148.507C208.285 148.482 208.611 148.457 208.963 148.431L209.164 148.758L210.672 151.372C211.602 153.005 212.456 154.463 213.311 155.92L219.569 166.576C225.424 176.528 231.254 186.48 237.085 196.457C238.165 198.316 239.749 200.226 243.141 200.251C254.903 200.327 266.84 200.478 278.4 200.603C284.406 200.679 290.413 200.754 296.419 200.804C297.148 200.804 297.801 200.679 298.379 200.528C298.58 200.478 298.781 200.427 298.982 200.402L299.007 200.452L298.932 200.854L299.208 200.854C299.409 201.257 299.61 201.634 299.761 201.985C300.113 202.689 300.389 203.292 300.741 203.895C303.179 208.042 305.642 212.214 308.105 216.36C314.287 226.84 320.695 237.696 326.903 248.402C328.511 251.141 330.597 252.323 333.914 252.323C346.178 252.398 358.668 252.549 370.756 252.699C375.581 252.75 380.381 252.825 385.206 252.875C385.809 252.875 386.387 252.85 387.066 252.8C386.789 253.202 386.563 253.579 386.337 253.981C383.975 258.153 381.613 262.35 379.25 266.521C373.143 277.328 366.836 288.511 360.578 299.468C359.849 300.725 359.497 301.906 359.497 303.087C359.497 304.318 359.849 305.525 360.653 306.882C364.549 313.742 368.419 320.628 372.289 327.514L372.942 328.67L373.118 328.67L380.482 341.738L386.036 351.615C386.362 352.193 386.689 352.771 387.116 353.525L387.317 353.851L387.393 353.977L387.493 354.103C387.594 354.253 387.719 354.379 387.82 354.53L387.744 354.555L387.971 354.957L386.991 356.641L388.926 356.616L389.277 357.244L390.961 360.184L397.319 370.94C403.728 381.797 410.337 393.005 416.796 404.063C418.379 406.802 420.54 408.034 423.732 408.059C435.744 408.134 447.933 408.26 459.719 408.411C464.821 408.461 469.922 408.536 474.999 408.586C475.652 408.586 476.331 408.561 477.085 408.536C477.06 408.586 477.035 408.637 477.009 408.687L471.129 419.066C464.117 431.456 457.106 443.845 450.069 456.209C449.868 456.561 449.767 456.838 449.717 457.039L449.667 457.139L449.592 457.365C449.441 457.944 449.365 458.496 449.365 459.049C449.365 459.451 449.416 459.828 449.466 460.23L449.491 460.356L449.541 460.482C449.717 461.06 449.969 461.613 450.245 462.14C455.246 470.986 460.222 479.832 465.198 488.679C468.942 495.313 472.662 501.973 476.406 508.607C476.758 509.236 477.21 509.713 477.613 510.165C477.763 510.341 477.939 510.517 478.115 510.743L478.165 510.819L477.21 512.653L479.673 512.628L480.075 513.106L480.402 512.603L480.98 512.603L538.002 512.075L538.379 512.075L538.731 511.95C538.882 511.9 539.007 511.849 539.133 511.799C539.133 511.899 539.158 512.025 539.158 512.126L539.183 512.251L539.208 512.377C539.409 513.131 539.686 513.86 540.113 514.614C546.521 525.948 552.905 537.307 559.263 548.666L565.546 559.874C566.048 560.754 566.551 561.608 567.305 562.94L569.114 566.057L571.15 563.066ZM568.159 354.53C567.003 354.58 566.174 354.681 565.344 354.656C547.929 354.454 530.513 354.228 513.097 354.078C511.288 354.052 510.031 353.675 509.026 351.967C504.05 343.447 499.024 334.928 493.998 326.408L493.822 326.408C489.952 319.824 486.057 313.265 482.186 306.681C481.759 305.952 481.432 305.173 480.905 304.092C482.161 304.017 483.116 303.891 484.071 303.891C501.261 304.092 518.475 304.343 535.665 304.419C538.077 304.419 539.435 305.248 540.641 307.309C544.41 313.793 548.23 320.276 552.05 326.735L552.025 326.735C557.277 335.631 562.505 344.553 567.757 353.449C567.908 353.701 567.983 353.977 568.159 354.53ZM571.074 255.389C579.694 270.668 588.264 285.998 596.884 301.278C597.361 302.132 597.663 302.886 597.663 303.665C597.663 304.243 597.487 304.871 597.11 305.55C593.164 312.486 589.219 319.447 585.298 326.408L585.173 326.408C580.272 335.053 575.372 343.724 570.471 352.369C570.27 352.746 569.969 353.097 569.491 353.776C568.888 352.997 568.285 352.444 567.908 351.74C563.158 343.296 558.408 334.852 553.659 326.408L553.483 326.408C549.788 319.849 546.119 313.315 542.4 306.781C541.721 305.625 541.395 304.595 541.395 303.564C541.395 302.559 541.721 301.554 542.375 300.398C550.844 285.671 559.137 270.844 567.506 256.067C568.033 255.137 568.637 254.232 569.416 252.976C570.119 254.006 570.672 254.66 571.074 255.389ZM538.856 302.308C519.682 302.484 500.507 302.66 481.282 302.836C481.985 299.946 504.729 260.942 510.459 252.649C529.432 252.473 548.632 252.297 568.611 252.121C558.433 269.261 548.708 285.671 538.856 302.308ZM536.117 200.653C537.927 200.679 539.183 201.03 540.188 202.764C549.16 218.119 558.207 233.399 567.229 248.704C567.556 249.257 567.807 249.86 568.235 250.739C567.154 250.865 566.325 251.066 565.52 251.041C547.979 250.865 530.438 250.639 512.896 250.463C511.087 250.438 509.805 250.111 508.8 248.377C499.778 232.947 490.655 217.566 481.583 202.161C481.307 201.709 481.156 201.181 480.754 200.226C482.086 200.176 482.94 200.075 483.82 200.101C501.286 200.276 518.702 200.503 536.117 200.653ZM333.864 250.061C331.502 250.061 330.044 249.407 328.813 247.271C320.167 232.394 311.372 217.592 302.651 202.739C302.174 201.91 301.772 201.03 301.143 199.774C302.576 199.698 303.656 199.598 304.712 199.623C321.801 199.824 338.915 200.05 356.004 200.176C358.366 200.201 359.799 200.88 361.03 202.991C369.65 217.768 378.396 232.469 387.091 247.196C387.619 248.101 388.147 249.03 388.951 250.438C387.292 250.513 386.211 250.614 385.156 250.614C368.067 250.413 350.978 250.161 333.864 250.061ZM391.187 250.639C391.414 249.91 391.464 249.257 391.765 248.754C400.913 233.273 410.086 217.818 419.233 202.337C419.987 201.081 420.792 200.427 422.375 200.402C440.57 200.302 458.764 200.126 476.984 199.975C477.311 199.975 477.638 200.075 478.467 200.201C477.864 201.382 477.462 202.262 476.959 203.116C468.138 218.019 459.267 232.896 450.496 247.824C449.491 249.533 448.436 250.312 446.35 250.312C428.808 250.387 411.267 250.589 393.751 250.739C392.997 250.739 392.243 250.664 391.187 250.639ZM452.155 249.156C460.976 233.751 469.646 218.27 478.392 202.815C478.693 202.262 479.12 201.759 479.849 200.704C480.578 201.96 481.03 202.739 481.458 203.493C489.977 218.672 498.496 233.876 507.066 249.056C507.569 249.935 507.87 250.714 507.87 251.518C507.87 252.172 507.669 252.85 507.242 253.629C498.446 269.035 489.751 284.515 481.005 299.971C480.678 300.524 480.276 301.026 479.698 301.856C479.02 300.85 478.417 300.096 477.964 299.292C469.42 284.088 460.926 268.884 452.356 253.73C451.853 252.85 451.552 252.046 451.552 251.242C451.527 250.589 451.703 249.91 452.155 249.156ZM393.952 251.82C411.367 252.021 428.783 252.247 446.199 252.398C448.008 252.423 449.265 252.775 450.27 254.509C459.267 269.939 468.389 285.319 477.437 300.725C477.713 301.202 477.914 301.705 478.366 302.685C477.035 302.76 476.18 302.836 475.326 302.81C457.91 302.609 440.494 302.383 423.078 302.233C421.269 302.207 420.038 301.83 419.032 300.096C410.061 284.767 401.014 269.487 391.992 254.207C391.665 253.629 391.388 253.026 390.911 252.071C392.092 251.971 393.022 251.82 393.952 251.82ZM389.202 352.746C388.674 351.841 388.297 351.187 387.92 350.534C383.397 342.492 378.873 334.45 374.375 326.434L374.199 326.434C370.329 319.548 366.433 312.662 362.538 305.801C361.985 304.821 361.684 303.992 361.684 303.112C361.684 302.333 361.935 301.529 362.463 300.624C371.108 285.495 379.652 270.291 388.247 255.112C388.674 254.358 389.177 253.654 390.056 252.348C390.911 253.856 391.464 254.785 392.017 255.715C400.335 270.542 408.603 285.37 416.997 300.147C417.6 301.227 417.952 302.182 417.952 303.137C417.952 303.992 417.675 304.896 417.097 305.902C413.177 312.712 409.307 319.573 405.437 326.408L405.361 326.408C400.687 334.676 396.013 342.945 391.338 351.213C390.986 351.841 390.509 352.419 389.78 353.5C389.554 353.223 389.378 352.972 389.202 352.746ZM407.271 326.735L407.145 326.735C411.569 319.271 415.966 311.858 420.415 304.369C439.564 304.193 458.739 304.017 477.939 303.841C477.738 305.047 471.983 315.351 465.575 326.408L465.324 326.408C460.247 334.978 455.221 343.472 450.144 352.017C449.667 352.746 449.265 353.349 448.938 353.826C429.889 354.002 410.815 354.178 390.936 354.354C396.44 344.98 401.893 335.832 407.271 326.735ZM452.08 353.223C457.081 344.402 462.082 335.581 467.058 326.76L466.957 326.76C470.827 319.9 474.722 313.064 478.618 306.203C478.819 305.826 479.145 305.55 479.774 304.746C480.553 306.128 481.106 307.058 481.659 308.038C485.177 314.27 488.67 320.528 492.188 326.76L492.163 326.76C496.988 335.355 501.839 343.925 506.714 352.494C506.965 352.947 507.141 353.374 507.292 353.776C507.367 354.002 507.443 354.253 507.493 354.48C507.518 354.58 507.518 354.656 507.543 354.756C507.569 354.982 507.594 355.183 507.594 355.409C507.594 355.837 507.543 356.264 507.418 356.691C507.267 357.169 507.016 357.671 506.714 358.224C498.195 373.051 489.851 387.954 481.432 402.806C480.955 403.661 480.402 404.465 479.648 405.621C479.045 404.792 478.593 404.239 478.241 403.636C469.545 388.155 460.875 372.649 452.13 357.219C451.703 356.49 451.527 355.837 451.502 355.183C451.502 354.53 451.677 353.902 452.08 353.223ZM474.949 406.375C457.86 406.199 440.746 405.948 423.656 405.847C421.244 405.822 419.862 405.043 418.655 402.982C410.111 388.306 401.466 373.73 392.846 359.104C392.293 358.149 391.74 357.169 391.137 356.163C392.017 355.962 392.67 355.736 393.324 355.761C411.192 355.937 429.06 356.163 446.928 356.339C447.154 356.339 447.38 356.364 447.581 356.39C448.838 356.691 449.768 357.445 450.572 358.676C459.669 374.182 468.817 389.638 477.939 405.118C478.065 405.345 478.14 405.621 478.341 406.199C478.216 406.224 478.09 406.274 477.964 406.3C476.833 406.325 475.878 406.4 474.949 406.375ZM480.88 406.325C480.905 406.274 480.93 406.249 480.955 406.199C481.633 404.968 482.111 404.088 482.614 403.234C491.259 388.632 499.979 374.031 508.549 359.38C509.755 357.319 511.062 356.49 513.499 356.465C530.588 356.44 547.677 356.214 564.766 356.063C565.747 356.038 566.777 356.138 568.059 356.189C567.958 356.54 567.858 356.867 567.757 357.169C567.531 357.646 567.33 358.098 567.104 358.501C558.182 373.604 549.21 388.658 540.289 403.761C539.46 405.194 538.63 406.098 536.72 406.098C518.852 406.174 500.984 406.375 483.116 406.526C482.513 406.526 481.885 406.425 480.88 406.325ZM541.42 407.355C541.42 407.003 541.495 406.651 541.571 406.3C541.671 405.973 541.797 405.646 541.998 405.269C550.794 389.839 559.489 374.383 568.235 358.928C568.536 358.375 568.963 357.872 569.541 357.018C570.195 357.948 570.722 358.576 571.125 359.305C574.995 366.191 578.89 373.076 582.76 379.987C583.439 381.194 584.117 382.375 584.771 383.581C588.817 390.769 592.838 397.931 596.884 405.118C597.286 405.948 597.487 406.702 597.487 407.456C597.487 408.184 597.311 408.913 596.934 409.717C588.188 425.022 579.543 440.377 570.848 455.732C570.521 456.285 570.119 456.787 569.391 457.843C568.662 456.586 568.209 455.832 567.807 455.053C559.263 439.874 550.769 424.67 542.199 409.491C541.772 408.737 541.495 408.059 541.42 407.355ZM480.98 408.134C482.161 408.059 483.091 407.933 484.021 407.958C501.21 408.134 518.4 408.41 535.615 408.486C538.027 408.511 539.384 409.29 540.591 411.351C541.294 412.532 541.973 413.713 542.676 414.919C550.668 428.591 558.71 442.212 566.752 455.858C567.179 456.586 567.556 457.391 568.059 458.396C568.059 458.396 568.059 458.396 568.059 458.421C566.852 458.496 565.922 458.622 565.018 458.597C547.703 458.396 530.413 458.17 513.097 458.044C511.137 458.019 509.855 457.541 508.8 455.732C499.954 440.603 491.007 425.525 482.086 410.421C481.734 409.742 481.407 409.014 480.98 408.134ZM478.316 507.527C469.596 492.046 460.9 476.54 452.155 461.06C451.929 460.633 451.753 460.23 451.627 459.853C451.577 459.602 451.552 459.351 451.552 459.099C451.552 458.748 451.602 458.371 451.703 457.994C451.778 457.793 451.828 457.592 451.954 457.391C460.976 441.558 469.922 425.726 478.894 409.868C479.07 409.592 479.321 409.365 480 408.561C480.729 409.843 481.282 410.773 481.809 411.703C490.178 426.63 498.521 441.558 506.94 456.436C507.217 456.913 507.418 457.365 507.569 457.818C507.594 457.893 507.594 457.969 507.619 458.044C507.719 458.371 507.77 458.672 507.795 458.974C507.77 459.778 507.543 460.607 506.991 461.562C498.371 476.591 489.902 491.694 481.357 506.773C480.93 507.527 480.427 508.256 479.774 509.286C479.221 508.607 478.668 508.13 478.316 507.527ZM482.513 507.351C491.208 492.649 499.979 477.973 508.599 463.221C509.83 461.11 511.187 460.431 513.575 460.406C530.538 460.356 547.527 460.155 564.515 460.004C565.546 460.004 566.626 460.054 568.285 460.08C568.109 460.431 567.958 460.708 567.807 460.984C558.207 477.169 548.909 492.875 539.46 508.833C539.032 509.311 538.53 509.613 537.952 509.839C519.179 510.015 500.306 510.191 480.93 510.367C481.583 509.085 482.01 508.18 482.513 507.351ZM567.531 558.743C559.062 543.64 550.593 528.536 542.098 513.458C541.772 512.88 541.571 512.327 541.42 511.799C541.395 511.598 541.37 511.397 541.37 511.196C541.37 510.844 541.42 510.492 541.495 510.14C541.596 509.839 541.696 509.562 541.872 509.236C550.668 493.83 559.363 478.35 568.109 462.894C568.436 462.341 568.813 461.814 569.416 460.984C570.044 461.889 570.597 462.517 570.999 463.246C579.594 478.526 588.188 493.805 596.808 509.085C596.984 509.386 597.11 509.663 597.21 509.939C597.286 510.14 597.361 510.367 597.411 510.568C597.411 510.593 597.411 510.593 597.437 510.618C597.512 510.894 597.537 511.171 597.537 511.447C597.537 511.673 597.512 511.925 597.462 512.176C597.361 512.528 597.21 512.905 596.984 513.332C588.188 528.737 579.493 544.218 570.748 559.673C570.421 560.226 570.019 560.729 569.29 561.809C568.511 560.478 568.008 559.623 567.531 558.743Z" fill="#D4D4D4"/>
</svg>
