<svg width="111" height="92" viewBox="0 0 111 92" fill="none" xmlns="http://www.w3.org/2000/svg">
<path d="M110.96 38.451L80.0844 65.6304L110.96 65.6304L110.96 38.451Z" fill="#00B3FF"/>
<path d="M80.0844 65.6304L49.1961 92.8207L80.0844 92.8207L80.0844 65.6304Z" fill="#00B3FF"/>
<path d="M49.196 38.451L18.3203 65.6304L49.196 65.6304L49.196 38.451Z" fill="#00B3FF"/>
<path d="M29.4027 37.9345L17.7338 48.2064L29.4027 48.2064L29.4027 37.9345Z" fill="#00B3FF"/>
<path d="M80.0844 38.451L49.1961 65.6304L80.0844 65.6304L80.0844 38.451Z" fill="#0047FF"/>
<path d="M67.2923 38.4509L110.96 38.4509L89.1199 19.2254L67.2923 38.4509Z" fill="#0047FF"/>
<path d="M110.96 38.4509L110.96 -3.43323e-05L89.1199 19.2254L110.96 38.4509Z" fill="#287FEA"/>
<path d="M18.3204 92.8207L49.1961 92.8207L80.0844 65.6304L49.1961 65.6304L18.3204 92.8207Z" fill="#287FEA"/>
<path d="M33.6958 75.1332L41.1589 68.5636L33.6958 68.5636L33.6958 75.1332Z" fill="#0047FF"/>
</svg>
