<svg width="948" height="754" viewBox="0 0 948 754" fill="none" xmlns="http://www.w3.org/2000/svg">
<g opacity="0.3" clip-path="url(#clip0_294_3126)">
<path d="M-291.117 -106L-291.117 1005M-254.739 -106L-254.739 1005M-218.361 -106L-218.361 1005M-181.983 -106L-181.983 1005M-145.605 -106L-145.605 1005M-109.227 -106L-109.227 1005M-72.8485 -106L-72.8486 1005M-36.4704 -106L-36.4705 1005M-0.0923857 -106L-0.0924573 1005M36.2856 -106L36.2856 1005M72.6637 -106L72.6636 1005M109.042 -106L109.042 1005M145.42 -106L145.42 1005M181.798 -106L181.798 1005M218.176 -106L218.176 1005M254.554 -106L254.554 1005M290.932 -106L290.932 1005M327.31 -106V1005M363.688 -106V1005M400.066 -106V1005M436.444 -106V1005M472.822 -106V1005M509.2 -106V1005M545.578 -106V1005M581.956 -106V1005M618.334 -106V1005M654.712 -106V1005M691.09 -106V1005M727.468 -106V1005M763.846 -106V1005M800.224 -106V1005M836.602 -106V1005M872.98 -106V1005M909.358 -106V1005M945.736 -106L945.736 1005M982.114 -106L982.114 1005M1018.49 -106L1018.49 1005M1054.87 -106L1054.87 1005M1091.25 -106L1091.25 1005M1127.63 -106L1127.63 1005M1164 -106L1164 1005M1200.38 -106L1200.38 1005M1235 -85.4476L-314 -85.4478M1235 -49.0406L-314 -49.0408M1235 -12.6336L-314 -12.6338M1235 23.7734L-314 23.7733M1235 60.1804L-314 60.1803M1235 96.5874L-314 96.5873M1235 132.994L-314 132.994M1235 169.401L-314 169.401M1235 205.808L-314 205.808M1235 242.215L-314 242.215M1235 278.622L-314 278.622M1235 315.029L-314 315.029M1235 351.436L-314 351.436M1235 387.843L-314 387.843M1235 424.25L-314 424.25M1235 460.657L-314 460.657M1235 497.064L-314 497.064M1235 533.471L-314 533.471M1235 569.878L-314 569.878M1235 606.285L-314 606.285M1235 642.692L-314 642.692M1235 679.099L-314 679.099M1235 715.506L-314 715.506M1235 751.913L-314 751.913M1235 788.32L-314 788.32M1235 824.727L-314 824.727M1235 861.134L-314 861.134M1235 897.541L-314 897.541M1235 933.948L-314 933.948M1235 970.355L-314 970.355" stroke="url(#paint0_linear_294_3126)" stroke-width="1.34228"/>
</g>
<defs>
<linearGradient id="paint0_linear_294_3126" x1="460.5" y1="-106" x2="460.5" y2="1005" gradientUnits="userSpaceOnUse">
<stop stop-color="white" stop-opacity="0.5"/>
<stop offset="1" stop-color="white" stop-opacity="0"/>
</linearGradient>
<clipPath id="clip0_294_3126">
<rect width="1516" height="800" fill="white" transform="translate(-284)"/>
</clipPath>
</defs>
</svg>
