<svg width="204" height="202" viewBox="0 0 204 202" fill="none" xmlns="http://www.w3.org/2000/svg">
<path d="M74.3697 6.45042C97.9872 -1.38431 123.591 -0.796502 146.834 8.11405C170.077 17.0246 189.527 33.7087 201.882 55.334C202.998 57.2777 203.536 59.5001 203.432 61.7391C203.328 63.978 202.586 66.14 201.294 67.9701C199.96 69.894 198.105 71.3962 195.946 72.2996C193.788 73.2029 191.416 73.4699 189.11 73.0689C182.708 71.9733 176.137 72.4764 169.978 74.5334C160.712 77.836 152.866 84.2296 147.758 92.6402C146.286 95.1002 143.988 96.9559 141.274 97.876C138.56 98.796 135.607 98.7205 132.943 97.6628C127.453 95.4092 121.557 94.3175 115.627 94.4565L141.306 171.455C142.284 174.277 144.333 176.599 147.009 177.919C149.686 179.24 152.774 179.451 155.604 178.507C158.434 177.563 160.777 175.54 162.126 172.878C163.474 170.215 163.719 167.128 162.807 164.284L160.414 157.111C159.463 154.257 159.682 151.143 161.025 148.452C162.368 145.762 164.725 143.716 167.576 142.765C170.427 141.815 173.54 142.036 176.229 143.382C178.918 144.728 180.963 147.087 181.915 149.941L184.307 157.114C196.891 200.437 135.782 220.872 119.806 178.625L94.1488 101.695C89.254 105.05 85.1473 109.431 82.1134 114.533C80.6422 116.994 78.3442 118.85 75.6301 119.77C72.916 120.69 69.9629 120.614 67.2986 119.556C58.2199 115.711 48.062 115.272 38.6897 118.319C32.555 120.53 26.9903 124.081 22.4002 128.714C20.7751 130.387 18.7093 131.563 16.4423 132.108C14.1753 132.652 11.8001 132.543 9.59234 131.791C7.48545 131.089 5.62028 129.804 4.21325 128.084C2.8062 126.365 1.91498 124.281 1.64297 122.076C-1.44783 97.3552 4.10728 72.3307 17.3647 51.2532C30.6221 30.1758 50.7642 14.3452 74.3697 6.45042ZM141.784 87.9516C147.866 78.415 156.941 71.1718 167.585 67.3599C174.912 64.9102 182.731 64.3094 190.348 65.611C191.245 65.7695 192.169 65.668 193.01 65.3184C193.852 64.9688 194.576 64.3857 195.097 63.6379C195.575 62.9803 195.85 62.1971 195.888 61.3848C195.927 60.5724 195.727 59.7663 195.314 59.0658C185.171 41.3266 169.855 27.1097 151.419 18.3194C132.982 9.52919 112.304 6.58537 92.1561 9.8823C110.223 21.2196 129.28 53.801 141.784 87.9516ZM126.973 176.236C129.193 182.895 133.966 188.4 140.24 191.539C146.515 194.679 153.777 195.196 160.43 192.978C167.083 190.759 172.581 185.986 175.715 179.708C178.848 173.431 179.361 166.163 177.14 159.504L174.748 152.331C174.417 151.397 173.733 150.631 172.843 150.196C171.954 149.762 170.93 149.694 169.991 150.007C169.052 150.32 168.274 150.989 167.823 151.871C167.373 152.752 167.286 153.776 167.581 154.721L169.974 161.895C171.56 166.651 171.194 171.842 168.955 176.326C166.717 180.81 162.79 184.219 158.038 185.804C153.286 187.389 148.098 187.019 143.616 184.777C139.135 182.534 135.726 178.602 134.139 173.846L107.987 95.43C105.514 95.9505 103.112 96.7608 100.828 97.8441L126.973 176.236ZM134.574 90.209C91.0599 -22.4115 43.5822 -6.64798 76.3775 109.471C93.6264 85.0305 116.276 83.6393 134.574 90.209ZM17.0153 123.407C23.5825 116.47 32.0982 111.691 41.4383 109.699C50.7784 107.708 60.5041 108.597 69.3318 112.251C58.8103 77.4068 54.4652 39.8306 62.1673 19.8777C44.0685 29.3284 29.2905 44.0896 19.8128 62.1843C10.3351 80.2789 6.61025 100.843 9.13717 121.122C9.27086 121.973 9.64425 122.768 10.2135 123.415C10.7828 124.061 11.5244 124.532 12.3513 124.772C13.1783 125.012 14.0562 125.011 14.8823 124.769C15.7083 124.527 16.4483 124.055 17.0153 123.407Z" fill="#EDEDF2"/>
</svg>
